<svg xmlns="http://www.w3.org/2000/svg" width="24" height="24" viewBox="0 0 24 24"><path d="M12,4.1a.75.75,0,0,0-.75.74.78.78,0,0,0,.41.66V7h.7V5.5a.77.77,0,0,0,.4-.66A.78.78,0,0,0,12,4.1Zm0,1a.28.28,0,1,1,.28-.28A.29.29,0,0,1,12,5.12Zm.36,13.31V16.38h-.7v2.05a.73.73,0,0,0-.4.63.77.77,0,0,0,.75.75.74.74,0,0,0,.75-.73h0A.77.77,0,0,0,12.36,18.43Zm-.35.91h0a.29.29,0,0,1-.28-.28.3.3,0,0,1,.28-.28.28.28,0,1,1,0,.56ZM5.3,13.75a.75.75,0,0,0-.17,1.49H5.3a.77.77,0,0,0,.65-.4H8v-.7H6A.77.77,0,0,0,5.3,13.75Zm0,1A.29.29,0,0,1,5,14.47H5a.28.28,0,1,1,.29.28Zm13.41-1a.76.76,0,0,0-.63.39H15v.7h3.05a.72.72,0,0,0,.65.4.75.75,0,1,0,.17-1.49Zm.3.74h0a.29.29,0,0,1-.28.28.27.27,0,0,1-.28-.26v0a.29.29,0,0,1,.28-.28A.29.29,0,0,1,19,14.49ZM5.42,8.76a.72.72,0,0,0,1,0,.76.76,0,0,0,0-1,.74.74,0,0,0-.72-.19L3.92,5.73l-.49.49L5.23,8A.74.74,0,0,0,5.42,8.76ZM5.74,8a.28.28,0,0,1,.38,0,.27.27,0,0,1,0,.39.28.28,0,0,1-.38,0A.35.35,0,0,1,5.74,8ZM4.18,13.21,1.57,10.6l.49-.51,2.43,2.42H8v.7Zm4.87,5.73L7,21l-.49-.49,1.84-1.84V17.52l-.81.82H5.93v1.4h-.7v-2.1h2l1.2-1.23h-4l-1,1-.49-.49,1.24-1.23H9v.7H8.93l.26.27L9.05,17ZM4.72,11,2.06,8.37l.49-.49L5,10.32H6.44V9.67h.7V11ZM8.4,2.44l2.42,2.43V7.29h-.7V5.15L7.91,2.93Zm8.69,14,2.52,2.51-.49.49-2.31-2.3H15.65v1.54l1.81,1.84L17,21,15,19V17.13H14v1.44h-.7V16H14v.43ZM20,13.21h-4.8v-.7H19.7l2.43-2.42.48.51Zm-4.8-7.32a.73.73,0,0,0,.73-.73.64.64,0,0,0,0-.2l1.44-1.44L16.84,3,15.39,4.45a.69.69,0,0,0-.72.19.76.76,0,0,0,0,1A.63.63,0,0,0,15.18,5.89ZM15,5a.3.3,0,0,1,.38,0,.28.28,0,0,1,0,.4h0a.28.28,0,0,1-.38,0A.28.28,0,0,1,15,5Zm2.32,3.15a.76.76,0,0,0,0,1,.74.74,0,0,0,1,0,.76.76,0,0,0,.18-.72l2.24-2.24-.49-.49L18.05,8A.75.75,0,0,0,17.32,8.15Zm.75.7h0a.28.28,0,0,1-.4,0h0a.28.28,0,0,1,0-.38.29.29,0,0,1,.37,0A.27.27,0,0,1,18.07,8.85Zm1.17,1.7,2.44-2.44.52.49-2.68,2.65H17.79V12h-.7v-1.4ZM9.8,19h.69v1.14L9.31,21.39l-.49-.51,1-1Zm4.17.21L15,20.3v1.3h-.7v-1l-.86-.86Zm.37-14.94h-.7V2.4h.7Zm5.15,11.52L20.6,17l-.49.49L19,16.32ZM14.92,9l-.49-.49,3.95-4,.49.5ZM9.06,9,5.11,5.06l.49-.5,4,4ZM8.12,5.5,6.26,3.65l.5-.5L8.62,5Z" opacity="0.5"/><path d="M12,1A11,11,0,1,0,23,12,11,11,0,0,0,12,1Zm0,20a9,9,0,1,1,9-9A9,9,0,0,1,12,21Zm3-10V9A3,3,0,0,0,9,9v2a1,1,0,0,0-1,1v4a1,1,0,0,0,1,1h6a1,1,0,0,0,1-1V12A1,1,0,0,0,15,11Zm-1.5,0h-3V9a1.5,1.5,0,0,1,3,0Z"/><rect width="24" height="24" fill="none"/></svg>