<?xml version="1.0" encoding="utf-8"?>
<!-- Generator: Adobe Illustrator 26.0.1, SVG Export Plug-In . SVG Version: 6.00 Build 0)  -->
<svg version="1.1" id="Layer_1" xmlns="http://www.w3.org/2000/svg" xmlns:xlink="http://www.w3.org/1999/xlink" x="0px" y="0px"
	 viewBox="0 0 24 24" style="enable-background:new 0 0 24 24;" xml:space="preserve">
<style type="text/css">
	.st0{opacity:0.5;enable-background:new    ;}
</style>
<g>
	<path class="st0" d="M7.1,11V9.7H6.4v0.7H5L3.6,8.9C3.5,9.1,3.4,9.4,3.3,9.6L4.7,11H7.1z"/>
	<path class="st0" d="M8.6,5L7.7,4.1C7.5,4.2,7.3,4.3,7.1,4.5l1,1L8.6,5z"/>
	<path class="st0" d="M14.3,3.3c-0.2-0.1-0.5-0.1-0.7-0.2v1.1h0.7V3.3z"/>
	<path class="st0" d="M17.3,8.2c-0.3,0.3-0.3,0.7,0,1c0.3,0.3,0.7,0.3,1,0c0.2-0.2,0.2-0.5,0.2-0.7l1.2-1.2
		c-0.1-0.2-0.2-0.4-0.4-0.6L18,8C17.8,7.9,17.5,8,17.3,8.2z M18.1,8.8C18,9,17.8,9,17.7,8.9c0,0,0,0,0,0c-0.1-0.1-0.1-0.3,0-0.4
		c0.1-0.1,0.3-0.1,0.4,0C18.2,8.6,18.2,8.7,18.1,8.8z"/>
	<path class="st0" d="M5.4,8.8c0.3,0.3,0.7,0.3,1,0c0.3-0.3,0.3-0.7,0-1C6.2,7.6,6,7.5,5.7,7.6L4.8,6.6C4.7,6.8,4.5,7,4.4,7.2L5.2,8
		C5.1,8.3,5.2,8.6,5.4,8.8z M5.7,8C5.8,7.9,6,7.9,6.1,8c0.1,0.1,0.1,0.3,0,0.4c0,0,0,0,0,0C6,8.5,5.8,8.5,5.7,8.4
		C5.7,8.3,5.7,8.1,5.7,8z"/>
	<path class="st0" d="M9.8,19.9l-0.7,0.7c0.2,0.1,0.5,0.2,0.8,0.2l0.6-0.6V19H9.8L9.8,19.9z"/>
	<path class="st0" d="M19,16.3l0.5,0.6c0.1-0.2,0.3-0.4,0.4-0.6l-0.4-0.5L19,16.3z"/>
	<path class="st0" d="M15.2,5.9L15.2,5.9c0.4,0,0.8-0.3,0.8-0.7c0-0.1,0-0.1,0-0.2l0.7-0.7c-0.2-0.1-0.4-0.3-0.7-0.4l-0.5,0.5
		c-0.3-0.1-0.5,0-0.7,0.2c-0.3,0.3-0.3,0.7,0,1C14.8,5.8,15,5.9,15.2,5.9z M15,5C15,5,15,5,15,5c0.1-0.1,0.3-0.1,0.4,0
		c0.1,0.1,0.1,0.3,0,0.4c0,0,0,0,0,0c-0.1,0.1-0.3,0.1-0.4,0C14.9,5.3,14.9,5.1,15,5z"/>
	<path class="st0" d="M13.4,19.7l0.9,0.9v0.1c0.2-0.1,0.5-0.1,0.7-0.2v-0.2l-1-1.1L13.4,19.7z"/>
	<path class="st0" d="M17.1,10.6V12h0.7v-0.8h1.7l1.3-1.2c-0.1-0.3-0.1-0.5-0.2-0.8l-1.3,1.3L17.1,10.6z"/>
	<path class="st0" d="M21,11.3l-1.3,1.3H16v0.7h4l1-1c0-0.1,0-0.1,0-0.2C21,11.7,21,11.5,21,11.3z"/>
	<path class="st0" d="M19.5,14.6c0.1-0.4-0.2-0.8-0.6-0.8c0,0,0,0,0,0h-0.2c-0.3,0-0.5,0.2-0.6,0.4H16v0.7h2
		c0.1,0.2,0.4,0.4,0.7,0.4C19.1,15.3,19.5,15,19.5,14.6z M18.7,14.8c-0.1,0-0.3-0.1-0.3-0.3c0,0,0,0,0,0c0-0.2,0.1-0.3,0.3-0.3
		c0.1,0,0.3,0.1,0.3,0.3h0C19,14.6,18.9,14.8,18.7,14.8z"/>
	<path class="st0" d="M15.9,16.4C15.7,16.8,15.4,17,15,17h-1.7v1.6H14v-1.4h1V19l1,1c0.2-0.1,0.4-0.2,0.6-0.3l-1-1v-1.5h1.2l1.4,1.4
		c0.2-0.2,0.3-0.3,0.5-0.5l-1.6-1.6L15.9,16.4z"/>
	<path class="st0" d="M12.4,18.4L12.4,18.4V17h-0.7v1.4c-0.2,0.1-0.4,0.4-0.4,0.6c0,0.4,0.3,0.7,0.8,0.8c0.4,0,0.7-0.3,0.8-0.7
		c0,0,0,0,0,0C12.8,18.8,12.6,18.6,12.4,18.4z M12,19.3C12,19.3,12,19.3,12,19.3c-0.2,0-0.3-0.1-0.3-0.3c0-0.2,0.1-0.3,0.3-0.3
		c0.2,0,0.3,0.1,0.3,0.3C12.3,19.2,12.2,19.3,12,19.3z"/>
	<path class="st0" d="M8,16v-0.3H4.2l-0.3,0.3c0.1,0.2,0.2,0.4,0.3,0.6l0.2-0.2h3.7C8,16.3,8,16.1,8,16z"/>
	<path class="st0" d="M8.2,16.6l-1,1h-2v0.3c0.2,0.3,0.5,0.5,0.7,0.7v-0.3h1.6l0.8-0.8v1.1l-1,1C7.5,19.8,7.7,19.9,8,20L9,18.9V17h0
		C8.7,17,8.4,16.8,8.2,16.6z"/>
	<path class="st0" d="M5.3,13.8c-0.4,0-0.8,0.3-0.8,0.7c0,0.4,0.2,0.8,0.6,0.8h0.2c0.3,0,0.5-0.2,0.7-0.4h2v-0.7H6
		C5.9,13.9,5.6,13.7,5.3,13.8z M5.3,14.7c-0.2,0-0.3-0.1-0.3-0.3c0,0,0,0,0,0c0-0.2,0.1-0.3,0.3-0.3c0.2,0,0.3,0.1,0.3,0.3
		C5.6,14.6,5.4,14.7,5.3,14.7z"/>
	<path class="st0" d="M8,13.2v-0.7H4.5L3,11.1c0,0.3,0,0.6,0,0.9c0,0,0,0,0,0l1.2,1.2H8z"/>
	<path class="st0" d="M5.7,5.6L9,8.9c0-0.3,0.1-0.6,0.1-0.8l-3-3C6,5.3,5.8,5.4,5.7,5.6z"/>
	<path class="st0" d="M8.6,3.7l1.5,1.5v1.5c0.2-0.2,0.4-0.3,0.7-0.4V4.9L9.4,3.4C9.1,3.5,8.9,3.6,8.6,3.7z"/>
	<path class="st0" d="M12,4.1c-0.4,0-0.7,0.3-0.8,0.7c0,0.3,0.2,0.5,0.4,0.7V6c0.1,0,0.2,0,0.3,0c0.1,0,0.2,0,0.4,0V5.5
		c0.2-0.1,0.4-0.4,0.4-0.7C12.7,4.4,12.4,4.1,12,4.1z M12,5.1C12,5.1,12,5.1,12,5.1L12,5.1c-0.2,0-0.3-0.1-0.3-0.3
		c0-0.2,0.1-0.3,0.3-0.3s0.3,0.1,0.3,0.3C12.3,5,12.2,5.1,12,5.1z"/>
	<path class="st0" d="M15,8.9l3.3-3.3c-0.2-0.2-0.3-0.3-0.5-0.5l-2.9,3C14.9,8.4,15,8.6,15,8.9z"/>
</g>
<g>
	<path d="M12,1C5.9,1,1,5.9,1,12s4.9,11,11,11s11-4.9,11-11S18.1,1,12,1z M12,21c-5,0-9-4-9-9s4-9,9-9s9,4,9,9S17,21,12,21z"/>
	<path d="M15,11V9c0-1.7-1.3-3-3-3S9,7.3,9,9v2c-0.6,0-1,0.4-1,1v4c0,0.6,0.4,1,1,1h6c0.6,0,1-0.4,1-1v-4C16,11.4,15.6,11,15,11z
		 M13.5,11h-3V9c0-0.8,0.7-1.5,1.5-1.5s1.5,0.7,1.5,1.5V11z"/>
</g>
</svg>
