<svg xmlns="http://www.w3.org/2000/svg" width="24" height="6.8961" viewBox="0 0 24 6.8961"><path d="M5.7588.8355l.43,1.3879h-.892ZM4.9744,3.194,4.5819,4.3446H6.8756l-.37-1.1506ZM10.96.0018H6.5572V1.2375H7.9463V4.3446h2.235A2.434,2.434,0,0,1,9.0951,2.3384,2.4077,2.4077,0,0,1,10.96.0018m.7629,3.2293a.9018.9018,0,0,0,.9366-.873.9215.9215,0,0,0-.9181-.9227A.9459.9459,0,0,0,10.8,2.36a.8841.8841,0,0,0,.9251.873m4.6153-.5-.894-2.731H13.1582V4.3446h1.4292V1.6234h.01l.8855,2.7212H17.79V.0018H16.3489v2.731ZM2.7694,4.3446l.4124-1.2178H1.6506V2.76H3.3075L3.7,1.5925h-2.05V1.2393h2.164L4.232.0018H0V4.3446Z" /><path d="M4.1845,5.3743h.3679c.1111,0,.2913.013.2253.29-.0571.24-.17.35-.4005.35H4.1514l-.1326.5574H3.9Zm-.0125.55h.22c.1242,0,.2168-.0528.2613-.24.05-.2041-.046-.2207-.1532-.2207H4.2821Z" /><path d="M4.7586,6.242l.05-.1988a.3684.3684,0,0,1,.4005-.3268c.3208,0,.27.2207.2452.3268l-.0475.1988a.3812.3812,0,0,1-.405.3456C4.7621,6.5876,4.7071,6.46,4.7586,6.242Zm.4756.1549a1.1926,1.1926,0,0,0,.0806-.2458c.0585-.2472.0565-.3551-.1272-.3551s-.2372.1079-.2953.3551a1.08,1.08,0,0,0-.0366.2458c.0046.02.0086.111.1632.111A.2331.2331,0,0,0,5.2342,6.3969Z" /><path d="M5.6226,5.7325h.1182l.0355.7333H5.78l.3724-.7333H6.29l.0335.7333h.004l.384-.7333h.1111l-.457.8372H6.2263l-.0355-.7164h-.004L5.82,6.57h-.14Z" /><path d="M6.93,6.1726l-.015.0653c-.028.1155-.0295.2687.1467.2687a.2394.2394,0,0,0,.25-.1926h.1166a.3581.3581,0,0,1-.3875.2722c-.1611,0-.3093-.0586-.25-.3134l.05-.2059a.3951.3951,0,0,1,.407-.3532c.3234,0,.2733.2073.2142.4562Zm.442-.08c.0441-.1854.0376-.2969-.1411-.2969s-.2378.1115-.2824.2969Z" /><path d="M7.8662,5.8457H7.87a.3808.3808,0,0,1,.2888-.1293l-.024.1011a.2825.2825,0,0,0-.3124.214l-.1281.5373H7.5819l.2-.8372h.1111Z" /><path d="M8.0824,6.5706l.2-.8372h.1106l-.2.8372Zm.2418-1.0714.03-.1258h.1376l-.03.1258Z" /><path d="M8.5585,6.5706H8.4469l.2-.8372h.1106l-.024.1025h.0035a.3647.3647,0,0,1,.2548-.12c.2327,0,.2192.1545.1937.2642l-.1382.59H8.9354l.1392-.5852c.023-.0976.003-.1894-.1277-.1894-.1,0-.2167.0618-.2608.249Z" /><path d="M9.9906,5.7325h.1081c-.0215.08-.0335.1217-.044.1647l-.1682.7052c-.043.184-.1321.2937-.4.2937-.2332,0-.2447-.1482-.2172-.2324H9.38c-.03.0958.0356.1527.14.1527.2162,0,.2282-.1048.2883-.3551H9.8049a.337.337,0,0,1-.25.1012c-.2693,0-.2387-.2077-.1942-.3935a.8752.8752,0,0,1,.0956-.2852.3505.3505,0,0,1,.3-.1661.202.202,0,0,1,.2027.1182V5.839Zm-.5086.4029c-.0415.1737-.0836.3479.1192.3479a.2411.2411,0,0,0,.1912-.094.9067.9067,0,0,0,.1186-.3484c.0411-.1764-.05-.2426-.1526-.2426-.1928-.0023-.2468.21-.2764.3371Z" /><path d="M10.5352,6.5706,10.82,5.3743h.3729c.21,0,.3.0757.25.2865a.3179.3179,0,0,1-.2628.2857V5.95c.1692.0326.19.1378.1552.2887a.3965.3965,0,0,1-.419.3327Zm.1407-.09h.1882c.1967,0,.3054-.06.3474-.2355.025-.1061.0245-.2511-.18-.2511H10.791Zm.3644-.5757a.2724.2724,0,0,0,.2818-.24c.0466-.1993-.074-.2028-.1691-.2028h-.2353l-.1061.4432Z" /><path d="M12.2372,5.7325l-.2.8372h-.0961l.022-.0927h-.004a.3726.3726,0,0,1-.2583.1106c-.1937,0-.2178-.1263-.1847-.2619l.14-.5923h.1117l-.1367.5753c-.005.0232-.0526.1992.1086.1992a.2655.2655,0,0,0,.2478-.184l.14-.5905Z" /><path d="M12.5015,6.5876c-.2,0-.2613-.09-.2168-.2655h.1167c-.0275.1146-.0155.1912.1271.1912a.1822.1822,0,0,0,.1947-.1478c.05-.2194-.3824-.1634-.3168-.44.037-.154.1682-.2091.3319-.2091.1857,0,.2172.1147.1872.2423h-.1091c.019-.1057,0-.1626-.1252-.1626a.1705.1705,0,0,0-.1717.1209c-.05.21.3855.1531.3184.4334A.3108.3108,0,0,1,12.5015,6.5876Z" /><path d="M12.9876,6.5706l.2-.8372h.1111l-.2.8372Zm.2412-1.0714.0306-.1258h.1366l-.03.1258Z" /><path d="M13.4656,6.5706h-.1131l.2-.8372h.1121l-.0245.1025h.0035a.3647.3647,0,0,1,.2548-.12c.2318,0,.22.1545.1932.2642l-.1386.59H13.842l.1382-.5852c.024-.0976.003-.1894-.1272-.1894-.1,0-.2162.0618-.2613.249Z" /><path d="M14.3806,6.173l-.0155.0649c-.0275.1155-.0285.2687.1477.2687a.2385.2385,0,0,0,.25-.1926h.1181a.36.36,0,0,1-.3879.2722c-.1617,0-.3089-.0586-.25-.3134l.05-.2054a.3943.3943,0,0,1,.406-.3537c.3229,0,.2743.2073.2148.4566Zm.4416-.08c.045-.1854.0375-.2969-.1407-.2969s-.2378.1115-.2823.2969Z" /><path d="M15.2592,6.5876c-.2,0-.26-.09-.2168-.2655h.1121c-.0275.1146-.016.1912.1272.1912a.1817.1817,0,0,0,.1947-.1478c.05-.2194-.3829-.1634-.3164-.44.0361-.154.1677-.2091.3314-.2091.1852,0,.2173.1147.1867.2423H15.57c.019-.1057,0-.1626-.1251-.1626a.17.17,0,0,0-.1717.1209c-.05.21.3849.1531.3178.4334A.3036.3036,0,0,1,15.2592,6.5876Z" /><path d="M15.9685,6.5876c-.2028,0-.2613-.09-.2178-.2655h.1136c-.0275.1146-.0155.1912.1272.1912a.1817.1817,0,0,0,.1947-.1478c.05-.2194-.3824-.1634-.3163-.44.0365-.154.1676-.2091.3318-.2091.1852,0,.2173.1147.1867.2423h-.11c.02-.1057,0-.1626-.1246-.1626a.17.17,0,0,0-.1717.1209c-.05.21.3849.1531.3188.4334A.3068.3068,0,0,1,15.9685,6.5876Z" /><path d="M17.6073,5.3743h.16l.019,1.05H17.79l.5357-1.05h.1171l-.6172,1.1972H17.67l-.016-1.0647H17.65l-.5291,1.0647h-.15l-.037-1.1972h.1266l.0185,1.0579h.0045Z" /><path d="M18.2966,6.242l.05-.1988a.3683.3683,0,0,1,.4-.3268c.32,0,.27.2207.2453.3268l-.047.1988a.3833.3833,0,0,1-.405.3456C18.3016,6.5876,18.2451,6.46,18.2966,6.242Zm.4756.1549a1.1614,1.1614,0,0,0,.0806-.2458c.059-.2472.0565-.3551-.1272-.3551s-.2373.1079-.2958.3551a1.1081,1.1081,0,0,0-.0366.2458c.0055.02.0095.111.1637.111a.2332.2332,0,0,0,.2153-.111Z" /><path d="M19.3774,5.8457h.0035a.38.38,0,0,1,.2893-.1293l-.024.1011a.283.283,0,0,0-.3129.214l-.1286.5373H19.094l.2-.8372h.1111Z" /><path d="M19.6026,6.5706l.2848-1.1963h.1112l-.2849,1.1972Z" /><path d="M20.4921,6.4649h-.004a.3463.3463,0,0,1-.2658.1209c-.2708,0-.2282-.2409-.1822-.4365.0381-.1612.1031-.4347.391-.4347a.2353.2353,0,0,1,.2.1h.003L20.74,5.37h.1112L20.6108,6.404a1.0059,1.0059,0,0,0-.0286.1657h-.1071Zm.05-.2377.0355-.1491c.0116-.05.0666-.2821-.1426-.2821-.2,0-.2388.1626-.2859.3582-.074.3134,0,.3537.1207.3537.1066,0,.2252-.0766.2733-.2807Z" /><path d="M20.9021,5.7325h.1186l.0356.7333h.005l.3709-.7333H21.57l.0335.7333h.0035l.3835-.7333h.1116l-.457.8372h-.1387l-.036-.7164h-.0035l-.3675.7164h-.1381Z" /><path d="M22.0424,6.5706l.2-.8372h.1112l-.2.8372Zm.2413-1.0714.029-.1249H22.45L22.42,5.5Z" /><path d="M22.9259,6.4649h-.004a.3463.3463,0,0,1-.2658.1209c-.2713,0-.2287-.2409-.1827-.4361.0381-.1616.1031-.4351.391-.4351a.2344.2344,0,0,1,.2027.1h.0035l.1056-.4441h.1111L23.0421,6.4a.9148.9148,0,0,0-.0276.1656h-.1081Zm.05-.2377.035-.1491c.0115-.05.0671-.2821-.1426-.2821-.2,0-.2383.1626-.2859.3582-.0736.3134,0,.3537.1207.3537.1066,0,.2247-.0766.2738-.2807Z" /><path d="M23.424,6.173l-.015.0649c-.0281.1155-.0291.2687.1466.2687a.2394.2394,0,0,0,.25-.1926h.1172a.3588.3588,0,0,1-.3875.2722c-.1612,0-.3088-.0586-.25-.3134l.05-.2054a.395.395,0,0,1,.4075-.3537c.3228,0,.2728.2073.2142.4566Zm.442-.08c.0441-.1854.037-.2969-.1412-.2969s-.2377.1115-.2823.2969Z" /></svg>