<svg width="24" height="7" viewBox="0 0 24 7" xmlns="http://www.w3.org/2000/svg">
<path d="M7.76824 1.23777L8.34975 3.3025H7.14519L7.76824 1.23777ZM6.71086 4.7488L6.18172 6.46154H9.27529L8.77776 4.7488H6.71086ZM14.7852 0H8.84638V1.83928H10.72V6.46154H13.7351C13.549 6.34836 12.2695 5.34584 12.2695 3.47538C12.2695 1.92037 13.2258 0.399225 14.7852 0V0ZM15.8146 4.80672C16.5153 4.80672 17.0778 4.23284 17.0778 3.50747C17.0778 2.78654 16.5505 2.13424 15.8408 2.13424C15.1274 2.13424 14.5667 2.78654 14.5667 3.50747C14.5667 4.23284 15.0931 4.80672 15.8146 4.80672ZM22.0433 4.06174L20.8378 0H17.7515V6.46154H19.6793V2.41138H19.6928L20.8875 6.46154H24V0H22.055V4.06174H22.0433ZM3.73558 6.46154L4.29271 4.64988H2.22762V4.10184H4.46157L4.99251 2.36504H2.22762V1.83928H5.14602L5.70947 0H0V6.46154H3.73558Z"/>
</svg>
