<svg width="24" height="24" viewBox="0 0 24 24" xmlns="http://www.w3.org/2000/svg"><path d="M7 7.807a16.48 16.48 0 0 1-1.605-.5l-.214-.076C4.225 6.891 3.124 6.5 2 6.5v2c.767 0 1.56.28 2.631.658l.099.035c.674.238 1.434.5 2.27.66V7.806zM7 11.807a16.478 16.478 0 0 1-1.605-.5l-.214-.076C4.225 10.891 3.124 10.5 2 10.5v2c.767 0 1.56.28 2.631.658l.099.035c.674.238 1.434.5 2.27.66v-2.046zM9 13.978v-2.012c.767-.104 1.459-.438 2.303-.86l.06-.03C12.33 10.591 13.513 10 15 10c1.464 0 2.757.575 3.833 1.054l.073.032c1.16.515 2.091.914 3.094.914v2c-1.464 0-2.757-.575-3.833-1.054l-.073-.032C16.934 12.399 16.003 12 15 12c-.981 0-1.78.383-2.803.894l-.06.03c-.856.429-1.88.942-3.137 1.054zM7 15.807a16.478 16.478 0 0 1-1.605-.5l-.214-.076C4.225 14.89 3.124 14.5 2 14.5v2c.767 0 1.56.28 2.631.658l.099.035c.674.238 1.434.5 2.27.66v-2.046zM9 17.978v-2.012c.767-.104 1.459-.438 2.303-.86l.06-.03C12.33 14.591 13.513 14 15 14c1.464 0 2.757.575 3.833 1.054l.073.032c1.16.515 2.091.914 3.094.914v2c-1.464 0-2.757-.575-3.833-1.054l-.073-.032C16.934 16.399 16.003 16 15 16c-.981 0-1.78.383-2.803.894l-.06.03c-.856.429-1.88.942-3.137 1.054zM9 9.978V7.966c.767-.104 1.459-.439 2.303-.86l.06-.03C12.33 6.591 13.513 6 15 6c1.464 0 2.757.575 3.833 1.054l.073.032C20.066 7.601 20.997 8 22 8v2c-1.464 0-2.757-.575-3.833-1.054l-.073-.032C16.934 8.399 16.003 8 15 8c-.981 0-1.78.383-2.803.894l-.06.03c-.856.429-1.88.942-3.137 1.054z"/><path d="M7 4h10v3s1.444.753 2 1V4a2 2 0 0 0-2-2H7a2 2 0 0 0-2 2v16a2 2 0 0 0 2 2h10a2 2 0 0 0 2-2v-.693c-.29-.12-.568-.243-.833-.36l-.073-.033c-.386-.172-.747-.33-1.094-.466V20H7V4z"/></svg>