<svg xmlns="http://www.w3.org/2000/svg" width="24" height="24" viewBox="0 0 24 24"><path d="M20 4H4a2 2 0 0 0-2 2v12a2 2 0 0 0 2 2h16a2 2 0 0 0 2-2V6a2 2 0 0 0-2-2zM10 18a6 6 0 1 1 6-6 6 6 0 0 1-6 6zm9-10a1 1 0 1 1 1-1 1 1 0 0 1-1 1zm-4 4.25c0 2.25-1.79 2.3-2.38 1.11a1.61 1.61 0 0 0-.53-.54 1.65 1.65 0 0 0-.71-.26 1.82 1.82 0 0 1-.46.61c1 1.85.6 3.83-1.19 3.83-2.23 0-2.28-1.79-1.1-2.38a1.68 1.68 0 0 0 .54-.52 1.76 1.76 0 0 0 .27-.7 1.61 1.61 0 0 1-.63-.46C7 13.93 5 13.53 5 11.75c0-2.25 1.77-2.31 2.36-1.12a1.52 1.52 0 0 0 .53.54 1.81 1.81 0 0 0 .71.27 1.51 1.51 0 0 1 .46-.62C8.06 9 8.46 7 10.24 7c2.25 0 2.3 1.78 1.11 2.38a1.58 1.58 0 0 0-.54.52 1.65 1.65 0 0 0-.26.71 1.7 1.7 0 0 1 .61.45c1.84-1 3.84-.6 3.84 1.19z"/><path fill="none" d="M0 0h24v24H0z"/></svg>