<svg width="24" height="24" viewBox="0 0 24 24" xmlns="http://www.w3.org/2000/svg"><path fill-rule="evenodd" clip-rule="evenodd" d="M2 6a2 2 0 0 1 2-2h16a2 2 0 0 1 2 2v12a2 2 0 0 1-2 2H4a2 2 0 0 1-2-2V6zm14 6a6 6 0 1 1-12 0 6 6 0 0 1 12 0zm3-4a1 1 0 1 0 0-2 1 1 0 0 0 0 2z"/><path d="M10.25 7c2.25 0 2.3 1.785 1.115 2.375a1.68 1.68 0 0 0-.81 1.235c.24.1.45.255.615.455 1.83-1 3.83-.605 3.83 1.185 0 2.25-1.79 2.3-2.375 1.115a1.719 1.719 0 0 0-1.25-.81c-.1.238-.256.45-.455.615 1 1.845.6 3.83-1.19 3.83-2.23 0-2.285-1.79-1.1-2.38a1.73 1.73 0 0 0 .81-1.225 1.5 1.5 0 0 1-.625-.46C6.97 13.925 5 13.535 5 11.75c0-2.25 1.77-2.305 2.36-1.12a1.695 1.695 0 0 0 1.24.805c.096-.24.255-.451.46-.61C8.065 9 8.46 7 10.24 7h.01z"/></svg>