<svg width="24" height="24" viewBox="0 0 24 24" xmlns="http://www.w3.org/2000/svg">
<path d="M18 21H6C5.46957 21 4.96086 20.7893 4.58579 20.4142C4.21071 20.0391 4 19.5304 4 19V5C4 4.46957 4.21071 3.96086 4.58579 3.58579C4.96086 3.21071 5.46957 3 6 3H18C18.5304 3 19.0391 3.21071 19.4142 3.58579C19.7893 3.96086 20 4.46957 20 5V19C20 19.5304 19.7893 20.0391 19.4142 20.4142C19.0391 20.7893 18.5304 21 18 21ZM18 7C18 6.46957 17.7893 5.96086 17.4142 5.58579C17.0391 5.21071 16.5304 5 16 5C15.4696 5 14.9609 5.21071 14.5858 5.58579C14.2107 5.96086 14 6.46957 14 7C14 7.53043 14.2107 8.03914 14.5858 8.41421C14.9609 8.78929 15.4696 9 16 9C16.5304 9 17.0391 8.78929 17.4142 8.41421C17.7893 8.03914 18 7.53043 18 7Z" />
</svg>
