<svg xmlns="http://www.w3.org/2000/svg" width="24" height="24" viewBox="0 0 24 24"><path d="M21.3 19a2.42 2.42 0 0 1-2.5.56l-2.35 2.35a.34.34 0 0 1-.49 0l-1-1a.36.36 0 0 1 0-.49l2.36-2.35a2.39 2.39 0 0 1 3.39-2.91l-1.59 1.64 1 1 1.62-1.62A2.39 2.39 0 0 1 21.3 19zM22 8v5.76a4.47 4.47 0 0 0-2.5-.76 4.57 4.57 0 0 0-1.29.19v-3.9h-1.55V14A4.5 4.5 0 0 0 15 17.5a4.07 4.07 0 0 0 0 .5H4a2 2 0 0 1-2-2V8a2 2 0 0 1 2-2h16a2 2 0 0 1 2 2zm-11 7L9.09 9.27H7L5.17 15h1.7l.29-1.07H9L9.29 15zm4.77-3.89a1.67 1.67 0 0 0-.55-1.35 2.43 2.43 0 0 0-1.62-.47h-2V15h1.54v-1.89h.44a2.75 2.75 0 0 0 1-.17 1.82 1.82 0 0 0 .67-.44 1.63 1.63 0 0 0 .36-.64 2.36 2.36 0 0 0 .14-.75zm-7.3.62l-.12-.44-.15-.58c0-.21-.08-.37-.11-.5a4.63 4.63 0 0 1-.1.48c0 .19-.08.38-.13.57s-.08.34-.12.47l-.24.93h1.19zm5.59-1a.63.63 0 0 0-.5-.17h-.4v1.31h.31a.9.9 0 0 0 .37-.07.59.59 0 0 0 .27-.22.75.75 0 0 0 .11-.42.57.57 0 0 0-.22-.45z"/><path fill="none" d="M0 0h24v24H0z"/></svg>