<svg width="24" height="24" viewBox="0 0 24 24" xmlns="http://www.w3.org/2000/svg"><path d="M21.417 7.243L17.175 3h4.242v4.243z"/><path fill-rule="evenodd" clip-rule="evenodd" d="M8.945 5.498c0 .861-.27 1.52-.81 1.976-.536.456-1.3.684-2.293.684h-.728v2.845H3.418v-8h2.555c.97 0 1.708.21 2.211.63.507.415.76 1.037.76 1.865zm-3.83 1.27h.557c.522 0 .912-.103 1.171-.307.26-.208.389-.509.389-.903 0-.397-.11-.691-.328-.88-.216-.19-.555-.285-1.018-.285h-.772v2.375z"/><path d="M3 20.003h2.828L20.003 5.828l-1.414-1.414L3 20.003zM21.418 19.003h-3v1h3v-1zM13.418 19.003h3v1h-3v-1zM21.418 12.003v-3h-1v3h1zM21.418 14.003v3h-1v-3h1zM11.418 20.003H8.42l1-1h1.998v1z"/></svg>