<svg xmlns="http://www.w3.org/2000/svg" width="24" height="24" viewBox="0 0 24 24"><path d="M19.8 11A2.91 2.91 0 0 0 17 9a3 3 0 0 0-2 .74L11 7.5a2.74 2.74 0 0 0 0-.5 3 3 0 0 0-3-3 2.91 2.91 0 0 0-2.8 2H2v2h3.2A2.91 2.91 0 0 0 8 10a3 3 0 0 0 2-.74l4 2.24a2.74 2.74 0 0 0 0 .5 3 3 0 0 0 3 3 2.91 2.91 0 0 0 2.8-2H22v-2zM8 8a.94.94 0 0 1-1-1 .94.94 0 0 1 1-1 .94.94 0 0 1 1 1 .94.94 0 0 1-1 1zm9 5a1 1 0 1 1 1-1 .94.94 0 0 1-1 1zm-9 1a2.91 2.91 0 0 0-2.8 2H2v2h3.2A2.91 2.91 0 0 0 8 20a3 3 0 0 0 0-6zm0 4a1 1 0 0 1 0-2 1 1 0 0 1 0 2z" fill-rule="evenodd"/><path fill="none" d="M0 0h24v24H0z"/></svg>