<svg width="24" height="24" viewBox="0 0 24 24" xmlns="http://www.w3.org/2000/svg"><path fill-rule="evenodd" clip-rule="evenodd" d="M5.2 6C5.6 4.8 6.7 4 8 4c1.7 0 3 1.3 3 3s-1.3 3-3 3c-1.3 0-2.4-.8-2.8-2H2V6h3.2zM7 7c0 .6.4 1 1 1s1-.4 1-1-.4-1-1-1-1 .4-1 1zM5.2 16c.4-1.2 1.5-2 2.8-2 .784 0 1.482.276 2.008.74l4.03-2.239A3.23 3.23 0 0 1 14 12c0-1.7 1.3-3 3-3 1.3 0 2.4.8 2.8 2H22v2h-2.2c-.4 1.2-1.5 2-2.8 2a3.004 3.004 0 0 1-2.008-.74l-4.03 2.239c.025.162.038.33.038.501 0 1.7-1.3 3-3 3-1.3 0-2.4-.8-2.8-2H2v-2h3.2zM7 17c0 .6.4 1 1 1s1-.4 1-1-.4-1-1-1-1 .4-1 1zm10-4c-.6 0-1-.4-1-1s.4-1 1-1 1 .4 1 1-.4 1-1 1z"/></svg>