<svg width="24" height="24" viewBox="0 0 24 24" xmlns="http://www.w3.org/2000/svg"><path d="M6 10h8v1.5H7.5V14h1.25l-2 2.5-2-2.5H6v-4zM18 16v-4h1.25l-2-2.5-2 2.5h1.25v2.5H10V16h8z"/><path fill-rule="evenodd" clip-rule="evenodd" d="M18.5 4.8c0-.28 0-.42-.055-.527a.5.5 0 0 0-.218-.218C18.12 4 17.98 4 17.7 4h-2.4c-.28 0-.42 0-.527.054a.5.5 0 0 0-.218.219c-.055.107-.055.247-.055.527V6h-5V4.8c0-.28 0-.42-.055-.527a.5.5 0 0 0-.218-.218C9.12 4 8.98 4 8.7 4H6.3c-.28 0-.42 0-.527.054a.5.5 0 0 0-.218.219C5.5 4.38 5.5 4.52 5.5 4.8V6H4c-1.11 0-2 .89-2 2v10c0 1.11.89 2 2 2h16c1.11 0 2-.89 2-2l-.01-10c0-1.11-.88-2-1.99-2h-1.5V4.8zM4 18V8l15.99.002L20 18H4z"/></svg>