<svg width="24" height="24" viewBox="0 0 24 24" xmlns="http://www.w3.org/2000/svg"><path fill-rule="evenodd" clip-rule="evenodd" d="M18.445 4.273c.055.107.055.247.055.527V6H20c1.11 0 1.99.89 1.99 2L22 18c0 1.11-.89 2-2 2H4c-1.11 0-2-.89-2-2V8c0-1.11.89-2 2-2h1.5V4.8c0-.28 0-.42.054-.527a.5.5 0 0 1 .219-.218C5.88 4 6.02 4 6.3 4h2.4c.28 0 .42 0 .527.054a.5.5 0 0 1 .218.219c.055.107.055.247.055.527V6h5V4.8c0-.28 0-.42.055-.527a.5.5 0 0 1 .218-.218C14.88 4 15.02 4 15.3 4h2.4c.28 0 .42 0 .527.054a.5.5 0 0 1 .218.219zM19.25 12H18v4h-8v-1.5h6.5V12h-1.25l2-2.5 2 2.5zM14 10H6v4H4.75l2 2.5 2-2.5H7.5v-2.5H14V10z"/></svg>