<svg xmlns="http://www.w3.org/2000/svg" width="24" height="24" viewBox="0 0 24 24"><path d="M22 8a2 2 0 0 0-2-2h-1.5V4.8a1.37 1.37 0 0 0-.05-.53.58.58 0 0 0-.22-.22 1.37 1.37 0 0 0-.53 0h-2.4a1.37 1.37 0 0 0-.53 0 .58.58 0 0 0-.22.22 1.37 1.37 0 0 0-.05.53V6h-5V4.8a1.37 1.37 0 0 0-.05-.53.58.58 0 0 0-.22-.22A1.37 1.37 0 0 0 8.7 4H6.3a1.37 1.37 0 0 0-.53 0 .58.58 0 0 0-.22.22 1.37 1.37 0 0 0 0 .53V6H4a2 2 0 0 0-2 2v10a2 2 0 0 0 2 2h16a2 2 0 0 0 2-2zM6.75 16.5l-2-2.5H6v-4h8v1.5H7.5V14h1.25zM18 12v4h-8v-1.5h6.5V12h-1.25l2-2.5 2 2.5z" fill-rule="evenodd"/><path fill="none" d="M0 0h24v24H0z"/></svg>