<svg width="24" height="24" viewBox="0 0 24 24" xmlns="http://www.w3.org/2000/svg"><path fill-rule="evenodd" clip-rule="evenodd" d="M17.945 4.273C18 4.38 18 4.52 18 4.8V6h2c1.11 0 1.99.89 1.99 2L22 18c0 1.11-.89 2-2 2H4c-1.11 0-2-.89-2-2V8c0-1.11.89-2 2-2h2V4.8c0-.28 0-.42.054-.527a.5.5 0 0 1 .219-.218C6.38 4 6.52 4 6.8 4h2.4c.28 0 .42 0 .527.054a.5.5 0 0 1 .218.219C10 4.38 10 4.52 10 4.8V6h4V4.8c0-.28 0-.42.055-.527a.5.5 0 0 1 .218-.218C14.38 4 14.52 4 14.8 4h2.4c.28 0 .42 0 .527.054a.5.5 0 0 1 .218.219z"/></svg>