<svg xmlns="http://www.w3.org/2000/svg" width="24" height="24" viewBox="0 0 24 24"><path d="M22,8a2,2,0,0,0-2-2H18.5V4.8a1.37,1.37,0,0,0-.05-.53.58.58,0,0,0-.22-.22,1.37,1.37,0,0,0-.53,0H15.3a1.37,1.37,0,0,0-.53,0,.58.58,0,0,0-.22.22,1.37,1.37,0,0,0-.05.53V6h-5V4.8a1.37,1.37,0,0,0-.05-.53.58.58,0,0,0-.22-.22A1.37,1.37,0,0,0,8.7,4H6.3a1.37,1.37,0,0,0-.53,0,.58.58,0,0,0-.22.22,1.37,1.37,0,0,0,0,.53V6H4A2,2,0,0,0,2,8V18a2,2,0,0,0,2,2H20a2,2,0,0,0,2-2ZM6.75,16.5l-2-2.5H6V10h8v1.5H7.5V14H8.75ZM18,12v4H10V14.5h6.5V12H15.25l2-2.5,2,2.5Z" fill-rule="evenodd"/><rect width="24" height="24" fill="none"/></svg>