<svg xmlns="http://www.w3.org/2000/svg" width="24" height="24" viewBox="0 0 24 24"><title>px_bearing_24px</title><g fill="currentColor"><path d="M12 2a10 10 0 1 0 10 10A10 10 0 0 0 12 2zm5.67 15.64a1.5 1.5 0 1 0-2.13 0 1.49 1.49 0 0 0 2.13 0 8 8 0 0 1-11.28 0 1.5 1.5 0 1 0 0-2.13 1.49 1.49 0 0 0 0 2.13 8 8 0 0 1 0-11.28 1.5 1.5 0 1 0 2.13 0 1.49 1.49 0 0 0-2.13 0 8 8 0 0 1 11.28 0 1.5 1.5 0 1 0 0 2.13 1.49 1.49 0 0 0 0-2.13 8 8 0 0 1 0 11.28z"/><path d="M12 7a5 5 0 1 0 5 5 5 5 0 0 0-5-5zm0 8a3 3 0 1 1 3-3 3 3 0 0 1-3 3z"/><circle cx="12" cy="5.5" r="1.5"/><circle cx="12" cy="18.5" r="1.5"/><circle cx="5.5" cy="12" r="1.5"/><circle cx="18.5" cy="12" r="1.5"/></g></svg>