<svg xmlns="http://www.w3.org/2000/svg" width="24" height="24" viewBox="0 0 24 24"><title>broccoli</title><path d="M9.24 2.5a3.65 3.65 0 0 0-3.68 3.09A4.05 4.05 0 0 0 2.49 9.5c0 1.7 1.24 3.51 3.91 3.91l.09.09a14.36 14.36 0 0 1 3 7 8.34 8.34 0 0 1 0 1h5v-1a8.64 8.64 0 0 1 3.72-6.81 3.39 3.39 0 0 0 2.1-.66 3.61 3.61 0 0 0 1.18-3 3.52 3.52 0 0 0-2.09-3.34A4.41 4.41 0 0 0 15 3.5a4.25 4.25 0 0 0-2.28.59A4.8 4.8 0 0 0 9.49 2.5zm.16 2h.22a1.89 1.89 0 0 1 1.5 1.85c0 1-.24 1.3-.35 1.4l1.44 1.44a3.91 3.91 0 0 0 .91-2.84v-.1A2.33 2.33 0 0 1 15 5.5c1.2 0 2.5.77 2.5 2v1h1a1.42 1.42 0 0 1 1 1.5c0 .76-.12 1.24-.4 1.47a2.41 2.41 0 0 1-1.69.15 7 7 0 0 0 .09-1.12h-2a2.42 2.42 0 0 1-.59 1.94 2.75 2.75 0 0 1-2.16.09l-.28-.12-.4.18a3.29 3.29 0 0 1-3.75-.65L8 11.5h-.51c-1.82 0-3-.78-3-2a2.06 2.06 0 0 1 2-2h1v-1A1.78 1.78 0 0 1 9 4.51a1.61 1.61 0 0 1 .4-.01zm4.09 10.28a4.05 4.05 0 0 0 1.1 0c-.3.45-.66 1-1.1 1.72zm-3.81 0a5 5 0 0 0 1.81 0v2.72a17.35 17.35 0 0 1-1.81-2.69z"/><path fill="none" d="M0 0h24v24H0z"/></svg>