<?xml version="1.0" encoding="utf-8"?>

<svg version="1.1" id="Layer_1" xmlns="http://www.w3.org/2000/svg" xmlns:xlink="http://www.w3.org/1999/xlink" x="0px" y="0px"
	 width="24px" height="24px" viewBox="0 0 24 24" enable-background="new 0 0 24 24" xml:space="preserve">
<path d="M5,3v18h6v-3.5h2V21h6V3H5 M7,5h2v2H7V5 M11,5h2v2h-2V5 M15,5h2v2h-2V5 M7,9h2v2H7V9 M11,9h2v2h-2V9 M15,9h2v2h-2V9 M7,13h2
	v2H7V13 M11,13h2v2h-2V13 M15,13h2v2h-2V13 M7,17h2v2H7V17 M15,17h2v2h-2V17z"/>
<rect fill="none" width="24" height="24"/>
</svg>
