<svg xmlns="http://www.w3.org/2000/svg" width="24" height="24" viewBox="0 0 24 24"><title>corn</title><path d="M12.66 2a3.87 3.87 0 0 0-2.38 1.6A9.63 9.63 0 0 0 13 4a9 9 0 0 0 2.72-.4A3.51 3.51 0 0 0 13 2a1.93 1.93 0 0 0-.34 0zM9.72 4.47A11.5 11.5 0 0 0 9 6.07a6.63 6.63 0 0 0 2 .71c.07-.66.14-1.32.22-1.93a10.06 10.06 0 0 1-1.5-.38zm6.59 0a10.06 10.06 0 0 1-1.53.38c.09.62.15 1.27.22 1.93A6.46 6.46 0 0 0 17 6a10 10 0 0 0-.69-1.53zM12.25 5c-.08.61-.15 1.26-.22 2 .31 0 .63.06 1 .06s.68 0 1-.06c-.07-.7-.14-1.36-.22-2h-1.53zm5.09 2a7.71 7.71 0 0 1-2.25.78c.06.66.12 1.32.16 2a5.13 5.13 0 0 0 2.44-1.22c-.1-.52-.21-1-.35-1.53zM8.69 7c-.15.51-.28 1-.38 1.54a5.36 5.36 0 0 0 2.47 1.18c0-.65.1-1.31.16-2A7.46 7.46 0 0 1 8.69 7zm3.25.91c-.06.64-.11 1.29-.16 2A8.35 8.35 0 0 0 13 10a9.07 9.07 0 0 0 1.28-.09c0-.68-.13-1.33-.19-2A9.69 9.69 0 0 1 13 8c-.38 0-.72 0-1.06-.06zm5.94 1.75a7.08 7.08 0 0 1-2.57 1.06c0 .69.07 1.33.1 1.94a4.36 4.36 0 0 0 2.59-1.5c0-.5-.07-1-.12-1.47zm-9.72 0c-.06.49-.11 1-.13 1.5a4.39 4.39 0 0 0 2.6 1.47c0-.63 0-1.29.09-2a7 7 0 0 1-2.56-1zM21 10a71 71 0 0 0-8 7 8.25 8.25 0 0 0-10 0c4-.08 5.05 1.67 5.88 3.16A4.56 4.56 0 0 0 12 22h2c1.32-.13 2.56-1.38 3.47-2.78C19.08 16.75 21 10 21 10zm-9.28.91c0 .65-.1 1.3-.13 2A11.18 11.18 0 0 0 13 13a10 10 0 0 0 1.44-.12c0-.67-.06-1.32-.1-2A9.94 9.94 0 0 1 13 11a9.07 9.07 0 0 1-1.28-.09zM8 12.63c0 .56.06 1.12.13 1.65a8.14 8.14 0 0 1 2.4.44v-1A7 7 0 0 1 8 12.63zm7.22 1.12A10 10 0 0 1 13 14a11.6 11.6 0 0 1-1.44-.09v1.19A10 10 0 0 1 13 16a29.85 29.85 0 0 1 2.25-2.25z"/><path fill="none" d="M0 0h24v24H0z"/></svg>