<svg id="Layer_1" xmlns="http://www.w3.org/2000/svg" viewBox="0 0 24 24"><style>.st0{opacity:.5;enable-background:new}</style><path class="st0" d="M7.1 11V9.7h-.7v.7H5L3.6 8.9c-.1.2-.2.5-.3.7L4.7 11h2.4zM8.6 5l-.9-.9c-.2.1-.4.2-.6.4l1 1 .5-.5zM14.3 3.3c-.2-.1-.5-.1-.7-.2v1.1h.7v-.9zM17.3 8.2c-.3.3-.3.7 0 1 .3.3.7.3 1 0 .2-.2.2-.5.2-.7l1.2-1.2c-.1-.2-.2-.4-.4-.6L18 8c-.2-.1-.5 0-.7.2zm.8.6c-.1.2-.3.2-.4.1-.1-.1-.1-.3 0-.4.1-.1.3-.1.4 0 .1.1.1.2 0 .3zM5.4 8.8c.3.3.7.3 1 0 .3-.3.3-.7 0-1-.2-.2-.4-.3-.7-.2l-.9-1c-.1.2-.3.4-.4.6l.8.8c-.1.3 0 .6.2.8zm.3-.8c.1-.1.3-.1.4 0 .1.1.1.3 0 .4-.1.1-.3.1-.4 0V8zM9.8 19.9l-.7.7c.2.1.5.2.8.2l.6-.6V19h-.7v.9zM19 16.3l.5.6c.1-.2.3-.4.4-.6l-.4-.5-.5.5zM15.2 5.9c.4 0 .8-.3.8-.7V5l.7-.7c-.2-.1-.4-.3-.7-.4l-.5.5c-.3-.1-.5 0-.7.2-.3.3-.3.7 0 1 0 .2.2.3.4.3zM15 5c.1-.1.3-.1.4 0 .1.1.1.3 0 .4-.1.1-.3.1-.4 0-.1-.1-.1-.3 0-.4zM13.4 19.7l.9.9v.1c.2-.1.5-.1.7-.2v-.2l-1-1.1-.6.5zM17.1 10.6V12h.7v-.8h1.7l1.3-1.2c-.1-.3-.1-.5-.2-.8l-1.3 1.3-2.2.1zM21 11.3l-1.3 1.3H16v.7h4l1-1v-.2-.8zM19.5 14.6c.1-.4-.2-.8-.6-.8h-.2c-.3 0-.5.2-.6.4H16v.7h2c.1.2.4.4.7.4.4 0 .8-.3.8-.7zm-.8.2c-.1 0-.3-.1-.3-.3 0-.2.1-.3.3-.3.1 0 .3.1.3.3 0 .1-.1.3-.3.3zM15.9 16.4c-.2.4-.5.6-.9.6h-1.7v1.6h.7v-1.4h1V19l1 1 .6-.3-1-1v-1.5h1.2l1.4 1.4.5-.5-1.6-1.6-1.2-.1zM12.4 18.4V17h-.7v1.4c-.2.1-.4.4-.4.6 0 .4.3.7.8.8.4 0 .7-.3.8-.7-.1-.3-.3-.5-.5-.7zm-.4.9c-.2 0-.3-.1-.3-.3 0-.2.1-.3.3-.3.2 0 .3.1.3.3 0 .2-.1.3-.3.3zM8 16v-.3H4.2l-.3.3.3.6.2-.2h3.7c-.1-.1-.1-.3-.1-.4zM8.2 16.6l-1 1h-2v.3c.2.3.5.5.7.7v-.3h1.6l.8-.8v1.1l-1 1c.2.2.4.3.7.4l1-1.1V17c-.3 0-.6-.2-.8-.4zM5.3 13.8c-.4 0-.8.3-.8.7 0 .4.2.8.6.8h.2c.3 0 .5-.2.7-.4h2v-.7H6c-.1-.3-.4-.5-.7-.4zm0 .9c-.2 0-.3-.1-.3-.3 0-.2.1-.3.3-.3.2 0 .3.1.3.3 0 .2-.2.3-.3.3zM8 13.2v-.7H4.5L3 11.1v.9l1.2 1.2H8zM5.7 5.6L9 8.9c0-.3.1-.6.1-.8l-3-3c-.1.2-.3.3-.4.5zM8.6 3.7l1.5 1.5v1.5c.2-.2.4-.3.7-.4V4.9L9.4 3.4c-.3.1-.5.2-.8.3zM12 4.1c-.4 0-.7.3-.8.7 0 .3.2.5.4.7V6h.7v-.5c.2-.1.4-.4.4-.7 0-.4-.3-.7-.7-.7zm0 1c-.2 0-.3-.1-.3-.3 0-.2.1-.3.3-.3s.3.1.3.3c0 .2-.1.3-.3.3zM15 8.9l3.3-3.3-.5-.5-2.9 3c0 .3.1.5.1.8z"/><g><path d="M12 1C5.9 1 1 5.9 1 12s4.9 11 11 11 11-4.9 11-11S18.1 1 12 1zm0 20c-5 0-9-4-9-9s4-9 9-9 9 4 9 9-4 9-9 9z"/><path d="M15 11V9c0-1.7-1.3-3-3-3S9 7.3 9 9v2c-.6 0-1 .4-1 1v4c0 .6.4 1 1 1h6c.6 0 1-.4 1-1v-4c0-.6-.4-1-1-1zm-1.5 0h-3V9c0-.8.7-1.5 1.5-1.5s1.5.7 1.5 1.5v2z"/></g></svg>