<svg xmlns="http://www.w3.org/2000/svg" width="24" height="24" viewBox="0 0 24 24"><path d="M12 4.1a.75.75 0 0 0-.75.74.78.78 0 0 0 .41.66V7h.7V5.5a.77.77 0 0 0 .4-.66.78.78 0 0 0-.76-.74zm0 1a.28.28 0 1 1 .28-.28.29.29 0 0 1-.28.3zm.36 13.31v-2.03h-.7v2.05a.73.73 0 0 0-.4.63.77.77 0 0 0 .75.75.74.74 0 0 0 .75-.73.77.77 0 0 0-.4-.65zm-.35.91a.29.29 0 0 1-.28-.28.3.3 0 0 1 .28-.28.28.28 0 1 1 0 .56zM5.3 13.75a.75.75 0 0 0-.17 1.49h.17a.77.77 0 0 0 .65-.4H8v-.7H6a.77.77 0 0 0-.7-.39zm0 1a.29.29 0 0 1-.3-.28.28.28 0 1 1 .29.28zm13.41-1a.76.76 0 0 0-.63.39H15v.7h3.05a.72.72 0 0 0 .65.4.75.75 0 1 0 .17-1.49zm.3.74a.29.29 0 0 1-.28.28.27.27 0 0 1-.28-.26.29.29 0 0 1 .28-.28.29.29 0 0 1 .27.26zM5.42 8.76a.72.72 0 0 0 1 0 .76.76 0 0 0 0-1 .74.74 0 0 0-.72-.19L3.92 5.73l-.49.49L5.23 8a.74.74 0 0 0 .19.76zM5.74 8a.28.28 0 0 1 .38 0 .27.27 0 0 1 0 .39.28.28 0 0 1-.38 0 .35.35 0 0 1 0-.39zm-1.56 5.21L1.57 10.6l.49-.51 2.43 2.42H8v.7zm4.87 5.73L7 21l-.49-.49 1.84-1.84v-1.15l-.81.82H5.93v1.4h-.7v-2.1h2l1.2-1.23h-4l-1 1-.49-.49 1.24-1.23H9v.7h-.07l.26.27-.14.34zM4.72 11L2.06 8.37l.49-.49L5 10.32h1.44v-.65h.7V11zM8.4 2.44l2.42 2.43v2.42h-.7V5.15L7.91 2.93zm8.69 14l2.52 2.51-.49.49-2.31-2.3h-1.16v1.54l1.81 1.84L17 21l-2-2v-1.87h-1v1.44h-.7V16h.7v.43zM20 13.21h-4.8v-.7h4.5l2.43-2.42.48.51zm-4.8-7.32a.73.73 0 0 0 .73-.73.64.64 0 0 0 0-.2l1.44-1.44-.53-.52-1.45 1.45a.69.69 0 0 0-.72.19.76.76 0 0 0 0 1 .63.63 0 0 0 .51.25zM15 5a.3.3 0 0 1 .38 0 .28.28 0 0 1 0 .4.28.28 0 0 1-.38 0 .28.28 0 0 1 0-.4zm2.32 3.15a.76.76 0 0 0 0 1 .74.74 0 0 0 1 0 .76.76 0 0 0 .18-.72l2.24-2.24-.49-.49-2.2 2.3a.75.75 0 0 0-.73.15zm.75.7a.28.28 0 0 1-.4 0 .28.28 0 0 1 0-.38.29.29 0 0 1 .37 0 .27.27 0 0 1 .03.38zm1.17 1.7l2.44-2.44.52.49-2.68 2.65h-1.73V12h-.7v-1.4zM9.8 19h.69v1.14l-1.18 1.25-.49-.51 1-1zm4.17.21L15 20.3v1.3h-.7v-1l-.86-.86zm.37-14.94h-.7V2.4h.7zm5.15 11.52L20.6 17l-.49.49L19 16.32zM14.92 9l-.49-.49 3.95-4 .49.5zM9.06 9L5.11 5.06l.49-.5 4 4zm-.94-3.5L6.26 3.65l.5-.5L8.62 5z" opacity=".5"/><path d="M12 1a11 11 0 1 0 11 11A11 11 0 0 0 12 1zm0 20a9 9 0 1 1 9-9 9 9 0 0 1-9 9zm3-10V9a3 3 0 0 0-6 0v2a1 1 0 0 0-1 1v4a1 1 0 0 0 1 1h6a1 1 0 0 0 1-1v-4a1 1 0 0 0-1-1zm-1.5 0h-3V9a1.5 1.5 0 0 1 3 0z"/><path fill="none" d="M0 0h24v24H0z"/></svg>