<svg width="24" height="24" viewBox="0 0 24 24" xmlns="http://www.w3.org/2000/svg"><path d="M5.041 3a1 1 0 0 1 .866-.5h3.846a1 1 0 0 1 .866.5l1.922 3.33a1 1 0 0 1 0 1l-1.922 3.33a1 1 0 0 1-.866.5H5.907a1 1 0 0 1-.866-.5L3.12 7.33a1 1 0 0 1 0-1L5.04 3zm.081 10.227a1 1 0 0 1 .866-.5h3.845a1 1 0 0 1 .866.5l1.923 3.33a1 1 0 0 1 0 1l-1.923 3.33a1 1 0 0 1-.866.5H5.988a1 1 0 0 1-.866-.5l-1.923-3.33a1 1 0 0 1 0-1l1.923-3.33zm9-5a1 1 0 0 1 .866-.5h3.845a1 1 0 0 1 .866.5l1.923 3.33a1 1 0 0 1 0 1l-1.923 3.33a1 1 0 0 1-.866.5h-3.845a1 1 0 0 1-.866-.5l-1.923-3.33a1 1 0 0 1 0-1l1.923-3.33z"/></svg>