<svg xmlns="http://www.w3.org/2000/svg" width="24" height="24" viewBox="0 0 24 24"><path d="M10.2 2c.2 0 .4.1.4.3l2.2 4 .2.2-.1.3-2.2 4c-.1.2-.2.3-.4.3H5.8c-.2 0-.4-.1-.4-.3l-2.2-4-.2-.3.1-.3 2.2-4c.1-.1.3-.2.5-.2h4.4m0 11c.2 0 .4.1.4.3l2.2 4 .1.3-.1.3-2.2 4c-.1.1-.2.3-.4.3H5.8c-.2 0-.4-.1-.4-.3l-2.2-4-.2-.4.1-.3 2.2-4c.1-.1.3-.2.5-.2h4.4m9.3-5.5c.2 0 .4.1.4.3l2.2 4 .1.3-.1.3-2.2 4c-.1.1-.2.3-.4.3H15c-.2 0-.4-.1-.4-.3l-2.2-4-.2-.4.1-.3 2.2-4c.1-.2.2-.3.4-.3h4.6z"/><path fill="none" d="M0 0h24v24H0z"/></svg>