<svg width="24" height="24" viewBox="0 0 24 24" xmlns="http://www.w3.org/2000/svg"><path fill-rule="evenodd" clip-rule="evenodd" d="M12 19c0-3.9 3.1-7 7-7 .7 0 1.4.1 2 .3V5c0-1.1-.9-2-2-2H5c-1.1 0-2 .9-2 2v14c0 1.1.9 2 2 2h7.3c-.2-.6-.3-1.3-.3-2zM5 8V5h14v3H5z"/><path d="M21.304 18.978a2.401 2.401 0 0 1-2.5.56l-2.353 2.353a.342.342 0 0 1-.49 0l-.967-.966a.342.342 0 0 1 0-.49l2.354-2.354a2.401 2.401 0 0 1 .56-2.5 2.393 2.393 0 0 1 2.83-.407l-1.622 1.623.973.973 1.622-1.622c.49.904.36 2.064-.407 2.83z"/></svg>