<svg width="24" height="24" viewBox="0 0 24 24" xmlns="http://www.w3.org/2000/svg"><path d="M17.444 10H6.556A1.556 1.556 0 0 0 5 11.556v10.888A1.556 1.556 0 0 0 6.556 24h10.888A1.556 1.556 0 0 0 19 22.444V11.556A1.556 1.556 0 0 0 17.444 10zm0 10.889a1.555 1.555 0 1 1-3.11 0 1.555 1.555 0 0 1 3.11 0zm0-8.167a1.167 1.167 0 0 1-1.166 1.167H7.722a1.167 1.167 0 1 1 0-2.333h8.556a1.167 1.167 0 0 1 1.166 1.166zM8.46 7.46L7.05 6.05A6.976 6.976 0 0 1 12 4c1.93 0 3.68.78 4.95 2.05l-1.41 1.41a5.022 5.022 0 0 0-7.08 0z"/><path d="M4.22 3.22C6.21 1.23 8.96 0 12 0s5.79 1.23 7.77 3.23l-1.41 1.41A8.937 8.937 0 0 0 12 2C9.51 2 7.26 3.01 5.63 4.63L4.22 3.22z"/></svg>