<svg width="24" height="24" viewBox="0 0 24 24"  xmlns="http://www.w3.org/2000/svg">
<path fill-rule="evenodd" clip-rule="evenodd" d="M14.7 14H15.5L20.5 19L19 20.5L14 15.5V14.7L13.7 14.4C12.6 15.4 11.1 16 9.5 16C5.9 16 3 13.1 3 9.5C3 5.9 5.9 3 9.5 3C13.1 3 16 5.9 16 9.5C16 11.1 15.4 12.6 14.4 13.7L14.7 14ZM5.02742 10.0039C5.27505 12.2634 7.17045 14 9.5 14C11.8309 14 13.7271 12.2614 13.973 10H12.2614L10.2324 13.0085L8.22691 9.22168L7.81552 10.0039H5.02742ZM5.10889 8.50391C5.55774 6.48924 7.34271 5 9.5 5C11.6559 5 13.44 6.48732 13.8902 8.5H11.4638L10.3873 10.0961L8.22229 6.00793L6.90961 8.50391H5.10889Z" />
</svg>
