<svg width="24" height="24" viewBox="0 0 24 24" xmlns="http://www.w3.org/2000/svg"><path d="M12 2l2.354 2.353-.708.707L12 3.414 10.354 5.06l-.708-.707L12 2zM12 15l-2.354-2.353.708-.707L12 13.586l1.646-1.646.708.707L12 15zM16.213 10.852l2.354-2.354-2.354-2.353-.707.707 1.646 1.646-1.646 1.647.707.707zM5.433 8.498l2.354-2.353.707.707-1.647 1.646 1.647 1.647-.707.707-2.354-2.354z"/><path fill-rule="evenodd" clip-rule="evenodd" d="M10 18a4 4 0 1 1-8 0 4 4 0 0 1 8 0zm-4.75 3v-6h1.5v6h-1.5z"/><path d="M18 20a2 2 0 1 0 0-4 2 2 0 0 0 0 4z"/><path fill-rule="evenodd" clip-rule="evenodd" d="M18 22a4 4 0 1 0 0-8 4 4 0 0 0 0 8zm0-1a3 3 0 1 0 0-6 3 3 0 0 0 0 6z"/></svg>