<svg xmlns="http://www.w3.org/2000/svg" width="24" height="24" viewBox="0 0 24 24"><path d="M10.35 5.06l-.7-.71L12 2l2.35 2.35-.7.71L12 3.41zm3.3 6.88L12 13.59l-1.65-1.65-.7.71L12 15l2.35-2.35zm2.56-1.09l2.36-2.35-2.36-2.36-.7.71 1.64 1.65-1.64 1.64zm-7.72-.71L6.85 8.5l1.64-1.65-.7-.71L5.43 8.5l2.36 2.35zM10 18a4 4 0 1 1-4-4 4 4 0 0 1 4 4zm-3.25-3h-1.5v6h1.5zM18 16a2 2 0 1 0 2 2 2 2 0 0 0-2-2zm4 2a4 4 0 1 1-4-4 4 4 0 0 1 4 4zm-1 0a3 3 0 1 0-3 3 3 3 0 0 0 3-3z" fill-rule="evenodd"/><path fill="none" d="M0 0h24v24H0z"/></svg>