<svg width="24" height="7" viewBox="0 0 24 7" xmlns="http://www.w3.org/2000/svg"><path d="M7.768 1.238l.582 2.064H7.145l.623-2.064zm-1.057 3.51l-.53 1.714h3.094l-.497-1.713H6.71zM14.785 0H8.846v1.84h1.874v4.622h3.015c-.186-.114-1.465-1.116-1.465-2.987C12.27 1.92 13.226.4 14.785 0zm1.03 4.807c.7 0 1.263-.574 1.263-1.3 0-.72-.527-1.373-1.237-1.373-.714 0-1.274.653-1.274 1.373 0 .726.526 1.3 1.248 1.3zm6.228-.745L20.838 0H17.75v6.462h1.928v-4.05h.014l1.194 4.05H24V0h-1.945v4.062h-.012zm-18.307 2.4l.557-1.812H2.228v-.548h2.234l.53-1.737H2.229v-.526h2.918L5.709 0H0v6.462h3.736z"/></svg>