<svg xmlns="http://www.w3.org/2000/svg" width="24" height="6.896" viewBox="0 0 24 6.8961"><path d="M5.759.836l.43 1.387h-.892zm-.785 2.358l-.392 1.15h2.294l-.37-1.15zM10.96.002H6.557v1.236h1.39v3.107h2.234a2.434 2.434 0 0 1-1.086-2.007A2.408 2.408 0 0 1 10.96.002m.763 3.23a.902.902 0 0 0 .937-.874.921.921 0 0 0-.919-.923.946.946 0 0 0-.941.925.884.884 0 0 0 .925.873m4.615-.5L15.446.002h-2.288v4.343h1.43V1.623h.01l.885 2.722h2.307V.002h-1.441v2.73zM2.77 4.345l.412-1.218H1.65V2.76h1.657L3.7 1.593H1.65v-.354h2.164L4.232.002H0v4.343z" fill="#007bc1"/><path d="M4.184 5.374h.368c.111 0 .292.013.226.29-.057.24-.17.35-.4.35H4.15l-.132.558H3.9zm-.012.55h.22c.124 0 .217-.053.261-.24.05-.204-.046-.22-.153-.22h-.218zM4.759 6.242l.05-.199a.368.368 0 0 1 .4-.327c.32 0 .27.221.245.327l-.047.199a.381.381 0 0 1-.405.346c-.24 0-.295-.128-.243-.346zm.475.155a1.193 1.193 0 0 0 .08-.246c.06-.247.057-.355-.126-.355s-.238.108-.296.355a1.08 1.08 0 0 0-.036.246c.004.02.008.11.163.11a.233.233 0 0 0 .215-.11zM5.623 5.732h.118l.035.734h.004l.372-.734h.138l.034.734h.004l.383-.734h.112l-.457.838h-.14l-.035-.717h-.004l-.367.717h-.14zM6.93 6.173l-.015.065c-.028.115-.03.269.147.269a.24.24 0 0 0 .25-.193h.116a.358.358 0 0 1-.387.272c-.161 0-.31-.058-.25-.313l.05-.206a.395.395 0 0 1 .407-.353c.323 0 .273.207.214.456zm.442-.08c.044-.186.038-.297-.141-.297s-.238.111-.282.297zM7.866 5.846h.004a.38.38 0 0 1 .289-.13l-.024.101a.282.282 0 0 0-.313.214l-.128.538h-.112l.2-.837h.111zM8.082 6.57l.2-.837h.111l-.2.838zm.242-1.07l.03-.127h.138l-.03.126zM8.559 6.57h-.112l.2-.837h.11l-.024.103h.004a.365.365 0 0 1 .255-.12c.232 0 .219.154.193.264l-.138.59h-.112l.14-.585c.023-.098.003-.19-.128-.19-.1 0-.217.062-.26.25zM9.99 5.732h.109c-.022.08-.034.122-.044.165l-.168.705c-.044.184-.133.294-.4.294-.234 0-.245-.148-.218-.232h.111c-.03.095.036.152.14.152.216 0 .228-.104.288-.355h-.003a.337.337 0 0 1-.25.101c-.27 0-.239-.207-.194-.393a.875.875 0 0 1 .095-.285.35.35 0 0 1 .3-.166.202.202 0 0 1 .203.118v.003zm-.508.403c-.041.174-.084.348.12.348a.241.241 0 0 0 .19-.094.907.907 0 0 0 .119-.348c.041-.177-.05-.243-.153-.243-.192-.002-.246.21-.276.337zM10.535 6.57l.285-1.196h.373c.21 0 .3.076.25.287a.318.318 0 0 1-.263.286v.003c.17.033.19.138.155.289a.397.397 0 0 1-.419.332zm.14-.09h.19c.196 0 .305-.06.347-.235.025-.106.024-.251-.18-.251h-.241zm.365-.575a.272.272 0 0 0 .282-.24c.047-.2-.074-.203-.169-.203h-.235l-.106.443zM12.237 5.732l-.2.838h-.096l.022-.093h-.004a.373.373 0 0 1-.258.11c-.194 0-.218-.126-.185-.261l.14-.593h.112l-.137.576c-.005.023-.052.199.109.199a.266.266 0 0 0 .248-.184l.14-.59zM12.502 6.588c-.2 0-.262-.09-.217-.266h.116c-.027.115-.015.191.128.191a.182.182 0 0 0 .194-.147c.05-.22-.382-.164-.317-.44.037-.155.169-.21.332-.21.186 0 .217.115.187.243h-.109c.02-.106 0-.163-.125-.163a.17.17 0 0 0-.172.121c-.05.21.386.153.319.433a.31.31 0 0 1-.336.238zM12.988 6.57l.2-.837h.11l-.2.838zm.24-1.07l.031-.127h.137l-.03.126zM13.466 6.57h-.113l.2-.837h.112l-.025.103h.004a.365.365 0 0 1 .254-.12c.232 0 .22.154.194.264l-.139.59h-.111l.138-.585c.024-.098.003-.19-.127-.19-.1 0-.216.062-.261.25zM14.38 6.173l-.015.065c-.027.115-.028.269.148.269a.238.238 0 0 0 .25-.193h.118a.36.36 0 0 1-.388.272c-.162 0-.309-.058-.25-.313l.05-.206a.394.394 0 0 1 .406-.353c.323 0 .274.207.215.456zm.442-.08c.045-.185.038-.297-.14-.297s-.238.112-.283.297zM15.26 6.588c-.2 0-.26-.09-.218-.266h.113c-.028.115-.016.191.127.191a.182.182 0 0 0 .194-.147c.05-.22-.383-.164-.316-.44.036-.155.168-.21.331-.21.186 0 .218.115.187.243h-.108c.019-.106 0-.163-.125-.163a.17.17 0 0 0-.172.121c-.05.21.385.153.318.433a.304.304 0 0 1-.332.238zM15.969 6.588c-.203 0-.262-.09-.218-.266h.113c-.027.115-.015.191.127.191a.182.182 0 0 0 .195-.147c.05-.22-.382-.164-.316-.44.036-.155.168-.21.332-.21.185 0 .217.115.186.243h-.11c.02-.106 0-.163-.124-.163a.17.17 0 0 0-.172.121c-.05.21.385.153.319.433a.307.307 0 0 1-.332.238zM17.607 5.374h.16l.02 1.05h.003l.536-1.05h.117l-.617 1.198h-.156l-.016-1.065h-.004l-.53 1.065h-.15l-.036-1.198h.127l.018 1.058h.004zM18.297 6.242l.05-.199a.368.368 0 0 1 .4-.327c.32 0 .27.221.245.327l-.047.199a.383.383 0 0 1-.405.346c-.238 0-.295-.128-.243-.346zm.475.155a1.161 1.161 0 0 0 .08-.246c.06-.247.057-.355-.126-.355s-.238.108-.296.355a1.108 1.108 0 0 0-.037.246c.006.02.01.11.164.11a.233.233 0 0 0 .215-.11zM19.377 5.846h.004a.38.38 0 0 1 .29-.13l-.025.101a.283.283 0 0 0-.313.214l-.128.538h-.111l.2-.837h.111zM19.603 6.57l.284-1.196H20l-.285 1.198zM20.492 6.465h-.004a.346.346 0 0 1-.266.12c-.27 0-.228-.24-.182-.436.038-.16.103-.434.391-.434a.235.235 0 0 1 .2.1h.003l.106-.445h.111l-.24 1.034a1.006 1.006 0 0 0-.029.166h-.107zm.05-.238l.036-.149c.011-.05.066-.282-.143-.282-.2 0-.239.163-.286.358-.074.314 0 .354.12.354.107 0 .226-.077.274-.28zM20.902 5.732h.119l.035.734h.005l.371-.734h.138l.034.734h.003l.384-.734h.111l-.457.838h-.139l-.036-.717h-.003l-.368.717h-.138zM22.042 6.57l.2-.837h.112l-.2.838zm.242-1.07l.029-.126h.137l-.03.126zM22.926 6.465h-.004a.346.346 0 0 1-.266.12c-.271 0-.229-.24-.183-.435.038-.162.103-.435.391-.435a.234.234 0 0 1 .203.1h.004l.105-.445h.111l-.245 1.03a.915.915 0 0 0-.028.166h-.108zm.05-.238l.035-.149c.011-.05.067-.282-.143-.282-.2 0-.238.163-.286.358-.073.314 0 .354.121.354.107 0 .225-.077.274-.28zM23.424 6.173l-.015.065c-.028.115-.03.269.147.269a.24.24 0 0 0 .25-.193h.117a.359.359 0 0 1-.388.272c-.16 0-.309-.058-.25-.313l.05-.206a.395.395 0 0 1 .408-.353c.323 0 .273.207.214.456zm.442-.08c.044-.185.037-.297-.141-.297s-.238.112-.283.297z"/></svg>