<svg xmlns="http://www.w3.org/2000/svg" width="24" height="24" viewBox="0 0 24 24">
  <title>px_ephesus_gateway_24px</title>
  <rect width="24" height="24" fill="none"/>
  <path d="M18,2H6A2,2,0,0,0,4,4V20a2,2,0,0,0,2,2H18a2,2,0,0,0,2-2V4A2,2,0,0,0,18,2ZM8.78,3,9.4,4a3,3,0,0,0,5.2,0l.62-1h1.16l-.92,1.54a4,4,0,0,1-6.92,0L7.62,3Zm4.93,9.52-1.37.88a.64.64,0,0,1-.68,0l-1.37-.88a.61.61,0,0,1,0-1l1.37-.88a.64.64,0,0,1,.68,0l1.37.88A.61.61,0,0,1,13.71,12.52ZM5,18.71V17.29l1.61-1.61a3,3,0,0,0,.89-2.14V9.7A3,3,0,0,0,6.36,7.33L5,6.24V5L7,6.55A4,4,0,0,1,8.5,9.7v3.84a4,4,0,0,1-1.18,2.85ZM15.22,21l-.62-1a3,3,0,0,0-5.2,0l-.62,1H7.62l.92-1.54a4,4,0,0,1,6.92,0L16.38,21ZM19,6.24,17.64,7.33A3,3,0,0,0,16.5,9.7v3.84a3,3,0,0,0,.89,2.14L19,17.29v1.42l-2.32-2.32a4,4,0,0,1-1.18-2.85V9.7A4,4,0,0,1,17,6.55L19,5Z"/>
</svg>
