<svg xmlns="http://www.w3.org/2000/svg" width="24" height="24" viewBox="0 0 24 24"><path d="M12 2a10 10 0 1 0 10 10A10 10 0 0 0 12 2zm0 18a8 8 0 1 1 8-8 8 8 0 0 1-8 8z" fill-rule="evenodd"/><path d="M16 9a3 3 0 1 0 3 3 3 3 0 0 0-3-3zm0 5a2 2 0 1 1 2-2 2 2 0 0 1-2 2zM8 9a3 3 0 1 0 3 3 3 3 0 0 0-3-3zm0 5a2 2 0 1 1 2-2 2 2 0 0 1-2 2zM12.7 7.5l1.15 1.15-.7.7L12 8.2l-1.15 1.15-.7-.7L11.3 7.5l-1.15-1.15.7-.7L12 6.8l1.15-1.15.7.7L12.7 7.5zM13.85 15.35L12.7 16.5l1.15 1.15-.7.7L12 17.2l-1.15 1.15-.7-.7 1.15-1.15-1.15-1.15.7-.7L12 15.8l1.15-1.15.7.7z" fill-rule="evenodd"/></svg>