<svg xmlns="http://www.w3.org/2000/svg" width="24" height="24" viewBox="0 0 24 24"><path d="M12,2A10,10,0,1,0,22,12,10,10,0,0,0,12,2Zm0,18a8,8,0,1,1,8-8A8,8,0,0,1,12,20Z" fill-rule="evenodd"/><path d="M16,9a3,3,0,1,0,3,3A3,3,0,0,0,16,9Zm0,5a2,2,0,1,1,2-2A2,2,0,0,1,16,14Z" fill-rule="evenodd"/><path d="M8,9a3,3,0,1,0,3,3A3,3,0,0,0,8,9Zm0,5a2,2,0,1,1,2-2A2,2,0,0,1,8,14Z" fill-rule="evenodd"/><polygon points="12.7 7.5 13.85 8.65 13.15 9.35 12 8.2 10.85 9.35 10.15 8.65 11.3 7.5 10.15 6.35 10.85 5.65 12 6.8 13.15 5.65 13.85 6.35 12.7 7.5" fill-rule="evenodd"/><polygon points="13.85 15.35 12.7 16.5 13.85 17.65 13.15 18.35 12 17.2 10.85 18.35 10.15 17.65 11.3 16.5 10.15 15.35 10.85 14.65 12 15.8 13.15 14.65 13.85 15.35" fill-rule="evenodd"/></svg>