<svg width="24" height="24" viewBox="0 0 24 24" xmlns="http://www.w3.org/2000/svg"><path d="M9.5 8.5a1.25 1.25 0 1 0 0-2.5 1.25 1.25 0 0 0 0 2.5zM14.5 8.5a1.25 1.25 0 1 0 0-2.5 1.25 1.25 0 0 0 0 2.5zM13.5 11.5a1.5 1.5 0 1 1-3 0 1.5 1.5 0 0 1 3 0zM7 13a1.5 1.5 0 1 0 0-3 1.5 1.5 0 0 0 0 3zM18.5 11.5a1.5 1.5 0 1 1-3 0 1.5 1.5 0 0 1 3 0zM9.5 17.5a1.5 1.5 0 1 0 0-3 1.5 1.5 0 0 0 0 3zM16 16a1.5 1.5 0 1 1-3 0 1.5 1.5 0 0 1 3 0z"/><path fill-rule="evenodd" clip-rule="evenodd" d="M18.187 2.5H5.813a10.46 10.46 0 0 0-2.02 2.28A11.065 11.065 0 0 0 2 10.86C2 16.736 6.477 21.5 12 21.5s10-4.764 10-10.64c0-2.26-.663-4.357-1.792-6.08a10.46 10.46 0 0 0-2.021-2.28zM20 10.86c0 4.89-3.697 8.64-8 8.64s-8-3.75-8-8.64c0-1.867.546-3.582 1.465-4.983.33-.503.706-.964 1.122-1.377h10.826c.416.413.793.874 1.122 1.377A9.066 9.066 0 0 1 20 10.86z"/></svg>