<svg xmlns="http://www.w3.org/2000/svg" width="24" height="24" viewBox="0 0 24 24"><path d="M9.69 6a.75.75 0 1 1 .75.75.76.76 0 0 1-.75-.75zm3.83.75a.75.75 0 1 0-.75-.75.76.76 0 0 0 .75.75zM12 9.71a1 1 0 1 0-1-1 1 1 0 0 0 1 1zm-3.15 0a1 1 0 1 0-1-1 1 1 0 0 0 1 1zm6.3 0a1 1 0 1 0-1-1 1 1 0 0 0 1 1zm-4.73.77a1 1 0 1 0 1 1 1 1 0 0 0-1-1zm3.16 0a1 1 0 1 0 1 1 1 1 0 0 0-1-1zM11 18a1.5 1.5 0 1 1-1.5-1.5A1.5 1.5 0 0 1 11 18zm-1 0a.5.5 0 1 0-.5.5.5.5 0 0 0 .5-.5zm6 0a1.5 1.5 0 1 1-1.5-1.5A1.5 1.5 0 0 1 16 18zm-1 0a.5.5 0 1 0-.5.5.5.5 0 0 0 .5-.5zm4 0a4 4 0 0 1-4 4H9a4 4 0 0 1-1.12-7.84A7 7 0 0 1 6.25 4.5 7.22 7.22 0 0 1 7.67 3h8.66a7.22 7.22 0 0 1 1.42 1.5 7 7 0 0 1-1.63 9.66A4 4 0 0 1 19 18zm-7-4a5.5 5.5 0 0 0 5.5-5.5 5.4 5.4 0 0 0-1-3.14 5 5 0 0 0-.74-.86H8.23a5.57 5.57 0 0 0-.75.86A5.5 5.5 0 0 0 12 14zm5.5 4a2.5 2.5 0 0 0-2.5-2.5H9a2.5 2.5 0 0 0 0 5h6a2.5 2.5 0 0 0 2.5-2.5z"/><path fill="none" d="M0 0h24v24H0z"/></svg>