<svg width="24" height="24" viewBox="0 0 24 24" xmlns="http://www.w3.org/2000/svg"><path d="M15.2 5.2a.8.8 0 1 1-1.6 0 .8.8 0 0 1 1.6 0zM9.6 6a.8.8 0 1 0 0-1.6.8.8 0 0 0 0 1.6zM11.2 11.2a1.2 1.2 0 1 1-2.4 0 1.2 1.2 0 0 1 2.4 0zM8.4 9.2a1.2 1.2 0 1 0 0-2.4 1.2 1.2 0 0 0 0 2.4zM13.2 8a1.2 1.2 0 1 1-2.4 0 1.2 1.2 0 0 1 2.4 0zM15.6 9.2a1.2 1.2 0 1 0 0-2.4 1.2 1.2 0 0 0 0 2.4zM15.2 11.2a1.2 1.2 0 1 1-2.4 0 1.2 1.2 0 0 1 2.4 0z"/><path fill-rule="evenodd" clip-rule="evenodd" d="M8.5 19.5a1.5 1.5 0 1 0 0-3 1.5 1.5 0 0 0 0 3zm0-1a.5.5 0 1 0 0-1 .5.5 0 0 0 0 1zM17 18a1.5 1.5 0 1 1-3 0 1.5 1.5 0 0 1 3 0zm-1 0a.5.5 0 1 1-1 0 .5.5 0 0 1 1 0z"/><path fill-rule="evenodd" clip-rule="evenodd" d="M6.287 2h11.426A7.974 7.974 0 0 1 20 7.6a7.989 7.989 0 0 1-3.285 6.464A4.001 4.001 0 0 1 16 22H8a4 4 0 0 1-.715-7.936A7.989 7.989 0 0 1 4 7.6c0-2.18.872-4.157 2.287-5.6zM12 13.6A6 6 0 0 0 16.8 4H7.2a6 6 0 0 0 4.8 9.6zM6 18a2 2 0 0 1 2-2h8a2 2 0 1 1 0 4H8a2 2 0 0 1-2-2z"/></svg>