<svg width="24" height="24" viewBox="0 0 24 24" xmlns="http://www.w3.org/2000/svg"><path fill-rule="evenodd" clip-rule="evenodd" d="M12 18.5a8 8 0 0 0 8-8 7.96 7.96 0 0 0-1.755-5H5.755A7.96 7.96 0 0 0 4 10.5a8 8 0 0 0 8 8zm-7.141-15H19.14a9.967 9.967 0 0 1 2.859 7c0 5.523-4.477 10-10 10s-10-4.477-10-10a9.968 9.968 0 0 1 2.859-7z"/><path d="M16 7.5a1 1 0 1 1-2 0 1 1 0 0 1 2 0zM10 7.5a1 1 0 1 1-2 0 1 1 0 0 1 2 0zM11 15a1.5 1.5 0 1 1-3 0 1.5 1.5 0 0 1 3 0zM9 11a1.5 1.5 0 1 1-3 0 1.5 1.5 0 0 1 3 0zM13.5 11a1.5 1.5 0 1 1-3 0 1.5 1.5 0 0 1 3 0zM18 11a1.5 1.5 0 1 1-3 0 1.5 1.5 0 0 1 3 0zM16 15a1.5 1.5 0 1 1-3 0 1.5 1.5 0 0 1 3 0z"/></svg>