<svg xmlns="http://www.w3.org/2000/svg" width="24" height="24" viewBox="0 0 24 24"><path d="M12 2a10 10 0 1 0 10 10A10 10 0 0 0 12 2zm0 18a8 8 0 1 1 8-8 8 8 0 0 1-8 8zm3.5-10a2 2 0 1 0 2 2 2 2 0 0 0-2-2zm0 3a1 1 0 1 1 1-1 1 1 0 0 1-1 1zm-7-3a2 2 0 1 0 2 2 2 2 0 0 0-2-2zm0 3a1 1 0 1 1 1-1 1 1 0 0 1-1 1zm1.75-4.17l1.06-1.06-1.06-1.06L11 6l1 1.06L13.08 6l.71.71-1.07 1.06 1.07 1.06-.71.71L12 8.47l-1 1.07zm3.54 6.34l-1.07 1.06 1.07 1.06-.71.71L12 16.93 11 18l-.71-.71 1.06-1.06-1.06-1.06.71-.71 1 1.06 1.06-1.06z"/><path fill="none" d="M0 0h24v24H0z"/></svg>