<svg xmlns="http://www.w3.org/2000/svg" width="24" height="24" viewBox="0 0 24 24"><path d="M14 2h-4a8 8 0 0 0-8 8v4a8 8 0 0 0 8 8h4a8 8 0 0 0 8-8v-4a8 8 0 0 0-8-8zm6 12a6 6 0 0 1-6 6h-4a6 6 0 0 1-6-6v-4a6 6 0 0 1 6-6h4a6 6 0 0 1 6 6zm-2-2a1.5 1.5 0 1 1-1.5-1.5A1.5 1.5 0 0 1 18 12zm-4.5 4.5A1.5 1.5 0 1 1 12 15a1.5 1.5 0 0 1 1.5 1.5zM9 12a1.5 1.5 0 1 1-1.5-1.5A1.5 1.5 0 0 1 9 12zm1.75-4.75A1.25 1.25 0 1 1 12 8.5a1.25 1.25 0 0 1-1.25-1.25z" fill-rule="evenodd"/><path fill="none" d="M0 0h24v24H0z"/></svg>