<svg xmlns="http://www.w3.org/2000/svg" width="24" height="24" viewBox="0 0 24 24"><path d="M14 2.2V1h-4v1.2a10 10 0 1 0 4 0zM12 20a8 8 0 1 1 8-8 8 8 0 0 1-8 8zm-4.25-9.75A1.75 1.75 0 1 0 9.5 12a1.75 1.75 0 0 0-1.75-1.75zm0 2.5A.75.75 0 1 1 8.5 12a.76.76 0 0 1-.75.75zM12 14.5a1.75 1.75 0 1 0 1.75 1.75A1.75 1.75 0 0 0 12 14.5zm0 2.5a.75.75 0 1 1 .75-.75.76.76 0 0 1-.75.75zm4.25-6.75A1.75 1.75 0 1 0 18 12a1.75 1.75 0 0 0-1.75-1.75zm0 2.5A.75.75 0 1 1 17 12a.76.76 0 0 1-.75.75zM12 9a1.5 1.5 0 1 0-1.5-1.5A1.5 1.5 0 0 0 12 9zm0-2a.5.5 0 1 1-.5.5.5.5 0 0 1 .5-.5z" fill-rule="evenodd"/><path fill="none" d="M0 0h24v24H0z"/></svg>