<svg width="24" height="24" viewBox="0 0 24 24" xmlns="http://www.w3.org/2000/svg"><path d="M8 13.25a1.25 1.25 0 1 0 0-2.5 1.25 1.25 0 0 0 0 2.5zM16 13.25a1.25 1.25 0 1 0 0-2.5 1.25 1.25 0 0 0 0 2.5zM13.25 12a1.25 1.25 0 1 1-2.5 0 1.25 1.25 0 0 1 2.5 0z"/><path fill-rule="evenodd" clip-rule="evenodd" d="M15.867 5H8.133a4 4 0 0 0-3.43 1.942l-1.8 3a4 4 0 0 0 0 4.116l1.8 3A4 4 0 0 0 8.132 19h7.736a4 4 0 0 0 3.43-1.942l1.8-3a4 4 0 0 0 0-4.116l-1.8-3A4 4 0 0 0 15.867 5zm-9.45 2.971A2 2 0 0 1 8.132 7h7.736a2 2 0 0 1 1.714.971l1.8 3a2 2 0 0 1 0 2.058l-1.8 3a2 2 0 0 1-1.715.971H8.133a2 2 0 0 1-1.715-.971l-1.8-3a2 2 0 0 1 0-2.058l1.8-3z"/></svg>