<svg xmlns="http://www.w3.org/2000/svg" width="24" height="24" viewBox="0 0 24 24"><path d="M14 2h-4a7 7 0 0 0-7 7v6a7 7 0 0 0 7 7h4a7 7 0 0 0 7-7V9a7 7 0 0 0-7-7zm5 13a5 5 0 0 1-5 5h-.27a2 2 0 0 0-3.46 0H10a5 5 0 0 1-5-5V9a5 5 0 0 1 5-5h1v2h2V4h1a5 5 0 0 1 5 5zm-4.25-7a.75.75 0 1 1 .75.75.76.76 0 0 1-.75-.75zm1.75 2.75a1 1 0 1 1-1-1 1 1 0 0 1 1 1zm0 3a1 1 0 1 1-1-1 1 1 0 0 1 1 1zm-3.5 3a1 1 0 1 1-1-1 1 1 0 0 1 1 1zm-3.5-3a1 1 0 1 1-1-1 1 1 0 0 1 1 1zm0-3a1 1 0 1 1-1-1 1 1 0 0 1 1 1zM7.75 8a.75.75 0 1 1 .75.75.76.76 0 0 1-.75-.75z" fill-rule="evenodd"/><path fill="none" d="M0 0h24v24H0z"/></svg>