<svg xmlns="http://www.w3.org/2000/svg" width="20" height="20" viewBox="0 0 20 20"><path d="M10 0a10 10 0 1 0 10 10A10 10 0 0 0 10 0zm0 18a8 8 0 1 1 8-8 8 8 0 0 1-8 8z" fill-rule="evenodd"/><path d="M14 7a3 3 0 1 0 3 3 3 3 0 0 0-3-3zm0 5a2 2 0 1 1 2-2 2 2 0 0 1-2 2zM6 7a3 3 0 1 0 3 3 3 3 0 0 0-3-3zm0 5a2 2 0 1 1 2-2 2 2 0 0 1-2 2zM10.7 5.5l1.15 1.15-.7.7L10 6.2 8.85 7.35l-.7-.7L9.3 5.5 8.15 4.35l.7-.7L10 4.8l1.15-1.15.7.7L10.7 5.5zM11.85 13.35L10.7 14.5l1.15 1.15-.7.7L10 15.2l-1.15 1.15-.7-.7L9.3 14.5l-1.15-1.15.7-.7L10 13.8l1.15-1.15.7.7z" fill-rule="evenodd"/></svg>