<svg xmlns="http://www.w3.org/2000/svg" width="24" height="24" viewBox="0 0 24 24"><path d="M12 14a6 6 0 1 0-6-6 6 6 0 0 0 6 6zm0-10.5A4.5 4.5 0 1 1 7.5 8 4.49 4.49 0 0 1 12 3.5zm.75 2.5a1 1 0 1 1 1 1 1 1 0 0 1-1-1zm2 1.75a.75.75 0 1 1-.75.75.76.76 0 0 1 .75-.75zM11 10.5a1 1 0 1 1 1 1 1 1 0 0 1-1-1zM9.25 9.25A.75.75 0 1 1 10 8.5a.76.76 0 0 1-.75.75zm0-3.25a1 1 0 1 1 1 1 1 1 0 0 1-1-1zm6.25 9h-7a3.5 3.5 0 0 0 0 7h7a3.5 3.5 0 0 0 0-7zm0 5.5h-7a2 2 0 0 1 0-4h7a2 2 0 0 1 0 4zM9 17a1.5 1.5 0 1 0 1.5 1.5A1.5 1.5 0 0 0 9 17zm0 2a.5.5 0 1 1 .5-.5.5.5 0 0 1-.5.5zm6.25-2a1.5 1.5 0 1 0 1.5 1.5 1.5 1.5 0 0 0-1.5-1.5zm0 2a.5.5 0 1 1 .5-.5.5.5 0 0 1-.5.5z" fill-rule="evenodd"/><path fill="none" d="M0 0h24v24H0z"/></svg>