<svg xmlns="http://www.w3.org/2000/svg" width="16" height="20" viewBox="0 0 16 20"><path d="M4.8 3.2a.8.8 0 1 1 .8.8.8.8 0 0 1-.8-.8zM4.4 7.2A1.2 1.2 0 1 1 5.6 6a1.2 1.2 0 0 1-1.2 1.2z"/><circle cx="6" cy="9.2" r="1.2"/><circle cx="8" cy="6" r="1.2"/><circle cx="10" cy="9.2" r="1.2"/><path d="M12.8 6a1.2 1.2 0 1 1-1.2-1.2A1.2 1.2 0 0 1 12.8 6zM9.6 3.2a.8.8 0 1 1 .8.8.8.8 0 0 1-.8-.8z"/><path d="M12.71 12.06a8 8 0 0 0 1-12.06H2.29a8 8 0 0 0 1 12.06A4 4 0 0 0 4 20h8a4 4 0 0 0 .71-7.94zM2 5.6A6 6 0 0 1 3.2 2h9.6A6 6 0 1 1 2 5.6zM12 18H4a2 2 0 0 1 0-4h8a2 2 0 0 1 0 4z" fill-rule="evenodd"/><path d="M11.5 14.5A1.5 1.5 0 1 0 13 16a1.5 1.5 0 0 0-1.5-1.5zm0 2a.5.5 0 1 1 .5-.5.5.5 0 0 1-.5.5zM4.5 14.5A1.5 1.5 0 1 0 6 16a1.5 1.5 0 0 0-1.5-1.5zm0 2A.5.5 0 1 1 5 16a.5.5 0 0 1-.5.5z" fill-rule="evenodd"/></svg>