<svg width="24" height="24" viewBox="0 0 24 24" xmlns="http://www.w3.org/2000/svg"><path fill-rule="evenodd" clip-rule="evenodd" d="M12 20a8 8 0 1 0 0-16 8 8 0 0 0 0 16zm0 2c5.523 0 10-4.477 10-10S17.523 2 12 2 2 6.477 2 12s4.477 10 10 10z"/><path fill-rule="evenodd" clip-rule="evenodd" d="M16 14a2 2 0 1 0 0-4 2 2 0 0 0 0 4zm0 1a3 3 0 1 0 0-6 3 3 0 0 0 0 6zM8 14a2 2 0 1 0 0-4 2 2 0 0 0 0 4zm0 1a3 3 0 1 0 0-6 3 3 0 0 0 0 6zM13.146 9.354l-3-3 .708-.708 3 3-.708.708z"/><path fill-rule="evenodd" clip-rule="evenodd" d="M10.146 8.646l3-3 .708.708-3 3-.708-.708zM13.146 18.354l-3-3 .708-.708 3 3-.708.708z"/><path fill-rule="evenodd" clip-rule="evenodd" d="M10.146 17.646l3-3 .708.708-3 3-.708-.708z"/></svg>