<svg width="24" height="24" viewBox="0 0 24 24" xmlns="http://www.w3.org/2000/svg"><path d="M10.75 7.25a1.25 1.25 0 1 1-2.5 0 1.25 1.25 0 0 1 2.5 0zM15.75 7.25a1.25 1.25 0 1 1-2.5 0 1.25 1.25 0 0 1 2.5 0zM13.5 11.5a1.5 1.5 0 1 1-3 0 1.5 1.5 0 0 1 3 0zM8.5 11.5a1.5 1.5 0 1 1-3 0 1.5 1.5 0 0 1 3 0zM18.5 11.5a1.5 1.5 0 1 1-3 0 1.5 1.5 0 0 1 3 0zM11 16a1.5 1.5 0 1 1-3 0 1.5 1.5 0 0 1 3 0zM16 16a1.5 1.5 0 1 1-3 0 1.5 1.5 0 0 1 3 0z"/><path fill-rule="evenodd" clip-rule="evenodd" d="M12 19.5c4.303 0 8-3.75 8-8.64a9.066 9.066 0 0 0-1.465-4.983A8.539 8.539 0 0 0 17.413 4.5H6.587a8.537 8.537 0 0 0-1.122 1.377A9.066 9.066 0 0 0 4 10.86c0 4.89 3.697 8.64 8 8.64zm-6.187-17h12.374a10.46 10.46 0 0 1 2.02 2.28A11.065 11.065 0 0 1 22 10.86c0 5.876-4.477 10.64-10 10.64S2 16.736 2 10.86c0-2.26.663-4.357 1.792-6.08A10.46 10.46 0 0 1 5.813 2.5z"/></svg>