<svg xmlns="http://www.w3.org/2000/svg" width="24" height="24" viewBox="0 0 24 24"><path d="M14 2.2V2a2 2 0 0 0-4 0v.2a10 10 0 1 0 4 0zM12 20a8 8 0 1 1 8-8 8 8 0 0 1-8 8zm6-8.75A1.25 1.25 0 1 1 16.75 10 1.25 1.25 0 0 1 18 11.25zm-2 5A1.25 1.25 0 1 1 14.75 15 1.25 1.25 0 0 1 16 16.25zm-5.5 0A1.25 1.25 0 1 1 9.25 15a1.25 1.25 0 0 1 1.25 1.25zM7.25 12.5a1.25 1.25 0 1 1 1.25-1.25 1.25 1.25 0 0 1-1.25 1.25zm6.25-5A1.5 1.5 0 1 1 12 6a1.5 1.5 0 0 1 1.5 1.5z" fill-rule="evenodd"/><path fill="none" d="M0 0h24v24H0z"/></svg>