<svg width="24" height="24" viewBox="0 0 24 24" xmlns="http://www.w3.org/2000/svg"><g clip-path="url(#a)"><path d="M19.2 6.667L12.344 0h-9.6A2.792 2.792 0 0 0 .806.783 2.638 2.638 0 0 0 0 2.667v18.666c.002.707.292 1.384.806 1.884s1.21.78 1.937.783h13.714a2.791 2.791 0 0 0 1.938-.784c.514-.5.803-1.176.806-1.883V20H24V9.333h-4.8V6.667zM11.658 2.16l5.32 5.173h-5.32V2.16zm10.972 8.507v8H6.172v-8h16.457z"/><path d="M11.757 13.687a1.57 1.57 0 0 1-.119.715 1.613 1.613 0 0 1-.429.592 2.464 2.464 0 0 1-1.563.453h-.494v1.893H8v-5.333h1.756c.54-.043 1.077.11 1.509.427.166.165.295.361.38.577.085.215.123.446.112.676zm-2.633.853h.384c.282.019.562-.057.795-.213a.766.766 0 0 0 .275-.587.765.765 0 0 0-.22-.587.997.997 0 0 0-.686-.187h-.52v1.573l-.028.001zM17.326 14.646c.026.371-.028.744-.16 1.094-.133.349-.34.667-.608.933a3.155 3.155 0 0 1-2.222.693h-1.563v-5.333H14.5a2.96 2.96 0 0 1 2.085.693c.255.252.453.552.58.883.128.331.183.684.16 1.037zm-1.206.027c0-1.147-.522-1.707-1.564-1.707h-.631v3.467h.493c1.152-.027 1.7-.587 1.7-1.76h.002zM19.602 17.366H18.45v-5.333h3.155v.933h-2.003v1.387h1.865v.933h-1.864v2.08z"/></g><defs><clipPath id="a"><path fill="#fff" d="M0 0h24v24H0z"/></clipPath></defs></svg>