<svg xmlns="http://www.w3.org/2000/svg" width="24" height="24" viewBox="0 0 24 24"><path d="M19.2 6.67L12.34 0h-9.6A2.77 2.77 0 0 0 .81.78 2.62 2.62 0 0 0 0 2.67v18.66a2.62 2.62 0 0 0 .81 1.89 2.77 2.77 0 0 0 1.93.78h13.72a2.77 2.77 0 0 0 1.93-.78 2.62 2.62 0 0 0 .81-1.89V20H24V9.33h-4.8zm-7.54-4.51L17 7.33h-5.34zm11 8.51v8H6.17v-8z"/><path d="M11.76 13.69a1.71 1.71 0 0 1-.12.71 1.58 1.58 0 0 1-.43.59 2.41 2.41 0 0 1-1.56.46h-.5v1.89H8V12h1.76a2.22 2.22 0 0 1 1.5.42 1.67 1.67 0 0 1 .38.58 1.6 1.6 0 0 1 .12.69zm-2.64.85h.39a1.29 1.29 0 0 0 .79-.21.9.9 0 0 0 .21-.27.88.88 0 0 0 .07-.32.89.89 0 0 0-.05-.32 1 1 0 0 0-.17-.27 1 1 0 0 0-.69-.15h-.52v1.57zm8.21.11a2.7 2.7 0 0 1-.16 1.09 2.64 2.64 0 0 1-.61.93 3.13 3.13 0 0 1-2.22.7h-1.57V12h1.73a3 3 0 0 1 2.09.7 2.47 2.47 0 0 1 .74 1.92zm-1.21 0c0-1.14-.52-1.7-1.56-1.7h-.64v3.46h.5a1.53 1.53 0 0 0 1.7-1.76zm3.48 2.72h-1.15V12h3.16v1h-2v1.38h1.87v.94H19.6z"/></svg>