<svg xmlns="http://www.w3.org/2000/svg" width="24" height="24" viewBox="0 0 24 24"><title>px_flow_24px</title><path d="M5.35 14.78a1.84 1.84 0 0 1 1.15.37 3.76 3.76 0 0 0 2.18.64 3.74 3.74 0 0 0 2.18-.64 2 2 0 0 1 2.3 0 4 4 0 0 0 4.36 0 2 2 0 0 1 2.3 0 3.77 3.77 0 0 0 2.16.64v-2a1.89 1.89 0 0 1-1.15-.36 4 4 0 0 0-4.36 0 1.77 1.77 0 0 1-1.15.36 1.89 1.89 0 0 1-1.15-.36 4 4 0 0 0-4.36 0 1.77 1.77 0 0 1-1.15.36 1.89 1.89 0 0 1-1.15-.36 3.82 3.82 0 0 0-2.18-.65 3.82 3.82 0 0 0-2.18.65 1.77 1.77 0 0 1-1.15.34v2a3.9 3.9 0 0 0 2.2-.64 1.84 1.84 0 0 1 1.15-.35zM22 15.79zM16.49 18a1.77 1.77 0 0 1-1.15.36 1.89 1.89 0 0 1-1.15-.36 3.82 3.82 0 0 0-2.19-.69 3.88 3.88 0 0 0-2.18.69 1.75 1.75 0 0 1-1.15.36A1.77 1.77 0 0 1 7.52 18a3.87 3.87 0 0 0-2.18-.65 3.88 3.88 0 0 0-2.19.65 1.77 1.77 0 0 1-1.15.32v2a4 4 0 0 0 2.19-.65 1.82 1.82 0 0 1 1.15-.37 1.84 1.84 0 0 1 1.15.37 3.87 3.87 0 0 0 2.18.65 4 4 0 0 0 2.19-.65 2 2 0 0 1 2.3 0 4 4 0 0 0 4.36 0 2 2 0 0 1 2.3 0 3.82 3.82 0 0 0 2.18.65v-2a1.77 1.77 0 0 1-1.15-.32 4 4 0 0 0-4.36 0zM22 6.69zM5.35 5.68A1.89 1.89 0 0 1 6.5 6a3.85 3.85 0 0 0 2.18.65A3.82 3.82 0 0 0 10.86 6 1.77 1.77 0 0 1 12 5.68a1.89 1.89 0 0 1 1.16.32 4 4 0 0 0 4.36 0 1.77 1.77 0 0 1 1.15-.36 1.89 1.89 0 0 1 1.15.36 3.78 3.78 0 0 0 2.18.69v-2a1.84 1.84 0 0 1-1.15-.37 4 4 0 0 0-4.36 0 2 2 0 0 1-2.3 0 4 4 0 0 0-4.36 0 2 2 0 0 1-2.3 0 3.82 3.82 0 0 0-2.18-.65 3.82 3.82 0 0 0-2.18.65A1.84 1.84 0 0 1 2 4.67v2A3.91 3.91 0 0 0 4.2 6a1.77 1.77 0 0 1 1.15-.32zM20.85 8.85a4 4 0 0 0-4.36 0 2 2 0 0 1-2.3 0A3.74 3.74 0 0 0 12 8.21a3.87 3.87 0 0 0-2.19.64 1.82 1.82 0 0 1-1.15.37 1.78 1.78 0 0 1-1.15-.37 3.78 3.78 0 0 0-2.18-.64 3.87 3.87 0 0 0-2.19.64A1.84 1.84 0 0 1 2 9.22v2a3.88 3.88 0 0 0 2.19-.65 1.75 1.75 0 0 1 1.15-.36 1.77 1.77 0 0 1 1.15.36 4 4 0 0 0 4.37 0 1.77 1.77 0 0 1 1.14-.34 1.89 1.89 0 0 1 1.15.36 4 4 0 0 0 4.36 0 1.77 1.77 0 0 1 1.15-.36 1.89 1.89 0 0 1 1.15.36 3.82 3.82 0 0 0 2.18.65v-2a1.84 1.84 0 0 1-1.14-.39z"/><path fill="none" d="M0 0h24v24H0z"/></svg>