<svg xmlns="http://www.w3.org/2000/svg" width="24" height="24" viewBox="0 0 24 24">
  <title>px_generator_off_24px</title>
  <g>
    <path d="M1,3.54,3.78,6.32a10,10,0,0,0,13.9,13.9L20.46,23l1.27-1.27L2.27,2.27ZM14.45,17.37a12.73,12.73,0,0,1-1.86.13,4.74,4.74,0,0,1-3.71-1.42A5.93,5.93,0,0,1,7.61,12a7.12,7.12,0,0,1,.19-1.65L10,12.51a4,4,0,0,0,.69,2.19,2.45,2.45,0,0,0,2.07.91h.33l1.71,1.71Z"/>
    <path d="M13.2,6.5a8,8,0,0,1,3.18.66L15.63,9a5.43,5.43,0,0,0-2.44-.58,3.17,3.17,0,0,0-1.77.49l2.46,2.46h2.51v2.51l3.83,3.83A10,10,0,0,0,6.32,3.78L9.87,7.33A6.23,6.23,0,0,1,13.2,6.5Z"/>
  </g>
  <rect width="24" height="24" fill="none"/>
</svg>
