<svg width="24" height="24" viewBox="0 0 24 24" xmlns="http://www.w3.org/2000/svg"><path d="M3 13.003v-2h2v2H3zM4.612 7.325L3 6.343V4.001l2.653 1.616a.5.5 0 0 0 .56-.027l1.38-1.035c1.43-1.072 3.491-.34 3.925 1.394l2.904 11.617a.5.5 0 0 0 .785.279l1.379-1.034a2.5 2.5 0 0 1 2.804-.133l1.61.984v2.344l-2.653-1.622a.5.5 0 0 0-.561.027l-1.379 1.034c-1.43 1.072-3.491.34-3.925-1.394L9.578 6.434a.5.5 0 0 0-.785-.279L7.413 7.19a2.5 2.5 0 0 1-2.8.135zM21 11.003h-2v2h2v-2z"/><path d="M7 11.003h2v2H7v-2zM17 11.003h-2v2h2v-2z"/></svg>