<?xml version="1.0" encoding="utf-8"?><svg xmlns="http://www.w3.org/2000/svg" xmlns:xlink="http://www.w3.org/1999/xlink"><symbol viewBox="0 0 24 24" id="air_filter"><title>px_air_filter_24px</title><path d="M8 2a3 3 0 0 0-3 3v1.88a5.49 5.49 0 0 0-2.41-.57 2.88 2.88 0 0 0-.59.07v2a3.8 3.8 0 0 1 .59-.06A5.32 5.32 0 0 1 5 9v1.91a5.66 5.66 0 0 0-2.44-.57 5.12 5.12 0 0 0-.56 0v2a5 5 0 0 1 .56-.06A5.35 5.35 0 0 1 5 13v1.88a5.66 5.66 0 0 0-2.44-.57 3.43 3.43 0 0 0-.56.07v2a3.43 3.43 0 0 1 .56-.07A5.31 5.31 0 0 1 5 17v2a3 3 0 0 0 3 3h8a3 3 0 0 0 3-3v-.75l-.78-.34c-.42-.14-.83-.3-1.22-.44V19a1 1 0 0 1-1 1H8a1 1 0 0 1-1-1V5a1 1 0 0 1 1-1h8a1 1 0 0 1 1 1v1.38A6.4 6.4 0 0 0 14.88 6a6.81 6.81 0 0 0-3.47 1.09A6.05 6.05 0 0 1 8.56 8 5 5 0 0 1 8 7.94v2a5 5 0 0 0 .56.06A6.6 6.6 0 0 0 12 8.91 6 6 0 0 1 14.88 8a10.9 10.9 0 0 1 3.31.91A9.93 9.93 0 0 0 22 10V8a9.16 9.16 0 0 1-3-.78V5a3 3 0 0 0-3-3zm6.88 8a6.81 6.81 0 0 0-3.47 1.09 6.05 6.05 0 0 1-2.85.91 5 5 0 0 1-.56-.06v2a5 5 0 0 0 .56.06A6.6 6.6 0 0 0 12 12.91a6 6 0 0 1 2.88-.91 10.9 10.9 0 0 1 3.31.91A9.93 9.93 0 0 0 22 14v-2a10.58 10.58 0 0 1-3.28-.91A8.76 8.76 0 0 0 14.88 10zm0 4a6.81 6.81 0 0 0-3.47 1.09 6.05 6.05 0 0 1-2.82.91 3.8 3.8 0 0 1-.59-.06v2a5.61 5.61 0 0 0 .59.06A6.6 6.6 0 0 0 12 16.91a6 6 0 0 1 2.91-.91 10.83 10.83 0 0 1 3.31.91A9.93 9.93 0 0 0 22 18v-2a10.75 10.75 0 0 1-3.31-.91A8.59 8.59 0 0 0 14.91 14z"/><path fill="none" d="M0 0h24v24H0z"/></symbol><symbol viewBox="0 0 24 24" id="asparagus"><title>asparagus</title><path d="M12 2a6 6 0 0 0-1.25.88l.59 1.37L10 3.62a3.21 3.21 0 0 0-.72 1.13A12.69 12.69 0 0 0 12 8a4.39 4.39 0 0 1-3-2 4.86 4.86 0 0 0 1 3v12s.37 1 2 1 2-1 2-1V10a5.72 5.72 0 0 1-2 .72S15 7.89 15 6a3.65 3.65 0 0 0-.5-1.66A5.49 5.49 0 0 1 12 6a19.58 19.58 0 0 0 1.69-2.72A11 11 0 0 0 12 2zM7 4a6 6 0 0 0-1.25.88l.59 1.37L5 5.62a3.21 3.21 0 0 0-.72 1.13A12.69 12.69 0 0 0 7 10a4.39 4.39 0 0 1-3-2 4.86 4.86 0 0 0 1 3v9s.37 1 2 1 2-1 2-1v-8a5.72 5.72 0 0 1-2 .72 16.25 16.25 0 0 0 2-2.31v-1.1a6.1 6.1 0 0 1-.81-1.87A5.87 5.87 0 0 1 7 8s.51-.68 1-1.53V6a2.1 2.1 0 0 1 .34-1A11.72 11.72 0 0 0 7 4zm10 0a5.68 5.68 0 0 0-1.19.81A3.75 3.75 0 0 1 16 6.09a4.91 4.91 0 0 1-.72 2.13A10.73 10.73 0 0 0 17 10a4.41 4.41 0 0 1-2.19-1l-.18.25A1 1 0 0 1 15 10v10s.37 1 2 1 2-1 2-1v-8a5.72 5.72 0 0 1-2 .72S20 9.9 20 8a3.65 3.65 0 0 0-.5-1.66A5.49 5.49 0 0 1 17 8a19.58 19.58 0 0 0 1.69-2.72A11 11 0 0 0 17 4z"/><path fill="none" d="M0 0h24v24H0z"/></symbol><symbol viewBox="0 0 24 24" id="barley"><title>barley</title><path d="M18 2c-1.46 0-1.86 2.5-2 4v2h1c1.84 0 5-.19 5-2a22.7 22.7 0 0 0-4.28.28A22.76 22.76 0 0 0 18 2zm4 0a2.82 2.82 0 0 0-3 2.63A2.29 2.29 0 0 0 19 5a2.79 2.79 0 0 0 3-2.55A3.38 3.38 0 0 0 22 2zm-8 2c-.93.93-1 4.15-1 6v1h1c1.84 0 5.07-.07 6-1-.73-.73-2.79-1-4-1a4.2 4.2 0 0 0-1.16.19A4.38 4.38 0 0 0 15 8c0-1.18-.29-3.25-1-4zm-3 3c-.93.93-1 4.15-1 6v1h1c1.84 0 5.07-.07 6-1-.73-.73-2.79-1-4-1a4.2 4.2 0 0 0-1.16.19A4.38 4.38 0 0 0 12 11c0-1.18-.29-3.25-1-4zm-3 3c-.93.93-1 4.15-1 6v1h1c1.84 0 5.07-.07 6-1-.73-.73-2.79-1-4-1a4.2 4.2 0 0 0-1.16.19A4.38 4.38 0 0 0 9 14c0-1.18-.29-3.25-1-4zm-3 3c-.93.93-1 4.15-1 6v.31l-2 2 .7.69 2-2H5c1.84 0 5.07-.07 6-1-.73-.73-2.79-1-4-1a4.2 4.2 0 0 0-1.16.19A4.38 4.38 0 0 0 6 17c0-1.18-.29-3.25-1-4z"/><path fill="none" d="M0 0h24v24H0z"/></symbol><symbol viewBox="0 0 24 24" id="barley_alt"><path d="M7.33 18.33c-.83-1.16-.83-2.5-.83-3.83 1.67 1 3.33 2 4.17 3.17l.33.56v-2.28c-1.5-.9-2.92-1.82-3.67-2.87-.83-1.16-.83-2.5-.83-3.83 1.67 1 3.33 2 4.17 3.17L11 13v-2.3c-1.5-.9-2.92-1.82-3.67-2.87C6.5 6.67 6.5 5.33 6.5 4c1.67 1 3.33 2 4.17 3.17.1.14.19.29.27.45-.17-.62-.28-1.2-.29-1.8-.01-1.51.65-3.06 1.31-4.61.69 1.48 1.38 2.97 1.39 4.48.01.63-.1 1.27-.28 1.9.08-.14.16-.28.26-.42C14.17 6 15.83 5 17.5 4c0 1.33 0 2.67-.83 3.83C15.92 8.88 14.5 9.8 13 10.7V13l.33-.58c.84-1.17 2.5-2.17 4.17-3.17 0 1.33 0 2.67-.83 3.83-.75 1.05-2.17 1.97-3.67 2.87v2.28l.33-.56c.84-1.17 2.5-2.17 4.17-3.17 0 1.33 0 2.67-.83 3.83-.75 1.05-2.17 1.97-3.67 2.87V23h-2v-1.8c-1.5-.9-2.92-1.82-3.67-2.87z"/></symbol><symbol viewBox="0 0 24 24" id="barrel"><path d="M18 19h1v2H5v-2h1v-6H5v-2h1V5H5V3h14v2h-1v6h1v2h-1v6m-9-6a3 3 0 0 0 3 3 3 3 0 0 0 3-3c0-2-3-5.37-3-5.37S9 11 9 13z"/></symbol><symbol viewBox="0 0 24 24" id="baseball"><title>baseball</title><path d="M12 2a9.81 9.81 0 0 0-6.5 2.4 8.64 8.64 0 0 1 1.3 1.4l1.1-.6 1 1.7-1 .6a9.53 9.53 0 0 1 1 3.5H10v2H8.9a8.9 8.9 0 0 1-1.1 3.6l1 .6-1 1.7-1.1-.6a8.64 8.64 0 0 1-1.3 1.4 10 10 0 0 0 6.5 2.4 9.81 9.81 0 0 0 6.5-2.4 8.64 8.64 0 0 1-1.3-1.4l-1.1.6-1-1.7 1-.6a11 11 0 0 1-1.1-3.5H14v-2h1.1a8.9 8.9 0 0 1 1.1-3.6l-1-.6 1-1.7 1.1.6a8.64 8.64 0 0 1 1.3-1.4A10.28 10.28 0 0 0 12 2M4.1 5.8A10.52 10.52 0 0 0 2 12a9.79 9.79 0 0 0 2.1 6.1l.9-.9-.6-.3 1-1.7.7.4a7.86 7.86 0 0 0 .8-2.6H6v-2h.9a7.86 7.86 0 0 0-.8-2.6l-.7.5-1-1.7.6-.3a2.44 2.44 0 0 0-.9-1.1m15.8 0l-.9.9.6.3-1 1.7-.7-.4a7.86 7.86 0 0 0-.8 2.6h.9v2h-.9a7.86 7.86 0 0 0 .8 2.6l.7-.4 1 1.7-.6.4a7.64 7.64 0 0 0 .9.9A10 10 0 0 0 22 12a10.52 10.52 0 0 0-2.1-6.2z"/><path fill="none" d="M0 0h24v24H0z"/></symbol><symbol viewBox="0 0 24 24" id="basketball_hoop"><title>basketball_hoop</title><path fill="none" d="M0 0h24v24H0z"/><path d="M21 2H3a2 2 0 0 0-2 2v12a2 2 0 0 0 2 2h3.57L8 23l2-2 2 2 2-2 2 2 1.43-5H21a2 2 0 0 0 2-2V4a2 2 0 0 0-2-2m0 14h-3v-2h-1V9a2 2 0 0 0-2-2H9a2 2 0 0 0-2 2v5H6v2H3V4h18v12M9 14V9h6v5z"/></symbol><symbol viewBox="0 0 24 24" id="battery"><title>battery</title><path d="M20 15.67V14h2v-4h-2V8.33A1.34 1.34 0 0 0 18.67 7H3.34A1.34 1.34 0 0 0 2 8.33v7.33A1.34 1.34 0 0 0 3.33 17h15.34A1.34 1.34 0 0 0 20 15.67z"/><path d="M20 15.67V14h2v-4h-2V8.33A1.34 1.34 0 0 0 18.67 7H3.34A1.34 1.34 0 0 0 2 8.33v7.33A1.34 1.34 0 0 0 3.33 17h15.34A1.34 1.34 0 0 0 20 15.67z"/><path d="M24 0v24H0V0z" fill="none"/></symbol><symbol viewBox="0 0 24 24" id="bearing"><title>px_bearing_24px</title><g fill="currentColor"><path d="M12 2a10 10 0 1 0 10 10A10 10 0 0 0 12 2zm5.67 15.64a1.5 1.5 0 1 0-2.13 0 1.49 1.49 0 0 0 2.13 0 8 8 0 0 1-11.28 0 1.5 1.5 0 1 0 0-2.13 1.49 1.49 0 0 0 0 2.13 8 8 0 0 1 0-11.28 1.5 1.5 0 1 0 2.13 0 1.49 1.49 0 0 0-2.13 0 8 8 0 0 1 11.28 0 1.5 1.5 0 1 0 0 2.13 1.49 1.49 0 0 0 0-2.13 8 8 0 0 1 0 11.28z"/><path d="M12 7a5 5 0 1 0 5 5 5 5 0 0 0-5-5zm0 8a3 3 0 1 1 3-3 3 3 0 0 1-3 3z"/><circle cx="12" cy="5.5" r="1.5"/><circle cx="12" cy="18.5" r="1.5"/><circle cx="5.5" cy="12" r="1.5"/><circle cx="18.5" cy="12" r="1.5"/></g><path fill="none" d="M0 0h24v24H0z"/></symbol><symbol viewBox="0 0 24 24" id="boxing_glove"><title>boxing_glove</title><path d="M19 16V6h3v10h-3M12 4H7S2 4 2 8v6a3.54 3.54 0 0 0 2.07 3.31A4 4 0 0 1 8 14h3v2H8a2 2 0 0 0 0 4h5c4 0 4-4 4-4V6s-1-2-5-2z"/><path fill="none" d="M0 0h24v24H0z"/></symbol><symbol viewBox="0 0 24 24" id="breaker"><title>px_breaker_24px</title><path fill="none" opacity=".01" d="M0 0h24v24H0z"/><path d="M1 14h6v2H1zm16 0h6v2h-6zm-.76-1.5a4.5 4.5 0 0 0-8.48 0l-2.83-1a7.5 7.5 0 0 1 14.14 0z"/></symbol><symbol viewBox="0 0 24 24" id="broccoli"><title>broccoli</title><path d="M9.24 2.5a3.65 3.65 0 0 0-3.68 3.09A4.05 4.05 0 0 0 2.49 9.5c0 1.7 1.24 3.51 3.91 3.91l.09.09a14.36 14.36 0 0 1 3 7 8.34 8.34 0 0 1 0 1h5v-1a8.64 8.64 0 0 1 3.72-6.81 3.39 3.39 0 0 0 2.1-.66 3.61 3.61 0 0 0 1.18-3 3.52 3.52 0 0 0-2.09-3.34A4.41 4.41 0 0 0 15 3.5a4.25 4.25 0 0 0-2.28.59A4.8 4.8 0 0 0 9.49 2.5zm.16 2h.22a1.89 1.89 0 0 1 1.5 1.85c0 1-.24 1.3-.35 1.4l1.44 1.44a3.91 3.91 0 0 0 .91-2.84v-.1A2.33 2.33 0 0 1 15 5.5c1.2 0 2.5.77 2.5 2v1h1a1.42 1.42 0 0 1 1 1.5c0 .76-.12 1.24-.4 1.47a2.41 2.41 0 0 1-1.69.15 7 7 0 0 0 .09-1.12h-2a2.42 2.42 0 0 1-.59 1.94 2.75 2.75 0 0 1-2.16.09l-.28-.12-.4.18a3.29 3.29 0 0 1-3.75-.65L8 11.5h-.51c-1.82 0-3-.78-3-2a2.06 2.06 0 0 1 2-2h1v-1A1.78 1.78 0 0 1 9 4.51a1.61 1.61 0 0 1 .4-.01zm4.09 10.28a4.05 4.05 0 0 0 1.1 0c-.3.45-.66 1-1.1 1.72zm-3.81 0a5 5 0 0 0 1.81 0v2.72a17.35 17.35 0 0 1-1.81-2.69z"/><path fill="none" d="M0 0h24v24H0z"/></symbol><symbol viewBox="0 0 24 24" id="bypass_battery"><path fill="none" d="M0 0h24v24H0z"/><path d="M17.5 9.1H19v-6h-6v1.5h3.5L12 9.1l-6-6-1 1 7 7 5.5-5.5zM18 14v6H4v-6h14m.7-2H3.3A1.324 1.324 0 0 0 2 13.3v7.3A1.347 1.347 0 0 0 3.3 22h15.3a1.324 1.324 0 0 0 1.3-1.3V19h2v-4h-2v-1.7a1.181 1.181 0 0 0-1.2-1.3z"/></symbol><symbol viewBox="0 0 24 24" id="camera"><title>px_camera_24px</title><path d="M18.15 4.94A2.09 2.09 0 0 0 17 5.2l-8.65 5a2 2 0 0 0-.73 2.74l1.5 2.59a2 2 0 0 0 2.73.74l1.8-1a2.49 2.49 0 0 0 1.16 1V18a2 2 0 0 0 2 2H22v-2h-5.19v-1.73A2.49 2.49 0 0 0 18 12.73l2.53-1.46a2 2 0 0 0 .74-2.74l-1.5-2.59a2 2 0 0 0-1.59-1M6.22 13.17l-4.22.7.75 1.3 2 3.46.75 1.3 2.72-3.3z"/><path fill="none" d="M0 0h24v24H0z"/></symbol><symbol viewBox="0 0 24 24" id="capacitor_large"><title>px_capacitor_24px</title><path fill="none" d="M0 0h24v24H0z"/><path d="M17 4h-1V2h-3v2h-2V2H8v2H7a2 2 0 0 0-2 2v14a2 2 0 0 0 2 2h10a2 2 0 0 0 2-2V6a2 2 0 0 0-2-2z"/></symbol><symbol viewBox="0 0 24 24" id="car"><path d="M16 6l3 4h2c1.11 0 2 .89 2 2v3h-2c0 1.66-1.34 3-3 3s-3-1.34-3-3H9c0 1.66-1.34 3-3 3s-3-1.34-3-3H1v-3c0-1.11.89-2 2-2l3-4h10m-5.5 1.5H6.75L4.86 10h5.64V7.5m1.5 0V10h5.14l-1.89-2.5H12m-6 6c-.83 0-1.5.67-1.5 1.5s.67 1.5 1.5 1.5 1.5-.67 1.5-1.5-.67-1.5-1.5-1.5m12 0c-.83 0-1.5.67-1.5 1.5s.67 1.5 1.5 1.5 1.5-.67 1.5-1.5-.67-1.5-1.5-1.5z"/><path fill="none" d="M0 0h24v24H0z"/></symbol><symbol viewBox="0 0 24 24" id="carrot"><title>carrot</title><path d="M16.66 2l-.9 1.78a2.33 2.33 0 0 1 .78.81 1.2 1.2 0 0 1 .06.91 3.34 3.34 0 0 1-.69 1.25l-.5.53-.12.09 1.44 1.43.09-.12c.17-.17.32-.31.47-.44l.06-.06a3.42 3.42 0 0 1 1.25-.69 1.24 1.24 0 0 1 .91.06 2.27 2.27 0 0 1 .81.79l1.78-.91a4 4 0 0 0-1.75-1.69 3.26 3.26 0 0 0-.44-.15l2-2-1.4-1.41-2 2c-.05-.15-.1-.3-.16-.44A4 4 0 0 0 16.66 2zm-6.12 4.74a2.07 2.07 0 0 0-.35 0s-3.07 4-2.87 4.41A6.4 6.4 0 0 1 9.91 14a6 6 0 0 0-4-1s-4.3 7.7-4 9c1 .2 3.59-1 7.19-3.09a8.69 8.69 0 0 0-.5-2.63 8.26 8.26 0 0 1 2.4 1.49 4.2 4.2 0 0 0 2.68-1.69c.1-.2.7-1.88 0-2.68a7.26 7.26 0 0 1 2 1.37 15 15 0 0 0 1.5-1s.52-1.89-2.28-4.69C12.81 7 11.21 6.73 10.54 6.74z"/><path fill="none" d="M0 0h24v24H0z"/></symbol><symbol viewBox="0 0 24 24" id="chili-mild"><path d="M13.75 9l1.2-.76c.63.34 1.05 1 1.05 1.76v11.75S8 20 8 11v-1c0-.73.39-1.37.97-1.72l1.46.72L12 8l1.75 1M10 2c1.53 0 2.8 1.15 3 2.64 1 .29 1.81 1.03 2.22 1.99l-1.47.87-1.75-1-1.57 1-1.67-.83c.39-.95 1.19-1.67 2.18-2.01A1.01 1.01 0 0 0 10 4V2z"/></symbol><symbol viewBox="0 0 24 24" id="combine_harvester"><title>combine-harvester</title><path d="M11 4a25.89 25.89 0 0 0-3.41.19 2.72 2.72 0 0 0-1.81 1.09 2.25 2.25 0 0 0-.34 1.78L6 10a2 2 0 0 0-2 2v2h14v-2a2 2 0 0 0-.91-1.69L21.41 6H23V4h-2.41l-4.25 4.25.22-1.15a2.31 2.31 0 0 0-.37-1.82 2.72 2.72 0 0 0-1.81-1.09A25.44 25.44 0 0 0 11 4zm-1 2v4H8l-.62-3.34a.25.25 0 0 1 .06-.22.62.62 0 0 1 .44-.25A16.7 16.7 0 0 1 10 6zm2 0a18.2 18.2 0 0 1 2.09.16.62.62 0 0 1 .44.25.28.28 0 0 1 .06.25L14 9.81V10h-2zm-6 5a1 1 0 1 1-1 1 1 1 0 0 1 1-1zm10 0a1 1 0 1 1-1 1 1 1 0 0 1 1-1zM1 15v2h20v-2zm0 3v2h20v-2z"/><path fill="none" d="M0 0h24v24H0z"/></symbol><symbol viewBox="0 0 24 24" id="computer"><title>px_computer_24px</title><path d="M8 2h8a2 2 0 0 1 2 2v16a2 2 0 0 1-2 2H8a2 2 0 0 1-2-2V4a2 2 0 0 1 2-2m0 2v2h8V4H8m8 4H8v2h8V8m0 10h-2v2h2z"/><path fill="none" d="M0 0h24v24H0z"/></symbol><symbol viewBox="0 0 24 24" id="contactor"><title>px_contactor_24px</title><path d="M13 8V3h-2v5H2v3h20V8h-9zM2 16h9v5h2v-5h9v-3H2v3z"/><path fill="none" d="M0 0h24v24H0z"/></symbol><symbol viewBox="0 0 24 24" id="controlxpert"><title>controlxpert</title><path fill="none" d="M0 0h24v24H0z"/><path d="M16.24 7.76l-1.41 1.41a4 4 0 0 1 0 5.66l1.41 1.41a6 6 0 0 0 0-8.48z"/><path d="M19.07 4.93l-1.42 1.42a8 8 0 0 1 0 11.3l1.42 1.42a10 10 0 0 0 0-14.14zM12 18a6 6 0 0 1 0-12v3l4-4-4-4v3a8 8 0 1 0 4.06 14.88l-1.48-1.47A6 6 0 0 1 12 18z"/><circle cx="12" cy="12" r="2"/></symbol><symbol viewBox="0 0 24 24" id="corn"><title>corn</title><path d="M12.66 2a3.87 3.87 0 0 0-2.38 1.6A9.63 9.63 0 0 0 13 4a9 9 0 0 0 2.72-.4A3.51 3.51 0 0 0 13 2a1.93 1.93 0 0 0-.34 0zM9.72 4.47A11.5 11.5 0 0 0 9 6.07a6.63 6.63 0 0 0 2 .71c.07-.66.14-1.32.22-1.93a10.06 10.06 0 0 1-1.5-.38zm6.59 0a10.06 10.06 0 0 1-1.53.38c.09.62.15 1.27.22 1.93A6.46 6.46 0 0 0 17 6a10 10 0 0 0-.69-1.53zM12.25 5c-.08.61-.15 1.26-.22 2 .31 0 .63.06 1 .06s.68 0 1-.06c-.07-.7-.14-1.36-.22-2h-1.53zm5.09 2a7.71 7.71 0 0 1-2.25.78c.06.66.12 1.32.16 2a5.13 5.13 0 0 0 2.44-1.22c-.1-.52-.21-1-.35-1.53zM8.69 7c-.15.51-.28 1-.38 1.54a5.36 5.36 0 0 0 2.47 1.18c0-.65.1-1.31.16-2A7.46 7.46 0 0 1 8.69 7zm3.25.91c-.06.64-.11 1.29-.16 2A8.35 8.35 0 0 0 13 10a9.07 9.07 0 0 0 1.28-.09c0-.68-.13-1.33-.19-2A9.69 9.69 0 0 1 13 8c-.38 0-.72 0-1.06-.06zm5.94 1.75a7.08 7.08 0 0 1-2.57 1.06c0 .69.07 1.33.1 1.94a4.36 4.36 0 0 0 2.59-1.5c0-.5-.07-1-.12-1.47zm-9.72 0c-.06.49-.11 1-.13 1.5a4.39 4.39 0 0 0 2.6 1.47c0-.63 0-1.29.09-2a7 7 0 0 1-2.56-1zM21 10a71 71 0 0 0-8 7 8.25 8.25 0 0 0-10 0c4-.08 5.05 1.67 5.88 3.16A4.56 4.56 0 0 0 12 22h2c1.32-.13 2.56-1.38 3.47-2.78C19.08 16.75 21 10 21 10zm-9.28.91c0 .65-.1 1.3-.13 2A11.18 11.18 0 0 0 13 13a10 10 0 0 0 1.44-.12c0-.67-.06-1.32-.1-2A9.94 9.94 0 0 1 13 11a9.07 9.07 0 0 1-1.28-.09zM8 12.63c0 .56.06 1.12.13 1.65a8.14 8.14 0 0 1 2.4.44v-1A7 7 0 0 1 8 12.63zm7.22 1.12A10 10 0 0 1 13 14a11.6 11.6 0 0 1-1.44-.09v1.19A10 10 0 0 1 13 16a29.85 29.85 0 0 1 2.25-2.25z"/><path fill="none" d="M0 0h24v24H0z"/></symbol><symbol viewBox="0 0 24 24" id="current"><title>current</title><path d="M16.67 17A4.58 4.58 0 0 1 13 15.05l-3.64-4.89A2.57 2.57 0 0 0 7.23 9a2.79 2.79 0 0 0-2.16 1.51l-1.21 2-1.72-1 1.21-2A4.73 4.73 0 0 1 7.12 7 4.51 4.51 0 0 1 11 9l3.68 4.89A2.56 2.56 0 0 0 16.77 15a2.78 2.78 0 0 0 2.16-1.51l1.21-2 1.72 1-1.21 2A4.73 4.73 0 0 1 16.88 17z"/><path d="M0 0h24v24H0z" fill="none"/></symbol><symbol viewBox="0 0 24 24" id="current_circled"><title>px_current_circled_24px</title><path d="M12 2a10 10 0 1 0 10 10A10 10 0 0 0 12 2zm6.7 12a3.84 3.84 0 0 1-3 2h-.2a3.68 3.68 0 0 1-2.92-1.56l-2.76-3.67A1.64 1.64 0 0 0 8.43 10 1.88 1.88 0 0 0 7 11l-.9 1.51-1.72-1L5.3 10a3.84 3.84 0 0 1 3-2 3.66 3.66 0 0 1 3.09 1.56l2.76 3.67a1.63 1.63 0 0 0 1.39.77A1.88 1.88 0 0 0 17 13l.9-1.51 1.72 1z"/><path d="M0 0h24v24H0z" fill="none"/></symbol><symbol viewBox="0 0 24 24" id="current_circled_outline"><title>px_current_circled_outline_24px</title><path d="M12 4a8 8 0 1 1-8 8 8 8 0 0 1 8-8m0-2a10 10 0 1 0 10 10A10 10 0 0 0 12 2z"/><path d="M0 0h24v24H0z" fill="none"/><path d="M18.7 14a3.84 3.84 0 0 1-3 2h-.2a3.68 3.68 0 0 1-2.92-1.56l-2.76-3.67A1.64 1.64 0 0 0 8.43 10 1.88 1.88 0 0 0 7 11l-.9 1.51-1.72-1L5.3 10a3.84 3.84 0 0 1 3-2 3.66 3.66 0 0 1 3.09 1.56l2.76 3.67a1.63 1.63 0 0 0 1.39.77A1.88 1.88 0 0 0 17 13l.9-1.51 1.72 1z"/></symbol><symbol viewBox="0 0 24 24" id="cybersecurity"><title>cybersecurity</title><path d="M12 23a11 11 0 1 1 11-11 11 11 0 0 1-11 11zm0-20a9 9 0 1 0 9 9 9 9 0 0 0-9-9z"/><path d="M15 11V9a3 3 0 0 0-6 0v2a1 1 0 0 0-1 1v4a1 1 0 0 0 1 1h6a1 1 0 0 0 1-1v-4a1 1 0 0 0-1-1zm-4.5-2a1.5 1.5 0 0 1 3 0v2h-3z"/><path fill="none" d="M0 0h24v24H0z"/></symbol><symbol viewBox="0 0 24 24" id="cybersecurity_two_tone"><title>cybersecurity_two_tone</title><g opacity=".5"><path d="M11.66 5.5V7h.7V5.5a.77.77 0 0 0 .4-.66.79.79 0 0 0-.76-.74.75.75 0 0 0-.75.74.79.79 0 0 0 .41.66zm.34-.94a.28.28 0 0 1 .28.28.28.28 0 1 1-.28-.28zm.36 13.87v-2.05h-.7v2.05a.74.74 0 0 0-.4.63.76.76 0 0 0 .75.75.74.74 0 0 0 .75-.73.77.77 0 0 0-.4-.65zm-.35.91a.28.28 0 0 1-.28-.28.29.29 0 0 1 .28-.28.28.28 0 1 1 0 .56zM5.3 13.75a.75.75 0 1 0 0 1.49.77.77 0 0 0 .65-.4H8v-.7H6a.78.78 0 0 0-.7-.39zm0 1a.29.29 0 0 1-.3-.28.28.28 0 0 1 .28-.28.28.28 0 0 1 0 .56zm12.77-.61H15v.7h3.05a.73.73 0 0 0 .65.4.75.75 0 1 0 0-1.49.74.74 0 0 0-.63.39zm.91.35a.28.28 0 0 1-.28.28.27.27 0 0 1-.28-.28.28.28 0 0 1 .28-.28.29.29 0 0 1 .3.28zM5.42 8.76a.72.72 0 0 0 1 0 .76.76 0 0 0 0-1 .74.74 0 0 0-.72-.19L3.92 5.73l-.49.49L5.23 8a.74.74 0 0 0 .19.76zM5.74 8a.28.28 0 0 1 .38 0 .28.28 0 0 1 0 .39.28.28 0 0 1-.38 0 .35.35 0 0 1 0-.39zM8 13.21v-.7H4.49l-2.43-2.42-.49.51 2.61 2.61H8zm1 2.5H4.16l-1.24 1.23.49.49 1.02-1.02H9v-.7z"/><path d="M9.19 16.68l-.49-.51-1.44 1.47H5.23v2.1h.7v-1.4h1.61l.81-.82v1.15l-1.84 1.84L7 21l2.05-2.06V17l.14-.32zm-2.05-5.66V9.67h-.7v.65H5L2.55 7.88l-.49.49 2.66 2.65h2.42zm.77-8.09l2.21 2.22v2.14h.7V4.87L8.4 2.44l-.49.49zm5.38 13.5v.7h3.52l2.31 2.3.49-.49-2.52-2.51h-3.8zm9.32-5.83l-.48-.51-2.43 2.42h-4.52v.7h4.8l2.63-2.61zm-7.43-4.71a.73.73 0 0 0 .7-.93l1.44-1.44-.48-.52-1.45 1.45a.69.69 0 0 0-.72.19.75.75 0 0 0 0 1 .66.66 0 0 0 .51.25zM15 5a.3.3 0 0 1 .38 0 .28.28 0 0 1 0 .4.28.28 0 0 1-.38 0 .29.29 0 0 1 0-.4zm2.32 3.15a.76.76 0 0 0 0 1 .74.74 0 0 0 1 0 .76.76 0 0 0 .18-.72l2.24-2.24-.49-.49-2.2 2.3a.75.75 0 0 0-.73.15zm.74.71a.28.28 0 0 1-.4 0 .28.28 0 0 1 0-.38.29.29 0 0 1 .37 0 .26.26 0 0 1 .03.38z"/><path d="M17.09 10.55v1.4h.7v-.7h1.73L22.2 8.6l-.52-.49-2.44 2.44h-2.15zM15.65 17h-.7v1.95L16.97 21l.49-.49-1.81-1.84V17zm-2.4-1h.7v2.57h-.7zM9.8 19.9l-.98.98.49.51 1.18-1.21v-1.14H9.8v.86zm3.68-.16l.86.86v1h.7v-1.3l-1.07-1.05-.49.49zm.16-17.34h.7v1.91h-.7zm5.35 13.924l.496-.495 1.117 1.118-.495.495zm-4.563-7.818l3.953-3.953.495.495-3.953 3.953zm-9.32-3.45l.495-.495 3.953 3.953-.495.494zm1.155-1.411l.495-.495 1.86 1.86-.496.495z"/></g><path d="M12 23a11 11 0 1 1 11-11 11 11 0 0 1-11 11zm0-20a9 9 0 1 0 9 9 9 9 0 0 0-9-9z"/><path d="M15 11V9a3 3 0 0 0-6 0v2a1 1 0 0 0-1 1v4a1 1 0 0 0 1 1h6a1 1 0 0 0 1-1v-4a1 1 0 0 0-1-1zm-4.5-2a1.5 1.5 0 0 1 3 0v2h-3z"/><path fill="none" d="M0 0h24v24H0z"/></symbol><symbol viewBox="0 0 24 24" id="device"><title>px_device_24px</title><path d="M19 3H5a2 2 0 0 0-2 2v14a2 2 0 0 0 2 2h14a2 2 0 0 0 2-2V5a2 2 0 0 0-2-2zm0 14a2 2 0 0 1-2 2 2 2 0 0 1-2-2 2 2 0 0 1 2-2 2 2 0 0 1 2 2zm0-10.5A1.5 1.5 0 0 1 17.5 8h-11A1.5 1.5 0 0 1 5 6.5 1.5 1.5 0 0 1 6.5 5h11A1.5 1.5 0 0 1 19 6.5z"/><path fill="none" d="M0 0h24v24H0z"/></symbol><symbol viewBox="0 0 24 24" id="environment"><title>environment</title><path d="M13 17a5 5 0 1 1-8-4V5a3 3 0 0 1 6 0v8a5 5 0 0 1 2 4M7 8v6.17a3 3 0 1 0 2 0V8H7"/><path fill="none" d="M0 0h24v24H0z"/><path d="M19.5 21.5A2.51 2.51 0 0 1 17 19c0-1.67 2.5-4.5 2.5-4.5S22 17.33 22 19a2.51 2.51 0 0 1-2.5 2.5zm0-12A2.51 2.51 0 0 1 17 7c0-1.67 2.5-4.5 2.5-4.5S22 5.33 22 7a2.51 2.51 0 0 1-2.5 2.5zm-3.5 6a2.51 2.51 0 0 1-2.5-2.5c0-1.67 2.5-4.5 2.5-4.5s2.5 2.83 2.5 4.5a2.51 2.51 0 0 1-2.5 2.5z"/></symbol><symbol viewBox="0 0 24 24" id="ephesus_fixture"><title>px_ephesus_fixture_24px</title><path fill="none" d="M0 0h24v24H0z"/><path d="M20.27 7.52c-1.65-1.35-4.37-1.83-6.27-2-.9-.08-1.61-.1-1.94-.1h-.12c-1 0-5.77.11-8.21 2.1 0 0-1.73 1.25-1.73 4.87s1.53 4.95 1.53 4.95 1 1.05 4.07 1.66l.87.15h.07l.88.11h.18l.9.07h3l.9-.07h.18l.88-.11h.07l.87-.15c3.08-.61 4.07-1.66 4.07-1.66S22 16 22 12.39s-1.73-4.87-1.73-4.87zM6 17a2 2 0 1 1 2-2 2 2 0 0 1-2 2zm0-5a2 2 0 1 1 2-2 2 2 0 0 1-2 2zm6 6a2 2 0 1 1 2-2 2 2 0 0 1-2 2zm0-7a2 2 0 1 1 2-2 2 2 0 0 1-2 2zm6 6a2 2 0 1 1 2-2 2 2 0 0 1-2 2zm0-5a2 2 0 1 1 2-2 2 2 0 0 1-2 2zm-2-9a1 1 0 0 0-2 0v1.51c.61 0 1.29.13 2 .26zM5.82 19.59L6.56 21a2 2 0 0 0 1.75 1h7.38a2 2 0 0 0 1.75-1l.74-1.36a22.42 22.42 0 0 1-6.19.83 22.31 22.31 0 0 1-6.17-.88z"/></symbol><symbol viewBox="0 0 24 24" id="ephesus_gateway"><title>px_ephesus_gateway_24px</title><path fill="none" d="M0 0h24v24H0z"/><path d="M18 2H6a2 2 0 0 0-2 2v16a2 2 0 0 0 2 2h12a2 2 0 0 0 2-2V4a2 2 0 0 0-2-2zM8.78 3l.62 1a3 3 0 0 0 5.2 0l.62-1h1.16l-.92 1.54a4 4 0 0 1-6.92 0L7.62 3zm4.93 9.52l-1.37.88a.64.64 0 0 1-.68 0l-1.37-.88a.61.61 0 0 1 0-1l1.37-.88a.64.64 0 0 1 .68 0l1.37.88a.61.61 0 0 1 0 1zM5 18.71v-1.42l1.61-1.61a3 3 0 0 0 .89-2.14V9.7a3 3 0 0 0-1.14-2.37L5 6.24V5l2 1.55A4 4 0 0 1 8.5 9.7v3.84a4 4 0 0 1-1.18 2.85zM15.22 21l-.62-1a3 3 0 0 0-5.2 0l-.62 1H7.62l.92-1.54a4 4 0 0 1 6.92 0l.92 1.54zM19 6.24l-1.36 1.09A3 3 0 0 0 16.5 9.7v3.84a3 3 0 0 0 .89 2.14L19 17.29v1.42l-2.32-2.32a4 4 0 0 1-1.18-2.85V9.7A4 4 0 0 1 17 6.55L19 5z"/></symbol><symbol viewBox="0 0 24 24" id="fan"><title>px_fan_24px</title><path fill="none" d="M0 0h24v24H0z"/><path d="M12 11a1 1 0 1 0 1 1 1 1 0 0 0-1-1m.5-9c4.5 0 4.6 3.57 2.23 4.75a3.36 3.36 0 0 0-1.62 2.47 3.17 3.17 0 0 1 1.23.91C18 8.13 22 8.92 22 12.5c0 4.5-3.58 4.6-4.75 2.23a3.44 3.44 0 0 0-2.5-1.62 3.24 3.24 0 0 1-.91 1.23c2 3.69 1.2 7.66-2.38 7.66-4.46 0-4.57-3.58-2.2-4.76a3.46 3.46 0 0 0 1.62-2.45 3 3 0 0 1-1.25-.92C5.94 15.85 2 15.07 2 11.5 2 7 5.54 6.89 6.72 9.26a3.39 3.39 0 0 0 2.48 1.61 2.91 2.91 0 0 1 .92-1.22C8.13 6 8.92 2 12.48 2z"/></symbol><symbol viewBox="0 0 24 24" id="flow"><title>px_flow_24px</title><path d="M5.35 14.78a1.84 1.84 0 0 1 1.15.37 3.76 3.76 0 0 0 2.18.64 3.74 3.74 0 0 0 2.18-.64 2 2 0 0 1 2.3 0 4 4 0 0 0 4.36 0 2 2 0 0 1 2.3 0 3.77 3.77 0 0 0 2.16.64v-2a1.89 1.89 0 0 1-1.15-.36 4 4 0 0 0-4.36 0 1.77 1.77 0 0 1-1.15.36 1.89 1.89 0 0 1-1.15-.36 4 4 0 0 0-4.36 0 1.77 1.77 0 0 1-1.15.36 1.89 1.89 0 0 1-1.15-.36 3.82 3.82 0 0 0-2.18-.65 3.82 3.82 0 0 0-2.18.65 1.77 1.77 0 0 1-1.15.34v2a3.9 3.9 0 0 0 2.2-.64 1.84 1.84 0 0 1 1.15-.35zM22 15.79zM16.49 18a1.77 1.77 0 0 1-1.15.36 1.89 1.89 0 0 1-1.15-.36 3.82 3.82 0 0 0-2.19-.69 3.88 3.88 0 0 0-2.18.69 1.75 1.75 0 0 1-1.15.36A1.77 1.77 0 0 1 7.52 18a3.87 3.87 0 0 0-2.18-.65 3.88 3.88 0 0 0-2.19.65 1.77 1.77 0 0 1-1.15.32v2a4 4 0 0 0 2.19-.65 1.82 1.82 0 0 1 1.15-.37 1.84 1.84 0 0 1 1.15.37 3.87 3.87 0 0 0 2.18.65 4 4 0 0 0 2.19-.65 2 2 0 0 1 2.3 0 4 4 0 0 0 4.36 0 2 2 0 0 1 2.3 0 3.82 3.82 0 0 0 2.18.65v-2a1.77 1.77 0 0 1-1.15-.32 4 4 0 0 0-4.36 0zM22 6.69zM5.35 5.68A1.89 1.89 0 0 1 6.5 6a3.85 3.85 0 0 0 2.18.65A3.82 3.82 0 0 0 10.86 6 1.77 1.77 0 0 1 12 5.68a1.89 1.89 0 0 1 1.16.32 4 4 0 0 0 4.36 0 1.77 1.77 0 0 1 1.15-.36 1.89 1.89 0 0 1 1.15.36 3.78 3.78 0 0 0 2.18.69v-2a1.84 1.84 0 0 1-1.15-.37 4 4 0 0 0-4.36 0 2 2 0 0 1-2.3 0 4 4 0 0 0-4.36 0 2 2 0 0 1-2.3 0 3.82 3.82 0 0 0-2.18-.65 3.82 3.82 0 0 0-2.18.65A1.84 1.84 0 0 1 2 4.67v2A3.91 3.91 0 0 0 4.2 6a1.77 1.77 0 0 1 1.15-.32zm15.5 3.17a4 4 0 0 0-4.36 0 2 2 0 0 1-2.3 0A3.74 3.74 0 0 0 12 8.21a3.87 3.87 0 0 0-2.19.64 1.82 1.82 0 0 1-1.15.37 1.78 1.78 0 0 1-1.15-.37 3.78 3.78 0 0 0-2.18-.64 3.87 3.87 0 0 0-2.19.64A1.84 1.84 0 0 1 2 9.22v2a3.88 3.88 0 0 0 2.19-.65 1.75 1.75 0 0 1 1.15-.36 1.77 1.77 0 0 1 1.15.36 4 4 0 0 0 4.37 0 1.77 1.77 0 0 1 1.14-.34 1.89 1.89 0 0 1 1.15.36 4 4 0 0 0 4.36 0 1.77 1.77 0 0 1 1.15-.36 1.89 1.89 0 0 1 1.15.36 3.82 3.82 0 0 0 2.18.65v-2a1.84 1.84 0 0 1-1.14-.39z"/><path fill="none" d="M0 0h24v24H0z"/></symbol><symbol viewBox="0 0 24 24" id="flower"><path d="M0 0h24v24H0z" fill="none"/><path d="M12 22a9 9 0 0 0 9-9 9 9 0 0 0-9 9zM5.6 10.25a2.5 2.5 0 0 0 3.92 2.06l-.02.19a2.5 2.5 0 0 0 5 0l-.02-.19c.4.28.89.44 1.42.44a2.5 2.5 0 0 0 2.5-2.5c0-1-.59-1.85-1.43-2.25.84-.4 1.43-1.25 1.43-2.25a2.5 2.5 0 0 0-3.92-2.06l.02-.19a2.5 2.5 0 0 0-5 0l.02.19c-.4-.28-.89-.44-1.42-.44a2.5 2.5 0 0 0-2.5 2.5c0 1 .59 1.85 1.43 2.25-.84.4-1.43 1.25-1.43 2.25zM12 5.5a2.5 2.5 0 0 1 0 5 2.5 2.5 0 0 1 0-5zM3 13a9 9 0 0 0 9 9 9 9 0 0 0-9-9z"/></symbol><symbol viewBox="0 0 24 24" id="flower-tulip"><path d="M3 13a9 9 0 0 0 9 9 9 9 0 0 0-9-9m9 9a9 9 0 0 0 9-9 9 9 0 0 0-9 9m6-19v5a6 6 0 0 1-6 6 6 6 0 0 1-6-6V3c.74 0 1.47.12 2.16.39.55.23 1.04.57 1.45 1L12 2l2.39 2.39c.41-.43.9-.77 1.45-1A5.9 5.9 0 0 1 18 3z"/></symbol><symbol viewBox="0 0 24 24" id="food-apple"><path d="M20 10c2 3-3 12-5 12s-2-1-3-1-1 1-3 1-7-9-5-12 5-3 7-2V5C5.38 8.07 4.11 3.78 4.11 3.78S6.77.19 11 5V3h2v5c2-1 5-1 7 2z"/></symbol><symbol viewBox="0 0 24 24" id="football_helmet"><title>football_helmet</title><path d="M13.5 12a1.5 1.5 0 1 0 1.5 1.5 1.54 1.54 0 0 0-1.5-1.5m0-9a8.27 8.27 0 0 1 8.5 8 10.64 10.64 0 0 1-.9 5c-4.1 0-5.1 4-8.6 4-2.2 0-3.2-1.7-3.4-4h-.9L7 20.3a1 1 0 0 1-1.1.7H3a1 1 0 0 1 0-2v-3a1 1 0 0 1 0-2h3.8l.5-1.6a3.92 3.92 0 0 0-1.8-.4h-.4L5 11a8.27 8.27 0 0 1 8.5-8M5 16v3h.3l.9-3z"/><path fill="none" d="M0 0h24v24H0z"/></symbol><symbol viewBox="0 0 24 24" id="forklift"><title>px_forklift_24px</title><path d="M6 4v7H4a2 2 0 0 0-2 2v4a3 3 0 0 0 6 0h2a3 3 0 0 0 6 0v-4l-4-9H6m11 1v14h5v-1.5h-3.5V5H17m-9.5.5h3.7l3.3 7.5h-7V5.5M5 15.5A1.5 1.5 0 1 1 3.5 17 1.5 1.5 0 0 1 5 15.5m8 0a1.5 1.5 0 1 1-1.5 1.5 1.5 1.5 0 0 1 1.5-1.5z"/><path fill="none" d="M0 0h24v24H0z"/></symbol><symbol viewBox="0 0 24 24" id="fuel"><path d="M3 2h3c.28 0 .53.11.71.29l2.08 2.09.8-.79C10 3.2 10.5 3 11 3h6c.5 0 1 .2 1.41.59l1 1C19.8 5 20 5.5 20 6v13a2 2 0 0 1-2 2H8a2 2 0 0 1-2-2V8c0-.5.2-1 .59-1.41l.79-.8L5.59 4H3V2m8 3v2h6V5h-6m.41 6l-2-2H8v1.41l2 2v3.18l-2 2V19h1.41l2-2h3.18l2 2H18v-1.41l-2-2v-3.18l2-2V9h-1.41l-2 2h-3.18m.59 2h2v2h-2v-2z"/></symbol><symbol viewBox="0 0 24 24" id="garlic"><title>garlic</title><path d="M12.42 2l-.5.41-.72.59H9.05v5a1 1 0 0 1-1 1H7.8A6.12 6.12 0 0 0 2 15.09v.1A6.21 6.21 0 0 0 8.05 21a7.26 7.26 0 0 0 .95-.06 4.93 4.93 0 0 0 6.1 0 7.77 7.77 0 0 0 1 .06 6.09 6.09 0 0 0 6-5.88A6 6 0 0 0 16.18 9h-.13a1 1 0 0 1-1-1V3.41l-.53-.29L13 2.31zm.22 2.41l.41.18V8a3 3 0 0 0 3 3h.09a4 4 0 0 1 .5 7.94 5 5 0 0 0 .41-1.94 8.53 8.53 0 0 0-1.13-3.78 18.21 18.21 0 0 0-1.06-1.81l-1.63 1.18a10.57 10.57 0 0 1 .94 1.54 7.22 7.22 0 0 1 .88 2.87 3 3 0 0 1-.75 2h-.07a1.07 1.07 0 0 0-.28.28A3 3 0 0 1 9.05 17a5.09 5.09 0 0 1 .81-2.41l-1.63-1.18A6.57 6.57 0 0 0 7.05 17a5 5 0 0 0 .4 1.94A4.24 4.24 0 0 1 4 15.09V15a4.16 4.16 0 0 1 3.91-4H8a3.07 3.07 0 0 0 3.1-3V5h.84l.28-.22z"/><path fill="none" d="M0 0h24v24H0z"/></symbol><symbol viewBox="0 0 24 24" id="gas-cylinder"><path d="M16 9v11a2 2 0 0 1-2 2h-4a2 2 0 0 1-2-2V9c0-1.86 1.27-3.43 3-3.87V4H9V2h6v2h-2v1.13c1.73.44 3 2.01 3 3.87z"/></symbol><symbol viewBox="0 0 24 24" id="generator"><title>px_generator_24px</title><circle cx="12" cy="12" r="10"/><path d="M12.15 11.34h4.24v5.56a12.09 12.09 0 0 1-1.94.47 12.73 12.73 0 0 1-1.86.13 4.74 4.74 0 0 1-3.71-1.42A5.93 5.93 0 0 1 7.61 12a5.37 5.37 0 0 1 1.48-4 5.62 5.62 0 0 1 4.11-1.5 8 8 0 0 1 3.18.66L15.63 9a5.43 5.43 0 0 0-2.44-.58 3 3 0 0 0-2.36 1A3.85 3.85 0 0 0 9.94 12a4.27 4.27 0 0 0 .72 2.67 2.45 2.45 0 0 0 2.07.91 7.19 7.19 0 0 0 1.45-.14v-2.21h-2z" fill="#fff"/></symbol><symbol viewBox="0 0 24 24" id="generator_off"><title>px_generator_off_24px</title><path d="M1 3.54l2.78 2.78a10 10 0 0 0 13.9 13.9L20.46 23l1.27-1.27L2.27 2.27zm13.45 13.83a12.73 12.73 0 0 1-1.86.13 4.74 4.74 0 0 1-3.71-1.42A5.93 5.93 0 0 1 7.61 12a7.12 7.12 0 0 1 .19-1.65l2.2 2.16a4 4 0 0 0 .69 2.19 2.45 2.45 0 0 0 2.07.91h.33l1.71 1.71zM13.2 6.5a8 8 0 0 1 3.18.66L15.63 9a5.43 5.43 0 0 0-2.44-.58 3.17 3.17 0 0 0-1.77.49l2.46 2.46h2.51v2.51l3.83 3.83A10 10 0 0 0 6.32 3.78l3.55 3.55a6.23 6.23 0 0 1 3.33-.83z"/><path fill="none" d="M0 0h24v24H0z"/></symbol><symbol viewBox="0 0 24 24" id="glasses"><path d="M3 10c-.24 0-.45.09-.59.25-.14.15-.2.37-.17.61l.5 2.99C2.82 14.5 3.4 15 4 15h3c.64 0 1.36-.56 1.5-1.18l1.06-3.19c.04-.13.01-.32-.06-.44-.11-.12-.28-.19-.5-.19H3m4 7H4C2.38 17 .96 15.74.76 14.14l-.5-2.99C.15 10.3.39 9.5.91 8.92 1.43 8.34 2.19 8 3 8h6c.83 0 1.58.35 2.06.96.11.15.21.31.29.49.43-.09.87-.09 1.29 0 .08-.18.18-.34.3-.49C13.41 8.35 14.16 8 15 8h6c.81 0 1.57.34 2.09.92.51.58.75 1.38.65 2.19l-.51 3.07C23.04 15.74 21.61 17 20 17h-3c-1.56 0-3.08-1.19-3.46-2.7l-.9-2.71c-.38-.28-.91-.28-1.29 0l-.92 2.78C10.07 15.82 8.56 17 7 17m8-7c-.22 0-.39.07-.5.19-.08.12-.1.31-.05.51l1.01 3.05c.18.69.9 1.25 1.54 1.25h3c.59 0 1.18-.5 1.25-1.11l.51-3.07c.03-.2-.03-.42-.17-.57A.769.769 0 0 0 21 10h-6z"/></symbol><symbol viewBox="0 0 24 24" id="grade_a"><title>px_grade_a_24px</title><path fill="none" d="M0 0h24v24H0z"/><path d="M12 8.53c-.15.59-.58 2-1.29 4.33h2.61c-.67-2.15-1.05-3.37-1.13-3.66S12 8.7 12 8.53z"/><path d="M12 2a10 10 0 1 0 10 10A10 10 0 0 0 12 2zm2.55 15l-.73-2.38h-3.64L9.45 17H7.17L10.7 7h2.59l3.54 10z"/></symbol><symbol viewBox="0 0 24 24" id="grade_b"><title>px_grade_b_24px</title><path d="M12 12.59h-1.33v2.61h1.38a2 2 0 0 0 1.3-.34 1.24 1.24 0 0 0 .41-1c0-.86-.59-1.27-1.76-1.27zm1.15-1.94a1 1 0 0 0 .39-.89.88.88 0 0 0-.42-.82 2.68 2.68 0 0 0-1.33-.25h-1.12v2.22h1.23a2.33 2.33 0 0 0 1.25-.26z"/><path d="M12 2a10 10 0 1 0 10 10A10 10 0 0 0 12 2zm3 14.18a4.3 4.3 0 0 1-2.69.77H8.55V7h3.12a6 6 0 0 1 3.08.61 2.09 2.09 0 0 1 1 1.92 2.42 2.42 0 0 1-.46 1.47 1.62 1.62 0 0 1-1.12.69v.07a2.21 2.21 0 0 1 1.37.79 2.61 2.61 0 0 1 .46 1.5 2.53 2.53 0 0 1-1 2.13z"/></symbol><symbol viewBox="0 0 24 24" id="grade_c"><title>px_grade_c_24px</title><path d="M12 2a10 10 0 1 0 10 10A10 10 0 0 0 12 2zm.88 13.32a7.73 7.73 0 0 0 2.55-.53v1.78a7.09 7.09 0 0 1-2.75.51 4.19 4.19 0 0 1-3.33-1.32A5.61 5.61 0 0 1 8.19 12a6.23 6.23 0 0 1 .57-2.73 4.05 4.05 0 0 1 1.63-1.79 4.8 4.8 0 0 1 2.49-.63 6.73 6.73 0 0 1 2.93.7l-.69 1.73A10.67 10.67 0 0 0 14 8.77a3.44 3.44 0 0 0-1.12-.2 2.15 2.15 0 0 0-1.85.9 4.18 4.18 0 0 0-.66 2.53c0 2.21.84 3.32 2.51 3.32z"/></symbol><symbol viewBox="0 0 24 24" id="grade_d"><title>px_grade_d_24px</title><path d="M11.32 8.69H10.2v6.51h.9q3.08 0 3.07-3.29t-2.85-3.22z"/><path d="M12 2a10 10 0 1 0 10 10A10 10 0 0 0 12 2zm3 13.64A5.73 5.73 0 0 1 10.91 17H8.08V7h3.13A5.23 5.23 0 0 1 15 8.25a4.71 4.71 0 0 1 1.36 3.6A4.93 4.93 0 0 1 15 15.64z"/></symbol><symbol viewBox="0 0 24 24" id="grade_f"><title>px_grade_f_24px</title><path d="M12 2a10 10 0 1 0 10 10A10 10 0 0 0 12 2zm3.14 6.69H11.5v2.58h3.39V13H11.5v4H9.42V7h5.72z"/></symbol><symbol viewBox="0 0 24 24" id="grass"><title>grass</title><path d="M5 2c.82.82 5.61 2.88 6 18v2h3C14 2.12 7 2 5 2zm14 3a7 7 0 0 0-5.56 3 16.3 16.3 0 0 1 1.12 4c1.18-5.21 3.83-6.39 4.44-7zM2 9c.77.77 4.72 3.09 5 12v1h3c0-8.48-2.5-12.78-8-13zm20 0c-2 0-7 2.25-7 13h3c0-9 3.12-12.12 4-13z"/><path fill="none" d="M0 0h24v24H0z"/></symbol><symbol viewBox="0 0 24 24" id="health"><title>Health</title><path fill="none" opacity=".01" d="M0 0h24v24H0z"/><path d="M17.5 13.5h-4v4h-3v-4h-4v-3h4v-4h3v4h4zM12 2a10 10 0 1 0 10 10A10 10 0 0 0 12 2z"/></symbol><symbol viewBox="0 0 24 24" id="hockey_puck"><title>hockey_puck</title><path d="M12 5C6.5 5 2 6.6 2 8.5S6.5 12 12 12s10-1.6 10-3.5S17.5 5 12 5M2 11.8v4.7C2 18.4 6.5 20 12 20s10-1.6 10-3.5v-4.7a8.17 8.17 0 0 1-2.3 1.1A25.06 25.06 0 0 1 12 14a25.06 25.06 0 0 1-7.7-1.1A12.29 12.29 0 0 1 2 11.8z"/><path fill="none" d="M0 0h24v24H0z"/></symbol><symbol viewBox="0 0 24 24" id="hockey_sticks"><title>hockey_sticks</title><path d="M7.6 3L5.1 4.6l4 6.3 1.8-2.8L7.6 3m8.8 0L7.5 17H2v4h6.5L19 4.6 16.4 3M15 14.6l-1.8 2.8 2.3 3.6H22v-4h-5.5z"/><path fill="none" d="M0 0h24v24H0z"/></symbol><symbol viewBox="0 0 24 24" id="hops"><path d="M21 12s-8.5-2-8.5-10c0 0 8.5 0 8.5 10M3 12C3 2 11.5 2 11.5 2c0 8-8.5 10-8.5 10m9-5.5s1 2.16 3 4c-.24 3.66-3 5.5-3 5.5s-2.76-1.84-3-5.5c2-1.84 3-4 3-4m8.75 6.75S20 17 18 19c0 0-2.47-1.64-3.67-4.19.72-1.23 1.17-2.69 1.42-3.68 1.38 1.05 3 1.87 5 2.12m-5.25 5c-1 2-3.5 3.5-3.5 3.5s-2.5-1.5-3.5-3.5c0 0 1.09-.91 1.85-2.45.47.55 1.01.99 1.65 1.2.64-.21 1.18-.65 1.65-1.2.76 1.54 1.85 2.45 1.85 2.45m-12.25-5c2-.25 3.62-1.07 5-2.12.25.99.7 2.45 1.42 3.68C8.47 17.36 6 19 6 19c-2-2-2.75-5.75-2.75-5.75z"/></symbol><symbol viewBox="0 0 24 24" id="incident"><title>active_incident</title><path d="M0 0h24v24H0z" fill="none"/><path d="M3 12a6 6 0 0 1 4-5.65V4.26a8 8 0 0 0 0 15.48v-2.09A6 6 0 0 1 3 12z"/><path d="M15 4a8 8 0 1 0 8 8 8 8 0 0 0-8-8zm0 13a1 1 0 0 1-1-1h2a1 1 0 0 1-1 1zm4-2h-8v-1l1.33-1v-2.33A2.66 2.66 0 0 1 14 8.2V8a1 1 0 0 1 2 0v.2a2.66 2.66 0 0 1 1.67 2.47V13L19 14z"/></symbol><symbol viewBox="0 0 24 24" id="incident_active"><title>incident_active</title><path d="M0 0h24v24H0z" fill="none"/><path d="M3 12a6 6 0 0 1 4-5.65V4.26a8 8 0 0 0 0 15.48v-2.09A6 6 0 0 1 3 12z"/><path d="M15 4a8 8 0 1 0 8 8 8 8 0 0 0-8-8zm-2.77 2.79l.71.71a3.46 3.46 0 0 0-1.44 2.81h-1a4.49 4.49 0 0 1 1.73-3.52zM15 17a1 1 0 0 1-1-1h2a1 1 0 0 1-1 1zm4-2h-8v-1l1.33-1v-2.33A2.66 2.66 0 0 1 14 8.2V8a1 1 0 0 1 2 0v.2a2.66 2.66 0 0 1 1.67 2.47V13L19 14zm-.5-4.69a3.46 3.46 0 0 0-1.44-2.81l.71-.71a4.49 4.49 0 0 1 1.73 3.52z"/></symbol><symbol viewBox="0 0 24 24" id="incident_resolved"><title>resolved_incident</title><path d="M15 4a8 8 0 1 0 8 8 8 8 0 0 0-8-8zm0 14a6 6 0 1 1 6-6 6 6 0 0 1-6 6z"/><path d="M0 0h24v24H0z" fill="none"/><path d="M3 12a6 6 0 0 1 4-5.65V4.26a8 8 0 0 0 0 15.48v-2.09A6 6 0 0 1 3 12zm14.67 1v-2.33A2.66 2.66 0 0 0 16 8.2V8a1 1 0 0 0-2 0v.2a2.66 2.66 0 0 0-1.67 2.47V13L11 14v1h8v-1zM15 17a1 1 0 0 0 1-1h-2a1 1 0 0 0 1 1z"/></symbol><symbol viewBox="0 0 24 24" id="leaf"><title>px_leaf_24px</title><path d="M17 8C8 10 5.9 16.17 3.82 21.34l1.89.66 1-2.3A4.49 4.49 0 0 0 8 20C19 20 22 3 22 3c-1 2-8 2.25-13 3.25S2 11.5 2 13.5a6.22 6.22 0 0 0 1.75 3.75C7 8 17 8 17 8z"/><path fill="none" d="M0 0h24v24H0z"/></symbol><symbol viewBox="0 0 24 24" id="maintenance"><title>px_maintenance_24px</title><path fill="none" d="M0 0h24v24H0z"/><path d="M12 2a10 10 0 1 0 10 10A10 10 0 0 0 12 2zm5.75 14.59l-1.25 1.25a.54.54 0 0 1-.76 0l-5-4.95a3.54 3.54 0 0 1-4.4-4.83l2.39 2.33 1.63-1.63L8 6.43a3.6 3.6 0 0 1 4 .7 3.49 3.49 0 0 1 .82 3.75l4.94 4.95a.49.49 0 0 1-.01.76z"/></symbol><symbol viewBox="0 0 24 24" id="moisture"><title>px_moisture_24px</title><path fill="none" d="M0 0h24v24H0z"/><path d="M12 20.2a3 3 0 0 1-3-3c0-2 3-5.4 3-5.4s3 3.4 3 5.4a3 3 0 0 1-3 3zm-5-8a3 3 0 0 1-3-3c0-2 3-5.4 3-5.4s3 3.4 3 5.4a3 3 0 0 1-3 3zm10 0a3 3 0 0 1-3-3c0-2 3-5.4 3-5.4s3 3.4 3 5.4a3 3 0 0 1-3 3z"/></symbol><symbol viewBox="0 0 24 24" id="network_switch"><title>px_network_switch_24px</title><path d="M13 18h1a1 1 0 0 1 1 1h7v2h-7a1 1 0 0 1-1 1h-4a1 1 0 0 1-1-1H2v-2h7a1 1 0 0 1 1-1h1v-2H8a1 1 0 0 1-1-1V3a1 1 0 0 1 1-1h8a1 1 0 0 1 1 1v12a1 1 0 0 1-1 1h-3v2m0-12h1V4h-1v2M9 4v2h2V4H9m0 4v2h2V8H9m0 4v2h2v-2z"/><path fill="none" d="M0 0h24v24H0z"/></symbol><symbol viewBox="0 0 24 24" id="overlap"><title>px_overlap_24px</title><path d="M9 5a7 7 0 1 0 7 7 7 7 0 0 0-7-7zm0 12a5 5 0 1 1 5-5 5 5 0 0 1-5 5z"/><path d="M15 5a7 7 0 1 0 7 7 7 7 0 0 0-7-7zm0 12a5 5 0 1 1 5-5 5 5 0 0 1-5 5z"/><path fill="none" d="M0 0h24v24H0z"/></symbol><symbol viewBox="0 0 24 24" id="pdu"><title>px_pdu_24px</title><path d="M22 9H2a2 2 0 0 0-2 2v2a2 2 0 0 0 2 2h20a2 2 0 0 0 2-2v-2a2 2 0 0 0-2-2zM3 13H2v-2h1zm3 0H4v-2h2zm4 0H8v-2h2zm4 0h-2v-2h2zm4 0h-2v-2h2zm4 0h-2v-2h2z"/><path fill="none" d="M0 0h24v24H0z"/></symbol><symbol viewBox="0 0 24 24" id="pepper"><title>pepper</title><path d="M20 8.73a3 3 0 0 0-3-2.83 3.11 3.11 0 0 0-1.52.4 4.82 4.82 0 0 0-1.55-1 3 3 0 0 1 1.6-1.52L14.8 2A5 5 0 0 0 12 5a2.91 2.91 0 0 0-3 1.92 15.34 15.34 0 0 0-.41 3.57 23.33 23.33 0 0 0 1.05 5.62A10.39 10.39 0 0 1 7.56 11a12.36 12.36 0 0 1 .22-4.3 5.7 5.7 0 0 0-1.37 0A2.86 2.86 0 0 0 4 9.2c-.21 2.68 1.16 7.64 2 9.93C6.51 20.51 7.8 22 9 22c.87-.06 1.53 0 2-.95a3.73 3.73 0 0 0 3.37.95A4.69 4.69 0 0 0 18 19.13a25.1 25.1 0 0 0 2-10.4z"/></symbol><symbol viewBox="0 0 24 24" id="pickup_truck"><title>px_pickup_truck_24px</title><path d="M16 6h-5.5v4H1v5h2a3 3 0 0 0 6 0h6a3 3 0 0 0 6 0h2v-3a2 2 0 0 0-2-2h-2l-3-4m-4 1.5h3.5l2 2.5H12V7.5m-6 6A1.5 1.5 0 1 1 4.5 15 1.5 1.5 0 0 1 6 13.5m12 0a1.5 1.5 0 1 1-1.5 1.5 1.5 1.5 0 0 1 1.5-1.5z"/><path fill="none" d="M0 0h24v24H0z"/></symbol><symbol viewBox="0 0 24 24" id="pipe"><path d="M22 14h-2v2h-6v-3h2v-2h-2V6a2 2 0 0 0-2-2H4V2H2v8h2V8h6v3H8v2h2v5a2 2 0 0 0 2 2h8v2h2"/></symbol><symbol viewBox="0 0 24 24" id="pipe-disconnected"><path d="M16 9v2H8V9h2V8H4v2H2V2h2v2h8a2 2 0 0 1 2 2v3h2m-6 6v3a2 2 0 0 0 2 2h8v2h2v-8h-2v2h-6v-1h2v-2H8v2h2z"/></symbol><symbol viewBox="0 0 24 24" id="pipe-leak"><path d="M2 5v8h2v-2h6l2-2-2-2H4V5H2m18 0v2h-8l2 2-2 2h8v2h2V5h-2m-8 8s-2 2.17-2 3.5a2 2 0 0 0 2 2 2 2 0 0 0 2-2c0-1.33-2-3.5-2-3.5z"/></symbol><symbol viewBox="0 0 24 24" id="potato"><title>potato</title><path d="M15.36 2a5.81 5.81 0 0 0-3.06.87 23 23 0 0 0-4.69 4.5c-1.25 1.4-3.12 2.63-4.4 4.35a5.52 5.52 0 0 0-1.22 3 6.54 6.54 0 0 0 1.12 3.81A7.78 7.78 0 0 0 10.33 22a12.35 12.35 0 0 0 8.13-3.72A12.75 12.75 0 0 0 22 10.53a7.94 7.94 0 0 0-3.2-7.35A6.17 6.17 0 0 0 15.36 2zm0 1.93a4.14 4.14 0 0 1 2.31.88A5.93 5.93 0 0 1 20 10.4a10.84 10.84 0 0 1-3 6.47A10.39 10.39 0 0 1 10.24 20a5.78 5.78 0 0 1-5.44-2.5 4.42 4.42 0 0 1-.8-2.63 3.5 3.5 0 0 1 .81-1.94c1-1.3 2.83-2.57 4.31-4.21a23.74 23.74 0 0 1 4.25-4.13 3.74 3.74 0 0 1 1.96-.66zM17 8a1 1 0 1 0 0 2 1 1 0 0 0 0-2zm-2.5 2a.5.5 0 0 0-.5.5.5.5 0 0 0 .5.5.51.51 0 0 0 .5-.5.5.5 0 0 0-.51-.5zm-5 3a.5.5 0 0 0-.5.5.5.5 0 0 0 .5.5.51.51 0 0 0 .5-.5.5.5 0 0 0-.51-.5zm-2 2a.5.5 0 0 0-.5.5.5.5 0 0 0 .5.5.51.51 0 0 0 .5-.5.5.5 0 0 0-.51-.5zm2.5 1a1 1 0 0 0 0 2 1 1 0 1 0 0-2z"/><path fill="none" d="M0 0h24v24H0z"/></symbol><symbol viewBox="0 0 24 24" id="power_circled"><title>px_power_circled_24px</title><path d="M0 0h24v24H0z" fill="none"/><path d="M12.63 8.69h-1v3h.71a2.36 2.36 0 0 0 1.48-.39 1.36 1.36 0 0 0 .49-1.14 1.44 1.44 0 0 0-.41-1.12 2 2 0 0 0-1.27-.35z"/><path d="M12 2a10 10 0 1 0 10 10A10 10 0 0 0 12 2zm3.48 10.6a4.41 4.41 0 0 1-2.91.86h-.92v3.61H9.5V6.93h3.24a4.29 4.29 0 0 1 2.8.8 2.89 2.89 0 0 1 1 2.36 3.12 3.12 0 0 1-1.06 2.51z"/></symbol><symbol viewBox="0 0 24 24" id="power_circled_outline"><title>px_power_circled_outline_24px</title><path d="M0 0h24v24H0z" fill="none"/><path d="M14.54 7.73a4.29 4.29 0 0 0-2.8-.8H8.5v10.14h2.15v-3.61h.92a4.41 4.41 0 0 0 2.91-.86 3.12 3.12 0 0 0 1-2.51 2.89 2.89 0 0 0-.94-2.36zm-1.7 3.58a2.36 2.36 0 0 1-1.48.39h-.71v-3h1a2 2 0 0 1 1.29.36 1.44 1.44 0 0 1 .41 1.12 1.36 1.36 0 0 1-.51 1.13z"/><path d="M12 4a8 8 0 1 1-8 8 8 8 0 0 1 8-8m0-2a10 10 0 1 0 10 10A10 10 0 0 0 12 2z"/></symbol><symbol viewBox="0 0 24 24" id="priority"><path fill="none" d="M0 0h24v24H0z"/><path d="M19 3H5a2 2 0 0 0-2 2v14a2 2 0 0 0 2 2h14a2 2 0 0 0 2-2V5a2 2 0 0 0-2-2zm-6 10h-2V7h2zm0 4h-2v-2h2z"/></symbol><symbol viewBox="0 0 24 24" id="pump"><title>px_pump_24px</title><path fill="none" opacity=".01" d="M0 0h24v24H0z"/><path d="M18 12a6 6 0 0 0-5.74-6l3-3-1.43-1.39-6.11 6.11a6 6 0 0 0 4 10.23l-3 3 1.42 1.41 6.11-6.11A6 6 0 0 0 18 12zm-6 4a4 4 0 1 1 4-4 4 4 0 0 1-4 4z"/></symbol><symbol viewBox="0 0 24 24" id="push_notification"><title>px_push_notification_24px</title><path fill="none" d="M0 0h24v24H0z"/><g fill="currentColor"><circle cx="18" cy="6" r="3"/><path d="M17 10.9V19H5V7h8.1a5.47 5.47 0 0 1-.1-1 5.47 5.47 0 0 1 .1-1H5a2 2 0 0 0-2 2v12a2 2 0 0 0 2 2h12a2 2 0 0 0 2-2v-8.1a5.05 5.05 0 0 1-2 0z"/></g></symbol><symbol viewBox="0 0 24 24" id="push_notification_solid"><title>px_push_notification_solid_24px</title><path fill="none" d="M0 0h24v24H0z"/><g fill="currentColor"><circle cx="18" cy="6" r="3"/><path d="M13 6a5.47 5.47 0 0 1 .1-1H5a2 2 0 0 0-2 2v12a2 2 0 0 0 2 2h12a2 2 0 0 0 2-2v-8.1a5.47 5.47 0 0 1-1 .1 5 5 0 0 1-5-5z"/></g></symbol><symbol viewBox="0 0 24 24" id="pxblue"><title>pxblue_centered</title><circle cx="12" cy="12" r="4"/><path d="M21.5 12a9.22 9.22 0 0 0-3.14-6.36A8.71 8.71 0 0 1 20.5 12a8.28 8.28 0 0 1-2.84 5.66A8 8 0 1 1 9.39 4.45a3 3 0 1 0-.33-2 10 10 0 1 0 10 16.63A9.7 9.7 0 0 0 21.5 12zM12 2a1 1 0 1 1-1 1 1 1 0 0 1 1-1z"/></symbol><symbol viewBox="0 0 24 24" id="pxblue_small"><title>pxblue_small</title><circle cx="12" cy="12" r="2.5"/><path d="M20.09 10.39a8.07 8.07 0 0 0-2.43-4.05 7.9 7.9 0 0 1 1.94 4.15 7.62 7.62 0 0 1-.67 4.38 8 8 0 0 1-1.23 1.81A8.31 8.31 0 0 1 16 18a8.3 8.3 0 0 1-2 .79 8 8 0 0 1-2 .21A7 7 0 0 1 9.42 5.5a3 3 0 1 0-.37-2A9 9 0 0 0 12 21a9.84 9.84 0 0 0 2.58-.51 9.26 9.26 0 0 0 2.28-1.22 9.64 9.64 0 0 0 1.81-1.8 9.3 9.3 0 0 0 1.18-2.22 8.41 8.41 0 0 0 .24-4.86zM13 4a1 1 0 1 1-1-1 1 1 0 0 1 1 1z"/><path fill="none" d="M0 0h24v24H0z"/></symbol><symbol viewBox="0 0 24 24" id="pxblue_small_alt"><title>pxblue_small_alt</title><circle cx="12" cy="12" r="2.5"/><path d="M12 19A7 7 0 0 1 9.42 5.5a3 3 0 1 0-.37-2 9 9 0 1 0 9.31 14.85L17 17a7 7 0 0 1-5 2zm0-16a1 1 0 1 1-1 1 1 1 0 0 1 1-1z"/><path d="M20.5 12a8.28 8.28 0 0 0-2.84-5.66A7.73 7.73 0 0 1 19.5 12a7.23 7.23 0 0 1-2.5 5l1.41 1.41A8.72 8.72 0 0 0 20.5 12z"/><path fill="none" d="M0 0h24v24H0z"/></symbol><symbol viewBox="0 0 24 24" id="pxgreen"><title>pxgreen</title><path d="M12 23a11 11 0 1 1 11-11 11 11 0 0 1-11 11zm0-20a9 9 0 1 0 9 9 9 9 0 0 0-9-9z"/><path fill="none" d="M0 0h24v24H0z"/><path d="M17.58 7.83h-.72V6.68a.68.68 0 0 0-1.36 0v1.15h-1.43V6.68a.68.68 0 1 0-1.36 0v1.15h-1.43V6.68a.69.69 0 0 0-1.37 0v1.15H8.49V6.68a.69.69 0 0 0-1.37 0v1.15h-.7a.7.7 0 0 0-.7.7v7a.7.7 0 0 0 .7.7h.71v1.1a.69.69 0 0 0 1.37 0v-1.1h1.42v1.1a.69.69 0 0 0 1.37 0v-1.1h1.43v1.1a.68.68 0 0 0 1.36 0v-1.1h1.43v1.1a.68.68 0 1 0 1.36 0v-1.1h.71a.7.7 0 0 0 .7-.7v-7a.7.7 0 0 0-.7-.7z"/></symbol><symbol viewBox="0 0 24 24" id="pxred"><title>pxred</title><path d="M12 23a11 11 0 1 1 11-11 11 11 0 0 1-11 11zm0-20a9 9 0 1 0 9 9 9 9 0 0 0-9-9z"/><path fill="none" d="M0 0h24v24H0z"/><path d="M13 14h-2v-1H6v3a1 1 0 0 0 1 1h10a1 1 0 0 0 1-1v-3h-5zm4-6h-2V6a1 1 0 0 0-1-1h-4a1 1 0 0 0-1 1v2H7a1 1 0 0 0-1 1v3h5v-1h2v1h5V9a1 1 0 0 0-1-1zm-3 0h-4V7h4z"/></symbol><symbol viewBox="0 0 24 24" id="pxwhite"><title>pxwhite</title><path d="M12 23a11 11 0 1 1 11-11 11 11 0 0 1-11 11zm0-20a9 9 0 1 0 9 9 9 9 0 0 0-9-9z"/><path fill="none" d="M0 0h24v24H0z"/><path d="M16.71 11a2 2 0 0 0 .29-1 2 2 0 0 0-2-2 2 2 0 0 0-1.6.82A4 4 0 0 0 11 8a4 4 0 0 0-4 4 2 2 0 0 0 0 4h9.5a2.49 2.49 0 0 0 .21-5z"/></symbol><symbol viewBox="0 0 24 24" id="qrcode"><title>px_qrcode_24px</title><path d="M3 11h2v2H3v-2m8-6h2v4h-2V5m-2 6h4v4h-2v-2H9v-2m6 0h2v2h2v-2h2v2h-2v2h2v4h-2v2h-2v-2h-4v2h-2v-4h4v-2h2v-2h-2v-2m4 8v-4h-2v4h2M15 3h6v6h-6V3m2 2v2h2V5h-2M3 3h6v6H3V3m2 2v2h2V5H5M3 15h6v6H3v-6m2 2v2h2v-2z"/><path fill="none" d="M0 0h24v24H0z"/></symbol><symbol viewBox="0 0 24 24" id="radio_handheld"><path d="M9 2c-.55 0-1 .45-1 1v17c0 1.11.89 2 2 2h5c1.11 0 2-.89 2-2V9c0-1.11-.89-2-2-2h-5V3c0-.55-.45-1-1-1m1 7h5v4h-5V9z"/><path fill="none" d="M0 0h24v24H0z"/></symbol><symbol viewBox="0 0 24 24" id="road"><path d="M11 16h2v4h-2m0-10h2v4h-2m0-10h2v4h-2M4 22h16V2H4v20z"/></symbol><symbol viewBox="0 0 24 24" id="road-variant"><path d="M18.1 4.8c-.1-.5-.5-.8-1-.8H13l.2 3h-2.4l.2-3H6.8c-.5 0-.9.4-1 .8l-2.7 14c-.1.6.4 1.2 1 1.2H10l.3-5h3.4l.3 5h5.8c.6 0 1.1-.6 1-1.2l-2.7-14M10.4 13l.2-4h2.6l.2 4h-3z"/></symbol><symbol viewBox="0 0 24 24" id="running_high"><title>px_running_high_24px</title><path fill="none" d="M0 0h24v24H0z"/><path d="M12 6v3l4-4-4-4v3a8 8 0 0 0-8 8 8.92 8.92 0 0 0 1.2 4.3l1.5-1.5A5.28 5.28 0 0 1 6 12a6 6 0 0 1 6-6zm6.8 1.7l-1.5 1.5A6.51 6.51 0 0 1 18 12a6 6 0 0 1-6 6v-3l-4 4 4 4v-3a8 8 0 0 0 8-8 8.92 8.92 0 0 0-1.2-4.3z"/><path d="M15 15V9h-2v2h-2V9H9v6h2v-2h2v2h2z"/></symbol><symbol viewBox="0 0 24 24" id="running_low"><title>px_running_low_24px</title><path fill="none" d="M0 0h24v24H0z"/><path d="M12 1v3a8 8 0 0 0-8 8 8.92 8.92 0 0 0 1.2 4.3l1.5-1.5A5.28 5.28 0 0 1 6 12a6 6 0 0 1 6-6v3l4-4zm6.8 6.7l-1.5 1.5A6.51 6.51 0 0 1 18 12a6 6 0 0 1-6 6v-3l-4 4 4 4v-3a8 8 0 0 0 8-8 8.92 8.92 0 0 0-1.2-4.3z"/><path d="M15 13h-3V9h-2v6h5v-2z"/></symbol><symbol viewBox="0 0 24 24" id="satellite-uplink"><path d="M11.86 2l-.52 1.93c4.41.85 7.86 4.3 8.71 8.72l1.95-.52C20.95 7.03 16.96 3.04 11.86 2m-1.04 3.86l-.52 1.95c3.04.46 5.42 2.84 5.88 5.87l1.94-.52c-.66-3.72-3.57-6.66-7.3-7.3m-7.1 3.83A7.96 7.96 0 0 0 5 18.28V22h3v-1.59c.95.39 1.97.59 3 .59 1.14 0 2.27-.25 3.3-.72L3.72 9.69m6.07.07l-.53 1.96a3 3 0 0 1 3 3l1.97-.52c-.23-2.34-2.1-4.2-4.44-4.44z"/></symbol><symbol viewBox="0 0 24 24" id="scan_qrcode"><title>px_scan_qrcode_24px</title><path d="M4 4h6v6H4V4m16 0v6h-6V4h6m-6 11h2v-2h-2v-2h2v2h2v-2h2v2h-2v2h2v3h-2v2h-2v-2h-3v2h-2v-4h3v-1m2 0v3h2v-3h-2M4 20v-6h6v6H4M6 6v2h2V6H6m10 0v2h2V6h-2M6 16v2h2v-2H6m-2-5h2v2H4v-2m5 0h4v4h-2v-2H9v-2m2-5h2v4h-2V6M2 2v4H0V2a2 2 0 0 1 2-2h4v2H2m20-2a2 2 0 0 1 2 2v4h-2V2h-4V0h4M2 18v4h4v2H2a2 2 0 0 1-2-2v-4h2m20 4v-4h2v4a2 2 0 0 1-2 2h-4v-2z"/></symbol><symbol viewBox="0 0 24 24" id="server"><title>px_server_24px</title><path d="M20 8H4a2 2 0 0 0-2 2v4a2 2 0 0 0 2 2h16a2 2 0 0 0 2-2v-4a2 2 0 0 0-2-2zM6 13H4v-2h2zm3 0H8v-2h1z"/><path fill="none" d="M0 0h24v24H0z"/></symbol><symbol viewBox="0 0 24 24" id="servers"><title>px_servers_24px</title><path d="M4 1h16a1 1 0 0 1 1 1v4a1 1 0 0 1-1 1H4a1 1 0 0 1-1-1V2a1 1 0 0 1 1-1m0 8h16a1 1 0 0 1 1 1v4a1 1 0 0 1-1 1H4a1 1 0 0 1-1-1v-4a1 1 0 0 1 1-1m0 8h16a1 1 0 0 1 1 1v4a1 1 0 0 1-1 1H4a1 1 0 0 1-1-1v-4a1 1 0 0 1 1-1M9 5h1V3H9v2m0 8h1v-2H9v2m0 8h1v-2H9v2M5 3v2h2V3H5m0 8v2h2v-2H5m0 8v2h2v-2z"/><path fill="none" d="M0 0h24v24H0z"/></symbol><symbol viewBox="0 0 24 24" id="sign-caution"><path d="M2 3h20v10h-4v8h-2v-8H8v8H6v-8H2V3m16.97 8L20 9.97V7.15L16.15 11h2.82m-5.65 0l6-6H16.5l-6 6h2.82m-5.66 0l6-6h-2.83l-6 6h2.83M5.18 5L4 6.18V9l4-4H5.18z"/></symbol><symbol viewBox="0 0 24 24" id="silo"><path d="M8.5 2a6.5 6.5 0 0 1 6.46 5.78L22 12v2l-2-1.2V22h-2V11.6l-3-1.8V22h-2V9H4v13H2V8.5A6.5 6.5 0 0 1 8.5 2m0 2C6.54 4 4.87 5.25 4.26 7h8.48c-.61-1.75-2.28-3-4.24-3M6 11h5v2H6v-2m0 4h5v2H6v-2m0 4h5v2H6v-2z"/></symbol><symbol viewBox="0 0 24 24" id="soybean"><path data-name="Path 1157" d="M0 0h24v24H0z" fill="none"/><path data-name="Path 1326" d="M20 2c-.789 1.918-2.668 2.668-4 4a7.658 7.658 0 0 0-2 4 6.533 6.533 0 0 0-6 4.969A6.3 6.3 0 0 0 4 17a8.34 8.34 0 0 0-2 3.969c1.313 1.313 6.719 1.438 9 0A2.386 2.386 0 0 0 12 20a7.273 7.273 0 0 0 7-7 4.72 4.72 0 0 0 2.461-2.563C22.52 8.336 21.813 3.813 20 2zM8.008 19.9c-1.227.484-2.426.238-2.684-.555s.523-1.824 1.746-2.309 2.426-.234 2.684.555-.524 1.827-1.746 2.309zm6.562-3.47a2.328 2.328 0 0 1-3.266-.187 2.332 2.332 0 0 1 .734-3.187 2.328 2.328 0 0 1 3.266.191 2.324 2.324 0 0 1-.734 3.183zm5.312-7.277c-.523 1.207-1.547 1.879-2.289 1.5S16.676 9 17.2 7.789s1.547-1.883 2.289-1.5.911 1.656.394 2.863z"/></symbol><symbol viewBox="0 0 24 24" id="sports_car"><path d="M12 8.5H7L4 11H3c-1.11 0-2 .89-2 2v3h2.17c.43 1.2 1.56 2 2.83 2s2.4-.8 2.82-2h6.35c.43 1.2 1.56 2 2.83 2s2.4-.8 2.82-2H23v-1c0-1.11-1.03-1.47-2-2l-9-4.5M5.25 12l2.25-2h4l4 2H5.25M6 13.5c.83 0 1.5.67 1.5 1.5s-.67 1.5-1.5 1.5-1.5-.67-1.5-1.5.67-1.5 1.5-1.5m12 0c.83 0 1.5.67 1.5 1.5s-.67 1.5-1.5 1.5-1.5-.67-1.5-1.5.67-1.5 1.5-1.5z"/><path fill="none" d="M0 0h24v24H0z"/></symbol><symbol viewBox="0 0 24 24" id="ssol"><title>px_ssol_24px</title><path fill="none" opacity=".01" d="M0 0h24v24H0z"/><path d="M14 10.54c-.68 0-1 .48-1 1.46s.34 1.45 1 1.45a.87.87 0 0 0 .76-.35A1.92 1.92 0 0 0 15 12a1.94 1.94 0 0 0-.25-1.11.85.85 0 0 0-.75-.35z"/><path d="M20.27 6H3.73A1.74 1.74 0 0 0 2 7.73v8.54A1.74 1.74 0 0 0 3.73 18h16.54A1.74 1.74 0 0 0 22 16.27V7.73A1.74 1.74 0 0 0 20.27 6zm-15 5.1a5.38 5.38 0 0 0 .82.42 2.31 2.31 0 0 1 .9.63 1.33 1.33 0 0 1 .25.84 1.51 1.51 0 0 1-.23.82 1.57 1.57 0 0 1-.68.56 2.46 2.46 0 0 1-1.05.2 3.89 3.89 0 0 1-.83-.07 3.13 3.13 0 0 1-.71-.24v-1.21a3.47 3.47 0 0 0 .81.31 2.68 2.68 0 0 0 .76.11.73.73 0 0 0 .44-.1.31.31 0 0 0 .14-.27.35.35 0 0 0 0-.18.63.63 0 0 0-.19-.15 7 7 0 0 0-.7-.32 3.41 3.41 0 0 1-.75-.45 1.3 1.3 0 0 1-.37-.48 1.79 1.79 0 0 1-.11-.64 1.28 1.28 0 0 1 .5-1.08 2.18 2.18 0 0 1 1.38-.39 3.85 3.85 0 0 1 1.58.36l-.41 1.05a2.94 2.94 0 0 0-1.21-.33.62.62 0 0 0-.38.1.27.27 0 0 0-.12.23.34.34 0 0 0 .15.28zm3.9 0a5.38 5.38 0 0 0 .82.42 2.31 2.31 0 0 1 .9.63 1.33 1.33 0 0 1 .25.84 1.51 1.51 0 0 1-.23.82 1.57 1.57 0 0 1-.68.56 2.46 2.46 0 0 1-1.05.2 3.89 3.89 0 0 1-.83-.07 3.13 3.13 0 0 1-.71-.24v-1.21a3.47 3.47 0 0 0 .81.31 2.68 2.68 0 0 0 .76.11.73.73 0 0 0 .44-.1.31.31 0 0 0 .14-.27.35.35 0 0 0 0-.18.63.63 0 0 0-.19-.15 7 7 0 0 0-.66-.32 3.41 3.41 0 0 1-.79-.45 1.3 1.3 0 0 1-.37-.48 1.79 1.79 0 0 1-.11-.64 1.28 1.28 0 0 1 .5-1.08 2.18 2.18 0 0 1 1.38-.39 3.85 3.85 0 0 1 1.58.36l-.41 1.05a2.94 2.94 0 0 0-1.21-.33.62.62 0 0 0-.38.1.27.27 0 0 0-.12.23.34.34 0 0 0 .15.28zm6.66 2.82a2.38 2.38 0 0 1-1.81.65 2.37 2.37 0 0 1-1.8-.66 2.68 2.68 0 0 1-.64-1.91 2.67 2.67 0 0 1 .62-1.9 2.39 2.39 0 0 1 1.8-.67 2.4 2.4 0 0 1 1.81.65 2.72 2.72 0 0 1 .63 1.92 2.72 2.72 0 0 1-.62 1.92zm4.45.58H17v-5h1.35v3.9h1.93z"/></symbol><symbol viewBox="0 0 24 24" id="stopped"><title>px_stop_24px</title><path d="M21.41 7.27l-4.68-4.68A2 2 0 0 0 15.31 2H8.69a2 2 0 0 0-1.42.59L2.59 7.27A2 2 0 0 0 2 8.69v6.62a2 2 0 0 0 .59 1.42l4.68 4.68a2 2 0 0 0 1.42.59h6.62a2 2 0 0 0 1.42-.59l4.68-4.68a2 2 0 0 0 .59-1.42V8.69a2 2 0 0 0-.59-1.42zm-1.41 8L15.31 20H8.69L4 15.31V8.69L8.69 4h6.62L20 8.69z"/><path d="M9.52 6L6 9.52v4.96L9.52 18h4.96L18 14.48V9.52L14.48 6H9.52z"/><path fill="none" d="M0 0h24v24H0z"/></symbol><symbol viewBox="0 0 24 24" id="stopping"><path d="M6.1 13h-2c.2 1.5.8 2.8 1.6 3.9l1.4-1.4c-.5-.7-.9-1.6-1-2.5zm1-4.5L5.7 7.1C4.8 8.2 4.3 9.5 4.1 11h2c.1-.9.5-1.7 1-2.5zm11.2-1.4l-1.4 1.4c.7 1 1.1 2.2 1.1 3.5 0 3.3-2.7 6-6 6-1.3 0-2.5-.4-3.5-1.1l-1.4 1.4C8.5 19.4 10.2 20 12 20c4.4 0 8-3.6 8-8 0-1.8-.6-3.5-1.7-4.9zm-7.3-1V10l4.5-4.5L11 1v3.1c-1.5.2-2.8.7-3.9 1.6l1.4 1.4c.8-.5 1.6-.9 2.5-1z"/><path fill="none" d="M0 0h24v24H0z"/></symbol><symbol viewBox="0 0 24 24" id="studioblue"><title>studioblue</title><path d="M12 2a10 10 0 1 0 10 10A10 10 0 0 0 12 2zm2.58 11.91l-9.94 4.77 6.57-6-1.76-2.54 9.92-4.81-6.53 6z"/><path fill="none" d="M0 0h24v24H0z"/></symbol><symbol viewBox="0 0 24 24" id="studioblue_outline"><title>studioblue_outline</title><path d="M14.28 13.69L5.51 17.9l5.79-5.31-1.55-2.23 8.76-4.25-5.77 5.33z"/><path fill="none" d="M0 0h24v24H0z"/><path d="M12 23a11 11 0 1 1 11-11 11 11 0 0 1-11 11zm0-20a9 9 0 1 0 9 9 9 9 0 0 0-9-9z"/></symbol><symbol viewBox="0 0 24 24" id="sunflower"><title>sunflower</title><path d="M13.5 2l-2 2h-2v2l-2 2 2.06 2.12L9.5 12h2l2 2 2-2h2v-2l2-2-2-2V4h-2zm0 3.5A2.5 2.5 0 1 1 11 8a2.47 2.47 0 0 1 2.45-2.5zM2.5 13c.21 1.21 1.27 7 5 7a4.39 4.39 0 0 0 2.56-.75 1.22 1.22 0 0 1 .22.44A9 9 0 0 1 10.5 22h2v-1a2.69 2.69 0 0 1 1.75-2.16A2.89 2.89 0 0 0 16.5 20c2.9 0 5-5.08 5-6h-5c-1.77 0-3 .72-3 2.56A6.29 6.29 0 0 1 17 16a10.65 10.65 0 0 0-2.09.44l-.19.06-.28.1a6.33 6.33 0 0 0-.94.37 6.58 6.58 0 0 0-1.75 1.16C10.52 15.7 8.06 15.4 6.5 15c1.61 0 4 .67 5 2a3.86 3.86 0 0 0-3.72-4H2.5z"/><path fill="none" d="M0 0h24v24H0z"/></symbol><symbol viewBox="0 0 24 24" id="support"><title>support</title><path fill="none" d="M0 0h24v24H0z"/><path d="M12 2a8 8 0 0 0-8 8v1.9A2.92 2.92 0 0 0 3 14a2.88 2.88 0 0 0 1.94 2.61C6.24 19.72 8.85 22 12 22h3v-2h-3c-2.26 0-4.31-1.7-5.34-4.39l-.21-.55-.59-.06A1 1 0 0 1 5 14a1 1 0 0 1 .5-.86l.5-.29V11a1 1 0 0 1 1-1h10a1 1 0 0 1 1 1v5h-4.09a1.5 1.5 0 1 0-1.52 2H20a2 2 0 0 0 2-2v-2a2 2 0 0 0-2-2v-2a8 8 0 0 0-8-8z"/></symbol><symbol viewBox="0 0 24 24" id="switch"><title>px_tripped_24px</title><path fill="none" d="M0 0h24v24H0z"/><path d="M17 14v2h6v-2zM1 16h6v-2H1z"/><path d="M5.514 14.583l7.071-7.071L14 8.926l-7.071 7.07z"/><path d="M11.88 6.81l-7.07 7.07L3 16h3.93L14 8.93l-2.12-2.12z"/></symbol><symbol viewBox="0 0 24 24" id="temp"><title>temp</title><path d="M17 17a5 5 0 1 1-8-4V5a3 3 0 0 1 6 0v8a5 5 0 0 1 2 4m-6-9v6.17a3 3 0 1 0 2 0V8h-2"/><path fill="none" d="M0 0h24v24H0z"/></symbol><symbol viewBox="0 0 24 24" id="tennis"><title>tennis</title><path d="M12 2a9.81 9.81 0 0 1 6.5 2.4A10.13 10.13 0 0 0 15 12a10.13 10.13 0 0 0 3.5 7.6A10 10 0 0 1 12 22a9.81 9.81 0 0 1-6.5-2.4A10.13 10.13 0 0 0 9 12a10.13 10.13 0 0 0-3.5-7.6A9.81 9.81 0 0 1 12 2m10 10a9.79 9.79 0 0 1-2.1 6.1A7.64 7.64 0 0 1 17 12a8 8 0 0 1 2.9-6.2A10.52 10.52 0 0 1 22 12M2 12a10.52 10.52 0 0 1 2.1-6.2A8 8 0 0 1 7 12a7.64 7.64 0 0 1-2.9 6.1A9.79 9.79 0 0 1 2 12z"/><path fill="none" d="M0 0h24v24H0z"/></symbol><symbol viewBox="0 0 24 24" id="toggle_off"><path d="M17 7H7a5 5 0 0 0 0 10h10a5 5 0 0 0 0-10zM7 15a3 3 0 1 1 3-3 3 3 0 0 1-3 3z"/><path d="M0 0h24v24H0z" fill="none"/></symbol><symbol viewBox="0 0 24 24" id="toggle_off_outlined"><path d="M7 10a2 2 0 1 1-2 2 2 2 0 0 1 2-2m10-3a5 5 0 0 1 0 10H7A5 5 0 1 1 7 7h10M7 9a3 3 0 0 0 0 6h10a3 3 0 0 0 0-6z"/><path fill="none" d="M0 0h24v24H0z"/></symbol><symbol viewBox="0 0 24 24" id="toggle_on"><path d="M17 7H7a5 5 0 0 0 0 10h10a5 5 0 0 0 0-10zm0 8a3 3 0 1 1 3-3 3 3 0 0 1-3 3z"/><path d="M0 0h24v24H0z" fill="none"/></symbol><symbol viewBox="0 0 24 24" id="toggle_on_outlined"><path d="M17 10a2 2 0 1 1-2 2 2 2 0 0 1 2-2m0-3a5 5 0 0 1 0 10H7A5 5 0 1 1 7 7h10M7 9a3 3 0 0 0 0 6h10a3 3 0 0 0 0-6z"/><path fill="none" d="M0 0h24v24H0z"/></symbol><symbol viewBox="0 0 24 24" id="tomato"><title>tomato</title><path d="M13 2a11.32 11.32 0 0 0-1 2c-.12.33-.22.66-.31 1-.62-1.74-3.5-1.46-4.69-2 0 3.38 3.52 2.21 4.25 2.72C8.42 5.48 7.39 7.39 6 8c3.1 1.57 5 .06 5.72-1.84-.11.74-.65 4.92 2.28 4.84a8.14 8.14 0 0 0-1.31-4.91h.06C14 7.59 15.94 9.3 18 8a7.19 7.19 0 0 0-3.75-2.06C15.84 6 16.91 6.13 18 4a8.42 8.42 0 0 0-4.69 1c.47-.8 1.18-2 1.69-3zM7 5c-3.91.89-5 4.23-5 8 0 5 4.47 9 10 9 4.89 0 10-2.84 10-10 0-3-1.17-6-4-7a1.88 1.88 0 0 1-1 1c.54.19 1.42 1.39 2 2-.31.81-1.8 1.52-4.34 1a9.86 9.86 0 0 1 0 3 4.07 4.07 0 0 1-4-3C8.25 10.5 4.93 8.68 5 8c.88-.61 2-1.83 3-2a2.82 2.82 0 0 1-1-1z"/><path fill="none" d="M0 0h24v24H0z"/></symbol><symbol viewBox="0 0 24 24" id="tractor"><path d="M5 4v7.26c-1.8.64-3 2.34-3 4.24C2 18 4 20 6.5 20c2.29 0 4.21-1.72 4.47-4h4.2c-.11.32-.17.66-.17 1 0 1.66 1.34 3 3 3s3-1.34 3-3c0-.34-.06-.68-.18-1H22v-3c0-1.11-.89-2-2-2h-4.96l-1.39-7H5m2 2h5l1 5v3h-2.26A4.53 4.53 0 0 0 7 11.03V6m-.5 7.25c1.24 0 2.25 1.01 2.25 2.25s-1.01 2.25-2.25 2.25-2.25-1.01-2.25-2.25 1.01-2.25 2.25-2.25M18 15.5c.83 0 1.5.67 1.5 1.5s-.67 1.5-1.5 1.5-1.5-.67-1.5-1.5.67-1.5 1.5-1.5z"/><path fill="none" d="M0 0h24v24H0z"/></symbol><symbol viewBox="0 0 24 24" id="traffic-light"><path d="M12 9a2 2 0 0 1-2-2 2 2 0 0 1 2-2c1.11 0 2 .89 2 2a2 2 0 0 1-2 2m0 5a2 2 0 0 1-2-2 2 2 0 0 1 2-2c1.11 0 2 .89 2 2a2 2 0 0 1-2 2m0 5a2 2 0 0 1-2-2 2 2 0 0 1 2-2c1.11 0 2 .89 2 2a2 2 0 0 1-2 2m8-9h-3V8.86c1.72-.45 3-2 3-3.86h-3V4a1 1 0 0 0-1-1H8a1 1 0 0 0-1 1v1H4c0 1.86 1.28 3.41 3 3.86V10H4c0 1.86 1.28 3.41 3 3.86V15H4c0 1.86 1.28 3.41 3 3.86V20a1 1 0 0 0 1 1h8a1 1 0 0 0 1-1v-1.14c1.72-.45 3-2 3-3.86h-3v-1.14c1.72-.45 3-2 3-3.86z"/></symbol><symbol viewBox="0 0 24 24" id="tree"><path d="M11 21v-4.3c-.5.2-1 .3-1.5.3C7 17 5 15 5 12.5c0-1.3.5-2.4 1.4-3.2-.3-.6-.4-1.2-.4-1.8C6 5 8 3 10.5 3c1.6 0 2.9.8 3.8 2h.2c3 0 5.5 2.5 5.5 5.5S17.5 16 14.5 16c-.5 0-1-.1-1.5-.2V21h-2z"/><path fill="none" d="M0 0h24v24H0z"/></symbol><symbol viewBox="0 0 24 24" id="trending_down"><path fill="none" d="M0 24h24V0H0z"/><path d="M14.5 20l2.04-2.04L4 5.41 5.41 4l12.55 12.54L20 14.5V20z"/></symbol><symbol viewBox="0 0 24 24" id="trending_flat"><title>px_trending_flat_24px</title><path d="M0 0h24v24H0z" fill="none"/><path d="M22 12l-4-4v3H3v2h15v3z"/></symbol><symbol viewBox="0 0 24 24" id="trending_up"><path fill="none" d="M0 0h24v24H0z"/><path d="M14.5 4l2.04 2.04L4 18.59 5.41 20 17.96 7.46 20 9.5V4z"/></symbol><symbol viewBox="0 0 24 24" id="utility"><path d="M20.93 20.63l-4-10L15.94 8H18v2h2V6h-4.81l-1.5-4h-3.38l-1.5 4H4v4h2V8h2.06l-1 2.63-4 10 1.48 1.2 7.45-5 7.45 5zM8.68 12h6.64l.08.2-3.4 2.26-3.4-2.26zm3-8h.62l.75 2h-2.11zm2.12 4l.75 2H9.44l.75-2zM6.12 18.38l1.72-4.29 2.36 1.58zm7.68-2.71l2.36-1.58 1.72 4.29z" fill="currentColor"/><path fill="none" d="M0 0h24v24H0z"/></symbol><symbol viewBox="0 0 24 24" id="utility_van"><path d="M3 7c-1.11 0-2 .89-2 2v8h2c0 1.66 1.34 3 3 3s3-1.34 3-3h6c0 1.66 1.34 3 3 3s3-1.34 3-3h2v-4c0-1.11-.89-2-2-2l-3-4H3m12 1.5h2.5l1.96 2.5H15V8.5m-9 7c.83 0 1.5.67 1.5 1.5s-.67 1.5-1.5 1.5-1.5-.67-1.5-1.5.67-1.5 1.5-1.5m12 0c.83 0 1.5.67 1.5 1.5s-.67 1.5-1.5 1.5-1.5-.67-1.5-1.5.67-1.5 1.5-1.5z"/><path fill="none" d="M0 0h24v24H0z"/></symbol><symbol viewBox="0 0 24 24" id="vfd"><title>px_vfd_24px</title><path d="M16.81 10.39h-.45v3.2h.34a1.24 1.24 0 0 0 1-.41 2 2 0 0 0 .33-1.25 1.79 1.79 0 0 0-.31-1.16 1.16 1.16 0 0 0-.91-.38z"/><path d="M20.27 6H3.73A1.74 1.74 0 0 0 2 7.73v8.54A1.74 1.74 0 0 0 3.73 18h16.54A1.74 1.74 0 0 0 22 16.27V7.73A1.74 1.74 0 0 0 20.27 6zM8 14.86H6.2L4.34 9.14h1.73L6.85 12a8.09 8.09 0 0 1 .26 1.34c0-.18.06-.41.11-.68s.11-.49.15-.65l.79-2.91h1.73zm5.86-4.48H12v1.09h1.71v1.24H12v2.15h-1.5V9.14h3.38zm5 3.7a3 3 0 0 1-2.22.78h-1.82V9.14h2a3 3 0 0 1 2.13.71 2.67 2.67 0 0 1 .74 2 3 3 0 0 1-.81 2.23z"/><path fill="none" opacity=".01" d="M0 0h24v24H0z"/></symbol><symbol viewBox="0 0 24 24" id="vmms"><title>px_vmms_24px</title><path d="M6 5v14H4V5h2m0-2H4a2 2 0 0 0-2 2v14a2 2 0 0 0 2 2h2a2 2 0 0 0 2-2V5a2 2 0 0 0-2-2zm14 2v14h-2V5h2m0-2h-2a2 2 0 0 0-2 2v14a2 2 0 0 0 2 2h2a2 2 0 0 0 2-2V5a2 2 0 0 0-2-2zm-7 2v14h-2V5h2m0-2h-2a2 2 0 0 0-2 2v14a2 2 0 0 0 2 2h2a2 2 0 0 0 2-2V5a2 2 0 0 0-2-2z"/><rect x="2" y="7" width="6" height="14" rx="2" ry="2"/><path fill="none" d="M0 0h24v24H0z"/></symbol><symbol viewBox="0 0 24 24" id="voltage"><title>px_voltage_24px</title><path d="M9 11H2v2h7v-2zm10.5-2.5h-2V11H15v2h2.5v2.5h2V13H22v-2h-2.5V8.5z"/><path d="M9 11H2v2h7v-2zm10.5-2.5h-2V11H15v2h2.5v2.5h2V13H22v-2h-2.5V8.5z"/><path d="M0 0h24v24H0z" fill="none"/></symbol><symbol viewBox="0 0 24 24" id="voltage_circled"><title>px_voltage_circled_24px</title><path d="M0 0h24v24H0z" fill="none"/><path d="M12 2a10 10 0 1 0 10 10A10 10 0 0 0 12 2zm-1 11H4v-2h7zm6.5 0v2.5h-2V13H13v-2h2.5V8.5h2V11H20v2z"/></symbol><symbol viewBox="0 0 24 24" id="voltage_circled_outline"><title>px_voltage_circled_outline_24px</title><path d="M12 4a8 8 0 1 1-8 8 8 8 0 0 1 8-8m0-2a10 10 0 1 0 10 10A10 10 0 0 0 12 2z"/><path d="M11 11H6v2h5v-2zm7 0h-5v2h5v-2z"/><path d="M16.5 9.5h-2v5h2v-5z"/><path d="M0 0h24v24H0z" fill="none"/></symbol><symbol viewBox="0 0 24 24" id="water"><path d="M12 20a6 6 0 0 1-6-6c0-4 6-10.8 6-10.8S18 10 18 14a6 6 0 0 1-6 6z"/><path fill="none" d="M0 0h24v24H0z"/></symbol><symbol viewBox="0 0 24 24" id="water_outline"><title>px_water_outline_24px</title><path d="M12 6.36c2 2.58 4 5.87 4 7.64a4 4 0 0 1-8 0c0-1.77 2-5.06 4-7.64m0-3.16S6 10 6 14a6 6 0 0 0 12 0c0-4-6-10.8-6-10.8z"/><path fill="none" d="M0 0h24v24H0z"/></symbol><symbol viewBox="0 0 24 24" id="waveform"><title>px_waveform_24px</title><path fill="none" d="M0 0h24v24H0z"/><path d="M20.84 16.35a1 1 0 0 1-1-.75l-1.39-5.54a.49.49 0 0 0-1 0l-1.09 4.36a2.5 2.5 0 0 1-4.86 0l-1.09-4.36a.49.49 0 0 0-1 0l-.98 4.36a2.5 2.5 0 0 1-4.86 0L2.15 8.74a1 1 0 0 1 1.95-.48l1.42 5.68a.49.49 0 0 0 1 0l1.05-4.36a2.5 2.5 0 0 1 4.86 0l1.09 4.36a.49.49 0 0 0 1 0l1.09-4.36a2.5 2.5 0 0 1 4.86 0l1.38 5.53a1 1 0 0 1-1 1.24z" fill="currentColor"/></symbol><symbol viewBox="0 0 24 24" id="wheat"><title>wheat</title><path d="M15.86 2.14s-3 3.09-3 5a17.17 17.17 0 0 0-2-2 21.32 21.32 0 0 0-1 5 17.17 17.17 0 0 0-2-2 21.32 21.32 0 0 0-1 5 17.17 17.17 0 0 0-2-2 21.32 21.32 0 0 0-1 5c0 1 .31 1.54.78 1.78l-2.5 2.5 1.44 1.44 2.5-2.5c.24.47.76.78 1.78.78a21.32 21.32 0 0 0 5-1 17.17 17.17 0 0 0-2-2 21.32 21.32 0 0 0 5-1 17.17 17.17 0 0 0-2-2 21.32 21.32 0 0 0 5-1 17.17 17.17 0 0 0-2-2c1.91 0 5-3 5-3a22.4 22.4 0 0 0-2.53-.78c1.46-1.36 1.53-4.22 1.53-4.22s-2.81 0-4.22 1.47a21.44 21.44 0 0 0-.78-2.47zm-2 6.86a3.34 3.34 0 0 0 1 .12 3.34 3.34 0 0 0 .12 1h-.12a3.36 3.36 0 0 0-1.25.25 3.36 3.36 0 0 0 .25-1.25zm-3 3a3.34 3.34 0 0 0 1 .12 3.34 3.34 0 0 0 .12 1h-.12a3.36 3.36 0 0 0-1.25.25 3.36 3.36 0 0 0 .25-1.25zm-3 3a3.34 3.34 0 0 0 1 .12 3.34 3.34 0 0 0 .12 1h-.12a3.36 3.36 0 0 0-1.25.25 3.36 3.36 0 0 0 .25-1.25z"/><path fill="none" d="M0 0h24v24H0z"/></symbol><symbol viewBox="0 0 24 24" id="xstorage"><path d="M0 0h24v24H0z" fill="none"/><path d="M18 2H6a2 2 0 0 0-2 2v16a2 2 0 0 0 2 2h11l3-3V4a2 2 0 0 0-2-2zm-6 17c-2.76 0-5-3.13-5-7s2.24-7 5-7 5 3.13 5 7-2.24 7-5 7z"/></symbol><symbol viewBox="0 0 24 24" id="xstorage_alt"><path d="M0 0h24v24H0z" fill="none"/><path d="M18 2H6a2 2 0 0 0-2 2v16a2 2 0 0 0 2 2h11l3-3V4a2 2 0 0 0-2-2z"/></symbol></svg>