<?xml version="1.0" encoding="utf-8"?><svg xmlns="http://www.w3.org/2000/svg" xmlns:xlink="http://www.w3.org/1999/xlink"><symbol viewBox="0 0 24 24" id="Bearing"><title>px_bearing_24px</title><g fill="#231f20"><path d="M12 2a10 10 0 1 0 10 10A10 10 0 0 0 12 2zm5.67 15.64a1.5 1.5 0 1 0-2.13 0 1.49 1.49 0 0 0 2.13 0 8 8 0 0 1-11.28 0 1.5 1.5 0 1 0 0-2.13 1.49 1.49 0 0 0 0 2.13 8 8 0 0 1 0-11.28 1.5 1.5 0 1 0 2.13 0 1.49 1.49 0 0 0-2.13 0 8 8 0 0 1 11.28 0 1.5 1.5 0 1 0 0 2.13 1.49 1.49 0 0 0 0-2.13 8 8 0 0 1 0 11.28z"/><path d="M12 7a5 5 0 1 0 5 5 5 5 0 0 0-5-5zm0 8a3 3 0 1 1 3-3 3 3 0 0 1-3 3z"/><circle cx="12" cy="5.5" r="1.5"/><circle cx="12" cy="18.5" r="1.5"/><circle cx="5.5" cy="12" r="1.5"/><circle cx="18.5" cy="12" r="1.5"/></g><path fill="none" d="M0 0h24v24H0z"/></symbol><symbol viewBox="0 0 24 24" id="Breaker"><title>px_breaker_24px</title><path fill="none" opacity=".01" d="M0 0h24v24H0z"/><path d="M1 14h6v2H1zm16 0h6v2h-6zm-.76-1.5a4.5 4.5 0 0 0-8.48 0l-2.83-1a7.5 7.5 0 0 1 14.14 0z"/></symbol><symbol viewBox="0 0 24 24" id="Device"><title>px_device_24px</title><path d="M19 3H5a2 2 0 0 0-2 2v14a2 2 0 0 0 2 2h14a2 2 0 0 0 2-2V5a2 2 0 0 0-2-2zm0 14a2 2 0 0 1-2 2 2 2 0 0 1-2-2 2 2 0 0 1 2-2 2 2 0 0 1 2 2zm0-10.5A1.5 1.5 0 0 1 17.5 8h-11A1.5 1.5 0 0 1 5 6.5 1.5 1.5 0 0 1 6.5 5h11A1.5 1.5 0 0 1 19 6.5z"/><path fill="none" d="M0 0h24v24H0z"/></symbol><symbol viewBox="0 0 24 24" id="Fan"><title>px_fan_24px</title><path fill="none" d="M0 0h24v24H0z"/><path d="M12 11a1 1 0 1 0 1 1 1 1 0 0 0-1-1m.5-9c4.5 0 4.6 3.57 2.23 4.75a3.36 3.36 0 0 0-1.62 2.47 3.17 3.17 0 0 1 1.23.91C18 8.13 22 8.92 22 12.5c0 4.5-3.58 4.6-4.75 2.23a3.44 3.44 0 0 0-2.5-1.62 3.24 3.24 0 0 1-.91 1.23c2 3.69 1.2 7.66-2.38 7.66-4.46 0-4.57-3.58-2.2-4.76a3.46 3.46 0 0 0 1.62-2.45 3 3 0 0 1-1.25-.92C5.94 15.85 2 15.07 2 11.5 2 7 5.54 6.89 6.72 9.26a3.39 3.39 0 0 0 2.48 1.61 2.91 2.91 0 0 1 .92-1.22C8.13 6 8.92 2 12.48 2z"/></symbol><symbol viewBox="0 0 24 24" id="Flow"><title>px_flow_24px</title><path d="M5.35 14.78a1.84 1.84 0 0 1 1.15.37 3.76 3.76 0 0 0 2.18.64 3.74 3.74 0 0 0 2.18-.64 2 2 0 0 1 2.3 0 4 4 0 0 0 4.36 0 2 2 0 0 1 2.3 0 3.77 3.77 0 0 0 2.16.64v-2a1.89 1.89 0 0 1-1.15-.36 4 4 0 0 0-4.36 0 1.77 1.77 0 0 1-1.15.36 1.89 1.89 0 0 1-1.15-.36 4 4 0 0 0-4.36 0 1.77 1.77 0 0 1-1.15.36 1.89 1.89 0 0 1-1.15-.36 3.82 3.82 0 0 0-2.18-.65 3.82 3.82 0 0 0-2.18.65 1.77 1.77 0 0 1-1.15.34v2a3.9 3.9 0 0 0 2.2-.64 1.84 1.84 0 0 1 1.15-.35zM22 15.79zM16.49 18a1.77 1.77 0 0 1-1.15.36 1.89 1.89 0 0 1-1.15-.36 3.82 3.82 0 0 0-2.19-.69 3.88 3.88 0 0 0-2.18.69 1.75 1.75 0 0 1-1.15.36A1.77 1.77 0 0 1 7.52 18a3.87 3.87 0 0 0-2.18-.65 3.88 3.88 0 0 0-2.19.65 1.77 1.77 0 0 1-1.15.32v2a4 4 0 0 0 2.19-.65 1.82 1.82 0 0 1 1.15-.37 1.84 1.84 0 0 1 1.15.37 3.87 3.87 0 0 0 2.18.65 4 4 0 0 0 2.19-.65 2 2 0 0 1 2.3 0 4 4 0 0 0 4.36 0 2 2 0 0 1 2.3 0 3.82 3.82 0 0 0 2.18.65v-2a1.77 1.77 0 0 1-1.15-.32 4 4 0 0 0-4.36 0zM22 6.69zM5.35 5.68A1.89 1.89 0 0 1 6.5 6a3.85 3.85 0 0 0 2.18.65A3.82 3.82 0 0 0 10.86 6 1.77 1.77 0 0 1 12 5.68a1.89 1.89 0 0 1 1.16.32 4 4 0 0 0 4.36 0 1.77 1.77 0 0 1 1.15-.36 1.89 1.89 0 0 1 1.15.36 3.78 3.78 0 0 0 2.18.69v-2a1.84 1.84 0 0 1-1.15-.37 4 4 0 0 0-4.36 0 2 2 0 0 1-2.3 0 4 4 0 0 0-4.36 0 2 2 0 0 1-2.3 0 3.82 3.82 0 0 0-2.18-.65 3.82 3.82 0 0 0-2.18.65A1.84 1.84 0 0 1 2 4.67v2A3.91 3.91 0 0 0 4.2 6a1.77 1.77 0 0 1 1.15-.32zm15.5 3.17a4 4 0 0 0-4.36 0 2 2 0 0 1-2.3 0A3.74 3.74 0 0 0 12 8.21a3.87 3.87 0 0 0-2.19.64 1.82 1.82 0 0 1-1.15.37 1.78 1.78 0 0 1-1.15-.37 3.78 3.78 0 0 0-2.18-.64 3.87 3.87 0 0 0-2.19.64A1.84 1.84 0 0 1 2 9.22v2a3.88 3.88 0 0 0 2.19-.65 1.75 1.75 0 0 1 1.15-.36 1.77 1.77 0 0 1 1.15.36 4 4 0 0 0 4.37 0 1.77 1.77 0 0 1 1.14-.34 1.89 1.89 0 0 1 1.15.36 4 4 0 0 0 4.36 0 1.77 1.77 0 0 1 1.15-.36 1.89 1.89 0 0 1 1.15.36 3.82 3.82 0 0 0 2.18.65v-2a1.84 1.84 0 0 1-1.14-.39z"/><path fill="none" d="M0 0h24v24H0z"/></symbol><symbol viewBox="0 0 24 24" id="Health"><title>Health</title><path fill="none" opacity=".01" d="M0 0h24v24H0z"/><path d="M17.5 13.5h-4v4h-3v-4h-4v-3h4v-4h3v4h4zM12 2a10 10 0 1 0 10 10A10 10 0 0 0 12 2z"/></symbol><symbol viewBox="0 0 24 24" id="Priority"><path fill="none" d="M0 0h24v24H0z"/><path d="M19 3H5a2 2 0 0 0-2 2v14a2 2 0 0 0 2 2h14a2 2 0 0 0 2-2V5a2 2 0 0 0-2-2zm-6 10h-2V7h2zm0 4h-2v-2h2z"/></symbol><symbol viewBox="0 0 24 24" id="Pump"><title>px_pump_24px</title><path fill="none" opacity=".01" d="M0 0h24v24H0z"/><path d="M18 12a6 6 0 0 0-5.74-6l3-3-1.43-1.39-6.11 6.11a6 6 0 0 0 4 10.23l-3 3 1.42 1.41 6.11-6.11A6 6 0 0 0 18 12zm-6 4a4 4 0 1 1 4-4 4 4 0 0 1-4 4z"/></symbol><symbol viewBox="0 0 24 24" id="QRCode"><title>px_qrcode_24px</title><path d="M3 11h2v2H3v-2m8-6h2v4h-2V5m-2 6h4v4h-2v-2H9v-2m6 0h2v2h2v-2h2v2h-2v2h2v4h-2v2h-2v-2h-4v2h-2v-4h4v-2h2v-2h-2v-2m4 8v-4h-2v4h2M15 3h6v6h-6V3m2 2v2h2V5h-2M3 3h6v6H3V3m2 2v2h2V5H5M3 15h6v6H3v-6m2 2v2h2v-2z"/><path fill="none" d="M0 0h24v24H0z"/></symbol><symbol viewBox="0 0 24 24" id="SSOL"><title>px_ssol_24px</title><path fill="none" opacity=".01" d="M0 0h24v24H0z"/><path d="M14 10.54c-.68 0-1 .48-1 1.46s.34 1.45 1 1.45a.87.87 0 0 0 .76-.35A1.92 1.92 0 0 0 15 12a1.94 1.94 0 0 0-.25-1.11.85.85 0 0 0-.75-.35z"/><path d="M20.27 6H3.73A1.74 1.74 0 0 0 2 7.73v8.54A1.74 1.74 0 0 0 3.73 18h16.54A1.74 1.74 0 0 0 22 16.27V7.73A1.74 1.74 0 0 0 20.27 6zm-15 5.1a5.38 5.38 0 0 0 .82.42 2.31 2.31 0 0 1 .9.63 1.33 1.33 0 0 1 .25.84 1.51 1.51 0 0 1-.23.82 1.57 1.57 0 0 1-.68.56 2.46 2.46 0 0 1-1.05.2 3.89 3.89 0 0 1-.83-.07 3.13 3.13 0 0 1-.71-.24v-1.21a3.47 3.47 0 0 0 .81.31 2.68 2.68 0 0 0 .76.11.73.73 0 0 0 .44-.1.31.31 0 0 0 .14-.27.35.35 0 0 0 0-.18.63.63 0 0 0-.19-.15 7 7 0 0 0-.7-.32 3.41 3.41 0 0 1-.75-.45 1.3 1.3 0 0 1-.37-.48 1.79 1.79 0 0 1-.11-.64 1.28 1.28 0 0 1 .5-1.08 2.18 2.18 0 0 1 1.38-.39 3.85 3.85 0 0 1 1.58.36l-.41 1.05a2.94 2.94 0 0 0-1.21-.33.62.62 0 0 0-.38.1.27.27 0 0 0-.12.23.34.34 0 0 0 .15.28zm3.9 0a5.38 5.38 0 0 0 .82.42 2.31 2.31 0 0 1 .9.63 1.33 1.33 0 0 1 .25.84 1.51 1.51 0 0 1-.23.82 1.57 1.57 0 0 1-.68.56 2.46 2.46 0 0 1-1.05.2 3.89 3.89 0 0 1-.83-.07 3.13 3.13 0 0 1-.71-.24v-1.21a3.47 3.47 0 0 0 .81.31 2.68 2.68 0 0 0 .76.11.73.73 0 0 0 .44-.1.31.31 0 0 0 .14-.27.35.35 0 0 0 0-.18.63.63 0 0 0-.19-.15 7 7 0 0 0-.66-.32 3.41 3.41 0 0 1-.79-.45 1.3 1.3 0 0 1-.37-.48 1.79 1.79 0 0 1-.11-.64 1.28 1.28 0 0 1 .5-1.08 2.18 2.18 0 0 1 1.38-.39 3.85 3.85 0 0 1 1.58.36l-.41 1.05a2.94 2.94 0 0 0-1.21-.33.62.62 0 0 0-.38.1.27.27 0 0 0-.12.23.34.34 0 0 0 .15.28zm6.66 2.82a2.38 2.38 0 0 1-1.81.65 2.37 2.37 0 0 1-1.8-.66 2.68 2.68 0 0 1-.64-1.91 2.67 2.67 0 0 1 .62-1.9 2.39 2.39 0 0 1 1.8-.67 2.4 2.4 0 0 1 1.81.65 2.72 2.72 0 0 1 .63 1.92 2.72 2.72 0 0 1-.62 1.92zm4.45.58H17v-5h1.35v3.9h1.93z"/></symbol><symbol viewBox="0 0 24 24" id="Stopped"><title>px_stop_24px</title><path d="M21.41 7.27l-4.68-4.68A2 2 0 0 0 15.31 2H8.69a2 2 0 0 0-1.42.59L2.59 7.27A2 2 0 0 0 2 8.69v6.62a2 2 0 0 0 .59 1.42l4.68 4.68a2 2 0 0 0 1.42.59h6.62a2 2 0 0 0 1.42-.59l4.68-4.68a2 2 0 0 0 .59-1.42V8.69a2 2 0 0 0-.59-1.42zm-1.41 8L15.31 20H8.69L4 15.31V8.69L8.69 4h6.62L20 8.69z"/><path d="M9.52 6L6 9.52v4.96L9.52 18h4.96L18 14.48V9.52L14.48 6H9.52z"/><path fill="none" d="M0 0h24v24H0z"/></symbol><symbol viewBox="0 0 24 24" id="Stopping"><path d="M12.71 9.88l6.36.07V3.51L16.9 5.69A7.94 7.94 0 0 0 13 4.07v2a6 6 0 0 1 2.47 1zm-5.6-1.35L5.69 7.1A7.94 7.94 0 0 0 4.07 11h2a6 6 0 0 1 1.04-2.47zM11 6.09v-2a7.94 7.94 0 0 0-3.9 1.6l1.43 1.42A6 6 0 0 1 11 6.09zM18 12a6 6 0 0 1-11.91 1h-2A8 8 0 0 0 20 12z"/><path fill="none" d="M0 0h24v24H0z"/></symbol><symbol viewBox="0 0 24 24" id="Utility"><path d="M20.93 20.63l-4-10L15.94 8H18v2h2V6h-4.81l-1.5-4h-3.38l-1.5 4H4v4h2V8h2.06l-1 2.63-4 10 1.48 1.2 7.45-5 7.45 5zM8.68 12h6.64l.08.2-3.4 2.26-3.4-2.26zm3-8h.62l.75 2h-2.11zm2.12 4l.75 2H9.44l.75-2zM6.12 18.38l1.72-4.29 2.36 1.58zm7.68-2.71l2.36-1.58 1.72 4.29z" fill="#231f20"/><path fill="none" d="M0 0h24v24H0z"/></symbol><symbol viewBox="0 0 24 24" id="VFD"><title>px_vfd_24px</title><path d="M16.81 10.39h-.45v3.2h.34a1.24 1.24 0 0 0 1-.41 2 2 0 0 0 .33-1.25 1.79 1.79 0 0 0-.31-1.16 1.16 1.16 0 0 0-.91-.38z"/><path d="M20.27 6H3.73A1.74 1.74 0 0 0 2 7.73v8.54A1.74 1.74 0 0 0 3.73 18h16.54A1.74 1.74 0 0 0 22 16.27V7.73A1.74 1.74 0 0 0 20.27 6zM8 14.86H6.2L4.34 9.14h1.73L6.85 12a8.09 8.09 0 0 1 .26 1.34c0-.18.06-.41.11-.68s.11-.49.15-.65l.79-2.91h1.73zm5.86-4.48H12v1.09h1.71v1.24H12v2.15h-1.5V9.14h3.38zm5 3.7a3 3 0 0 1-2.22.78h-1.82V9.14h2a3 3 0 0 1 2.13.71 2.67 2.67 0 0 1 .74 2 3 3 0 0 1-.81 2.23z"/><path fill="none" opacity=".01" d="M0 0h24v24H0z"/></symbol><symbol viewBox="0 0 24 24" id="XStorage"><path d="M0 0h24v24H0z" fill="none"/><path d="M18 2H6a2 2 0 0 0-2 2v16a2 2 0 0 0 2 2h11l3-3V4a2 2 0 0 0-2-2zm-6 17c-2.76 0-5-3.13-5-7s2.24-7 5-7 5 3.13 5 7-2.24 7-5 7z"/></symbol><symbol viewBox="0 0 24 24" id="air_filter"><title>px_air_filter_24px</title><path d="M8 2a3 3 0 0 0-3 3v1.88a5.49 5.49 0 0 0-2.41-.57 2.88 2.88 0 0 0-.59.07v2a3.8 3.8 0 0 1 .59-.06A5.32 5.32 0 0 1 5 9v1.91a5.66 5.66 0 0 0-2.44-.57 5.12 5.12 0 0 0-.56 0v2a5 5 0 0 1 .56-.06A5.35 5.35 0 0 1 5 13v1.88a5.66 5.66 0 0 0-2.44-.57 3.43 3.43 0 0 0-.56.07v2a3.43 3.43 0 0 1 .56-.07A5.31 5.31 0 0 1 5 17v2a3 3 0 0 0 3 3h8a3 3 0 0 0 3-3v-.75l-.78-.34c-.42-.14-.83-.3-1.22-.44V19a1 1 0 0 1-1 1H8a1 1 0 0 1-1-1V5a1 1 0 0 1 1-1h8a1 1 0 0 1 1 1v1.38A6.4 6.4 0 0 0 14.88 6a6.81 6.81 0 0 0-3.47 1.09A6.05 6.05 0 0 1 8.56 8 5 5 0 0 1 8 7.94v2a5 5 0 0 0 .56.06A6.6 6.6 0 0 0 12 8.91 6 6 0 0 1 14.88 8a10.9 10.9 0 0 1 3.31.91A9.93 9.93 0 0 0 22 10V8a9.16 9.16 0 0 1-3-.78V5a3 3 0 0 0-3-3zm6.88 8a6.81 6.81 0 0 0-3.47 1.09 6.05 6.05 0 0 1-2.85.91 5 5 0 0 1-.56-.06v2a5 5 0 0 0 .56.06A6.6 6.6 0 0 0 12 12.91a6 6 0 0 1 2.88-.91 10.9 10.9 0 0 1 3.31.91A9.93 9.93 0 0 0 22 14v-2a10.58 10.58 0 0 1-3.28-.91A8.76 8.76 0 0 0 14.88 10zm0 4a6.81 6.81 0 0 0-3.47 1.09 6.05 6.05 0 0 1-2.82.91 3.8 3.8 0 0 1-.59-.06v2a5.61 5.61 0 0 0 .59.06A6.6 6.6 0 0 0 12 16.91a6 6 0 0 1 2.91-.91 10.83 10.83 0 0 1 3.31.91A9.93 9.93 0 0 0 22 18v-2a10.75 10.75 0 0 1-3.31-.91A8.59 8.59 0 0 0 14.91 14z"/><path fill="none" d="M0 0h24v24H0z"/></symbol><symbol viewBox="0 0 24 24" id="bypass_battery"><path fill="none" d="M0 0h24v24H0z"/><path d="M17.5 9.1H19v-6h-6v1.5h3.5L12 9.1l-6-6-1 1 7 7 5.5-5.5zM18 14v6H4v-6h14m.7-2H3.3A1.324 1.324 0 0 0 2 13.3v7.3A1.347 1.347 0 0 0 3.3 22h15.3a1.324 1.324 0 0 0 1.3-1.3V19h2v-4h-2v-1.7a1.181 1.181 0 0 0-1.2-1.3z"/></symbol><symbol viewBox="0 0 24 24" id="camera"><title>px_camera_24px</title><path d="M18.15 4.94A2.09 2.09 0 0 0 17 5.2l-8.65 5a2 2 0 0 0-.73 2.74l1.5 2.59a2 2 0 0 0 2.73.74l1.8-1a2.49 2.49 0 0 0 1.16 1V18a2 2 0 0 0 2 2H22v-2h-5.19v-1.73A2.49 2.49 0 0 0 18 12.73l2.53-1.46a2 2 0 0 0 .74-2.74l-1.5-2.59a2 2 0 0 0-1.59-1M6.22 13.17l-4.22.7.75 1.3 2 3.46.75 1.3 2.72-3.3z"/><path fill="none" d="M0 0h24v24H0z"/></symbol><symbol viewBox="0 0 24 24" id="capacitor"><title>px_capacitor_24px</title><path fill="none" d="M0 0h24v24H0z"/><path d="M17 4h-1V2h-3v2h-2V2H8v2H7a2 2 0 0 0-2 2v14a2 2 0 0 0 2 2h10a2 2 0 0 0 2-2V6a2 2 0 0 0-2-2z"/></symbol><symbol viewBox="0 0 24 24" id="computer"><title>px_computer_24px</title><path d="M8 2h8a2 2 0 0 1 2 2v16a2 2 0 0 1-2 2H8a2 2 0 0 1-2-2V4a2 2 0 0 1 2-2m0 2v2h8V4H8m8 4H8v2h8V8m0 10h-2v2h2z"/><path fill="none" d="M0 0h24v24H0z"/></symbol><symbol viewBox="0 0 24 24" id="contactor"><title>px_contactor_24px</title><path d="M13 8V3h-2v5H2v3h20V8h-9zM2 16h9v5h2v-5h9v-3H2v3z"/><path fill="none" d="M0 0h24v24H0z"/></symbol><symbol viewBox="0 0 24 24" id="current"><title>px_current_24px</title><path d="M3 12l1.21-2c1.49-2.47 4.26-2.67 6-.43L12 12l1.84 2.44c1.69 2.24 4.46 2 5.95-.43L21 12" fill="none" stroke="#000" stroke-miterlimit="10" stroke-width="2"/><path d="M0 0h24v24H0z" fill="none"/></symbol><symbol viewBox="0 0 24 24" id="current_circled"><title>px_current_circled_24px</title><path d="M12 2a10 10 0 1 0 10 10A10 10 0 0 0 12 2zm6.7 12a3.84 3.84 0 0 1-3 2h-.2a3.68 3.68 0 0 1-2.92-1.56l-2.76-3.67A1.64 1.64 0 0 0 8.43 10 1.88 1.88 0 0 0 7 11l-.9 1.51-1.72-1L5.3 10a3.84 3.84 0 0 1 3-2 3.66 3.66 0 0 1 3.09 1.56l2.76 3.67a1.63 1.63 0 0 0 1.39.77A1.88 1.88 0 0 0 17 13l.9-1.51 1.72 1z"/><path d="M0 0h24v24H0z" fill="none"/></symbol><symbol viewBox="0 0 24 24" id="current_circled_outline"><title>px_current_circled_outline_24px</title><path d="M12 4a8 8 0 1 1-8 8 8 8 0 0 1 8-8m0-2a10 10 0 1 0 10 10A10 10 0 0 0 12 2z"/><path d="M0 0h24v24H0z" fill="none"/><path d="M18.7 14a3.84 3.84 0 0 1-3 2h-.2a3.68 3.68 0 0 1-2.92-1.56l-2.76-3.67A1.64 1.64 0 0 0 8.43 10 1.88 1.88 0 0 0 7 11l-.9 1.51-1.72-1L5.3 10a3.84 3.84 0 0 1 3-2 3.66 3.66 0 0 1 3.09 1.56l2.76 3.67a1.63 1.63 0 0 0 1.39.77A1.88 1.88 0 0 0 17 13l.9-1.51 1.72 1z"/></symbol><symbol viewBox="0 0 24 24" id="ephesus_fixture"><title>px_ephesus_fixture_24px</title><path fill="none" d="M0 0h24v24H0z"/><path d="M20.27 7.52c-1.65-1.35-4.37-1.83-6.27-2-.9-.08-1.61-.1-1.94-.1h-.12c-1 0-5.77.11-8.21 2.1 0 0-1.73 1.25-1.73 4.87s1.53 4.95 1.53 4.95 1 1.05 4.07 1.66l.87.15h.07l.88.11h.18l.9.07h3l.9-.07h.18l.88-.11h.07l.87-.15c3.08-.61 4.07-1.66 4.07-1.66S22 16 22 12.39s-1.73-4.87-1.73-4.87zM6 17a2 2 0 1 1 2-2 2 2 0 0 1-2 2zm0-5a2 2 0 1 1 2-2 2 2 0 0 1-2 2zm6 6a2 2 0 1 1 2-2 2 2 0 0 1-2 2zm0-7a2 2 0 1 1 2-2 2 2 0 0 1-2 2zm6 6a2 2 0 1 1 2-2 2 2 0 0 1-2 2zm0-5a2 2 0 1 1 2-2 2 2 0 0 1-2 2zm-2-9a1 1 0 0 0-2 0v1.51c.61 0 1.29.13 2 .26zM5.82 19.59L6.56 21a2 2 0 0 0 1.75 1h7.38a2 2 0 0 0 1.75-1l.74-1.36a22.42 22.42 0 0 1-6.19.83 22.31 22.31 0 0 1-6.17-.88z"/></symbol><symbol viewBox="0 0 24 24" id="ephesus_gateway"><title>px_ephesus_gateway_24px</title><path fill="none" d="M0 0h24v24H0z"/><path d="M18 2H6a2 2 0 0 0-2 2v16a2 2 0 0 0 2 2h12a2 2 0 0 0 2-2V4a2 2 0 0 0-2-2zM8.78 3l.62 1a3 3 0 0 0 5.2 0l.62-1h1.16l-.92 1.54a4 4 0 0 1-6.92 0L7.62 3zm4.93 9.52l-1.37.88a.64.64 0 0 1-.68 0l-1.37-.88a.61.61 0 0 1 0-1l1.37-.88a.64.64 0 0 1 .68 0l1.37.88a.61.61 0 0 1 0 1zM5 18.71v-1.42l1.61-1.61a3 3 0 0 0 .89-2.14V9.7a3 3 0 0 0-1.14-2.37L5 6.24V5l2 1.55A4 4 0 0 1 8.5 9.7v3.84a4 4 0 0 1-1.18 2.85zM15.22 21l-.62-1a3 3 0 0 0-5.2 0l-.62 1H7.62l.92-1.54a4 4 0 0 1 6.92 0l.92 1.54zM19 6.24l-1.36 1.09A3 3 0 0 0 16.5 9.7v3.84a3 3 0 0 0 .89 2.14L19 17.29v1.42l-2.32-2.32a4 4 0 0 1-1.18-2.85V9.7A4 4 0 0 1 17 6.55L19 5z"/></symbol><symbol viewBox="0 0 24 24" id="forklift"><title>px_forklift_24px</title><path d="M6 4v7H4a2 2 0 0 0-2 2v4a3 3 0 0 0 6 0h2a3 3 0 0 0 6 0v-4l-4-9H6m11 1v14h5v-1.5h-3.5V5H17m-9.5.5h3.7l3.3 7.5h-7V5.5M5 15.5A1.5 1.5 0 1 1 3.5 17 1.5 1.5 0 0 1 5 15.5m8 0a1.5 1.5 0 1 1-1.5 1.5 1.5 1.5 0 0 1 1.5-1.5z"/><path fill="none" d="M0 0h24v24H0z"/></symbol><symbol viewBox="0 0 24 24" id="generator"><title>px_generator_24px</title><circle cx="12" cy="12" r="10"/><path d="M12.15 11.34h4.24v5.56a12.09 12.09 0 0 1-1.94.47 12.73 12.73 0 0 1-1.86.13 4.74 4.74 0 0 1-3.71-1.42A5.93 5.93 0 0 1 7.61 12a5.37 5.37 0 0 1 1.48-4 5.62 5.62 0 0 1 4.11-1.5 8 8 0 0 1 3.18.66L15.63 9a5.43 5.43 0 0 0-2.44-.58 3 3 0 0 0-2.36 1A3.85 3.85 0 0 0 9.94 12a4.27 4.27 0 0 0 .72 2.67 2.45 2.45 0 0 0 2.07.91 7.19 7.19 0 0 0 1.45-.14v-2.21h-2z" fill="#fff"/></symbol><symbol viewBox="0 0 24 24" id="generator_off"><title>px_generator_off_24px</title><path d="M1 3.54l2.78 2.78a10 10 0 0 0 13.9 13.9L20.46 23l1.27-1.27L2.27 2.27zm13.45 13.83a12.73 12.73 0 0 1-1.86.13 4.74 4.74 0 0 1-3.71-1.42A5.93 5.93 0 0 1 7.61 12a7.12 7.12 0 0 1 .19-1.65l2.2 2.16a4 4 0 0 0 .69 2.19 2.45 2.45 0 0 0 2.07.91h.33l1.71 1.71zM13.2 6.5a8 8 0 0 1 3.18.66L15.63 9a5.43 5.43 0 0 0-2.44-.58 3.17 3.17 0 0 0-1.77.49l2.46 2.46h2.51v2.51l3.83 3.83A10 10 0 0 0 6.32 3.78l3.55 3.55a6.23 6.23 0 0 1 3.33-.83z"/><path fill="none" d="M0 0h24v24H0z"/></symbol><symbol viewBox="0 0 24 24" id="grade_a"><title>px_grade_a_24px</title><path fill="none" d="M0 0h24v24H0z"/><path d="M12 8.53c-.15.59-.58 2-1.29 4.33h2.61c-.67-2.15-1.05-3.37-1.13-3.66S12 8.7 12 8.53z"/><path d="M12 2a10 10 0 1 0 10 10A10 10 0 0 0 12 2zm2.55 15l-.73-2.38h-3.64L9.45 17H7.17L10.7 7h2.59l3.54 10z"/></symbol><symbol viewBox="0 0 24 24" id="grade_b"><title>px_grade_b_24px</title><path d="M12 12.59h-1.33v2.61h1.38a2 2 0 0 0 1.3-.34 1.24 1.24 0 0 0 .41-1c0-.86-.59-1.27-1.76-1.27zm1.15-1.94a1 1 0 0 0 .39-.89.88.88 0 0 0-.42-.82 2.68 2.68 0 0 0-1.33-.25h-1.12v2.22h1.23a2.33 2.33 0 0 0 1.25-.26z"/><path d="M12 2a10 10 0 1 0 10 10A10 10 0 0 0 12 2zm3 14.18a4.3 4.3 0 0 1-2.69.77H8.55V7h3.12a6 6 0 0 1 3.08.61 2.09 2.09 0 0 1 1 1.92 2.42 2.42 0 0 1-.46 1.47 1.62 1.62 0 0 1-1.12.69v.07a2.21 2.21 0 0 1 1.37.79 2.61 2.61 0 0 1 .46 1.5 2.53 2.53 0 0 1-1 2.13z"/></symbol><symbol viewBox="0 0 24 24" id="grade_c"><title>px_grade_c_24px</title><path d="M12 2a10 10 0 1 0 10 10A10 10 0 0 0 12 2zm.88 13.32a7.73 7.73 0 0 0 2.55-.53v1.78a7.09 7.09 0 0 1-2.75.51 4.19 4.19 0 0 1-3.33-1.32A5.61 5.61 0 0 1 8.19 12a6.23 6.23 0 0 1 .57-2.73 4.05 4.05 0 0 1 1.63-1.79 4.8 4.8 0 0 1 2.49-.63 6.73 6.73 0 0 1 2.93.7l-.69 1.73A10.67 10.67 0 0 0 14 8.77a3.44 3.44 0 0 0-1.12-.2 2.15 2.15 0 0 0-1.85.9 4.18 4.18 0 0 0-.66 2.53c0 2.21.84 3.32 2.51 3.32z"/></symbol><symbol viewBox="0 0 24 24" id="grade_d"><title>px_grade_d_24px</title><path d="M11.32 8.69H10.2v6.51h.9q3.08 0 3.07-3.29t-2.85-3.22z"/><path d="M12 2a10 10 0 1 0 10 10A10 10 0 0 0 12 2zm3 13.64A5.73 5.73 0 0 1 10.91 17H8.08V7h3.13A5.23 5.23 0 0 1 15 8.25a4.71 4.71 0 0 1 1.36 3.6A4.93 4.93 0 0 1 15 15.64z"/></symbol><symbol viewBox="0 0 24 24" id="grade_f"><title>px_grade_f_24px</title><path d="M12 2a10 10 0 1 0 10 10A10 10 0 0 0 12 2zm3.14 6.69H11.5v2.58h3.39V13H11.5v4H9.42V7h5.72z"/></symbol><symbol viewBox="0 0 24 24" id="leaf"><title>px_leaf_24px</title><path d="M17 8C8 10 5.9 16.17 3.82 21.34l1.89.66 1-2.3A4.49 4.49 0 0 0 8 20C19 20 22 3 22 3c-1 2-8 2.25-13 3.25S2 11.5 2 13.5a6.22 6.22 0 0 0 1.75 3.75C7 8 17 8 17 8z"/><path fill="none" d="M0 0h24v24H0z"/></symbol><symbol viewBox="0 0 24 24" id="maintenance"><title>px_maintenance_24px</title><path fill="none" d="M0 0h24v24H0z"/><path d="M12 2a10 10 0 1 0 10 10A10 10 0 0 0 12 2zm5.75 14.59l-1.25 1.25a.54.54 0 0 1-.76 0l-5-4.95a3.54 3.54 0 0 1-4.4-4.83l2.39 2.33 1.63-1.63L8 6.43a3.6 3.6 0 0 1 4 .7 3.49 3.49 0 0 1 .82 3.75l4.94 4.95a.49.49 0 0 1-.01.76z"/></symbol><symbol viewBox="0 0 24 24" id="moisture"><title>px_moisture_24px</title><path fill="none" d="M0 0h24v24H0z"/><path d="M12 20.2a3 3 0 0 1-3-3c0-2 3-5.4 3-5.4s3 3.4 3 5.4a3 3 0 0 1-3 3zm-5-8a3 3 0 0 1-3-3c0-2 3-5.4 3-5.4s3 3.4 3 5.4a3 3 0 0 1-3 3zm10 0a3 3 0 0 1-3-3c0-2 3-5.4 3-5.4s3 3.4 3 5.4a3 3 0 0 1-3 3z"/></symbol><symbol viewBox="0 0 24 24" id="network_switch"><title>px_network_switch_24px</title><path d="M13 18h1a1 1 0 0 1 1 1h7v2h-7a1 1 0 0 1-1 1h-4a1 1 0 0 1-1-1H2v-2h7a1 1 0 0 1 1-1h1v-2H8a1 1 0 0 1-1-1V3a1 1 0 0 1 1-1h8a1 1 0 0 1 1 1v12a1 1 0 0 1-1 1h-3v2m0-12h1V4h-1v2M9 4v2h2V4H9m0 4v2h2V8H9m0 4v2h2v-2z"/><path fill="none" d="M0 0h24v24H0z"/></symbol><symbol viewBox="0 0 24 24" id="overlap"><title>px_overlap_24px</title><path d="M9 5a7 7 0 1 0 7 7 7 7 0 0 0-7-7zm0 12a5 5 0 1 1 5-5 5 5 0 0 1-5 5z"/><path d="M15 5a7 7 0 1 0 7 7 7 7 0 0 0-7-7zm0 12a5 5 0 1 1 5-5 5 5 0 0 1-5 5z"/><path fill="none" d="M0 0h24v24H0z"/></symbol><symbol viewBox="0 0 24 24" id="pdu"><title>px_pdu_24px</title><path d="M22 9H2a2 2 0 0 0-2 2v2a2 2 0 0 0 2 2h20a2 2 0 0 0 2-2v-2a2 2 0 0 0-2-2zM3 13H2v-2h1zm3 0H4v-2h2zm4 0H8v-2h2zm4 0h-2v-2h2zm4 0h-2v-2h2zm4 0h-2v-2h2z"/><path fill="none" d="M0 0h24v24H0z"/></symbol><symbol viewBox="0 0 24 24" id="pickup_truck"><title>px_pickup_truck_24px</title><path d="M16 6h-5.5v4H1v5h2a3 3 0 0 0 6 0h6a3 3 0 0 0 6 0h2v-3a2 2 0 0 0-2-2h-2l-3-4m-4 1.5h3.5l2 2.5H12V7.5m-6 6A1.5 1.5 0 1 1 4.5 15 1.5 1.5 0 0 1 6 13.5m12 0a1.5 1.5 0 1 1-1.5 1.5 1.5 1.5 0 0 1 1.5-1.5z"/><path fill="none" d="M0 0h24v24H0z"/></symbol><symbol viewBox="0 0 24 24" id="power_circled"><title>px_power_circled_24px</title><path d="M0 0h24v24H0z" fill="none"/><path d="M12.63 8.69h-1v3h.71a2.36 2.36 0 0 0 1.48-.39 1.36 1.36 0 0 0 .49-1.14 1.44 1.44 0 0 0-.41-1.12 2 2 0 0 0-1.27-.35z"/><path d="M12 2a10 10 0 1 0 10 10A10 10 0 0 0 12 2zm3.48 10.6a4.41 4.41 0 0 1-2.91.86h-.92v3.61H9.5V6.93h3.24a4.29 4.29 0 0 1 2.8.8 2.89 2.89 0 0 1 1 2.36 3.12 3.12 0 0 1-1.06 2.51z"/></symbol><symbol viewBox="0 0 24 24" id="power_circled_outline"><title>px_power_circled_outline_24px</title><path d="M0 0h24v24H0z" fill="none"/><path d="M14.54 7.73a4.29 4.29 0 0 0-2.8-.8H8.5v10.14h2.15v-3.61h.92a4.41 4.41 0 0 0 2.91-.86 3.12 3.12 0 0 0 1-2.51 2.89 2.89 0 0 0-.94-2.36zm-1.7 3.58a2.36 2.36 0 0 1-1.48.39h-.71v-3h1a2 2 0 0 1 1.29.36 1.44 1.44 0 0 1 .41 1.12 1.36 1.36 0 0 1-.51 1.13z"/><path d="M12 4a8 8 0 1 1-8 8 8 8 0 0 1 8-8m0-2a10 10 0 1 0 10 10A10 10 0 0 0 12 2z"/></symbol><symbol viewBox="0 0 24 24" id="push_notification"><title>px_push_notification_24px</title><path fill="none" d="M0 0h24v24H0z"/><g fill="#231f20"><circle cx="18" cy="6" r="3"/><path d="M17 10.9V19H5V7h8.1a5.47 5.47 0 0 1-.1-1 5.47 5.47 0 0 1 .1-1H5a2 2 0 0 0-2 2v12a2 2 0 0 0 2 2h12a2 2 0 0 0 2-2v-8.1a5.05 5.05 0 0 1-2 0z"/></g></symbol><symbol viewBox="0 0 24 24" id="push_notification_solid"><title>px_push_notification_solid_24px</title><path fill="none" d="M0 0h24v24H0z"/><g fill="#231f20"><circle cx="18" cy="6" r="3"/><path d="M13 6a5.47 5.47 0 0 1 .1-1H5a2 2 0 0 0-2 2v12a2 2 0 0 0 2 2h12a2 2 0 0 0 2-2v-8.1a5.47 5.47 0 0 1-1 .1 5 5 0 0 1-5-5z"/></g></symbol><symbol viewBox="0 0 24 24" id="running_high"><title>px_running_high_24px</title><path fill="none" d="M0 0h24v24H0z"/><path d="M12 6v3l4-4-4-4v3a8 8 0 0 0-8 8 8.92 8.92 0 0 0 1.2 4.3l1.5-1.5A5.28 5.28 0 0 1 6 12a6 6 0 0 1 6-6zm6.8 1.7l-1.5 1.5A6.51 6.51 0 0 1 18 12a6 6 0 0 1-6 6v-3l-4 4 4 4v-3a8 8 0 0 0 8-8 8.92 8.92 0 0 0-1.2-4.3z"/><path d="M15 15V9h-2v2h-2V9H9v6h2v-2h2v2h2z"/></symbol><symbol viewBox="0 0 24 24" id="running_low"><title>px_running_low_24px</title><path fill="none" d="M0 0h24v24H0z"/><path d="M12 1v3a8 8 0 0 0-8 8 8.92 8.92 0 0 0 1.2 4.3l1.5-1.5A5.28 5.28 0 0 1 6 12a6 6 0 0 1 6-6v3l4-4zm6.8 6.7l-1.5 1.5A6.51 6.51 0 0 1 18 12a6 6 0 0 1-6 6v-3l-4 4 4 4v-3a8 8 0 0 0 8-8 8.92 8.92 0 0 0-1.2-4.3z"/><path d="M15 13h-3V9h-2v6h5v-2z"/></symbol><symbol viewBox="0 0 24 24" id="scan_qrcode"><title>px_scan_qrcode_24px</title><path d="M4 4h6v6H4V4m16 0v6h-6V4h6m-6 11h2v-2h-2v-2h2v2h2v-2h2v2h-2v2h2v3h-2v2h-2v-2h-3v2h-2v-4h3v-1m2 0v3h2v-3h-2M4 20v-6h6v6H4M6 6v2h2V6H6m10 0v2h2V6h-2M6 16v2h2v-2H6m-2-5h2v2H4v-2m5 0h4v4h-2v-2H9v-2m2-5h2v4h-2V6M2 2v4H0V2a2 2 0 0 1 2-2h4v2H2m20-2a2 2 0 0 1 2 2v4h-2V2h-4V0h4M2 18v4h4v2H2a2 2 0 0 1-2-2v-4h2m20 4v-4h2v4a2 2 0 0 1-2 2h-4v-2z"/></symbol><symbol viewBox="0 0 24 24" id="server"><title>px_server_24px</title><path d="M20 8H4a2 2 0 0 0-2 2v4a2 2 0 0 0 2 2h16a2 2 0 0 0 2-2v-4a2 2 0 0 0-2-2zM6 13H4v-2h2zm3 0H8v-2h1z"/><path fill="none" d="M0 0h24v24H0z"/></symbol><symbol viewBox="0 0 24 24" id="servers"><title>px_servers_24px</title><path d="M4 1h16a1 1 0 0 1 1 1v4a1 1 0 0 1-1 1H4a1 1 0 0 1-1-1V2a1 1 0 0 1 1-1m0 8h16a1 1 0 0 1 1 1v4a1 1 0 0 1-1 1H4a1 1 0 0 1-1-1v-4a1 1 0 0 1 1-1m0 8h16a1 1 0 0 1 1 1v4a1 1 0 0 1-1 1H4a1 1 0 0 1-1-1v-4a1 1 0 0 1 1-1M9 5h1V3H9v2m0 8h1v-2H9v2m0 8h1v-2H9v2M5 3v2h2V3H5m0 8v2h2v-2H5m0 8v2h2v-2z"/><path fill="none" d="M0 0h24v24H0z"/></symbol><symbol viewBox="0 0 24 24" id="switch"><title>px_tripped_24px</title><path fill="none" d="M0 0h24v24H0z"/><path d="M17 14v2h6v-2zM1 16h6v-2H1z"/><path d="M5.514 14.583l7.071-7.071L14 8.926l-7.071 7.07z"/><path d="M11.88 6.81l-7.07 7.07L3 16h3.93L14 8.93l-2.12-2.12z"/></symbol><symbol viewBox="0 0 24 24" id="trending_down"><path fill="none" d="M0 24h24V0H0z"/><path d="M14.5 20l2.04-2.04L4 5.41 5.41 4l12.55 12.54L20 14.5V20z"/></symbol><symbol viewBox="0 0 24 24" id="trending_flat"><title>px_trending_flat_24px</title><path d="M0 0h24v24H0z" fill="none"/><path d="M22 12l-4-4v3H3v2h15v3z"/></symbol><symbol viewBox="0 0 24 24" id="trending_up"><path fill="none" d="M0 0h24v24H0z"/><path d="M14.5 4l2.04 2.04L4 18.59 5.41 20 17.96 7.46 20 9.5V4z"/></symbol><symbol viewBox="0 0 24 24" id="vmms"><title>px_vmms_24px</title><path d="M6 5v14H4V5h2m0-2H4a2 2 0 0 0-2 2v14a2 2 0 0 0 2 2h2a2 2 0 0 0 2-2V5a2 2 0 0 0-2-2zm14 2v14h-2V5h2m0-2h-2a2 2 0 0 0-2 2v14a2 2 0 0 0 2 2h2a2 2 0 0 0 2-2V5a2 2 0 0 0-2-2zm-7 2v14h-2V5h2m0-2h-2a2 2 0 0 0-2 2v14a2 2 0 0 0 2 2h2a2 2 0 0 0 2-2V5a2 2 0 0 0-2-2z"/><rect x="2" y="7" width="6" height="14" rx="2" ry="2"/><path fill="none" d="M0 0h24v24H0z"/></symbol><symbol viewBox="0 0 24 24" id="voltage"><title>px_voltage_24px</title><path d="M9 11H2v2h7v-2zm10.5-2.5h-2V11H15v2h2.5v2.5h2V13H22v-2h-2.5V8.5z"/><path d="M9 11H2v2h7v-2zm10.5-2.5h-2V11H15v2h2.5v2.5h2V13H22v-2h-2.5V8.5z"/><path d="M0 0h24v24H0z" fill="none"/></symbol><symbol viewBox="0 0 24 24" id="voltage_circled"><title>px_voltage_circled_24px</title><path d="M0 0h24v24H0z" fill="none"/><path d="M12 2a10 10 0 1 0 10 10A10 10 0 0 0 12 2zm-1 11H4v-2h7zm6.5 0v2.5h-2V13H13v-2h2.5V8.5h2V11H20v2z"/></symbol><symbol viewBox="0 0 24 24" id="voltage_circled_outline"><title>px_voltage_circled_outline_24px</title><path d="M12 4a8 8 0 1 1-8 8 8 8 0 0 1 8-8m0-2a10 10 0 1 0 10 10A10 10 0 0 0 12 2z"/><path d="M11 11H6v2h5v-2zm7 0h-5v2h5v-2z"/><path d="M16.5 9.5h-2v5h2v-5z"/><path d="M0 0h24v24H0z" fill="none"/></symbol><symbol viewBox="0 0 24 24" id="water"><path d="M12 20a6 6 0 0 1-6-6c0-4 6-10.8 6-10.8S18 10 18 14a6 6 0 0 1-6 6z"/><path fill="none" d="M0 0h24v24H0z"/></symbol><symbol viewBox="0 0 24 24" id="water_outline"><title>px_water_outline_24px</title><path d="M12 6.36c2 2.58 4 5.87 4 7.64a4 4 0 0 1-8 0c0-1.77 2-5.06 4-7.64m0-3.16S6 10 6 14a6 6 0 0 0 12 0c0-4-6-10.8-6-10.8z"/><path fill="none" d="M0 0h24v24H0z"/></symbol><symbol viewBox="0 0 24 24" id="waveform"><title>px_waveform_24px</title><path fill="none" d="M0 0h24v24H0z"/><path d="M20.84 16.35a1 1 0 0 1-1-.75l-1.39-5.54a.49.49 0 0 0-1 0l-1.09 4.36a2.5 2.5 0 0 1-4.86 0l-1.09-4.36a.49.49 0 0 0-1 0l-.98 4.36a2.5 2.5 0 0 1-4.86 0L2.15 8.74a1 1 0 0 1 1.95-.48l1.42 5.68a.49.49 0 0 0 1 0l1.05-4.36a2.5 2.5 0 0 1 4.86 0l1.09 4.36a.49.49 0 0 0 1 0l1.09-4.36a2.5 2.5 0 0 1 4.86 0l1.38 5.53a1 1 0 0 1-1 1.24z" fill="#231f20"/></symbol><symbol viewBox="0 0 24 24" id="xstorage_alt"><path d="M0 0h24v24H0z" fill="none"/><path d="M18 2H6a2 2 0 0 0-2 2v16a2 2 0 0 0 2 2h11l3-3V4a2 2 0 0 0-2-2z"/></symbol></svg>
