<svg xmlns="http://www.w3.org/2000/svg" width="24" height="24" viewBox="0 0 24 24"><title>incident_active</title><path d="M0 0h24v24H0z" fill="none"/><path d="M3 12a6 6 0 0 1 4-5.65V4.26a8 8 0 0 0 0 15.48v-2.09A6 6 0 0 1 3 12z"/><path d="M15 4a8 8 0 1 0 8 8 8 8 0 0 0-8-8zm-2.77 2.79l.71.71a3.46 3.46 0 0 0-1.44 2.81h-1a4.49 4.49 0 0 1 1.73-3.52zM15 17a1 1 0 0 1-1-1h2a1 1 0 0 1-1 1zm4-2h-8v-1l1.33-1v-2.33A2.66 2.66 0 0 1 14 8.2V8a1 1 0 0 1 2 0v.2a2.66 2.66 0 0 1 1.67 2.47V13L19 14zm-.5-4.69a3.46 3.46 0 0 0-1.44-2.81l.71-.71a4.49 4.49 0 0 1 1.73 3.52z"/></svg>