<svg width="24" height="24" viewBox="0 0 24 24" xmlns="http://www.w3.org/2000/svg"><path d="M19 4H9v1.037c1.186.15 1.883.73 2.428 1.185l.012.01c.567.472.932.768 1.76.768.324 0 .578-.045.8-.129V5l3 3-3 3V8.933c-.244.043-.51.067-.8.067-1.562 0-2.397-.696-3.028-1.222l-.012-.01C9.593 7.296 9.228 7 8.4 7s-1.193.296-1.76.768l-.012.01C5.997 8.304 5.162 9 3.6 9A4.18 4.18 0 0 1 2 8.705v-2.34c.482.394.852.635 1.6.635.828 0 1.193-.296 1.76-.768l.012-.01c.41-.342.904-.754 1.628-1.002V4a2 2 0 0 1 2-2h10a2 2 0 0 1 2 2v16a2 2 0 0 1-2 2H9a2 2 0 0 1-2-2v-2.523c.395-.3.758-.477 1.4-.477.231 0 .426.023.6.067V20h10V4z"/><path d="M8.4 9c.231 0 .426.023.6.067v3.97c1.186.15 1.883.73 2.428 1.185l.012.01c.567.472.932.768 1.76.768.324 0 .578-.045.8-.129V13l3 3-3 3v-2.067c-.244.043-.51.067-.8.067-1.562 0-2.397-.695-3.028-1.222l-.012-.01C9.593 15.296 9.228 15 8.4 15s-1.193.296-1.76.768l-.012.01C5.997 16.305 5.162 17 3.6 17a4.181 4.181 0 0 1-1.6-.295v-2.34c.482.394.852.635 1.6.635.828 0 1.193-.296 1.76-.768l.012-.01c.41-.341.904-.754 1.628-1.002V9.477c.395-.3.758-.477 1.4-.477z"/></svg>