<svg width="24" height="24" viewBox="0 0 24 24" xmlns="http://www.w3.org/2000/svg">
<path fill-rule="evenodd" clip-rule="evenodd" d="M9.2 6.30002L10.6 7.70002L12 6.30002L17.7 12L16.3 13.4L17.7 14.8L19.5 13C20.1 12.4 20.1 11.5 19.5 10.9L13.8 5.20002C12.8 4.20002 11.2 4.20002 10.3 5.20002L9.2 6.30002ZM10.6 3.50002L9.2 2.10002L7.1 4.20002L8.5 5.60002L10.6 3.50002ZM19.8 16.9L21.9 14.8L20.5 13.4L18.4 15.5L19.8 16.9ZM21.2 16.9L20.5 17.6L21.9 19L22.6 18.3L21.2 16.9ZM7.1 2.80002L5.6 1.40002L4.9 2.10002L6.3 3.50002L7.1 2.80002ZM19.3 19.3L2.1 2.10002L0.699997 3.50002L2.1 4.90002L1.4 5.60002L2.8 7.00002L3.5 6.30002L4.2 7.00002L2.1 9.20002L3.5 10.6L5.6 8.50002L6.3 9.20002L4.5 11C3.9 11.6 3.9 12.5 4.5 13.1L10.2 18.8C11.2 19.8 12.8 19.8 13.7 18.8L14.8 17.7L15.5 18.4L13.4 20.5L14.8 21.9L16.9 19.8L17.6 20.5L16.9 21.2L18.3 22.6L19 21.9L20.4 23.3L21.8 21.9L20.4 20.5L19.3 19.3ZM12 17.7L6.3 12L7.7 10.6L13.4 16.3L12 17.7Z" />
</svg>
