<svg width="24" height="24" viewBox="0 0 24 24" xmlns="http://www.w3.org/2000/svg"><path fill-rule="evenodd" clip-rule="evenodd" d="M9.2 6.3l1.4 1.4L12 6.3l5.7 5.7-1.4 1.4 1.4 1.4 1.8-1.8c.6-.6.6-1.5 0-2.1l-5.7-5.7c-1-1-2.6-1-3.5 0L9.2 6.3zm1.4-2.8L9.2 2.1 7.1 4.2l1.4 1.4 2.1-2.1zm9.2 13.4l2.1-2.1-1.4-1.4-2.1 2.1 1.4 1.4zm1.4 0l-.7.7 1.4 1.4.7-.7-1.4-1.4zM7.1 2.8L5.6 1.4l-.7.7 1.4 1.4.8-.7zm12.2 16.5L2.1 2.1.7 3.5l1.4 1.4-.7.7L2.8 7l.7-.7.7.7-2.1 2.2 1.4 1.4 2.1-2.1.7.7L4.5 11c-.6.6-.6 1.5 0 2.1l5.7 5.7c1 1 2.6 1 3.5 0l1.1-1.1.7.7-2.1 2.1 1.4 1.4 2.1-2.1.7.7-.7.7 1.4 1.4.7-.7 1.4 1.4 1.4-1.4-1.4-1.4-1.1-1.2zM12 17.7L6.3 12l1.4-1.4 5.7 5.7-1.4 1.4z"/></svg>