<svg width="24" height="24" viewBox="0 0 24 24" xmlns="http://www.w3.org/2000/svg">
<path d="M14.1206 2.22375L11.2005 7.47981L8.59848 5.39816L6.62628 9.99997H8.80221L9.40144 8.60178L11.1492 9.99997H12.0884L13.8793 6.77619L15.247 9.99997H17.4195L14.1206 2.22375Z" />
<path d="M19.965 16H17.7925L20.0794 21.3906L21.9205 20.6095L19.965 16Z" />
<path d="M6.2308 16H4.05486L2.08081 20.6061L3.9191 21.3939L6.2308 16Z" />
<path d="M2.99991 12H4.99991V14H2.99991V12Z" />
<path d="M6.99991 12H8.99991V14H6.99991V12Z" />
<path d="M10.9999 12H12.9999V14H10.9999V12Z" />
<path d="M14.9999 12H16.9999V14H14.9999V12Z" />
<path d="M18.9999 12H20.9999V14H18.9999V12Z" />
</svg>
