<?xml version="1.0" encoding="utf-8"?>

<svg version="1.1" id="Layer_1" xmlns="http://www.w3.org/2000/svg" xmlns:xlink="http://www.w3.org/1999/xlink" x="0px" y="0px"
	 width="24px" height="24px" viewBox="0 0 24 24" enable-background="new 0 0 24 24" xml:space="preserve">
<path d="M14,11.5c1.4,0,2.5-1.1,2.5-2.5S15.4,6.5,14,6.5S11.5,7.6,11.5,9S12.6,11.5,14,11.5 M14,2c3.9,0,7,3.1,7,7c0,5.2-7,13-7,13
	S7,14.2,7,9C7,5.1,10.1,2,14,2 M5,9c0,4.5,5.1,10.7,6,11.8L10,22c0,0-7-7.8-7-13c0-3.2,2.1-5.8,5-6.7C6.2,3.9,5,6.3,5,9z"/>
<rect fill="none" width="24" height="24"/>
</svg>
