<svg width="24" height="24" viewBox="0 0 24 24" xmlns="http://www.w3.org/2000/svg"><path d="M14.07 10.887L15.238 15h1.469l1.152-4.105h.035c-.03.62-.049 1.009-.054 1.168-.003.158-.004.303-.004.433V15h1.418V9.29h-2.059l-1.168 4.054h-.03l-1.192-4.055H12.75V15h1.367v-2.48c0-.388-.027-.933-.082-1.633h.035z"/><path fill-rule="evenodd" clip-rule="evenodd" d="M16 19a7 7 0 1 0-6.93-8H7v-1a2 2 0 0 0-2-2H3a2 2 0 0 0-2 2v4a2 2 0 0 0 2 2h2a2 2 0 0 0 2-2v-1h2.07A7.002 7.002 0 0 0 16 19zm0-1.5a5.5 5.5 0 1 0 0-11 5.5 5.5 0 0 0 0 11z"/></svg>