<svg xmlns="http://www.w3.org/2000/svg" width="24" height="24" viewBox="0 0 24 24"><title>pepper</title><path d="M20 8.73a3 3 0 0 0-3-2.83 3.11 3.11 0 0 0-1.52.4 4.82 4.82 0 0 0-1.55-1 3 3 0 0 1 1.6-1.52L14.8 2A5 5 0 0 0 12 5a2.91 2.91 0 0 0-3 1.92 15.34 15.34 0 0 0-.41 3.57 23.33 23.33 0 0 0 1.05 5.62A10.39 10.39 0 0 1 7.56 11a12.36 12.36 0 0 1 .22-4.3 5.7 5.7 0 0 0-1.37 0A2.86 2.86 0 0 0 4 9.2c-.21 2.68 1.16 7.64 2 9.93C6.51 20.51 7.8 22 9 22c.87-.06 1.53 0 2-.95a3.73 3.73 0 0 0 3.37.95A4.69 4.69 0 0 0 18 19.13a25.1 25.1 0 0 0 2-10.4z"/></svg>