<svg width="24" height="24" viewBox="0 0 24 24" xmlns="http://www.w3.org/2000/svg"><path fill-rule="evenodd" clip-rule="evenodd" d="M2 19h20v-2H11.9v-.5c0-1.9-1.1-3.6-2.7-4.4l5.5-8L13.1 3 2 19zm7.9-2H5.8L8 13.7c1.1.5 1.9 1.5 1.9 2.8v.5z"/><path fill-rule="evenodd" clip-rule="evenodd" d="M16.5 15.5V14h-.4c-1.652 0-3-1.348-3-3s1.348-3 3-3h.4V6.5h2V8h.5c1.652 0 3 1.348 3 3s-1.348 3-3 3h-.5v1.5h-2zM19 12h-.5v-2h.5c.548 0 1 .452 1 1s-.452 1-1 1zm-2.9 0h.4v-2h-.4c-.548 0-1 .452-1 1s.452 1 1 1z"/></svg>