<?xml version="1.0" encoding="utf-8"?>

<svg version="1.1" id="Layer_1" xmlns="http://www.w3.org/2000/svg" xmlns:xlink="http://www.w3.org/1999/xlink" x="0px" y="0px"
	 width="24px" height="24px" viewBox="0 0 24 24" enable-background="new 0 0 24 24" xml:space="preserve">
<path d="M13,1c1.7,0,3,1.3,3,3s-1.3,3-3,3s-3-1.3-3-3S11.3,1,13,1 M20,14c0-2.4-1.8-4.4-4.5-5.4C15,9.4,14.1,10,13,10
	c-1.2,0-2.3-0.8-2.8-1.8c-0.2,0-0.5,0.1-0.7,0.1L7,7v2.3c-1.5,0.9-2.6,2.2-2.9,3.7H2v4h3.1c0.5,0.6,1.2,1.2,1.9,1.7V22h2v-2.4
	c0.9,0.3,1.9,0.4,3,0.4s2.1-0.2,3-0.4V22h2v-3.3c1.1-0.7,2-1.6,2.5-2.7H22v-2H20 M7,13c-0.6,0-1-0.4-1-1s0.4-1,1-1s1,0.4,1,1
	S7.6,13,7,13z"/>
<rect fill="none" width="24" height="24"/>
</svg>
