<svg xmlns="http://www.w3.org/2000/svg" width="24" height="24" viewBox="0 0 24 24">
  <title>px_power_circled_24px</title>
  <path d="M0,0H24V24H0Z" fill="none"/>
  <g>
    <path d="M12.63,8.69h-1v3h.71a2.36,2.36,0,0,0,1.48-.39,1.36,1.36,0,0,0,.49-1.14,1.44,1.44,0,0,0-.41-1.12A2,2,0,0,0,12.63,8.69Z"/>
    <path d="M12,2A10,10,0,1,0,22,12,10,10,0,0,0,12,2Zm3.48,10.6a4.41,4.41,0,0,1-2.91.86h-.92v3.61H9.5V6.93h3.24a4.29,4.29,0,0,1,2.8.8,2.89,2.89,0,0,1,1,2.36A3.12,3.12,0,0,1,15.48,12.6Z"/>
  </g>
</svg>
