<svg width="24" height="24" viewBox="0 0 24 24" xmlns="http://www.w3.org/2000/svg"><path d="M16 7.4c-.9 0-1.7-.2-2.5-.5L9.6 5c-1.4-.7-3.7-.3-4.7.8L3.8 7 2.4 5.6l1.1-1.2c1.6-1.8 4.8-2.4 7-1.3l4 1.9c1.4.7 3.7.3 4.7-.8l1-1.2 1.5 1.3-1.1 1.2c-1.1 1.2-2.8 1.9-4.6 1.9zM18.9 22.1l-.8-2.7H14l-.8 2.7h-2.6l4-11.4h2.9l4 11.4h-2.6zm-1.4-4.8c-.8-2.5-1.2-3.8-1.3-4.2-.1-.4-.2-.5-.2-.7-.2.7-.7 2.3-1.5 4.9h3zM10.7 10.9h2.4L9.3 22H6.7L3 10.9h2.4l2.1 6.6c.1.4.2.8.4 1.4.1.5.2.9.2 1.1.1-.5.2-1.3.6-2.5l2-6.6z"/></svg>