<svg width="24" height="24" viewBox="0 0 24 24" xmlns="http://www.w3.org/2000/svg"><path d="M16.7 22.1H14l-1.5-5.8c-.1-.2-.2-.6-.3-1.3-.1-.6-.2-1.1-.2-1.3 0 .3-.1.7-.2 1.3-.1.6-.2 1-.3 1.3L10 22.1H7.3L4.5 11h2.3l1.4 6c.2 1.1.4 2.1.5 2.9 0-.3.1-.7.2-1.3.1-.6.2-1.1.3-1.4l1.6-6.2H13l1.6 6.2c.1.3.2.7.3 1.3.1.6.2 1.1.2 1.5.1-.4.1-.9.2-1.5s.2-1.1.3-1.4l1.4-6h2.3l-2.6 11zM16 7.4c-.9 0-1.7-.2-2.5-.5L9.6 5c-1.4-.7-3.7-.3-4.7.8L3.8 7 2.4 5.6l1.1-1.2c1.6-1.8 4.8-2.4 7-1.3l4 1.9c1.4.7 3.7.3 4.7-.8l1-1.2 1.5 1.3-1.1 1.2c-1.1 1.2-2.8 1.9-4.6 1.9z"/></svg>