<svg xmlns="http://www.w3.org/2000/svg" width="24" height="24" viewBox="0 0 24 24"><path d="M13 19v-1.07A8 8 0 0 0 20 10a8 8 0 1 0-9 7.93V19H2v3h20v-3zm-5.24-4.76a6 6 0 0 1-1.64-3.07 5.9 5.9 0 0 1 .34-3.47 6 6 0 1 1 7.84 7.84 5.9 5.9 0 0 1-3.47.34 6 6 0 0 1-3.07-1.64z"/><path d="M13.05 14.05A1.39 1.39 0 0 0 13.5 13c-.17-1.9-1.5-7.5-1.5-7.5s-1.33 5.6-1.5 7.5a1.39 1.39 0 0 0 .5 1.05 1.45 1.45 0 0 0 2.1 0zM7 10h1v1H7zM16 10h1v1h-1zM15 7h1v1h-1zM8 7h1v1H8zM10 5h1v1h-1zM13 5h1v1h-1zM10 17h4v3h-4z"/></svg>