<svg xmlns="http://www.w3.org/2000/svg" width="24" height="24" viewBox="0 0 24 24">
  <title>pxgreen</title>
  <path d="M12,23A11,11,0,1,1,23,12,11,11,0,0,1,12,23ZM12,3a9,9,0,1,0,9,9A9,9,0,0,0,12,3Z"/>
  <rect width="24" height="24" fill="none"/>
  <path d="M17.58,7.83h-.72V6.68a.68.68,0,0,0-1.36,0V7.83H14.07V6.68a.68.68,0,1,0-1.36,0V7.83H11.28V6.68a.69.69,0,0,0-1.37,0V7.83H8.49V6.68a.69.69,0,0,0-1.37,0V7.83H6.42a.7.7,0,0,0-.7.7v7a.7.7,0,0,0,.7.7h.71v1.1a.69.69,0,0,0,1.37,0v-1.1H9.92v1.1a.69.69,0,0,0,1.37,0v-1.1h1.43v1.1a.68.68,0,0,0,1.36,0v-1.1h1.43v1.1a.68.68,0,1,0,1.36,0v-1.1h.71a.7.7,0,0,0,.7-.7v-7A.7.7,0,0,0,17.58,7.83Z"/>
</svg>
