<svg width="24" height="24" viewBox="0 0 24 24" xmlns="http://www.w3.org/2000/svg"><path fill-rule="evenodd" clip-rule="evenodd" d="M9.527 5.495c0 .861-.27 1.52-.81 1.976-.536.456-1.3.684-2.293.684h-.728V11H4V3h2.555c.97 0 1.708.21 2.211.63.507.415.76 1.037.76 1.865zm-3.83 1.27h.557c.522 0 .912-.102 1.171-.307.26-.208.389-.509.389-.903 0-.397-.11-.69-.328-.88-.216-.19-.555-.285-1.018-.285h-.772v2.375z"/><path d="M16 6l3-3 3 3h-2v14h-2V6h-2zM6 20H4v-1h2v1zM8 20h3v-1H8v1zM12.818 11.889l-2.121 2.12-.707-.706 2.121-2.122.707.708zM13 20h3v-1h-3v1zM6.278 17.014h1.415l1.59-1.59-.708-.707-2.297 2.297z"/><path d="M13.525 9.767l1.764-1.763h1.414l-2.47 2.47-.708-.707z"/></svg>