<svg width="24" height="24" viewBox="0 0 24 24"  xmlns="http://www.w3.org/2000/svg">
<path d="M18.6523 4.64072L20.9998 2.29324V3.70746L19.3595 5.34782L18.6523 4.64072Z" />
<path d="M8.60739 11.0125H4V3.01254H8.60739V4.40242H5.69631V6.15892H8.40493V7.54879H5.69631V9.61172H8.60739V11.0125Z" />
<path d="M19 16L22 19L19 22V20H4V18H19V16Z" />
<path d="M21 12.011V15.011H20V12.011H21Z" />
<path d="M21 9.99847V6.99847H20V9.99847H21Z" />
<path d="M14.4099 10.2977L12.2886 12.419L11.5815 11.7119L13.7028 9.59056L14.4099 10.2977Z" />
<path d="M15.8243 8.8834L17.9456 6.76208L17.2385 6.05497L15.1171 8.17629L15.8243 8.8834Z" />
<path d="M7.28565 16.0078H8.69986L10.8745 13.8331L10.1674 13.126L7.28565 16.0078Z" />
</svg>
