<svg width="24" height="24" viewBox="0 0 24 24" xmlns="http://www.w3.org/2000/svg"><path d="M18.653 4.64L21 2.294v1.414l-1.64 1.64-.707-.706z"/><path fill-rule="evenodd" clip-rule="evenodd" d="M9.527 5.495c0 .861-.27 1.52-.81 1.976-.536.456-1.3.684-2.293.684h-.728V11H4V3h2.555c.97 0 1.708.21 2.211.63.507.415.76 1.037.76 1.865zm-3.83 1.27h.557c.522 0 .912-.102 1.171-.307.26-.208.389-.509.389-.903 0-.397-.11-.69-.328-.88-.216-.19-.555-.285-1.018-.285h-.772v2.375z"/><path d="M19 16l3 3-3 3v-2H4v-2h15v-2zm2-3.989v3h-1v-3h1zm0-2.013v-3h-1v3h1zm-6.59.3l-2.121 2.121-.707-.707 2.12-2.121.708.707zm1.414-1.415l2.122-2.12-.708-.708-2.12 2.121.706.707zm-8.538 7.125H8.7l2.175-2.175-.708-.707-2.881 2.882z"/></svg>