<svg xmlns="http://www.w3.org/2000/svg" width="24" height="24" viewBox="0 0 24 24"><path d="M24 8.89l-8.94-3.25a1.9 1.9 0 0 0-2.45 1.14 1.09 1.09 0 0 0 .65 1.39 3.8 3.8 0 0 0 1.74.21l.4-.05a4 4 0 0 1 1.77.21l3.21 1.17-5.73.52a29 29 0 0 1-5.43 0l-5.65-.51L6.8 8.54a4 4 0 0 1 1.77-.21l.4.05a3.8 3.8 0 0 0 1.77-.21 1.09 1.09 0 0 0 .65-1.39 1.9 1.9 0 0 0-2.45-1.14L0 8.89v1.4a1.29 1.29 0 0 0 0 .19v2h.62a5.76 5.76 0 0 0 5.08 6 5.12 5.12 0 0 0 .56 0h2.46a3 3 0 0 0 2.12-.88l.42-.41a1 1 0 0 1 .7-.3 1 1 0 0 1 .71.3l.41.41a3 3 0 0 0 2.13.88h2.45a5.44 5.44 0 0 0 .57 0 5.77 5.77 0 0 0 5.08-6H24V11zm-3 6.38A4 4 0 0 1 18.09 17H15.21a1.54 1.54 0 0 1-1.07-.44l-.41-.42a2.5 2.5 0 0 0-3.53 0l-.42.42a1.5 1.5 0 0 1-1.06.44H5.84A4 4 0 0 1 3 15.27a4.51 4.51 0 0 1-.82-2.16 1 1 0 0 1 1-1.13h6.43l.79.4a3.5 3.5 0 0 0 1.56.36 3.57 3.57 0 0 0 1.57-.36l.79-.4h6.47a1 1 0 0 1 1 1.13 4.42 4.42 0 0 1-.79 2.16z"/></svg>