<svg width="24" height="24" viewBox="0 0 24 24" xmlns="http://www.w3.org/2000/svg"><path d="M14.83 1.83l1.41 1.41A5.939 5.939 0 0 1 12 5a5.94 5.94 0 0 1-4.24-1.76l1.42-1.42A4 4 0 0 0 12 3a4 4 0 0 0 2.83-1.17z"/><path d="M17.65 4.65l1.42 1.42A10 10 0 0 1 12 9a10 10 0 0 1-7.07-2.93l1.42-1.42A7.94 7.94 0 0 0 12 7a7.94 7.94 0 0 0 5.65-2.35z"/><path fill-rule="evenodd" clip-rule="evenodd" d="M18 11h-4a2 2 0 0 1-4 0H6a2 2 0 0 0-2 2v9h16v-9a2 2 0 0 0-2-2zM6 18v-3h12v3H6z"/><path d="M13 11a1 1 0 1 1-2 0 1 1 0 0 1 2 0z"/></svg>