<svg width="24" height="24" viewBox="0 0 24 24" xmlns="http://www.w3.org/2000/svg"><path d="M13.5 4.5a1.5 1.5 0 0 1-.75 1.3v7.792l7.067 4.572a1.5 1.5 0 1 1-.815 1.26L12 14.894l-7.002 4.53L5 19.5a1.5 1.5 0 1 1-.816-1.336l7.066-4.572V5.799A1.5 1.5 0 1 1 13.5 4.5z"/><path d="M8.07 11.807a4.5 4.5 0 0 1 1.976-1.86l-.652-1.352a6 6 0 0 0-3.162 7.056l1.337-.866a4.505 4.505 0 0 1 .501-2.978zm1.396 5.912a4.503 4.503 0 0 0 5.064.002l1.338.866a5.998 5.998 0 0 1-7.739-.003l1.337-.865zm8.302-2.069a6 6 0 0 0-.767-4.964l1.192-1.192h-3.5v3.5l1.219-1.219a4.5 4.5 0 0 1 .519 3.01l1.337.866z"/></svg>