<svg width="24" height="24" viewBox="0 0 24 24" xmlns="http://www.w3.org/2000/svg"><path fill-rule="evenodd" clip-rule="evenodd" d="M20 4H4v2h16V4zM2 2v4a2 2 0 0 0 2 2h16a2 2 0 0 0 2-2V2H2z"/><path fill-rule="evenodd" clip-rule="evenodd" d="M4 6l1.08 7.293A2 2 0 0 0 7.06 15h9.882a2 2 0 0 0 1.979-1.707L20 6H4zm2.318 2l.74 5h9.883l.74-5H6.319z"/><path d="M8.5 9H10l.5 3H9l-.5-3z"/><path fill-rule="evenodd" clip-rule="evenodd" d="M8.493 16l.507.619.507.619.001-.001.002-.002v.001c-.004.002-.01.008-.019.016a2.704 2.704 0 0 0-.346.386c-.2.274-.345.585-.345.89 0 .259.093.41.345.754l.021.028c.25.34.634.863.634 1.673 0 .807-.374 1.4-.71 1.767a3.13 3.13 0 0 1-.676.554l-.018.01-.007.004-.003.002h-.002L8 22.62l-.383-.702h-.002l-.002.002-.002.001-.002.001.011-.007.066-.044a1.53 1.53 0 0 0 .224-.2c.164-.18.29-.404.29-.688 0-.258-.093-.41-.345-.754l-.02-.028c-.25-.339-.635-.863-.635-1.672 0-.786.356-1.43.655-1.837a4.308 4.308 0 0 1 .614-.67l.015-.014.006-.004.002-.002.001-.001zM12.493 16l.507.619.507.619.001-.001.002-.002v.001l-.019.016a2.713 2.713 0 0 0-.346.386c-.2.274-.345.585-.345.89 0 .259.093.41.345.754l.021.028c.25.34.634.863.634 1.673 0 .807-.374 1.4-.71 1.767a3.13 3.13 0 0 1-.676.554l-.018.01-.007.004-.003.002h-.002L12 22.62l-.383-.702h-.002l-.002.002-.002.001-.002.001.011-.007a1.53 1.53 0 0 0 .29-.245c.164-.178.29-.403.29-.686 0-.26-.093-.41-.345-.755l-.02-.028c-.25-.339-.635-.863-.635-1.672 0-.786.356-1.43.655-1.837a4.299 4.299 0 0 1 .614-.67l.015-.014.006-.004.002-.002.001-.001zM16.493 16l.507.619.507.619.001-.001.002-.002v.001c-.004.002-.01.008-.019.016a2.713 2.713 0 0 0-.346.386c-.2.274-.345.585-.345.89 0 .259.093.41.345.754l.021.028c.25.34.634.863.634 1.673 0 .807-.374 1.4-.71 1.767a3.13 3.13 0 0 1-.676.554l-.018.01-.007.004-.003.002h-.002L16 22.62l-.383-.702h-.002l-.002.002-.002.001-.002.001.011-.007a1.53 1.53 0 0 0 .29-.245c.164-.178.29-.403.29-.686 0-.26-.093-.41-.345-.755l-.02-.028c-.25-.339-.635-.863-.635-1.672 0-.786.356-1.43.655-1.837a4.299 4.299 0 0 1 .614-.67l.015-.014.006-.004.002-.002.001-.001z"/></svg>