<svg xmlns="http://www.w3.org/2000/svg" width="24" height="24" viewBox="0 0 24 24">
	<path d="M12,8.5H7L4,11H3c-1.11,0-2,0.89-2,2v3h2.17C3.6,17.2,4.73,18,6,18s2.4-0.8,2.82-2h6.35c0.43,1.2,1.56,2,2.83,2
		s2.4-0.8,2.82-2H23v-1c0-1.11-1.03-1.47-2-2L12,8.5 M5.25,12l2.25-2h4l4,2H5.25 M6,13.5c0.83,0,1.5,0.67,1.5,1.5S6.83,16.5,6,16.5
		S4.5,15.83,4.5,15S5.17,13.5,6,13.5 M18,13.5c0.83,0,1.5,0.67,1.5,1.5s-0.67,1.5-1.5,1.5s-1.5-0.67-1.5-1.5S17.17,13.5,18,13.5z"/>
	<rect fill="none" width="24" height="24"/>
</svg>
