<svg xmlns="http://www.w3.org/2000/svg" width="24" height="24" viewBox="0 0 24 24"><title>sunflower</title><path d="M13.5 2l-2 2h-2v2l-2 2 2.06 2.12L9.5 12h2l2 2 2-2h2v-2l2-2-2-2V4h-2zm0 3.5A2.5 2.5 0 1 1 11 8a2.47 2.47 0 0 1 2.45-2.5zM2.5 13c.21 1.21 1.27 7 5 7a4.39 4.39 0 0 0 2.56-.75 1.22 1.22 0 0 1 .22.44A9 9 0 0 1 10.5 22h2v-1a2.69 2.69 0 0 1 1.75-2.16A2.89 2.89 0 0 0 16.5 20c2.9 0 5-5.08 5-6h-5c-1.77 0-3 .72-3 2.56A6.29 6.29 0 0 1 17 16a10.65 10.65 0 0 0-2.09.44l-.19.06-.28.1a6.33 6.33 0 0 0-.94.37 6.58 6.58 0 0 0-1.75 1.16C10.52 15.7 8.06 15.4 6.5 15c1.61 0 4 .67 5 2a3.86 3.86 0 0 0-3.72-4H2.5z"/></svg>