<svg width="24" height="24" viewBox="0 0 24 24" xmlns="http://www.w3.org/2000/svg">
<path d="M12 15C7.58 15 4 16.79 4 19V21H20V19C20 16.79 16.42 15 12 15ZM8 9C8 10.0609 8.42143 11.0783 9.17157 11.8284C9.92172 12.5786 10.9391 13 12 13C13.0609 13 14.0783 12.5786 14.8284 11.8284C15.5786 11.0783 16 10.0609 16 9H8ZM11.5 2C11.2 2 11 2.21 11 2.5V5.5H10V3C10 3 7.75 3.86 7.75 6.75C7.75 6.75 7 6.89 7 8H17C16.95 6.89 16.25 6.75 16.25 6.75C16.25 3.86 14 3 14 3V5.5H13V2.5C13 2.21 12.81 2 12.5 2H11.5Z"/>
</svg>
