<svg width="24" height="24" viewBox="0 0 24 24" xmlns="http://www.w3.org/2000/svg"><path d="M18.456 14.673c.036.848-.082 1.767-.19 2.687-.01.091-.028.183-.055.265-.055.236-.173.446-.454.4-.281-.054-.345-.282-.3-.528.091-.601.137-1.202.191-1.803.154-1.74 0-3.462-.426-5.147-.69-2.705-3.421-4.417-6.134-3.925-2.804.51-4.755 3.015-4.5 5.82.072.801.299 1.585.244 2.395-.009.164-.009.337-.045.501-.045.219-.154.42-.417.392-.282-.027-.381-.246-.354-.492.036-.391.063-.783.009-1.175-.136-1.047-.336-2.095-.136-3.16C6.442 7.96 9 5.775 11.969 5.757c2.92-.019 5.543 2.14 6.115 5.046.245 1.247.399 2.513.372 3.87z"/><path d="M21.096 11.112c.01.328.027.601-.308.638-.318.036-.4-.219-.445-.474-.209-1.43-.599-2.796-1.452-3.98-2.114-2.942-4.981-4.099-8.51-3.507-3.213.537-5.826 3.17-6.534 6.394-.063.292-.054.738-.517.638-.49-.1-.3-.52-.227-.83.89-3.888 4.147-6.721 8.021-7.104 4.61-.455 9.038 2.751 9.863 7.615.046.237.082.464.11.61z"/><path d="M12.14 2.223c-4.945-.173-9.409 3.597-9.908 8.99-.09.992.045 1.967.2 2.941.154.938-.127 1.767-.708 2.505-.163.21-.372.419-.644.191-.282-.227-.118-.464.054-.674.554-.674.626-1.448.481-2.277C.608 7.851 4.5 2.441 10.562 1.503c.88-.137 1.778-.173 2.667-.027.254.045.509.109.49.428-.027.355-.3.346-.571.337-.336-.028-.672-.018-1.008-.018zM14.11 14.628c-.046 3.315-1.035 6.312-3.013 8.98-.163.22-.345.492-.662.265-.3-.219-.155-.474.018-.71 1.497-2.023 2.431-4.282 2.758-6.786a14 14 0 0 0-.163-4.564c-.127-.646-.69-.983-1.325-.847-.535.119-.871.656-.753 1.266.281 1.494.317 2.979.045 4.473-.054.3-.054.737-.499.674-.454-.064-.317-.465-.263-.775.236-1.375.245-2.741-.027-4.107-.236-1.194.38-2.114 1.524-2.323.99-.182 1.897.528 2.105 1.658.064.346.127.683.154 1.029.046.583.137 1.175.1 1.767zM22.811 14.682c.045.802-.036 1.658-.127 2.514-.027.283-.036.692-.472.629-.417-.064-.335-.437-.3-.738.3-2.514.191-5.01-.426-7.45-.844-3.38-2.967-5.657-6.206-6.904-.073-.028-.145-.046-.218-.073-.218-.091-.39-.228-.308-.483.09-.273.317-.3.562-.228a8.426 8.426 0 0 1 1.788.774c3.166 1.831 4.927 4.61 5.435 8.216.172 1.22.308 2.441.272 3.743z"/><path d="M11.823 7.214c.181 0 .245-.01.3 0 .262.027.562.073.57.4.01.365-.299.41-.589.41-1.524-.027-2.686.61-3.493 1.895-.536.856-.708 1.794-.518 2.796.608 3.288-.28 6.12-2.622 8.489a2.365 2.365 0 0 1-.272.246c-.2.164-.417.219-.599 0-.172-.2-.082-.4.082-.565.49-.473.962-.965 1.343-1.53 1.26-1.885 1.787-3.953 1.333-6.184-.607-3.06 1.443-5.83 4.465-5.957zM17.013 14.31c-.01 3.396-.772 6.32-2.296 9.053-.027.054-.054.109-.09.154-.146.237-.336.383-.6.22-.244-.147-.2-.383-.072-.602a17.8 17.8 0 0 0 .835-1.667c1.007-2.268 1.47-4.645 1.451-7.122a14.86 14.86 0 0 0-.38-3.288 3.804 3.804 0 0 0-1.452-2.241c-.155-.118-.327-.228-.472-.346-.154-.128-.245-.282-.127-.474.118-.2.3-.246.508-.146.508.256.925.61 1.297 1.048.735.865 1.053 1.894 1.198 2.997.11.892.227 1.776.2 2.413zM12.022.018c1.733-.118 3.358.292 4.927.993.046.018.082.037.127.055.264.11.481.264.354.583-.136.328-.408.237-.653.118-.853-.4-1.742-.72-2.668-.856C9.7.219 6.034 1.567 3.166 5.028c-.19.237-.363.647-.744.364-.408-.3-.045-.6.145-.847C4.627 1.968 7.304.465 10.57.027c.472-.063.962-.009 1.452-.009zM19.917 14.345c.009 2.614-.39 4.9-1.17 7.123-.055.146-.11.282-.164.428-.091.237-.245.41-.517.31-.264-.1-.29-.319-.2-.565.118-.346.236-.683.345-1.038.671-2.095 1.007-4.254.925-6.458-.072-1.858-.172-3.734-1.08-5.438-.136-.255-.299-.491-.444-.746-.118-.21-.136-.42.072-.565.227-.164.4-.037.545.146.671.892 1.07 1.903 1.288 2.978.264 1.357.427 2.705.4 3.825zM4.618 14.437c-.045-.301-.108-.766-.172-1.23-.381-2.76.463-5.082 2.495-6.977.073-.073.164-.137.245-.2.173-.11.345-.11.49.045.155.155.127.337 0 .492-.118.137-.254.264-.38.392-1.806 1.785-2.487 3.925-2.033 6.43.38 2.104-.19 3.935-1.597 5.51-.182.2-.4.374-.617.538-.164.118-.345.127-.49-.037-.155-.182-.118-.364.036-.528.136-.145.281-.273.417-.419 1.044-1.075 1.561-2.359 1.606-4.016zM12.658 14.655c-.064 3.234-1.09 6.112-3.158 8.617-.045.054-.09.118-.145.173-.173.19-.381.282-.59.1-.2-.164-.154-.383-.009-.574.245-.328.508-.638.744-.975 1.534-2.14 2.296-4.545 2.396-7.177.027-.82-.082-1.63-.21-2.44-.017-.092-.036-.183-.045-.274-.018-.237.046-.437.309-.474.263-.045.39.119.436.355.181.884.28 1.777.272 2.67zM24 11.586v.546c0 .237-.064.437-.345.447-.281.009-.39-.192-.408-.447-.018-.455-.027-.91-.082-1.357-.381-3.224-1.878-5.82-4.428-7.806-.227-.182-.599-.355-.345-.71.245-.337.545-.082.78.1 3.05 2.314 4.601 5.42 4.828 9.227z"/><path d="M15.552 14.045v.41c-.009.246-.09.473-.38.473-.291 0-.364-.218-.373-.473-.045-.92-.118-1.84-.281-2.75-.336-1.84-2.16-2.779-3.739-1.914a2.407 2.407 0 0 0-1.134 1.312c-.027.073-.054.146-.072.219-.082.255-.182.528-.518.428-.363-.11-.29-.42-.208-.684.363-1.11 1.08-1.894 2.205-2.222 1.914-.565 3.756.565 4.192 2.55.19.866.263 1.758.308 2.65zM9.736 14.628c-.037 2.869-1.062 5.337-3.031 7.423l-.19.191c-.191.182-.418.292-.636.073-.236-.228-.1-.446.091-.628a10.053 10.053 0 0 0 1.67-2.14c1.016-1.768 1.479-3.662 1.297-5.712-.009-.154-.018-.3-.018-.455-.01-.246.054-.483.336-.5.29-.028.38.19.417.436.027.182.064.356.073.538 0 .255-.01.51-.01.774zM.009 12.087c-.036-1.922.38-3.625 1.143-5.256a1.7 1.7 0 0 1 .2-.355c.109-.146.263-.219.435-.128.19.092.263.256.19.456-.09.255-.208.5-.317.756C.744 9.728.517 11.968.998 14.282c.063.3.29.72-.2.838s-.49-.356-.553-.656c-.164-.82-.282-1.649-.236-2.377zM11.914 4.29c1.75.064 3.257.52 4.59 1.494.046.036.1.073.146.11.2.181.48.363.236.673-.236.31-.48.1-.708-.064-2.105-1.548-4.382-1.803-6.814-.892-.055.018-.109.045-.173.063-.217.082-.435.082-.544-.154-.127-.264.027-.438.254-.547a7.251 7.251 0 0 1 2.123-.601c.336-.036.663-.055.89-.082zM15.452 16.504a16.836 16.836 0 0 1-.998 4.035 15.474 15.474 0 0 1-1.533 2.988c-.064.1-.127.21-.21.3-.162.191-.371.228-.562.1-.208-.136-.172-.337-.063-.528.19-.328.408-.637.599-.965 1.025-1.786 1.687-3.69 1.95-5.739.01-.109.037-.209.064-.31.055-.218.19-.354.427-.327.245.036.326.228.326.446zM21.35 14.71c.027 1.758-.209 3.48-.617 5.182-.018.055-.027.119-.045.173-.082.264-.145.592-.517.492-.354-.09-.318-.391-.245-.674.19-.738.344-1.475.435-2.231.181-1.385.318-2.77.181-4.172-.027-.282.01-.555.336-.601.372-.045.445.255.454.546.027.429.018.857.018 1.285zM3.947 14.51c-.054 1.493-.572 2.677-1.606 3.633-.173.155-.363.246-.563.064-.208-.191-.181-.428.01-.6 1.37-1.249 1.56-2.797 1.179-4.51-.054-.245-.045-.51-.045-.764.009-.2.127-.356.335-.356a.349.349 0 0 1 .381.32c.118.764.218 1.53.309 2.212zM10.362 18.99c-.09.21-.209.484-.336.757-.544 1.157-1.243 2.213-2.132 3.133-.19.191-.4.373-.653.128-.236-.228-.091-.447.081-.629a11.812 11.812 0 0 0 2.287-3.57c.09-.219.227-.41.508-.328.209.063.272.227.245.51zM6.333 17.287a5.216 5.216 0 0 1-.118.337c-.463 1.093-1.161 2.004-2.041 2.788-.21.19-.454.3-.672.036-.209-.246-.036-.465.154-.62.844-.719 1.461-1.602 1.888-2.622.1-.228.227-.401.508-.347.181.055.272.192.281.428zM17.803 19.555c-.028.11-.046.228-.082.346-.3 1.02-.653 2.013-1.125 2.97-.118.246-.282.473-.59.328-.29-.137-.218-.401-.109-.629.454-.993.844-2.013 1.134-3.06.064-.246.19-.42.481-.365.209.046.29.2.29.41z"/></svg>