<svg width="24" height="24" viewBox="0 0 24 24" xmlns="http://www.w3.org/2000/svg"><path d="M8 2H7v2h1c.7 0 1.2.6 1.2 1.2S8.7 6.5 8 6.5H7v2h1c.7 0 1.2.6 1.2 1.2S8.7 11 8 11H3v2h5c.7 0 1.2.6 1.2 1.2s-.5 1.3-1.2 1.3H7v2h1c.7 0 1.2.6 1.2 1.2S8.7 20 8 20H7v2h1c1.8 0 3.2-1.5 3.2-3.2 0-.9-.4-1.7-.9-2.2.6-.6.9-1.4.9-2.2 0-.8-.4-1.7-.9-2.2.6-.6.9-1.4.9-2.2 0-.8-.4-1.7-.9-2.2.6-.6.9-1.4.9-2.2C11.2 3.5 9.8 2 8 2zm8 11h5v-2h-5c-.7 0-1.2-.6-1.2-1.2s.6-1.2 1.2-1.2h1v-2h-1c-.7 0-1.2-.6-1.2-1.2S15.3 4 16 4h1V2h-1c-1.8 0-3.2 1.5-3.2 3.2 0 .9.4 1.7.9 2.2-.6.6-.9 1.4-.9 2.2 0 .8.4 1.7.9 2.2-.6.6-.9 1.4-.9 2.2 0 .8.4 1.7.9 2.2-.6.6-.9 1.4-.9 2.2 0 1.8 1.5 3.2 3.2 3.2h1v-2h-1c-.7 0-1.2-.6-1.2-1.2s.6-1.2 1.2-1.2h1v-2h-1c-.7 0-1.2-.6-1.2-1.2s.5-1 1.2-1z"/></svg>