<?xml version="1.0" encoding="utf-8"?>
<!-- Generator: Adobe Illustrator 23.0.1, SVG Export Plug-In . SVG Version: 6.00 Build 0)  -->
<svg version="1.1" id="Layer_1" xmlns="http://www.w3.org/2000/svg" xmlns:xlink="http://www.w3.org/1999/xlink" x="0px" y="0px"
	 width="24px" height="24px" viewBox="0 0 24 24" enable-background="new 0 0 24 24" xml:space="preserve">
<path d="M11,21v-4.3c-0.5,0.2-1,0.3-1.5,0.3C7,17,5,15,5,12.5c0-1.3,0.5-2.4,1.4-3.2C6.1,8.7,6,8.1,6,7.5C6,5,8,3,10.5,3
	c1.6,0,2.9,0.8,3.8,2c0.1,0,0.2,0,0.2,0c3,0,5.5,2.5,5.5,5.5S17.5,16,14.5,16c-0.5,0-1-0.1-1.5-0.2V21H11z"/>
<rect fill="none" width="24" height="24"/>
</svg>
