<svg xmlns="http://www.w3.org/2000/svg" width="24" height="24" viewBox="0 0 24 24"><path d="M7 3.27A2 2 0 0 1 8 5a1.81 1.81 0 0 1-.07.52l3.55 3.55A1.81 1.81 0 0 1 12 9a2 2 0 0 1 2 2 2 2 0 0 1-1 1.73v1.77h4v3.77a2 2 0 0 1 .73.73H19v2h-1.27A2 2 0 0 1 16 22a2 2 0 0 1-2-2 2 2 0 0 1 1-1.73V16.5h-4v-3.77A2 2 0 0 1 10 11a1.81 1.81 0 0 1 .07-.52L6.52 6.93A1.81 1.81 0 0 1 6 7a2 2 0 0 1-2-2 2 2 0 0 1 1-1.73V2h2zM17 20a1 1 0 1 1-1-1 1 1 0 0 1 1 1zm-5-8a1 1 0 1 0-1-1 1 1 0 0 0 1 1zM7 5a1 1 0 1 1-1-1 1 1 0 0 1 1 1z" fill-rule="evenodd"/><path fill="none" d="M0 0h24v24H0z"/></svg>