<svg xmlns="http://www.w3.org/2000/svg" width="24" height="24" viewBox="0 0 24 24"><path d="M17.73 19a2.13 2.13 0 0 0-.73-.73V14.5h-4v-1.77A2 2 0 0 0 12 9a1.81 1.81 0 0 0-.52.07L7.93 5.52A1.81 1.81 0 0 0 8 5a2 2 0 0 0-1-1.73V2H5v1.27A2 2 0 0 0 6 7a1.81 1.81 0 0 0 .52-.07l3.55 3.55A1.81 1.81 0 0 0 10 11a2 2 0 0 0 1 1.73v3.77h4v1.77A2 2 0 1 0 17.73 21H19v-2zM6 6a1 1 0 1 1 1-1 1 1 0 0 1-1 1zm6 6a1 1 0 1 1 1-1 1 1 0 0 1-1 1zm4 9a1 1 0 1 1 1-1 1 1 0 0 1-1 1z" fill-rule="evenodd"/><path fill="none" d="M0 0h24v24H0z"/></svg>