<svg width="24" height="24" viewBox="0 0 24 24" xmlns="http://www.w3.org/2000/svg"><path d="M12.087 12.679h.26c.216 0 .386-.056.512-.166a.575.575 0 0 0 .192-.46c0-.328-.199-.492-.595-.492h-.37v1.118z"/><path fill-rule="evenodd" clip-rule="evenodd" d="M18 4.8c0-.28 0-.42-.055-.527a.5.5 0 0 0-.218-.218C17.62 4 17.48 4 17.2 4h-2.4c-.28 0-.42 0-.527.054a.5.5 0 0 0-.218.219C14 4.38 14 4.52 14 4.8V6h-4V4.8c0-.28 0-.42-.055-.527a.5.5 0 0 0-.218-.218C9.62 4 9.48 4 9.2 4H6.8c-.28 0-.42 0-.527.054a.5.5 0 0 0-.218.219C6 4.38 6 4.52 6 4.8V6H4c-1.11 0-2 .89-2 2v10c0 1.11.89 2 2 2h16c1.11 0 2-.89 2-2l-.01-10c0-1.11-.88-2-1.99-2h-2V4.8zm-8.467 5.7v2.997c0 .637-.197 1.13-.59 1.48-.392.349-.957.523-1.696.523-.723 0-1.278-.17-1.667-.509-.387-.34-.58-.827-.58-1.464V10.5h1.439v2.924c0 .344.07.593.21.749.14.155.346.232.62.232.292 0 .503-.076.633-.229.133-.155.2-.408.2-.758V10.5h1.431zm4.967 1.547c0 .543-.175.963-.525 1.26-.348.296-.843.443-1.486.443h-.402v1.75h-1.431v-5h1.833c.67 0 1.172.134 1.507.402.336.269.504.65.504 1.145zm4.25 2.714c.167-.235.25-.503.25-.805 0-.328-.09-.6-.268-.815-.177-.217-.493-.42-.95-.608-.475-.2-.768-.338-.876-.413-.107-.075-.16-.16-.16-.256 0-.089.043-.163.127-.223.085-.06.22-.09.406-.09.36 0 .787.104 1.283.313L19 10.849a4.416 4.416 0 0 0-1.678-.349c-.62 0-1.108.125-1.464.376-.355.25-.532.6-.532 1.048 0 .24.04.447.123.622.085.175.213.33.384.466.174.135.434.275.78.419.38.157.615.262.702.313.09.05.153.101.192.152a.26.26 0 0 1 .062.173c0 .107-.05.195-.149.263-.099.067-.255.1-.467.1-.247 0-.517-.035-.812-.106a4.587 4.587 0 0 1-.851-.303v1.17c.258.114.507.194.746.24.24.045.535.067.888.067.422 0 .79-.064 1.105-.193a1.63 1.63 0 0 0 .721-.546z"/></svg>