<svg width="24" height="24" viewBox="0 0 24 24" xmlns="http://www.w3.org/2000/svg"><path d="M9.533 10.5v2.997c0 .637-.197 1.13-.59 1.48-.392.349-.957.523-1.696.523-.723 0-1.278-.17-1.667-.509-.387-.34-.58-.827-.58-1.464V10.5h1.439v2.924c0 .344.07.593.21.749.14.155.346.232.62.232.292 0 .503-.076.633-.229.133-.155.2-.408.2-.758V10.5h1.431zM14.5 12.047c0 .543-.175.963-.525 1.26-.348.296-.843.443-1.486.443h-.402v1.75h-1.431v-5h1.833c.67 0 1.172.134 1.507.402.336.269.504.65.504 1.145zm-2.413.632h.26c.216 0 .386-.056.512-.166a.575.575 0 0 0 .192-.46c0-.328-.199-.492-.595-.492h-.37v1.118zM19 13.956c0 .302-.083.57-.25.806a1.63 1.63 0 0 1-.721.545 2.904 2.904 0 0 1-1.105.193c-.353 0-.649-.022-.888-.066a3.568 3.568 0 0 1-.747-.24v-1.171c.274.129.557.23.852.303.295.07.565.106.812.106.212 0 .368-.033.467-.1.1-.068.149-.156.149-.263a.26.26 0 0 0-.062-.173.631.631 0 0 0-.192-.153 7.974 7.974 0 0 0-.703-.312c-.345-.144-.605-.284-.779-.42-.171-.135-.3-.29-.384-.465a1.453 1.453 0 0 1-.123-.622c0-.448.177-.797.532-1.048.355-.25.843-.376 1.464-.376.549 0 1.108.116 1.678.35l-.438 1.014c-.496-.209-.923-.313-1.283-.313-.186 0-.321.03-.406.09-.085.06-.127.134-.127.223 0 .095.053.18.16.256.108.075.4.213.877.413.456.188.772.391.949.608.179.216.268.487.268.815z"/><path fill-rule="evenodd" clip-rule="evenodd" d="M18 4.8c0-.28 0-.42-.055-.527a.5.5 0 0 0-.218-.218C17.62 4 17.48 4 17.2 4h-2.4c-.28 0-.42 0-.527.054a.5.5 0 0 0-.218.219C14 4.38 14 4.52 14 4.8V6h-4V4.8c0-.28 0-.42-.055-.527a.5.5 0 0 0-.218-.218C9.62 4 9.48 4 9.2 4H6.8c-.28 0-.42 0-.527.054a.5.5 0 0 0-.218.219C6 4.38 6 4.52 6 4.8V6H4c-1.11 0-2 .89-2 2v10c0 1.11.89 2 2 2h16c1.11 0 2-.89 2-2l-.01-10c0-1.11-.88-2-1.99-2h-2V4.8zM20 8H4v10h16V8z"/></svg>