<svg xmlns="http://www.w3.org/2000/svg" width="24" height="24" viewBox="0 0 24 24">
  <title>px_vfd_24px</title>
  <g>
    <path d="M16.81,10.39h-.45v3.2h.34a1.24,1.24,0,0,0,1-.41,2,2,0,0,0,.33-1.25,1.79,1.79,0,0,0-.31-1.16A1.16,1.16,0,0,0,16.81,10.39Z"/>
    <path d="M20.27,6H3.73A1.74,1.74,0,0,0,2,7.73v8.54A1.74,1.74,0,0,0,3.73,18H20.27A1.74,1.74,0,0,0,22,16.27V7.73A1.74,1.74,0,0,0,20.27,6ZM8,14.86H6.2L4.34,9.14H6.07L6.85,12a8.09,8.09,0,0,1,.26,1.34c0-.18.06-.41.11-.68s.11-.49.15-.65l.79-2.91H9.89Zm5.86-4.48H12v1.09h1.71v1.24H12v2.15H10.5V9.14h3.38Zm5,3.7a3,3,0,0,1-2.22.78H14.82V9.14h2a3,3,0,0,1,2.13.71,2.67,2.67,0,0,1,.74,2A3,3,0,0,1,18.88,14.08Z"/>
  </g>
  <rect width="24" height="24" fill="none" stroke="#000" stroke-width="0" opacity="0.01"/>
</svg>
