<svg xmlns="http://www.w3.org/2000/svg" width="24" height="24" viewBox="0 0 24 24"><path d="M16.81 10.39h-.45v3.2h.34a1.24 1.24 0 0 0 1-.41 2 2 0 0 0 .33-1.25 1.79 1.79 0 0 0-.31-1.16 1.16 1.16 0 0 0-.91-.38z"/><path d="M20.27 6H3.73A1.74 1.74 0 0 0 2 7.73v8.54A1.74 1.74 0 0 0 3.73 18h16.54A1.74 1.74 0 0 0 22 16.27V7.73A1.74 1.74 0 0 0 20.27 6zM8 14.86H6.2L4.34 9.14h1.73L6.85 12a8.09 8.09 0 0 1 .26 1.34c0-.18.06-.41.11-.68s.11-.49.15-.65l.79-2.91h1.73zm5.86-4.48H12v1.09h1.71v1.24H12v2.15h-1.5V9.14h3.38zm5 3.7a3 3 0 0 1-2.22.78h-1.82V9.14h2a3 3 0 0 1 2.13.71 2.67 2.67 0 0 1 .74 2 3 3 0 0 1-.81 2.23z"/><path fill="none" opacity=".01" d="M0 0h24v24H0z"/></svg>