<svg xmlns="http://www.w3.org/2000/svg" width="24" height="24" viewBox="0 0 24 24">
  <title>px_voltage_24px</title>
  <polygon points="9 11 2 11 2 13 9 13 9 11 9 11"/>
  <polygon points="19.5 8.5 17.5 8.5 17.5 11 15 11 15 13 17.5 13 17.5 15.5 19.5 15.5 19.5 13 22 13 22 11 19.5 11 19.5 8.5 19.5 8.5"/>
  <polygon points="9 11 2 11 2 13 9 13 9 11 9 11"/>
  <polygon points="19.5 8.5 17.5 8.5 17.5 11 15 11 15 13 17.5 13 17.5 15.5 19.5 15.5 19.5 13 22 13 22 11 19.5 11 19.5 8.5 19.5 8.5"/>
  <path d="M0,0H24V24H0Z" fill="none"/>
</svg>
