<svg xmlns="http://www.w3.org/2000/svg" width="24" height="24" viewBox="0 0 24 24"><title>wheat</title><path d="M15.86 2.14s-3 3.09-3 5a17.17 17.17 0 0 0-2-2 21.32 21.32 0 0 0-1 5 17.17 17.17 0 0 0-2-2 21.32 21.32 0 0 0-1 5 17.17 17.17 0 0 0-2-2 21.32 21.32 0 0 0-1 5c0 1 .31 1.54.78 1.78l-2.5 2.5 1.44 1.44 2.5-2.5c.24.47.76.78 1.78.78a21.32 21.32 0 0 0 5-1 17.17 17.17 0 0 0-2-2 21.32 21.32 0 0 0 5-1 17.17 17.17 0 0 0-2-2 21.32 21.32 0 0 0 5-1 17.17 17.17 0 0 0-2-2c1.91 0 5-3 5-3a22.4 22.4 0 0 0-2.53-.78c1.46-1.36 1.53-4.22 1.53-4.22s-2.81 0-4.22 1.47a21.44 21.44 0 0 0-.78-2.47zm-2 6.86a3.34 3.34 0 0 0 1 .12 3.34 3.34 0 0 0 .12 1h-.12a3.36 3.36 0 0 0-1.25.25 3.36 3.36 0 0 0 .25-1.25zm-3 3a3.34 3.34 0 0 0 1 .12 3.34 3.34 0 0 0 .12 1h-.12a3.36 3.36 0 0 0-1.25.25 3.36 3.36 0 0 0 .25-1.25zm-3 3a3.34 3.34 0 0 0 1 .12 3.34 3.34 0 0 0 .12 1h-.12a3.36 3.36 0 0 0-1.25.25 3.36 3.36 0 0 0 .25-1.25z"/><path fill="none" d="M0 0h24v24H0z"/></svg>