<svg width="24" height="24" viewBox="0 0 24 24" xmlns="http://www.w3.org/2000/svg">
<path d="M16 7.40001C15.1 7.40001 14.3 7.20001 13.5 6.90001L9.60002 5.00001C8.20002 4.30001 5.90002 4.70001 4.90002 5.80001L3.80002 7.00001L2.40002 5.60001L3.50002 4.40001C5.10002 2.60001 8.30002 2.00001 10.5 3.10001L14.5 5.00001C15.9 5.70001 18.2 5.30001 19.2 4.20001L20.2 3.00001L21.7 4.30001L20.6 5.50001C19.5 6.70001 17.8 7.40001 16 7.40001Z" />
<path d="M14.8 22.1L14 19.5H10L9.20002 22.1H6.70002L10.6 11H13.5L17.4 22.1H14.8ZM13.5 17.5C12.8 15.1 12.3 13.8 12.3 13.5C12.3 13.2 12 12.9 12 12.7C11.8 13.3 11.4 14.9 10.6 17.5H13.5Z" />
</svg>
