<svg width="24" height="24" viewBox="0 0 24 24" fill="none" xmlns="http://www.w3.org/2000/svg">
<path d="M22.0001 22L3.5101 3.51L2.1001 4.92L8.1701 10.99H6.0001V14.99H3.0001V21.99H11.0001V14.99H8.0001V12.99H10.1701L13.0001 15.82V21.99H19.1701L20.5801 23.4L21.9901 21.99L22.0001 22ZM9.0001 17V20H5.0001V17H9.0001ZM15.0001 20V17.83L17.1701 20H15.0001Z" fill="#727E84"/>
<path d="M21.0001 18.17V15H18.0001V11H13.8301L21.0001 18.17Z" fill="#727E84"/>
<path d="M13.0001 9H16.0001V2H8.0001V5.17L13.0001 10.17V9ZM10.0001 4H14.0001V7H10.0001V4Z" fill="#727E84"/>
</svg>
