<svg width="24" height="24" viewBox="0 0 24 24" fill="none" xmlns="http://www.w3.org/2000/svg">
<path fill-rule="evenodd" clip-rule="evenodd" d="M18 8H17V6C17 3.24 14.76 1 12 1C9.24 1 7 3.24 7 6V8H6C4.9 8 4 8.9 4 10V20C4 21.1 4.9 22 6 22H18C19.1 22 20 21.1 20 20V10C20 8.9 19.1 8 18 8ZM8.9 8V6C8.9 4.29 10.29 2.90002 12 2.90002C13.71 2.90002 15.1 4.29 15.1 6V8H8.9ZM11.8843 19H13.5439V11.1475H12.1797L9.6499 13.1616L10.4502 14.1606L11.3525 13.4355C11.46 13.3496 11.6515 13.1688 11.9272 12.8931L11.9004 13.7095L11.8843 14.4561V19Z" fill="#727E84"/>
</svg>
