<svg width="24" height="24" viewBox="0 0 24 24" fill="none" xmlns="http://www.w3.org/2000/svg">
<path fill-rule="evenodd" clip-rule="evenodd" d="M18 8H17V6C17 3.24 14.76 1 12 1C9.24 1 7 3.24 7 6V8H6C4.9 8 4 8.9 4 10V20C4 21.1 4.9 22 6 22H18C19.1 22 20 21.1 20 20V10C20 8.9 19.1 8 18 8ZM8.9 8V6C8.9 4.29 10.29 2.90002 12 2.90002C13.71 2.90002 15.1 4.29 15.1 6V8H8.9ZM9.44043 19H14.9297V17.6035H11.5083V17.5283L12.5181 16.5776C13.1912 15.9618 13.6603 15.4873 13.9253 15.1543C14.1938 14.8213 14.3908 14.4972 14.5161 14.1821C14.645 13.8634 14.7095 13.5233 14.7095 13.1616C14.7095 12.7463 14.6056 12.3774 14.3979 12.0552C14.1903 11.7329 13.8984 11.4823 13.5225 11.3032C13.1465 11.1242 12.7132 11.0347 12.2227 11.0347C11.8503 11.0347 11.5137 11.0723 11.2129 11.1475C10.9121 11.2191 10.6346 11.3229 10.3804 11.459C10.1261 11.5951 9.80566 11.8278 9.41895 12.1572L10.3213 13.2261C10.6328 12.9683 10.9318 12.7695 11.2183 12.6299C11.5047 12.4902 11.8001 12.4204 12.1045 12.4204C12.3945 12.4204 12.6255 12.4974 12.7974 12.6514C12.9728 12.8053 13.0605 13.0399 13.0605 13.355C13.0605 13.5662 13.0212 13.7703 12.9424 13.9673C12.8636 14.1642 12.7347 14.3791 12.5557 14.6118C12.3766 14.841 11.9953 15.2546 11.4116 15.8525L9.44043 17.8452V19Z" fill="#727E84"/>
</svg>
