<svg width="24" height="24" viewBox="0 0 24 24" fill="none" xmlns="http://www.w3.org/2000/svg">
<path d="M16.9 21.4999L15.5 20.0999L17.6 17.9999L15.5 15.8999L16.9 14.4999L19 16.5999L21.1 14.4999L22.5 15.8999L20.425 17.9999L22.5 20.0999L21.1 21.4999L19 19.4249L16.9 21.4999ZM2 21.9999L22 2.0249V12.6999C21.7 12.5166 21.3833 12.3707 21.05 12.2624C20.7167 12.1541 20.3667 12.0666 20 11.9999V6.8499L6.825 19.9999H13.25C13.3833 20.3832 13.55 20.7416 13.75 21.0749C13.95 21.4082 14.175 21.7166 14.425 21.9999H2ZM6.825 19.9999L20 6.8499C18.7333 8.11657 17.5833 9.2624 16.55 10.2874C15.5167 11.3124 14.5042 12.3207 13.5125 13.3124L10.425 16.3999L6.825 19.9999Z" fill="#727E84"/>
</svg>
