<svg width="24" height="24" viewBox="0 0 24 24" fill="none" xmlns="http://www.w3.org/2000/svg">
<path d="M14.9297 19H9.44043V17.8452L11.4116 15.8525C11.9953 15.2546 12.3766 14.841 12.5557 14.6118C12.7347 14.3791 12.8636 14.1642 12.9424 13.9673C13.0212 13.7703 13.0605 13.5662 13.0605 13.355C13.0605 13.0399 12.9728 12.8053 12.7974 12.6514C12.6255 12.4974 12.3945 12.4204 12.1045 12.4204C11.8001 12.4204 11.5047 12.4902 11.2183 12.6299C10.9318 12.7695 10.6328 12.9683 10.3213 13.2261L9.41895 12.1572C9.80566 11.8278 10.1261 11.5951 10.3804 11.459C10.6346 11.3229 10.9121 11.2191 11.2129 11.1475C11.5137 11.0723 11.8503 11.0347 12.2227 11.0347C12.7132 11.0347 13.1465 11.1242 13.5225 11.3032C13.8984 11.4823 14.1903 11.7329 14.3979 12.0552C14.6056 12.3774 14.7095 12.7463 14.7095 13.1616C14.7095 13.5233 14.645 13.8634 14.5161 14.1821C14.3908 14.4972 14.1938 14.8213 13.9253 15.1543C13.6603 15.4873 13.1912 15.9618 12.5181 16.5776L11.5083 17.5283V17.6035H14.9297V19Z" fill="#727E84"/>
<path d="M18 8H17V6C17 3.24 14.76 1 12 1C9.24 1 7 3.24 7 6H8.9C8.9 4.29 10.29 2.9 12 2.9C13.71 2.9 15.1 4.29 15.1 6V8H6C4.9 8 4 8.9 4 10V20C4 21.1 4.9 22 6 22H18C19.1 22 20 21.1 20 20V10C20 8.9 19.1 8 18 8ZM18 20H6V10H18V20Z" fill="#727E84"/>
</svg>
