<svg width="24" height="24" viewBox="0 0 24 24" fill="none" xmlns="http://www.w3.org/2000/svg">
<path d="M14.6235 12.9038C14.6235 13.3944 14.4749 13.8115 14.1777 14.1553C13.8805 14.499 13.4634 14.7354 12.9263 14.8643V14.8965C13.5601 14.9753 14.0399 15.1686 14.3657 15.4766C14.6916 15.7809 14.8545 16.1927 14.8545 16.7119C14.8545 17.4674 14.5806 18.0565 14.0327 18.479C13.4849 18.8979 12.7025 19.1074 11.6855 19.1074C10.8333 19.1074 10.0778 18.966 9.41895 18.6831V17.2705C9.72331 17.4245 10.0581 17.5498 10.4233 17.6465C10.7886 17.7432 11.1502 17.7915 11.5083 17.7915C12.0562 17.7915 12.4608 17.6984 12.7222 17.5122C12.9836 17.326 13.1143 17.027 13.1143 16.6152C13.1143 16.2464 12.9639 15.985 12.6631 15.8311C12.3623 15.6771 11.8825 15.6001 11.2236 15.6001H10.6274V14.3271H11.2344C11.8431 14.3271 12.2871 14.2484 12.5664 14.0908C12.8493 13.9297 12.9907 13.6558 12.9907 13.269C12.9907 12.6746 12.6183 12.3774 11.8735 12.3774C11.6157 12.3774 11.3525 12.4204 11.084 12.5063C10.819 12.5923 10.5236 12.7409 10.1978 12.9521L9.42969 11.8081C10.1458 11.2925 10.9998 11.0347 11.9917 11.0347C12.8045 11.0347 13.4455 11.1994 13.9146 11.5288C14.3872 11.8582 14.6235 12.3166 14.6235 12.9038Z" fill="#727E84"/>
<path d="M18 8H17V6C17 3.24 14.76 1 12 1C9.24 1 7 3.24 7 6H8.9C8.9 4.29 10.29 2.9 12 2.9C13.71 2.9 15.1 4.29 15.1 6V8H6C4.9 8 4 8.9 4 10V20C4 21.1 4.9 22 6 22H18C19.1 22 20 21.1 20 20V10C20 8.9 19.1 8 18 8ZM18 20H6V10H18V20Z" fill="#727E84"/>
</svg>
