<svg width="24" height="24" viewBox="0 0 24 24" fill="none" xmlns="http://www.w3.org/2000/svg">
<path d="M13.5439 19H11.8843V14.4561L11.9004 13.7095L11.9272 12.8931C11.6515 13.1688 11.46 13.3496 11.3525 13.4355L10.4502 14.1606L9.6499 13.1616L12.1797 11.1475H13.5439V19Z" fill="#727E84"/>
<path d="M18 8H17V6C17 3.24 14.76 1 12 1C9.24 1 7 3.24 7 6H8.9C8.9 4.29 10.29 2.9 12 2.9C13.71 2.9 15.1 4.29 15.1 6V8H6C4.9 8 4 8.9 4 10V20C4 21.1 4.9 22 6 22H18C19.1 22 20 21.1 20 20V10C20 8.9 19.1 8 18 8ZM18 20H6V10H18V20Z" fill="#727E84"/>
</svg>
