<svg width="24" height="24" viewBox="0 0 24 24" fill="none" xmlns="http://www.w3.org/2000/svg">
<path d="M16.9 20.5L15.5 19.1L17.6 17L15.5 14.9L16.9 13.5L19 15.6L21.1 13.5L22.525 14.9L20.425 17L22.5 19.1L21.1 20.5L19 18.425L16.9 20.5ZM12 21L0 9C1.58333 7.38333 3.4125 6.14583 5.4875 5.2875C7.5625 4.42917 9.73333 4 12 4C14.2667 4 16.4375 4.42917 18.5125 5.2875C20.5875 6.14583 22.4167 7.38333 24 9L20.55 12.425C20.3167 12.1917 20.0833 11.9542 19.85 11.7125C19.6167 11.4708 19.3833 11.2333 19.15 11L21.1 9.05C19.7833 8.05 18.35 7.29167 16.8 6.775C15.25 6.25833 13.65 6 12 6C10.35 6 8.75 6.25833 7.2 6.775C5.65 7.29167 4.21667 8.05 2.9 9.05L12 18.15L13 17.15L13.7125 17.8625L14.425 18.575L12 21Z" fill="white"/>
</svg>
