<svg width="24" height="24" viewBox="0 0 24 24" fill="none" xmlns="http://www.w3.org/2000/svg">
<path d="M12 10.11C13.03 10.11 13.87 10.95 13.87 12C13.87 13 13.03 13.85 12 13.85C10.97 13.85 10.13 13 10.13 12C10.13 10.95 10.97 10.11 12 10.11ZM7.37 20C8 20.38 9.38 19.8 10.97 18.3C10.45 17.71 9.94 17.07 9.46 16.4C8.64 16.32 7.83 16.2 7.06 16.04C6.55 18.18 6.74 19.65 7.37 20ZM8.08 14.26L7.79 13.75C7.68 14.04 7.57 14.33 7.5 14.61C7.77 14.67 8.07 14.72 8.38 14.77C8.28 14.6 8.18 14.43 8.08 14.26ZM14.62 13.5L15.43 12L14.62 10.5C14.32 9.97003 14 9.50003 13.71 9.03003C13.17 9.00003 12.6 9.00003 12 9.00003C11.4 9.00003 10.83 9.00003 10.29 9.03003C10 9.50003 9.68 9.97003 9.38 10.5L8.57 12L9.38 13.5C9.68 14.03 10 14.5 10.29 14.97C10.83 15 11.4 15 12 15C12.6 15 13.17 15 13.71 14.97C14 14.5 14.32 14.03 14.62 13.5ZM12 6.78003C11.81 7.00003 11.61 7.23003 11.41 7.50003C11.61 7.50003 11.8 7.50003 12 7.50003C12.2 7.50003 12.39 7.50003 12.59 7.50003C12.39 7.23003 12.19 7.00003 12 6.78003ZM12 17.22C12.19 17 12.39 16.77 12.59 16.5C12.39 16.5 12.2 16.5 12 16.5C11.8 16.5 11.61 16.5 11.41 16.5C11.61 16.77 11.81 17 12 17.22ZM16.62 4.00003C16 3.62003 14.62 4.20003 13.03 5.70003C13.55 6.29003 14.06 6.93003 14.54 7.60003C15.36 7.68003 16.17 7.80003 16.94 7.96003C17.45 5.82003 17.26 4.35003 16.62 4.00003ZM15.92 9.74003L16.21 10.25C16.32 9.96003 16.43 9.67003 16.5 9.39003C16.23 9.33003 15.93 9.28003 15.62 9.23003C15.72 9.40003 15.82 9.57003 15.92 9.74003ZM17.37 2.69003C18.84 3.53003 19 5.74003 18.38 8.32003C20.92 9.07003 22.75 10.31 22.75 12C22.75 13.69 20.92 14.93 18.38 15.68C19 18.26 18.84 20.47 17.37 21.31C15.91 22.15 13.92 21.19 12 19.36C10.08 21.19 8.09 22.15 6.62 21.31C5.16 20.47 5 18.26 5.62 15.68C3.08 14.93 1.25 13.69 1.25 12C1.25 10.31 3.08 9.07003 5.62 8.32003C5 5.74003 5.16 3.53003 6.62 2.69003C8.09 1.85003 10.08 2.81003 12 4.64003C13.92 2.81003 15.91 1.85003 17.37 2.69003ZM17.08 12C17.42 12.75 17.72 13.5 17.97 14.26C20.07 13.63 21.25 12.73 21.25 12C21.25 11.27 20.07 10.37 17.97 9.74003C17.72 10.5 17.42 11.25 17.08 12ZM6.92 12C6.58 11.25 6.28 10.5 6.03 9.74003C3.93 10.37 2.75 11.27 2.75 12C2.75 12.73 3.93 13.63 6.03 14.26C6.28 13.5 6.58 12.75 6.92 12ZM15.92 14.26C15.82 14.43 15.72 14.6 15.62 14.77C15.93 14.72 16.23 14.67 16.5 14.61C16.43 14.33 16.32 14.04 16.21 13.75L15.92 14.26ZM13.03 18.3C14.62 19.8 16 20.38 16.62 20C17.26 19.65 17.45 18.18 16.94 16.04C16.17 16.2 15.36 16.32 14.54 16.4C14.06 17.07 13.55 17.71 13.03 18.3ZM8.08 9.74003C8.18 9.57003 8.28 9.40003 8.38 9.23003C8.07 9.28003 7.77 9.33003 7.5 9.39003C7.57 9.67003 7.68 9.96003 7.79 10.25L8.08 9.74003ZM10.97 5.70003C9.38 4.20003 8 3.62003 7.37 4.00003C6.74 4.35003 6.55 5.82003 7.06 7.96003C7.83 7.80003 8.64 7.68003 9.46 7.60003C9.94 6.93003 10.45 6.29003 10.97 5.70003Z"/>
</svg>
