<svg xmlns="http://www.w3.org/2000/svg" width="48" height="48" viewBox="0 0 100 100"><title>px_stop_24px</title><path d="M21.41,7.27,16.73,2.59A2,2,0,0,0,15.31,2H8.69a2,2,0,0,0-1.42.59L2.59,7.27A2,2,0,0,0,2,8.69v6.62a2,2,0,0,0,.59,1.42l4.68,4.68A2,2,0,0,0,8.69,22h6.62a2,2,0,0,0,1.42-.59l4.68-4.68A2,2,0,0,0,22,15.31V8.69A2,2,0,0,0,21.41,7.27Zm-1.41,8L15.31,20H8.69L4,15.31V8.69L8.69,4h6.62L20,8.69Z"/><polygon points="9.52 6 6 9.52 6 14.48 9.52 18 14.48 18 18 14.48 18 9.52 14.48 6 9.52 6"/><rect width="24" height="24" fill="none"/></svg>