<?xml version="1.0" encoding="utf-8"?>
<!-- Generator: Adobe Illustrator 23.0.1, SVG Export Plug-In . SVG Version: 6.00 Build 0)  -->
<svg version="1.1" id="Layer_1" xmlns="http://www.w3.org/2000/svg" xmlns:xlink="http://www.w3.org/1999/xlink" x="0px" y="0px"
	 width="24px" height="24px" viewBox="0 0 24 24" enable-background="new 0 0 24 24" xml:space="preserve">
<path d="M3,7C1.89,7,1,7.89,1,9v8h2c0,1.66,1.34,3,3,3s3-1.34,3-3h6c0,1.66,1.34,3,3,3s3-1.34,3-3h2v-4c0-1.11-0.89-2-2-2l-3-4H3
	 M15,8.5h2.5l1.96,2.5H15V8.5 M6,15.5c0.83,0,1.5,0.67,1.5,1.5S6.83,18.5,6,18.5S4.5,17.83,4.5,17S5.17,15.5,6,15.5 M18,15.5
	c0.83,0,1.5,0.67,1.5,1.5s-0.67,1.5-1.5,1.5s-1.5-0.67-1.5-1.5S17.17,15.5,18,15.5z"/>
<rect fill="none" width="24" height="24"/>
</svg>
