<?xml version="1.0" encoding="utf-8"?>
<!-- Generator: Adobe Illustrator 26.1.0, SVG Export Plug-In . SVG Version: 6.00 Build 0)  -->
<svg version="1.1" id="Layer_1" xmlns="http://www.w3.org/2000/svg" xmlns:xlink="http://www.w3.org/1999/xlink" x="0px" y="0px"
	 viewBox="0 0 24 24" style="enable-background:new 0 0 24 24;" xml:space="preserve">
<style type="text/css">
	.st0{fill-rule:evenodd;clip-rule:evenodd;}
</style>
<path class="st0" d="M20,6H4C2.9,6,2,6.9,2,8v8c0,1.1,0.9,2,2,2h16c1.1,0,2-0.9,2-2V8C22,6.9,21.1,6,20,6z M9.3,14.8L9,13.7H7.2
	l-0.3,1.1H5.2L7,9.1h2.1l1.9,5.7H9.3z M15.6,11.7c-0.1,0.2-0.2,0.5-0.4,0.6c-0.2,0.2-0.4,0.3-0.7,0.4c-0.3,0.1-0.6,0.2-1,0.2h-0.4
	v1.9h-1.5V9.1h2c0.7,0,1.3,0.2,1.6,0.5c0.4,0.3,0.5,0.8,0.5,1.3C15.8,11.2,15.7,11.4,15.6,11.7z M18.2,14.8h-1.6V9.1h1.6V14.8z
	 M8.5,11.5l0.2,0.9H7.5l0.2-0.9c0-0.1,0.1-0.3,0.1-0.5c0-0.2,0.1-0.4,0.1-0.6C8,10.3,8,10.1,8.1,10c0,0.1,0.1,0.3,0.1,0.5
	c0,0.2,0.1,0.4,0.2,0.6S8.4,11.4,8.5,11.5z M14,10.5c0.1,0.1,0.2,0.2,0.2,0.4s0,0.3-0.1,0.4c-0.1,0.1-0.2,0.2-0.3,0.2
	s-0.2,0.1-0.4,0.1h-0.3v-1.3h0.4C13.8,10.3,13.9,10.4,14,10.5z"/>
</svg>
