<svg width="24" height="24" viewBox="0 0 24 24"  xmlns="http://www.w3.org/2000/svg">
<path d="M11 4V7H13V4H11Z" />
<path d="M19 15H22V13H19V15Z" />
<path d="M12 19C14.7614 19 17 16.7614 17 14C17 12.9809 16.6951 12.033 16.1716 11.2426L12.7071 14.7071L11.2929 13.2929L14.7574 9.8284C13.967 9.30488 13.0191 9 12 9C9.23858 9 7 11.2386 7 14C7 16.7614 9.23858 19 12 19Z" />
<path d="M5 15H2V13H5V15Z" />
<path d="M18.2929 6.29289L16.2929 8.29289L17.7071 9.70711L19.7071 7.70711L18.2929 6.29289Z" />
<path d="M6.29289 9.70711L4.29289 7.70711L5.70711 6.29289L7.70711 8.29289L6.29289 9.70711Z" />
</svg>
