<svg width="24" height="24" viewBox="0 0 24 24" fill="none" xmlns="http://www.w3.org/2000/svg">
<path d="M22 14C22 18.41 18.41 22 14 22C11.98 22 10.14 21.24 8.73 20H4C2.85 20 2 19.15 2 18V9C2 7.88 2.89 7.04 4 7V6.5C4 4.01 6.01 2 8.5 2C10.84 2 12.74 3.79 12.96 6.08C13.3 6.03 13.65 6 14 6C18.41 6 22 9.59 22 14ZM6 7H11V6.26C10.88 4.99 9.8 4 8.5 4C7.12 4 6 5.12 6 6.5V7ZM20 14C20 10.69 17.31 8 14 8C10.69 8 8 10.69 8 14C8 17.31 10.69 20 14 20C17.31 20 20 17.31 20 14Z" fill="#727E84"/>
<path d="M17.5 17V14C17.5 13.45 17.05 13 16.5 13H12.5V12H17.5V10H15V9H13V10H11.5C10.95 10 10.5 10.45 10.5 11V14C10.5 14.55 10.95 15 11.5 15H15.5V16H10.5V18H13V19H15V18H16.5C17.05 18 17.5 17.55 17.5 17Z" fill="#727E84"/>
</svg>
