<svg width="24" height="24" viewBox="0 0 24 24" xmlns="http://www.w3.org/2000/svg">
<path d="M16.7 22.1H14L12.5 16.3C12.4 16.1 12.3 15.7 12.2 15C12.1 14.4 12 13.9 12 13.7C12 14 11.9 14.4 11.8 15C11.7 15.6 11.6 16 11.5 16.3L10 22.1H7.30002L4.50002 11H6.80002L8.20002 17C8.40002 18.1 8.60002 19.1 8.70002 19.9C8.70002 19.6 8.80002 19.2 8.90002 18.6C9.00002 18 9.10002 17.5 9.20002 17.2L10.8 11H13L14.6 17.2C14.7 17.5 14.8 17.9 14.9 18.5C15 19.1 15.1 19.6 15.1 20C15.2 19.6 15.2 19.1 15.3 18.5C15.4 17.9 15.5 17.4 15.6 17.1L17 11.1H19.3L16.7 22.1Z" />
<path d="M16 7.40001C15.1 7.40001 14.3 7.20001 13.5 6.90001L9.60002 5.00001C8.20002 4.30001 5.90002 4.70001 4.90002 5.80001L3.80002 7.00001L2.40002 5.60001L3.50002 4.40001C5.10002 2.60001 8.30002 2.00001 10.5 3.10001L14.5 5.00001C15.9 5.70001 18.2 5.30001 19.2 4.20001L20.2 3.00001L21.7 4.30001L20.6 5.50001C19.5 6.70001 17.8 7.40001 16 7.40001Z" />
</svg>
