<svg width="24" height="24" viewBox="0 0 24 24" xmlns="http://www.w3.org/2000/svg">
<path d="M2 2V4H22V2H2ZM2 6V8H7V6H2ZM9 6V8H15V6H9ZM17 6V8H22V6H17Z" />
<path d="M16.7 22.1H14L12.5 16.3C12.4 16.1 12.3 15.7 12.2 15C12.1 14.4 12 13.9 12 13.7C12 14 11.9 14.4 11.8 15C11.7 15.6 11.6 16 11.5 16.3L10 22.1H7.3L4.5 11H6.8L8.2 17C8.4 18.1 8.6 19.1 8.7 19.9C8.7 19.6 8.8 19.2 8.9 18.6C9 18 9.1 17.5 9.2 17.2L10.8 11H13L14.6 17.2C14.7 17.5 14.8 17.9 14.9 18.5C15 19.1 15.1 19.6 15.1 20C15.2 19.6 15.2 19.1 15.3 18.5C15.4 17.9 15.5 17.4 15.6 17.1L17 11.1H19.3L16.7 22.1Z" />
</svg>
