<svg xmlns="http://www.w3.org/2000/svg" width="24" height="24" viewBox="0 0 24 24">
  <title>px_power_circled_outline_24px</title>
  <path d="M0,0H24V24H0Z" fill="none"/>
  <path d="M14.54,7.73a4.29,4.29,0,0,0-2.8-.8H8.5V17.07h2.15V13.46h.92a4.41,4.41,0,0,0,2.91-.86,3.12,3.12,0,0,0,1-2.51A2.89,2.89,0,0,0,14.54,7.73Zm-1.7,3.58a2.36,2.36,0,0,1-1.48.39h-.71v-3h1a2,2,0,0,1,1.29.36,1.44,1.44,0,0,1,.41,1.12A1.36,1.36,0,0,1,12.84,11.31Z"/>
  <path d="M12,4a8,8,0,1,1-8,8,8,8,0,0,1,8-8m0-2A10,10,0,1,0,22,12,10,10,0,0,0,12,2Z"/>
</svg>
