<svg width="24" height="24" viewBox="0 0 24 24" xmlns="http://www.w3.org/2000/svg">
<path d="M16 7.40001C15.1 7.40001 14.3 7.20001 13.5 6.90001L9.60002 5.00001C8.20002 4.30001 5.90002 4.70001 4.90002 5.80001L3.80002 7.00001L2.40002 5.60001L3.50002 4.40001C5.10002 2.60001 8.30002 2.00001 10.5 3.10001L14.5 5.00001C15.9 5.70001 18.2 5.30001 19.2 4.20001L20.2 3.00001L21.7 4.30001L20.6 5.50001C19.5 6.70001 17.8 7.40001 16 7.40001Z" />
<path d="M18.9001 22.1L18.1001 19.4H14.0001L13.2001 22.1H10.6001L14.6001 10.7H17.5001L21.5001 22.1H18.9001ZM17.5001 17.3C16.7001 14.8 16.3001 13.5 16.2001 13.1C16.1001 12.7 16.0001 12.6 16.0001 12.4C15.8001 13.1 15.3001 14.7 14.5001 17.3H17.5001Z" />
<path d="M10.7 10.9H13.1L9.3 22H6.7L3 10.9H5.4L7.5 17.5C7.6 17.9 7.7 18.3 7.9 18.9C8 19.4 8.1 19.8 8.1 20C8.2 19.5 8.3 18.7 8.7 17.5L10.7 10.9Z" />
</svg>
