<svg xmlns="http://www.w3.org/2000/svg" width="24" height="24" viewBox="0 0 24 24">
  <title>adobe_id</title>
  <path d="M19,5V19H5V5H19m0-2H5A2,2,0,0,0,3,5V19a2,2,0,0,0,2,2H19a2,2,0,0,0,2-2V5a2,2,0,0,0-2-2Z"/>
  
  <g>
    <path d="M7.84,16.12V8.27H9.5v7.85Z"/>
    <path d="M12.81,16.23a1.94,1.94,0,0,1-1.66-.82,3.81,3.81,0,0,1-.6-2.28,3.79,3.79,0,0,1,.61-2.3,2,2,0,0,1,1.7-.82,2,2,0,0,1,1.73.88h.05a6.94,6.94,0,0,1-.12-1.2V7.77h1.64v8.35H14.9l-.31-.77h-.07A1.88,1.88,0,0,1,12.81,16.23Zm.58-1.3a1.1,1.1,0,0,0,.92-.37,2.18,2.18,0,0,0,.32-1.24v-.18a2.43,2.43,0,0,0-.3-1.38,1.11,1.11,0,0,0-1-.42,1,1,0,0,0-.85.46,2.5,2.5,0,0,0-.3,1.35,2.36,2.36,0,0,0,.3,1.33A1,1,0,0,0,13.39,14.93Z"/>
  </g>
</svg>
