<svg xmlns="http://www.w3.org/2000/svg" width="24" height="24" viewBox="0 0 24 24">
  <title>xd</title>
  <g>
    <path d="M13,16.12H11.1l-1.83-3-1.82,3H5.66l2.61-4L5.83,8.27H7.67L9.36,11.1,11,8.27h1.79l-2.46,3.9Z"/>
    <path d="M14.65,16.23A1.94,1.94,0,0,1,13,15.41a3.81,3.81,0,0,1-.6-2.28,3.79,3.79,0,0,1,.61-2.3A2,2,0,0,1,14.7,10a2,2,0,0,1,1.73.88h.05a6.94,6.94,0,0,1-.12-1.2V7.77H18v8.35H16.74l-.31-.77h-.07A1.88,1.88,0,0,1,14.65,16.23Zm.58-1.3a1.1,1.1,0,0,0,.92-.37,2.15,2.15,0,0,0,.32-1.24v-.18a2.43,2.43,0,0,0-.3-1.38,1.11,1.11,0,0,0-1-.42,1,1,0,0,0-.85.46,2.52,2.52,0,0,0-.3,1.36,2.34,2.34,0,0,0,.3,1.32A1,1,0,0,0,15.23,14.93Z"/>
  </g>
  <path d="M19,5V19H5V5H19m0-2H5A2,2,0,0,0,3,5V19a2,2,0,0,0,2,2H19a2,2,0,0,0,2-2V5a2,2,0,0,0-2-2Z"/>
  
</svg>
