<svg xmlns="http://www.w3.org/2000/svg" width="24" height="24" viewBox="0 0 24 24">
  <title>ai</title>
  <path d="M19,5V19H5V5H19m0-2H5A2,2,0,0,0,3,5V19a2,2,0,0,0,2,2H19a2,2,0,0,0,2-2V5a2,2,0,0,0-2-2Z"/>
  <g>
    <path d="M12.3,16.18l-.57-1.87H8.86l-.57,1.87H6.5L9.27,8.29h2l2.78,7.89Zm-1-3.27c-.53-1.69-.82-2.65-.89-2.87s-.11-.4-.14-.53c-.12.46-.46,1.6-1,3.4Z"/>
    <path d="M14.88,8.62c0-.53.3-.8.89-.8s.89.27.89.8a.76.76,0,0,1-.22.59.9.9,0,0,1-.67.22C15.18,9.43,14.88,9.16,14.88,8.62Zm1.71,7.56H15v-6h1.64Z"/>
  </g>
  
</svg>
