<svg xmlns="http://www.w3.org/2000/svg" width="24" height="24" viewBox="0 0 24 24">
  <title>box</title>
  
  <path d="M15.39,14h0a2.57,2.57,0,1,0-5.13,0h0a2.57,2.57,0,0,0,5.13,0m1.71,0a4.27,4.27,0,0,1-8,2,4.27,4.27,0,0,1-8-1.93H1V7H1A.86.86,0,0,1,2.71,7h0v3.62A4.27,4.27,0,0,1,9.05,12a4.27,4.27,0,0,1,8.05,2h0M7.84,14h0a2.57,2.57,0,1,0-5.13,0h0a2.57,2.57,0,0,0,5.13,0m15,2.92h0a.9.9,0,0,1,.16.51.83.83,0,0,1-.34.68.89.89,0,0,1-.51.17A.8.8,0,0,1,21.5,18l-1.91-2.53L17.7,18h0a.86.86,0,0,1-.67.32,1,1,0,0,1-.53-.17.87.87,0,0,1-.33-.69.93.93,0,0,1,.16-.5h0L18.5,14l-2.17-2.93h0a.83.83,0,0,1-.16-.5.88.88,0,0,1,.33-.68.87.87,0,0,1,1.2.16h0l1.89,2.52,1.91-2.52a.82.82,0,0,1,1.16-.16.85.85,0,0,1,.34.7.77.77,0,0,1-.16.48h0L20.66,14,22.84,17Z"/>
</svg>
