<svg xmlns="http://www.w3.org/2000/svg" width="24" height="24" viewBox="0 0 24 24">
  <title>cordova</title>
  
  <path d="M20.18,21.55H16.94l.23-2.73H15.58l-.23,2.73H8.65l-.23-2.73H6.83l.23,2.73H3.82L2,9.73,6.55,2.45h10.9L22,9.73,20.18,21.55M16.55,6.09H13.62l.2,1.36H10.18l.2-1.36H7.45L5.64,9.73,6.55,17h10.9l.91-7.27L16.55,6.09M15,14.59c-.25,0-.45-.76-.45-1.69s.2-1.7.45-1.7.46.76.46,1.7-.2,1.69-.46,1.69m-5.73.14C9,14.73,8.76,14,8.76,13s.2-1.69.46-1.69.45.75.45,1.69S9.47,14.73,9.22,14.73Z"/>
</svg>
