<svg xmlns="http://www.w3.org/2000/svg" width="24" height="24" viewBox="0 0 24 24">
  <title>dribbble</title>
  
  <path d="M16.42,18.42C16,16.5,15.5,14.73,15,13.17a11.09,11.09,0,0,1,1.58-.11h0a14,14,0,0,1,3.06.37,7.79,7.79,0,0,1-3.24,5M12,19.8a7.72,7.72,0,0,1-4.64-1.54A11.36,11.36,0,0,1,9.18,16a10.66,10.66,0,0,1,4.05-2.46,39.31,39.31,0,0,1,1.54,5.71A7.62,7.62,0,0,1,12,19.8M4.2,12v-.11h.86a24.75,24.75,0,0,0,7.08-1c.15.33.3.67.45,1a12.52,12.52,0,0,0-4.4,2.58A14.68,14.68,0,0,0,6,17,7.7,7.7,0,0,1,4.2,12M8.55,5a24.3,24.3,0,0,1,2.79,4.25,22.19,22.19,0,0,1-6.16.87H4.43A7.8,7.8,0,0,1,8.55,5M12,4.2a7.73,7.73,0,0,1,4.86,1.71A10.21,10.21,0,0,1,13,8.65a29.66,29.66,0,0,0-2.69-4.27A8.27,8.27,0,0,1,12,4.2m6.13,3a7.82,7.82,0,0,1,1.66,4.45,15.32,15.32,0,0,0-3.19-.35h0a13.5,13.5,0,0,0-2.26.19c-.17-.42-.33-.82-.52-1.21a12.15,12.15,0,0,0,4.32-3.08M12,2A10,10,0,1,0,22,12,10,10,0,0,0,12,2Z"/>
</svg>
