<svg width="24" height="24" viewBox="0 0 24 24" xmlns="http://www.w3.org/2000/svg">
<path d="M8.12 10.15L8.65 12.07H7.55L8.12 10.15ZM7.12 13.41L6.67 15H9.5L9.05 13.41H7.12ZM14.55 9H9.11V10.71H10.83V15H13.59C13.1669 14.674 12.8256 14.254 12.593 13.7732C12.3604 13.2924 12.243 12.764 12.25 12.23C12.2249 11.5136 12.4367 10.809 12.8525 10.2251C13.2682 9.64122 13.8649 9.21064 14.55 9ZM15.5 13.46C15.6545 13.4574 15.807 13.4242 15.9486 13.3624C16.0902 13.3006 16.2182 13.2113 16.3251 13.0997C16.432 12.9881 16.5158 12.8565 16.5716 12.7123C16.6273 12.5682 16.654 12.4145 16.65 12.26C16.6612 11.9446 16.5497 11.6371 16.339 11.4022C16.1283 11.1672 15.8348 11.0231 15.52 11C15.1973 11.0206 14.8951 11.1654 14.6769 11.4041C14.4588 11.6428 14.3416 11.9567 14.35 12.28C14.3432 12.4352 14.368 12.5901 14.4228 12.7355C14.4775 12.8808 14.5612 13.0136 14.6686 13.1257C14.7761 13.2378 14.9052 13.327 15.0481 13.3879C15.1909 13.4488 15.3447 13.4801 15.5 13.48V13.46ZM21.21 12.79L20.1 9H17.27V15H19V11.24L20.15 15H23V9H21.22V12.77L21.21 12.79ZM4.42 15L4.93 13.32H3V12.81H5.09L5.58 11.2H3V10.71H5.72L6.23 9H1V15H4.42Z" fill="black"/>
</svg>
