<svg xmlns="http://www.w3.org/2000/svg" width="24" height="24" viewBox="0 0 24 24">
  <title>firefox</title>
  
  <path d="M21,11.7a6.75,6.75,0,0,0-.2-1.4,8.91,8.91,0,0,0-2.3-4.4,4.5,4.5,0,0,0-1-.9,8.76,8.76,0,0,0-3.9-1.8,9,9,0,0,0-8,2.6V5.7c-.1-.2-.1-.2-.2-.2h0c-.1-.2-.1-.3-.2-.4h0c0-.2-.1-.4-.1-.6-.3.1-.3.4-.4.6h0a1.23,1.23,0,0,0-.4.8h0C4.2,6.1,4,7,4.2,7.1h.1v.3c-.2.2-.3.3-.3.4a6.12,6.12,0,0,0-.7,1.7v.4h0V9.8c-.2.2-.2.5-.3.7.1,0,.1-.1.2-.1A9,9,0,0,0,5,17.7a9.2,9.2,0,0,0,10.1,2.8A9.1,9.1,0,0,0,21,12v-.3M13.5,4.1a8.43,8.43,0,0,1,4,2,1.44,1.44,0,0,1,.2.3c-.3-.3-1-.8-1.4-.6a15.63,15.63,0,0,0,1.4,1.9,10.26,10.26,0,0,0,.4,1.4h0c0,.2-.7,2.8-.7,3.2,0,.1-.9,1.9-.8,1.9a1.34,1.34,0,0,1-.7.8c-.1,0-.7.2-1.4.4a5.84,5.84,0,0,1-1.8.2,1.8,1.8,0,0,1-1-.2,10.91,10.91,0,0,0-1.1-.6,1.79,1.79,0,0,1-.7-.5H11c.6-.1,3.2-1,3.1-1.4s-.5-.5-.7-.7a5.12,5.12,0,0,0-2,.3A10.7,10.7,0,0,1,9,11.6c0-.1-.1-.7-.1-.8s.3-.4.3-.4a11,11,0,0,0,1-1.1.85.85,0,0,0,.5-.3c-.1,0,.1-.1.4-.3h0c.3-.2.5-.2.5-.5,0,0,.5-.9-.1-.8,0,0-.9-.1-1.2-.1-.3.2-.4.1-.7,0,0,0-.2-.2-.2-.3s.8-1.7,1.1-1.8c-.2-.4-1.2-.1-1.4.2a5.35,5.35,0,0,1-1.2.7h0c0-.1-.5-.2-1-.2A8.21,8.21,0,0,1,13.5,4.1Z"/>
</svg>
