<svg xmlns="http://www.w3.org/2000/svg" width="24" height="24" viewBox="0 0 24 24">
  <title>iosappicon</title>
  <g>
    <path d="M17.6,1H6.39A5.4,5.4,0,0,0,1,6.41v11.2A5.39,5.39,0,0,0,6,23H18.11A5.36,5.36,0,0,0,23,17.61V6.41A5.4,5.4,0,0,0,17.6,1ZM22,17.61A4.4,4.4,0,0,1,18,22H6a4.4,4.4,0,0,1-4-4.38v-.29H22Z"/>
    <polygon points="14.75 19.37 14.75 19.37 15.18 20.84 16.29 20.84 16.29 18.49 15.6 18.49 15.6 19.97 15.59 19.97 15.16 18.49 14.06 18.49 14.06 20.84 14.75 20.84 14.75 19.37"/>
    <path d="M11.54,20.84h1.08a1.35,1.35,0,0,1-.53-1.09A1.29,1.29,0,0,1,13,18.49H10.87v.67h.67Z"/>
    <path d="M13.36,20.24a.47.47,0,0,0,.46-.47.47.47,0,0,0-.45-.5.48.48,0,0,0-.45.5A.45.45,0,0,0,13.36,20.24Z"/>
    <polygon points="9.24 20.18 8.5 20.18 8.5 19.98 9.3 19.98 9.49 19.35 8.5 19.35 8.5 19.16 9.54 19.16 9.75 18.49 7.7 18.49 7.7 20.84 9.04 20.84 9.24 20.18"/>
    <polygon points="10.48 18.94 10.26 19.69 10.69 19.69 10.48 18.94"/>
    <polygon points="10.85 20.21 10.11 20.21 9.92 20.84 11.02 20.84 10.85 20.21"/>
  </g>
  <rect width="24" height="24" fill="none"/>
</svg>
