<svg xmlns="http://www.w3.org/2000/svg" width="24" height="24" viewBox="0 0 24 24">
  <title>language_php</title>
  <rect width="24" height="24" fill="none"/>
  <path d="M12,18.08C5.37,18.08,0,15.36,0,12S5.37,5.92,12,5.92,24,8.64,24,12s-5.37,6.08-12,6.08M6.81,10.13a1.43,1.43,0,0,1,1.09.31,1.22,1.22,0,0,1,.13,1,1.66,1.66,0,0,1-.58,1.09,2.08,2.08,0,0,1-1.29.33H5.29l.53-2.76h1m-3.5,5.55H4.75l.34-1.75H6.32a4.48,4.48,0,0,0,1.33-.17,2.66,2.66,0,0,0,1-.58,2.87,2.87,0,0,0,.58-.73,2.56,2.56,0,0,0,.31-.88,2,2,0,0,0-.33-1.82A2.3,2.3,0,0,0,7.35,9.1H4.59L3.31,15.68m7.25-8.33L9.28,13.93H10.7l.74-3.77h1.14a1,1,0,0,1,.71.18.78.78,0,0,1,.07.66l-.57,2.93h1.45l.59-3.07a1.39,1.39,0,0,0-.27-1.36,2.52,2.52,0,0,0-1.65-.4H11.64L12,7.35H10.56M18,10.13a1.42,1.42,0,0,1,1.09.31,1.22,1.22,0,0,1,.13,1,1.7,1.7,0,0,1-.57,1.09,2.13,2.13,0,0,1-1.3.33H16.5l.5-2.76h1m-3.5,5.55h1.44l.34-1.75H17.5a4.58,4.58,0,0,0,1.35-.17,2.71,2.71,0,0,0,.95-.58,2.67,2.67,0,0,0,.58-.73,2.8,2.8,0,0,0,.32-.88,2,2,0,0,0-.34-1.82,2.26,2.26,0,0,0-1.82-.65H15.79Z"/>
</svg>
