<svg xmlns="http://www.w3.org/2000/svg" width="24" height="24" viewBox="0 0 24 24">
  <title>language_python</title>
  
  <path d="M19.14,7.5A2.86,2.86,0,0,1,22,10.36h0v3.78A2.86,2.86,0,0,1,19.14,17H12c0,.39.32,1,.71,1H17v1.68a2.86,2.86,0,0,1-2.86,2.86H9.86A2.86,2.86,0,0,1,7,19.64H7V15.89A2.85,2.85,0,0,1,9.86,13h5.25A2.85,2.85,0,0,0,18,10.18V7.5h1.18M14.86,19.29c-.4,0-.72.3-.72.89s.32.71.72.71a.71.71,0,0,0,.71-.71c0-.59-.32-.89-.71-.89m-10-1.79A2.86,2.86,0,0,1,2,14.64V10.86A2.86,2.86,0,0,1,4.86,8H12c0-.39-.32-1-.71-1H7V5.36A2.86,2.86,0,0,1,9.86,2.5h4.28A2.86,2.86,0,0,1,17,5.36V9.11A2.85,2.85,0,0,1,14.14,12H8.89A2.85,2.85,0,0,0,6,14.82V17.5H4.86M9.14,5.71c.4,0,.72-.3.72-.89s-.32-.71-.72-.71-.71.12-.71.71S8.75,5.71,9.14,5.71Z"/>
</svg>
