<svg xmlns="http://www.w3.org/2000/svg" width="24" height="24" viewBox="0 0 24 24">
  <title>language_swift</title>
  <rect width="24" height="24" fill="none"/>
  <path d="M17.09,19.72a9.92,9.92,0,0,1-8.86.1A13.81,13.81,0,0,1,2,14.5a11.2,11.2,0,0,0,2.3,1.4c3.37,1.57,6.73,1.46,9.1,0A48.49,48.49,0,0,1,5,7.19,10,10,0,0,1,3.91,5.68c8.28,6.05,7.92,7.59,2.41-1a57,57,0,0,0,9.43,7.74l.36.22a6.48,6.48,0,0,0,.26-.78A10.53,10.53,0,0,0,14.29,3c4.55,2.75,7.25,7.91,6.12,12.24a1.09,1.09,0,0,0-.05.39c2.24,2.83,1.64,5.78,1.35,5.22-1.21-2.39-3.48-1.65-4.62-1.17Z"/>
</svg>
