<svg xmlns="http://www.w3.org/2000/svg" width="24" height="24" viewBox="0 0 24 24">
  <title>language_svg</title>
  
  <path d="M5.13,10.71H8.87L6.22,8.06A1.84,1.84,0,1,1,8.06,6.22l2.65,2.65V5.13a1.84,1.84,0,0,1,0-2.59,1.81,1.81,0,0,1,2.58,0,1.84,1.84,0,0,1,0,2.59V8.87L16,6.22a1.83,1.83,0,1,1,1.83,1.84l-2.65,2.65h3.74a1.84,1.84,0,0,1,2.59,0,1.81,1.81,0,0,1,0,2.58,1.84,1.84,0,0,1-2.59,0H15.13L17.78,16A1.83,1.83,0,1,1,16,17.78l-2.66-2.65v3.74a1.84,1.84,0,0,1,0,2.59,1.81,1.81,0,0,1-2.58,0,1.84,1.84,0,0,1,0-2.59V15.13L8.06,17.78A1.84,1.84,0,1,1,6.22,16l2.65-2.66H5.13a1.84,1.84,0,0,1-2.59,0,1.81,1.81,0,0,1,0-2.58A1.84,1.84,0,0,1,5.13,10.71Z"/>
</svg>
