<svg xmlns="http://www.w3.org/2000/svg" width="24" height="24" viewBox="0 0 24 24">
  <title>language_typescript</title>
  <rect width="24" height="24" fill="none"/>
  <path d="M3,3H21V21H3V3M13.71,17.86a3.26,3.26,0,0,0,3.09,1.73c1.6,0,2.8-.83,2.8-2.36s-.81-2-2.25-2.66l-.42-.18c-.73-.31-1-.52-1-1a.74.74,0,0,1,.81-.73,1.16,1.16,0,0,1,1.09.73l1.31-.87a2.5,2.5,0,0,0-2.4-1.33,2.26,2.26,0,0,0-2.48,2.23c0,1.38.81,2,2,2.55l.42.18c.78.34,1.24.55,1.24,1.13s-.45.83-1.15.83a1.83,1.83,0,0,1-1.67-1l-1.38.8M13,11.25H8v1.5H9.5V20h1.75V12.75H13Z"/>
</svg>
