<svg xmlns="http://www.w3.org/2000/svg" width="24" height="24" viewBox="0 0 24 24">
  <title>microsoft_yammer</title>
  <rect width="24" height="24" fill="none"/>
  <path d="M13.54,5.93,9.18,17.11a4.08,4.08,0,0,1-3.95,2.54,1,1,0,0,1,0-2,2.12,2.12,0,0,0,2.08-1.24l.37-1L3.82,5.94a1,1,0,0,1,1.86-.75l3.07,7.53L11.68,5.2A1,1,0,0,1,13,4.63a1,1,0,0,1,.54,1.3m5,.45a.76.76,0,0,0-.5.19s-4.2,3-4,3.31S18.83,8,18.84,8a.81.81,0,0,0,.54-.77.86.86,0,0,0-.88-.85m.77,10.46a1,1,0,0,0-.44-.38S14.17,14.29,14,14.61s4,3.31,4,3.31a.81.81,0,0,0,.94.08.85.85,0,0,0,.33-1.16M21,11.42a.87.87,0,0,0-.57-.1s-5.11.53-5.1.9,5.11.78,5.12.78a.85.85,0,0,0,.87-.42A.87.87,0,0,0,21,11.42Z"/>
</svg>
