<svg xmlns="http://www.w3.org/2000/svg" width="24" height="24" viewBox="0 0 24 24">
  <title>microsoft_powerpoint</title>
  
  <path d="M14,5V7.78A3,3,0,0,1,16,7v3h3a3,3,0,0,1-5,2.22V14h6v1H14v1h6v1H14v2h8V5Zm3,4V6a3,3,0,0,1,3,3Z"/>
  <g>
    <path d="M2,4.8V19.21L14,21V3.08ZM9.6,12.61a3.4,3.4,0,0,1-2.5.72l-.89,0v3.34l-1.4-.18V7.89L7.27,7.6a3.11,3.11,0,0,1,2.41.47,2.71,2.71,0,0,1,.8,2.17A3,3,0,0,1,9.6,12.61Z"/>
    <path d="M7.18,8.86l-1,.08v3.14H7a2.43,2.43,0,0,0,1.58-.41A1.61,1.61,0,0,0,9,10.35a1.48,1.48,0,0,0-.45-1.2A1.94,1.94,0,0,0,7.18,8.86Z"/>
  </g>
</svg>
