<svg xmlns="http://www.w3.org/2000/svg" width="24" height="24" viewBox="0 0 24 24">
  <title>social_twitter</title>
  
  <path d="M5,3H19a2,2,0,0,1,2,2V19a2,2,0,0,1-2,2H5a2,2,0,0,1-2-2V5A2,2,0,0,1,5,3M17.71,9.33A4.77,4.77,0,0,0,19,7.92a4.41,4.41,0,0,1-1.44.41,2.92,2.92,0,0,0,1.12-1.47A5.62,5.62,0,0,1,17,7.5,2.72,2.72,0,0,0,12.37,10,7.65,7.65,0,0,1,6.85,7.16a2.87,2.87,0,0,0,.79,3.58,2.94,2.94,0,0,1-1.14-.33,2.68,2.68,0,0,0,2.08,2.68,3.35,3.35,0,0,1-1.14,0A2.67,2.67,0,0,0,9.9,15,5.38,5.38,0,0,1,6,16.08a7,7,0,0,0,4.28,1.23C14.69,17.11,17.64,14,17.71,9.33Z"/>
</svg>
