<svg xmlns="http://www.w3.org/2000/svg" width="24" height="24" viewBox="0 0 24 24">
  <title>wordpress</title>
  
  <path d="M2,12a10.14,10.14,0,0,1,.86-4.08L7.64,21A10,10,0,0,1,2,12m16.75-.5A12.67,12.67,0,0,1,18,14.73l-1,3.33L13.38,7.34l1.14-.12a.42.42,0,0,0-.06-.83s-1.62.13-2.67.13L9.16,6.39a.42.42,0,0,0-.07.83l1.06.12,1.56,4.24L9.52,18.14,5.87,7.34,7,7.22A.42.42,0,0,0,7,6.39s-1.62.13-2.67.13H3.64A10,10,0,0,1,18.75,4.62h-.13a1.73,1.73,0,0,0-1.68,1.77,4.72,4.72,0,0,0,1,2.35,5.13,5.13,0,0,1,.83,2.76m-6.58,1.37,3.08,8.42.07.14a9.93,9.93,0,0,1-6.14.16l3-8.72M20.78,7.2A10,10,0,0,1,17,20.64l3.06-8.83a9.43,9.43,0,0,0,.77-3.57l-.07-1"/>
</svg>
