<svg width="24" height="24" viewBox="0 0 24 24"  xmlns="http://www.w3.org/2000/svg">
<path d="M9.5 12C9.5 12.6904 8.94036 13.25 8.25 13.25C7.55964 13.25 7 12.6904 7 12C7 11.3096 7.55964 10.75 8.25 10.75C8.94036 10.75 9.5 11.3096 9.5 12Z" />
<path d="M17 12C17 12.6904 16.4404 13.25 15.75 13.25C15.0596 13.25 14.5 12.6904 14.5 12C14.5 11.3096 15.0596 10.75 15.75 10.75C16.4404 10.75 17 11.3096 17 12Z" />
<path fill-rule="evenodd" clip-rule="evenodd" d="M22 12C22 17.5228 17.5228 22 12 22C6.47715 22 2 17.5228 2 12C2 6.47715 6.47715 2 12 2C17.5228 2 22 6.47715 22 12ZM11 19.9381V18H13V19.9381C16.9463 19.446 20 16.0796 20 12C20 7.92038 16.9463 4.55399 13 4.06189V6H11V4.06189C7.05369 4.55399 4 7.92038 4 12C4 16.0796 7.05369 19.446 11 19.9381Z" />
</svg>
