<svg xmlns="http://www.w3.org/2000/svg" width="24" height="24" viewBox="0 0 24 24"><path d="M14,2.2V1H10V2.2a10,10,0,1,0,4,0ZM12,20a8,8,0,1,1,8-8A8,8,0,0,1,12,20ZM7.75,10.25A1.75,1.75,0,1,0,9.5,12,1.75,1.75,0,0,0,7.75,10.25Zm0,2.5A.75.75,0,1,1,8.5,12,.76.76,0,0,1,7.75,12.75ZM12,14.5a1.75,1.75,0,1,0,1.75,1.75A1.75,1.75,0,0,0,12,14.5ZM12,17a.75.75,0,1,1,.75-.75A.76.76,0,0,1,12,17Zm4.25-6.75A1.75,1.75,0,1,0,18,12,1.75,1.75,0,0,0,16.25,10.25Zm0,2.5A.75.75,0,1,1,17,12,.76.76,0,0,1,16.25,12.75ZM12,9a1.5,1.5,0,1,0-1.5-1.5A1.5,1.5,0,0,0,12,9Zm0-2a.5.5,0,1,1-.5.5A.5.5,0,0,1,12,7Z" fill-rule="evenodd"/><rect width="24" height="24" fill="none"/></svg>