<svg xmlns="http://www.w3.org/2000/svg" width="16" height="20" viewBox="0 0 16 20"><path d="M8.8,5.2a.8.8,0,1,1,.8.8A.8.8,0,0,1,8.8,5.2Z" transform="translate(-4 -2)"/><path d="M8.4,9.2A1.2,1.2,0,1,1,9.6,8,1.2,1.2,0,0,1,8.4,9.2Z" transform="translate(-4 -2)"/><circle cx="6" cy="9.2" r="1.2"/><circle cx="8" cy="6" r="1.2"/><circle cx="10" cy="9.2" r="1.2"/><path d="M16.8,8a1.2,1.2,0,1,1-1.2-1.2A1.2,1.2,0,0,1,16.8,8Z" transform="translate(-4 -2)"/><path d="M13.6,5.2a.8.8,0,1,1,.8.8A.8.8,0,0,1,13.6,5.2Z" transform="translate(-4 -2)"/><path d="M16.71,14.06A8,8,0,0,0,17.71,2H6.29a8,8,0,0,0,1,12.06A4,4,0,0,0,8,22h8a4,4,0,0,0,.71-7.94ZM6,7.6A6,6,0,0,1,7.2,4h9.6A6,6,0,1,1,6,7.6ZM16,20H8a2,2,0,0,1,0-4h8a2,2,0,0,1,0,4Z" transform="translate(-4 -2)" fill-rule="evenodd"/><path d="M15.5,16.5A1.5,1.5,0,1,0,17,18,1.5,1.5,0,0,0,15.5,16.5Zm0,2A.5.5,0,1,1,16,18,.5.5,0,0,1,15.5,18.5Z" transform="translate(-4 -2)" fill-rule="evenodd"/><path d="M8.5,16.5A1.5,1.5,0,1,0,10,18,1.5,1.5,0,0,0,8.5,16.5Zm0,2A.5.5,0,1,1,9,18,.5.5,0,0,1,8.5,18.5Z" transform="translate(-4 -2)" fill-rule="evenodd"/></svg>