<svg xmlns="http://www.w3.org/2000/svg" width="24" height="24" viewBox="0 0 24 24"><path d="M8.8,5.2a.8.8,0,1,1,.8.8.8.8,0,0,1-.8-.8Z"/><path d="M8.4,9.2A1.2,1.2,0,1,1,9.6,8,1.2,1.2,0,0,1,8.4,9.2Z"/><circle cx="10" cy="11.2" r="1.2"/><circle cx="12" cy="8" r="1.2"/><circle cx="14" cy="11.2" r="1.2"/><path d="M16.8,8a1.2,1.2,0,1,1-1.2-1.2h0A1.2,1.2,0,0,1,16.8,8Z"/><path d="M13.6,5.2a.8.8,0,1,1,.8.8.8.8,0,0,1-.8-.8Z"/><path d="M16.71,14.06A8,8,0,0,0,18.46,2.88,8.94,8.94,0,0,0,17.71,2H6.29a8,8,0,0,0,.12,11.31,7.91,7.91,0,0,0,.88.75A4,4,0,0,0,8,22h8a4,4,0,0,0,.71-7.94ZM6,7.6A6,6,0,0,1,7.2,4h9.6A6,6,0,1,1,6,7.6ZM16,20H8a2,2,0,0,1,0-4h8a2,2,0,0,1,0,4Z" fill-rule="evenodd"/><path d="M15.5,16.5A1.5,1.5,0,1,0,17,18,1.5,1.5,0,0,0,15.5,16.5Zm0,2A.5.5,0,1,1,16,18,.5.5,0,0,1,15.5,18.5Z" fill-rule="evenodd"/><path d="M8.5,16.5A1.5,1.5,0,1,0,10,18,1.5,1.5,0,0,0,8.5,16.5Zm0,2A.5.5,0,1,1,9,18,.5.5,0,0,1,8.5,18.5Z" fill-rule="evenodd"/></svg>