<svg width="24" height="24" viewBox="0 0 24 24" xmlns="http://www.w3.org/2000/svg">
<path fill-rule="evenodd" clip-rule="evenodd" d="M12 20C16.4183 20 20 16.4183 20 12C20 7.58172 16.4183 4 12 4C7.58172 4 4 7.58172 4 12C4 16.4183 7.58172 20 12 20ZM12 22C17.5228 22 22 17.5228 22 12C22 6.47715 17.5228 2 12 2C6.47715 2 2 6.47715 2 12C2 17.5228 6.47715 22 12 22Z" />
<path fill-rule="evenodd" clip-rule="evenodd" d="M16 14C17.1046 14 18 13.1046 18 12C18 10.8954 17.1046 10 16 10C14.8954 10 14 10.8954 14 12C14 13.1046 14.8954 14 16 14ZM16 15C17.6569 15 19 13.6569 19 12C19 10.3431 17.6569 9 16 9C14.3431 9 13 10.3431 13 12C13 13.6569 14.3431 15 16 15Z" />
<path fill-rule="evenodd" clip-rule="evenodd" d="M8 14C9.10457 14 10 13.1046 10 12C10 10.8954 9.10457 10 8 10C6.89543 10 6 10.8954 6 12C6 13.1046 6.89543 14 8 14ZM8 15C9.65685 15 11 13.6569 11 12C11 10.3431 9.65685 9 8 9C6.34315 9 5 10.3431 5 12C5 13.6569 6.34315 15 8 15Z" />
<path fill-rule="evenodd" clip-rule="evenodd" d="M13.1464 9.35355L10.1464 6.35355L10.8536 5.64645L13.8536 8.64645L13.1464 9.35355Z" />
<path fill-rule="evenodd" clip-rule="evenodd" d="M10.1464 8.64645L13.1464 5.64645L13.8536 6.35355L10.8536 9.35355L10.1464 8.64645Z" />
<path fill-rule="evenodd" clip-rule="evenodd" d="M13.1464 18.3536L10.1464 15.3536L10.8536 14.6464L13.8536 17.6464L13.1464 18.3536Z" />
<path fill-rule="evenodd" clip-rule="evenodd" d="M10.1464 17.6464L13.1464 14.6464L13.8536 15.3536L10.8536 18.3536L10.1464 17.6464Z" />
</svg>
