<svg width="24" height="24" viewBox="0 0 24 24" xmlns="http://www.w3.org/2000/svg">
<path d="M15.2 5.19999C15.2 5.64182 14.8418 5.99999 14.4 5.99999C13.9581 5.99999 13.6 5.64182 13.6 5.19999C13.6 4.75817 13.9581 4.39999 14.4 4.39999C14.8418 4.39999 15.2 4.75817 15.2 5.19999Z" />
<path d="M9.59999 5.99999C10.0418 5.99999 10.4 5.64182 10.4 5.19999C10.4 4.75817 10.0418 4.39999 9.59999 4.39999C9.15816 4.39999 8.79999 4.75817 8.79999 5.19999C8.79999 5.64182 9.15816 5.99999 9.59999 5.99999Z" />
<path d="M11.2 11.2C11.2 11.8627 10.6627 12.4 10 12.4C9.33725 12.4 8.8 11.8627 8.8 11.2C8.8 10.5373 9.33725 10 10 10C10.6627 10 11.2 10.5373 11.2 11.2Z"/>
<path d="M8.4 9.2C9.06275 9.2 9.6 8.66274 9.6 8C9.6 7.33726 9.06275 6.8 8.4 6.8C7.73727 6.8 7.2 7.33726 7.2 8C7.2 8.66274 7.73727 9.2 8.4 9.2Z"/>
<path d="M13.2 8C13.2 8.66274 12.6627 9.2 12 9.2C11.3372 9.2 10.8 8.66274 10.8 8C10.8 7.33726 11.3372 6.8 12 6.8C12.6627 6.8 13.2 7.33726 13.2 8Z"/>
<path d="M15.6 9.2C16.2628 9.2 16.8 8.66274 16.8 8C16.8 7.33726 16.2628 6.8 15.6 6.8C14.9373 6.8 14.4 7.33726 14.4 8C14.4 8.66274 14.9373 9.2 15.6 9.2Z"/>
<path d="M15.2 11.2C15.2 11.8627 14.6627 12.4 14 12.4C13.3372 12.4 12.8 11.8627 12.8 11.2C12.8 10.5373 13.3372 10 14 10C14.6627 10 15.2 10.5373 15.2 11.2Z"/>
<path fill-rule="evenodd" clip-rule="evenodd" d="M8.5 19.5C9.32843 19.5 10 18.8284 10 18C10 17.1716 9.32843 16.5 8.5 16.5C7.67157 16.5 7 17.1716 7 18C7 18.8284 7.67157 19.5 8.5 19.5ZM8.5 18.5C8.77614 18.5 9 18.2761 9 18C9 17.7239 8.77614 17.5 8.5 17.5C8.22386 17.5 8 17.7239 8 18C8 18.2761 8.22386 18.5 8.5 18.5Z"/>
<path fill-rule="evenodd" clip-rule="evenodd" d="M17 18C17 18.8284 16.3284 19.5 15.5 19.5C14.6716 19.5 14 18.8284 14 18C14 17.1716 14.6716 16.5 15.5 16.5C16.3284 16.5 17 17.1716 17 18ZM16 18C16 18.2761 15.7761 18.5 15.5 18.5C15.2239 18.5 15 18.2761 15 18C15 17.7239 15.2239 17.5 15.5 17.5C15.7761 17.5 16 17.7239 16 18Z"/>
<path fill-rule="evenodd" clip-rule="evenodd" d="M6.28685 2H17.7131C19.1277 3.443 20 5.41964 20 7.6C20 10.2554 18.7063 12.6086 16.7148 14.0637C18.5829 14.4007 20 16.0349 20 18C20 20.2091 18.2091 22 16 22H8C5.79086 22 4 20.2091 4 18C4 16.0349 5.41712 14.4007 7.28518 14.0637C5.2937 12.6086 4 10.2554 4 7.6C4 5.41964 4.87225 3.443 6.28685 2ZM12 13.6C15.3137 13.6 18 10.9137 18 7.6C18 6.24837 17.5549 5.00342 16.8007 4H7.19934C6.44513 5.00342 6 6.24837 6 7.6C6 10.9137 8.68629 13.6 12 13.6ZM6 18C6 16.8954 6.89543 16 8 16H16C17.1046 16 18 16.8954 18 18C18 19.1046 17.1046 20 16 20H8C6.89543 20 6 19.1046 6 18Z"/>
</svg>
