<svg width="24" height="24" viewBox="0 0 24 24" xmlns="http://www.w3.org/2000/svg">
<path fill-rule="evenodd" clip-rule="evenodd" d="M12 18.5C16.4183 18.5 20 14.9183 20 10.5C20 8.6072 19.3446 6.87049 18.2455 5.5H5.75448C4.65535 6.87049 4 8.60721 4 10.5C4 14.9183 7.58172 18.5 12 18.5ZM4.85857 3.5H19.1414C20.9097 5.30375 22 7.77455 22 10.5C22 16.0228 17.5228 20.5 12 20.5C6.47715 20.5 2 16.0228 2 10.5C2 7.77455 3.09032 5.30375 4.85857 3.5Z"/>
<path d="M16 7.5C16 8.05228 15.5523 8.5 15 8.5C14.4477 8.5 14 8.05228 14 7.5C14 6.94772 14.4477 6.5 15 6.5C15.5523 6.5 16 6.94772 16 7.5Z"/>
<path d="M10 7.5C10 8.05228 9.55228 8.5 9 8.5C8.44772 8.5 8 8.05228 8 7.5C8 6.94772 8.44772 6.5 9 6.5C9.55228 6.5 10 6.94772 10 7.5Z"/>
<path d="M11 15C11 15.8284 10.3284 16.5 9.5 16.5C8.67157 16.5 8 15.8284 8 15C8 14.1716 8.67157 13.5 9.5 13.5C10.3284 13.5 11 14.1716 11 15Z"/>
<path d="M9 11C9 11.8284 8.32843 12.5 7.5 12.5C6.67157 12.5 6 11.8284 6 11C6 10.1716 6.67157 9.5 7.5 9.5C8.32843 9.5 9 10.1716 9 11Z"/>
<path d="M13.5 11C13.5 11.8284 12.8284 12.5 12 12.5C11.1716 12.5 10.5 11.8284 10.5 11C10.5 10.1716 11.1716 9.5 12 9.5C12.8284 9.5 13.5 10.1716 13.5 11Z"/>
<path d="M18 11C18 11.8284 17.3284 12.5 16.5 12.5C15.6716 12.5 15 11.8284 15 11C15 10.1716 15.6716 9.5 16.5 9.5C17.3284 9.5 18 10.1716 18 11Z"/>
<path d="M16 15C16 15.8284 15.3284 16.5 14.5 16.5C13.6716 16.5 13 15.8284 13 15C13 14.1716 13.6716 13.5 14.5 13.5C15.3284 13.5 16 14.1716 16 15Z"/>
</svg>
