<svg xmlns="http://www.w3.org/2000/svg" width="20" height="20" viewBox="0 0 20 20"><path d="M12,2A10,10,0,1,0,22,12,10,10,0,0,0,12,2Zm0,18a8,8,0,1,1,8-8A8,8,0,0,1,12,20Z" transform="translate(-2 -2)" fill-rule="evenodd"/><path d="M16,9a3,3,0,1,0,3,3A3,3,0,0,0,16,9Zm0,5a2,2,0,1,1,2-2A2,2,0,0,1,16,14Z" transform="translate(-2 -2)" fill-rule="evenodd"/><path d="M8,9a3,3,0,1,0,3,3A3,3,0,0,0,8,9Zm0,5a2,2,0,1,1,2-2A2,2,0,0,1,8,14Z" transform="translate(-2 -2)" fill-rule="evenodd"/><polygon points="10.7 5.5 11.85 6.65 11.15 7.35 10 6.2 8.85 7.35 8.15 6.65 9.3 5.5 8.15 4.35 8.85 3.65 10 4.8 11.15 3.65 11.85 4.35 10.7 5.5" fill-rule="evenodd"/><polygon points="11.85 13.35 10.7 14.5 11.85 15.65 11.15 16.35 10 15.2 8.85 16.35 8.15 15.65 9.3 14.5 8.15 13.35 8.85 12.65 10 13.8 11.15 12.65 11.85 13.35" fill-rule="evenodd"/></svg>