<svg width="24" height="24" viewBox="0 0 24 24" xmlns="http://www.w3.org/2000/svg">
<path d="M16 7.40001C15.1 7.40001 14.3 7.20001 13.5 6.90001L9.60002 5.00001C8.20002 4.30001 5.90002 4.70001 4.90002 5.80001L3.80002 7.00001L2.40002 5.60001L3.50002 4.40001C5.10002 2.60001 8.30002 2.00001 10.5 3.10001L14.5 5.00001C15.9 5.70001 18.2 5.30001 19.2 4.20001L20.2 3.00001L21.7 4.30001L20.6 5.50001C19.5 6.70001 17.8 7.40001 16 7.40001Z" />
<path d="M14.6 10.9H17L13.2 22H10.6L6.90002 10.9H9.30002L11.4 17.5C11.5 17.9 11.6 18.3 11.8 18.9C11.9 19.4 12 19.8 12 20C12.1 19.5 12.2 18.7 12.6 17.5L14.6 10.9Z" />
</svg>
