<svg width="24" height="24" viewBox="0 0 24 24" xmlns="http://www.w3.org/2000/svg"><defs><clipPath id="slash-clip"><path d="M0 0 L24 0 L24 24 L0 24 Z M-24.36 -27.21 L-27.20 -24.37 L48.40 51.23 L51.24 48.39 Z" clip-rule="evenodd" fill-rule="evenodd"/></clipPath></defs><g clip-path="url(#slash-clip)"><path d="M11.9999 2.5L20.8399 5.65L19.4999 17.35L11.9999 21.5L4.49991 17.35L3.15991 5.65L11.9999 2.5ZM11.9999 4.6L6.46991 17H8.52991L9.63991 14.22H14.3399L15.4499 17H17.4999L11.9999 4.6ZM13.6199 12.5H10.3899L11.9999 8.63L13.6199 12.5Z"/></g><path data-name="slash-overlay" d="M4.22 4.21 L2.80 5.63 L18.40 21.23 L19.82 19.81 Z" fill="currentColor"/></svg>