<svg width="24" height="24" viewBox="0 0 24 24"  xmlns="http://www.w3.org/2000/svg">
<path d="M17.1748 3L21.4174 7.24264V3H17.1748Z" />
<path d="M3.41797 11.0154H8.02536V9.61462H5.11428V7.55169H7.82289V6.16182H5.11428V4.40532H8.02536V3.01544H3.41797V11.0154Z" />
<path d="M3 20.0029H5.82843L20.0029 5.82843L18.5887 4.41422L3 20.0029Z" />
<path d="M21.418 19.0029H18.418V20.0029H21.418V19.0029Z" />
<path d="M13.418 19.0029H16.418V20.0029H13.418V19.0029Z" />
<path d="M21.418 12.0029V9.0029H20.418V12.0029H21.418Z" />
<path d="M21.418 14.0029V17.0029H20.418V14.0029H21.418Z" />
<path d="M11.4178 20.0029H8.41992L9.41992 19.0029H11.4178V20.0029Z" />
</svg>
