<svg width="24" height="24" viewBox="0 0 24 24" fill="none" xmlns="http://www.w3.org/2000/svg">
<path d="M1.93997 15.63L1.99997 19C1.99997 19.7956 2.31604 20.5587 2.87865 21.1213C3.44126 21.6839 4.20432 22 4.99997 22H5.26997V19.07C5.26133 17.2399 4.66153 15.4615 3.55997 14C3.34639 14 3.13491 14.0422 2.93771 14.1243C2.7405 14.2063 2.56147 14.3265 2.41091 14.478C2.26035 14.6295 2.14123 14.8093 2.06041 15.007C1.97958 15.2047 1.93865 15.4164 1.93997 15.63Z"/>
<path d="M20.38 14C19.2855 15.464 18.6928 17.2421 18.69 19.07V22H19C19.7956 22 20.5587 21.6839 21.1213 21.1213C21.6839 20.5587 22 19.7956 22 19V15.61C21.9973 15.1821 21.8255 14.7726 21.522 14.4709C21.2184 14.1693 20.8079 14 20.38 14Z"/>
<path d="M19.43 11.36C19.1072 9.79044 18.9431 8.1924 18.94 6.59V6.34C18.94 5.77006 18.8277 5.20571 18.6096 4.67915C18.3915 4.1526 18.0718 3.67416 17.6688 3.27116C17.2658 2.86815 16.7874 2.54847 16.2608 2.33036C15.7343 2.11226 15.1699 2 14.6 2H9.33997C8.18893 2 7.08504 2.45725 6.27113 3.27116C5.45722 4.08506 4.99997 5.18896 4.99997 6.34V6.59C5.00191 8.19266 4.83769 9.7912 4.50997 11.36L4.27997 12.46L4.75997 13.1C6.05819 14.831 6.75997 16.9363 6.75997 19.1V22H17.19V19.07C17.19 16.9063 17.8918 14.801 19.19 13.07L19.67 12.43L19.43 11.36ZM16.3 12.16L15.95 12.23C14.6482 12.4807 13.3257 12.6079 12 12.61C10.6743 12.6079 9.35174 12.4807 8.04997 12.23L7.69997 12.16C7.45901 12.0898 7.25327 11.9315 7.12359 11.7166C6.99392 11.5017 6.94979 11.2459 6.99997 11L7.61997 6.65C7.62472 6.56872 7.64624 6.4893 7.68318 6.41674C7.72012 6.34418 7.77168 6.28005 7.83462 6.22838C7.89755 6.17672 7.9705 6.13865 8.04886 6.11655C8.12723 6.09446 8.20932 6.08882 8.28997 6.1C9.50236 6.3869 10.7441 6.53121 11.99 6.53C13.2358 6.53121 14.4776 6.3869 15.69 6.1C15.7706 6.08882 15.8527 6.09446 15.9311 6.11655C16.0094 6.13865 16.0824 6.17672 16.1453 6.22838C16.2083 6.28005 16.2598 6.34418 16.2968 6.41674C16.3337 6.4893 16.3552 6.56872 16.36 6.65L17 11C17.0502 11.2459 17.006 11.5017 16.8764 11.7166C16.7467 11.9315 16.5409 12.0898 16.3 12.16Z"/>
</svg>
