<svg xmlns="http://www.w3.org/2000/svg" width="24" height="24" viewBox="0 0 24 24">
  <title>asparagus</title>
  <path d="M12,2a6,6,0,0,0-1.25.88l.59,1.37L10,3.62a3.21,3.21,0,0,0-.72,1.13A12.69,12.69,0,0,0,12,8,4.39,4.39,0,0,1,9,6a4.86,4.86,0,0,0,1,3V21s.37,1,2,1,2-1,2-1V10a5.72,5.72,0,0,1-2,.72S15,7.89,15,6a3.65,3.65,0,0,0-.5-1.66A5.49,5.49,0,0,1,12,6a19.58,19.58,0,0,0,1.69-2.72A11,11,0,0,0,12,2ZM7,4a6,6,0,0,0-1.25.88l.59,1.37L5,5.62a3.21,3.21,0,0,0-.72,1.13A12.69,12.69,0,0,0,7,10,4.39,4.39,0,0,1,4,8a4.86,4.86,0,0,0,1,3v9s.37,1,2,1,2-1,2-1V12a5.72,5.72,0,0,1-2,.72,16.25,16.25,0,0,0,2-2.31V9.31a6.1,6.1,0,0,1-.81-1.87A5.87,5.87,0,0,1,7,8s.51-.68,1-1.53C8,6.31,8,6.16,8,6a2.1,2.1,0,0,1,.34-1A11.72,11.72,0,0,0,7,4ZM17,4a5.68,5.68,0,0,0-1.19.81A3.75,3.75,0,0,1,16,6.09a4.91,4.91,0,0,1-.72,2.13A10.73,10.73,0,0,0,17,10a4.41,4.41,0,0,1-2.19-1l-.18.25A1,1,0,0,1,15,10V20s.37,1,2,1,2-1,2-1V12a5.72,5.72,0,0,1-2,.72S20,9.9,20,8a3.65,3.65,0,0,0-.5-1.66A5.49,5.49,0,0,1,17,8a19.58,19.58,0,0,0,1.69-2.72A11,11,0,0,0,17,4Z"/>
  <rect width="24" height="24" fill="none"/>
</svg>
