<svg width="24" height="24" viewBox="0 0 24 24" fill="none" xmlns="http://www.w3.org/2000/svg">
<path d="M2 19C2 18.1667 2.29167 17.4583 2.875 16.875C3.45833 16.2917 4.16667 16 5 16C5.23333 16 5.45833 16.025 5.675 16.075C5.89167 16.125 6.1 16.2 6.3 16.3L16.3 6.3C16.2 6.1 16.125 5.89167 16.075 5.675C16.025 5.45833 16 5.23333 16 5C16 4.16667 16.2917 3.45833 16.875 2.875C17.4583 2.29167 18.1667 2 19 2C19.8333 2 20.5417 2.29167 21.125 2.875C21.7083 3.45833 22 4.16667 22 5C22 5.83333 21.7083 6.54167 21.125 7.125C20.5417 7.70833 19.8333 8 19 8C18.7667 8 18.5417 7.975 18.325 7.925C18.1083 7.875 17.9 7.8 17.7 7.7L7.7 17.7C7.8 17.9 7.875 18.1083 7.925 18.325C7.975 18.5417 8 18.7667 8 19C8 19.8333 7.70833 20.5417 7.125 21.125C6.54167 21.7083 5.83333 22 5 22C4.16667 22 3.45833 21.7083 2.875 21.125C2.29167 20.5417 2 19.8333 2 19Z" fill="black"/>
</svg>
