<svg width="24" height="24" viewBox="0 0 24 24" fill="none" xmlns="http://www.w3.org/2000/svg">
<path d="M19 19V21H5V19H19ZM19 5H5V21L4.7959 20.9893C3.85435 20.8938 3.1062 20.1457 3.01074 19.2041L3 19V5C3 3.89543 3.89543 3 5 3H19C20.1046 3 21 3.89543 21 5V19C21 20.0357 20.2128 20.887 19.2041 20.9893L19 21V5Z" fill="black"/>
<path fill-rule="evenodd" clip-rule="evenodd" d="M12 7C14.7614 7 17 9.23858 17 12C17 14.7614 14.7614 17 12 17C9.23858 17 7 14.7614 7 12C7 9.23858 9.23858 7 12 7ZM12 9C10.3431 9 9 10.3431 9 12C9 13.6569 10.3431 15 12 15C13.6569 15 15 13.6569 15 12C15 10.3431 13.6569 9 12 9Z" fill="black"/>
</svg>
