<svg width="24" height="24" viewBox="0 0 24 24"  xmlns="http://www.w3.org/2000/svg">
<path fill-rule="evenodd" clip-rule="evenodd" d="M14.8 4H19C20.1 4 21 4.9 21 6V20C21 21.1 20.1 22 19 22H5C3.9 22 3 21.1 3 20V6C3 4.9 3.9 4 5 4H9.2C9.6 2.8 10.7 2 12 2C13.3 2 14.4 2.8 14.8 4ZM13 5C13 4.5 12.5 4 12 4C11.5 4 11 4.5 11 5C11 5.5 11.5 6 12 6C12.5 6 13 5.5 13 5ZM11.6648 15.0447L8.38178 8.08094L6.25697 13.0004H5V14.5004H7.24303L8.44159 11.7254L11.4602 18.1285L14.1716 13.9261L15.8527 16.6653L17.6075 14.5004H19V13.0004H16.8925L16.0223 14.0739L14.2034 11.1101L11.6648 15.0447Z" />
</svg>
