<svg xmlns="http://www.w3.org/2000/svg" width="24" height="24" viewBox="0 0 24 24"><rect width="24" height="24" fill="none"/><path d="M20.27,7.52c-1.65-1.35-4.37-1.83-6.27-2h0c-.9-.08-1.61-.1-1.94-.1h-.12c-1,0-5.77.11-8.21,2.1,0,0-1.73,1.25-1.73,4.87s1.53,4.95,1.53,4.95,1,1.05,4.07,1.66h0l.87.15h.07l.88.11.18,0,.9.07.25,0c.4,0,.81,0,1.25,0s.85,0,1.25,0l.25,0,.9-.07.18,0,.88-.11h.07L16.4,19h0c3.08-.61,4.07-1.66,4.07-1.66S22,16,22,12.39,20.27,7.52,20.27,7.52ZM6,17a2,2,0,1,1,2-2A2,2,0,0,1,6,17Zm0-5a2,2,0,1,1,2-2A2,2,0,0,1,6,12Zm6,6a2,2,0,1,1,2-2A2,2,0,0,1,12,18Zm0-7a2,2,0,1,1,2-2A2,2,0,0,1,12,11Zm6,6a2,2,0,1,1,2-2A2,2,0,0,1,18,17Zm0-5a2,2,0,1,1,2-2A2,2,0,0,1,18,12Z"/><path d="M16,3a1,1,0,0,0-2,0V4.51c.61,0,1.29.13,2,.26Z"/><path d="M5.82,19.59,6.56,21A2,2,0,0,0,8.31,22h7.38A2,2,0,0,0,17.44,21l.74-1.36a22.42,22.42,0,0,1-6.19.83A22.31,22.31,0,0,1,5.82,19.59Z"/></svg>