<svg xmlns="http://www.w3.org/2000/svg" width="24" height="24" viewBox="0 0 24 24"><path d="M14,2H10A7,7,0,0,0,3,9v6a7,7,0,0,0,7,7h4a7,7,0,0,0,7-7V9A7,7,0,0,0,14,2Zm5,13a5,5,0,0,1-5,5h-.27a2,2,0,0,0-3.46,0H10a5,5,0,0,1-5-5V9a5,5,0,0,1,5-5h1V6h2V4h1a5,5,0,0,1,5,5ZM14.75,8a.75.75,0,1,1,.75.75A.76.76,0,0,1,14.75,8Zm1.75,2.75a1,1,0,1,1-1-1A1,1,0,0,1,16.5,10.75Zm0,3a1,1,0,1,1-1-1A1,1,0,0,1,16.5,13.75Zm-3.5,3a1,1,0,1,1-1-1A1,1,0,0,1,13,16.75Zm-3.5-3a1,1,0,1,1-1-1A1,1,0,0,1,9.5,13.75Zm0-3a1,1,0,1,1-1-1A1,1,0,0,1,9.5,10.75ZM7.75,8a.75.75,0,1,1,.75.75A.76.76,0,0,1,7.75,8Z" fill-rule="evenodd"/><rect width="24" height="24" fill="none"/></svg>