<svg width="24" height="24" viewBox="0 0 24 24" xmlns="http://www.w3.org/2000/svg">
<path d="M17 16C17 16.5523 16.5523 17 16 17C15.4477 17 15 16.5523 15 16C15 15.4477 15.4477 15 16 15C16.5523 15 17 15.4477 17 16Z" />
<path d="M9 16C9 16.5523 8.55228 17 8 17C7.44772 17 7 16.5523 7 16C7 15.4477 7.44772 15 8 15C8.55228 15 9 15.4477 9 16Z" />
<path d="M14 16C14 17.1046 13.1046 18 12 18C10.8954 18 10 17.1046 10 16C10 14.8954 10.8954 14 12 14C13.1046 14 14 14.8954 14 16Z" />
<path fill-rule="evenodd" clip-rule="evenodd" d="M18.1866 3H5.81343C5.03921 3.64952 4.35739 4.41818 3.79241 5.28C2.66259 7.00343 2 9.09938 2 11.36C2 17.2363 6.47715 22 12 22C17.5228 22 22 17.2363 22 11.36C22 9.09938 21.3374 7.00343 20.2076 5.28C19.6426 4.41818 18.9608 3.64952 18.1866 3ZM20 11.36C20 16.2504 16.3032 20 12 20C7.69679 20 4 16.2504 4 11.36C4 9.49332 4.54641 7.77778 5.46503 6.37651C5.79426 5.87431 6.1709 5.41309 6.58675 5H17.4132C17.8291 5.41309 18.2057 5.87431 18.535 6.37651C19.4536 7.77778 20 9.49332 20 11.36Z" />
<path d="M10 11.5C10 12.8807 8.88071 14 7.5 14C6.11929 14 5 12.8807 5 11.5C5 10.1193 6.11929 9 7.5 9C8.88071 9 10 10.1193 10 11.5Z" />
<path d="M19 11.5C19 12.8807 17.8807 14 16.5 14C15.1193 14 14 12.8807 14 11.5C14 10.1193 15.1193 9 16.5 9C17.8807 9 19 10.1193 19 11.5Z" />
<path d="M13 7C13 7.55228 12.5523 8 12 8C11.4477 8 11 7.55228 11 7C11 6.44772 11.4477 6 12 6C12.5523 6 13 6.44772 13 7Z" />
<path d="M13 10C13 10.5523 12.5523 11 12 11C11.4477 11 11 10.5523 11 10C11 9.44772 11.4477 9 12 9C12.5523 9 13 9.44772 13 10Z" />
<path d="M16 7C16 7.55228 15.5523 8 15 8C14.4477 8 14 7.55228 14 7C14 6.44772 14.4477 6 15 6C15.5523 6 16 6.44772 16 7Z" />
<path d="M10 7C10 7.55228 9.55228 8 9 8C8.44772 8 8 7.55228 8 7C8 6.44772 8.44772 6 9 6C9.55228 6 10 6.44772 10 7Z" />
</svg>
