<svg xmlns="http://www.w3.org/2000/svg" width="24" height="24" viewBox="0 0 24 24"><path d="M14,2.2V2a2,2,0,0,0-4,0v.2a10,10,0,1,0,4,0ZM12,20a8,8,0,1,1,8-8A8,8,0,0,1,12,20Zm6-8.75A1.25,1.25,0,1,1,16.75,10,1.25,1.25,0,0,1,18,11.25Zm-2,5A1.25,1.25,0,1,1,14.75,15,1.25,1.25,0,0,1,16,16.25Zm-5.5,0A1.25,1.25,0,1,1,9.25,15,1.25,1.25,0,0,1,10.5,16.25ZM7.25,12.5A1.25,1.25,0,1,1,8.5,11.25,1.25,1.25,0,0,1,7.25,12.5Zm6.25-5A1.5,1.5,0,1,1,12,6,1.5,1.5,0,0,1,13.5,7.5Z" fill-rule="evenodd"/><rect width="24" height="24" fill="none"/></svg>