<svg xmlns="http://www.w3.org/2000/svg" width="24" height="24" viewBox="0 0 24 24"><path d="M14,2.2V2a2,2,0,0,0-4,0v.2a10,10,0,1,0,4,0ZM12,20a8,8,0,1,1,8-8A8,8,0,0,1,12,20Zm6-8.75A1.25,1.25,0,1,1,16.75,10,1.25,1.25,0,0,1,18,11.25Zm-4.75,5.5A1.25,1.25,0,1,1,12,15.5,1.25,1.25,0,0,1,13.25,16.75ZM8.5,11.25A1.25,1.25,0,1,1,7.25,10,1.25,1.25,0,0,1,8.5,11.25Zm5-3.75A1.5,1.5,0,1,1,12,6,1.5,1.5,0,0,1,13.5,7.5Z" transform="translate(-0.5)" fill-rule="evenodd"/><rect width="24" height="24" fill="none"/></svg>