<svg width="24" height="24" viewBox="0 0 24 24"  xmlns="http://www.w3.org/2000/svg">
<path d="M8 13.25C8.69036 13.25 9.25 12.6904 9.25 12C9.25 11.3096 8.69036 10.75 8 10.75C7.30964 10.75 6.75 11.3096 6.75 12C6.75 12.6904 7.30964 13.25 8 13.25Z" />
<path d="M16 13.25C16.6904 13.25 17.25 12.6904 17.25 12C17.25 11.3096 16.6904 10.75 16 10.75C15.3096 10.75 14.75 11.3096 14.75 12C14.75 12.6904 15.3096 13.25 16 13.25Z" />
<path d="M13.25 12C13.25 12.6904 12.6904 13.25 12 13.25C11.3096 13.25 10.75 12.6904 10.75 12C10.75 11.3096 11.3096 10.75 12 10.75C12.6904 10.75 13.25 11.3096 13.25 12Z" />
<path fill-rule="evenodd" clip-rule="evenodd" d="M15.8675 5H8.13228C6.72722 5 5.4252 5.7372 4.7023 6.94202L2.9023 9.94202C2.14227 11.2087 2.14227 12.7913 2.9023 14.058L4.7023 17.058C5.4252 18.2628 6.72722 19 8.13228 19H15.8675C17.2726 19 18.5746 18.2628 19.2975 17.058L21.0975 14.058C21.8575 12.7913 21.8575 11.2087 21.0975 9.94202L19.2975 6.94202C18.5746 5.7372 17.2726 5 15.8675 5ZM6.41729 7.97101C6.77874 7.3686 7.42975 7 8.13228 7H15.8675C16.57 7 17.2211 7.3686 17.5825 7.97101L19.3825 10.971C19.7625 11.6044 19.7625 12.3956 19.3825 13.029L17.5825 16.029C17.2211 16.6314 16.57 17 15.8675 17H8.13228C7.42975 17 6.77874 16.6314 6.41729 16.029L4.61729 13.029C4.23727 12.3956 4.23727 11.6044 4.61729 10.971L6.41729 7.97101Z" />
</svg>
