<svg xmlns="http://www.w3.org/2000/svg" width="24" height="24" viewBox="0 0 24 24"><path d="M14,2H10a8,8,0,0,0-8,8v4a8,8,0,0,0,8,8h4a8,8,0,0,0,8-8V10A8,8,0,0,0,14,2Zm6,12a6,6,0,0,1-6,6H10a6,6,0,0,1-6-6V10a6,6,0,0,1,6-6h4a6,6,0,0,1,6,6Zm-2-2a1.5,1.5,0,1,1-1.5-1.5A1.5,1.5,0,0,1,18,12Zm-4.5,4.5A1.5,1.5,0,1,1,12,15,1.5,1.5,0,0,1,13.5,16.5ZM9,12a1.5,1.5,0,1,1-1.5-1.5A1.5,1.5,0,0,1,9,12Zm1.75-4.75A1.25,1.25,0,1,1,12,8.5,1.25,1.25,0,0,1,10.75,7.25Z" fill-rule="evenodd"/><rect width="24" height="24" fill="none"/></svg>