<svg xmlns="http://www.w3.org/2000/svg" width="24" height="24" viewBox="0 0 24 24"><path d="M12,14A6,6,0,1,0,6,8,6,6,0,0,0,12,14ZM12,3.5A4.5,4.5,0,1,1,7.5,8,4.49,4.49,0,0,1,12,3.5ZM12.75,6a1,1,0,1,1,1,1A1,1,0,0,1,12.75,6Zm2,1.75A.75.75,0,1,1,14,8.5.76.76,0,0,1,14.75,7.75ZM11,10.5a1,1,0,1,1,1,1A1,1,0,0,1,11,10.5ZM9.25,9.25A.75.75,0,1,1,10,8.5.76.76,0,0,1,9.25,9.25ZM9.25,6a1,1,0,1,1,1,1A1,1,0,0,1,9.25,6Zm6.25,9h-7a3.5,3.5,0,0,0,0,7h7a3.5,3.5,0,0,0,0-7Zm0,5.5h-7a2,2,0,0,1,0-4h7a2,2,0,0,1,0,4ZM9,17a1.5,1.5,0,1,0,1.5,1.5A1.5,1.5,0,0,0,9,17Zm0,2a.5.5,0,1,1,.5-.5A.5.5,0,0,1,9,19Zm6.25-2a1.5,1.5,0,1,0,1.5,1.5A1.5,1.5,0,0,0,15.25,17Zm0,2a.5.5,0,1,1,.5-.5A.5.5,0,0,1,15.25,19Z" fill-rule="evenodd"/><rect width="24" height="24" fill="none"/></svg>