<svg width="24" height="24" viewBox="0 0 24 24" fill="none" xmlns="http://www.w3.org/2000/svg">
<path d="M11 2C11 1.44772 11.4477 1 12 1C12.5523 1 13 1.44772 13 2V11H14V4C14 3.44772 14.4477 3 15 3C15.5523 3 16 3.44772 16 4V13.5H16.4999C16.8333 12.5 17.5999 10.4 17.9999 10C18.4999 9.5 18.9999 9.5 19.4999 9.5C19.9999 9.5 20.5001 10 20.0001 11C19.7057 11.8095 19.3594 12.9178 19.0299 13.9722C18.6132 15.3059 18.2234 16.5532 18 17C17.6 17.8 16.5 19 16 19.5V22C16 22.5523 15.5523 23 15 23H9C7.89543 23 7 22.1046 7 21V20H11.9972V19H7C6 18.5 5 17 5 13V6C5 5.44772 5.44771 5 6 5C6.55229 5 7 5.44772 7 6V11H8V3C8 2.44772 8.44771 2 9 2C9.55229 2 10 2.44772 10 3V11H11V2Z"/>
</svg>
