<svg width="24" height="24" viewBox="0 0 24 24" xmlns="http://www.w3.org/2000/svg">
<path fill-rule="evenodd" clip-rule="evenodd" d="M3.99992 14.16V12.88C3.99992 12.394 4.39391 12 4.87992 12C4.90557 10.6933 5.27137 9.41575 5.94124 8.29346C6.6111 7.17116 7.56191 6.24284 8.69992 5.60002L9.12992 4.86002C9.12992 4.86002 9.41992 4.16002 11.3699 4.13002C12.582 3.90676 13.8287 3.9589 15.0179 4.2826C16.2071 4.60629 17.3082 5.19324 18.2399 6.00002C20.0381 7.78646 21.0801 10.1962 21.1499 12.73L21.598 12.8196C21.8317 12.8664 21.9999 13.0716 21.9999 13.3099V13.67C22.0037 13.8819 22.0857 14.0848 22.2299 14.24C22.5124 14.5189 22.315 15 21.918 15H15.3399C14.2796 14.9995 13.2227 15.1203 12.1899 15.36L11.1899 15.58C9.96184 15.8325 8.71339 15.9731 7.45992 16H1.88569C1.63342 16 1.53994 15.6688 1.75499 15.5369L3.99992 14.16ZM13 12H11L10.5 13H6.5C6.22386 13 6 13.2239 6 13.5C6 13.7761 6.22386 14 6.5 14H19.5C19.7761 14 20 13.7761 20 13.5C20 13.2239 19.7761 13 19.5 13H13.5L13 12Z"/>
<path d="M19 16V20C19.0047 20.5897 18.3486 21.0001 17.8101 21H13.4801C12.5794 20.9967 11.7167 20.6372 11.0801 20L10.7401 19.66C10.4603 19.3805 10.2384 19.0485 10.0874 18.6829C9.9364 18.3174 9.85915 17.9256 9.86012 17.53L9.9261 16.809C10.417 16.7426 10.9057 16.6595 11.3914 16.5596L11.4316 16.5508L12.7001 18.17C12.8766 18.426 13.1126 18.6352 13.3878 18.7798C13.663 18.9244 13.9692 18.9999 14.2801 19H17.5701C17.6842 19 17.7935 18.9547 17.8742 18.8741C17.9548 18.7934 18.0001 18.6841 18.0001 18.57V16H19Z"/>
<path d="M20 16.5C20 16.2239 20.2239 16 20.5 16C20.7761 16 21 16.2239 21 16.5V18.5C21 18.7761 20.7761 19 20.5 19C20.2239 19 20 18.7761 20 18.5V16.5Z"/>
</svg>
