<svg width="24" height="24" viewBox="0 0 24 24" fill="none" xmlns="http://www.w3.org/2000/svg">
<path fill-rule="evenodd" clip-rule="evenodd" d="M11 1C11 0.447715 11.4477 0 12 0C12.5523 0 13 0.447715 13 1V10H14V3C14 2.44772 14.4477 2 15 2C15.5523 2 16 2.44772 16 3V12.5H16.4999C16.8333 11.5 17.5999 9.4 17.9999 9C18.4999 8.5 18.9999 8.5 19.4999 8.5C19.9999 8.5 20.5001 9 20.0001 10C19.7057 10.8095 19.3594 11.9178 19.0299 12.9722C18.6132 14.3059 18.2234 15.5532 18 16C17.6 16.8 16.5 18 16 18.5L16.4972 24H6.49723L7 18C6 17.5 5 16 5 12V5C5 4.44772 5.44771 4 6 4C6.55229 4 7 4.44772 7 5V10H8V2C8 1.44772 8.44771 1 9 1C9.55229 1 10 1.44772 10 2V10H11V1ZM13.9972 20C14.5495 20 14.9972 20.4477 14.9972 21C14.9972 21.5523 14.5495 22 13.9972 22H8.99723C8.44495 22 7.99723 21.5523 7.99723 21C7.99723 20.4477 8.44494 20 8.99723 20H13.9972Z"/>
</svg>
