<?xml version="1.0" encoding="UTF-8"?><svg id="a" xmlns="http://www.w3.org/2000/svg" width="24" height="24" viewBox="0 0 24 24"><path d="m19.5,8.5c-.5,0-1,0-1.5.5-.4.4-1.17,2.5-1.5,3.5h-.5V3c0-.55-.45-1-1-1s-1,.45-1,1v7h-1V1c0-.55-.45-1-1-1s-1,.45-1,1v9h-1V2c0-.55-.45-1-1-1s-1,.45-1,1v8h-1v-5c0-.55-.45-1-1-1s-1,.45-1,1v7c0,4,1,5.5,2,6l-.5,6h10l-.5-5.5c.5-.5,1.6-1.7,2-2.5.22-.45.61-1.69,1.03-3.03.33-1.05.68-2.16.97-2.97.5-1,0-1.5-.5-1.5Zm-5.5,13.5h-5c-.56,0-1-.45-1-1s.44-1,1-1h5c.55,0,1,.45,1,1s-.45,1-1,1Z"/></svg>