<svg width="24" height="24" viewBox="0 0 24 24" fill="none" xmlns="http://www.w3.org/2000/svg">
<path d="M8.15005 18.0001L7.40005 16.8001C8.73338 16.6668 9.77505 16.3084 10.525 15.7251C11.275 15.1418 11.65 14.3918 11.65 13.4751C11.65 12.9751 11.4792 12.5168 11.1375 12.1001C10.7959 11.6834 10.35 11.3834 9.80005 11.2001C9.41672 12.1501 8.96255 13.0001 8.43755 13.7501C7.91255 14.5001 7.33338 15.1501 6.70005 15.7001C6.75005 15.9001 6.80422 16.1001 6.86255 16.3001C6.92088 16.5001 6.98338 16.7001 7.05005 16.9001L5.80005 17.2751C5.75005 17.1084 5.70838 16.9626 5.67505 16.8376C5.64172 16.7126 5.60838 16.6001 5.57505 16.5001C5.14172 16.7334 4.73338 16.9126 4.35005 17.0376C3.96672 17.1626 3.59172 17.2251 3.22505 17.2251C2.69172 17.2251 2.25838 17.0501 1.92505 16.7001C1.59172 16.3501 1.42505 15.8834 1.42505 15.3001C1.42505 14.4168 1.75838 13.5418 2.42505 12.6751C3.09172 11.8084 3.95005 11.1251 5.00005 10.6251C5.01672 10.3084 5.03338 9.99593 5.05005 9.6876C5.06672 9.37926 5.09172 9.06676 5.12505 8.7501C4.65838 8.76676 4.16672 8.7626 3.65005 8.7376C3.13338 8.7126 2.57505 8.6751 1.97505 8.6251L1.95005 7.3001C2.38338 7.38343 2.85005 7.4376 3.35005 7.4626C3.85005 7.4876 4.49172 7.5001 5.27505 7.5001C5.30838 7.2001 5.34588 6.90426 5.38755 6.6126C5.42922 6.32093 5.43338 6.0251 5.40005 5.7251L6.90005 5.7501C6.78338 6.03343 6.70005 6.32093 6.65005 6.6126C6.60005 6.90426 6.55005 7.19176 6.50005 7.4751C7.46672 7.4251 8.35838 7.3501 9.17505 7.2501C9.99172 7.1501 10.7584 7.01676 11.475 6.8501L11.5 8.1501C10.6167 8.28343 9.75422 8.39593 8.91255 8.4876C8.07088 8.57926 7.22505 8.6501 6.37505 8.7001C6.34172 8.93343 6.32088 9.1751 6.31255 9.4251C6.30422 9.6751 6.28338 9.91676 6.25005 10.1501C6.71672 10.0168 7.17088 9.9251 7.61255 9.8751C8.05422 9.8251 8.49172 9.81676 8.92505 9.8501C8.97505 9.68343 9.01255 9.51676 9.03755 9.3501C9.06255 9.18343 9.08338 9.01676 9.10005 8.8501L10.525 9.2001C10.475 9.33343 10.4209 9.46676 10.3625 9.6001C10.3042 9.73343 10.25 9.89176 10.2 10.0751C11.05 10.3084 11.7292 10.7418 12.2375 11.3751C12.7459 12.0084 13 12.7168 13 13.5001C13 14.6668 12.5709 15.6459 11.7125 16.4376C10.8542 17.2293 9.66672 17.7501 8.15005 18.0001ZM3.45005 15.8751C3.73338 15.8751 4.02505 15.8168 4.32505 15.7001C4.62505 15.5834 4.94172 15.4084 5.27505 15.1751C5.15838 14.5418 5.07505 13.9668 5.02505 13.4501C4.97505 12.9334 4.95005 12.4418 4.95005 11.9751C4.31672 12.3751 3.79172 12.8668 3.37505 13.4501C2.95838 14.0334 2.75005 14.5834 2.75005 15.1001C2.75005 15.3168 2.82088 15.5001 2.96255 15.6501C3.10422 15.8001 3.26672 15.8751 3.45005 15.8751ZM6.40005 14.2501C6.88338 13.7834 7.30422 13.2793 7.66255 12.7376C8.02088 12.1959 8.31672 11.6168 8.55005 11.0001C8.16672 11.0001 7.77922 11.0334 7.38755 11.1001C6.99588 11.1668 6.60005 11.2668 6.20005 11.4001C6.16672 11.8334 6.17088 12.2834 6.21255 12.7501C6.25422 13.2168 6.31672 13.7168 6.40005 14.2501ZM17.55 15.6501C18.0167 15.6501 18.4709 15.5418 18.9125 15.3251C19.3542 15.1084 19.7584 14.8001 20.125 14.4001V11.7501C19.7417 11.8001 19.3875 11.8584 19.0625 11.9251C18.7375 11.9918 18.4334 12.0668 18.15 12.1501C17.4 12.3834 16.8375 12.6751 16.4625 13.0251C16.0875 13.3751 15.9 13.7834 15.9 14.2501C15.9 14.6834 16.05 15.0251 16.35 15.2751C16.65 15.5251 17.05 15.6501 17.55 15.6501ZM16.975 17.3501C16.025 17.3501 15.275 17.0793 14.725 16.5376C14.175 15.9959 13.9 15.2584 13.9 14.3251C13.9 13.4584 14.175 12.7501 14.725 12.2001C15.275 11.6501 16.1584 11.2084 17.375 10.8751C17.7584 10.7751 18.1792 10.6834 18.6375 10.6001C19.0959 10.5168 19.5917 10.4418 20.125 10.3751C20.0917 9.59176 19.9084 9.02093 19.575 8.6626C19.2417 8.30426 18.725 8.1251 18.025 8.1251C17.5917 8.1251 17.1625 8.20426 16.7375 8.3626C16.3125 8.52093 15.7667 8.8001 15.1 9.2001L14.3 7.8001C14.85 7.38343 15.4959 7.04593 16.2375 6.7876C16.9792 6.52926 17.7334 6.4001 18.5 6.4001C19.6834 6.4001 20.5834 6.76676 21.2 7.5001C21.8167 8.23343 22.125 9.3001 22.125 10.7001V17.1251H20.45L20.3 16.0001C19.8334 16.4168 19.3209 16.7459 18.7625 16.9876C18.2042 17.2293 17.6084 17.3501 16.975 17.3501Z" fill="white"/>
</svg>
