<svg width="24" height="24" viewBox="0 0 24 24" fill="none" xmlns="http://www.w3.org/2000/svg">
<path fill-rule="evenodd" clip-rule="evenodd" d="M17 8H18C19.1 8 20 8.90002 20 10V20C20 21.1 19.1 22 18 22H6C4.9 22 4 21.1 4 20V10C4 8.90002 4.9 8 6 8H7V6C7 3.23999 9.24 1 12 1C14.76 1 17 3.23999 17 6V8ZM8.9 6V8H15.1V6C15.1 4.28998 13.71 2.90002 12 2.90002C10.29 2.90002 8.9 4.28998 8.9 6ZM14.1777 14.1553C14.4749 13.8115 14.6235 13.3943 14.6235 12.9038C14.6235 12.3166 14.3872 11.8582 13.9146 11.5288C13.4455 11.1994 12.8045 11.0347 11.9917 11.0347C10.9998 11.0347 10.1458 11.2925 9.42969 11.8081L10.1978 12.9521C10.5236 12.7409 10.819 12.5923 11.084 12.5063C11.3525 12.4204 11.6157 12.3774 11.8735 12.3774C12.6183 12.3774 12.9907 12.6746 12.9907 13.269C12.9907 13.6558 12.8493 13.9297 12.5664 14.0908C12.2871 14.2484 11.8431 14.3271 11.2344 14.3271H10.6274V15.6001H11.2236C11.8825 15.6001 12.3623 15.6771 12.6631 15.8311C12.9639 15.985 13.1143 16.2464 13.1143 16.6152C13.1143 17.027 12.9836 17.326 12.7222 17.5122C12.4608 17.6984 12.0562 17.7915 11.5083 17.7915C11.1502 17.7915 10.7886 17.7432 10.4233 17.6465C10.0581 17.5498 9.7233 17.4245 9.41895 17.2705V18.6831C10.0778 18.966 10.8333 19.1074 11.6855 19.1074C12.7025 19.1074 13.4849 18.8979 14.0327 18.479C14.5806 18.0565 14.8545 17.4675 14.8545 16.7119C14.8545 16.1927 14.6916 15.7809 14.3657 15.4766C14.0399 15.1686 13.5601 14.9753 12.9263 14.8965V14.8643C13.4634 14.7354 13.8805 14.499 14.1777 14.1553Z" fill="#727E84"/>
</svg>
