<svg id="a" xmlns="http://www.w3.org/2000/svg" width="24" height="24" viewBox="0 0 24 24"><path d="m5.78,11.84l3.38,3.38c-.35.18-.74.28-1.16.28-1.38,0-2.5-1.12-2.5-2.5,0-.42.1-.81.28-1.16Zm2.22-1.34c-.42,0-.81.1-1.16.28l3.38,3.38c.18-.35.28-.74.28-1.16,0-1.38-1.12-2.5-2.5-2.5Zm5.41-7.91c.38.37.59.88.59,1.41v16c0,.53-.21,1.04-.59,1.41-.37.38-.88.59-1.41.59H4c-.53,0-1.04-.21-1.41-.59-.38-.37-.59-.88-.59-1.41V4c0-.53.21-1.04.59-1.41.37-.38.88-.59,1.41-.59h8c.53,0,1.04.21,1.41.59Zm-7.41,16.41c0-.55-.45-1-1-1s-1,.45-1,1,.45,1,1,1,1-.45,1-1Zm3,0c0-.55-.45-1-1-1s-1,.45-1,1,.45,1,1,1,1-.45,1-1Zm3,0c0-.55-.45-1-1-1s-1,.45-1,1,.45,1,1,1,1-.45,1-1Zm0-6c0-2.21-1.79-4-4-4s-4,1.79-4,4,1.79,4,4,4,4-1.79,4-4Zm0-9H4v3h8v-3Zm7,2h-1l-1-4-1,4h-1v1h1v13h2V7h1v-1Zm2,2l-1-4-1,4v14h2v-13h1v-1h-1Z"/></svg>