<svg width="24" height="24" viewBox="0 0 24 24" xmlns="http://www.w3.org/2000/svg">
<path d="M8.5 10C7.80777 10 7.13108 10.2053 6.5555 10.5899C5.97993 10.9744 5.53133 11.5211 5.26642 12.1606C5.00152 12.8001 4.9322 13.5039 5.06725 14.1828C5.2023 14.8618 5.53564 15.4854 6.02513 15.9749C6.51461 16.4644 7.13825 16.7977 7.81718 16.9327C8.49612 17.0678 9.19985 16.9985 9.83939 16.7336C10.4789 16.4687 11.0256 16.0201 11.4101 15.4445C11.7947 14.8689 12 14.1922 12 13.5C12 12.5717 11.6313 11.6815 10.9749 11.0251C10.3185 10.3687 9.42826 10 8.5 10ZM10.5 13.5C10.4995 13.7681 10.4451 14.0334 10.34 14.28L7.72 11.66C8.02397 11.5313 8.35507 11.4798 8.68378 11.5101C9.01249 11.5404 9.32858 11.6517 9.60386 11.8338C9.87913 12.016 10.105 12.2635 10.2614 12.5543C10.4178 12.845 10.4997 13.1699 10.5 13.5ZM6.5 13.5C6.50052 13.2319 6.55493 12.9666 6.66 12.72L9.28 15.34C8.97603 15.4687 8.64493 15.5202 8.31622 15.4899C7.98751 15.4596 7.67142 15.3483 7.39614 15.1662C7.12087 14.984 6.89497 14.7365 6.73861 14.4457C6.58224 14.155 6.50027 13.8301 6.5 13.5Z"/>
<path d="M13 2H4C3.46957 2 2.96086 2.21071 2.58579 2.58579C2.21071 2.96086 2 3.46957 2 4V20C2 20.5304 2.21071 21.0391 2.58579 21.4142C2.96086 21.7893 3.46957 22 4 22H13C13.5304 22 14.0391 21.7893 14.4142 21.4142C14.7893 21.0391 15 20.5304 15 20V4C15 3.46957 14.7893 2.96086 14.4142 2.58579C14.0391 2.21071 13.5304 2 13 2ZM13 4V7H4V4H13ZM4 20V9H13V20H4Z"/>
<path fill-rule="evenodd" clip-rule="evenodd" d="M20 6H19L18 2L17 6H16V7H17V20H19V7H20V6Z"/>
<path fill-rule="evenodd" clip-rule="evenodd" d="M23 8H22L21 4L20 8V22H22V9H23V8Z"/>
<path d="M8.5 19.5C9.05228 19.5 9.5 19.0523 9.5 18.5C9.5 17.9477 9.05228 17.5 8.5 17.5C7.94772 17.5 7.5 17.9477 7.5 18.5C7.5 19.0523 7.94772 19.5 8.5 19.5Z"/>
<path d="M11 19.5C11.5523 19.5 12 19.0523 12 18.5C12 17.9477 11.5523 17.5 11 17.5C10.4477 17.5 10 17.9477 10 18.5C10 19.0523 10.4477 19.5 11 19.5Z"/>
<path d="M6 19.5C6.55228 19.5 7 19.0523 7 18.5C7 17.9477 6.55228 17.5 6 17.5C5.44772 17.5 5 17.9477 5 18.5C5 19.0523 5.44772 19.5 6 19.5Z"/>
</svg>
