<svg width="24" height="24" viewBox="0 0 24 24" fill="none" xmlns="http://www.w3.org/2000/svg">
<path d="M14.0031 4.8225C13.8399 4.7684 13.6722 4.7208 13.5 4.68V4C13.5 3.17 12.83 2.5 12 2.5C11.17 2.5 10.5 3.17 10.5 4V4.68C7.64 5.36 6 7.92 6 11V16L4 18V19H20V18L18 16V11C18 10.6195 17.975 10.2468 17.9256 9.88429C16.9231 9.66477 16.0331 9.14442 15.355 8.42262C15.7748 9.15327 16 10.0423 16 11V17H8V11C8 8.52 9.51 6.5 12 6.5C13.1224 6.5 14.0457 6.91044 14.7213 7.58844C14.2635 6.83338 14 5.94747 14 5C14 4.94059 14.001 4.88142 14.0031 4.8225Z"/>
<path d="M14 20C14 21.1 13.1 22 12 22C10.9 22 10 21.1 10 20H14Z"/>
<path d="M22 5C22 6.65685 20.6569 8 19 8C17.3431 8 16 6.65685 16 5C16 3.34315 17.3431 2 19 2C20.6569 2 22 3.34315 22 5Z"/>
</svg>
