<?xml version="1.0" encoding="UTF-8"?><svg id="a" xmlns="http://www.w3.org/2000/svg" width="24" height="24" viewBox="0 0 24 24"><path d="M4.17,4l-1.58-1.59-1.42,1.42,1.13,1.13c-.19,.3-.3,.66-.3,1.04v12c0,1.1,.9,2,2,2h13.34l3.63,3.63,1.41-1.42L4.17,4Zm-.17,2.66l.34,.34-.34,.33v-.67Zm0,11.34v-7.84l1.75-1.75,9.59,9.59H4ZM15.84,6l4.16,4.16v6.84l1.82,1.82c.12-.25,.18-.53,.18-.82V6c0-1.1-.9-2-2-2H7l2,2h6.84Zm4.16,0v1.33l-1.33-1.33h1.33Zm-7,4l-2-2h3v2h-1Zm5,5l-1-1h1v1Zm-1-3v2l-2-2h2Zm-7,4H6v-2h1v-2h2v2h1v2Z" /></svg>