<?xml version="1.0" encoding="UTF-8"?><svg id="a" xmlns="http://www.w3.org/2000/svg" width="24" height="24" viewBox="0 0 24 24"><path d="M2.59,2.41l-1.42,1.42,3.05,3.05-1.85,2.6c-.24,.34-.37,.74-.37,1.16v7.36c0,1.1,.9,2,2,2h13.34l3.63,3.63,1.41-1.42L2.59,2.41Zm1.41,15.59v-7.36l1.66-2.32,9.68,9.68H4ZM8.02,5.02l-1.42-1.42c.37-.38,.89-.6,1.43-.6h7.94c.65,0,1.25,.31,1.63,.84l4.03,5.64c.24,.34,.37,.74,.37,1.16v7.36c0,.29-.06,.57-.18,.82l-1.82-1.82v-6.36l-4.03-5.64h-7.94v.02Zm7.97,7.98v-2h2v4l-2-2Zm-5-5v-1h2v3l-2-2Zm-3,8h-2v-5h2v5Z"/></svg>