<svg xmlns="http://www.w3.org/2000/svg" xmlns:xlink="http://www.w3.org/1999/xlink" version="1.1" width="24" height="24" viewBox="0 0 24 24"><defs><clipPath id="slash-clip"><path d="M0 0 L24 0 L24 24 L0 24 Z M-24.36 -27.21 L-27.20 -24.37 L48.40 51.23 L51.24 48.39 Z" clip-rule="evenodd" fill-rule="evenodd"/></clipPath></defs><g clip-path="url(#slash-clip)"><path d="M22,14H20V16H14V13H16V11H14V6A2,2 0 0,0 12,4H4V2H2V10H4V8H10V11H8V13H10V18A2,2 0 0,0 12,20H20V22H22"/></g><path data-name="slash-overlay" d="M4.22 4.21 L2.80 5.63 L18.40 21.23 L19.82 19.81 Z" fill="currentColor"/></svg>