<svg xmlns="http://www.w3.org/2000/svg" width="24" height="24" viewBox="0 0 24 24">
  <title>potato</title>
  <path d="M15.36,2a5.81,5.81,0,0,0-3.06.87,23,23,0,0,0-4.69,4.5C6.36,8.77,4.49,10,3.21,11.72a5.52,5.52,0,0,0-1.22,3,6.54,6.54,0,0,0,1.12,3.81A7.78,7.78,0,0,0,10.33,22a12.35,12.35,0,0,0,8.13-3.72A12.75,12.75,0,0,0,22,10.53,7.94,7.94,0,0,0,18.8,3.18,6.17,6.17,0,0,0,15.36,2Zm0,1.93a4.14,4.14,0,0,1,2.31.88A5.93,5.93,0,0,1,20,10.4,10.84,10.84,0,0,1,17,16.87,10.39,10.39,0,0,1,10.24,20,5.78,5.78,0,0,1,4.8,17.5,4.42,4.42,0,0,1,4,14.87a3.5,3.5,0,0,1,.81-1.94c1-1.3,2.83-2.57,4.31-4.21a23.74,23.74,0,0,1,4.25-4.13A3.74,3.74,0,0,1,15.33,3.93ZM17,8a1,1,0,1,0,0,2,1,1,0,0,0,0-2Zm-2.5,2a.5.5,0,0,0-.5.5.5.5,0,0,0,.5.5.51.51,0,0,0,.5-.5A.5.5,0,0,0,14.49,10Zm-5,3a.5.5,0,0,0-.5.5.5.5,0,0,0,.5.5.51.51,0,0,0,.5-.5A.5.5,0,0,0,9.49,13Zm-2,2a.5.5,0,0,0-.5.5.5.5,0,0,0,.5.5.51.51,0,0,0,.5-.5A.5.5,0,0,0,7.49,15ZM10,16a1,1,0,0,0,0,2,1,1,0,1,0,0-2Z"/>
  <rect width="24" height="24" fill="none"/>
</svg>
