<svg width="24" height="24" viewBox="0 0 24 24" fill="none" xmlns="http://www.w3.org/2000/svg">
<path fill-rule="evenodd" clip-rule="evenodd" d="M10.89 12.68C8.86 10.51 8 7.09 8 2H6C6 5.8 6.46 8.98 7.7 11.5C7.7 11.5 7.7 11.51 7.7 11.52C7.76 11.64 7.82 11.77 7.89 11.89C7.93 11.96 7.96 12.03 8 12.1V12.07C8.4 12.79 8.87 13.46 9.42 14.06C12.01 16.83 16.11 18.01 22 18.01V16.01C16.3 16.01 12.9 14.85 10.89 12.69V12.68Z" fill="black"/>
<path d="M12 21H10V22H12V21Z" fill="black"/>
<path d="M4 2H2V22H4V2Z" fill="black"/>
<path d="M8 17H6V19H8V17Z" fill="black"/>
<path d="M8 21H6V22H8V21Z" fill="black"/>
<path fill-rule="evenodd" clip-rule="evenodd" d="M6 12.6V15H7.63C7 14.26 6.45 13.46 6 12.6Z" fill="black"/>
<path fill-rule="evenodd" clip-rule="evenodd" d="M10 19H12V18.25C11.29 17.93 10.63 17.54 10 17.12V19Z" fill="black"/>
</svg>
