<svg width="24" height="24" viewBox="0 0 24 24"  xmlns="http://www.w3.org/2000/svg">
<path fill-rule="evenodd" clip-rule="evenodd" d="M9.52668 5.49521C9.52668 6.35613 9.25673 7.01459 8.71683 7.47059C8.18057 7.92659 7.41632 8.15458 6.42408 8.15458H5.69631V11H4V3H6.5554C7.52576 3 8.26265 3.20976 8.76607 3.62928C9.27314 4.04514 9.52668 4.66712 9.52668 5.49521ZM5.69631 6.76471H6.25445C6.77611 6.76471 7.16644 6.66256 7.42544 6.45828C7.68445 6.25034 7.81395 5.94938 7.81395 5.5554C7.81395 5.15778 7.70451 4.86411 7.48564 4.67442C7.27041 4.48472 6.93114 4.38988 6.46785 4.38988H5.69631V6.76471Z" />
<path d="M16 6L19 3L22 6H20V20H18L18 6H16Z" />
<path d="M6 20H4V19H6V20Z" />
<path d="M8 20H11V19H8V20Z" />
<path d="M12.8181 11.8886L10.6968 14.0099L9.98971 13.3028L12.111 11.1815L12.8181 11.8886Z" />
<path d="M13 20H16V19H13V20Z" />
<path d="M6.27832 17.0141H7.69253L9.28252 15.4241L8.57542 14.717L6.27832 17.0141Z" />
<path d="M13.5251 9.76724L15.2885 8.00391H16.7027L14.2323 10.4743L13.5251 9.76724Z" />
</svg>
