<svg xmlns="http://www.w3.org/2000/svg" width="24" height="24" viewBox="0 0 24 24">
  <g>
    <rect width="24" height="24" fill="none"/>
    <g>
      <path d="M12,6V9l4-4L12,1V4a8,8,0,0,0-8,8,8.92,8.92,0,0,0,1.2,4.3l1.5-1.5A5.28,5.28,0,0,1,6,12,6,6,0,0,1,12,6Z"/>
      <path d="M18.8,7.7,17.3,9.2A6.51,6.51,0,0,1,18,12a6,6,0,0,1-6,6V15L8,19l4,4V20a8,8,0,0,0,8-8A8.92,8.92,0,0,0,18.8,7.7Z"/>
      <polygon points="15 15 15 9 13 9 13 11 11 11 11 9 9 9 9 15 11 15 11 13 13 13 13 15 15 15"/>
    </g>
  </g>
</svg>
