<svg width="24" height="24" viewBox="0 0 24 24" xmlns="http://www.w3.org/2000/svg">
<path d="M10.2861 18.75L7.6582 9.49512H7.5791C7.60254 9.73535 7.62598 10.0605 7.64941 10.4707C7.67871 10.8809 7.70508 11.3232 7.72852 11.7979C7.75195 12.2725 7.76367 12.7295 7.76367 13.1689V18.75H4.6875V5.90039H9.31055L11.9912 15.0234H12.0615L14.6895 5.90039H19.3213V18.75H16.1309V13.1162C16.1309 12.7119 16.1367 12.2783 16.1484 11.8154C16.166 11.3467 16.1836 10.9072 16.2012 10.4971C16.2246 10.0811 16.2451 9.75293 16.2627 9.5127H16.1836L13.5908 18.75H10.2861Z" />
</svg>
