<svg xmlns="http://www.w3.org/2000/svg" width="24" height="24" viewBox="0 0 24 24"><path d="M2,2V6A2,2,0,0,0,4,8h.3l.78,5.29a2,2,0,0,0,2,1.71h9.88a2,2,0,0,0,2-1.71L19.7,8H20a2,2,0,0,0,2-2V2ZM16.94,13H7.06L6.32,8H17.68ZM20,6H4V4H20ZM9,12,8.5,9H10l.5,3Zm.17,7.31A2.68,2.68,0,0,1,9.8,21a2.59,2.59,0,0,1-.71,1.77,3.69,3.69,0,0,1-.46.41l-.16.11a.09.09,0,0,1-.06,0h0L8,22.62l-.38-.7h0l.07,0a1.24,1.24,0,0,0,.22-.2A1,1,0,0,0,8.2,21c0-.26-.09-.41-.34-.75l0,0a2.74,2.74,0,0,1-.63-1.67,3.15,3.15,0,0,1,.66-1.84,3.25,3.25,0,0,1,.42-.49l.14-.14.05,0h0l.51.62.51.62h0l-.08.08a2.33,2.33,0,0,0-.26.31,1.49,1.49,0,0,0-.35.89c0,.26.09.41.35.75Zm4,0A2.68,2.68,0,0,1,13.8,21a2.59,2.59,0,0,1-.71,1.77,3.69,3.69,0,0,1-.46.41l-.16.11a.09.09,0,0,1-.06,0h0l-.38-.7-.38-.7h0l.07,0a1.24,1.24,0,0,0,.22-.2A1,1,0,0,0,12.2,21c0-.26-.09-.41-.34-.75l0,0a2.74,2.74,0,0,1-.63-1.67,3.15,3.15,0,0,1,.66-1.84,3.25,3.25,0,0,1,.42-.49l.14-.14.05,0h0l.51.62.51.62h0l-.08.08a2.33,2.33,0,0,0-.26.31,1.49,1.49,0,0,0-.35.89c0,.26.09.41.35.75Zm4,0A2.68,2.68,0,0,1,17.8,21a2.59,2.59,0,0,1-.71,1.77,3.69,3.69,0,0,1-.46.41l-.16.11a.09.09,0,0,1-.06,0h0l-.38-.7-.38-.7h0l.07,0a1.24,1.24,0,0,0,.22-.2A1,1,0,0,0,16.2,21c0-.26-.09-.41-.34-.75l0,0a2.74,2.74,0,0,1-.63-1.67,3.15,3.15,0,0,1,.66-1.84,3.25,3.25,0,0,1,.42-.49l.14-.14,0,0h0l.51.62.51.62h0l-.08.08a2.33,2.33,0,0,0-.26.31,1.49,1.49,0,0,0-.35.89c0,.26.09.41.35.75Z" fill-rule="evenodd"/><rect width="24" height="24" fill="none"/></svg>