<svg width="24" height="24" viewBox="0 0 24 24"  xmlns="http://www.w3.org/2000/svg">
<path d="M6 20H18V10H6V20ZM6 22C5.45 22 4.97917 21.8042 4.5875 21.4125C4.19583 21.0208 4 20.55 4 20V10C4 9.45 4.19583 8.97917 4.5875 8.5875C4.97917 8.19583 5.45 8 6 8H13V6C13 4.61667 13.4875 3.4375 14.4625 2.4625C15.4375 1.4875 16.6167 1 18 1C19.3833 1 20.5625 1.4875 21.5375 2.4625C22.5125 3.4375 23 4.61667 23 6H21C21 5.16667 20.7083 4.45833 20.125 3.875C19.5417 3.29167 18.8333 3 18 3C17.1667 3 16.4583 3.29167 15.875 3.875C15.2917 4.45833 15 5.16667 15 6V8H18C18.55 8 19.0208 8.19583 19.4125 8.5875C19.8042 8.97917 20 9.45 20 10V20C20 20.55 19.8042 21.0208 19.4125 21.4125C19.0208 21.8042 18.55 22 18 22H6Z" />
<path d="M14.6763 19H9.23657V17.667L11.0669 15.8162C11.4463 15.4197 11.7402 15.1018 11.9487 14.8625C12.1606 14.6233 12.3093 14.4199 12.3948 14.2524C12.4802 14.085 12.5229 13.9106 12.5229 13.7295C12.5229 13.5073 12.4512 13.3467 12.3076 13.2476C12.1641 13.1484 11.9949 13.0989 11.8 13.0989C11.5642 13.0989 11.325 13.1672 11.0823 13.304C10.843 13.4373 10.5713 13.6355 10.2671 13.8987L9.15454 12.5964C9.38013 12.3948 9.61938 12.2034 9.87231 12.0222C10.1252 11.8376 10.4243 11.6873 10.7695 11.571C11.1147 11.4548 11.5352 11.3967 12.0308 11.3967C12.54 11.3967 12.981 11.4856 13.3535 11.6633C13.7295 11.8411 14.02 12.0854 14.2251 12.3965C14.4302 12.7041 14.5327 13.0544 14.5327 13.4475C14.5327 13.8816 14.4524 14.2695 14.2917 14.6113C14.1345 14.9497 13.897 15.2898 13.5791 15.6316C13.2612 15.97 12.8647 16.3545 12.3896 16.7852L11.8411 17.2773V17.3286H14.6763V19Z" />
</svg>
