<svg width="24" height="24" viewBox="0 0 24 24" xmlns="http://www.w3.org/2000/svg">
<path fill-rule="evenodd" clip-rule="evenodd" d="M18 1C19.3833 1 20.5621 1.48789 21.5371 2.46289C22.5121 3.43789 23 4.61667 23 6H21C21 5.16667 20.7083 4.45833 20.125 3.875C19.5417 3.29167 18.8333 3 18 3C17.1667 3 16.4583 3.29167 15.875 3.875C15.2917 4.45833 15 5.16667 15 6V8H18C18.55 8 19.0204 8.19622 19.4121 8.58789C19.8038 8.97956 20 9.45 20 10V20C20 20.55 19.8038 21.0204 19.4121 21.4121C19.0204 21.8038 18.55 22 18 22H6C5.45 22 4.97956 21.8038 4.58789 21.4121C4.19622 21.0204 4 20.55 4 20V10C4 9.45 4.19622 8.97956 4.58789 8.58789C4.97956 8.19622 5.45 8 6 8H13V6C13 4.61667 13.4879 3.43789 14.4629 2.46289C15.4379 1.48789 16.6167 1 18 1ZM11.9248 11.1475L9.22852 13.3447L10.3301 14.6982L11.2217 13.9619C11.2967 13.894 11.3736 13.8208 11.4521 13.7422C11.5345 13.6634 11.6227 13.568 11.7158 13.457C11.7051 13.6432 11.6956 13.8532 11.6885 14.0859C11.6849 14.3185 11.6836 14.5314 11.6836 14.7246V19H13.8369V11.1475H11.9248Z"/>
</svg>
