<svg width="24" height="24" viewBox="0 0 24 24"  xmlns="http://www.w3.org/2000/svg">
<path d="M12 1C14.76 1 17 3.24 17 6V8H18C19.1 8 20 8.9 20 10V20C20 21.1 19.1 22 18 22H6C4.9 22 4 21.1 4 20V10C4 8.9 4.9 8 6 8H15V6C15 4.34 13.66 3 12 3C10.34 3 9 4.34 9 6H7C7 3.24 9.24 1 12 1ZM12.0312 11.3965C11.5356 11.3965 11.1147 11.4551 10.7695 11.5713C10.4243 11.6875 10.125 11.8379 9.87207 12.0225C9.61924 12.2036 9.3798 12.3951 9.1543 12.5967L10.2676 13.8984C10.5716 13.6355 10.8429 13.437 11.082 13.3037C11.3246 13.167 11.564 13.0987 11.7998 13.0986C11.9946 13.0986 12.1641 13.1489 12.3076 13.248C12.451 13.3472 12.5234 13.5074 12.5234 13.7295C12.5234 13.9106 12.48 14.0854 12.3945 14.2529C12.3091 14.4202 12.1607 14.6234 11.9492 14.8623C11.7407 15.1015 11.4467 15.42 11.0674 15.8164L9.23633 17.667V19H14.6768V17.3291H11.8408V17.2773L12.3896 16.7852C12.8647 16.3545 13.2613 15.9702 13.5791 15.6318C13.897 15.29 14.1348 14.9497 14.292 14.6113C14.4526 14.2696 14.5332 13.8813 14.5332 13.4473C14.5332 13.0544 14.4305 12.704 14.2256 12.3965C14.0205 12.0854 13.7295 11.8408 13.3535 11.6631C12.9811 11.4854 12.5403 11.3965 12.0312 11.3965Z" />
</svg>
