<svg width="24" height="24" viewBox="0 0 24 24" fill="none" xmlns="http://www.w3.org/2000/svg">
<path fill-rule="evenodd" clip-rule="evenodd" d="M18 8H17V6C17 3.24 14.76 1 12 1C9.24 1 7 3.24 7 6H9C9 4.34 10.34 3 12 3C13.66 3 15 4.34 15 6V8H6C4.9 8 4 8.9 4 10V20C4 21.1 4.9 22 6 22H18C19.1 22 20 21.1 20 20V10C20 8.9 19.1 8 18 8ZM6 20V10H18V20H6Z" />
<path d="M14.425 13.1296C14.425 13.4851 14.3481 13.7927 14.1943 14.0525C14.0439 14.3088 13.8423 14.519 13.5894 14.6831C13.3398 14.8472 13.0664 14.9702 12.769 15.0522V15.083C13.3672 15.1582 13.8286 15.3411 14.1533 15.6316C14.4814 15.9187 14.6455 16.3271 14.6455 16.8569C14.6455 17.2671 14.5361 17.6431 14.3174 17.9849C14.0986 18.3232 13.7585 18.595 13.2971 18.8C12.8357 19.0017 12.2427 19.1025 11.5181 19.1025C11.0327 19.1025 10.6191 19.0667 10.2773 18.9949C9.93555 18.9231 9.604 18.824 9.28271 18.6975V17.0159C9.60742 17.1833 9.94067 17.3081 10.2825 17.3901C10.6277 17.4688 10.9421 17.5081 11.2258 17.5081C11.718 17.5081 12.053 17.438 12.2307 17.2979C12.4119 17.1577 12.5024 16.9697 12.5024 16.7339C12.5024 16.563 12.4597 16.4177 12.3743 16.2981C12.2888 16.1785 12.1299 16.0862 11.8975 16.0212C11.6685 15.9563 11.3386 15.9238 10.908 15.9238H10.4465V14.4011H10.9182C11.301 14.4011 11.6035 14.3669 11.8257 14.2986C12.0513 14.2302 12.2136 14.1379 12.3127 14.0217C12.4119 13.9021 12.4614 13.7654 12.4614 13.6116C12.4614 13.4133 12.3845 13.2664 12.2307 13.1707C12.0769 13.075 11.8735 13.0271 11.6206 13.0271C11.395 13.0271 11.1831 13.0579 10.9849 13.1194C10.7866 13.1809 10.614 13.2493 10.467 13.3245C10.3201 13.3997 10.209 13.4612 10.1338 13.509L9.29297 12.1555C9.604 11.9436 9.95947 11.7642 10.3594 11.6172C10.7627 11.4702 11.2891 11.3967 11.9385 11.3967C12.7109 11.3967 13.3176 11.5505 13.7585 11.8582C14.2029 12.1658 14.425 12.5896 14.425 13.1296Z" />
</svg>
