<svg width="24" height="24" viewBox="0 0 24 24"  xmlns="http://www.w3.org/2000/svg">
<path fill-rule="evenodd" clip-rule="evenodd" d="M18 8H17V6C17 3.24 14.76 1 12 1C9.24 1 7 3.24 7 6H9C9 4.34 10.34 3 12 3C13.66 3 15 4.34 15 6V8H6C4.9 8 4 8.9 4 10V20C4 21.1 4.9 22 6 22H18C19.1 22 20 21.1 20 20V10C20 8.9 19.1 8 18 8ZM6 20V10H18V20H6Z" />
<path d="M13.7534 19H11.6975V15.2932C11.6975 15.2249 11.6975 15.1001 11.6975 14.9189C11.6975 14.7344 11.6992 14.531 11.7026 14.3088C11.7095 14.0867 11.718 13.8867 11.7283 13.709C11.6394 13.8149 11.5557 13.9055 11.4771 13.9807C11.4019 14.0559 11.3284 14.126 11.2566 14.1909L10.4055 14.8933L9.35449 13.6013L11.9282 11.5044H13.7534V19Z" />
</svg>
