<svg width="24" height="24" viewBox="0 0 24 24" fill="none" xmlns="http://www.w3.org/2000/svg">
<path fill-rule="evenodd" clip-rule="evenodd" d="M18 8H17V6C17 3.24 14.76 1 12 1C9.24 1 7 3.24 7 6H9C9 4.34 10.34 3 12 3C13.66 3 15 4.34 15 6V8H6C4.9 8 4 8.9 4 10V20C4 21.1 4.9 22 6 22H18C19.1 22 20 21.1 20 20V10C20 8.9 19.1 8 18 8ZM6 20V10H18V20H6Z" />
<path d="M14.6763 19H9.23657V17.667L11.0669 15.8162C11.4463 15.4197 11.7402 15.1018 11.9487 14.8625C12.1606 14.6233 12.3093 14.4199 12.3948 14.2524C12.4802 14.085 12.5229 13.9106 12.5229 13.7295C12.5229 13.5073 12.4512 13.3467 12.3076 13.2476C12.1641 13.1484 11.9949 13.0989 11.8 13.0989C11.5642 13.0989 11.325 13.1672 11.0823 13.304C10.843 13.4373 10.5713 13.6355 10.2671 13.8987L9.15454 12.5964C9.38013 12.3948 9.61938 12.2034 9.87231 12.0222C10.1252 11.8376 10.4243 11.6873 10.7695 11.571C11.1147 11.4548 11.5352 11.3967 12.0308 11.3967C12.54 11.3967 12.981 11.4856 13.3535 11.6633C13.7295 11.8411 14.02 12.0854 14.2251 12.3965C14.4302 12.7041 14.5327 13.0544 14.5327 13.4475C14.5327 13.8816 14.4524 14.2695 14.2917 14.6113C14.1345 14.9497 13.897 15.2898 13.5791 15.6316C13.2612 15.97 12.8647 16.3545 12.3896 16.7852L11.8411 17.2773V17.3286H14.6763V19Z" />
</svg>
