<svg width="24" height="24" viewBox="0 0 24 24"  xmlns="http://www.w3.org/2000/svg">
<path d="M12 1C14.76 1 17 3.24 17 6V8H18C19.1 8 20 8.9 20 10V20C20 21.1 19.1 22 18 22H6C4.9 22 4 21.1 4 20V10C4 8.9 4.9 8 6 8H15V6C15 4.34 13.66 3 12 3C10.34 3 9 4.34 9 6H7C7 3.24 9.24 1 12 1ZM11.9287 11.5049L9.35449 13.6016L10.4053 14.8936L11.2568 14.1914C11.3286 14.1265 11.4023 14.0557 11.4775 13.9805C11.556 13.9053 11.6398 13.8148 11.7285 13.709C11.7183 13.8867 11.71 14.0865 11.7031 14.3086C11.6997 14.5308 11.6973 14.7344 11.6973 14.9189V19H13.7539V11.5049H11.9287Z"/>
</svg>
