<?xml version="1.0" encoding="UTF-8"?><svg id="a" xmlns="http://www.w3.org/2000/svg" width="24" height="24" viewBox="0 0 24 24"><path d="m13.8,8l.75,2h-1.72l2,2h.49l.08.2-.22.15,4.06,4.07-2.31-5.79-.99-2.63h2.06v2h2v-4h-4.81l-1.5-4h-3.38l-1.49,3.99,2.01,2.01h2.97Zm-2.12-4h.62l.75,2h-2.11l.74-2ZM2.81,2.81l-1.41,1.41,2.6,2.61v3.17h2v-1.17l1.26,1.26-4.2,10.54,1.48,1.2,7.45-5,6.12,4.11,1.67,1.67,1.41-1.42L2.81,2.81Zm3.31,15.57l1.72-4.29,2.36,1.58-4.08,2.71Zm2.48-6.18l.08-.2h.49l1.73,1.73-2.3-1.53Z" fill-rule="evenodd"/></svg>