<svg width="24" height="24" viewBox="0 0 24 24" xmlns="http://www.w3.org/2000/svg">
<path fill-rule="evenodd" clip-rule="evenodd" d="M5.5 6V5C5.5 4.44772 5.94772 4 6.5 4H8.5C9.05228 4 9.5 4.44772 9.5 5V6H14.5V5C14.5 4.44772 14.9477 4 15.5 4H17.5C18.0523 4 18.5 4.44772 18.5 5V6H20.5C21.3284 6 22 6.67157 22 7.5V18.5C22 19.3284 21.3284 20 20.5 20H3.5C2.67157 20 2 19.3284 2 18.5V7.5C2 6.67157 2.67157 6 3.5 6H5.5ZM16.5 14.5V12H15.25L17.25 9.5L19.25 12H18V16H10V14.5H16.5ZM6 10V14H4.75L6.75 16.5L8.75 14H7.5V11.5H14V10H6Z" />
</svg>
