<?xml version="1.0" encoding="UTF-8"?><svg id="a" xmlns="http://www.w3.org/2000/svg" width="24" height="24" viewBox="0 0 24 24"><path d="m19.2,9.33v-2.66L12.34,0H2.74c-.72,0-1.42.28-1.93.78-.52.5-.81,1.18-.81,1.89v18.66c0,.71.29,1.39.81,1.89.51.5,1.21.78,1.93.78h13.72c.72,0,1.42-.28,1.93-.78.52-.5.81-1.18.81-1.89v-1.33h4.8v-10.67h-4.8Zm-7.54-7.17l5.32,5.17h-5.32V2.16Zm10.97,16.51H6.17v-8h16.46v8Zm-1.11-6.45l-1.7,5h-1.15l-1.7-5h1.07l.94,2.98c.06.17.11.38.16.61.06.23.1.39.11.49.02-.21.11-.58.26-1.1l.94-2.98h1.07Zm-5.32,3.61c0,.45-.17.81-.49,1.07-.33.26-.78.39-1.36.39-.53,0-1-.1-1.41-.3v-.99c.34.15.62.26.85.32.24.06.45.09.65.09.23,0,.41-.04.53-.13.12-.09.19-.22.19-.4,0-.1-.03-.18-.09-.26-.05-.07-.13-.15-.24-.22-.1-.07-.32-.18-.64-.34-.31-.14-.54-.28-.69-.41s-.28-.29-.37-.46c-.09-.18-.13-.38-.13-.62,0-.44.15-.79.44-1.04.31-.25.72-.38,1.25-.38.26,0,.51.03.74.09.24.06.48.15.74.26l-.34.83c-.27-.11-.49-.19-.66-.23-.18-.05-.35-.07-.52-.07-.2,0-.35.05-.46.14-.1.1-.16.22-.16.37,0,.09.02.17.07.24.04.07.11.14.2.21.1.06.32.18.68.34.46.23.78.45.96.68.17.22.26.5.26.82Zm-5.79.58c.35,0,.77-.09,1.27-.27v.89c-.41.17-.87.26-1.37.26-.73,0-1.29-.22-1.67-.66-.39-.44-.58-1.08-.58-1.9,0-.52.09-.98.28-1.37s.46-.69.82-.9c.35-.21.77-.31,1.25-.31s.97.12,1.46.35l-.34.86c-.19-.09-.38-.16-.57-.23s-.37-.1-.55-.1c-.4,0-.71.15-.93.45-.22.3-.33.72-.33,1.25,0,1.12.42,1.68,1.26,1.68Z" fill-rule="evenodd"/></svg>