<svg width="24" height="24" viewBox="0 0 24 24" fill="none" xmlns="http://www.w3.org/2000/svg">
<path d="M21.8995 21.8996L20.4853 23.3138L13.9998 16.8283V22.0004H10.0002V14.9997L7.99975 15.0004V10.8282L0.6863 3.51479L2.10051 2.10057L21.8995 21.8996Z" />
<path d="M9.99953 6.99991H14.0005C14.5503 7.00003 15.0211 7.19601 15.4126 7.58756C15.8042 7.97912 16.0002 8.44989 16.0003 8.9997V13.1719L9.83519 7.00682C9.88917 7.0028 9.94393 6.99992 9.99953 6.99991Z" />
<path d="M10.5879 2.5874C10.9795 2.19591 11.4501 1.99976 12 1.99976C12.5499 1.99976 13.0205 2.19592 13.4122 2.5874C13.8038 2.97906 14.0005 3.45025 14.0005 4.00023C14.0004 4.55003 13.8043 5.0208 13.4128 5.41237C13.0212 5.80403 12.55 6.0007 12 6.00071C11.45 6.0007 10.9788 5.80402 10.5872 5.41237C10.1957 5.02081 9.99958 4.55002 9.99953 4.00023C9.99953 3.45023 10.1962 2.97907 10.5879 2.5874Z" />
</svg>
