<svg xmlns="http://www.w3.org/2000/svg" width="24" height="24" viewBox="0 0 24 24">
  <title>px_generator_24px</title>
  <circle cx="12" cy="12" r="10"/>
  <path d="M12.15,11.34h4.24V16.9a12.09,12.09,0,0,1-1.94.47,12.73,12.73,0,0,1-1.86.13,4.74,4.74,0,0,1-3.71-1.42A5.93,5.93,0,0,1,7.61,12,5.37,5.37,0,0,1,9.09,8,5.62,5.62,0,0,1,13.2,6.5a8,8,0,0,1,3.18.66L15.63,9a5.43,5.43,0,0,0-2.44-.58,3,3,0,0,0-2.36,1A3.85,3.85,0,0,0,9.94,12a4.27,4.27,0,0,0,.72,2.67,2.45,2.45,0,0,0,2.07.91,7.19,7.19,0,0,0,1.45-.14V13.23h-2Z" fill="#fff"/>
</svg>
