<svg xmlns="http://www.w3.org/2000/svg" width="24" height="24" viewBox="0 0 24 24">
  <title>barley</title>
  <path d="M18,2c-1.46,0-1.86,2.5-2,4,0,.34,0,.67,0,1V8h1c1.84,0,5-.19,5-2a22.7,22.7,0,0,0-4.28.28A22.76,22.76,0,0,0,18,2Zm4,0a2.82,2.82,0,0,0-3,2.63A2.29,2.29,0,0,0,19,5a2.79,2.79,0,0,0,3-2.55A3.38,3.38,0,0,0,22,2ZM14,4c-.93.93-1,4.15-1,6v1h1c1.84,0,5.07-.07,6-1-.73-.73-2.79-1-4-1a4.2,4.2,0,0,0-1.16.19A4.38,4.38,0,0,0,15,8C15,6.82,14.71,4.75,14,4ZM11,7c-.93.93-1,4.15-1,6v1h1c1.84,0,5.07-.07,6-1-.73-.73-2.79-1-4-1a4.2,4.2,0,0,0-1.16.19A4.38,4.38,0,0,0,12,11C12,9.82,11.71,7.75,11,7ZM8,10c-.93.93-1,4.15-1,6v1H8c1.84,0,5.07-.07,6-1-.73-.73-2.79-1-4-1a4.2,4.2,0,0,0-1.16.19A4.38,4.38,0,0,0,9,14C9,12.82,8.71,10.75,8,10ZM5,13c-.93.93-1,4.15-1,6v.31l-2,2L2.7,22l2-2H5c1.84,0,5.07-.07,6-1-.73-.73-2.79-1-4-1a4.2,4.2,0,0,0-1.16.19A4.38,4.38,0,0,0,6,17C6,15.82,5.71,13.75,5,13Z"/>
  
</svg>
