<svg id="soybean" xmlns="http://www.w3.org/2000/svg" width="24" height="24" viewBox="0 0 24 24">
  <path id="Path_1157" data-name="Path 1157" d="M0,0H24V24H0Z" fill="none"/>
  <path id="Path_1326" data-name="Path 1326" d="M20,2c-.789,1.918-2.668,2.668-4,4a7.658,7.658,0,0,0-2,4,6.533,6.533,0,0,0-6,4.969A6.3,6.3,0,0,0,4,17a8.34,8.34,0,0,0-2,3.969c1.313,1.313,6.719,1.438,9,0A2.386,2.386,0,0,0,12,20a7.273,7.273,0,0,0,7-7,4.72,4.72,0,0,0,2.461-2.563C22.52,8.336,21.813,3.813,20,2ZM8.008,19.9c-1.227.484-2.426.238-2.684-.555s.523-1.824,1.746-2.309,2.426-.234,2.684.555S9.23,19.418,8.008,19.9ZM14.57,16.43a2.328,2.328,0,0,1-3.266-.187,2.332,2.332,0,0,1,.734-3.187,2.328,2.328,0,0,1,3.266.191A2.324,2.324,0,0,1,14.57,16.43Zm5.312-7.277c-.523,1.207-1.547,1.879-2.289,1.5S16.676,9,17.2,7.789s1.547-1.883,2.289-1.5S20.4,7.945,19.883,9.152Z" transform="translate(0 0)"/>
</svg>
