<svg width="24" height="24" viewBox="0 0 24 24" xmlns="http://www.w3.org/2000/svg">
<path d="M3.12719 6.89216C2.47106 4.66132 4.4585 2.58366 6.67696 3.07191L6.89216 3.12719L18.8228 6.63649C21.465 7.41366 21.7866 11.0266 19.3233 12.2583L14.6126 14.6126L12.2583 19.3233C11.0266 21.7867 7.41366 21.465 6.63649 18.8228L3.12719 6.89216ZM6.32159 5.06693C5.55401 4.84117 4.84117 5.55401 5.06693 6.32159L8.57524 18.2522C8.81812 19.078 9.89246 19.224 10.3639 18.5622L10.4498 18.419L12.9552 13.4073C13.053 13.2117 13.2117 13.053 13.4073 12.9552L18.419 10.4498C19.2402 10.0393 19.133 8.83428 18.2522 8.57523L6.32159 5.06693Z"/>
</svg>
