<svg width="24" height="24" viewBox="0 0 24 24"  xmlns="http://www.w3.org/2000/svg">
<path fill-rule="evenodd" clip-rule="evenodd" d="M12 1C14.76 1 17 3.24 17 6V8H18C19.1 8 20 8.9 20 10V20C20 21.1 19.1 22 18 22H6C4.9 22 4 21.1 4 20V10C4 8.9 4.9 8 6 8H7V6C7 3.24 9.24 1 12 1ZM11.9248 11.1475L9.22852 13.3447L10.3301 14.6982L11.2217 13.9619C11.2967 13.894 11.3736 13.8208 11.4521 13.7422C11.5345 13.6634 11.6227 13.568 11.7158 13.457C11.7051 13.6432 11.6956 13.8532 11.6885 14.0859C11.6849 14.3185 11.6836 14.5314 11.6836 14.7246V19H13.8369V11.1475H11.9248ZM12 3C10.29 3 9 4.29 9 6V8H15V6C15 4.29 13.71 3 12 3Z" />
</svg>
