<svg width="24" height="24" viewBox="0 0 24 24"  xmlns="http://www.w3.org/2000/svg">
<path fill-rule="evenodd" clip-rule="evenodd" d="M12 1C14.76 1 17 3.24 17 6V8H18C19.1 8 20 8.9 20 10V20C20 21.1 19.1 22 18 22H6C4.9 22 4 21.1 4 20V10C4 8.9 4.9 8 6 8H7V6C7 3.24 9.24 1 12 1ZM12.0322 11.0352C11.513 11.0352 11.0726 11.096 10.7109 11.2178C10.3494 11.3395 10.0364 11.4971 9.77148 11.6904C9.50652 11.8802 9.25585 12.0807 9.01953 12.292L10.1846 13.6562C10.5033 13.3805 10.7884 13.1729 11.0391 13.0332C11.2932 12.89 11.544 12.8184 11.791 12.8184C11.9949 12.8184 12.172 12.8699 12.3223 12.9736C12.4727 13.0775 12.5479 13.2458 12.5479 13.4785C12.5479 13.6682 12.5035 13.851 12.4141 14.0264C12.3245 14.2018 12.1683 14.4154 11.9463 14.666C11.7279 14.9166 11.4198 15.2498 11.0225 15.665L9.10547 17.6035V19H14.8037V17.249H11.834V17.1953L12.4082 16.6797C12.9058 16.2286 13.3213 15.8261 13.6543 15.4717C13.9873 15.1136 14.2367 14.7568 14.4014 14.4023C14.5695 14.0444 14.6533 13.6381 14.6533 13.1836C14.6533 12.7718 14.5459 12.4043 14.3311 12.082C14.1162 11.7562 13.8118 11.5006 13.418 11.3145C13.0277 11.1283 12.5658 11.0352 12.0322 11.0352ZM12 3C10.29 3 9 4.29 9 6V8H15V6C15 4.29 13.71 3 12 3Z"/>
</svg>
