<svg width="24" height="24" viewBox="0 0 24 24" fill="none" xmlns="http://www.w3.org/2000/svg">
<path d="M6 20H18V10H6V20ZM6 22C5.45 22 4.97917 21.8042 4.5875 21.4125C4.19583 21.0208 4 20.55 4 20V10C4 9.45 4.19583 8.97917 4.5875 8.5875C4.97917 8.19583 5.45 8 6 8H13V6C13 4.61667 13.4875 3.4375 14.4625 2.4625C15.4375 1.4875 16.6167 1 18 1C19.3833 1 20.5625 1.4875 21.5375 2.4625C22.5125 3.4375 23 4.61667 23 6H21C21 5.16667 20.7083 4.45833 20.125 3.875C19.5417 3.29167 18.8333 3 18 3C17.1667 3 16.4583 3.29167 15.875 3.875C15.2917 4.45833 15 5.16667 15 6V8H18C18.55 8 19.0208 8.19583 19.4125 8.5875C19.8042 8.97917 20 9.45 20 10V20C20 20.55 19.8042 21.0208 19.4125 21.4125C19.0208 21.8042 18.55 22 18 22H6Z" />
<path d="M13.7534 19H11.6975V15.2932C11.6975 15.2249 11.6975 15.1001 11.6975 14.9189C11.6975 14.7344 11.6992 14.531 11.7026 14.3088C11.7095 14.0867 11.718 13.8867 11.7283 13.709C11.6394 13.8149 11.5557 13.9055 11.4771 13.9807C11.4019 14.0559 11.3284 14.126 11.2566 14.1909L10.4055 14.8933L9.35449 13.6013L11.9282 11.5044H13.7534V19Z" />
</svg>
