<svg width="24" height="24" viewBox="0 0 24 24"  xmlns="http://www.w3.org/2000/svg">
<path fill-rule="evenodd" clip-rule="evenodd" d="M18 1C19.3833 1 20.5621 1.48789 21.5371 2.46289C22.5121 3.43789 23 4.61667 23 6H21C21 5.16667 20.7083 4.45833 20.125 3.875C19.5417 3.29167 18.8333 3 18 3C17.1667 3 16.4583 3.29167 15.875 3.875C15.2917 4.45833 15 5.16667 15 6V8H18C18.55 8 19.0204 8.19622 19.4121 8.58789C19.8038 8.97956 20 9.45 20 10V20C20 20.55 19.8038 21.0204 19.4121 21.4121C19.0204 21.8038 18.55 22 18 22H6C5.45 22 4.97956 21.8038 4.58789 21.4121C4.19622 21.0204 4 20.55 4 20V10C4 9.45 4.19622 8.97956 4.58789 8.58789C4.97956 8.19622 5.45 8 6 8H13V6C13 4.61667 13.4879 3.43789 14.4629 2.46289C15.4379 1.48789 16.6167 1 18 1ZM11.9355 11.0352C11.2552 11.0352 10.7038 11.1117 10.2812 11.2656C9.8623 11.4196 9.48991 11.6081 9.16406 11.8301L10.0449 13.248C10.1237 13.1979 10.2406 13.1335 10.3945 13.0547C10.5484 12.976 10.729 12.9043 10.9365 12.8398C11.1442 12.7754 11.3662 12.7432 11.6025 12.7432C11.8675 12.7432 12.0811 12.7933 12.2422 12.8936C12.4029 12.9938 12.4834 13.148 12.4834 13.3555C12.4833 13.5164 12.4319 13.66 12.3281 13.7852C12.2243 13.9069 12.0537 14.0036 11.8174 14.0752C11.5847 14.1468 11.2679 14.1826 10.8672 14.1826H10.373V15.7773H10.8564C11.3074 15.7774 11.6528 15.8119 11.8926 15.8799C12.136 15.9479 12.3031 16.0446 12.3926 16.1699C12.4818 16.2951 12.5264 16.4472 12.5264 16.626C12.5264 16.8729 12.4318 17.07 12.2422 17.2168C12.056 17.3636 11.7048 17.4375 11.1895 17.4375C10.8924 17.4375 10.5626 17.3958 10.2012 17.3135C9.84317 17.2276 9.49343 17.0973 9.15332 16.9219V18.6836C9.48986 18.816 9.8373 18.9199 10.1953 18.9951C10.5534 19.0703 10.9867 19.1074 11.4951 19.1074C12.2542 19.1074 12.876 19.0023 13.3594 18.791C13.8427 18.5762 14.1986 18.291 14.4277 17.9365C14.6569 17.5785 14.7715 17.1846 14.7715 16.7549C14.7715 16.2 14.5994 15.7724 14.2559 15.4717C13.9157 15.1673 13.4323 14.9753 12.8057 14.8965V14.8643C13.1172 14.7783 13.4036 14.6494 13.665 14.4775C13.9299 14.3057 14.1413 14.0858 14.2988 13.8174C14.4599 13.5454 14.5409 13.2228 14.541 12.8506C14.541 12.2851 14.3079 11.8408 13.8428 11.5186C13.3809 11.1963 12.7448 11.0352 11.9355 11.0352Z" />
</svg>
