<svg width="24" height="24" viewBox="0 0 24 24"  xmlns="http://www.w3.org/2000/svg">
<path d="M12 1C14.76 1 17 3.24 17 6V8H18C19.1 8 20 8.9 20 10V20C20 21.1 19.1 22 18 22H6C4.9 22 4 21.1 4 20V10C4 8.9 4.9 8 6 8H15V6C15 4.34 13.66 3 12 3C10.34 3 9 4.34 9 6H7C7 3.24 9.24 1 12 1ZM11.9385 11.3965C11.2891 11.3965 10.7627 11.4702 10.3594 11.6172C9.95952 11.7641 9.60398 11.9434 9.29297 12.1553L10.1338 13.5088C10.209 13.461 10.3199 13.3994 10.4668 13.3242C10.6138 13.249 10.7871 13.1807 10.9854 13.1191C11.1834 13.0577 11.3957 13.0273 11.6211 13.0273C11.8738 13.0274 12.0768 13.0753 12.2305 13.1709C12.3842 13.2666 12.4619 13.4132 12.4619 13.6113C12.4619 13.7651 12.4116 13.9019 12.3125 14.0215C12.2134 14.1376 12.0516 14.2305 11.8262 14.2988C11.604 14.3672 11.3008 14.4014 10.918 14.4014H10.4463V15.9238H10.9082C11.3387 15.9238 11.6685 15.9566 11.8975 16.0215C12.1297 16.0864 12.2885 16.1784 12.374 16.2979C12.4595 16.4175 12.5029 16.5635 12.5029 16.7344C12.5028 16.97 12.4115 17.1578 12.2305 17.2979C12.0527 17.4379 11.7176 17.5078 11.2256 17.5078C10.942 17.5078 10.6273 17.4692 10.2822 17.3906C9.94057 17.3086 9.60778 17.183 9.2832 17.0156V18.6973C9.60439 18.8237 9.93567 18.9234 10.2773 18.9951C10.6191 19.0669 11.0332 19.1025 11.5186 19.1025C12.2429 19.1025 12.8356 19.0014 13.2969 18.7998C13.7581 18.5948 14.0986 18.3236 14.3174 17.9854C14.536 17.6437 14.6454 17.2674 14.6455 16.8574C14.6455 16.3277 14.4814 15.9189 14.1533 15.6318C13.8287 15.3414 13.3674 15.1582 12.7695 15.083V15.0527C13.0668 14.9707 13.3404 14.8476 13.5898 14.6836C13.8427 14.5196 14.044 14.309 14.1943 14.0527C14.3481 13.793 14.4248 13.4852 14.4248 13.1299C14.4248 12.59 14.2029 12.166 13.7588 11.8584C13.3179 11.5508 12.7109 11.3965 11.9385 11.3965Z" />
</svg>
