<svg width="24" height="24" viewBox="0 0 24 24"  xmlns="http://www.w3.org/2000/svg">
<path d="M6 22C5.45 22 4.97917 21.8042 4.5875 21.4125C4.19583 21.0208 4 20.55 4 20V10C4 9.45 4.19583 8.97917 4.5875 8.5875C4.97917 8.19583 5.45 8 6 8H13V6C13 4.61667 13.4875 3.4375 14.4625 2.4625C15.4375 1.4875 16.6167 1 18 1C19.3833 1 20.5625 1.4875 21.5375 2.4625C22.5125 3.4375 23 4.61667 23 6H21C21 5.16667 20.7083 4.45833 20.125 3.875C19.5417 3.29167 18.8333 3 18 3C17.1667 3 16.4583 3.29167 15.875 3.875C15.2917 4.45833 15 5.16667 15 6V8H18C18.55 8 19.0208 8.19583 19.4125 8.5875C19.8042 8.97917 20 9.45 20 10V20C20 20.55 19.8042 21.0208 19.4125 21.4125C19.0208 21.8042 18.55 22 18 22H6Z" />
<path d="M9.22852 13.3447L11.9248 11.1475H13.8369V19H11.6836V14.7246C11.6836 14.5314 11.6849 14.3185 11.6885 14.0859C11.6956 13.8532 11.7051 13.6432 11.7158 13.457C11.6227 13.568 11.5345 13.6634 11.4521 13.7422C11.3736 13.8208 11.2967 13.894 11.2217 13.9619L10.3301 14.6982L9.22852 13.3447Z" />
</svg>
