<svg width="24" height="24" viewBox="0 0 24 24" fill="none" xmlns="http://www.w3.org/2000/svg">
<path d="M20 22V7C20 6.45 19.8042 5.97917 19.4125 5.5875C19.0208 5.19583 18.55 5 18 5H17V6.3C17 6.5 16.9333 6.66667 16.8 6.8C16.6667 6.93333 16.5 7 16.3 7H10.7C10.4667 7 10.2792 6.875 10.1375 6.625C9.99583 6.375 9.98333 6.13333 10.1 5.9L12 1.8C12.1167 1.55 12.2875 1.35417 12.5125 1.2125C12.7375 1.07083 13 1 13.3 1H15.6C16 1 16.3333 1.15 16.6 1.45C16.8667 1.75 17 2.1 17 2.5V3H18C19.1 3 20.0417 3.39167 20.825 4.175C21.6083 4.95833 22 5.9 22 7V22H20ZM5 22C4.15 22 3.4375 21.7125 2.8625 21.1375C2.2875 20.5625 2 19.85 2 19V16.5C2 16.0833 2.14583 15.7292 2.4375 15.4375C2.72917 15.1458 3.08333 15 3.5 15C3.91667 15 4.27083 15.1458 4.5625 15.4375C4.85417 15.7292 5 16.0833 5 16.5V19H15V16.5C15 16.0833 15.1458 15.7292 15.4375 15.4375C15.7292 15.1458 16.0833 15 16.5 15C16.9167 15 17.2708 15.1458 17.5625 15.4375C17.8542 15.7292 18 16.0833 18 16.5V19C18 19.85 17.7125 20.5625 17.1375 21.1375C16.5625 21.7125 15.85 22 15 22H5ZM6 18V16.5C6 15.9667 5.825 15.4583 5.475 14.975C5.125 14.4917 4.63333 14.1833 4 14.05V12C4 11.45 4.19583 10.9792 4.5875 10.5875C4.97917 10.1958 5.45 10 6 10H14C14.55 10 15.0208 10.1958 15.4125 10.5875C15.8042 10.9792 16 11.45 16 12V14.05C15.3667 14.1833 14.875 14.4917 14.525 14.975C14.175 15.4583 14 15.9667 14 16.5V18H6Z" />
</svg>
