<svg width="24" height="24" viewBox="0 0 24 24" fill="none" xmlns="http://www.w3.org/2000/svg">
<path d="M5 20C4.16667 20 3.45833 19.7083 2.875 19.125C2.29167 18.5417 2 17.8333 2 17V12H16.025C16.1083 11.4333 16.3333 10.9375 16.7 10.5125C17.0667 10.0875 17.5167 9.78333 18.05 9.6L22.675 8.05L23.3 9.95L18.675 11.5C18.475 11.5667 18.3125 11.6875 18.1875 11.8625C18.0625 12.0375 18 12.2333 18 12.45V17C18 17.8333 17.7083 18.5417 17.125 19.125C16.5417 19.7083 15.8333 20 15 20H5ZM4.425 10C4.65833 9.4 4.69583 8.86667 4.5375 8.4C4.37917 7.93333 4.10833 7.46667 3.725 7C3.175 6.33333 2.8125 5.70417 2.6375 5.1125C2.4625 4.52083 2.43333 3.81667 2.55 3H4.5C4.36667 3.63333 4.34583 4.15 4.4375 4.55C4.52917 4.95 4.76667 5.38333 5.15 5.85C5.78333 6.61667 6.1875 7.29583 6.3625 7.8875C6.5375 8.47917 6.54167 9.18333 6.375 10H4.425ZM8.425 10C8.65833 9.4 8.7 8.86667 8.55 8.4C8.4 7.93333 8.13333 7.46667 7.75 7C7.2 6.33333 6.83333 5.70417 6.65 5.1125C6.46667 4.52083 6.43333 3.81667 6.55 3H8.5C8.36667 3.63333 8.34583 4.15 8.4375 4.55C8.52917 4.95 8.76667 5.38333 9.15 5.85C9.78333 6.61667 10.1875 7.29583 10.3625 7.8875C10.5375 8.47917 10.5417 9.18333 10.375 10H8.425ZM12.425 10C12.6583 9.4 12.7 8.86667 12.55 8.4C12.4 7.93333 12.1333 7.46667 11.75 7C11.2 6.33333 10.8333 5.70417 10.65 5.1125C10.4667 4.52083 10.4333 3.81667 10.55 3H12.5C12.3667 3.63333 12.3458 4.15 12.4375 4.55C12.5292 4.95 12.7667 5.38333 13.15 5.85C13.7833 6.61667 14.1875 7.29583 14.3625 7.8875C14.5375 8.47917 14.5417 9.18333 14.375 10H12.425Z" fill="#44474E"/>
</svg>
