<svg width="24" height="24" viewBox="0 0 24 24" fill="none" xmlns="http://www.w3.org/2000/svg">
<path d="M6 14.9998C5.16667 14.9998 4.45833 14.7081 3.875 14.1248C3.29167 13.5415 3 12.8331 3 11.9998V7.9998H16.025C16.1083 7.4498 16.3333 6.95814 16.7 6.5248C17.0667 6.09147 17.5167 5.78314 18.05 5.5998L22.675 4.0498L23.3 5.9498L18.675 7.4998C18.475 7.56647 18.3125 7.6873 18.1875 7.8623C18.0625 8.0373 18 8.23314 18 8.4498V11.9998C18 12.8331 17.7083 13.5415 17.125 14.1248C16.5417 14.7081 15.8333 14.9998 15 14.9998H6ZM9 20.9998V17.9998H2V15.9998H9C9.55 15.9998 10.0208 16.1956 10.4125 16.5873C10.8042 16.979 11 17.4498 11 17.9998V20.9998H9ZM13 20.9998V17.9998C13 17.4498 13.1958 16.979 13.5875 16.5873C13.9792 16.1956 14.45 15.9998 15 15.9998H22V17.9998H15V20.9998H13Z" />
</svg>
