<svg xmlns="http://www.w3.org/2000/svg" width="48" height="48" viewBox="0 0 100 100">
  	<title>accessory</title>
	<g id="accessory" class="symbol">
		<g id="bound">
			<rect class="" x="0" y="0" width="100" height="100" opacity="0"/>
		</g>

		<linearGradient id="DefaultGradient" gradientUnits="userSpaceOnUse" x1="49.7803" y1="45" x2="49.7803" y2="56">
			<stop  offset="0" style="stop-color:#666666"/>
			<stop  offset="1" style="stop-color:#4D4D4D"/>
		</linearGradient>

		<g id="bound">
			<rect class="" x="0" y="0" width="100" height="100" opacity="0"/>
		</g>

		<path class="edging" fill="#FFFFFF" fill-opacity="0.65" d="M56,40H43c-2.2,0-3.7,1.8-3.7,4v13c0,2.2,1.5,4,3.7,4h13c2.2,0,4.3-1.8,4.3-4V44
		c0-2.2-1.9-4-4.1-4H56z"/>
		<path class="outer" fill="#282828" d="M58.3,57c0,1.1-0.9,2-2,2h-13c-1.1,0-2-0.9-2-2V44c0-1.1,0.9-2,2-2h13c1.1,0,2,0.9,2,2V57z"/>

		<rect class="inner" x="44.3" y="45" fill="url(#DefaultGradient)" width="11" height="11"/>

		<rect class="highlight" opacity="0.35" x="44.3" y="45" fill="#FFFFFF" width="11" height="1"/>


		<path class="edging" fill="#FFFFFF" fill-opacity="0.65" d="M69.7,50.5c2.1-0.9,3.6-3,3.6-5.5c0-3.3-2.7-6-6-6c-3.3,0-6,2.7-6,6
		c0,2.5,1.5,4.6,3.6,5.5c-2.1,0.9-3.6,3-3.6,5.5c0,3.3,2.7,6,6,6c3.3,0,6-2.7,6-6C73.3,53.5,71.8,51.4,69.7,50.5z"/>

		<circle class="outer" fill="#282828" cx="67.3" cy="45" r="4"/>

		<circle class="outer" fill="#282828" cx="67.3" cy="56" r="4"/>

		<path class="edging" fill="#FFFFFF" fill-opacity="0.65" d="M34.7,50.5c2.1-0.9,3.6-3,3.6-5.5c0-3.3-2.7-6-6-6c-3.3,0-6,2.7-6,6
		c0,2.5,1.5,4.6,3.6,5.5c-2.1,0.9-3.6,3-3.6,5.5c0,3.3,2.7,6,6,6c3.3,0,6-2.7,6-6C38.3,53.5,36.8,51.4,34.7,50.5z"/>

		<circle class="outer" fill="#282828" cx="32.3" cy="45" r="4"/>

		<circle class="outer" fill="#282828" cx="32.3" cy="56" r="4"/>

		<path class="edging" fill="#FFFFFF" fill-opacity="0.65" d="M49.8,70.4c0.9,2.1,3,3.6,5.5,3.6c3.3,0,6-2.7,6-6s-2.7-6-6-6c-2.5,0-4.6,1.5-5.5,3.6
		c-0.9-2.1-3-3.6-5.5-3.6c-3.3,0-6,2.7-6,6s2.7,6,6,6C46.7,74,48.9,72.5,49.8,70.4z"/>

		<circle class="outer" fill="#282828" cx="55.3" cy="68" r="4"/>

		<circle class="outer" fill="#282828" cx="44.3" cy="68" r="4"/>

		<path class="edging" fill="#FFFFFF" fill-opacity="0.65" d="M49.8,35.4c0.9,2.1,3,3.6,5.5,3.6c3.3,0,6-2.7,6-6s-2.7-6-6-6c-2.5,0-4.6,1.5-5.5,3.6
		c-0.9-2.1-3-3.6-5.5-3.6c-3.3,0-6,2.7-6,6s2.7,6,6,6C46.7,39,48.9,37.5,49.8,35.4z"/>

		<circle class="outer" fill="#282828" cx="55.3" cy="33" r="4"/>

		<circle class="outer" fill="#282828" cx="44.3" cy="33" r="4"/>
	</g>
</svg>