<svg xmlns="http://www.w3.org/2000/svg" width="48" height="48" viewBox="0 0 100 100"><title>accessory</title><g class="symbol"><linearGradient id="a" gradientUnits="userSpaceOnUse" x1="49.78" y1="45" x2="49.78" y2="56"><stop offset="0" stop-color="#666"/><stop offset="1" stop-color="#4d4d4d"/></linearGradient><path class="edging" fill="#FFF" fill-opacity=".65" d="M56 40H43c-2.2 0-3.7 1.8-3.7 4v13c0 2.2 1.5 4 3.7 4h13c2.2 0 4.3-1.8 4.3-4V44c0-2.2-1.9-4-4.1-4H56z"/><path class="outer" fill="#282828" d="M58.3 57c0 1.1-.9 2-2 2h-13c-1.1 0-2-.9-2-2V44c0-1.1.9-2 2-2h13c1.1 0 2 .9 2 2v13z"/><path class="inner" fill="url(#a)" d="M44.3 45h11v11h-11z"/><path class="highlight" opacity=".35" fill="#FFF" d="M44.3 45h11v1h-11z"/><path class="edging" fill="#FFF" fill-opacity=".65" d="M69.7 50.5c2.1-.9 3.6-3 3.6-5.5 0-3.3-2.7-6-6-6s-6 2.7-6 6c0 2.5 1.5 4.6 3.6 5.5-2.1.9-3.6 3-3.6 5.5 0 3.3 2.7 6 6 6s6-2.7 6-6c0-2.5-1.5-4.6-3.6-5.5z"/><circle class="outer" fill="#282828" cx="67.3" cy="45" r="4"/><circle class="outer" fill="#282828" cx="67.3" cy="56" r="4"/><path class="edging" fill="#FFF" fill-opacity=".65" d="M34.7 50.5c2.1-.9 3.6-3 3.6-5.5 0-3.3-2.7-6-6-6s-6 2.7-6 6c0 2.5 1.5 4.6 3.6 5.5-2.1.9-3.6 3-3.6 5.5 0 3.3 2.7 6 6 6s6-2.7 6-6c0-2.5-1.5-4.6-3.6-5.5z"/><circle class="outer" fill="#282828" cx="32.3" cy="45" r="4"/><circle class="outer" fill="#282828" cx="32.3" cy="56" r="4"/><path class="edging" fill="#FFF" fill-opacity=".65" d="M49.8 70.4c.9 2.1 3 3.6 5.5 3.6 3.3 0 6-2.7 6-6s-2.7-6-6-6c-2.5 0-4.6 1.5-5.5 3.6-.9-2.1-3-3.6-5.5-3.6-3.3 0-6 2.7-6 6s2.7 6 6 6c2.4 0 4.6-1.5 5.5-3.6z"/><circle class="outer" fill="#282828" cx="55.3" cy="68" r="4"/><circle class="outer" fill="#282828" cx="44.3" cy="68" r="4"/><path class="edging" fill="#FFF" fill-opacity=".65" d="M49.8 35.4c.9 2.1 3 3.6 5.5 3.6 3.3 0 6-2.7 6-6s-2.7-6-6-6c-2.5 0-4.6 1.5-5.5 3.6-.9-2.1-3-3.6-5.5-3.6-3.3 0-6 2.7-6 6s2.7 6 6 6c2.4 0 4.6-1.5 5.5-3.6z"/><circle class="outer" fill="#282828" cx="55.3" cy="33" r="4"/><circle class="outer" fill="#282828" cx="44.3" cy="33" r="4"/></g></svg>