	<svg xmlns="http://www.w3.org/2000/svg" width="48" height="48" viewBox="0 0 100 100">
  <title>add</title>
	<g id="add" class="symbol indicator">
			<rect class="bound" fill="none" width="100" height="100"/>

			<circle class="outer" fill="#282828" cx="50.5" cy="50.5" r="12"/>

			<path class="edging" opacity="0.65" fill="#FFFFFF" d="M50.5,38.5c6.6,0,12,5.4,12,12s-5.4,12-12,12s-12-5.4-12-12S43.9,38.5,50.5,38.5 M50.5,36.5
				c-7.7,0-14,6.3-14,14s6.3,14,14,14s14-6.3,14-14S58.2,36.5,50.5,36.5L50.5,36.5z"/>

			<linearGradient id="add-gradient" gradientUnits="userSpaceOnUse" x1="50.5" y1="41.5" x2="50.5" y2="59.5">
				<stop  offset="0" style="stop-color:#4CC933"/>
				<stop  offset="1" style="stop-color:#39B620"/>
			</linearGradient>
			<path fill="url(#add-gradient)" d="M50.5,41.5c-5,0-9,4-9,9c0,5,4,9,9,9c5,0,9-4,9-9C59.5,45.5,55.5,41.5,50.5,41.5z M52,52v3.9h-3V52
				h-3.9v-3H49l0-3.9l3,0V49l3.9,0l0,3H52z"/>

			<g opacity="0.35" class="highlight">
				<path fill="#FFFFFF" d="M50.5,42.5c4.8,0,8.7,3.8,9,8.5c0-0.2,0-0.3,0-0.5c0-5-4-9-9-9c-5,0-9,4-9,9c0,0.2,0,0.3,0,0.5
					C41.8,46.3,45.7,42.5,50.5,42.5z"/>
				<rect x="49" y="46.1" fill="#FFFFFF" width="0" height="2.9"/>
				<rect x="49" y="55.9" fill="#FFFFFF" width="3" height="1"/>
				<rect x="52" y="52" fill="#FFFFFF" width="3.9" height="1"/>
				<rect x="45.1" y="52" fill="#FFFFFF" width="3.9" height="1"/>
			</g>
		</g>
		</svg>