<svg xmlns="http://www.w3.org/2000/svg" width="48" height="48" viewBox="0 0 100 100"><title>add</title><g class="symbol indicator"><path class="bound" fill="none" d="M0 0h100v100H0z"/><circle class="outer" fill="#282828" cx="50.5" cy="50.5" r="12"/><path class="edging" opacity=".65" fill="#FFF" d="M50.5 38.5c6.6 0 12 5.4 12 12s-5.4 12-12 12-12-5.4-12-12 5.4-12 12-12m0-2c-7.7 0-14 6.3-14 14s6.3 14 14 14 14-6.3 14-14-6.3-14-14-14z"/><linearGradient id="a" gradientUnits="userSpaceOnUse" x1="50.5" y1="41.5" x2="50.5" y2="59.5"><stop offset="0" stop-color="#4cc933"/><stop offset="1" stop-color="#39b620"/></linearGradient><path fill="url(#a)" d="M50.5 41.5c-5 0-9 4-9 9s4 9 9 9 9-4 9-9-4-9-9-9zM52 52v3.9h-3V52h-3.9v-3H49v-3.9h3V49h3.9v3H52z"/><path d="M50.5 42.5c4.8 0 8.7 3.8 9 8.5v-.5c0-5-4-9-9-9s-9 4-9 9v.5c.3-4.7 4.2-8.5 9-8.5zM49 55.9h3v1h-3zm3-3.9h3.9v1H52zm-6.9 0H49v1h-3.9z" opacity=".35" class="highlight" fill="#FFF"/></g></svg>