<svg xmlns="http://www.w3.org/2000/svg" width="48" height="48" viewBox="0 0 100 100">
  <title>alert</title>
		<g id="alert" class="symbol indicator">
			<rect class="bound" fill="none" width="100" height="100"/>

			<path class="edging" opacity="0.65" fill="#FFFFFF" d="M59.5,64.4h-18c-2.1,0-4.1-1.1-5.2-2.9c-1.1-1.9-1.1-4.2-0.1-6l9-15.8c1.1-1.9,3.1-3,5.2-3
			c2.2,0,4.2,1.2,5.2,3l9,15.7c1.1,1.9,1,4.2,0,6C63.6,63.3,61.6,64.4,59.5,64.4z M50.5,41.5c-0.4,0-0.8,0.2-1,0.6l-9,15.8
			c-0.2,0.3-0.2,0.8,0,1.1c0.2,0.3,0.6,0.5,1,0.5h18c0.4,0,0.8-0.2,1-0.5c0.2-0.3,0.2-0.8,0-1.1l-9-15.8
			C51.3,41.7,50.9,41.5,50.5,41.5z"/>

			<path class="outer" fill="#282828" d="M62.6,56.6l-9-15.8c-0.6-1.1-1.8-1.8-3.1-1.8c-1.3,0-2.5,0.7-3.1,1.8l-9,15.8c-0.6,1.1-0.6,2.5,0,3.6
				c0.6,1.1,1.8,1.7,3.1,1.7h18c1.3,0,2.4-0.7,3.1-1.8C63.2,59.1,63.2,57.7,62.6,56.6z"/>

			<linearGradient id="yellow-gradient" gradientUnits="userSpaceOnUse" x1="50.4996" y1="41.9342" x2="50.4996" y2="59.0658">
				<stop  offset="0" style="stop-color:#FFE633"/>
				<stop  offset="1" style="stop-color:#FFDE00"/>
			</linearGradient>
			<path fill="url(#yellow-gradient)" d="M60.1,58l-9-15.8c-0.1-0.2-0.4-0.4-0.6-0.4c-0.3,0-0.5,0.1-0.6,0.4l-9,15.8c-0.1,0.2-0.1,0.5,0,0.7
				c0.1,0.2,0.4,0.3,0.6,0.3h18c0.2,0,0.5-0.1,0.6-0.3C60.2,58.5,60.2,58.3,60.1,58z M51.6,57.1h-2.2v-2h2.2V57.1z M51.6,53.5h-2.2v-6
				h2.2V53.5z"/>

			<g opacity="0.35" class="highlight">
				<path fill="#FFFFFF" d="M41,58.8l8.9-15.5c0.1-0.2,0.4-0.4,0.6-0.4c0.3,0,0.5,0.1,0.6,0.4L60,58.8c0,0,0.1-0.1,0.1-0.1
					c0.1-0.2,0.1-0.5,0-0.7l-9-15.8c-0.1-0.2-0.4-0.4-0.6-0.4c-0.3,0-0.5,0.1-0.6,0.4l-9,15.8c-0.1,0.2-0.1,0.5,0,0.7
					C40.9,58.8,41,58.8,41,58.8z"/>
				<rect x="49.4" y="57.1" fill="#FFFFFF" width="2.2" height="1"/>
				<rect x="49.4" y="53.5" fill="#FFFFFF" width="2.2" height="1"/>
			</g>
		</g>
		</svg>