<svg xmlns="http://www.w3.org/2000/svg" width="48" height="48" viewBox="0 0 100 100"><title>alert</title><g class="symbol indicator"><path class="bound" fill="none" d="M0 0h100v100H0z"/><path class="edging" opacity=".65" fill="#FFF" d="M59.5 64.4h-18c-2.1 0-4.1-1.1-5.2-2.9-1.1-1.9-1.1-4.2-.1-6l9-15.8c1.1-1.9 3.1-3 5.2-3 2.2 0 4.2 1.2 5.2 3l9 15.7c1.1 1.9 1 4.2 0 6-1 1.9-3 3-5.1 3zm-9-22.9c-.4 0-.8.2-1 .6l-9 15.8c-.2.3-.2.8 0 1.1.2.3.6.5 1 .5h18c.4 0 .8-.2 1-.5.2-.3.2-.8 0-1.1l-9-15.8c-.2-.4-.6-.6-1-.6z"/><path class="outer" fill="#282828" d="M62.6 56.6l-9-15.8c-.6-1.1-1.8-1.8-3.1-1.8s-2.5.7-3.1 1.8l-9 15.8c-.6 1.1-.6 2.5 0 3.6s1.8 1.7 3.1 1.7h18c1.3 0 2.4-.7 3.1-1.8.6-1 .6-2.4 0-3.5z"/><linearGradient id="a" gradientUnits="userSpaceOnUse" x1="50.5" y1="41.934" x2="50.5" y2="59.066"><stop offset="0" stop-color="#ffe633"/><stop offset="1" stop-color="#ffde00"/></linearGradient><path fill="url(#a)" d="M60.1 58l-9-15.8c-.1-.2-.4-.4-.6-.4-.3 0-.5.1-.6.4l-9 15.8c-.1.2-.1.5 0 .7.1.2.4.3.6.3h18c.2 0 .5-.1.6-.3.1-.2.1-.4 0-.7zm-8.5-.9h-2.2v-2h2.2v2zm0-3.6h-2.2v-6h2.2v6z"/><g opacity=".35" class="highlight" fill="#FFF"><path d="M41 58.8l8.9-15.5c.1-.2.4-.4.6-.4.3 0 .5.1.6.4L60 58.8l.1-.1c.1-.2.1-.5 0-.7l-9-15.8c-.1-.2-.4-.4-.6-.4-.3 0-.5.1-.6.4l-9 15.8c-.1.2-.1.5 0 .7 0 .1.1.1.1.1z"/><path d="M49.4 57.1h2.2v1h-2.2zm0-3.6h2.2v1h-2.2z"/></g></g></svg>