<svg xmlns="http://www.w3.org/2000/svg" width="48" height="48" viewBox="0 0 100 100"><title>arms</title><g class="symbol static indicator"><path class="bound" fill="none" d="M0 0h100v100H0z"/><path class="edging" opacity=".65" fill="#FFF" d="M63.2 40.8c-.1-6.6-11.5-5.7-15.9-5.3-2.8.2-6.6.8-7.8 3.7-.7 1.7-.2 4.2-.1 6 .2 2.6.6 5.2 1.8 7.5l.1.1c2.2 3 6.2 6.2 9.9 6.5 3.5.4 8.1-4 10-6.6l.1-.1c1.8-3.5 1.8-7.8 1.9-11.8z"/><path class="outer" fill="#282828" d="M61.1 40.8c0-.9-.6-1.7-1.4-2-2.2-.8-5.4-1.2-8.4-1.2s-6.2.5-8.4 1.3c-.8.3-1.4 1.1-1.4 2 .1 3.2.7 9.5 1.7 10.8 1 1.4 3.6 3.1 6.2 4.8l.2.1c.5.3 1.1.6 1.8.7.7 0 1.3-.3 1.8-.7l.2-.1c2.6-1.7 5.2-3.4 6.2-4.8.9-1.2 1.5-6.9 1.7-10.7l-.2-.2z"/><linearGradient id="a" gradientUnits="userSpaceOnUse" x1="51.247" y1="40.385" x2="51.247" y2="54.356"><stop offset="0" stop-color="#007aba"/><stop offset="1" stop-color="#0360a7"/></linearGradient><path fill-rule="evenodd" clip-rule="evenodd" fill="url(#a)" d="M44.2 42c0-.4.2-.7.6-.8 1.8-.6 4.4-.8 6.5-.8s4.7.2 6.5.8c.3.1.6.4.6.8v.1c-.1 4.1-.9 7.8-1.2 8.2-.8 1.1-3.4 2.8-4.8 3.7-.3.2-.7.4-1 .4-.3 0-.7-.2-1-.4-1.4-.9-4-2.7-4.8-3.7-.5-.4-1.2-4.2-1.4-8.3z"/><path class="highlight" opacity=".35" fill-rule="evenodd" clip-rule="evenodd" fill="#FFF" d="M44.2 42.8c.1-.3.3-.5.5-.6 1.8-.6 4.4-.8 6.5-.8s4.7.2 6.5.8c.3.1.5.3.5.6V42c0-.4-.2-.7-.6-.8-1.8-.6-4.4-.8-6.5-.8s-4.7.2-6.5.8c-.3.1-.6.4-.6.8v.1c.2.2.2.4.2.7z"/></g></svg>