	<svg xmlns="http://www.w3.org/2000/svg" width="48" height="48" viewBox="0 0 100 100">
  <title>arms</title>
	<g id="arms" class="symbol static indicator">
			<rect class="bound" fill="none" width="100" height="100"/>

			<path class="edging" opacity="0.65" fill="#FFFFFF" d="M63.2,40.8c-0.1-6.6-11.5-5.7-15.9-5.3c-2.8,0.2-6.6,0.8-7.8,3.7c-0.7,1.7-0.2,4.2-0.1,6
				c0.2,2.6,0.6,5.2,1.8,7.5c0,0,0,0,0.1,0.1c2.2,3,6.2,6.2,9.9,6.5c3.5,0.4,8.1-4,10-6.6c0,0,0,0,0.1-0.1
				C63.1,49.1,63.1,44.8,63.2,40.8z"/>
			<path class="outer" fill="#282828" d="M61.1,40.8c0-0.9-0.6-1.7-1.4-2c-2.2-0.8-5.4-1.2-8.4-1.2c-3,0-6.2,0.5-8.4,1.3c-0.8,0.3-1.4,1.1-1.4,2
				c0.1,3.2,0.7,9.5,1.7,10.8l0,0c1,1.4,3.6,3.1,6.2,4.8l0.2,0.1c0.5,0.3,1.1,0.6,1.8,0.7h0h0c0.7,0,1.3-0.3,1.8-0.7l0.2-0.1
				c2.6-1.7,5.2-3.4,6.2-4.8l0,0c0.9-1.2,1.5-6.9,1.7-10.7L61.1,40.8z"/>

			<linearGradient id="arms-gradient" gradientUnits="userSpaceOnUse" x1="51.2472" y1="40.3845" x2="51.2472" y2="54.3563">
				<stop  offset="0" style="stop-color:#007ABA"/>
				<stop  offset="1" style="stop-color:#0360A7"/>
			</linearGradient>
			<path fill-rule="evenodd" clip-rule="evenodd" fill="url(#arms-gradient)" d="M44.2,42c0-0.4,0.2-0.7,0.6-0.8c1.8-0.6,4.4-0.8,6.5-0.8
				s4.7,0.2,6.5,0.8c0.3,0.1,0.6,0.4,0.6,0.8l0,0.1c-0.1,4.1-0.9,7.8-1.2,8.2c-0.8,1.1-3.4,2.8-4.8,3.7c-0.3,0.2-0.7,0.4-1,0.4
				c-0.3,0-0.7-0.2-1-0.4c-1.4-0.9-4-2.7-4.8-3.7C45.1,49.9,44.4,46.1,44.2,42L44.2,42z"/>

			<path class="highlight" opacity="0.35" fill-rule="evenodd" clip-rule="evenodd" fill="#FFFFFF" d="M44.2,42.8c0.1-0.3,0.3-0.5,0.5-0.6
				c1.8-0.6,4.4-0.8,6.5-0.8s4.7,0.2,6.5,0.8c0.3,0.1,0.5,0.3,0.5,0.6c0-0.2,0-0.5,0-0.7l0-0.1c0-0.4-0.2-0.7-0.6-0.8
				c-1.8-0.6-4.4-0.8-6.5-0.8s-4.7,0.2-6.5,0.8c-0.3,0.1-0.6,0.4-0.6,0.8l0,0.1C44.2,42.3,44.2,42.5,44.2,42.8z"/>
		</g>
		</svg>