<svg xmlns="http://www.w3.org/2000/svg" width="48" height="48" viewBox="0 0 100 100"><title>ats</title><g class="symbol"><g class="top-left"><path class="outer" fill="#282828" d="M36.8 29.3c-4.3 0-7.7 3.5-7.7 7.7 0 4.3 3.5 7.7 7.7 7.7 4.3 0 7.7-3.5 7.7-7.7 0-4.3-3.4-7.7-7.7-7.7z"/><path class="edging" opacity=".65" fill="#FFF" d="M36.8 29.3c4.3 0 7.7 3.5 7.7 7.7 0 4.3-3.5 7.7-7.7 7.7-4.3 0-7.7-3.5-7.7-7.7 0-4.3 3.4-7.7 7.7-7.7m0-2c-5.4 0-9.7 4.4-9.7 9.7 0 5.4 4.4 9.7 9.7 9.7 5.4 0 9.7-4.4 9.7-9.7 0-5.4-4.3-9.7-9.7-9.7z"/><linearGradient id="a" gradientUnits="userSpaceOnUse" x1="36.809" y1="30.868" x2="36.809" y2="42"><stop offset="0" stop-color="#666"/><stop offset="1" stop-color="#4d4d4d"/></linearGradient><path fill="url(#a)" d="M36.8 42c-3.3 0-5.9-2.2-5.9-5.4 0-3.3 2.6-5.7 5.9-5.7 3.3 0 5.9 2.3 5.9 5.6 0 3.2-2.6 5.5-5.9 5.5z"/><path class="outer" fill="#282828" d="M36.8 32.9c2.2 0 4.1 1.8 4.1 4s-1.8 4-4.1 4-4.1-1.8-4.1-4 1.9-4 4.1-4m0-3.6c-4.3 0-7.7 3.5-7.7 7.7 0 4.3 3.5 7.7 7.7 7.7 4.3 0 7.7-3.5 7.7-7.7 0-4.3-3.4-7.7-7.7-7.7z"/><path class="highlight" opacity=".35" fill="#FFF" d="M36.8 33.6c2.2 0 4 1.8 4 4v.2c0-.2.1-.4.1-.6 0-2.2-1.8-4.2-4.1-4.2s-4.1 2-4.1 4.2v.2c.2-2.2 2-3.8 4.1-3.8z"/></g><g class="top-right"><path class="outer" fill="#282828" d="M63.8 29.3c-4.3 0-7.7 3.5-7.7 7.7 0 4.3 3.5 7.7 7.7 7.7 4.3 0 7.7-3.5 7.7-7.7 0-4.3-3.4-7.7-7.7-7.7z"/><path class="edging" opacity=".65" fill="#FFF" d="M63.8 29.3c4.3 0 7.7 3.5 7.7 7.7 0 4.3-3.5 7.7-7.7 7.7-4.3 0-7.7-3.5-7.7-7.7 0-4.3 3.4-7.7 7.7-7.7m0-2c-5.4 0-9.7 4.4-9.7 9.7 0 5.4 4.4 9.7 9.7 9.7 5.4 0 9.7-4.4 9.7-9.7 0-5.4-4.3-9.7-9.7-9.7z"/><linearGradient id="b" gradientUnits="userSpaceOnUse" x1="63.809" y1="30.868" x2="63.809" y2="42"><stop offset="0" stop-color="#666"/><stop offset="1" stop-color="#4d4d4d"/></linearGradient><path fill="url(#b)" d="M63.8 42c-3.3 0-5.9-2.2-5.9-5.4 0-3.3 2.6-5.7 5.9-5.7 3.3 0 5.9 2.3 5.9 5.6 0 3.2-2.6 5.5-5.9 5.5z"/><path class="outer" fill="#282828" d="M63.8 32.9c2.2 0 4.1 1.8 4.1 4s-1.8 4-4.1 4-4.1-1.8-4.1-4 1.9-4 4.1-4m0-3.6c-4.3 0-7.7 3.5-7.7 7.7 0 4.3 3.5 7.7 7.7 7.7 4.3 0 7.7-3.5 7.7-7.7 0-4.3-3.4-7.7-7.7-7.7z"/><path opacity=".35" fill="#FFF" d="M63.8 33.6c2.2 0 4 1.8 4 4v.2c0-.2.1-.4.1-.6 0-2.2-1.8-4.2-4.1-4.2s-4.1 2-4.1 4.2v.2c.2-2.2 2-3.8 4.1-3.8z"/></g><g class="bottom"><path class="outer" fill="#282828" d="M50.3 56.3c-4.3 0-7.7 3.5-7.7 7.7 0 4.3 3.5 7.7 7.7 7.7 4.3 0 7.7-3.5 7.7-7.7 0-4.3-3.4-7.7-7.7-7.7z"/><path class="edging unknown-edging" opacity=".65" fill="#FFF" d="M50.3 56.3c4.3 0 7.7 3.5 7.7 7.7 0 4.3-3.5 7.7-7.7 7.7-4.3 0-7.7-3.5-7.7-7.7 0-4.3 3.4-7.7 7.7-7.7m0-2c-5.4 0-9.7 4.4-9.7 9.7 0 5.4 4.4 9.7 9.7 9.7 5.4 0 9.7-4.4 9.7-9.7 0-5.4-4.3-9.7-9.7-9.7z"/><linearGradient id="c" gradientUnits="userSpaceOnUse" x1="50.292" y1="57.868" x2="50.292" y2="69"><stop offset="0" stop-color="#666"/><stop offset="1" stop-color="#4d4d4d"/></linearGradient><path fill="url(#c)" d="M50.3 69c-3.3 0-5.9-2.2-5.9-5.4 0-3.3 2.6-5.7 5.9-5.7 3.3 0 5.9 2.3 5.9 5.6 0 3.2-2.6 5.5-5.9 5.5z"/><path class="outer" fill="#282828" d="M50.3 59.9c2.2 0 4.1 1.8 4.1 4s-1.8 4-4.1 4-4.1-1.8-4.1-4 1.8-4 4.1-4m0-3.6c-4.3 0-7.7 3.5-7.7 7.7 0 4.3 3.5 7.7 7.7 7.7 4.3 0 7.7-3.5 7.7-7.7 0-4.3-3.4-7.7-7.7-7.7z"/><path class="highlight" opacity=".35" fill="#FFF" d="M50.3 60.6c2.2 0 4 1.8 4 4v.2c0-.2.1-.4.1-.6 0-2.2-1.8-4.2-4.1-4.2s-4.1 2-4.1 4.2v.2c.2-2.2 1.9-3.8 4.1-3.8z"/></g></g></svg>