<svg xmlns="http://www.w3.org/2000/svg" width="48" height="48" viewBox="0 0 100 100"><title>battery-caution</title><g class="symbol static"><path class="outer" fill="#282828" d="M60 25h-6v-1c0-1.1-.9-2-2-2h-4c-1.1 0-2 .9-2 2v1h-6c-2.8 0-5 2.2-5 5v40c0 2.8 2.2 5 5 5h20c2.8 0 5-2.2 5-5V30c0-2.8-2.2-5-5-5z"/><path class="edging" opacity=".65" fill="#FFF" d="M52 22c1.1 0 2 .9 2 2v1h6c2.8 0 5 2.2 5 5v40c0 2.8-2.2 5-5 5H40c-2.8 0-5-2.2-5-5V30c0-2.8 2.2-5 5-5h6v-1c0-1.1.9-2 2-2h4m0-2h-4c-1.9 0-3.4 1.3-3.9 3H40c-3.9 0-7 3.1-7 7v40c0 3.9 3.1 7 7 7h20c3.9 0 7-3.1 7-7V30c0-3.9-3.1-7-7-7h-4.1c-.5-1.7-2-3-3.9-3z"/><linearGradient id="a" gradientUnits="userSpaceOnUse" x1="50" y1="60" x2="50" y2="72"><stop offset="0" stop-color="#ffe633"/><stop offset="1" stop-color="#ffde00"/></linearGradient><path class="static-inner" fill="url(#a)" d="M60 72H40c-1.1 0-2-.9-2-2v-8c0-1.1.9-2 2-2h20c1.1 0 2 .9 2 2v8c0 1.1-.9 2-2 2z"/><path class="highlight" opacity=".35" fill="#FFF" d="M60 60H40c-1.1 0-2 .9-2 2v1c0-1.1.9-2 2-2h20c1.1 0 2 .9 2 2v-1c0-1.1-.9-2-2-2z"/></g></svg>