<svg xmlns="http://www.w3.org/2000/svg" width="48" height="48" viewBox="0 0 100 100">
  <title>battery-symbol</title>
<g id="battery-symbol" class="symbol simple">
			<g id="bound">
				<rect class="" x="0" y="0" width="100" height="100" opacity="0"/>
			</g>

			<path fill="#282828" d="M33.5,32.5c-1.1,0-2,0.9-2,2v12h-11c-1.4,0-2.5,1.1-2.5,2.5s1.1,2.5,2.5,2.5h11v14c0,1.1,0.9,2,2,2
			s2-0.9,2-2v-31C35.5,33.4,34.6,32.5,33.5,32.5z"/>

			<path class="edging" opacity="0.65" fill="#FFFFFF" d="M33.5,32.5c1.1,0,2,0.9,2,2v31c0,1.1-0.9,2-2,2s-2-0.9-2-2v-14h-11c-1.4,0-2.5-1.1-2.5-2.5
				s1.1-2.5,2.5-2.5h11v-12C31.5,33.4,32.4,32.5,33.5,32.5 M33.5,30.5c-2.2,0-4,1.8-4,4v10h-9c-2.5,0-4.5,2-4.5,4.5s2,4.5,4.5,4.5h9
				v12c0,2.2,1.8,4,4,4s4-1.8,4-4v-31C37.5,32.3,35.7,30.5,33.5,30.5L33.5,30.5z"/>

			<path fill="#282828" d="M44.5,55.5c-1.1,0-2-0.9-2-2v-9c0-1.1,0.9-2,2-2s2,0.9,2,2v9C46.5,54.6,45.6,55.5,44.5,55.5z"/>

			<path class="edging" opacity="0.65" fill="#FFFFFF" d="M44.5,42.5c1.1,0,2,0.9,2,2v9c0,1.1-0.9,2-2,2s-2-0.9-2-2v-9C42.5,43.4,43.4,42.5,44.5,42.5 M44.5,40.5
					c-2.2,0-4,1.8-4,4v9c0,2.2,1.8,4,4,4s4-1.8,4-4v-9C48.5,42.3,46.7,40.5,44.5,40.5L44.5,40.5z"/>

			<path fill="#282828" d="M55.5,67.5c-1.1,0-2-0.9-2-2v-31c0-1.1,0.9-2,2-2s2,0.9,2,2v31C57.5,66.6,56.6,67.5,55.5,67.5z"/>

			<path class="edging" opacity="0.65" fill="#FFFFFF" d="M55.5,32.5c1.1,0,2,0.9,2,2v31c0,1.1-0.9,2-2,2s-2-0.9-2-2v-31C53.5,33.4,54.4,32.5,55.5,32.5
					 M55.5,30.5c-2.2,0-4,1.8-4,4v31c0,2.2,1.8,4,4,4s4-1.8,4-4v-31C59.5,32.3,57.7,30.5,55.5,30.5L55.5,30.5z"/>

			<path fill="#282828" d="M79.5,46.5h-11v-2c0-1.1-0.9-2-2-2s-2,0.9-2,2v9c0,1.1,0.9,2,2,2s2-0.9,2-2v-2h11c1.4,0,2.5-1.1,2.5-2.5
			S80.9,46.5,79.5,46.5z"/>

			<path class="edging" opacity="0.65" fill="#FFFFFF" d="M66.5,42.5c1.1,0,2,0.9,2,2v2h11c1.4,0,2.5,1.1,2.5,2.5s-1.1,2.5-2.5,2.5h-11v2c0,1.1-0.9,2-2,2
				s-2-0.9-2-2v-9C64.5,43.4,65.4,42.5,66.5,42.5 M66.5,40.5c-2.2,0-4,1.8-4,4v9c0,2.2,1.8,4,4,4s4-1.8,4-4h9c2.5,0,4.5-2,4.5-4.5
				s-2-4.5-4.5-4.5h-9C70.5,42.3,68.7,40.5,66.5,40.5L66.5,40.5z"/>
		</g>
		</svg>