	<svg xmlns="http://www.w3.org/2000/svg" width="48" height="48" viewBox="0 0 100 100">
  <title>battery-caution</title>
	<g id="battery-caution" class="symbol static">
			<g id="bound">
				<rect class="" x="0" y="0" width="100" height="100" opacity="0"/>
			</g>

			<path class="outer" fill="#282828" d="M60,25h-6v-1c0-1.1-0.9-2-2-2h-4c-1.1,0-2,0.9-2,2v1h-6c-2.8,0-5,2.2-5,5v40c0,2.8,2.2,5,5,5h20
				c2.8,0,5-2.2,5-5V30C65,27.2,62.8,25,60,25z"/>

			<path class="edging" opacity="0.65" fill="#FFFFFF" d="M52,22c1.1,0,2,0.9,2,2v1h6c2.8,0,5,2.2,5,5v40c0,2.8-2.2,5-5,5H40c-2.8,0-5-2.2-5-5V30c0-2.8,2.2-5,5-5h6
				v-1c0-1.1,0.9-2,2-2H52 M52,20h-4c-1.9,0-3.4,1.3-3.9,3H40c-3.9,0-7,3.1-7,7v40c0,3.9,3.1,7,7,7h20c3.9,0,7-3.1,7-7V30
				c0-3.9-3.1-7-7-7h-4.1C55.4,21.3,53.9,20,52,20L52,20z"/>


			<linearGradient id="battery-caution-gradient" gradientUnits="userSpaceOnUse" x1="50" y1="60" x2="50" y2="72">
				<stop  offset="0" style="stop-color:#FFE633"/>
				<stop  offset="1" style="stop-color:#FFDE00"/>
			</linearGradient>
			<path class="static-inner" fill="url(#battery-caution-gradient)" d="M60,72H40c-1.1,0-2-0.9-2-2v-8c0-1.1,0.9-2,2-2h20c1.1,0,2,0.9,2,2v8C62,71.1,61.1,72,60,72z"/>
			<path class="highlight" opacity="0.35" fill="#FFFFFF" d="M60,60H40c-1.1,0-2,0.9-2,2v1c0-1.1,0.9-2,2-2h20c1.1,0,2,0.9,2,2v-1C62,60.9,61.1,60,60,60
				z"/>
		</g>
		</svg>