<svg xmlns="http://www.w3.org/2000/svg" width="48" height="48" viewBox="0 0 100 100"><title>battery-symbol</title><g class="symbol simple"><path fill="#282828" d="M33.5 32.5c-1.1 0-2 .9-2 2v12h-11c-1.4 0-2.5 1.1-2.5 2.5s1.1 2.5 2.5 2.5h11v14c0 1.1.9 2 2 2s2-.9 2-2v-31c0-1.1-.9-2-2-2z"/><path class="edging" opacity=".65" fill="#FFF" d="M33.5 32.5c1.1 0 2 .9 2 2v31c0 1.1-.9 2-2 2s-2-.9-2-2v-14h-11c-1.4 0-2.5-1.1-2.5-2.5s1.1-2.5 2.5-2.5h11v-12c0-1.1.9-2 2-2m0-2c-2.2 0-4 1.8-4 4v10h-9c-2.5 0-4.5 2-4.5 4.5s2 4.5 4.5 4.5h9v12c0 2.2 1.8 4 4 4s4-1.8 4-4v-31c0-2.2-1.8-4-4-4z"/><path fill="#282828" d="M44.5 55.5c-1.1 0-2-.9-2-2v-9c0-1.1.9-2 2-2s2 .9 2 2v9c0 1.1-.9 2-2 2z"/><path class="edging" opacity=".65" fill="#FFF" d="M44.5 42.5c1.1 0 2 .9 2 2v9c0 1.1-.9 2-2 2s-2-.9-2-2v-9c0-1.1.9-2 2-2m0-2c-2.2 0-4 1.8-4 4v9c0 2.2 1.8 4 4 4s4-1.8 4-4v-9c0-2.2-1.8-4-4-4z"/><path fill="#282828" d="M55.5 67.5c-1.1 0-2-.9-2-2v-31c0-1.1.9-2 2-2s2 .9 2 2v31c0 1.1-.9 2-2 2z"/><path class="edging" opacity=".65" fill="#FFF" d="M55.5 32.5c1.1 0 2 .9 2 2v31c0 1.1-.9 2-2 2s-2-.9-2-2v-31c0-1.1.9-2 2-2m0-2c-2.2 0-4 1.8-4 4v31c0 2.2 1.8 4 4 4s4-1.8 4-4v-31c0-2.2-1.8-4-4-4z"/><path fill="#282828" d="M79.5 46.5h-11v-2c0-1.1-.9-2-2-2s-2 .9-2 2v9c0 1.1.9 2 2 2s2-.9 2-2v-2h11c1.4 0 2.5-1.1 2.5-2.5s-1.1-2.5-2.5-2.5z"/><path class="edging" opacity=".65" fill="#FFF" d="M66.5 42.5c1.1 0 2 .9 2 2v2h11c1.4 0 2.5 1.1 2.5 2.5s-1.1 2.5-2.5 2.5h-11v2c0 1.1-.9 2-2 2s-2-.9-2-2v-9c0-1.1.9-2 2-2m0-2c-2.2 0-4 1.8-4 4v9c0 2.2 1.8 4 4 4s4-1.8 4-4h9c2.5 0 4.5-2 4.5-4.5s-2-4.5-4.5-4.5h-9c0-2.2-1.8-4-4-4z"/></g></svg>