<svg xmlns="http://www.w3.org/2000/svg" width="48" height="48" viewBox="0 0 100 100"><title>bi-metallic-ol</title><g class="symbol"><path class="outer" fill="#282828" d="M57.5 50C62 47.4 65 42.6 65 37c0-7.6-5.7-13.9-13-14.9V14c0-1.1-.9-2-2-2s-2 .9-2 2v10c0 1.1.9 2 2 2 6.1 0 11 4.9 11 11s-4.9 11-11 11-11-4.9-11-11c0-1.1-.9-2-2-2s-2 .9-2 2c0 5.6 3 10.4 7.5 13C38 52.6 35 57.4 35 63c0 7.6 5.7 13.9 13 14.9V86c0 1.1.9 2 2 2s2-.9 2-2V76c0-1.1-.9-2-2-2-6.1 0-11-4.9-11-11s4.9-11 11-11 11 4.9 11 11c0 1.1.9 2 2 2s2-.9 2-2c0-5.6-3-10.4-7.5-13z"/><path class="edging" opacity=".65" fill="#FFF" d="M50 12c1.1 0 2 .9 2 2v8.1c7.3 1 13 7.3 13 14.9 0 5.6-3 10.4-7.5 13C62 52.6 65 57.4 65 63c0 1.1-.9 2-2 2s-2-.9-2-2c0-6.1-4.9-11-11-11s-11 4.9-11 11 4.9 11 11 11c1.1 0 2 .9 2 2v10c0 1.1-.9 2-2 2s-2-.9-2-2v-8.1c-7.3-1-13-7.3-13-14.9 0-5.6 3-10.4 7.5-13C38 47.4 35 42.6 35 37c0-1.1.9-2 2-2s2 .9 2 2c0 6.1 4.9 11 11 11s11-4.9 11-11-4.9-11-11-11c-1.1 0-2-.9-2-2V14c0-1.1.9-2 2-2m0-2c-2.2 0-4 1.8-4 4v10c0 2.2 1.8 4 4 4 5 0 9 4 9 9s-4 9-9 9-9-4-9-9c0-2.2-1.8-4-4-4s-4 1.8-4 4c0 5 2.3 9.8 6.1 13-3.8 3.2-6.1 8-6.1 13 0 7.9 5.5 14.7 13 16.5V86c0 2.2 1.8 4 4 4s4-1.8 4-4V76c0-2.2-1.8-4-4-4-5 0-9-4-9-9s4-9 9-9 9 4 9 9c0 2.2 1.8 4 4 4s4-1.8 4-4c0-5-2.3-9.8-6.1-13 3.8-3.2 6.1-8 6.1-13 0-7.9-5.5-14.7-13-16.5V14c0-2.2-1.8-4-4-4z"/></g></svg>