<svg xmlns="http://www.w3.org/2000/svg" width="48" height="48" viewBox="0 0 100 100">
  <title>bi-metallic-ol</title>
<g id="bi-metallic-ol" class="symbol">
			<g id="bound">
				<rect class="" x="0" y="0" width="100" height="100" opacity="0"/>
			</g>

			<path class="outer" fill="#282828" d="M57.5,50C62,47.4,65,42.6,65,37c0-7.6-5.7-13.9-13-14.9V14c0-1.1-0.9-2-2-2s-2,0.9-2,2v10c0,1.1,0.9,2,2,2
				c6.1,0,11,4.9,11,11s-4.9,11-11,11s-11-4.9-11-11c0-1.1-0.9-2-2-2s-2,0.9-2,2c0,5.6,3,10.4,7.5,13C38,52.6,35,57.4,35,63
				c0,7.6,5.7,13.9,13,14.9V86c0,1.1,0.9,2,2,2s2-0.9,2-2V76c0-1.1-0.9-2-2-2c-6.1,0-11-4.9-11-11s4.9-11,11-11s11,4.9,11,11
				c0,1.1,0.9,2,2,2s2-0.9,2-2C65,57.4,62,52.6,57.5,50z"/>

			<path class="edging" opacity="0.65" fill="#FFFFFF" d="M50,12c1.1,0,2,0.9,2,2v8.1c7.3,1,13,7.3,13,14.9c0,5.6-3,10.4-7.5,13C62,52.6,65,57.4,65,63c0,1.1-0.9,2-2,2
				s-2-0.9-2-2c0-6.1-4.9-11-11-11s-11,4.9-11,11s4.9,11,11,11c1.1,0,2,0.9,2,2v10c0,1.1-0.9,2-2,2s-2-0.9-2-2v-8.1
				c-7.3-1-13-7.3-13-14.9c0-5.6,3-10.4,7.5-13C38,47.4,35,42.6,35,37c0-1.1,0.9-2,2-2s2,0.9,2,2c0,6.1,4.9,11,11,11s11-4.9,11-11
				s-4.9-11-11-11c-1.1,0-2-0.9-2-2V14C48,12.9,48.9,12,50,12 M50,10c-2.2,0-4,1.8-4,4v10c0,2.2,1.8,4,4,4c5,0,9,4,9,9s-4,9-9,9
				s-9-4-9-9c0-2.2-1.8-4-4-4s-4,1.8-4,4c0,5,2.3,9.8,6.1,13c-3.8,3.2-6.1,8-6.1,13c0,7.9,5.5,14.7,13,16.5V86c0,2.2,1.8,4,4,4
				s4-1.8,4-4V76c0-2.2-1.8-4-4-4c-5,0-9-4-9-9s4-9,9-9s9,4,9,9c0,2.2,1.8,4,4,4s4-1.8,4-4c0-5-2.3-9.8-6.1-13c3.8-3.2,6.1-8,6.1-13
				c0-7.9-5.5-14.7-13-16.5V14C54,11.8,52.2,10,50,10L50,10z"/>
		</g>
</svg>