<svg xmlns="http://www.w3.org/2000/svg" width="48" height="48" viewBox="0 0 100 100">
  <title>breaker-face</title>

<g id="breaker-face" class="symbol face">

	<path class="outer" fill="#282828" d="M68.5,20.5h-34c-6,0-10,4-10,9v41c0,5,4,9,9,9h34c5,0,8-4,8-9v-41c0-5-3-9-8-9H68.5z"/>

	<path class="edging" opacity="0.65" fill="#FFFFFF" d="M68.5,20.5h-1H68.5 M67.5,20.5c5,0,8,4,8,9v41c0,5-3,9-8,9h-34c-5,0-9-4-9-9v-41c0-5,4-9,10-9H67.5
		 M68.5,18.5h-1h-33c-6.8,0-12,4.7-12,11v41c0,6.1,4.9,11,11,11h34c5.8,0,10-4.6,10-11v-41C77.5,23.5,73.8,19,68.5,18.5
		L68.5,18.5L68.5,18.5z"/>

	<linearGradient id="breaker-face-1" gradientUnits="userSpaceOnUse" x1="50" y1="23.5" x2="50" y2="76.5">
		<stop  offset="0" style="stop-color:#E6E6E6"/>
		<stop  offset="1" style="stop-color:#CCCCCC"/>
	</linearGradient>
	<path fill="url(#breaker-face-1)" d="M67.5,76.5h-34c-3.3,0-6-2.7-6-6v-41c0-3.3,2.7-6,6-6h34c3.3,0,5,2.7,5,6v41
		C72.5,73.8,70.8,76.5,67.5,76.5z"/>
	<path opacity="0.2" fill="#FFFFFF" d="M67.5,23.5h-34c-3.3,0-6,2.7-6,6v1c0-3.3,2.7-6,6-6h34c3.3,0,5,2.7,5,6v-1
		C72.5,26.2,70.8,23.5,67.5,23.5z"/>

	<path fill="#CCCCCC" d="M69,29H48c-0.5,0-1-0.5-1-1v-1c0-0.5,0.5-1,1-1h21c0.6,0,1,0.5,1,1v1C70,28.5,69.6,29,69,29z"/>
	<linearGradient id="breaker-face-2" gradientUnits="userSpaceOnUse" x1="50" y1="26" x2="50" y2="66">
		<stop  offset="0" style="stop-color:#666666"/>
		<stop  offset="1" style="stop-color:#4D4D4D"/>
	</linearGradient>
	<path fill="url(#breaker-face-2)" d="M52,66h-4c-0.6,0-1-0.4-1-1V27c0-0.6,0.4-1,1-1h4c0.6,0,1,0.4,1,1v38C53,65.6,52.6,66,52,66z"/>
	<linearGradient id="breaker-face-3" gradientUnits="userSpaceOnUse" x1="63" y1="30" x2="63" y2="51">
		<stop  offset="0" style="stop-color:#666666"/>
		<stop  offset="1" style="stop-color:#4D4D4D"/>
	</linearGradient>
	<path fill="url(#breaker-face-3)" d="M68,51H58c-1.1,0-2-0.9-2-2V32c0-1.1,0.9-2,2-2h10c1.1,0,2,0.9,2,2v17C70,50.1,69.1,51,68,51z"/>
	<path opacity="0.5" fill="#FFFFFF" d="M42,74H32c-1.1,0-2-0.9-2-2V60c0-1.1,0.9-2,2-2h10c1.1,0,2,0.9,2,2v12C44,73.1,43.1,74,42,74
		z"/>
	<path fill="#ED1C24" d="M61,43h-2c-0.5,0-1-0.5-1-1v-3c0-0.5,0.5-1,1-1h2c0.5,0,1,0.5,1,1v3C62,42.5,61.5,43,61,43z"/>
	<path fill="#22B573" d="M67,43h-2c-0.6,0-1-0.5-1-1v-3c0-0.5,0.4-1,1-1h2c0.6,0,1,0.5,1,1v3C68,42.5,67.6,43,67,43z"/>
	<path fill="#22B573" d="M61,34h-2c-0.5,0-1-0.5-1-1l0,0c0-0.5,0.5-1,1-1h2c0.5,0,1,0.5,1,1l0,0C62,33.5,61.5,34,61,34z"/>
	<path fill="#FCEE21" d="M67,34h-2c-0.6,0-1-0.5-1-1l0,0c0-0.5,0.4-1,1-1h2c0.6,0,1,0.5,1,1l0,0C68,33.5,67.6,34,67,34z"/>
	<g opacity="0.8">
		<rect x="33" y="60" fill="#999999" width="7" height="2"/>
	</g>
	<path opacity="0.2" fill="#FFFFFF" d="M68,50H58c-1.1,0-2-0.9-2-2v1c0,1.1,0.9,2,2,2h10c1.1,0,2-0.9,2-2v-1C70,49.1,69.1,50,68,50z
		"/>
	<g>
		<linearGradient id="breaker-face-4" gradientUnits="userSpaceOnUse" x1="37" y1="30" x2="37" y2="54">
			<stop  offset="0" style="stop-color:#666666"/>
			<stop  offset="1" style="stop-color:#4D4D4D"/>
		</linearGradient>
		<path fill="url(#breaker-face-4)" d="M42,54H32c-1.1,0-2-0.9-2-2V32c0-1.1,0.9-2,2-2h10c1.1,0,2,0.9,2,2v20C44,53.1,43.1,54,42,54z"/>
		<polyline opacity="0.8" fill="none" stroke="#F2F2F2" stroke-miterlimit="10" points="33,35.9 33,39.8 36.4,42.1 36.4,45.5 
			38.6,45.5 38.6,50 42,50 		"/>
		<path opacity="0.2" fill="#FFFFFF" d="M42,53H32c-1.1,0-2-0.9-2-2v1c0,1.1,0.9,2,2,2h10c1.1,0,2-0.9,2-2v-1C44,52.1,43.1,53,42,53
			z"/>
	</g>
	<rect x="33" y="26" fill="#0071BC" width="6" height="2"/>
	<path opacity="0.2" fill="#FFFFFF" d="M52,26h-4c-0.6,0-1,0.4-1,1v1c0-0.6,0.4-1,1-1h4c0.6,0,1,0.4,1,1v-1C53,26.4,52.6,26,52,26z"
		/>
	<linearGradient id="breaker-face-5" gradientUnits="userSpaceOnUse" x1="60" y1="40" x2="60" y2="38">
		<stop  offset="0" style="stop-color:#FFFFFF;stop-opacity:0.4"/>
		<stop  offset="1" style="stop-color:#FFFFFF;stop-opacity:0"/>
	</linearGradient>
	<path opacity="0.6" fill="url(#breaker-face-5)" d="M62,40v-1c0-0.5-0.5-1-1-1h-2c-0.5,0-1,0.5-1,1v1H62z"/>
	<linearGradient id="breaker-face-6" gradientUnits="userSpaceOnUse" x1="66" y1="40" x2="66" y2="38">
		<stop  offset="0" style="stop-color:#FFFFFF;stop-opacity:0.4"/>
		<stop  offset="1" style="stop-color:#FFFFFF;stop-opacity:0"/>
	</linearGradient>
	<path opacity="0.6" fill="url(#breaker-face-6)" d="M68,40v-1c0-0.5-0.5-1-1-1h-2c-0.5,0-1,0.5-1,1v1H68z"/>
	<g opacity="0.6">
		<g>
			<path fill="#FFFFFF" d="M60,42.2c-0.7,0-1.2-0.6-1.2-1.2s0.6-1.2,1.2-1.2s1.2,0.6,1.2,1.2S60.7,42.2,60,42.2z M60,40.2
				c-0.4,0-0.8,0.3-0.8,0.8s0.3,0.8,0.8,0.8s0.8-0.3,0.8-0.8S60.4,40.2,60,40.2z"/>
		</g>
		<g>
			<rect x="65.8" y="40" fill="#FFFFFF" width="0.5" height="2"/>
		</g>
	</g>
</g>
</svg>
