<svg xmlns="http://www.w3.org/2000/svg" width="48" height="48" viewBox="0 0 100 100"><title>breaker-handle</title><g class="symbol"><path fill="none" d="M0 0h100v100H0z"/><linearGradient id="a" x1="50" y1="36.5" x2="50" y2="63.5" gradientUnits="userSpaceOnUse"><stop offset="0" stop-color="#666"/><stop offset="1" stop-color="#4d4d4d"/></linearGradient><clipPath id="b"><path d="M35.5 63.5v-27h-1a8 8 0 0 0-8 8v11a8 8 0 0 0 8 8z" fill="none"/></clipPath><linearGradient id="c" x1="44.22" y1="50.75" x2="44.22" y2="64.75" gradientUnits="userSpaceOnUse"><stop offset="0" stop-color="#e6e6e6"/><stop offset="1" stop-color="#ccc"/></linearGradient><path class="outer" d="M65.5 33.5h-31a11 11 0 0 0-11 11v11a11 11 0 0 0 11 11h31a11 11 0 0 0 11-11v-11a11 11 0 0 0-11-11z" fill="#282828"/><path class="edging" opacity=".65" d="M65.5 33.5a11 11 0 0 1 11 11v11a11 11 0 0 1-11 11h-31a11 11 0 0 1-11-11v-11a11 11 0 0 1 11-11h31m0-2h-31a13 13 0 0 0-13 13v11a13 13 0 0 0 13 13h31a13 13 0 0 0 13-13v-11a13 13 0 0 0-13-13z" fill="#fff"/><rect x="26.5" y="36.5" width="47" height="27" rx="8" ry="8" fill="url(#a)"/><g clip-path="url(#b)"><path fill="#ed1c24" d="M25.08 36.5h11.83v9H25.08z"/><path fill="#fff200" d="M25.08 45.5h11.83v9H25.08z"/><path fill="#4cc933" d="M25.08 54.5h11.83v9H25.08z"/></g><path class="highlight" d="M65.5 36.5h-31a8 8 0 0 0-8 8v1a8 8 0 0 1 8-8h31a8 8 0 0 1 8 8v-1a8 8 0 0 0-8-8z" fill="#fff" opacity=".35"/><path fill="#414042" d="M36.23 35h15.98v30H36.23z"/><path d="M50.71 36.5v27h-13v-27h13m3-3h-19v33h19v-33z" fill="#282828"/><path class="shadow highlight" fill="#231f20" opacity=".35" d="M37.73 36.5h12.98v1H37.73z"/><g class="animate"><rect x="34.72" y="50.75" width="19" height="14" rx="4.5" ry="4.5" fill="url(#c)"/><path d="M49.22 52.25a3 3 0 0 1 3 3v5a3 3 0 0 1-3 3h-10a3 3 0 0 1-3-3v-5a3 3 0 0 1 3-3h10m0-3h-10a6 6 0 0 0-6 6v5a6 6 0 0 0 6 6h10a6 6 0 0 0 6-6v-5a6 6 0 0 0-6-6z" fill="#282828"/></g></g></svg>