<svg xmlns="http://www.w3.org/2000/svg" width="48" height="48" viewBox="0 0 100 100"><title>breaker-face</title><g class="symbol face"><path class="outer" fill="#282828" d="M68.5 20.5h-34c-6 0-10 4-10 9v41c0 5 4 9 9 9h34c5 0 8-4 8-9v-41c0-5-3-9-8-9h1z"/><path class="edging" opacity=".65" fill="#FFF" d="M68.5 20.5h-1 1m-1 0c5 0 8 4 8 9v41c0 5-3 9-8 9h-34c-5 0-9-4-9-9v-41c0-5 4-9 10-9h33m1-2h-34c-6.8 0-12 4.7-12 11v41c0 6.1 4.9 11 11 11h34c5.8 0 10-4.6 10-11v-41c0-6-3.7-10.5-9-11z"/><linearGradient id="a" gradientUnits="userSpaceOnUse" x1="50" y1="23.5" x2="50" y2="76.5"><stop offset="0" stop-color="#e6e6e6"/><stop offset="1" stop-color="#ccc"/></linearGradient><path fill="url(#a)" d="M67.5 76.5h-34c-3.3 0-6-2.7-6-6v-41c0-3.3 2.7-6 6-6h34c3.3 0 5 2.7 5 6v41c0 3.3-1.7 6-5 6z"/><path opacity=".2" fill="#FFF" d="M67.5 23.5h-34c-3.3 0-6 2.7-6 6v1c0-3.3 2.7-6 6-6h34c3.3 0 5 2.7 5 6v-1c0-3.3-1.7-6-5-6z"/><path fill="#CCC" d="M69 29H48c-.5 0-1-.5-1-1v-1c0-.5.5-1 1-1h21c.6 0 1 .5 1 1v1c0 .5-.4 1-1 1z"/><linearGradient id="b" gradientUnits="userSpaceOnUse" x1="50" y1="26" x2="50" y2="66"><stop offset="0" stop-color="#666"/><stop offset="1" stop-color="#4d4d4d"/></linearGradient><path fill="url(#b)" d="M52 66h-4c-.6 0-1-.4-1-1V27c0-.6.4-1 1-1h4c.6 0 1 .4 1 1v38c0 .6-.4 1-1 1z"/><linearGradient id="c" gradientUnits="userSpaceOnUse" x1="63" y1="30" x2="63" y2="51"><stop offset="0" stop-color="#666"/><stop offset="1" stop-color="#4d4d4d"/></linearGradient><path fill="url(#c)" d="M68 51H58c-1.1 0-2-.9-2-2V32c0-1.1.9-2 2-2h10c1.1 0 2 .9 2 2v17c0 1.1-.9 2-2 2z"/><path opacity=".5" fill="#FFF" d="M42 74H32c-1.1 0-2-.9-2-2V60c0-1.1.9-2 2-2h10c1.1 0 2 .9 2 2v12c0 1.1-.9 2-2 2z"/><path fill="#ED1C24" d="M61 43h-2c-.5 0-1-.5-1-1v-3c0-.5.5-1 1-1h2c.5 0 1 .5 1 1v3c0 .5-.5 1-1 1z"/><path fill="#22B573" d="M67 43h-2c-.6 0-1-.5-1-1v-3c0-.5.4-1 1-1h2c.6 0 1 .5 1 1v3c0 .5-.4 1-1 1zm-6-9h-2c-.5 0-1-.5-1-1s.5-1 1-1h2c.5 0 1 .5 1 1s-.5 1-1 1z"/><path fill="#FCEE21" d="M67 34h-2c-.6 0-1-.5-1-1s.4-1 1-1h2c.6 0 1 .5 1 1s-.4 1-1 1z"/><path fill="#999" d="M33 60h7v2h-7z" opacity=".8"/><path opacity=".2" fill="#FFF" d="M68 50H58c-1.1 0-2-.9-2-2v1c0 1.1.9 2 2 2h10c1.1 0 2-.9 2-2v-1c0 1.1-.9 2-2 2z"/><linearGradient id="d" gradientUnits="userSpaceOnUse" x1="37" y1="30" x2="37" y2="54"><stop offset="0" stop-color="#666"/><stop offset="1" stop-color="#4d4d4d"/></linearGradient><path fill="url(#d)" d="M42 54H32c-1.1 0-2-.9-2-2V32c0-1.1.9-2 2-2h10c1.1 0 2 .9 2 2v20c0 1.1-.9 2-2 2z"/><path opacity=".8" fill="none" stroke="#F2F2F2" stroke-miterlimit="10" d="M33 35.9v3.9l3.4 2.3v3.4h2.2V50H42"/><path opacity=".2" fill="#FFF" d="M42 53H32c-1.1 0-2-.9-2-2v1c0 1.1.9 2 2 2h10c1.1 0 2-.9 2-2v-1c0 1.1-.9 2-2 2z"/><path fill="#0071BC" d="M33 26h6v2h-6z"/><path opacity=".2" fill="#FFF" d="M52 26h-4c-.6 0-1 .4-1 1v1c0-.6.4-1 1-1h4c.6 0 1 .4 1 1v-1c0-.6-.4-1-1-1z"/><linearGradient id="e" gradientUnits="userSpaceOnUse" x1="60" y1="40" x2="60" y2="38"><stop offset="0" stop-color="#fff" stop-opacity=".4"/><stop offset="1" stop-color="#fff" stop-opacity="0"/></linearGradient><path opacity=".6" fill="url(#e)" d="M62 40v-1c0-.5-.5-1-1-1h-2c-.5 0-1 .5-1 1v1h4z"/><linearGradient id="f" gradientUnits="userSpaceOnUse" x1="66" y1="40" x2="66" y2="38"><stop offset="0" stop-color="#fff" stop-opacity=".4"/><stop offset="1" stop-color="#fff" stop-opacity="0"/></linearGradient><path opacity=".6" fill="url(#f)" d="M68 40v-1c0-.5-.5-1-1-1h-2c-.5 0-1 .5-1 1v1h4z"/><path fill="#FFF" d="M60 42.2c-.7 0-1.2-.6-1.2-1.2s.6-1.2 1.2-1.2 1.2.6 1.2 1.2-.5 1.2-1.2 1.2zm0-2c-.4 0-.8.3-.8.8s.3.8.8.8.8-.3.8-.8-.4-.8-.8-.8zm5.8-.2h.5v2h-.5z" opacity=".6"/></g></svg>