<svg xmlns="http://www.w3.org/2000/svg" width="48" height="48" viewBox="0 0 100 100"><title>buttons</title><g class="symbol"><path class="outer" fill="#282828" d="M64.1 36H38.9c-7.2 0-13 5.8-13 13s5.8 13 13 13h25.2c7.2 0 13-5.8 13-13s-5.8-13-13-13z"/><path class="edging" opacity=".65" fill="#FFF" d="M64.1 36c7.2 0 13 5.8 13 13s-5.8 13-13 13H38.9c-7.2 0-13-5.8-13-13s5.8-13 13-13h25.2m0-2H38.9c-8.3 0-15 6.7-15 15s6.7 15 15 15h25.2c8.3 0 15-6.7 15-15s-6.7-15-15-15z"/><linearGradient id="a" gradientUnits="userSpaceOnUse" x1="51.5" y1="37" x2="51.5" y2="61"><stop offset="0" stop-color="#666"/><stop offset="1" stop-color="#4d4d4d"/></linearGradient><path fill="url(#a)" d="M38.9 61c-6.6 0-12-5.4-12-12s5.4-12 12-12h25.2c6.6 0 12 5.4 12 12s-5.4 12-12 12H38.9z"/><path class="outer" fill="#282828" d="M64.1 38c6.1 0 11 4.9 11 11s-4.9 11-11 11H38.9c-6.1 0-11-4.9-11-11s4.9-11 11-11h25.2m0-2H38.9c-7.2 0-13 5.8-13 13s5.8 13 13 13h25.2c7.2 0 13-5.8 13-13s-5.8-13-13-13z"/><path class="highlight" opacity=".35" fill="#F2F2F2" d="M38.9 39.2H64c5.9 0 10.6 4.6 10.9 10.4V49c0-6.1-4.9-11-11-11h-25c-6.1 0-11 4.9-11 11v.6c.4-5.8 5.2-10.4 11-10.4z"/><g class="buttons"><g class="on-button-on"><circle fill="#40BD27" stroke="#000" stroke-width="2" stroke-miterlimit="10" cx="39.8" cy="49.7" r="7.6"/><path d="M39.8 54.7c-.6 0-1-.4-1-1v-6.4c0-.6.4-1 1-1s1 .4 1 1v6.4c0 .5-.4 1-1 1z"/><path fill="#FFF" d="M39.8 53.9c-.6 0-1-.4-1-1v-6.4c0-.6.4-1 1-1s1 .4 1 1v6.4c0 .6-.4 1-1 1z"/></g><g class="off-button-on"><linearGradient id="b" gradientUnits="userSpaceOnUse" x1="55.572" y1="49.679" x2="70.8" y2="49.679"><stop offset="0" stop-color="#e01313"/><stop offset="1" stop-color="#ce0101"/></linearGradient><circle fill="url(#b)" stroke="#000" stroke-width="2" stroke-miterlimit="10" cx="63.2" cy="49.7" r="7.6"/><path d="M63.2 54.7c-2.4 0-4.3-1.9-4.3-4.3s1.9-4.3 4.3-4.3 4.3 1.9 4.3 4.3-2 4.3-4.3 4.3zm0-6.6c-1.2 0-2.3 1-2.3 2.3s1 2.3 2.3 2.3c1.3 0 2.3-1 2.3-2.3s-1.1-2.3-2.3-2.3z"/><path fill="#FFF" d="M63.2 53.9c-2.4 0-4.3-1.9-4.3-4.3s1.9-4.3 4.3-4.3 4.3 1.9 4.3 4.3-2 4.3-4.3 4.3zm0-6.5c-1.2 0-2.3 1-2.3 2.3s1 2.3 2.3 2.3c1.3 0 2.3-1 2.3-2.3s-1.1-2.3-2.3-2.3z"/></g></g></g></svg>