<svg xmlns="http://www.w3.org/2000/svg" width="48" height="48" viewBox="0 0 100 100"><title>capacitor-with-bus</title><g class="symbol simple"><path class="outer" fill="#282828" d="M88.6 56.7c-2.6-.7-4.5-3-5-5.7-.1-.4-.1-.7-.1-1.1 0-.4 0-.7.1-1.1.4-2.6 2.3-5 5-5.7 1.3-.3 2.8 0 3.4-1.4.5-1.3-.4-2.8-1.8-2.8-4.4 0-8.4 3-9.9 7.1-.5 1.2-.7 2.5-.7 3.8 0 1.3.2 2.6.7 3.8 1.5 4.1 5.5 7.1 9.9 7.1 1.4 0 2.4-1.5 1.8-2.8-.6-1.3-2.2-.9-3.4-1.2z"/><path class="edging" opacity=".65" fill="#FFF" d="M90.2 39c1.4 0 2.4 1.5 1.8 2.8-.6 1.5-2.2 1.1-3.4 1.4-2.6.7-4.5 3-5 5.7-.1.4-.1.7-.1 1.1 0 .4 0 .7.1 1.1.4 2.6 2.3 5 5 5.7 1.3.3 2.8 0 3.4 1.4.5 1.3-.4 2.8-1.8 2.8-4.4 0-8.4-3-9.9-7.1-.5-1.2-.7-2.5-.7-3.8s.2-2.6.7-3.8c1.4-4.3 5.4-7.3 9.9-7.3m0-2c-5.2 0-10 3.4-11.8 8.4-.5 1.4-.8 3-.8 4.5s.3 3.1.8 4.5c1.9 5 6.6 8.4 11.8 8.4 1.3 0 2.6-.7 3.3-1.8.7-1.1.9-2.5.4-3.8-.9-2.2-2.9-2.4-4-2.5-.3 0-.6-.1-.8-.1-1.8-.5-3.2-2.1-3.5-4 0-.2-.1-.5-.1-.8 0-.3 0-.5.1-.8.3-2 1.7-3.6 3.5-4 .2-.1.5-.1.8-.1 1.1-.1 3.1-.3 4-2.5.5-1.2.4-2.6-.4-3.8-.8-.9-2-1.6-3.3-1.6z"/><path class="outer" fill="#282828" d="M68.8 39c-1.1 0-2 .9-2 2v7h-17c-1.1 0-2 .9-2 2s.9 2 2 2h17v7c0 1.1.9 2 2 2s2-.9 2-2V41c0-1.1-.9-2-2-2z"/><path class="edging" opacity=".65" fill="#FFF" d="M68.8 39c1.1 0 2 .9 2 2v18c0 1.1-.9 2-2 2s-2-.9-2-2v-7h-17c-1.1 0-2-.9-2-2s.9-2 2-2h17v-7c0-1.1.9-2 2-2m0-2c-2.2 0-4 1.8-4 4v5h-15c-2.2 0-4 1.8-4 4s1.8 4 4 4h15v5c0 2.2 1.8 4 4 4s4-1.8 4-4V41c0-2.2-1.8-4-4-4z"/></g></svg>