<svg xmlns="http://www.w3.org/2000/svg" width="48" height="48" viewBox="0 0 100 100">
  <title>capacitor</title>
<g id="capacitor" class="symbol simple">
			<g id="bound">
				<rect class="" x="0" y="0" width="100" height="100" opacity="0"/>
			</g>

			<path class="outer" fill="#282828" d="M70.1,56.7c-2.6-0.7-4.5-3-5-5.7c-0.1-0.4-0.1-0.7-0.1-1.1c0-0.4,0-0.7,0.1-1.1c0.4-2.6,2.3-5,5-5.7
			c1.3-0.3,2.8,0,3.4-1.4c0.5-1.3-0.4-2.8-1.8-2.8c-4.4,0-8.4,3-9.9,7.1c-0.5,1.2-0.7,2.5-0.7,3.8c0,1.3,0.2,2.6,0.7,3.8
			c1.5,4.1,5.5,7.1,9.9,7.1c1.4,0,2.4-1.5,1.8-2.8C72.9,56.6,71.3,57,70.1,56.7z"/>

			<path class="edging" opacity="0.65" fill="#FFFFFF" d="M71.7,39c1.4,0,2.4,1.5,1.8,2.8c-0.6,1.5-2.2,1.1-3.4,1.4c-2.6,0.7-4.5,3-5,5.7c-0.1,0.4-0.1,0.7-0.1,1.1
			c0,0.4,0,0.7,0.1,1.1c0.4,2.6,2.3,5,5,5.7c1.3,0.3,2.8,0,3.4,1.4c0.5,1.3-0.4,2.8-1.8,2.8c-4.4,0-8.4-3-9.9-7.1
			c-0.5-1.2-0.7-2.5-0.7-3.8c0-1.3,0.2-2.6,0.7-3.8C63.2,42,67.2,39,71.7,39 M71.7,37c-5.2,0-10,3.4-11.8,8.4
			c-0.5,1.4-0.8,3-0.8,4.5c0,1.6,0.3,3.1,0.8,4.5c1.9,5,6.6,8.4,11.8,8.4c1.3,0,2.6-0.7,3.3-1.8c0.7-1.1,0.9-2.5,0.4-3.8
			c-0.9-2.2-2.9-2.4-4-2.5c-0.3,0-0.6-0.1-0.8-0.1c-1.8-0.5-3.2-2.1-3.5-4c0-0.2-0.1-0.5-0.1-0.8c0-0.3,0-0.5,0.1-0.8
			c0.3-2,1.7-3.6,3.5-4c0.2-0.1,0.5-0.1,0.8-0.1c1.1-0.1,3.1-0.3,4-2.5c0.5-1.2,0.4-2.6-0.4-3.8C74.2,37.7,73,37,71.7,37L71.7,37z"
			/>

			<path class="outer" fill="#282828" d="M50.3,61c-1.1,0-2-0.9-2-2V41c0-1.1,0.9-2,2-2s2,0.9,2,2v18C52.3,60.1,51.4,61,50.3,61z"/>

			<path class="edging" opacity="0.65" fill="#FFFFFF" d="M50.3,39c1.1,0,2,0.9,2,2v18c0,1.1-0.9,2-2,2s-2-0.9-2-2V41C48.3,39.9,49.2,39,50.3,39 M50.3,37c-2.2,0-4,1.8-4,4v18c0,2.2,1.8,4,4,4s4-1.8,4-4V41C54.3,38.8,52.5,37,50.3,37L50.3,37z"/>
		</g>

</svg>