<svg xmlns="http://www.w3.org/2000/svg" width="48" height="48" viewBox="0 0 100 100">
  <title>carbon-monoxide-base</title>
		<g id="carbon-monoxide-base" class="symbol sensors base">
			<rect class="bound" fill="none" width="100" height="100"/>
			<path class="outer" fill="#282828" d="M50,73.9c-1.5,0-2.9-0.6-3.9-1.6L27.7,53.9c-1-1-1.6-2.4-1.6-3.9s0.6-2.9,1.6-3.9l18.4-18.4
				c1-1,2.4-1.6,3.9-1.6s2.9,0.6,3.9,1.6l18.4,18.4c1,1,1.6,2.4,1.6,3.9s-0.6,2.9-1.6,3.9L53.9,72.3C52.9,73.3,51.5,73.9,50,73.9z"
				/>
			<path class="edging" opacity="0.65" fill="#FFFFFF" d="M50,26.1c1.5,0,2.9,0.6,3.9,1.6l18.4,18.4c1,1,1.6,2.4,1.6,3.9s-0.6,2.9-1.6,3.9L53.9,72.3
				c-1,1-2.4,1.6-3.9,1.6s-2.9-0.6-3.9-1.6L27.7,53.9c-1-1-1.6-2.4-1.6-3.9s0.6-2.9,1.6-3.9l18.4-18.4
				C47.1,26.7,48.5,26.1,50,26.1 M50,24.1c-2,0-3.9,0.8-5.3,2.2L26.3,44.7c-1.4,1.4-2.2,3.3-2.2,5.3s0.8,3.9,2.2,5.3l18.4,18.4
				c1.4,1.4,3.3,2.2,5.3,2.2s3.9-0.8,5.3-2.2l18.4-18.4c1.4-1.4,2.2-3.3,2.2-5.3s-0.8-3.9-2.2-5.3L55.3,26.3
				C53.9,24.9,52,24.1,50,24.1L50,24.1z"/>

			<linearGradient id="NormalGradient" gradientUnits="userSpaceOnUse" x1="50" y1="70.8611" x2="50" y2="29.1152">
				<stop  offset="0" style="stop-color:#4D4D4D"/>
				<stop  offset="1" style="stop-color:#666666"/>
			</linearGradient>
			<path class="inner" fill="url(#NormalGradient)" d="M50,29.1c-0.7,0-1.3,0.3-1.8,0.7L29.8,48.2c-1,1-1,2.6,0,3.5l18.4,18.4c0.9,0.9,2.6,0.9,3.5,0
				l18.4-18.4c1-1,1-2.6,0-3.5L51.8,29.8C51.3,29.4,50.7,29.1,50,29.1z"/>
			<path class="highlight" opacity="0.35" fill="#FFFFFF" d="M29.8,49.2l18.4-18.4c0.5-0.5,1.1-0.7,1.8-0.7s1.3,0.3,1.8,0.7l18.4,18.4
				c0.4,0.4,0.6,0.8,0.7,1.3c0.2-0.8-0.1-1.7-0.7-2.3L51.8,29.8c-0.5-0.5-1.1-0.7-1.8-0.7s-1.3,0.3-1.8,0.7L29.8,48.2
				c-0.6,0.6-0.8,1.5-0.7,2.3C29.3,50,29.5,49.6,29.8,49.2z"/>

			<g class="text">
				<text class="text" text-anchor="middle" transform="matrix(1 0 0 1 50 55)" fill="#ffffff" font-family="'Gotham-Black', 'Open Sans'" font-size="12px"  style="font-weight: bold;">CO</text>
			</g>
		</g>
		</svg>