	<svg xmlns="http://www.w3.org/2000/svg" width="48" height="48" viewBox="0 0 100 100">
  <title>carbon-monoxide-node</title>
	<g id="carbon-monoxide-node" class="symbol sensor node">
			<rect class="bound" fill="none" width="100" height="100"/>
			<path class="outer" fill="#282828" d="M50,65c-0.9,0-1.8-0.4-2.4-1L36.1,52.4c-0.7-0.7-1-1.5-1-2.4s0.4-1.8,1-2.4l11.5-11.5
				c0.7-0.7,1.5-1,2.4-1s1.8,0.4,2.4,1l11.5,11.5c0.7,0.7,1,1.5,1,2.4s-0.4,1.8-1,2.4L52.4,63.9C51.8,64.6,50.9,65,50,65z"/>
			<path class="edging" opacity="0.65" fill="#FFFFFF" d="M50,35c0.9,0,1.8,0.4,2.4,1l11.5,11.5c0.7,0.7,1,1.5,1,2.4s-0.4,1.8-1,2.4L52.4,63.9
				c-0.7,0.7-1.5,1-2.4,1s-1.8-0.4-2.4-1L36.1,52.4c-0.7-0.7-1-1.5-1-2.4s0.4-1.8,1-2.4l11.5-11.5C48.2,35.4,49.1,35,50,35 M50,33
				c-1.5,0-2.8,0.6-3.8,1.6L34.6,46.2c-1,1-1.6,2.4-1.6,3.8s0.6,2.8,1.6,3.8l11.5,11.5c1,1,2.4,1.6,3.8,1.6s2.8-0.6,3.8-1.6
				l11.5-11.5c1-1,1.6-2.4,1.6-3.8s-0.6-2.8-1.6-3.8L53.8,34.6C52.8,33.6,51.5,33,50,33L50,33z"/>

			<linearGradient id="NormalGradient" gradientUnits="userSpaceOnUse" x1="50" y1="61.1924" x2="50" y2="38.8076">
				<stop  offset="0" style="stop-color:#4D4D4D"/>
				<stop  offset="1" style="stop-color:#666666"/>
			</linearGradient>
			<path class="inner" fill="url(#NormalGradient)" d="M60.6,51.4l-9.2,9.2c-0.8,0.8-2,0.8-2.8,0l-9.2-9.2c-0.8-0.8-0.8-2,0-2.8l9.2-9.2
				c0.8-0.8,2-0.8,2.8,0l9.2,9.2C61.4,49.4,61.4,50.6,60.6,51.4z"/>
			<path class="hightlight" opacity="0.35" fill="#FFFFFF" d="M39.4,49.6l9.2-9.2c0.8-0.8,2-0.8,2.8,0l9.2,9.2c0.3,0.3,0.4,0.6,0.5,0.9
				c0.2-0.7,0-1.4-0.5-1.9l-9.2-9.2c-0.8-0.8-2-0.8-2.8,0l-9.2,9.2c-0.5,0.5-0.7,1.3-0.5,1.9C39,50.2,39.1,49.8,39.4,49.6z"/>
			
			<g class="text">
				<text class="text" text-anchor="middle" transform="matrix(1 0 0 1 50 54)" fill="#ffffff" font-family="'Gotham-Black', 'Open Sans'" font-size="10px"  style="font-weight: bold;">CO</text>
			</g>
		</g>
		</svg>