<svg xmlns="http://www.w3.org/2000/svg" width="48" height="48" viewBox="0 0 100 100"><title>carbon-monoxide-node</title><g class="symbol sensor node"><path class="bound" fill="none" d="M0 0h100v100H0z"/><path class="outer" fill="#282828" d="M50 65c-.9 0-1.8-.4-2.4-1L36.1 52.4c-.7-.7-1-1.5-1-2.4s.4-1.8 1-2.4l11.5-11.5c.7-.7 1.5-1 2.4-1s1.8.4 2.4 1l11.5 11.5c.7.7 1 1.5 1 2.4s-.4 1.8-1 2.4L52.4 63.9c-.6.7-1.5 1.1-2.4 1.1z"/><path class="edging" opacity=".65" fill="#FFF" d="M50 35c.9 0 1.8.4 2.4 1l11.5 11.5c.7.7 1 1.5 1 2.4s-.4 1.8-1 2.4L52.4 63.9c-.7.7-1.5 1-2.4 1s-1.8-.4-2.4-1L36.1 52.4c-.7-.7-1-1.5-1-2.4s.4-1.8 1-2.4l11.5-11.5c.6-.7 1.5-1.1 2.4-1.1m0-2c-1.5 0-2.8.6-3.8 1.6L34.6 46.2c-1 1-1.6 2.4-1.6 3.8s.6 2.8 1.6 3.8l11.5 11.5c1 1 2.4 1.6 3.8 1.6s2.8-.6 3.8-1.6l11.5-11.5c1-1 1.6-2.4 1.6-3.8s-.6-2.8-1.6-3.8L53.8 34.6c-1-1-2.3-1.6-3.8-1.6z"/><linearGradient id="a" gradientUnits="userSpaceOnUse" x1="50" y1="61.192" x2="50" y2="38.808"><stop offset="0" stop-color="#4d4d4d"/><stop offset="1" stop-color="#666"/></linearGradient><path class="inner" fill="url(#a)" d="M60.6 51.4l-9.2 9.2c-.8.8-2 .8-2.8 0l-9.2-9.2c-.8-.8-.8-2 0-2.8l9.2-9.2c.8-.8 2-.8 2.8 0l9.2 9.2c.8.8.8 2 0 2.8z"/><path class="hightlight" opacity=".35" fill="#FFF" d="M39.4 49.6l9.2-9.2c.8-.8 2-.8 2.8 0l9.2 9.2c.3.3.4.6.5.9.2-.7 0-1.4-.5-1.9l-9.2-9.2c-.8-.8-2-.8-2.8 0l-9.2 9.2c-.5.5-.7 1.3-.5 1.9.1-.3.2-.7.5-.9z"/><g class="text"><text class="text" text-anchor="middle" transform="translate(50 54)" fill="#fff" font-family="'Gotham-Black', 'Open Sans'" font-size="10" font-weight="700">CO</text></g></g></svg>