<svg xmlns="http://www.w3.org/2000/svg" width="48" height="48" viewBox="0 0 100 100"><title>carbon-monoxide-base</title><g class="symbol sensors base"><path class="bound" fill="none" d="M0 0h100v100H0z"/><path class="outer" fill="#282828" d="M50 73.9c-1.5 0-2.9-.6-3.9-1.6L27.7 53.9c-1-1-1.6-2.4-1.6-3.9s.6-2.9 1.6-3.9l18.4-18.4c1-1 2.4-1.6 3.9-1.6s2.9.6 3.9 1.6l18.4 18.4c1 1 1.6 2.4 1.6 3.9s-.6 2.9-1.6 3.9L53.9 72.3c-1 1-2.4 1.6-3.9 1.6z"/><path class="edging" opacity=".65" fill="#FFF" d="M50 26.1c1.5 0 2.9.6 3.9 1.6l18.4 18.4c1 1 1.6 2.4 1.6 3.9s-.6 2.9-1.6 3.9L53.9 72.3c-1 1-2.4 1.6-3.9 1.6s-2.9-.6-3.9-1.6L27.7 53.9c-1-1-1.6-2.4-1.6-3.9s.6-2.9 1.6-3.9l18.4-18.4c1-1 2.4-1.6 3.9-1.6m0-2c-2 0-3.9.8-5.3 2.2L26.3 44.7c-1.4 1.4-2.2 3.3-2.2 5.3s.8 3.9 2.2 5.3l18.4 18.4c1.4 1.4 3.3 2.2 5.3 2.2s3.9-.8 5.3-2.2l18.4-18.4c1.4-1.4 2.2-3.3 2.2-5.3s-.8-3.9-2.2-5.3L55.3 26.3c-1.4-1.4-3.3-2.2-5.3-2.2z"/><linearGradient id="a" gradientUnits="userSpaceOnUse" x1="50" y1="70.861" x2="50" y2="29.115"><stop offset="0" stop-color="#4d4d4d"/><stop offset="1" stop-color="#666"/></linearGradient><path class="inner" fill="url(#a)" d="M50 29.1c-.7 0-1.3.3-1.8.7L29.8 48.2c-1 1-1 2.6 0 3.5l18.4 18.4c.9.9 2.6.9 3.5 0l18.4-18.4c1-1 1-2.6 0-3.5L51.8 29.8c-.5-.4-1.1-.7-1.8-.7z"/><path class="highlight" opacity=".35" fill="#FFF" d="M29.8 49.2l18.4-18.4c.5-.5 1.1-.7 1.8-.7s1.3.3 1.8.7l18.4 18.4c.4.4.6.8.7 1.3.2-.8-.1-1.7-.7-2.3L51.8 29.8c-.5-.5-1.1-.7-1.8-.7s-1.3.3-1.8.7L29.8 48.2c-.6.6-.8 1.5-.7 2.3.2-.5.4-.9.7-1.3z"/><g class="text"><text class="text" text-anchor="middle" transform="translate(50 55)" fill="#fff" font-family="'Gotham-Black', 'Open Sans'" font-size="12" font-weight="700">CO</text></g></g></svg>