<svg xmlns="http://www.w3.org/2000/svg" width="48" height="48" viewBox="0 0 100 100">
  <title>chiller-pump</title>
<g id="chiller-pump" class="symbol load">
			<g id="bound">
				<rect class="" x="0" y="0" width="100" height="100" opacity="0"/>
			</g>

			<path class="outer" fill="#282828" d="M72.5,50.4c0-12.1-9.9-22-22-22c-1.3,0-2.5,0.1-3.7,0.3l11.9-11.9c0.8-0.8,0.8-2,0-2.8
				c-0.8-0.8-2-0.8-2.8,0L35.8,34.1c-4.4,4-7.2,9.8-7.2,16.3c0,0,0,0,0,0.1c0,0,0,0,0,0c0,12.1,9.9,22,22,22c1.3,0,2.5-0.1,3.7-0.3
				L42.3,84.1c-0.8,0.8-0.8,2,0,2.8c0.8,0.8,2,0.8,2.8,0l20.1-20.1C69.7,62.8,72.5,57,72.5,50.4C72.5,50.5,72.5,50.5,72.5,50.4
				C72.5,50.4,72.5,50.4,72.5,50.4z"/>

			<path class="edging" fill="#FFFFFF" opacity="0.65" d="M57.3,13.4c0.5,0,1,0.2,1.4,0.6c0.8,0.8,0.8,2,0,2.8L46.8,28.8c1.2-0.2,2.4-0.3,3.7-0.3
				c12.1,0,22,9.9,22,22c0,0,0,0,0,0c0,0,0,0,0,0.1c0,6.5-2.8,12.3-7.2,16.3L45.1,86.9c-0.4,0.4-0.9,0.6-1.4,0.6s-1-0.2-1.4-0.6
				c-0.8-0.8-0.8-2,0-2.8l11.9-11.9c-1.2,0.2-2.4,0.3-3.7,0.3c-12.1,0-22-9.9-22-22c0,0,0,0,0,0c0,0,0,0,0-0.1
				c0-6.5,2.8-12.3,7.2-16.3L55.9,14C56.3,13.6,56.8,13.4,57.3,13.4 M57.3,11.4c-1.1,0-2.1,0.4-2.8,1.2L34.4,32.7
				c-5,4.5-7.9,11-7.9,17.7v0l0,0l0,0c0,12.7,10,23.2,22.6,23.9l-8.2,8.2c-0.8,0.8-1.2,1.8-1.2,2.8c0,1.1,0.4,2.1,1.2,2.8
				c0.8,0.8,1.8,1.2,2.8,1.2c1.1,0,2.1-0.4,2.8-1.2l20.1-20.1c5-4.5,7.9-11,7.9-17.7v0l0,0l0,0c0-12.7-10-23.2-22.6-23.9l8.2-8.2
				c0.8-0.8,1.2-1.8,1.2-2.8s-0.4-2.1-1.2-2.8C59.4,11.9,58.4,11.4,57.3,11.4L57.3,11.4z"/>


			<linearGradient id="chiller-gradient" gradientUnits="userSpaceOnUse" x1="50.5" y1="32.5" x2="50.5" y2="68.5">
				<stop  offset="0" style="stop-color:#007ABA"/>
				<stop  offset="1" style="stop-color:#0360A7"/>
			</linearGradient>
			<circle class="inner" fill="url(#chiller-gradient)" cx="50.5" cy="50.5" r="18"/>
			<path class="highlight" opacity="0.35" fill="#FFFFFF" d="M32.6,51.5c0-8.1,5.3-14.9,12.7-17.2c1.7-0.5,3.4-0.8,5.3-0.8
				c1.8,0,3.5,0.3,5.1,0.8c7.3,2.1,12.6,8.7,12.9,16.6c0-0.1,0-0.3,0-0.4c0-9.9-8.1-18-18-18c-9.9,0-18,8.1-18,18c0,0.7,0,1.3,0.1,2
				C32.6,52.2,32.6,51.8,32.6,51.5z"/>


			<g class="icon">
				<path class="content-shadow" fill-rule="evenodd" clip-rule="evenodd" fill="#282828" d="M45.3,51.5c0,0.5,0.1,1.1,0.2,1.6l-2.2,1.3
					l-4-1.1c-0.7-0.2-1.5,0.2-1.6,0.9c-0.2,0.7,0.2,1.4,1,1.6l3.2,0.9L41,59.9c-0.2,0.7,0.2,1.4,0.9,1.6c0.7,0.2,1.5-0.2,1.6-0.9
					l1.1-3.9l2.3-1.3c0.6,0.6,1.3,1,2.2,1.2v3L46.3,62c-0.5,0.5-0.5,1.4,0,2c0.5,0.5,1.4,0.5,1.9,0l2.3-2.4l2.3,2.4
					c0.5,0.5,1.4,0.5,1.9,0c0.5-0.5,0.5-1.4,0-2l-2.9-2.4v-3c0.8-0.2,1.5-0.6,2.2-1.2l2.3,1.3l1.1,3.9c0.2,0.7,0.9,1.1,1.6,0.9
					c0.7-0.2,1.1-0.9,0.9-1.6l-0.9-3.2l3.2-0.9c0.7-0.2,1.1-0.9,1-1.6c-0.2-0.7-0.9-1.1-1.6-0.9l-4,1.1l-2.2-1.3
					c0.2-0.5,0.2-1,0.2-1.6c0-0.5-0.1-1.1-0.2-1.6l2.2-1.3l4,1.1c0.7,0.2,1.5-0.2,1.6-0.9c0.2-0.7-0.2-1.4-1-1.6l-3.2-0.9l0.9-3.2
					c0.2-0.7-0.2-1.4-0.9-1.6c-0.7-0.2-1.5,0.2-1.6,0.9l-1.1,3.9L54,47.7c-0.6-0.6-1.3-1-2.2-1.2V44l2.9-3c0.5-0.5,0.5-1.4,0-2
					c-0.5-0.5-1.4-0.5-1.9,0l-2.3,2.4l-2.3-2.4c-0.5-0.5-1.4-0.5-1.9,0c-0.5,0.5-0.5,1.4,0,2l2.9,3v2.5c-0.8,0.2-1.5,0.6-2.2,1.2
					l-2.3-1.3l-1.1-3.9c-0.2-0.7-0.9-1.1-1.6-0.9c-0.7,0.2-1.1,0.9-0.9,1.6l0.9,3.2l-3.2,0.9c-0.7,0.2-1.1,0.9-1,1.6
					c0.2,0.7,0.9,1.1,1.6,0.9l4-1.1l2.2,1.3C45.4,50.4,45.3,51,45.3,51.5z M50.5,54c-1.4,0-2.5-1.1-2.5-2.5c0-1.4,1.1-2.5,2.5-2.5
					c1.4,0,2.5,1.1,2.5,2.5C53,52.9,51.9,54,50.5,54z"/>

				<path class="content" fill-rule="evenodd" clip-rule="evenodd" fill="#FFFFFF" d="M45.3,50.5c0,0.5,0.1,1.1,0.2,1.6l-2.2,1.3l-4-1.1
					c-0.7-0.2-1.5,0.2-1.6,0.9c-0.2,0.7,0.2,1.4,1,1.6l3.2,0.9L41,58.9c-0.2,0.7,0.2,1.4,0.9,1.6c0.7,0.2,1.5-0.2,1.6-0.9l1.1-3.9
					l2.3-1.3c0.6,0.6,1.3,1,2.2,1.2v3L46.3,61c-0.5,0.5-0.5,1.4,0,2c0.5,0.5,1.4,0.5,1.9,0l2.3-2.4l2.3,2.4c0.5,0.5,1.4,0.5,1.9,0
					c0.5-0.5,0.5-1.4,0-2l-2.9-2.4v-3c0.8-0.2,1.5-0.6,2.2-1.2l2.3,1.3l1.1,3.9c0.2,0.7,0.9,1.1,1.6,0.9c0.7-0.2,1.1-0.9,0.9-1.6
					l-0.9-3.2l3.2-0.9c0.7-0.2,1.1-0.9,1-1.6c-0.2-0.7-0.9-1.1-1.6-0.9l-4,1.1l-2.2-1.3c0.2-0.5,0.2-1,0.2-1.6c0-0.5-0.1-1.1-0.2-1.6
					l2.2-1.3l4,1.1c0.7,0.2,1.5-0.2,1.6-0.9c0.2-0.7-0.2-1.4-1-1.6l-3.2-0.9l0.9-3.2c0.2-0.7-0.2-1.4-0.9-1.6
					c-0.7-0.2-1.5,0.2-1.6,0.9l-1.1,3.9L54,46.7c-0.6-0.6-1.3-1-2.2-1.2V43l2.9-3c0.5-0.5,0.5-1.4,0-2c-0.5-0.5-1.4-0.5-1.9,0
					l-2.3,2.4l-2.3-2.4c-0.5-0.5-1.4-0.5-1.9,0c-0.5,0.5-0.5,1.4,0,2l2.9,3v2.5c-0.8,0.2-1.5,0.6-2.2,1.2l-2.3-1.3l-1.1-3.9
					c-0.2-0.7-0.9-1.1-1.6-0.9c-0.7,0.2-1.1,0.9-0.9,1.6l0.9,3.2l-3.2,0.9c-0.7,0.2-1.1,0.9-1,1.6c0.2,0.7,0.9,1.1,1.6,0.9l4-1.1
					l2.2,1.3C45.4,49.4,45.3,50,45.3,50.5z M50.5,53c-1.4,0-2.5-1.1-2.5-2.5c0-1.4,1.1-2.5,2.5-2.5c1.4,0,2.5,1.1,2.5,2.5
					C53,51.9,51.9,53,50.5,53z"/>
			</g>
		</g>
		</svg>

		