<svg xmlns="http://www.w3.org/2000/svg" width="48" height="48" viewBox="0 0 100 100"><title>circle</title><g class="symbol"><linearGradient id="a" gradientUnits="userSpaceOnUse" x1="50.5" y1="32.5" x2="50.5" y2="68.5"><stop offset="0" stop-color="#666"/><stop offset="1" stop-color="#4d4d4d"/></linearGradient><path class="outer" fill="#282828" d="M50.5 72.5c-12.1 0-22-9.9-22-22s9.9-22 22-22 22 9.9 22 22-9.9 22-22 22z"/><path class="edging" fill="#FFF" d="M50.5 28.5c12.1 0 22 9.9 22 22s-9.9 22-22 22-22-9.9-22-22 9.9-22 22-22m0-2c-13.2 0-24 10.8-24 24s10.8 24 24 24 24-10.8 24-24-10.8-24-24-24z"/><circle class="inner" fill="url(#a)" cx="50.5" cy="50.5" r="18"/><path class="highlight" opacity=".35" fill="#FFF" d="M32.6 51.5c0-8.1 5.3-14.9 12.7-17.2 1.7-.5 3.4-.8 5.3-.8 1.8 0 3.5.3 5.1.8C63 36.4 68.3 43 68.6 50.9v-.4c0-9.9-8.1-18-18-18s-18 8.1-18 18c0 .7 0 1.3.1 2-.1-.3-.1-.7-.1-1z"/></g></svg>