<svg xmlns="http://www.w3.org/2000/svg" width="48" height="48" viewBox="0 0 100 100">
  <title>compartment-light</title>

		<g id="compartment-light" class="symbol">
			<rect fill="none" width="100" height="100"/>


			<path class="outer" fill="#282828" d="M73,22H27c-2.8,0-5,2.2-5,5v46c0,2.8,2.2,5,5,5h46c2.8,0,5-2.2,5-5V27C78,24.2,75.8,22,73,22L73,22z"/>

			<path class="edging" fill="#ffffff" opacity="0.65" d="M73,22c2.8,0,5,2.2,5,5v46c0,2.8-2.2,5-5,5H27c-2.8,0-5-2.2-5-5V27c0-2.8,2.2-5,5-5H73 M73,20H27
						c-3.9,0-7,3.1-7,7v46c0,3.9,3.1,7,7,7h46c3.9,0,7-3.1,7-7V27C80,23.1,76.9,20,73,20L73,20z"/>


			<linearGradient id="compartment-light-gradient" gradientUnits="userSpaceOnUse" x1="50" y1="25" x2="50" y2="75">
				<stop  offset="9.455750e-03" style="stop-color:#E6E6E6"/>
				<stop  offset="1" style="stop-color:#CCCCCC"/>
			</linearGradient>
			<path class="inner" fill="url(#compartment-light-gradient)" d="M27,75h46c1.1,0,2-0.9,2-2V27c0-1.1-0.9-2-2-2H27c-1.1,0-2,0.9-2,2v46C25,74.1,25.9,75,27,75z"/>

			<path class="st4" fill="#282828" opacity="0.2" d="M55,75h18c1.1,0,2-0.9,2-2V62H55V75z"/>


			<g class="text">
				<text class="text" transform="matrix(1 0 0 1 59.7642 72.2676)" opacity=".8" fill="#ffffff" font-family="'Gotham-Black', 'Open Sans', 'OpenSans-bold" font-size="10px"></text>
			</g>


			<path class="highlight" fill="#ffffff" opacity="0.35" d="M73,25H27c-1.1,0-2,0.9-2,2v1c0-1.1,0.9-2,2-2h46c1.1,0,2,0.9,2,2v-1C75,25.9,74.1,25,73,25z"/>
		</g>
		</svg>