<svg xmlns="http://www.w3.org/2000/svg" width="48" height="48" viewBox="0 0 100 100"><title>compartment-light</title><g class="symbol"><path fill="none" d="M0 0h100v100H0z"/><path class="outer" fill="#282828" d="M73 22H27c-2.8 0-5 2.2-5 5v46c0 2.8 2.2 5 5 5h46c2.8 0 5-2.2 5-5V27c0-2.8-2.2-5-5-5z"/><path class="edging" fill="#fff" opacity=".65" d="M73 22c2.8 0 5 2.2 5 5v46c0 2.8-2.2 5-5 5H27c-2.8 0-5-2.2-5-5V27c0-2.8 2.2-5 5-5h46m0-2H27c-3.9 0-7 3.1-7 7v46c0 3.9 3.1 7 7 7h46c3.9 0 7-3.1 7-7V27c0-3.9-3.1-7-7-7z"/><linearGradient id="a" gradientUnits="userSpaceOnUse" x1="50" y1="25" x2="50" y2="75"><stop offset=".009" stop-color="#e6e6e6"/><stop offset="1" stop-color="#ccc"/></linearGradient><path class="inner" fill="url(#a)" d="M27 75h46c1.1 0 2-.9 2-2V27c0-1.1-.9-2-2-2H27c-1.1 0-2 .9-2 2v46c0 1.1.9 2 2 2z"/><path class="st4" fill="#282828" opacity=".2" d="M55 75h18c1.1 0 2-.9 2-2V62H55v13z"/><path class="highlight" fill="#fff" opacity=".35" d="M73 25H27c-1.1 0-2 .9-2 2v1c0-1.1.9-2 2-2h46c1.1 0 2 .9 2 2v-1c0-1.1-.9-2-2-2z"/></g></svg>