
<svg xmlns="http://www.w3.org/2000/svg" width="48" height="48" viewBox="0 0 100 100">
  <title>contactor</title>
  <g id="contactor" class="symbol">
			<g id="bound">
				<rect class="" x="0" y="0" width="100" height="100" opacity="0"/>
			</g>

			<g class="open">
				<path class="outer" fill="#282828" d="M27,45.5h46c1.1,0,2-0.9,2-2s-0.9-2-2-2H52V33c0-1.1-0.9-2-2-2s-2,0.9-2,2v8.5H27c-1.1,0-2,0.9-2,2
					S25.9,45.5,27,45.5z"/>
				<path class="edging" opacity="0.65" fill="#FFFFFF" d="M50,31c1.1,0,2,0.9,2,2v8.5h21c1.1,0,2,0.9,2,2s-0.9,2-2,2H27c-1.1,0-2-0.9-2-2s0.9-2,2-2h21V33
					C48,31.9,48.9,31,50,31 M50,29c-2.2,0-4,1.8-4,4v6.5H27c-2.2,0-4,1.8-4,4s1.8,4,4,4h46c2.2,0,4-1.8,4-4s-1.8-4-4-4H54V33
					C54,30.8,52.2,29,50,29L50,29z"/>

				<path class="outer" fill="#282828" d="M73,54.5H27c-1.1,0-2,0.9-2,2s0.9,2,2,2h21V67c0,1.1,0.9,2,2,2s2-0.9,2-2v-8.5h21c1.1,0,2-0.9,2-2
					S74.1,54.5,73,54.5z"/>
				<path class="edging" opacity="0.65" fill="#FFFFFF" d="M73,54.5c1.1,0,2,0.9,2,2s-0.9,2-2,2H52V67c0,1.1-0.9,2-2,2s-2-0.9-2-2v-8.5H27c-1.1,0-2-0.9-2-2s0.9-2,2-2
					H73 M73,52.5H27c-2.2,0-4,1.8-4,4s1.8,4,4,4h19V67c0,2.2,1.8,4,4,4c2.2,0,4-1.8,4-4v-6.5h19c2.2,0,4-1.8,4-4S75.2,52.5,73,52.5
					L73,52.5z"/>
			</g>


			<g class="closed">
				<path class="outer" fill="#282828" d="M75,56.5c0-1.1-0.9-2-2-2H59.6l-10.8-7.9l-1.5-1.1H73c1.1,0,2-0.9,2-2s-0.9-2-2-2H52V33c0-1.1-0.9-2-2-2
					s-2,0.9-2,2v8.5h-6.3l-13.2-9.6c-0.9-0.7-2.1-0.5-2.8,0.4s-0.5,2.1,0.4,2.8l8.7,6.4H27c-1.1,0-2,0.9-2,2s0.9,2,2,2h13.4l12.3,9H27
					c-1.1,0-2,0.9-2,2s0.9,2,2,2h21V67c0,1.1,0.9,2,2,2s2-0.9,2-2v-8.5h6.3l13.2,9.6c0.9,0.7,2.1,0.5,2.8-0.4s0.5-2.1-0.4-2.8l-8.7-6.4
					H73C74.1,58.5,75,57.6,75,56.5z"/>
				<path class="edging" opacity="0.65" fill="#FFFFFF" d="M50,31c1.1,0,2,0.9,2,2v8.5h21c1.1,0,2,0.9,2,2s-0.9,2-2,2H47.2l1.5,1.1l10.8,7.9H73c1.1,0,2,0.9,2,2
					s-0.9,2-2,2h-7.9l8.7,6.4c0.9,0.7,1.1,1.9,0.4,2.8c-0.4,0.5-1,0.8-1.6,0.8c-0.4,0-0.8-0.1-1.2-0.4l-13.2-9.6H52V67
					c0,1.1-0.9,2-2,2s-2-0.9-2-2v-8.5H27c-1.1,0-2-0.9-2-2s0.9-2,2-2h25.8l-12.3-9H27c-1.1,0-2-0.9-2-2s0.9-2,2-2h7.9l-8.7-6.4
					c-0.9-0.7-1.1-1.9-0.4-2.8c0.4-0.5,1-0.8,1.6-0.8c0.4,0,0.8,0.1,1.2,0.4l13.2,9.6H48V33C48,31.9,48.9,31,50,31 M50,29
					c-2.2,0-4,1.8-4,4v6.5h-3.6l-12.7-9.2c-0.7-0.5-1.5-0.8-2.4-0.8c-1.3,0-2.5,0.6-3.2,1.6c-0.6,0.9-0.9,1.9-0.7,3
					c0.2,1.1,0.7,2,1.6,2.6l3.8,2.8H27c-2.2,0-4,1.8-4,4s1.8,4,4,4h12.8l6.9,5H27c-2.2,0-4,1.8-4,4s1.8,4,4,4h19V67c0,2.2,1.8,4,4,4
					s4-1.8,4-4v-6.5h3.6l12.7,9.2c0.7,0.5,1.5,0.8,2.4,0.8c1.3,0,2.5-0.6,3.2-1.6c0.6-0.9,0.9-1.9,0.7-3c-0.2-1.1-0.7-2-1.6-2.6
					l-3.8-2.8H73c2.2,0,4-1.8,4-4s-1.8-4-4-4H60.2l-6.9-5H73c2.2,0,4-1.8,4-4s-1.8-4-4-4H54V33C54,30.8,52.2,29,50,29L50,29z"/>
			</g>
		</g>
		</svg>