<svg xmlns="http://www.w3.org/2000/svg" width="48" height="48" viewBox="0 0 100 100"><title>contactor</title><g class="symbol"><g class="open"><path class="outer" fill="#282828" d="M27 45.5h46c1.1 0 2-.9 2-2s-.9-2-2-2H52V33c0-1.1-.9-2-2-2s-2 .9-2 2v8.5H27c-1.1 0-2 .9-2 2s.9 2 2 2z"/><path class="edging" opacity=".65" fill="#FFF" d="M50 31c1.1 0 2 .9 2 2v8.5h21c1.1 0 2 .9 2 2s-.9 2-2 2H27c-1.1 0-2-.9-2-2s.9-2 2-2h21V33c0-1.1.9-2 2-2m0-2c-2.2 0-4 1.8-4 4v6.5H27c-2.2 0-4 1.8-4 4s1.8 4 4 4h46c2.2 0 4-1.8 4-4s-1.8-4-4-4H54V33c0-2.2-1.8-4-4-4z"/><path class="outer" fill="#282828" d="M73 54.5H27c-1.1 0-2 .9-2 2s.9 2 2 2h21V67c0 1.1.9 2 2 2s2-.9 2-2v-8.5h21c1.1 0 2-.9 2-2s-.9-2-2-2z"/><path class="edging" opacity=".65" fill="#FFF" d="M73 54.5c1.1 0 2 .9 2 2s-.9 2-2 2H52V67c0 1.1-.9 2-2 2s-2-.9-2-2v-8.5H27c-1.1 0-2-.9-2-2s.9-2 2-2h46m0-2H27c-2.2 0-4 1.8-4 4s1.8 4 4 4h19V67c0 2.2 1.8 4 4 4s4-1.8 4-4v-6.5h19c2.2 0 4-1.8 4-4s-1.8-4-4-4z"/></g><g class="closed"><path class="outer" fill="#282828" d="M75 56.5c0-1.1-.9-2-2-2H59.6l-10.8-7.9-1.5-1.1H73c1.1 0 2-.9 2-2s-.9-2-2-2H52V33c0-1.1-.9-2-2-2s-2 .9-2 2v8.5h-6.3l-13.2-9.6c-.9-.7-2.1-.5-2.8.4s-.5 2.1.4 2.8l8.7 6.4H27c-1.1 0-2 .9-2 2s.9 2 2 2h13.4l12.3 9H27c-1.1 0-2 .9-2 2s.9 2 2 2h21V67c0 1.1.9 2 2 2s2-.9 2-2v-8.5h6.3l13.2 9.6c.9.7 2.1.5 2.8-.4s.5-2.1-.4-2.8l-8.7-6.4H73c1.1 0 2-.9 2-2z"/><path class="edging" opacity=".65" fill="#FFF" d="M50 31c1.1 0 2 .9 2 2v8.5h21c1.1 0 2 .9 2 2s-.9 2-2 2H47.2l1.5 1.1 10.8 7.9H73c1.1 0 2 .9 2 2s-.9 2-2 2h-7.9l8.7 6.4c.9.7 1.1 1.9.4 2.8-.4.5-1 .8-1.6.8-.4 0-.8-.1-1.2-.4l-13.2-9.6H52V67c0 1.1-.9 2-2 2s-2-.9-2-2v-8.5H27c-1.1 0-2-.9-2-2s.9-2 2-2h25.8l-12.3-9H27c-1.1 0-2-.9-2-2s.9-2 2-2h7.9l-8.7-6.4c-.9-.7-1.1-1.9-.4-2.8.4-.5 1-.8 1.6-.8.4 0 .8.1 1.2.4l13.2 9.6H48V33c0-1.1.9-2 2-2m0-2c-2.2 0-4 1.8-4 4v6.5h-3.6l-12.7-9.2c-.7-.5-1.5-.8-2.4-.8-1.3 0-2.5.6-3.2 1.6-.6.9-.9 1.9-.7 3 .2 1.1.7 2 1.6 2.6l3.8 2.8H27c-2.2 0-4 1.8-4 4s1.8 4 4 4h12.8l6.9 5H27c-2.2 0-4 1.8-4 4s1.8 4 4 4h19V67c0 2.2 1.8 4 4 4s4-1.8 4-4v-6.5h3.6l12.7 9.2c.7.5 1.5.8 2.4.8 1.3 0 2.5-.6 3.2-1.6.6-.9.9-1.9.7-3-.2-1.1-.7-2-1.6-2.6l-3.8-2.8H73c2.2 0 4-1.8 4-4s-1.8-4-4-4H60.2l-6.9-5H73c2.2 0 4-1.8 4-4s-1.8-4-4-4H54V33c0-2.2-1.8-4-4-4z"/></g></g></svg>