<svg xmlns="http://www.w3.org/2000/svg" width="48" height="48" viewBox="0 0 100 100"><title>conveyor</title><g class="symbol load"><path fill="none" d="M0 0h100v100H0z"/><path class="outer" d="M66 36.5H34a13.5 13.5 0 0 0 0 27h32a13.5 13.5 0 0 0 0-27z" fill="#282828"/><path class="edging" opacity=".65" d="M66 36.5a13.5 13.5 0 0 1 0 27H34a13.5 13.5 0 0 1 0-27h32m0-2H34a15.5 15.5 0 0 0 0 31h32a15.5 15.5 0 0 0 0-31z" fill="#fff"/><path d="M66 39.5H34a10.5 10.5 0 0 0 0 21h32a10.5 10.5 0 0 0 0-21zm0 18H34a7.5 7.5 0 0 1 0-15h32a7.5 7.5 0 0 1 0 15z" fill="#ccc"/><linearGradient id="a" x1="50" y1="55" x2="50" y2="45" gradientUnits="userSpaceOnUse"><stop offset="0" stop-color="#ccc"/><stop offset="1" stop-color="#e6e6e6"/></linearGradient><circle cx="50" cy="50" r="5" fill="url(#a)"/><circle cx="34" cy="50" r="5" fill="url(#a)"/><circle cx="66" cy="50" r="5" fill="url(#a)"/><path opacity=".3" d="M66 60.5h-4v-3h4.44l.18 3zm-8 0h-4v-3h4zm-8 0h-4v-3h4zm-8 0h-4v-3h4zm-8 0a10.39 10.39 0 0 1-4.52-1l1.3-2.7a7.47 7.47 0 0 0 3.22.7zm37.07-1.31l-1.46-2.62a7.61 7.61 0 0 0 2.48-2.21l2.43 1.76a10.58 10.58 0 0 1-3.45 3.07zm-45.21-2.58a10.54 10.54 0 0 1-2.07-4.15l2.92-.7a7.63 7.63 0 0 0 1.47 3zm50.47-4.75l-3-.53A7.48 7.48 0 0 0 73.5 50a7.26 7.26 0 0 0-.27-2l2.9-.8a10.75 10.75 0 0 1 .37 2.8 10.64 10.64 0 0 1-.17 1.86zm-49.67-3.4l-2.94-.62a10.58 10.58 0 0 1 1.94-4.21L28 45.46a7.61 7.61 0 0 0-1.34 3zm45-3.35a7.7 7.7 0 0 0-2.66-2l1.21-2.74A10.5 10.5 0 0 1 74 43.15zm-41.1-1.78l-1.37-2.67a10.42 10.42 0 0 1 4.48-1.16l.09 3a7.46 7.46 0 0 0-3.18.83zm35.15-.83h-4v-3h4zm-8 0h-4v-3h4zm-8 0h-4v-3h4zm-8 0h-4v-3h4z" fill="#333" class="animate"/></g></svg>