<svg xmlns="http://www.w3.org/2000/svg" width="48" height="48" viewBox="0 0 100 100">
  <title>conveyor</title>
		<g id="conveyor" class="symbol load">
			<rect id="bounding" width="100" height="100" fill="none"/>

			<path class="outer" d="M66,36.5H34a13.5,13.5,0,0,0,0,27H66a13.5,13.5,0,0,0,0-27Z" fill="#282828"/>

			<path class="edging" opacity="0.65" d="M66,36.5a13.5,13.5,0,0,1,0,27H34a13.5,13.5,0,0,1,0-27H66m0-2H34a15.5,15.5,0,0,0,0,31H66a15.5,15.5,0,0,0,0-31Z" fill="#fff"/>

			<path d="M66,39.5H34a10.5,10.5,0,0,0,0,21H66a10.5,10.5,0,0,0,0-21Zm0,18H34a7.5,7.5,0,0,1,0-15H66a7.5,7.5,0,0,1,0,15Z" fill="#ccc"/>

			<linearGradient id="conveyor-gradient" x1="50" y1="55" x2="50" y2="45" gradientUnits="userSpaceOnUse">
				<stop offset="0" stop-color="#ccc"/>
				<stop offset="1" stop-color="#e6e6e6"/>
			</linearGradient>

			<circle cx="50" cy="50" r="5" fill="url(#conveyor-gradient)"/>
			<circle cx="34" cy="50" r="5" fill="url(#conveyor-gradient)"/>
			<circle cx="66" cy="50" r="5" fill="url(#conveyor-gradient)"/>

			<g class="animate">

				<path id="conveyor-belt" opacity="0.3" d="M66,60.5H62v-3h4.44l.18,3Zm-8,0H54v-3h4Zm-8,0H46v-3h4Zm-8,0H38v-3h4Zm-8,0a10.39,10.39,0,0,1-4.52-1l1.3-2.7A7.47,7.47,0,0,0,34,57.5Zm37.07-1.31-1.46-2.62a7.61,7.61,0,0,0,2.48-2.21l2.43,1.76A10.58,10.58,0,0,1,71.07,59.19ZM25.86,56.61a10.54,10.54,0,0,1-2.07-4.15l2.92-.7a7.63,7.63,0,0,0,1.47,3Zm50.47-4.75-3-.53A7.48,7.48,0,0,0,73.5,50a7.26,7.26,0,0,0-.27-2l2.9-.8A10.75,10.75,0,0,1,76.5,50,10.64,10.64,0,0,1,76.33,51.86Zm-49.67-3.4-2.94-.62a10.58,10.58,0,0,1,1.94-4.21L28,45.46A7.61,7.61,0,0,0,26.66,48.46Zm45-3.35a7.7,7.7,0,0,0-2.66-2l1.21-2.74A10.5,10.5,0,0,1,74,43.15Zm-41.1-1.78-1.37-2.67a10.42,10.42,0,0,1,4.48-1.16l.09,3A7.46,7.46,0,0,0,30.58,43.33Zm35.15-.83h-4v-3h4Zm-8,0h-4v-3h4Zm-8,0h-4v-3h4Zm-8,0h-4v-3h4Z" fill="#333"/>	

				<g id="conveyor-belt-alt" opacity="0">
					<rect x="49.7" y="39.5" fill="#333" width="4" height="3"/>
					<rect x="41.7" y="39.5" fill="#333" width="4" height="3"/>
					<path fill="#333" d="M34,42.5h3.7v-3H34c-0.1,0-0.2,0-0.3,0l0.1,3c-0.1,0-0.2,0-0.3,0C33.7,42.5,33.8,42.5,34,42.5z"/>
					<path fill="#333" d="M69.1,43.2C69,43.2,69,43.1,69.1,43.2l1.2-2.8c-1.3-0.6-2.7-0.9-4.2-0.9h-0.3v3H66
						C67.1,42.5,68.1,42.7,69.1,43.2z"/>
					<path fill="#333" d="M28,45.5c0.7-0.9,1.6-1.7,2.6-2.2c0,0,0,0,0,0l-1.4-2.7c-1.4,0.7-2.6,1.7-3.5,3L28,45.5
						C28,45.5,28,45.5,28,45.5z"/>
					<path fill="#333" d="M71.1,59.2c0.3-0.2,0.6-0.4,1-0.6C71.7,58.8,71.4,59,71.1,59.2L71.1,59.2z"/>
					<path fill="#333" d="M66,57.5c0.1,0,0.3,0,0.4,0l0.2,3c1.6-0.1,3.1-0.6,4.4-1.3l-1.4-2.6C68.5,57.2,67.3,57.5,66,57.5z"/>
					<path fill="#333" d="M73.2,48l2.9-0.8c-0.4-1.5-1.2-2.9-2.2-4.1l-2.3,2c0,0,0,0,0,0c0.7,0.9,1.3,1.9,1.6,3
						C73.2,48.1,73.2,48.1,73.2,48z"/>
					<path fill="#333" d="M73.4,51.3c0-0.1,0-0.2,0-0.3c-0.2,1.3-0.6,2.4-1.3,3.4c0,0,0,0,0,0l2.4,1.8c0.9-1.2,1.5-2.7,1.8-4.3
						L73.4,51.3z"/>
					<rect x="57.7" y="39.5" fill="#333" width="4" height="3"/>
					<rect x="34" y="57.5" fill="#333" width="4" height="3"/>
					<rect x="50" y="57.5" fill="#333" width="4" height="3"/>
					<rect x="42" y="57.5" fill="#333" width="4" height="3"/>
					<rect x="58" y="57.5" fill="#333" width="4" height="3"/>
					<path fill="#333" d="M26.8,51.9c-0.2-0.6-0.3-1.2-0.3-1.9c0-0.5,0.1-1.1,0.2-1.6c0,0,0,0,0,0.1l-2.9-0.6c-0.1,0.7-0.2,1.4-0.2,2.2
						c0,0.8,0.1,1.7,0.3,2.5l2.9-0.7C26.7,51.8,26.7,51.9,26.8,51.9z"/>
					<path fill="#333" d="M25.9,56.6L25.9,56.6c-0.2-0.3-0.5-0.6-0.7-0.9C25.4,56,25.6,56.3,25.9,56.6z"/>
					<path fill="#333" d="M28.2,54.7l-2.3,1.9c1,1.2,2.2,2.2,3.6,2.9l1.3-2.7c0,0,0,0,0.1,0C29.8,56.3,28.9,55.6,28.2,54.7z"/>
				</g>
			</g>
		</g>
		</svg>
