<svg xmlns="http://www.w3.org/2000/svg" width="48" height="48" viewBox="0 0 100 100"><title>current-transformer</title><g class="symbol simple"><path class="outer" fill="#282828" d="M52.3 30c1.4 0 2.4 1.5 1.8 2.8-.6 1.5-2.2 1.1-3.4 1.4-2.6.7-4.5 3-5 5.7-.4 2.7.7 5.6 3.1 7.1 1.2.8 2.4.9 3.8 1.1 1.5.2 2.2 1.9 1.3 3.2-.9 1.2-2.7.8-4 1.3-1.4.6-2.5 1.6-3.3 2.9-1.6 2.8-1.2 6.5 1.1 8.8 1.1 1 2.4 1.7 3.9 1.9 1.3.1 2.8.6 2.6 2.3-.5 3.5-6.2 1-7.8-.1-6.3-4.3-6.3-13.7-.3-18.2-4-2.9-5.5-8.3-3.8-12.9 1.6-4.3 5.6-7.3 10-7.3z"/><path class="edging" opacity=".65" fill="#FFF" d="M52.3 30c1.4 0 2.4 1.5 1.8 2.8-.6 1.5-2.2 1.1-3.4 1.4-2.6.7-4.5 3-5 5.7-.4 2.7.7 5.6 3.1 7.1 1.2.8 2.4.9 3.8 1.1 1.5.2 2.2 1.9 1.3 3.2-.9 1.2-2.7.8-4 1.3-1.4.6-2.5 1.6-3.3 2.9-1.6 2.8-1.2 6.5 1.1 8.8 1.1 1 2.4 1.7 3.9 1.9 1.3.1 2.8.6 2.6 2.3-.2 1.3-1.1 1.8-2.3 1.8-1.9 0-4.5-1.2-5.5-1.9-6.3-4.3-6.3-13.7-.3-18.2-4-2.9-5.5-8.3-3.8-12.9 1.6-4.3 5.6-7.3 10-7.3m0-2c-5.2 0-10 3.4-11.8 8.4-1.8 4.8-.6 10 2.7 13.6-2.3 2.5-3.5 5.8-3.5 9.3.1 4.3 2.1 8.1 5.6 10.5 1.3.9 4.2 2.2 6.6 2.2 2.4 0 4-1.3 4.3-3.5.2-1.4-.3-2.3-.7-2.9-.8-1-2-1.5-3.7-1.7-1-.1-2-.6-2.7-1.3-1.6-1.6-2-4.4-.8-6.4.5-.9 1.4-1.6 2.3-2 .2-.1.6-.1 1-.2 1.1-.1 2.8-.3 3.8-1.8.8-1.1 1-2.6.4-3.9-.5-1.3-1.7-2.2-3.1-2.4-.2 0-.4-.1-.7-.1-1.1-.2-1.7-.3-2.3-.7-1.6-1.1-2.5-3.1-2.2-5.1.3-2 1.7-3.6 3.5-4 .2-.1.5-.1.8-.1 1.1-.1 3.1-.3 4-2.5.5-1.2.4-2.6-.4-3.8-.5-.9-1.8-1.6-3.1-1.6z"/></g></svg>