
<svg xmlns="http://www.w3.org/2000/svg" width="48" height="48" viewBox="0 0 100 100">
  <title>current-transformer-with-bus</title>
  <g id="current-transformer-with-bus" class="symbol simple">
			<g id="bound">
				<rect class="" x="0" y="0" width="100" height="100" opacity="0"/>
			</g>

			<path class="outer" fill="#282828" d="M80,48H52.6c0,0,0,0,0,0c-1.4-0.2-2.5-0.3-3.8-1.1c-2.3-1.5-3.5-4.4-3.1-7.1c0.4-2.6,2.3-5,5-5.7
				c1.3-0.3,2.8,0,3.4-1.4c0.5-1.3-0.4-2.8-1.8-2.8c-4.4,0-8.4,3-9.9,7.1c-1.7,4.6-0.1,10,3.8,12.9c-6,4.5-6,13.9,0.3,18.2
				c1.6,1.1,7.3,3.6,7.8,0.1c0.2-1.7-1.2-2.2-2.6-2.3c-1.5-0.1-2.9-0.8-3.9-1.9c-2.3-2.3-2.7-6-1.1-8.8c0.7-1.3,1.9-2.3,3.3-2.9
				c0.7-0.3,1.5-0.3,2.3-0.4H80c1.1,0,2-0.9,2-2S81.1,48,80,48z"/>

			<path class="edging" opacity="0.65" fill="#FFFFFF" d="M52.3,30c1.4,0,2.4,1.5,1.8,2.8c-0.6,1.5-2.2,1.1-3.4,1.4c-2.6,0.7-4.5,3-5,5.7c-0.4,2.7,0.7,5.6,3.1,7.1
				c1.2,0.8,2.4,0.9,3.8,1.1c0,0,0,0,0,0H80c1.1,0,2,0.9,2,2s-0.9,2-2,2H52.3c-0.8,0.1-1.6,0.1-2.3,0.4c-1.4,0.6-2.5,1.6-3.3,2.9
				c-1.6,2.8-1.2,6.5,1.1,8.8c1.1,1,2.4,1.7,3.9,1.9c1.3,0.1,2.8,0.6,2.6,2.3c-0.2,1.3-1.1,1.8-2.3,1.8c-1.9,0-4.5-1.2-5.5-1.9
				c-6.3-4.3-6.3-13.7-0.3-18.2c-4-2.9-5.5-8.3-3.8-12.9C43.9,33,47.9,30,52.3,30 M52.3,28c-5.2,0-10,3.4-11.8,8.4
				c-1.8,4.8-0.6,10,2.7,13.6c-2.3,2.5-3.5,5.8-3.5,9.3c0.1,4.3,2.1,8.1,5.6,10.5c1.3,0.9,4.2,2.2,6.6,2.2c2.4,0,4-1.3,4.3-3.5
				c0.2-1.4-0.3-2.3-0.7-2.9c-0.8-1-2-1.5-3.7-1.7c-1-0.1-2-0.6-2.7-1.3c-1.6-1.6-2-4.4-0.8-6.4c0.5-0.9,1.4-1.6,2.3-2
				c0.2-0.1,0.6-0.1,1-0.2c0.2,0,0.5-0.1,0.7-0.1H80c2.2,0,4-1.8,4-4s-1.8-4-4-4H52.8c-0.2,0-0.4-0.1-0.6-0.1
				c-1.1-0.2-1.7-0.3-2.3-0.7c-1.6-1.1-2.5-3.1-2.2-5.1c0.3-2,1.7-3.6,3.5-4c0.2-0.1,0.5-0.1,0.8-0.1c1.1-0.1,3.1-0.3,4-2.5
				c0.5-1.2,0.4-2.6-0.4-3.8C54.9,28.7,53.6,28,52.3,28L52.3,28z"/>
		</g>

		</svg>