<svg xmlns="http://www.w3.org/2000/svg" width="48" height="48" viewBox="0 0 100 100">
  <title>datacenter</title>
		<g id="datacenter" class="symbol load">
			<rect id="bound" fill="none" width="100" height="100"/>

			<path class="outer" fill="#282828" d="M76,74c3.3,0,6-2.7,6-6V32c0-3.3-2.7-6-6-6H24c-3.3,0-6,2.7-6,6v36c0,3.3,2.7,6,6,6H76z"/>

			<path class="edging" opacity="0.65" fill="#FFFFFF" d="M76,26c3.3,0,6,2.7,6,6v36c0,3.3-2.7,6-6,6H24c-3.3,0-6-2.7-6-6V32c0-3.3,2.7-6,6-6H76 M76,24H24
					c-4.4,0-8,3.6-8,8v36c0,4.4,3.6,8,8,8h52c4.4,0,8-3.6,8-8V32C84,27.6,80.4,24,76,24L76,24z"/>



				<linearGradient id="datacenter-gradient-1_" gradientUnits="userSpaceOnUse" x1="50" y1="29" x2="50" y2="71">
					<stop  offset="0" style="stop-color:#666666"/>
					<stop  offset="1" style="stop-color:#4D4D4D"/>
				</linearGradient>
				<path fill="url(#datacenter-gradient-1_)" d="M58,71H42c-0.6,0-1-0.5-1-1V30c0-0.6,0.5-1,1-1h16c0.6,0,1,0.5,1,1v40C59,70.5,58.5,71,58,71z"/>
				<linearGradient id="datacenter-gradient-2_" gradientUnits="userSpaceOnUse" x1="30" y1="29" x2="30" y2="71">
					<stop  offset="0" style="stop-color:#666666"/>
					<stop  offset="1" style="stop-color:#4D4D4D"/>
				</linearGradient>
				<path fill="url(#datacenter-gradient-2_)" d="M38,71H24c-1.6,0-3-1.3-3-3V32c0-1.6,1.4-3,3-3h14c0.6,0,1,0.5,1,1v40C39,70.5,38.5,71,38,71z"/>
				<linearGradient id="datacenter-gradient-3_" gradientUnits="userSpaceOnUse" x1="70" y1="29" x2="70" y2="71">
					<stop  offset="0" style="stop-color:#666666"/>
					<stop  offset="1" style="stop-color:#4D4D4D"/>
				</linearGradient>
				<path fill="url(#datacenter-gradient-3_)" d="M76,71H62c-0.6,0-1-0.5-1-1V30c0-0.6,0.5-1,1-1h14c1.7,0,3,1.4,3,3v36C79,69.7,77.7,71,76,71z"/>

			<g opacity="0.4">
				<rect x="21" y="34.5" fill="#282828" width="58" height="1"/>
				<rect x="21" y="39.5" fill="#282828" width="58" height="1"/>
				<rect x="21" y="44.5" fill="#282828" width="58" height="1"/>
				<rect x="21" y="49.5" fill="#282828" width="58" height="1"/>
				<rect x="21" y="54.5" fill="#282828" width="58" height="1"/>
				<rect x="21" y="59.5" fill="#282828" width="58" height="1"/>
				<rect x="21" y="64.5" fill="#282828" width="58" height="1"/>
			</g>
			<g opacity="0.2">
				<polygon fill="#0071BC" points="21,37 21,38 21,39 30,39 30,38 30,37 		"/>
				<polygon fill="#0071BC" points="21,43 21,44 30,44 30,43 30,42 21,42 		"/>
				<polygon fill="#0071BC" points="21,48 21,49 30,49 30,48 30,47 21,47 		"/>
				<polygon fill="#0071BC" points="21,53 21,54 30,54 30,53 30,52 21,52 		"/>
				<polygon fill="#0071BC" points="21,58 21,59 30,59 30,58 30,57 21,57 		"/>
				<polygon fill="#0071BC" points="21,63 21,64 30,64 30,63 30,62 21,62 		"/>
				<polygon fill="#0071BC" points="21,68 21,69 30,69 30,68 30,67 21,67 		"/>
			</g>
			<g opacity="0.2">
				<polygon fill="#8CC63F" points="36,37 36,38 36,39 38,39 38,38 38,37 		"/>
				<polygon fill="#8CC63F" points="36,43 36,44 38,44 38,43 38,42 36,42 		"/>
				<polygon fill="#8CC63F" points="36,48 36,49 38,49 38,48 38,47 36,47 		"/>
				<polygon fill="#8CC63F" points="36,53 36,54 38,54 38,53 38,52 36,52 		"/>
				<polygon fill="#8CC63F" points="36,58 36,59 38,59 38,58 38,57 36,57 		"/>
				<polygon fill="#8CC63F" points="36,63 36,64 38,64 38,63 38,62 36,62 		"/>
				<polygon fill="#8CC63F" points="36,68 36,69 38,69 38,68 38,67 36,67 		"/>
			</g>
			<g opacity="0.2">
				<linearGradient id="datacenter-gradient-4" gradientUnits="userSpaceOnUse" x1="34" y1="38" x2="36" y2="38">
					<stop  offset="0" style="stop-color:#E01313"/>
					<stop  offset="1" style="stop-color:#CE0101"/>
				</linearGradient>
				<polygon fill="url(#datacenter-gradient-4)" points="34,37 34,38 34,39 36,39 36,38 36,37 		"/>
				<linearGradient id="datacenter-gradient-5" gradientUnits="userSpaceOnUse" x1="34" y1="43" x2="36" y2="43">
					<stop  offset="0" style="stop-color:#E01313"/>
					<stop  offset="1" style="stop-color:#CE0101"/>
				</linearGradient>
				<polygon fill="url(#datacenter-gradient-5)" points="34,43 34,44 36,44 36,43 36,42 34,42 		"/>
				<linearGradient id="datacenter-gradient-6" gradientUnits="userSpaceOnUse" x1="34" y1="48" x2="36" y2="48">
					<stop  offset="0" style="stop-color:#E01313"/>
					<stop  offset="1" style="stop-color:#CE0101"/>
				</linearGradient>
				<polygon fill="url(#datacenter-gradient-6)" points="34,48 34,49 36,49 36,48 36,47 34,47 		"/>
				<linearGradient id="datacenter-gradient-7" gradientUnits="userSpaceOnUse" x1="34" y1="53" x2="36" y2="53">
					<stop  offset="0" style="stop-color:#E01313"/>
					<stop  offset="1" style="stop-color:#CE0101"/>
				</linearGradient>
				<polygon fill="url(#datacenter-gradient-7)" points="34,53 34,54 36,54 36,53 36,52 34,52 		"/>
				<linearGradient id="datacenter-gradient-8" gradientUnits="userSpaceOnUse" x1="34" y1="58" x2="36" y2="58">
					<stop  offset="0" style="stop-color:#E01313"/>
					<stop  offset="1" style="stop-color:#CE0101"/>
				</linearGradient>
				<polygon fill="url(#datacenter-gradient-8)" points="34,58 34,59 36,59 36,58 36,57 34,57 		"/>
				<linearGradient id="datacenter-gradient-9" gradientUnits="userSpaceOnUse" x1="34" y1="63" x2="36" y2="63">
					<stop  offset="0" style="stop-color:#E01313"/>
					<stop  offset="1" style="stop-color:#CE0101"/>
				</linearGradient>
				<polygon fill="url(#datacenter-gradient-9)" points="34,63 34,64 36,64 36,63 36,62 34,62 		"/>
				<linearGradient id="datacenter-gradient-10" gradientUnits="userSpaceOnUse" x1="34" y1="68" x2="36" y2="68">
					<stop  offset="0" style="stop-color:#E01313"/>
					<stop  offset="1" style="stop-color:#CE0101"/>
				</linearGradient>
				<polygon fill="url(#datacenter-gradient-10)" points="34,68 34,69 36,69 36,68 36,67 34,67 		"/>
			</g>
			<g opacity="0.2">
				<linearGradient id="datacenter-gradient-11" gradientUnits="userSpaceOnUse" x1="54" y1="38" x2="56" y2="38">
					<stop  offset="0" style="stop-color:#E01313"/>
					<stop  offset="1" style="stop-color:#CE0101"/>
				</linearGradient>
				<polygon fill="url(#datacenter-gradient-11)" points="54,37 54,38 54,39 56,39 56,38 56,37 		"/>
				<linearGradient id="datacenter-gradient-12" gradientUnits="userSpaceOnUse" x1="54" y1="43" x2="56" y2="43">
					<stop  offset="0" style="stop-color:#E01313"/>
					<stop  offset="1" style="stop-color:#CE0101"/>
				</linearGradient>
				<polygon fill="url(#datacenter-gradient-12)" points="54,43 54,44 56,44 56,43 56,42 54,42 		"/>
				<linearGradient id="datacenter-gradient-13" gradientUnits="userSpaceOnUse" x1="54" y1="48" x2="56" y2="48">
					<stop  offset="0" style="stop-color:#E01313"/>
					<stop  offset="1" style="stop-color:#CE0101"/>
				</linearGradient>
				<polygon fill="url(#datacenter-gradient-13)" points="54,48 54,49 56,49 56,48 56,47 54,47 		"/>
				<linearGradient id="datacenter-gradient-14" gradientUnits="userSpaceOnUse" x1="54" y1="53" x2="56" y2="53">
					<stop  offset="0" style="stop-color:#E01313"/>
					<stop  offset="1" style="stop-color:#CE0101"/>
				</linearGradient>
				<polygon fill="url(#datacenter-gradient-14)" points="54,53 54,54 56,54 56,53 56,52 54,52 		"/>
				<linearGradient id="datacenter-gradient-15" gradientUnits="userSpaceOnUse" x1="54" y1="58" x2="56" y2="58">
					<stop  offset="0" style="stop-color:#E01313"/>
					<stop  offset="1" style="stop-color:#CE0101"/>
				</linearGradient>
				<polygon fill="url(#datacenter-gradient-15)" points="54,58 54,59 56,59 56,58 56,57 54,57 		"/>
				<linearGradient id="datacenter-gradient-16" gradientUnits="userSpaceOnUse" x1="54" y1="63" x2="56" y2="63">
					<stop  offset="0" style="stop-color:#E01313"/>
					<stop  offset="1" style="stop-color:#CE0101"/>
				</linearGradient>
				<polygon fill="url(#datacenter-gradient-16)" points="54,63 54,64 56,64 56,63 56,62 54,62 		"/>
				<linearGradient id="datacenter-gradient-17" gradientUnits="userSpaceOnUse" x1="54" y1="68" x2="56" y2="68">
					<stop  offset="0" style="stop-color:#E01313"/>
					<stop  offset="1" style="stop-color:#CE0101"/>
				</linearGradient>
				<polygon fill="url(#datacenter-gradient-17)" points="54,68 54,69 56,69 56,68 56,67 54,67 		"/>
			</g>
			<g opacity="0.2">
				<linearGradient id="datacenter-gradient-18" gradientUnits="userSpaceOnUse" x1="74" y1="38" x2="76" y2="38">
					<stop  offset="0" style="stop-color:#E01313"/>
					<stop  offset="1" style="stop-color:#CE0101"/>
				</linearGradient>
				<polygon fill="url(#datacenter-gradient-18)" points="74,37 74,38 74,39 76,39 76,38 76,37 		"/>
				<linearGradient id="datacenter-gradient-19" gradientUnits="userSpaceOnUse" x1="74" y1="43" x2="76" y2="43">
					<stop  offset="0" style="stop-color:#E01313"/>
					<stop  offset="1" style="stop-color:#CE0101"/>
				</linearGradient>
				<polygon fill="url(#datacenter-gradient-19)" points="74,43 74,44 76,44 76,43 76,42 74,42 		"/>
				<linearGradient id="datacenter-gradient-20" gradientUnits="userSpaceOnUse" x1="74" y1="48" x2="76" y2="48">
					<stop  offset="0" style="stop-color:#E01313"/>
					<stop  offset="1" style="stop-color:#CE0101"/>
				</linearGradient>
				<polygon fill="url(#datacenter-gradient-20)" points="74,48 74,49 76,49 76,48 76,47 74,47 		"/>
				<linearGradient id="datacenter-gradient-21" gradientUnits="userSpaceOnUse" x1="74" y1="53" x2="76" y2="53">
					<stop  offset="0" style="stop-color:#E01313"/>
					<stop  offset="1" style="stop-color:#CE0101"/>
				</linearGradient>
				<polygon fill="url(#datacenter-gradient-21)" points="74,53 74,54 76,54 76,53 76,52 74,52 		"/>
				<linearGradient id="datacenter-gradient-22" gradientUnits="userSpaceOnUse" x1="74" y1="58" x2="76" y2="58">
					<stop  offset="0" style="stop-color:#E01313"/>
					<stop  offset="1" style="stop-color:#CE0101"/>
				</linearGradient>
				<polygon fill="url(#datacenter-gradient-22)" points="74,58 74,59 76,59 76,58 76,57 74,57 		"/>
				<linearGradient id="datacenter-gradient-23" gradientUnits="userSpaceOnUse" x1="74" y1="63" x2="76" y2="63">
					<stop  offset="0" style="stop-color:#E01313"/>
					<stop  offset="1" style="stop-color:#CE0101"/>
				</linearGradient>
				<polygon fill="url(#datacenter-gradient-23)" points="74,63 74,64 76,64 76,63 76,62 74,62 		"/>
				<linearGradient id="datacenter-gradient-24" gradientUnits="userSpaceOnUse" x1="74" y1="68" x2="76" y2="68">
					<stop  offset="0" style="stop-color:#E01313"/>
					<stop  offset="1" style="stop-color:#CE0101"/>
				</linearGradient>
				<polygon fill="url(#datacenter-gradient-24)" points="74,68 74,69 76,69 76,68 76,67 74,67 		"/>
			</g>
			<g opacity="0.2">
				<polygon fill="#0071BC" points="41,37 41,38 41,39 50,39 50,38 50,37 		"/>
				<polygon fill="#0071BC" points="41,43 41,44 50,44 50,43 50,42 41,42 		"/>
				<polygon fill="#0071BC" points="41,48 41,49 50,49 50,48 50,47 41,47 		"/>
				<polygon fill="#0071BC" points="41,53 41,54 50,54 50,53 50,52 41,52 		"/>
				<polygon fill="#0071BC" points="41,58 41,59 50,59 50,58 50,57 41,57 		"/>
				<polygon fill="#0071BC" points="41,63 41,64 50,64 50,63 50,62 41,62 		"/>
				<polygon fill="#0071BC" points="41,68 41,69 50,69 50,68 50,67 41,67 		"/>
			</g>
			<g opacity="0.2">
				<polygon fill="#8CC63F" points="56,37 56,38 56,39 58,39 58,38 58,37 		"/>
				<polygon fill="#8CC63F" points="56,43 56,44 58,44 58,43 58,42 56,42 		"/>
				<polygon fill="#8CC63F" points="56,48 56,49 58,49 58,48 58,47 56,47 		"/>
				<polygon fill="#8CC63F" points="56,53 56,54 58,54 58,53 58,52 56,52 		"/>
				<polygon fill="#8CC63F" points="56,58 56,59 58,59 58,58 58,57 56,57 		"/>
				<polygon fill="#8CC63F" points="56,63 56,64 58,64 58,63 58,62 56,62 		"/>
				<polygon fill="#8CC63F" points="56,68 56,69 58,69 58,68 58,67 56,67 		"/>
			</g>
			<g opacity="0.2">
				<polygon fill="#0071BC" points="61,37 61,38 61,39 70,39 70,38 70,37 		"/>
				<polygon fill="#0071BC" points="61,43 61,44 70,44 70,43 70,42 61,42 		"/>
				<polygon fill="#0071BC" points="61,48 61,49 70,49 70,48 70,47 61,47 		"/>
				<polygon fill="#0071BC" points="61,53 61,54 70,54 70,53 70,52 61,52 		"/>
				<polygon fill="#0071BC" points="61,58 61,59 70,59 70,58 70,57 61,57 		"/>
				<polygon fill="#0071BC" points="61,63 61,64 70,64 70,63 70,62 61,62 		"/>
				<polygon fill="#0071BC" points="61,68 61,69 70,69 70,68 70,67 61,67 		"/>
			</g>
			<g opacity="0.2">
				<polygon fill="#8CC63F" points="76,37 76,38 76,39 78,39 78,38 78,37 		"/>
				<polygon fill="#8CC63F" points="76,43 76,44 78,44 78,43 78,42 76,42 		"/>
				<polygon fill="#8CC63F" points="76,48 76,49 78,49 78,48 78,47 76,47 		"/>
				<polygon fill="#8CC63F" points="76,53 76,54 78,54 78,53 78,52 76,52 		"/>
				<polygon fill="#8CC63F" points="76,58 76,59 78,59 78,58 78,57 76,57 		"/>
				<polygon fill="#8CC63F" points="76,63 76,64 78,64 78,63 78,62 76,62 		"/>
				<polygon fill="#8CC63F" points="76,68 76,69 78,69 78,68 78,67 76,67 		"/>
			</g>
			<g>
				<path opacity="0.35" fill="#FFFFFF" d="M58,29H42c-0.6,0-1,0.5-1,1v1c0-0.6,0.5-1,1-1h16c0.6,0,1,0.5,1,1v-1
					C59,29.5,58.5,29,58,29z"/>
				<path opacity="0.35" fill="#FFFFFF" d="M38,29H24c-1.7,0-3,1.3-3,3v1c0-1.7,1.3-3,3-3h14c0.6,0,1,0.5,1,1v-1
					C39,29.5,38.5,29,38,29z"/>
				<path opacity="0.35" fill="#FFFFFF" d="M76,29H62c-0.6,0-1,0.5-1,1v1c0-0.6,0.5-1,1-1h14c1.7,0,3,1.3,3,3v-1
					C79,30.3,77.7,29,76,29z"/>
			</g>
		</g>

</svg>

		