<svg xmlns="http://www.w3.org/2000/svg" width="48" height="48" viewBox="0 0 100 100"><title>datacenter</title><g class="symbol load"><path fill="none" d="M0 0h100v100H0z"/><path class="outer" fill="#282828" d="M76 74c3.3 0 6-2.7 6-6V32c0-3.3-2.7-6-6-6H24c-3.3 0-6 2.7-6 6v36c0 3.3 2.7 6 6 6h52z"/><path class="edging" opacity=".65" fill="#FFF" d="M76 26c3.3 0 6 2.7 6 6v36c0 3.3-2.7 6-6 6H24c-3.3 0-6-2.7-6-6V32c0-3.3 2.7-6 6-6h52m0-2H24c-4.4 0-8 3.6-8 8v36c0 4.4 3.6 8 8 8h52c4.4 0 8-3.6 8-8V32c0-4.4-3.6-8-8-8z"/><linearGradient id="a" gradientUnits="userSpaceOnUse" x1="50" y1="29" x2="50" y2="71"><stop offset="0" stop-color="#666"/><stop offset="1" stop-color="#4d4d4d"/></linearGradient><path fill="url(#a)" d="M58 71H42c-.6 0-1-.5-1-1V30c0-.6.5-1 1-1h16c.6 0 1 .5 1 1v40c0 .5-.5 1-1 1z"/><linearGradient id="b" gradientUnits="userSpaceOnUse" x1="30" y1="29" x2="30" y2="71"><stop offset="0" stop-color="#666"/><stop offset="1" stop-color="#4d4d4d"/></linearGradient><path fill="url(#b)" d="M38 71H24c-1.6 0-3-1.3-3-3V32c0-1.6 1.4-3 3-3h14c.6 0 1 .5 1 1v40c0 .5-.5 1-1 1z"/><linearGradient id="c" gradientUnits="userSpaceOnUse" x1="70" y1="29" x2="70" y2="71"><stop offset="0" stop-color="#666"/><stop offset="1" stop-color="#4d4d4d"/></linearGradient><path fill="url(#c)" d="M76 71H62c-.6 0-1-.5-1-1V30c0-.6.5-1 1-1h14c1.7 0 3 1.4 3 3v36c0 1.7-1.3 3-3 3z"/><g opacity=".4" fill="#282828"><path d="M21 34.5h58v1H21zM21 39.5h58v1H21zM21 44.5h58v1H21zM21 49.5h58v1H21zM21 54.5h58v1H21zM21 59.5h58v1H21zM21 64.5h58v1H21z"/></g><g opacity=".2" fill="#0071BC"><path d="M21 37v2h9v-2zM21 43v1h9v-2h-9zM21 48v1h9v-2h-9zM21 53v1h9v-2h-9zM21 58v1h9v-2h-9zM21 63v1h9v-2h-9zM21 68v1h9v-2h-9z"/></g><g opacity=".2" fill="#8CC63F"><path d="M36 37v2h2v-2zM36 43v1h2v-2h-2zM36 48v1h2v-2h-2zM36 53v1h2v-2h-2zM36 58v1h2v-2h-2zM36 63v1h2v-2h-2zM36 68v1h2v-2h-2z"/></g><g opacity=".2"><linearGradient id="d" gradientUnits="userSpaceOnUse" x1="34" y1="38" x2="36" y2="38"><stop offset="0" stop-color="#e01313"/><stop offset="1" stop-color="#ce0101"/></linearGradient><path fill="url(#d)" d="M34 37v2h2v-2z"/><linearGradient id="e" gradientUnits="userSpaceOnUse" x1="34" y1="43" x2="36" y2="43"><stop offset="0" stop-color="#e01313"/><stop offset="1" stop-color="#ce0101"/></linearGradient><path fill="url(#e)" d="M34 43v1h2v-2h-2z"/><linearGradient id="f" gradientUnits="userSpaceOnUse" x1="34" y1="48" x2="36" y2="48"><stop offset="0" stop-color="#e01313"/><stop offset="1" stop-color="#ce0101"/></linearGradient><path fill="url(#f)" d="M34 48v1h2v-2h-2z"/><linearGradient id="g" gradientUnits="userSpaceOnUse" x1="34" y1="53" x2="36" y2="53"><stop offset="0" stop-color="#e01313"/><stop offset="1" stop-color="#ce0101"/></linearGradient><path fill="url(#g)" d="M34 53v1h2v-2h-2z"/><linearGradient id="h" gradientUnits="userSpaceOnUse" x1="34" y1="58" x2="36" y2="58"><stop offset="0" stop-color="#e01313"/><stop offset="1" stop-color="#ce0101"/></linearGradient><path fill="url(#h)" d="M34 58v1h2v-2h-2z"/><linearGradient id="i" gradientUnits="userSpaceOnUse" x1="34" y1="63" x2="36" y2="63"><stop offset="0" stop-color="#e01313"/><stop offset="1" stop-color="#ce0101"/></linearGradient><path fill="url(#i)" d="M34 63v1h2v-2h-2z"/><linearGradient id="j" gradientUnits="userSpaceOnUse" x1="34" y1="68" x2="36" y2="68"><stop offset="0" stop-color="#e01313"/><stop offset="1" stop-color="#ce0101"/></linearGradient><path fill="url(#j)" d="M34 68v1h2v-2h-2z"/></g><g opacity=".2"><linearGradient id="k" gradientUnits="userSpaceOnUse" x1="54" y1="38" x2="56" y2="38"><stop offset="0" stop-color="#e01313"/><stop offset="1" stop-color="#ce0101"/></linearGradient><path fill="url(#k)" d="M54 37v2h2v-2z"/><linearGradient id="l" gradientUnits="userSpaceOnUse" x1="54" y1="43" x2="56" y2="43"><stop offset="0" stop-color="#e01313"/><stop offset="1" stop-color="#ce0101"/></linearGradient><path fill="url(#l)" d="M54 43v1h2v-2h-2z"/><linearGradient id="m" gradientUnits="userSpaceOnUse" x1="54" y1="48" x2="56" y2="48"><stop offset="0" stop-color="#e01313"/><stop offset="1" stop-color="#ce0101"/></linearGradient><path fill="url(#m)" d="M54 48v1h2v-2h-2z"/><linearGradient id="n" gradientUnits="userSpaceOnUse" x1="54" y1="53" x2="56" y2="53"><stop offset="0" stop-color="#e01313"/><stop offset="1" stop-color="#ce0101"/></linearGradient><path fill="url(#n)" d="M54 53v1h2v-2h-2z"/><linearGradient id="o" gradientUnits="userSpaceOnUse" x1="54" y1="58" x2="56" y2="58"><stop offset="0" stop-color="#e01313"/><stop offset="1" stop-color="#ce0101"/></linearGradient><path fill="url(#o)" d="M54 58v1h2v-2h-2z"/><linearGradient id="p" gradientUnits="userSpaceOnUse" x1="54" y1="63" x2="56" y2="63"><stop offset="0" stop-color="#e01313"/><stop offset="1" stop-color="#ce0101"/></linearGradient><path fill="url(#p)" d="M54 63v1h2v-2h-2z"/><linearGradient id="q" gradientUnits="userSpaceOnUse" x1="54" y1="68" x2="56" y2="68"><stop offset="0" stop-color="#e01313"/><stop offset="1" stop-color="#ce0101"/></linearGradient><path fill="url(#q)" d="M54 68v1h2v-2h-2z"/></g><g opacity=".2"><linearGradient id="r" gradientUnits="userSpaceOnUse" x1="74" y1="38" x2="76" y2="38"><stop offset="0" stop-color="#e01313"/><stop offset="1" stop-color="#ce0101"/></linearGradient><path fill="url(#r)" d="M74 37v2h2v-2z"/><linearGradient id="s" gradientUnits="userSpaceOnUse" x1="74" y1="43" x2="76" y2="43"><stop offset="0" stop-color="#e01313"/><stop offset="1" stop-color="#ce0101"/></linearGradient><path fill="url(#s)" d="M74 43v1h2v-2h-2z"/><linearGradient id="t" gradientUnits="userSpaceOnUse" x1="74" y1="48" x2="76" y2="48"><stop offset="0" stop-color="#e01313"/><stop offset="1" stop-color="#ce0101"/></linearGradient><path fill="url(#t)" d="M74 48v1h2v-2h-2z"/><linearGradient id="u" gradientUnits="userSpaceOnUse" x1="74" y1="53" x2="76" y2="53"><stop offset="0" stop-color="#e01313"/><stop offset="1" stop-color="#ce0101"/></linearGradient><path fill="url(#u)" d="M74 53v1h2v-2h-2z"/><linearGradient id="v" gradientUnits="userSpaceOnUse" x1="74" y1="58" x2="76" y2="58"><stop offset="0" stop-color="#e01313"/><stop offset="1" stop-color="#ce0101"/></linearGradient><path fill="url(#v)" d="M74 58v1h2v-2h-2z"/><linearGradient id="w" gradientUnits="userSpaceOnUse" x1="74" y1="63" x2="76" y2="63"><stop offset="0" stop-color="#e01313"/><stop offset="1" stop-color="#ce0101"/></linearGradient><path fill="url(#w)" d="M74 63v1h2v-2h-2z"/><linearGradient id="x" gradientUnits="userSpaceOnUse" x1="74" y1="68" x2="76" y2="68"><stop offset="0" stop-color="#e01313"/><stop offset="1" stop-color="#ce0101"/></linearGradient><path fill="url(#x)" d="M74 68v1h2v-2h-2z"/></g><g opacity=".2" fill="#0071BC"><path d="M41 37v2h9v-2zM41 43v1h9v-2h-9zM41 48v1h9v-2h-9zM41 53v1h9v-2h-9zM41 58v1h9v-2h-9zM41 63v1h9v-2h-9zM41 68v1h9v-2h-9z"/></g><g opacity=".2" fill="#8CC63F"><path d="M56 37v2h2v-2zM56 43v1h2v-2h-2zM56 48v1h2v-2h-2zM56 53v1h2v-2h-2zM56 58v1h2v-2h-2zM56 63v1h2v-2h-2zM56 68v1h2v-2h-2z"/></g><g opacity=".2" fill="#0071BC"><path d="M61 37v2h9v-2zM61 43v1h9v-2h-9zM61 48v1h9v-2h-9zM61 53v1h9v-2h-9zM61 58v1h9v-2h-9zM61 63v1h9v-2h-9zM61 68v1h9v-2h-9z"/></g><g opacity=".2" fill="#8CC63F"><path d="M76 37v2h2v-2zM76 43v1h2v-2h-2zM76 48v1h2v-2h-2zM76 53v1h2v-2h-2zM76 58v1h2v-2h-2zM76 63v1h2v-2h-2zM76 68v1h2v-2h-2z"/></g><g fill="#FFF"><path opacity=".35" d="M58 29H42c-.6 0-1 .5-1 1v1c0-.6.5-1 1-1h16c.6 0 1 .5 1 1v-1c0-.5-.5-1-1-1zM38 29H24c-1.7 0-3 1.3-3 3v1c0-1.7 1.3-3 3-3h14c.6 0 1 .5 1 1v-1c0-.5-.5-1-1-1zM76 29H62c-.6 0-1 .5-1 1v1c0-.6.5-1 1-1h14c1.7 0 3 1.3 3 3v-1c0-1.7-1.3-3-3-3z"/></g></g></svg>