<svg xmlns="http://www.w3.org/2000/svg" width="48" height="48" viewBox="0 0 100 100">
  <title>default</title>
		<g id="default" class="symbol">
			<linearGradient id="DefaultGradient" gradientUnits="userSpaceOnUse" x1="50.5" y1="40" x2="50.5" y2="61">
				<stop  offset="0" style="stop-color:#666666"/>
				<stop  offset="1" style="stop-color:#4D4D4D"/>
			</linearGradient>

			<g id="bound">
				<rect class="" x="0" y="0" width="100" height="100" opacity="0"/>
			</g>

			<path class="outer" fill="#282828" d="M64,59c0,2.8-2.2,5-5,5H42c-2.8,0-5-2.2-5-5V42c0-2.8,2.2-5,5-5h17c2.8,0,5,2.2,5,5V59z"/>

			<path class="edging" opacity="0.65" fill="#FFFFFF" d="M59,37c2.8,0,5,2.2,5,5v17c0,2.8-2.2,5-5,5H42c-2.8,0-5-2.2-5-5V42c0-2.8,2.2-5,5-5H59 M59,35H42
						c-3.9,0-7,3.1-7,7v17c0,3.9,3.1,7,7,7h17c3.9,0,7-3.1,7-7V42C66,38.1,62.9,35,59,35L59,35z"/>

			<path class="inner" fill="url(#DefaultGradient)" d="M61,58c0,1.7-1.3,3-3,3H43c-1.7,0-3-1.3-3-3V43c0-1.7,1.3-3,3-3h15c1.7,0,3,1.3,3,3V58z"/>

			<path class="highlight" opacity="0.35" fill="#FFFFFF" d="M58,40H43c-1.7,0-3,1.3-3,3v1c0-1.7,1.3-3,3-3h15c1.7,0,3,1.3,3,3v-1C61,41.3,59.7,40,58,40
				z"/>
		</g>
</svg>