<svg xmlns="http://www.w3.org/2000/svg" width="48" height="48" viewBox="0 0 100 100">
  <title>disconnected-breaker</title>
<g id="disconnected-breaker" class="symbol static">
			<path fill="#282828" d="M15.7,40.7c-1.1-1.1-3-1.1-4.1,0l-7.3,7.3c-1.1,1.1-1.1,3,0,4.1l7.3,7.3c0.6,0.6,1.3,0.9,2.1,0.9
				c0.7,0,1.5-0.3,2.1-0.9c1.1-1.1,1.1-3,0-4.1L10.5,50l5.2-5.2C16.8,43.7,16.8,41.8,15.7,40.7z"/>
			<path fill="#FFFFFF" class="edging" opacity=".65" d="M13.7,39.8c0.7,0,1.5,0.3,2.1,0.9c1.1,1.1,1.1,3,0,4.1L10.5,50l5.2,5.2c1.1,1.1,1.1,3,0,4.1
				c-0.6,0.6-1.3,0.9-2.1,0.9c-0.7,0-1.5-0.3-2.1-0.9l-7.3-7.3c-1.1-1.1-1.1-3,0-4.1l7.3-7.3C12.2,40.1,12.9,39.8,13.7,39.8
				 M13.7,37.8c-1.3,0-2.5,0.5-3.5,1.4l-7.3,7.3C2,47.5,1.5,48.7,1.5,50c0,1.3,0.5,2.5,1.4,3.5l7.3,7.3c0.9,0.9,2.2,1.4,3.5,1.4
				c1.3,0,2.5-0.5,3.5-1.4c0.9-0.9,1.4-2.2,1.4-3.5c0-1.3-0.5-2.5-1.4-3.5L13.3,50l3.8-3.8c0.9-0.9,1.4-2.2,1.4-3.5
				c0-1.3-0.5-2.5-1.4-3.5C16.2,38.3,15,37.8,13.7,37.8L13.7,37.8z"/>
			<path fill="#282828" d="M95.6,47.9l-7.3-7.3c-1.1-1.1-3-1.1-4.1,0c-1.1,1.1-1.1,3,0,4.1l5.2,5.2l-5.2,5.2c-1.1,1.1-1.1,3,0,4.1
				c0.6,0.6,1.3,0.9,2.1,0.9c0.7,0,1.5-0.3,2.1-0.9l7.3-7.3C96.8,50.9,96.8,49.1,95.6,47.9z"/>
			<path fill="#FFFFFF" class="edging" opacity=".65" d="M86.3,39.8c0.7,0,1.5,0.3,2.1,0.9l7.3,7.3c1.1,1.1,1.1,3,0,4.1l-7.3,7.3c-0.6,0.6-1.3,0.9-2.1,0.9
				c-0.7,0-1.5-0.3-2.1-0.9c-1.1-1.1-1.1-3,0-4.1l5.2-5.2l-5.2-5.2c-1.1-1.1-1.1-3,0-4.1C84.9,40.1,85.6,39.8,86.3,39.8 M86.3,37.8
				c-1.3,0-2.5,0.5-3.5,1.4c-0.9,0.9-1.4,2.2-1.4,3.5c0,1.3,0.5,2.5,1.4,3.5l3.8,3.8l-3.8,3.8c-0.9,0.9-1.4,2.2-1.4,3.5
				c0,1.3,0.5,2.5,1.4,3.5c0.9,0.9,2.2,1.4,3.5,1.4c1.3,0,2.5-0.5,3.5-1.4l7.3-7.3c0.9-0.9,1.4-2.2,1.4-3.5c0-1.3-0.5-2.5-1.4-3.5
				l-7.3-7.3C88.9,38.3,87.6,37.8,86.3,37.8L86.3,37.8z"/>
			<g class="dotted-slot" transform="translate(0, 1)">
				<g>
					<g>
						<path fill="#282828" d="M74,66.5h-3c-0.8,0-1.5-0.7-1.5-1.5s0.7-1.5,1.5-1.5h1.5V62c0-0.8,0.7-1.5,1.5-1.5s1.5,0.7,1.5,1.5v3
							C75.5,65.8,74.8,66.5,74,66.5z"/>
					</g>
					<g>
						<path fill="#282828" d="M61.7,66.5h-7c-0.8,0-1.5-0.7-1.5-1.5s0.7-1.5,1.5-1.5h7c0.8,0,1.5,0.7,1.5,1.5S62.5,66.5,61.7,66.5z
							 M45.3,66.5h-7c-0.8,0-1.5-0.7-1.5-1.5s0.7-1.5,1.5-1.5h7c0.8,0,1.5,0.7,1.5,1.5S46.2,66.5,45.3,66.5z"/>
					</g>
					<g>
						<path fill="#282828" d="M29,66.5h-3c-0.8,0-1.5-0.7-1.5-1.5v-3c0-0.8,0.7-1.5,1.5-1.5s1.5,0.7,1.5,1.5v1.5H29
							c0.8,0,1.5,0.7,1.5,1.5S29.8,66.5,29,66.5z"/>
					</g>
					<g>
						<path fill="#282828" d="M26,54.8c-0.8,0-1.5-0.7-1.5-1.5v-6.5c0-0.8,0.7-1.5,1.5-1.5s1.5,0.7,1.5,1.5v6.5
							C27.5,54.1,26.8,54.8,26,54.8z"/>
					</g>
					<g>
						<path fill="#282828" d="M26,39.5c-0.8,0-1.5-0.7-1.5-1.5v-3c0-0.8,0.7-1.5,1.5-1.5h3c0.8,0,1.5,0.7,1.5,1.5s-0.7,1.5-1.5,1.5
							h-1.5V38C27.5,38.8,26.8,39.5,26,39.5z"/>
					</g>
					<g>
						<path fill="#282828" d="M61.7,36.5h-7c-0.8,0-1.5-0.7-1.5-1.5s0.7-1.5,1.5-1.5h7c0.8,0,1.5,0.7,1.5,1.5S62.5,36.5,61.7,36.5z
							 M45.3,36.5h-7c-0.8,0-1.5-0.7-1.5-1.5s0.7-1.5,1.5-1.5h7c0.8,0,1.5,0.7,1.5,1.5S46.2,36.5,45.3,36.5z"/>
					</g>
					<g>
						<path fill="#282828" d="M74,39.5c-0.8,0-1.5-0.7-1.5-1.5v-1.5H71c-0.8,0-1.5-0.7-1.5-1.5s0.7-1.5,1.5-1.5h3
							c0.8,0,1.5,0.7,1.5,1.5v3C75.5,38.8,74.8,39.5,74,39.5z"/>
					</g>
					<g>
						<path fill="#282828" d="M74,54.8c-0.8,0-1.5-0.7-1.5-1.5v-6.5c0-0.8,0.7-1.5,1.5-1.5s1.5,0.7,1.5,1.5v6.5
							C75.5,54.1,74.8,54.8,74,54.8z"/>
					</g>
				</g>
				<g>
					<g>
						<path fill="#FFFFFF" class="edging" opacity=".65" d="M74,60.5c0.8,0,1.5,0.7,1.5,1.5v3c0,0.8-0.7,1.5-1.5,1.5h-3c-0.8,0-1.5-0.7-1.5-1.5s0.7-1.5,1.5-1.5h1.5
							V62C72.5,61.2,73.2,60.5,74,60.5 M74,58.5c-1.8,0-3.2,1.3-3.5,3c-1.7,0.2-3,1.7-3,3.5c0,1.9,1.6,3.5,3.5,3.5h3
							c1.9,0,3.5-1.6,3.5-3.5v-3C77.5,60.1,75.9,58.5,74,58.5L74,58.5z"/>
					</g>
					<g>
						<path fill="#FFFFFF" class="edging" opacity=".65" d="M61.7,63.5c0.8,0,1.5,0.7,1.5,1.5s-0.7,1.5-1.5,1.5h-7c-0.8,0-1.5-0.7-1.5-1.5s0.7-1.5,1.5-1.5H61.7
							 M45.3,63.5c0.8,0,1.5,0.7,1.5,1.5s-0.7,1.5-1.5,1.5h-7c-0.8,0-1.5-0.7-1.5-1.5s0.7-1.5,1.5-1.5H45.3 M61.7,61.5h-7
							c-1.9,0-3.5,1.6-3.5,3.5s1.6,3.5,3.5,3.5h7c1.9,0,3.5-1.6,3.5-3.5S63.6,61.5,61.7,61.5L61.7,61.5z M45.3,61.5h-7
							c-1.9,0-3.5,1.6-3.5,3.5s1.6,3.5,3.5,3.5h7c1.9,0,3.5-1.6,3.5-3.5S47.3,61.5,45.3,61.5L45.3,61.5z"/>
					</g>
					<g>
						<path fill="#FFFFFF" class="edging" opacity=".65" d="M26,60.5c0.8,0,1.5,0.7,1.5,1.5v1.5H29c0.8,0,1.5,0.7,1.5,1.5s-0.7,1.5-1.5,1.5h-3
							c-0.8,0-1.5-0.7-1.5-1.5v-3C24.5,61.2,25.2,60.5,26,60.5 M26,58.5c-1.9,0-3.5,1.6-3.5,3.5v3c0,1.9,1.6,3.5,3.5,3.5h3
							c1.9,0,3.5-1.6,3.5-3.5c0-1.8-1.3-3.2-3-3.5C29.2,59.8,27.8,58.5,26,58.5L26,58.5z"/>
					</g>
					<g>
						<path fill="#FFFFFF" class="edging" opacity=".65" d="M26,45.2c0.8,0,1.5,0.7,1.5,1.5v6.5c0,0.8-0.7,1.5-1.5,1.5s-1.5-0.7-1.5-1.5v-6.5
							C24.5,45.9,25.2,45.2,26,45.2 M26,43.2c-1.9,0-3.5,1.6-3.5,3.5v6.5c0,1.9,1.6,3.5,3.5,3.5s3.5-1.6,3.5-3.5v-6.5
							C29.5,44.8,27.9,43.2,26,43.2L26,43.2z"/>
					</g>
					<g>
						<path fill="#FFFFFF" class="edging" opacity=".65" d="M29,33.5c0.8,0,1.5,0.7,1.5,1.5s-0.7,1.5-1.5,1.5h-1.5V38c0,0.8-0.7,1.5-1.5,1.5s-1.5-0.7-1.5-1.5v-3
							c0-0.8,0.7-1.5,1.5-1.5H29 M29,31.5h-3c-1.9,0-3.5,1.6-3.5,3.5v3c0,1.9,1.6,3.5,3.5,3.5c1.8,0,3.2-1.3,3.5-3
							c1.7-0.2,3-1.7,3-3.5C32.5,33.1,30.9,31.5,29,31.5L29,31.5z"/>
					</g>
					<g>
						<path fill="#FFFFFF" class="edging" opacity=".65" d="M61.7,33.5c0.8,0,1.5,0.7,1.5,1.5s-0.7,1.5-1.5,1.5h-7c-0.8,0-1.5-0.7-1.5-1.5s0.7-1.5,1.5-1.5H61.7
							 M45.3,33.5c0.8,0,1.5,0.7,1.5,1.5s-0.7,1.5-1.5,1.5h-7c-0.8,0-1.5-0.7-1.5-1.5s0.7-1.5,1.5-1.5H45.3 M61.7,31.5h-7
							c-1.9,0-3.5,1.6-3.5,3.5s1.6,3.5,3.5,3.5h7c1.9,0,3.5-1.6,3.5-3.5S63.6,31.5,61.7,31.5L61.7,31.5z M45.3,31.5h-7
							c-1.9,0-3.5,1.6-3.5,3.5s1.6,3.5,3.5,3.5h7c1.9,0,3.5-1.6,3.5-3.5S47.3,31.5,45.3,31.5L45.3,31.5z"/>
					</g>
					<g>
						<path fill="#FFFFFF" class="edging" opacity=".65" d="M74,33.5c0.8,0,1.5,0.7,1.5,1.5v3c0,0.8-0.7,1.5-1.5,1.5s-1.5-0.7-1.5-1.5v-1.5H71
							c-0.8,0-1.5-0.7-1.5-1.5s0.7-1.5,1.5-1.5H74 M74,31.5h-3c-1.9,0-3.5,1.6-3.5,3.5c0,1.8,1.3,3.2,3,3.5c0.2,1.7,1.7,3,3.5,3
							c1.9,0,3.5-1.6,3.5-3.5v-3C77.5,33.1,75.9,31.5,74,31.5L74,31.5z"/>
					</g>
					<g>
						<path fill="#FFFFFF" class="edging" opacity=".65" d="M74,45.2c0.8,0,1.5,0.7,1.5,1.5v6.5c0,0.8-0.7,1.5-1.5,1.5s-1.5-0.7-1.5-1.5v-6.5
							C72.5,45.9,73.2,45.2,74,45.2 M74,43.2c-1.9,0-3.5,1.6-3.5,3.5v6.5c0,1.9,1.6,3.5,3.5,3.5s3.5-1.6,3.5-3.5v-6.5
							C77.5,44.8,75.9,43.2,74,43.2L74,43.2z"/>
					</g>
				</g>
			</g>
		</g>
</svg>

		