<svg xmlns="http://www.w3.org/2000/svg" width="48" height="48" viewBox="0 0 100 100"><title>disconnected-breaker</title><g class="symbol static"><path fill="#282828" d="M15.7 40.7c-1.1-1.1-3-1.1-4.1 0L4.3 48c-1.1 1.1-1.1 3 0 4.1l7.3 7.3c.6.6 1.3.9 2.1.9.7 0 1.5-.3 2.1-.9 1.1-1.1 1.1-3 0-4.1L10.5 50l5.2-5.2c1.1-1.1 1.1-3 0-4.1z"/><path fill="#FFF" class="edging" opacity=".65" d="M13.7 39.8c.7 0 1.5.3 2.1.9 1.1 1.1 1.1 3 0 4.1L10.5 50l5.2 5.2c1.1 1.1 1.1 3 0 4.1-.6.6-1.3.9-2.1.9-.7 0-1.5-.3-2.1-.9L4.2 52c-1.1-1.1-1.1-3 0-4.1l7.3-7.3c.7-.5 1.4-.8 2.2-.8m0-2c-1.3 0-2.5.5-3.5 1.4l-7.3 7.3c-.9 1-1.4 2.2-1.4 3.5 0 1.3.5 2.5 1.4 3.5l7.3 7.3c.9.9 2.2 1.4 3.5 1.4 1.3 0 2.5-.5 3.5-1.4.9-.9 1.4-2.2 1.4-3.5 0-1.3-.5-2.5-1.4-3.5L13.3 50l3.8-3.8c.9-.9 1.4-2.2 1.4-3.5 0-1.3-.5-2.5-1.4-3.5-.9-.9-2.1-1.4-3.4-1.4z"/><path fill="#282828" d="M95.6 47.9l-7.3-7.3c-1.1-1.1-3-1.1-4.1 0-1.1 1.1-1.1 3 0 4.1l5.2 5.2-5.2 5.2c-1.1 1.1-1.1 3 0 4.1.6.6 1.3.9 2.1.9.7 0 1.5-.3 2.1-.9l7.3-7.3c1.1-1 1.1-2.8-.1-4z"/><path fill="#FFF" class="edging" opacity=".65" d="M86.3 39.8c.7 0 1.5.3 2.1.9l7.3 7.3c1.1 1.1 1.1 3 0 4.1l-7.3 7.3c-.6.6-1.3.9-2.1.9-.7 0-1.5-.3-2.1-.9-1.1-1.1-1.1-3 0-4.1l5.2-5.2-5.2-5.2c-1.1-1.1-1.1-3 0-4.1.7-.7 1.4-1 2.1-1m0-2c-1.3 0-2.5.5-3.5 1.4-.9.9-1.4 2.2-1.4 3.5 0 1.3.5 2.5 1.4 3.5l3.8 3.8-3.8 3.8c-.9.9-1.4 2.2-1.4 3.5 0 1.3.5 2.5 1.4 3.5.9.9 2.2 1.4 3.5 1.4 1.3 0 2.5-.5 3.5-1.4l7.3-7.3c.9-.9 1.4-2.2 1.4-3.5 0-1.3-.5-2.5-1.4-3.5l-7.3-7.3c-.9-.9-2.2-1.4-3.5-1.4z"/><g class="dotted-slot"><path fill="#282828" d="M74 67.5h-3c-.8 0-1.5-.7-1.5-1.5s.7-1.5 1.5-1.5h1.5V63c0-.8.7-1.5 1.5-1.5s1.5.7 1.5 1.5v3c0 .8-.7 1.5-1.5 1.5zm-12.3 0h-7c-.8 0-1.5-.7-1.5-1.5s.7-1.5 1.5-1.5h7c.8 0 1.5.7 1.5 1.5s-.7 1.5-1.5 1.5zm-16.4 0h-7c-.8 0-1.5-.7-1.5-1.5s.7-1.5 1.5-1.5h7c.8 0 1.5.7 1.5 1.5s-.6 1.5-1.5 1.5zm-16.3 0h-3c-.8 0-1.5-.7-1.5-1.5v-3c0-.8.7-1.5 1.5-1.5s1.5.7 1.5 1.5v1.5H29c.8 0 1.5.7 1.5 1.5s-.7 1.5-1.5 1.5zm-3-11.7c-.8 0-1.5-.7-1.5-1.5v-6.5c0-.8.7-1.5 1.5-1.5s1.5.7 1.5 1.5v6.5c0 .8-.7 1.5-1.5 1.5zm0-15.3c-.8 0-1.5-.7-1.5-1.5v-3c0-.8.7-1.5 1.5-1.5h3c.8 0 1.5.7 1.5 1.5s-.7 1.5-1.5 1.5h-1.5V39c0 .8-.7 1.5-1.5 1.5zm35.7-3h-7c-.8 0-1.5-.7-1.5-1.5s.7-1.5 1.5-1.5h7c.8 0 1.5.7 1.5 1.5s-.7 1.5-1.5 1.5zm-16.4 0h-7c-.8 0-1.5-.7-1.5-1.5s.7-1.5 1.5-1.5h7c.8 0 1.5.7 1.5 1.5s-.6 1.5-1.5 1.5zm28.7 3c-.8 0-1.5-.7-1.5-1.5v-1.5H71c-.8 0-1.5-.7-1.5-1.5s.7-1.5 1.5-1.5h3c.8 0 1.5.7 1.5 1.5v3c0 .8-.7 1.5-1.5 1.5zm0 15.3c-.8 0-1.5-.7-1.5-1.5v-6.5c0-.8.7-1.5 1.5-1.5s1.5.7 1.5 1.5v6.5c0 .8-.7 1.5-1.5 1.5z"/><path fill="#FFF" class="edging" opacity=".65" d="M74 61.5c.8 0 1.5.7 1.5 1.5v3c0 .8-.7 1.5-1.5 1.5h-3c-.8 0-1.5-.7-1.5-1.5s.7-1.5 1.5-1.5h1.5V63c0-.8.7-1.5 1.5-1.5m0-2c-1.8 0-3.2 1.3-3.5 3-1.7.2-3 1.7-3 3.5 0 1.9 1.6 3.5 3.5 3.5h3c1.9 0 3.5-1.6 3.5-3.5v-3c0-1.9-1.6-3.5-3.5-3.5zm-12.3 5c.8 0 1.5.7 1.5 1.5s-.7 1.5-1.5 1.5h-7c-.8 0-1.5-.7-1.5-1.5s.7-1.5 1.5-1.5h7m-16.4 0c.8 0 1.5.7 1.5 1.5s-.7 1.5-1.5 1.5h-7c-.8 0-1.5-.7-1.5-1.5s.7-1.5 1.5-1.5h7m16.4-2h-7c-1.9 0-3.5 1.6-3.5 3.5s1.6 3.5 3.5 3.5h7c1.9 0 3.5-1.6 3.5-3.5s-1.6-3.5-3.5-3.5zm-16.4 0h-7c-1.9 0-3.5 1.6-3.5 3.5s1.6 3.5 3.5 3.5h7c1.9 0 3.5-1.6 3.5-3.5s-1.5-3.5-3.5-3.5zm-19.3-1c.8 0 1.5.7 1.5 1.5v1.5H29c.8 0 1.5.7 1.5 1.5s-.7 1.5-1.5 1.5h-3c-.8 0-1.5-.7-1.5-1.5v-3c0-.8.7-1.5 1.5-1.5m0-2c-1.9 0-3.5 1.6-3.5 3.5v3c0 1.9 1.6 3.5 3.5 3.5h3c1.9 0 3.5-1.6 3.5-3.5 0-1.8-1.3-3.2-3-3.5-.3-1.7-1.7-3-3.5-3zm0-13.3c.8 0 1.5.7 1.5 1.5v6.5c0 .8-.7 1.5-1.5 1.5s-1.5-.7-1.5-1.5v-6.5c0-.8.7-1.5 1.5-1.5m0-2c-1.9 0-3.5 1.6-3.5 3.5v6.5c0 1.9 1.6 3.5 3.5 3.5s3.5-1.6 3.5-3.5v-6.5c0-1.9-1.6-3.5-3.5-3.5zm3-9.7c.8 0 1.5.7 1.5 1.5s-.7 1.5-1.5 1.5h-1.5V39c0 .8-.7 1.5-1.5 1.5s-1.5-.7-1.5-1.5v-3c0-.8.7-1.5 1.5-1.5h3m0-2h-3c-1.9 0-3.5 1.6-3.5 3.5v3c0 1.9 1.6 3.5 3.5 3.5 1.8 0 3.2-1.3 3.5-3 1.7-.2 3-1.7 3-3.5 0-1.9-1.6-3.5-3.5-3.5zm32.7 2c.8 0 1.5.7 1.5 1.5s-.7 1.5-1.5 1.5h-7c-.8 0-1.5-.7-1.5-1.5s.7-1.5 1.5-1.5h7m-16.4 0c.8 0 1.5.7 1.5 1.5s-.7 1.5-1.5 1.5h-7c-.8 0-1.5-.7-1.5-1.5s.7-1.5 1.5-1.5h7m16.4-2h-7c-1.9 0-3.5 1.6-3.5 3.5s1.6 3.5 3.5 3.5h7c1.9 0 3.5-1.6 3.5-3.5s-1.6-3.5-3.5-3.5zm-16.4 0h-7c-1.9 0-3.5 1.6-3.5 3.5s1.6 3.5 3.5 3.5h7c1.9 0 3.5-1.6 3.5-3.5s-1.5-3.5-3.5-3.5zm28.7 2c.8 0 1.5.7 1.5 1.5v3c0 .8-.7 1.5-1.5 1.5s-1.5-.7-1.5-1.5v-1.5H71c-.8 0-1.5-.7-1.5-1.5s.7-1.5 1.5-1.5h3m0-2h-3c-1.9 0-3.5 1.6-3.5 3.5 0 1.8 1.3 3.2 3 3.5.2 1.7 1.7 3 3.5 3 1.9 0 3.5-1.6 3.5-3.5v-3c0-1.9-1.6-3.5-3.5-3.5zm0 13.7c.8 0 1.5.7 1.5 1.5v6.5c0 .8-.7 1.5-1.5 1.5s-1.5-.7-1.5-1.5v-6.5c0-.8.7-1.5 1.5-1.5m0-2c-1.9 0-3.5 1.6-3.5 3.5v6.5c0 1.9 1.6 3.5 3.5 3.5s3.5-1.6 3.5-3.5v-6.5c0-1.9-1.6-3.5-3.5-3.5z"/></g></g></svg>