
<svg xmlns="http://www.w3.org/2000/svg" width="48" height="48" viewBox="0 0 100 100">
  <title>drawout</title>
  <g id="drawout" class="symbol simple">
			<rect id="bounding" width="100" height="100" fill="none"/>

			<rect id="mask" fill="none" x="38" y="41" width="24" height="18" />

			<path class="outer" d="M60.26,61.88A2.5,2.5,0,0,1,56,63.65l-6-6-6,6a2.5,2.5,0,0,1-3.54-3.54l7.76-7.76a2.52,2.52,0,0,1,3.54,0l7.76,7.76A2.53,2.53,0,0,1,60.26,61.88Z" fill="#282828"/>

			<path class="edging" opacity="0.65" d="M42.24,64.38a2.5,2.5,0,0,1-1.77-4.27l7.76-7.76a2.51,2.51,0,0,1,3.54,0l7.76,7.76A2.5,2.5,0,0,1,56,63.65l-6-6-6,6a2.53,2.53,0,0,1-1.77.73m0,2a4.47,4.47,0,0,0,3.18-1.32L50,60.48l4.58,4.58a4.5,4.5,0,1,0,6.36-6.36l-7.76-7.76a4.49,4.49,0,0,0-6.36,0L39.06,58.7a4.5,4.5,0,0,0,3.18,7.68Z" fill="#fff"/>

			<path class="outer" d="M60.26,45.88A2.5,2.5,0,0,1,56,47.65l-6-6-6,6a2.5,2.5,0,0,1-3.54-3.54l7.76-7.76a2.52,2.52,0,0,1,3.54,0l7.76,7.76A2.53,2.53,0,0,1,60.26,45.88Z" fill="#282828"/>

			<path class="edging" opacity="0.65" d="M42.24,48.38a2.5,2.5,0,0,1-1.77-4.27l7.76-7.76a2.51,2.51,0,0,1,3.54,0l7.76,7.76A2.5,2.5,0,0,1,56,47.65l-6-6-6,6a2.53,2.53,0,0,1-1.77.73m0,2a4.47,4.47,0,0,0,3.18-1.32L50,44.48l4.58,4.58a4.5,4.5,0,1,0,6.36-6.36l-7.76-7.76a4.49,4.49,0,0,0-6.36,0L39.06,42.7a4.5,4.5,0,0,0,3.18,7.68Z" fill="#fff"/>

		</g>

</svg>
		