<svg xmlns="http://www.w3.org/2000/svg" width="48" height="48" viewBox="0 0 100 100"><title>drawout</title><g class="symbol simple"><path fill="none" d="M0 0h100v100H0z"/><path fill="none" d="M38 41h24v18H38z"/><path class="outer" d="M60.26 61.88A2.5 2.5 0 0 1 56 63.65l-6-6-6 6a2.5 2.5 0 0 1-3.54-3.54l7.76-7.76a2.52 2.52 0 0 1 3.54 0l7.76 7.76a2.53 2.53 0 0 1 .74 1.77z" fill="#282828"/><path class="edging" opacity=".65" d="M42.24 64.38a2.5 2.5 0 0 1-1.77-4.27l7.76-7.76a2.51 2.51 0 0 1 3.54 0l7.76 7.76A2.5 2.5 0 0 1 56 63.65l-6-6-6 6a2.53 2.53 0 0 1-1.77.73m0 2a4.47 4.47 0 0 0 3.18-1.32L50 60.48l4.58 4.58a4.5 4.5 0 1 0 6.36-6.36l-7.76-7.76a4.49 4.49 0 0 0-6.36 0l-7.76 7.76a4.5 4.5 0 0 0 3.18 7.68z" fill="#fff"/><path class="outer" d="M60.26 45.88A2.5 2.5 0 0 1 56 47.65l-6-6-6 6a2.5 2.5 0 0 1-3.54-3.54l7.76-7.76a2.52 2.52 0 0 1 3.54 0l7.76 7.76a2.53 2.53 0 0 1 .74 1.77z" fill="#282828"/><path class="edging" opacity=".65" d="M42.24 48.38a2.5 2.5 0 0 1-1.77-4.27l7.76-7.76a2.51 2.51 0 0 1 3.54 0l7.76 7.76A2.5 2.5 0 0 1 56 47.65l-6-6-6 6a2.53 2.53 0 0 1-1.77.73m0 2a4.47 4.47 0 0 0 3.18-1.32L50 44.48l4.58 4.58a4.5 4.5 0 1 0 6.36-6.36l-7.76-7.76a4.49 4.49 0 0 0-6.36 0l-7.76 7.76a4.5 4.5 0 0 0 3.18 7.68z" fill="#fff"/></g></svg>