<?xml version="1.0" encoding="utf-8"?><svg version="1.1" id="a" xmlns="http://www.w3.org/2000/svg" xmlns:xlink="http://www.w3.org/1999/xlink" x="0px" y="0px" viewBox="0 0 48 48" enable-background="new 0 0 48 48" xml:space="preserve"><g><g><path fill="#282828" d="M32.95,25.02v2.03H14.64v-6.51h18.31v2.44V25.02z"/><path opacity="0.65" fill="#FFFFFF" enable-background="new    " d="M32.95,20.54v6.51H14.64v-6.51H32.95 M33.76,19.73H13.83v8.14h19.93V19.73z"/><linearGradient id="SVGID_1_" gradientUnits="userSpaceOnUse" x1="109.1596" y1="-55.3461" x2="109.1596" y2="-63.8206" gradientTransform="matrix(0.48 0 0 -0.48 -28.6 -4.6)"><stop  offset="0" style="stop-color:#666666"/><stop offset="1" style="stop-color:#4D4D4D"/></linearGradient><path fill="url(#SVGID_1_)" d="M15.86,21.97h15.86v4.07H15.86V21.97z"/><path opacity="0.35" fill="#FFFFFF" enable-background="new    " d="M15.86,21.97h15.86v0.41H15.86V21.97z"/></g><path fill="#282828" d="M5.78,20.22c-0.45-0.45-1.22-0.45-1.67,0l-2.97,2.97c-0.45,0.45-0.45,1.22,0,1.67l2.97,2.97c0.24,0.24,0.53,0.37,0.85,0.37c0.28,0,0.61-0.12,0.85-0.37c0.45-0.45,0.45-1.22,0-1.67L3.66,24l2.12-2.12C6.22,21.44,6.22,20.66,5.78,20.22z"/><path opacity="0.65" fill="#FFFFFF" enable-background="new    " d="M4.96,19.85c0.28,0,0.61,0.12,0.85,0.37c0.45,0.45,0.45,1.22,0,1.67L3.66,24l2.12,2.12c0.45,0.45,0.45,1.22,0,1.67c-0.24,0.24-0.53,0.37-0.85,0.37c-0.28,0-0.61-0.12-0.85-0.37L1.1,24.81c-0.45-0.45-0.45-1.22,0-1.67l2.97-2.97C4.35,19.97,4.64,19.85,4.96,19.85 M4.96,19.04c-0.53,0-1.02,0.2-1.42,0.57l-2.97,2.97C0.2,22.98,0,23.47,0,24s0.2,1.02,0.57,1.42l2.97,2.97c0.37,0.37,0.89,0.57,1.42,0.57s1.02-0.2,1.42-0.57c0.37-0.37,0.57-0.89,0.57-1.42c0-0.53-0.2-1.02-0.57-1.42L4.8,24l1.55-1.55c0.37-0.37,0.57-0.89,0.57-1.42c0-0.53-0.2-1.02-0.57-1.42C5.98,19.24,5.49,19.04,4.96,19.04z"/><path fill="#282828" d="M46.82,23.15l-2.97-2.97c-0.45-0.45-1.22-0.45-1.67,0c-0.45,0.45-0.45,1.22,0,1.67L44.34,24l-2.12,2.12c-0.45,0.45-0.45,1.22,0,1.67c0.24,0.24,0.53,0.37,0.85,0.37c0.28,0,0.61-0.12,0.85-0.37l2.97-2.97C47.31,24.37,47.31,23.63,46.82,23.15z"/><path opacity="0.65" fill="#FFFFFF" enable-background="new    " d="M43.04,19.85c0.28,0,0.61,0.12,0.85,0.37l2.97,2.97c0.45,0.45,0.45,1.22,0,1.67l-2.97,2.97c-0.24,0.24-0.53,0.37-0.85,0.37c-0.28,0-0.61-0.12-0.85-0.37c-0.45-0.45-0.45-1.22,0-1.67L44.34,24l-2.12-2.12c-0.45-0.45-0.45-1.22,0-1.67C42.47,19.97,42.75,19.85,43.04,19.85 M43.04,19.04c-0.53,0-1.02,0.2-1.42,0.57c-0.37,0.37-0.57,0.89-0.57,1.42c0,0.53,0.2,1.02,0.57,1.42L43.16,24l-1.55,1.55c-0.37,0.37-0.57,0.89-0.57,1.42c0,0.53,0.2,1.02,0.57,1.42c0.37,0.37,0.89,0.57,1.42,0.57c0.53,0,1.02-0.2,1.42-0.57l2.97-2.97C47.8,25.06,48,24.53,48,24s-0.2-1.02-0.57-1.42l-2.97-2.97C44.09,19.24,43.57,19.04,43.04,19.04z"/><g><path opacity="0.65" fill="#FFFFFF" enable-background="new    " d="M14.64,25.22h-3.25l0.89,0.89c0.45,0.45,0.45,1.22,0,1.67c-0.24,0.24-0.53,0.37-0.85,0.37c-0.28,0-0.61-0.12-0.85-0.37l-2.81-2.81c-0.24-0.16-0.41-0.45-0.49-0.77v-0.49c0.04-0.28,0.24-0.57,0.49-0.77l2.81-2.81c0.24-0.24,0.53-0.37,0.85-0.37c0.28,0,0.61,0.12,0.85,0.37c0.45,0.45,0.45,1.22,0,1.67l-0.89,0.98h3.25 M32.95,22.78h3.25l-0.89-0.89c-0.45-0.45-0.45-1.22,0-1.67c0.24-0.24,0.53-0.37,0.85-0.37c0.28,0,0.61,0.12,0.85,0.37l2.81,2.81c0.24,0.16,0.41,0.45,0.49,0.77v0.49c-0.04,0.28-0.24,0.57-0.49,0.77l-2.81,2.81c-0.24,0.24-0.53,0.37-0.85,0.37c-0.28,0-0.61-0.12-0.85-0.37c-0.45-0.45-0.45-1.22,0-1.67l0.89-0.98h-3.25 M33.76,26.03h0.61c-0.16,0.28-0.2,0.61-0.2,0.94c0,0.53,0.2,1.02,0.57,1.42c0.37,0.37,0.89,0.57,1.42,0.57c0.53,0,1.02-0.2,1.42-0.57l2.77-2.77c0.37-0.33,0.65-0.73,0.73-1.22c0-0.08,0.04-0.2,0.04-0.24v-0.28c0-0.08,0-0.16-0.04-0.24c-0.08-0.49-0.37-0.89-0.73-1.22l-2.77-2.77c-0.37-0.37-0.89-0.57-1.42-0.57c-0.53,0-1.02,0.2-1.42,0.57c-0.37,0.37-0.57,0.89-0.57,1.42c0,0.33,0.08,0.65,0.2,0.94h-0.61 M13.83,21.97h-0.61c0.16-0.28,0.2-0.61,0.2-0.94c0-0.53-0.2-1.02-0.57-1.42c-0.37-0.37-0.89-0.57-1.42-0.57c-0.53,0-1.02,0.2-1.42,0.57l-2.77,2.77c-0.37,0.33-0.65,0.73-0.73,1.22c-0.04,0.12-0.04,0.2-0.04,0.28v0.16c0,0.12,0,0.2,0.04,0.28c0.08,0.49,0.37,0.89,0.73,1.22l2.77,2.77c0.37,0.37,0.89,0.57,1.42,0.57c0.53,0,1.02-0.2,1.42-0.57c0.37-0.37,0.57-0.89,0.57-1.42c0-0.33-0.08-0.65-0.2-0.94h0.61"/><path fill="#282828" d="M32.95,25.22h3.25l-0.89,0.89c-0.45,0.45-0.45,1.22,0,1.67c0.24,0.24,0.53,0.37,0.85,0.37c0.28,0,0.61-0.12,0.85-0.37l2.81-2.81c0.24-0.16,0.41-0.45,0.49-0.77v-0.49c-0.04-0.33-0.24-0.57-0.49-0.77l-2.81-2.81c-0.45-0.45-1.22-0.45-1.67,0s-0.45,1.22,0,1.67l0.85,0.98h-3.25 M14.64,22.78h-3.25l0.89-0.89c0.45-0.45,0.45-1.22,0-1.67s-1.22-0.45-1.67,0l-2.81,2.81c-0.24,0.16-0.41,0.45-0.49,0.77v0.49c0.04,0.28,0.24,0.57,0.49,0.77l2.81,2.81c0.24,0.24,0.53,0.37,0.85,0.37c0.28,0,0.61-0.12,0.85-0.37c0.45-0.45,0.45-1.22,0-1.67l-0.94-0.98h3.25"/></g></g></svg>