<svg xmlns="http://www.w3.org/2000/svg" width="48" height="48" viewBox="0 0 100 100">
  <title>drawout-fuse</title>
<g id="drawout-fuse" class="symbol position" width="120px">
			<g class="test-label" opacity="0" transform="translate(10,0)">
				<path class="edging" opacity="0.65" fill="#FFFFFF" d="M66,69H34c-1.7,0-3-1.3-3-3V54c0-1.7,1.3-3,3-3h32c1.7,0,3,1.3,3,3v12C69,67.7,67.7,69,66,69
					z"/>
				<g class="test-label-text" opacity="0.8">
					<path d="M42.4,63.7h-1.9v-5.6h-1.7v-1.6h5.4v1.6h-1.7V63.7z"/>
					<path d="M49.4,63.7h-4.2v-7.1h4.2v1.5h-2.3v1.1h2.1v1.5h-2.1v1.3h2.3V63.7z"/>
					<path d="M55.3,61.5c0,0.4-0.1,0.8-0.3,1.2s-0.5,0.6-1,0.8s-0.9,0.3-1.5,0.3c-0.5,0-0.9,0-1.2-0.1s-0.7-0.2-1-0.3v-1.7
						c0.4,0.2,0.8,0.3,1.1,0.4s0.8,0.2,1.1,0.2c0.3,0,0.5,0,0.6-0.1s0.2-0.2,0.2-0.4c0-0.1,0-0.2-0.1-0.3c-0.1-0.1-0.1-0.1-0.3-0.2
						c-0.1-0.1-0.4-0.2-1-0.5c-0.5-0.2-0.8-0.4-1-0.6c-0.2-0.2-0.4-0.4-0.5-0.7c-0.1-0.3-0.2-0.6-0.2-0.9c0-0.7,0.2-1.2,0.7-1.5
						s1.1-0.6,2-0.6c0.7,0,1.5,0.2,2.3,0.5l-0.6,1.5C54,58.1,53.5,58,53,58c-0.3,0-0.4,0-0.5,0.1s-0.2,0.2-0.2,0.3
						c0,0.1,0.1,0.3,0.2,0.4c0.1,0.1,0.5,0.3,1.2,0.6c0.6,0.3,1,0.6,1.3,0.9C55.2,60.6,55.3,61,55.3,61.5z"/>
					<path d="M59.6,63.7h-1.9v-5.6h-1.7v-1.6h5.4v1.6h-1.7V63.7z"/>
				</g>
			</g>

			<g class="middle animate" connected="translate(0,0)" disconnected="translate(0, -30)" test="translate(0, -20)">
				<polygon class="outer" fill="#282828" points="82,53.5 82,58.5 37,58.5 37,53.5 37,48.5 37,42.5 82,42.5 82,48.5 		"/>
				<path class="edging" opacity="0.65" fill="#FFFFFF" d="M82,42.5v6v5v5H37v-5v-5v-6H82 M84,40.5h-2H37h-2v2v6v5v5v2h2h45h2v-2v-5v-5v-6V40.5
						L84,40.5z"/>
			

				<linearGradient id="DefaultGradient" gradientUnits="userSpaceOnUse" x1="59.5" y1="46" x2="59.5" y2="56">
					<stop  offset="0" style="stop-color:#666666"/>
					<stop  offset="1" style="stop-color:#4D4D4D"/>
				</linearGradient>
				<rect class="inner" x="40" y="46" fill="url(#DefaultGradient)" width="39" height="10"/>

				<rect class="highlight" opacity="0.35" fill="#FFFFFF" x="40" y="46" width="39" height="1"/>
			</g>

			<g id="left">
				<path class="outer" fill="#282828" d="M15.2,41.7c-1.1-1.1-3-1.1-4.1,0l-7.3,7.3c-1.1,1.1-1.1,3,0,4.1l7.3,7.3
						c0.6,0.6,1.3,0.9,2.1,0.9c0.7,0,1.5-0.3,2.1-0.9c1.1-1.1,1.1-3,0-4.1L10,51l5.2-5.2C16.3,44.7,16.3,42.8,15.2,41.7z"/>

				<path class="edging" opacity="0.65" fill="#FFFFFF" d="M13.2,40.8c0.7,0,1.5,0.3,2.1,0.9c1.1,1.1,1.1,3,0,4.1L10,51l5.2,5.2
					c1.1,1.1,1.1,3,0,4.1c-0.6,0.6-1.3,0.9-2.1,0.9c-0.7,0-1.5-0.3-2.1-0.9l-7.3-7.3c-1.1-1.1-1.1-3,0-4.1l7.3-7.3
					C11.7,41.1,12.4,40.8,13.2,40.8 M13.2,38.8c-1.3,0-2.5,0.5-3.5,1.4l-7.3,7.3C1.5,48.5,1,49.7,1,51c0,1.3,0.5,2.5,1.4,3.5
					l7.3,7.3c0.9,0.9,2.2,1.4,3.5,1.4c1.3,0,2.5-0.5,3.5-1.4c0.9-0.9,1.4-2.2,1.4-3.5c0-1.3-0.5-2.5-1.4-3.5L12.8,51l3.8-3.8
					c0.9-0.9,1.4-2.2,1.4-3.5c0-1.3-0.5-2.5-1.4-3.5C15.7,39.3,14.5,38.8,13.2,38.8L13.2,38.8z"/>
			</g>

			<g id="right">
				<path class="outer" fill="#282828" d="M116.1,48.9l-7.3-7.3c-1.1-1.1-3-1.1-4.1,0c-1.1,1.1-1.1,3,0,4.1L110,51l-5.2,5.2
					c-1.1,1.1-1.1,3,0,4.1c0.6,0.6,1.3,0.9,2.1,0.9c0.7,0,1.5-0.3,2.1-0.9l7.3-7.3C117.3,51.9,117.3,50.1,116.1,48.9z"/>
			
				<path class="edging" opacity="0.65" fill="#FFFFFF" d="M106.8,40.8c0.7,0,1.5,0.3,2.1,0.9l7.3,7.3c1.1,1.1,1.1,3,0,4.1l-7.3,7.3
					c-0.6,0.6-1.3,0.9-2.1,0.9c-0.7,0-1.5-0.3-2.1-0.9c-1.1-1.1-1.1-3,0-4.1L110,51l-5.2-5.2c-1.1-1.1-1.1-3,0-4.1
					C105.4,41.1,106.1,40.8,106.8,40.8 M106.8,38.8c-1.3,0-2.5,0.5-3.5,1.4c-0.9,0.9-1.4,2.2-1.4,3.5c0,1.3,0.5,2.5,1.4,3.5l3.8,3.8
					l-3.8,3.8c-0.9,0.9-1.4,2.2-1.4,3.5c0,1.3,0.5,2.5,1.4,3.5c0.9,0.9,2.2,1.4,3.5,1.4c1.3,0,2.5-0.5,3.5-1.4l7.3-7.3
					c0.9-0.9,1.4-2.2,1.4-3.5c0-1.3-0.5-2.5-1.4-3.5l-7.3-7.3C109.4,39.3,108.1,38.8,106.8,38.8L106.8,38.8z"/>
			</g>

			<g id="middle" class="animate" connected="translate(0,0)" disconnected="translate(0, -30)" test="translate(0, -20)">
				<path class="edging" opacity="0.65" fill="#FFFFFF" d="M37,54h-8l2.2,2.2c1.1,1.1,1.1,3,0,4.1c-0.6,0.6-1.3,0.9-2.1,0.9c-0.7,0-1.5-0.3-2.1-0.9
					l-6.9-6.9c-0.6-0.4-1-1.1-1.2-1.9c0-0.2,0-0.3,0-0.5c0,0,0-0.1,0-0.1c0,0,0-0.1,0-0.1c0-0.2,0-0.3,0-0.5
					c0.1-0.7,0.6-1.4,1.2-1.9l6.9-6.9c0.6-0.6,1.3-0.9,2.1-0.9c0.7,0,1.5,0.3,2.1,0.9c1.1,1.1,1.1,3,0,4.1L29,48h8 M82,48h8
					l-2.2-2.2c-1.1-1.1-1.1-3,0-4.1c0.6-0.6,1.3-0.9,2.1-0.9c0.7,0,1.5,0.3,2.1,0.9l6.9,6.9c0.6,0.4,1,1.1,1.2,1.9
					c0,0.1,0,0.3,0,0.4c0,0.1,0,0.1,0,0.2c0,0.1,0,0.1,0,0.2c0,0.1,0,0.3,0,0.4c-0.1,0.7-0.6,1.4-1.2,1.9l-6.9,6.9
					c-0.6,0.6-1.3,0.9-2.1,0.9c-0.7,0-1.5-0.3-2.1-0.9c-1.1-1.1-1.1-3,0-4.1L90,54h-8 M84,56h1.5c-0.4,0.7-0.5,1.5-0.5,2.3
					c0,1.3,0.5,2.5,1.4,3.5c0.9,0.9,2.2,1.4,3.5,1.4c1.3,0,2.5-0.5,3.5-1.4l6.8-6.8c0.9-0.8,1.6-1.8,1.8-3c0-0.2,0.1-0.5,0.1-0.6
					c0-0.1,0-0.2,0-0.3c0-0.1,0-0.2,0-0.4c0-0.2,0-0.4-0.1-0.6c-0.2-1.2-0.9-2.2-1.8-3l-6.8-6.8c-0.9-0.9-2.2-1.4-3.5-1.4
					c-1.3,0-2.5,0.5-3.5,1.4c-0.9,0.9-1.4,2.2-1.4,3.5c0,0.8,0.2,1.6,0.5,2.3H84 M35,46h-1.5c0.4-0.7,0.5-1.5,0.5-2.3
					c0-1.3-0.5-2.5-1.4-3.5c-0.9-0.9-2.2-1.4-3.5-1.4c-1.3,0-2.5,0.5-3.5,1.4l-6.8,6.8c-0.9,0.8-1.6,1.8-1.8,3
					c-0.1,0.3-0.1,0.5-0.1,0.7c0,0.1,0,0.2,0,0.2v0.1l0,0.1c0,0.3,0,0.5,0.1,0.7c0.2,1.2,0.9,2.2,1.8,3l6.8,6.8
					c0.9,0.9,2.2,1.4,3.5,1.4c1.3,0,2.5-0.5,3.5-1.4c0.9-0.9,1.4-2.2,1.4-3.5c0-0.8-0.2-1.6-0.5-2.3H35"/>

				<path class="outer" fill="#282828" d="M82,54h8l-2.2,2.2c-1.1,1.1-1.1,3,0,4.1c0.6,0.6,1.3,0.9,2.1,0.9c0.7,0,1.5-0.3,2.1-0.9
					l6.9-6.9c0.6-0.4,1-1.1,1.2-1.9c0-0.1,0-0.3,0-0.4c0-0.1,0-0.1,0-0.2c0-0.1,0-0.1,0-0.2c0-0.1,0-0.3,0-0.4
					c-0.1-0.8-0.6-1.4-1.2-1.9l-6.9-6.9c-1.1-1.1-3-1.1-4.1,0c-1.1,1.1-1.1,3,0,4.1L90,48h-8"/>
				<path class="outer" fill="#282828" d="M37,48h-8l2.2-2.2c1.1-1.1,1.1-3,0-4.1c-1.1-1.1-3-1.1-4.1,0l-6.9,6.9
					c-0.6,0.4-1,1.1-1.2,1.9c0,0.2,0,0.3,0,0.5c0,0,0,0.1,0,0.1c0,0,0,0.1,0,0.1c0,0.2,0,0.3,0,0.5c0.1,0.7,0.6,1.4,1.2,1.9l6.9,6.9
					c0.6,0.6,1.3,0.9,2.1,0.9c0.7,0,1.5-0.3,2.1-0.9c1.1-1.1,1.1-3,0-4.1L29,54h8"/>
			</g>

			<g class="dotted-slot" opacity="0" transform="translate(10, 0)">
				<path opacity=".65" class="edging" fill="#FFFFFF" d="M86,58.5c-1.8,0-3.2,1.3-3.5,3c-1.7,0.2-3,1.7-3,3.5c0,1.9,1.6,3.5,3.5,3.5h3c1.9,0,3.5-1.6,3.5-3.5v-3
					C89.5,60.1,87.9,58.5,86,58.5z"/>
				<path opacity=".65" class="edging" fill="#FFFFFF" d="M18.5,61.5c-0.2-1.7-1.7-3-3.5-3c-1.9,0-3.5,1.6-3.5,3.5v3c0,1.9,1.6,3.5,3.5,3.5h3c1.9,0,3.5-1.6,3.5-3.5
					C21.5,63.2,20.2,61.8,18.5,61.5z"/>
				<path opacity=".65" class="edging" fill="#FFFFFF" d="M15,56.8c1.9,0,3.5-1.6,3.5-3.5v-6.5c0-1.9-1.6-3.5-3.5-3.5s-3.5,1.6-3.5,3.5v6.5
					C11.5,55.2,13.1,56.8,15,56.8z"/>
				<path opacity=".65" class="edging" fill="#FFFFFF" d="M18,31.5h-3c-1.9,0-3.5,1.6-3.5,3.5v3c0,1.9,1.6,3.5,3.5,3.5c1.8,0,3.2-1.3,3.5-3c1.7-0.2,3-1.7,3-3.5
					C21.5,33.1,19.9,31.5,18,31.5z"/>
				<path opacity=".65" class="edging" fill="#FFFFFF" d="M34.3,61.5h-7c-1.9,0-3.5,1.6-3.5,3.5s1.6,3.5,3.5,3.5h7c1.9,0,3.5-1.6,3.5-3.5S36.3,61.5,34.3,61.5z"/>
				<path opacity=".65" class="edging" fill="#FFFFFF" d="M73.7,61.5h-7c-1.9,0-3.5,1.6-3.5,3.5s1.6,3.5,3.5,3.5h7c1.9,0,3.5-1.6,3.5-3.5S75.6,61.5,73.7,61.5z"/>
				<path opacity=".65" class="edging" fill="#FFFFFF" d="M57.3,61.5h-6.7h-0.3h-6.7c-1.9,0-3.5,1.6-3.5,3.5s1.6,3.5,3.5,3.5h6.7h0.3h6.7c1.9,0,3.5-1.6,3.5-3.5
					S59.3,61.5,57.3,61.5z"/>
				<path opacity=".65" class="edging" fill="#FFFFFF" d="M27.3,38.5h7c1.9,0,3.5-1.6,3.5-3.5s-1.6-3.5-3.5-3.5h-7c-1.9,0-3.5,1.6-3.5,3.5S25.4,38.5,27.3,38.5z"/>
				<path opacity=".65" class="edging" fill="#FFFFFF" d="M66.7,38.5h7c1.9,0,3.5-1.6,3.5-3.5s-1.6-3.5-3.5-3.5h-7c-1.9,0-3.5,1.6-3.5,3.5S64.7,38.5,66.7,38.5z"/>
				<path opacity=".65" class="edging" fill="#FFFFFF" d="M43.7,38.5h6.7h0.3h6.7c1.9,0,3.5-1.6,3.5-3.5s-1.6-3.5-3.5-3.5h-6.7h-0.3h-6.7c-1.9,0-3.5,1.6-3.5,3.5
					S41.7,38.5,43.7,38.5z"/>
				<path opacity=".65" class="edging" fill="#FFFFFF" d="M86,31.5h-3c-1.9,0-3.5,1.6-3.5,3.5c0,1.8,1.3,3.2,3,3.5c0.2,1.7,1.7,3,3.5,3c1.9,0,3.5-1.6,3.5-3.5v-3
					C89.5,33.1,87.9,31.5,86,31.5z"/>
				<path opacity=".65" class="edging" fill="#FFFFFF" d="M86,43.2c-1.9,0-3.5,1.6-3.5,3.5v6.5c0,1.9,1.6,3.5,3.5,3.5s3.5-1.6,3.5-3.5v-6.5
					C89.5,44.8,87.9,43.2,86,43.2z"/>

				<path fill="#282828" class="outer" d="M86,60.5c-0.8,0-1.5,0.7-1.5,1.5v1.5H83c-0.8,0-1.5,0.7-1.5,1.5s0.7,1.5,1.5,1.5h3c0.8,0,1.5-0.7,1.5-1.5
					v-3C87.5,61.2,86.8,60.5,86,60.5z"/>
				<path fill="#282828" class="outer" d="M18,63.5h-1.5V62c0-0.8-0.7-1.5-1.5-1.5s-1.5,0.7-1.5,1.5v3c0,0.8,0.7,1.5,1.5,1.5h3c0.8,0,1.5-0.7,1.5-1.5
					S18.8,63.5,18,63.5z"/>
				<path fill="#282828" class="outer" d="M15,54.8c0.8,0,1.5-0.7,1.5-1.5v-6.5c0-0.8-0.7-1.5-1.5-1.5s-1.5,0.7-1.5,1.5v6.5
					C13.5,54.1,14.2,54.8,15,54.8z"/>
				<path fill="#282828" class="outer" d="M18,33.5h-3c-0.8,0-1.5,0.7-1.5,1.5v3c0,0.8,0.7,1.5,1.5,1.5s1.5-0.7,1.5-1.5v-1.5H18
					c0.8,0,1.5-0.7,1.5-1.5S18.8,33.5,18,33.5z"/>
				<path fill="#282828" class="outer" d="M86,33.5h-3c-0.8,0-1.5,0.7-1.5,1.5s0.7,1.5,1.5,1.5h1.5V38c0,0.8,0.7,1.5,1.5,1.5s1.5-0.7,1.5-1.5v-3
					C87.5,34.2,86.8,33.5,86,33.5z"/>
				<path fill="#282828" class="outer" d="M86,45.2c-0.8,0-1.5,0.7-1.5,1.5v6.5c0,0.8,0.7,1.5,1.5,1.5s1.5-0.7,1.5-1.5v-6.5
					C87.5,45.9,86.8,45.2,86,45.2z"/>
				<path fill="#282828" class="outer" d="M34.3,63.5h-7c-0.8,0-1.5,0.7-1.5,1.5s0.7,1.5,1.5,1.5h7c0.8,0,1.5-0.7,1.5-1.5S35.2,63.5,34.3,63.5z"/>
				<path fill="#282828" class="outer" d="M27.3,36.5h7c0.8,0,1.5-0.7,1.5-1.5s-0.7-1.5-1.5-1.5h-7c-0.8,0-1.5,0.7-1.5,1.5S26.5,36.5,27.3,36.5z"/>
				<path fill="#282828" class="outer" d="M43.7,36.5h6.7h0.3h6.7c0.8,0,1.5-0.7,1.5-1.5s-0.7-1.5-1.5-1.5h-6.7h-0.3h-6.7c-0.8,0-1.5,0.7-1.5,1.5
					S42.8,36.5,43.7,36.5z"/>
				<path fill="#282828" class="outer" d="M73.7,63.5h-7c-0.8,0-1.5,0.7-1.5,1.5s0.7,1.5,1.5,1.5h7c0.8,0,1.5-0.7,1.5-1.5S74.5,63.5,73.7,63.5z"/>
				<path fill="#282828" class="outer" d="M57.3,63.5h-6.7h-0.3h-6.7c-0.8,0-1.5,0.7-1.5,1.5s0.7,1.5,1.5,1.5h6.7h0.3h6.7c0.8,0,1.5-0.7,1.5-1.5
					S58.2,63.5,57.3,63.5z"/>
				<path fill="#282828" class="outer" d="M66.7,36.5h7c0.8,0,1.5-0.7,1.5-1.5s-0.7-1.5-1.5-1.5h-7c-0.8,0-1.5,0.7-1.5,1.5S65.8,36.5,66.7,36.5z"/>
			</g>

		</g>
</svg>