<svg xmlns="http://www.w3.org/2000/svg" width="48" height="48" viewBox="0 0 100 100"><title>drawout-fuse</title><g class="symbol position"><g class="middle animate"><path class="outer" fill="#282828" d="M82 53.5v5H37v-16h45v6z"/><path class="edging" opacity=".65" fill="#FFF" d="M82 42.5v16H37v-16h45m2-2H35v20h49v-20z"/><linearGradient id="a" gradientUnits="userSpaceOnUse" x1="59.5" y1="46" x2="59.5" y2="56"><stop offset="0" stop-color="#666"/><stop offset="1" stop-color="#4d4d4d"/></linearGradient><path class="inner" fill="url(#a)" d="M40 46h39v10H40z"/><path class="highlight" opacity=".35" fill="#FFF" d="M40 46h39v1H40z"/></g><path class="outer" fill="#282828" d="M15.2 41.7c-1.1-1.1-3-1.1-4.1 0L3.8 49c-1.1 1.1-1.1 3 0 4.1l7.3 7.3c.6.6 1.3.9 2.1.9.7 0 1.5-.3 2.1-.9 1.1-1.1 1.1-3 0-4.1L10 51l5.2-5.2c1.1-1.1 1.1-3 0-4.1z"/><path class="edging" opacity=".65" fill="#FFF" d="M13.2 40.8c.7 0 1.5.3 2.1.9 1.1 1.1 1.1 3 0 4.1L10 51l5.2 5.2c1.1 1.1 1.1 3 0 4.1-.6.6-1.3.9-2.1.9-.7 0-1.5-.3-2.1-.9L3.7 53c-1.1-1.1-1.1-3 0-4.1l7.3-7.3c.7-.5 1.4-.8 2.2-.8m0-2c-1.3 0-2.5.5-3.5 1.4l-7.3 7.3C1.5 48.5 1 49.7 1 51c0 1.3.5 2.5 1.4 3.5l7.3 7.3c.9.9 2.2 1.4 3.5 1.4 1.3 0 2.5-.5 3.5-1.4.9-.9 1.4-2.2 1.4-3.5 0-1.3-.5-2.5-1.4-3.5L12.8 51l3.8-3.8c.9-.9 1.4-2.2 1.4-3.5 0-1.3-.5-2.5-1.4-3.5-.9-.9-2.1-1.4-3.4-1.4z"/><path class="outer" fill="#282828" d="M116.1 48.9l-7.3-7.3c-1.1-1.1-3-1.1-4.1 0-1.1 1.1-1.1 3 0 4.1L110 51l-5.2 5.2c-1.1 1.1-1.1 3 0 4.1.6.6 1.3.9 2.1.9.7 0 1.5-.3 2.1-.9l7.3-7.3c1-1.1 1-2.9-.2-4.1z"/><path class="edging" opacity=".65" fill="#FFF" d="M106.8 40.8c.7 0 1.5.3 2.1.9l7.3 7.3c1.1 1.1 1.1 3 0 4.1l-7.3 7.3c-.6.6-1.3.9-2.1.9-.7 0-1.5-.3-2.1-.9-1.1-1.1-1.1-3 0-4.1L110 51l-5.2-5.2c-1.1-1.1-1.1-3 0-4.1.6-.6 1.3-.9 2-.9m0-2c-1.3 0-2.5.5-3.5 1.4-.9.9-1.4 2.2-1.4 3.5 0 1.3.5 2.5 1.4 3.5l3.8 3.8-3.8 3.8c-.9.9-1.4 2.2-1.4 3.5 0 1.3.5 2.5 1.4 3.5.9.9 2.2 1.4 3.5 1.4 1.3 0 2.5-.5 3.5-1.4l7.3-7.3c.9-.9 1.4-2.2 1.4-3.5 0-1.3-.5-2.5-1.4-3.5l-7.3-7.3c-.9-.9-2.2-1.4-3.5-1.4z"/><g class="animate"><path class="edging" opacity=".65" fill="#FFF" d="M37 54h-8l2.2 2.2c1.1 1.1 1.1 3 0 4.1-.6.6-1.3.9-2.1.9-.7 0-1.5-.3-2.1-.9l-6.9-6.9c-.6-.4-1-1.1-1.2-1.9v-1.2c.1-.7.6-1.4 1.2-1.9l6.9-6.9c.6-.6 1.3-.9 2.1-.9.7 0 1.5.3 2.1.9 1.1 1.1 1.1 3 0 4.1L29 48h8m45 0h8l-2.2-2.2c-1.1-1.1-1.1-3 0-4.1.6-.6 1.3-.9 2.1-.9.7 0 1.5.3 2.1.9l6.9 6.9c.6.4 1 1.1 1.2 1.9v1.2c-.1.7-.6 1.4-1.2 1.9L92 60.5c-.6.6-1.3.9-2.1.9-.7 0-1.5-.3-2.1-.9-1.1-1.1-1.1-3 0-4.1L90 54h-8m2 2h1.5c-.4.7-.5 1.5-.5 2.3 0 1.3.5 2.5 1.4 3.5.9.9 2.2 1.4 3.5 1.4 1.3 0 2.5-.5 3.5-1.4l6.8-6.8c.9-.8 1.6-1.8 1.8-3 0-.2.1-.5.1-.6v-.7c0-.2 0-.4-.1-.6-.2-1.2-.9-2.2-1.8-3l-6.8-6.8c-.9-.9-2.2-1.4-3.5-1.4-1.3 0-2.5.5-3.5 1.4-.9.9-1.4 2.2-1.4 3.5 0 .8.2 1.6.5 2.3H84M35 46h-1.5c.4-.7.5-1.5.5-2.3 0-1.3-.5-2.5-1.4-3.5-.9-.9-2.2-1.4-3.5-1.4-1.3 0-2.5.5-3.5 1.4L18.8 47c-.9.8-1.6 1.8-1.8 3-.1.3-.1.5-.1.7v.4c0 .3 0 .5.1.7.2 1.2.9 2.2 1.8 3l6.8 6.8c.9.9 2.2 1.4 3.5 1.4 1.3 0 2.5-.5 3.5-1.4.9-.9 1.4-2.2 1.4-3.5 0-.8-.2-1.6-.5-2.3H35"/><path class="outer" fill="#282828" d="M82 54h8l-2.2 2.2c-1.1 1.1-1.1 3 0 4.1.6.6 1.3.9 2.1.9.7 0 1.5-.3 2.1-.9l6.9-6.9c.6-.4 1-1.1 1.2-1.9v-1.2c-.1-.8-.6-1.4-1.2-1.9L92 41.5c-1.1-1.1-3-1.1-4.1 0-1.1 1.1-1.1 3 0 4.1L90 48h-8m-45 0h-8l2.2-2.2c1.1-1.1 1.1-3 0-4.1-1.1-1.1-3-1.1-4.1 0l-6.9 6.9c-.6.4-1 1.1-1.2 1.9v1.2c.1.7.6 1.4 1.2 1.9l6.9 6.9c.6.6 1.3.9 2.1.9.7 0 1.5-.3 2.1-.9 1.1-1.1 1.1-3 0-4.1L29 54h8"/></g></g></svg>