<svg xmlns="http://www.w3.org/2000/svg" width="48" height="48" viewBox="0 0 48 48"><path fill="#282828" d="M32.95 25.02v2.03H14.64v-6.51h18.31v4.48z"/><path opacity=".65" fill="#FFF" d="M32.95 20.54v6.51H14.64v-6.51h18.31m.81-.81H13.83v8.14h19.93v-8.14z"/><linearGradient id="a" gradientUnits="userSpaceOnUse" x1="109.16" y1="-55.346" x2="109.16" y2="-63.821" gradientTransform="matrix(.48 0 0 -.48 -28.6 -4.6)"><stop offset="0" stop-color="#666"/><stop offset="1" stop-color="#4d4d4d"/></linearGradient><path fill="url(#a)" d="M15.86 21.97h15.86v4.07H15.86v-4.07z"/><path opacity=".35" fill="#FFF" d="M15.86 21.97h15.86v.41H15.86v-.41z"/><path fill="#282828" d="M5.78 20.22c-.45-.45-1.22-.45-1.67 0l-2.97 2.97c-.45.45-.45 1.22 0 1.67l2.97 2.97c.24.24.53.37.85.37.28 0 .61-.12.85-.37.45-.45.45-1.22 0-1.67L3.66 24l2.12-2.12c.44-.44.44-1.22 0-1.66z"/><path opacity=".65" fill="#FFF" d="M4.96 19.85c.28 0 .61.12.85.37.45.45.45 1.22 0 1.67L3.66 24l2.12 2.12c.45.45.45 1.22 0 1.67-.24.24-.53.37-.85.37-.28 0-.61-.12-.85-.37L1.1 24.81c-.45-.45-.45-1.22 0-1.67l2.97-2.97c.28-.2.57-.32.89-.32m0-.81c-.53 0-1.02.2-1.42.57L.57 22.58C.2 22.98 0 23.47 0 24s.2 1.02.57 1.42l2.97 2.97c.37.37.89.57 1.42.57s1.02-.2 1.42-.57c.37-.37.57-.89.57-1.42 0-.53-.2-1.02-.57-1.42L4.8 24l1.55-1.55c.37-.37.57-.89.57-1.42 0-.53-.2-1.02-.57-1.42-.37-.37-.86-.57-1.39-.57z"/><path fill="#282828" d="M46.82 23.15l-2.97-2.97c-.45-.45-1.22-.45-1.67 0-.45.45-.45 1.22 0 1.67L44.34 24l-2.12 2.12c-.45.45-.45 1.22 0 1.67.24.24.53.37.85.37.28 0 .61-.12.85-.37l2.97-2.97c.42-.45.42-1.19-.07-1.67z"/><path opacity=".65" fill="#FFF" d="M43.04 19.85c.28 0 .61.12.85.37l2.97 2.97c.45.45.45 1.22 0 1.67l-2.97 2.97c-.24.24-.53.37-.85.37-.28 0-.61-.12-.85-.37-.45-.45-.45-1.22 0-1.67L44.34 24l-2.12-2.12c-.45-.45-.45-1.22 0-1.67.25-.24.53-.36.82-.36m0-.81c-.53 0-1.02.2-1.42.57-.37.37-.57.89-.57 1.42 0 .53.2 1.02.57 1.42L43.16 24l-1.55 1.55c-.37.37-.57.89-.57 1.42 0 .53.2 1.02.57 1.42.37.37.89.57 1.42.57.53 0 1.02-.2 1.42-.57l2.97-2.97c.38-.36.58-.89.58-1.42s-.2-1.02-.57-1.42l-2.97-2.97c-.37-.37-.89-.57-1.42-.57z"/><path opacity=".65" fill="#FFF" d="M14.64 25.22h-3.25l.89.89c.45.45.45 1.22 0 1.67-.24.24-.53.37-.85.37-.28 0-.61-.12-.85-.37l-2.81-2.81c-.24-.16-.41-.45-.49-.77v-.49c.04-.28.24-.57.49-.77l2.81-2.81c.24-.24.53-.37.85-.37.28 0 .61.12.85.37.45.45.45 1.22 0 1.67l-.89.98h3.25m18.31 0h3.25l-.89-.89c-.45-.45-.45-1.22 0-1.67.24-.24.53-.37.85-.37.28 0 .61.12.85.37l2.81 2.81c.24.16.41.45.49.77v.49c-.04.28-.24.57-.49.77l-2.81 2.81c-.24.24-.53.37-.85.37-.28 0-.61-.12-.85-.37-.45-.45-.45-1.22 0-1.67l.89-.98h-3.25m.81.81h.61c-.16.28-.2.61-.2.94 0 .53.2 1.02.57 1.42.37.37.89.57 1.42.57.53 0 1.02-.2 1.42-.57l2.77-2.77c.37-.33.65-.73.73-1.22 0-.08.04-.2.04-.24v-.28c0-.08 0-.16-.04-.24-.08-.49-.37-.89-.73-1.22l-2.77-2.77c-.37-.37-.89-.57-1.42-.57-.53 0-1.02.2-1.42.57-.37.37-.57.89-.57 1.42 0 .33.08.65.2.94h-.61m-19.93-.04h-.61c.16-.28.2-.61.2-.94 0-.53-.2-1.02-.57-1.42-.37-.37-.89-.57-1.42-.57-.53 0-1.02.2-1.42.57l-2.77 2.77c-.37.33-.65.73-.73 1.22-.04.12-.04.2-.04.28v.16c0 .12 0 .2.04.28.08.49.37.89.73 1.22l2.77 2.77c.37.37.89.57 1.42.57.53 0 1.02-.2 1.42-.57.37-.37.57-.89.57-1.42 0-.33-.08-.65-.2-.94h.61"/><path fill="#282828" d="M32.95 25.22h3.25l-.89.89c-.45.45-.45 1.22 0 1.67.24.24.53.37.85.37.28 0 .61-.12.85-.37l2.81-2.81c.24-.16.41-.45.49-.77v-.49c-.04-.33-.24-.57-.49-.77l-2.81-2.81c-.45-.45-1.22-.45-1.67 0s-.45 1.22 0 1.67l.85.98h-3.25m-18.3 0h-3.25l.89-.89c.45-.45.45-1.22 0-1.67s-1.22-.45-1.67 0L7.8 23.03c-.24.16-.41.45-.49.77v.49c.04.28.24.57.49.77l2.81 2.81c.24.24.53.37.85.37.28 0 .61-.12.85-.37.45-.45.45-1.22 0-1.67l-.94-.98h3.25"/></svg>