<svg xmlns="http://www.w3.org/2000/svg" width="48" height="48" viewBox="0 0 100 100">
  <title>drive</title>
  <g id="drive" class="symbol">
			<g id="bound">
				<rect class="" x="0" y="0" width="100" height="100" opacity="0"/>
			</g>

			<path class="outer" fill="#282828" d="M70,63c0,3.9-3.1,7-7,7H38c-3.9,0-7-3.1-7-7V38c0-3.9,3.1-7,7-7h25c3.9,0,7,3.1,7,7V63z"/>

			<path class="edging" opacity="0.65" fill="#FFFFFF" d="M63,31c3.9,0,7,3.1,7,7v25c0,3.9-3.1,7-7,7H38c-3.9,0-7-3.1-7-7V38c0-3.9,3.1-7,7-7H63 M63,28H38
					c-5.5,0-10,4.5-10,10v25c0,5.5,4.5,10,10,10h25c5.5,0,10-4.5,10-10V38C73,32.5,68.5,28,63,28L63,28z"/>

			<linearGradient id="DefaultGradient" gradientUnits="userSpaceOnUse" x1="50.5" y1="34" x2="50.5" y2="67">
				<stop  offset="0" style="stop-color:#666666"/>
				<stop  offset="1" style="stop-color:#4D4D4D"/>
			</linearGradient>
			<path class="inner" fill="url(#DefaultGradient)" d="M67,63c0,2.2-1.8,4-4,4H38c-2.2,0-4-1.8-4-4V38c0-2.2,1.8-4,4-4H63c2.2,0,4,1.8,4,4V63z"/>

			<g class="center">
				<circle fill="#282828" cx="50.3" cy="50.5" r="11.4"/>
				<circle fill="#F2F2F2" cx="50.3" cy="50.5" r="2.5"/>
				<circle fill="#F2F2F2" cx="61.8" cy="39.1" r="1.6"/>
			</g>
			<path class="highlight" opacity="0.35" fill="#FFFFFF" d="M38,35.1H63c1.8,0,3.3,1.2,3.8,2.9H67c0-2.2-1.8-4-4-4H38c-2.2,0-4,1.8-4,4h0.2
				C34.7,36.3,36.2,35.1,38,35.1z"/>
	</g>

</svg>