<svg xmlns="http://www.w3.org/2000/svg" width="48" height="48" viewBox="0 0 100 100"><title>drive</title><g class="symbol"><path class="outer" fill="#282828" d="M70 63c0 3.9-3.1 7-7 7H38c-3.9 0-7-3.1-7-7V38c0-3.9 3.1-7 7-7h25c3.9 0 7 3.1 7 7v25z"/><path class="edging" opacity=".65" fill="#FFF" d="M63 31c3.9 0 7 3.1 7 7v25c0 3.9-3.1 7-7 7H38c-3.9 0-7-3.1-7-7V38c0-3.9 3.1-7 7-7h25m0-3H38c-5.5 0-10 4.5-10 10v25c0 5.5 4.5 10 10 10h25c5.5 0 10-4.5 10-10V38c0-5.5-4.5-10-10-10z"/><linearGradient id="a" gradientUnits="userSpaceOnUse" x1="50.5" y1="34" x2="50.5" y2="67"><stop offset="0" stop-color="#666"/><stop offset="1" stop-color="#4d4d4d"/></linearGradient><path class="inner" fill="url(#a)" d="M67 63c0 2.2-1.8 4-4 4H38c-2.2 0-4-1.8-4-4V38c0-2.2 1.8-4 4-4h25c2.2 0 4 1.8 4 4v25z"/><g class="center"><circle fill="#282828" cx="50.3" cy="50.5" r="11.4"/><circle fill="#F2F2F2" cx="50.3" cy="50.5" r="2.5"/><circle fill="#F2F2F2" cx="61.8" cy="39.1" r="1.6"/></g><path class="highlight" opacity=".35" fill="#FFF" d="M38 35.1h25c1.8 0 3.3 1.2 3.8 2.9h.2c0-2.2-1.8-4-4-4H38c-2.2 0-4 1.8-4 4h.2c.5-1.7 2-2.9 3.8-2.9z"/></g></svg>