<svg xmlns="http://www.w3.org/2000/svg" width="48" height="48" viewBox="0 0 100 100"><title>fan</title><g class="symbol load hvac"><path fill="none" d="M0 0h100v100H0z"/><g class="animate"><path class="outer" d="M51.11 24A10.19 10.19 0 0 0 42 29c-2.3 3.84-2.26 9.33 0 14.74a3.2 3.2 0 0 1-1.38-1.34 8.9 8.9 0 0 0-7.86-5.16c-4.33 0-8.7 3.6-8.7 11.66 0 6.51 4.69 10.89 11.67 10.89a21 21 0 0 0 8-1.69 3.19 3.19 0 0 1-1.3 1.3 8.76 8.76 0 0 0-5 9.68c.34 1.57 2.3 6.92 11.39 6.92A10.22 10.22 0 0 0 58 71c2.3-3.86 2.27-9.34 0-14.76a3.25 3.25 0 0 1 1.38 1.34 8.93 8.93 0 0 0 7.88 5.18c4.34 0 8.71-3.6 8.71-11.65 0-6.53-4.7-10.91-11.7-10.91a21 21 0 0 0-8 1.69 3.32 3.32 0 0 1 1.3-1.3 8.73 8.73 0 0 0 5-9.65C62.19 29.35 60.23 24 51.11 24z" fill="#282828"/><path class="edging" opacity=".65" d="M51.11 24c9.12 0 11.08 5.32 11.47 7a8.73 8.73 0 0 1-5 9.65 3.32 3.32 0 0 0-1.3 1.3 21 21 0 0 1 8-1.69c7 0 11.7 4.38 11.7 10.91 0 8.05-4.37 11.65-8.71 11.65a8.93 8.93 0 0 1-7.88-5.18A3.25 3.25 0 0 0 58 56.28c2.26 5.42 2.29 10.9 0 14.76A10.22 10.22 0 0 1 48.82 76c-9.09 0-11-5.32-11.44-6.94a8.76 8.76 0 0 1 5-9.68 3.19 3.19 0 0 0 1.3-1.3 21 21 0 0 1-8 1.69c-7 0-11.67-4.38-11.67-10.89 0-8.06 4.37-11.66 8.7-11.66a8.9 8.9 0 0 1 7.86 5.16 3.2 3.2 0 0 0 1.38 1.34c-2.25-5.41-2.29-10.9 0-14.74A10.19 10.19 0 0 1 51.11 24m0-2a12.15 12.15 0 0 0-10.88 5.89 15.64 15.64 0 0 0-1.95 8.93 10.27 10.27 0 0 0-5.58-1.66 9.72 9.72 0 0 0-7.49 3.51c-2.1 2.45-3.21 6-3.21 10.15 0 7.59 5.62 12.89 13.67 12.89h1.15a10.09 10.09 0 0 0-1.38 7.78c.47 2 2.82 8.48 13.38 8.48a12.16 12.16 0 0 0 10.92-5.91 15.65 15.65 0 0 0 1.95-8.94 10.3 10.3 0 0 0 5.6 1.68 9.77 9.77 0 0 0 7.5-3.51c2.1-2.45 3.21-5.95 3.21-10.14 0-7.6-5.64-12.91-13.7-12.91h-1.15a10.07 10.07 0 0 0 1.37-7.75c-.47-2-2.82-8.49-13.41-8.49z" fill="#fff"/><linearGradient id="a" x1="50" y1="72.97" x2="50" y2="27.03" gradientUnits="userSpaceOnUse"><stop offset="0" stop-color="#ccc"/><stop offset="1" stop-color="#e6e6e6"/></linearGradient><path class="inner" d="M62.09 56.27a6 6 0 0 0 5.2 3.53c2.89 0 5.71-2.59 5.71-8.65 0-5.28-3.76-7.91-8.7-7.91a19.17 19.17 0 0 0-8.94 2.47 6.92 6.92 0 0 0-2.8-2.09c.44-2.14 1.45-4.55 3.72-5.68C61.7 35.23 61.45 27 51.11 27c-8.17 0-10 9.1-5.42 17.57a6.77 6.77 0 0 0-2.11 2.8C41.45 47 39 46 37.89 43.71a6 6 0 0 0-5.19-3.52c-2.88 0-5.7 2.59-5.7 8.66 0 5.27 3.75 7.89 8.67 7.89a19.19 19.19 0 0 0 8.9-2.45 7 7 0 0 0 2.85 2.12C47 58.52 46 60.91 43.7 62c-5.42 2.74-5.22 11 5.12 11 8.22 0 10-9.12 5.46-17.6a7.44 7.44 0 0 0 2.09-2.82c2.14.42 4.57 1.42 5.72 3.69z" fill="url(#a)"/><circle cx="50" cy="50" r="3" fill="#282828"/><path class="highlight" opacity=".35" d="M52.78 43.72c-.09.3-.16.6-.22.9a6.92 6.92 0 0 1 2.8 2.09 19.17 19.17 0 0 1 8.94-2.47c4.81 0 8.5 2.51 8.68 7.51v-.6c0-5.28-3.76-7.91-8.7-7.91a19.17 19.17 0 0 0-8.94 2.47 6.93 6.93 0 0 0-2.56-1.99zM43.7 63c2.3-1.09 3.3-3.48 3.72-5.59l-.23-.11A7.3 7.3 0 0 1 43.7 62a5.89 5.89 0 0 0-3.49 5.71A6.08 6.08 0 0 1 43.7 63zm-11-21.81a6 6 0 0 1 5.19 3.52C39 47 41.45 48 43.58 48.4a6.77 6.77 0 0 1 2.11-2.8c-.12-.23-.22-.46-.34-.69a6.65 6.65 0 0 0-1.77 2.49C41.45 47 39 46 37.89 43.71a6 6 0 0 0-5.19-3.52c-2.88 0-5.7 2.59-5.7 8.66v.4c.2-5.64 2.92-8.06 5.7-8.06zM51.11 28c5.74 0 8.37 2.53 8.64 5.24.33-3.05-2.2-6.24-8.64-6.24-5.38 0-8 4-7.85 9.07.21-4.59 2.83-8.07 7.85-8.07zm3.17 28.37a19.3 19.3 0 0 1 2.43 8.51 18.3 18.3 0 0 0-2.09-8.82zM50 53a3 3 0 0 1-3-2.5 2.73 2.73 0 0 0 0 .5 3 3 0 0 0 6 0 2.73 2.73 0 0 0 0-.5 3 3 0 0 1-3 2.5z" fill="#fff"/></g></g></svg>