<svg xmlns="http://www.w3.org/2000/svg" width="48" height="48" viewBox="0 0 100 100">
  <title>feeder</title>
  <g id="feeder" class="symbol simple">
			<g id="bound">
				<rect class="" x="0" y="0" width="100" height="100" opacity="0"/>
			</g>

			<path class="outer" fill="#282828" d="M40.2,45.6c0-0.6,0.2-1.3,0.7-1.8c1-1,2.6-1,3.5,0l6,6l6-6c1-1,2.6-1,3.5,0c1,1,1,2.6,0,3.5l-7.8,7.8
				c-1,1-2.6,1-3.5,0l-7.8-7.8C40.4,46.9,40.2,46.3,40.2,45.6z"/>
			<path class="edging" opacity="0.65" fill="#FFFFFF" d="M58.2,43.1c0.6,0,1.3,0.2,1.8,0.7c1,1,1,2.6,0,3.5l-7.8,7.8c-0.5,0.5-1.1,0.7-1.8,0.7s-1.3-0.2-1.8-0.7
				l-7.8-7.8c-0.5-0.5-0.7-1.1-0.7-1.8c0-0.6,0.2-1.3,0.7-1.8c0.5-0.5,1.1-0.7,1.8-0.7c0.6,0,1.3,0.2,1.8,0.7l6,6l6-6
				C56.9,43.4,57.6,43.1,58.2,43.1 M58.2,41.1c-1.2,0-2.3,0.5-3.2,1.3L50.4,47l-4.6-4.6c-0.8-0.8-2-1.3-3.2-1.3
				c-1.2,0-2.3,0.5-3.2,1.3c-0.8,0.8-1.3,2-1.3,3.2c0,1.2,0.5,2.3,1.3,3.2l7.8,7.8c0.8,0.8,2,1.3,3.2,1.3s2.3-0.5,3.2-1.3l7.8-7.8
				c0.9-0.9,1.3-2,1.3-3.2c0-1.2-0.5-2.3-1.3-3.2C60.5,41.6,59.4,41.1,58.2,41.1L58.2,41.1z"/>
	</g>

</svg>