<svg xmlns="http://www.w3.org/2000/svg" width="48" height="48" viewBox="0 0 100 100"><title>feeder</title><g class="symbol simple"><path class="outer" fill="#282828" d="M40.2 45.6c0-.6.2-1.3.7-1.8 1-1 2.6-1 3.5 0l6 6 6-6c1-1 2.6-1 3.5 0 1 1 1 2.6 0 3.5l-7.8 7.8c-1 1-2.6 1-3.5 0l-7.8-7.8c-.4-.4-.6-1-.6-1.7z"/><path class="edging" opacity=".65" fill="#FFF" d="M58.2 43.1c.6 0 1.3.2 1.8.7 1 1 1 2.6 0 3.5l-7.8 7.8c-.5.5-1.1.7-1.8.7s-1.3-.2-1.8-.7l-7.8-7.8c-.5-.5-.7-1.1-.7-1.8 0-.6.2-1.3.7-1.8.5-.5 1.1-.7 1.8-.7.6 0 1.3.2 1.8.7l6 6 6-6c.5-.3 1.2-.6 1.8-.6m0-2c-1.2 0-2.3.5-3.2 1.3L50.4 47l-4.6-4.6c-.8-.8-2-1.3-3.2-1.3-1.2 0-2.3.5-3.2 1.3-.8.8-1.3 2-1.3 3.2 0 1.2.5 2.3 1.3 3.2l7.8 7.8c.8.8 2 1.3 3.2 1.3s2.3-.5 3.2-1.3l7.8-7.8c.9-.9 1.3-2 1.3-3.2 0-1.2-.5-2.3-1.3-3.2-.9-.8-2-1.3-3.2-1.3z"/></g></svg>