<svg xmlns="http://www.w3.org/2000/svg" width="48" height="48" viewBox="0 0 100 100"><title>fuse</title><g class="symbol"><linearGradient id="a" gradientUnits="userSpaceOnUse" x1="50.5" y1="32.5" x2="50.5" y2="68.5"><stop offset="0" stop-color="#666"/><stop offset="1" stop-color="#4d4d4d"/></linearGradient><g class="animate"><path class="outer" fill="#282828" d="M80.5 48h-6v-6h-49v6h-6c-1.4 0-2.5 1.1-2.5 2.5s1.1 2.5 2.5 2.5h6v5h49v-5h6c1.4 0 2.5-1.1 2.5-2.5S81.9 48 80.5 48z"/><path class="edging" fill="#FFF" opacity=".65" d="M74.5 42v6h6c1.4 0 2.5 1.1 2.5 2.5S81.9 53 80.5 53h-6v5h-49v-5h-6c-1.4 0-2.5-1.1-2.5-2.5s1.1-2.5 2.5-2.5h6v-6h49m2-2h-53v6h-4C17 46 15 48 15 50.5s2 4.5 4.5 4.5h4v5h53v-5h4c2.5 0 4.5-2 4.5-4.5S83 46 80.5 46h-4v-6z"/><path class="inner" fill="url(#a)" d="M28.5 45.5h43v10h-43z"/><path class="highlight" opacity=".35" fill="#FFF" d="M28.5 45.5h43v1h-43z"/></g></g></svg>