<svg xmlns="http://www.w3.org/2000/svg" width="48" height="48" viewBox="0 0 100 100">
  <title>fusible-switch</title>
  <g id="fusible-switch" class="symbol">

			<rect id="bounding" width="100" height="100" fill="none"/>

			<linearGradient id="DefaultGradient" x1="248.12" y1="53" x2="248.12" y2="63" gradientTransform="matrix(-1, 0, 0, 1, 323.24, 0)" gradientUnits="userSpaceOnUse">
				<stop offset="0" stop-color="#666"/>
				<stop offset="1" stop-color="#4d4d4d"/>
			</linearGradient>

			<g class="open">
				<g id="left">
					<circle class="outer" cx="10" cy="57.71" r="7.79" fill="#282828"/>
					<path class="edging" opacity="0.65" d="M10,49.93a7.79,7.79,0,1,1-7.79,7.78A7.78,7.78,0,0,1,10,49.93m0-2a9.79,9.79,0,1,0,9.79,9.78A9.8,9.8,0,0,0,10,47.93Z" fill="#fff"/>
				</g>

				<g id="right">
					<path class="outer" d="M95.62,55.5h-6v-6h-29v6H56.47a.14.14,0,0,1,0-.06c0-.11-.07-.21-.1-.32s-.13-.36-.2-.53v0a7.74,7.74,0,0,0-6.87-4.78H48.9a7.82,7.82,0,0,0-5.35,2.11L14.9,35.3a2.42,2.42,0,1,0-2.43,4.19L41.19,56.1A7.61,7.61,0,0,0,41,57.62,7.86,7.86,0,0,0,56.21,60.5h4.41v5h29v-5h6a2.5,2.5,0,0,0,0-5Z" fill="#282828"/>

					<path class="edging" opacity="0.65" d="M13.69,35a2.42,2.42,0,0,1,1.21.33L43.55,51.87a7.82,7.82,0,0,1,5.35-2.11h.37a7.74,7.74,0,0,1,6.87,4.78v0c.07.17.14.35.2.53s.07.21.1.32a.14.14,0,0,0,0,.06h4.15v-6h29v6h6a2.5,2.5,0,0,1,0,5h-6v5h-29v-5H56.21A7.86,7.86,0,0,1,41,57.62a7.61,7.61,0,0,1,.16-1.52L12.47,39.49A2.42,2.42,0,0,1,13.69,35m0-2h0a4.43,4.43,0,0,0-2.22,8.26L39.05,57.17c0,.15,0,.3,0,.45A9.86,9.86,0,0,0,57.46,62.5h1.16v5h33v-5h4a4.5,4.5,0,0,0,0-9h-4v-6h-33v6h-.76a9.74,9.74,0,0,0-8.53-5.72H48.9a9.73,9.73,0,0,0-5.52,1.7L15.9,33.57a4.42,4.42,0,0,0-2.21-.6Z" fill="#fff"/>
				</g>
			</g>

			<g class="closed" opacity="0">
			    <path class="outer" d="M95.62,55.5h-6v-6h-29v6h-4a8,8,0,0,0-15.18,0H17.46a7.79,7.79,0,1,0-.2,5H41.41a8,8,0,0,0,15.18,0h4v5h29v-5h6a2.5,2.5,0,0,0,0-5Z" fill="#282828"/>

		    	<path class="edging" d="M89.62,49.5v6h6a2.5,2.5,0,0,1,0,5h-6v5h-29v-5h-4a8,8,0,0,1-15.18,0H17.26a7.78,7.78,0,1,1,.2-5H41.41a8,8,0,0,1,15.18,0h4v-6h29m2-2h-33v6h-.7a10,10,0,0,0-17.84,0H18.82A9.78,9.78,0,1,0,10,67.5a9.72,9.72,0,0,0,8.53-5H40.08a10,10,0,0,0,17.84,0h.7v5h33v-5h4a4.5,4.5,0,0,0,0-9h-4v-6Z" fill="#fff" opacity="0.65"/>
			</g>

		    <rect x="63.62" y="53" width="23" height="10" fill="url(#DefaultGradient)" />

			<path d="M10,62a4.29,4.29,0,0,0,0-8.57A4.29,4.29,0,0,0,10,62Z" fill="url(#DefaultGradient)"/>

		    <path d="M49,62a4.29,4.29,0,1,0-4.08-4.28A4.25,4.25,0,0,0,49,62Z" fill="url(#DefaultGradient)"/>


		    <rect class="highlight" x="63.62" y="53" width="23" height="1" fill="#fff" opacity="0.35" />
		    
		    <path class="highlight" d="M49,54.06a4,4,0,0,1,4.05,4c0,.06,0,.11,0,.17a4.48,4.48,0,0,0,.06-.63,4.08,4.08,0,1,0-8.15,0c0,.08,0,.16,0,.24A4,4,0,0,1,49,54.06Z" fill="#fff" opacity="0.35"/>
		    
		    <path class="highlight" d="M10,54.06a4,4,0,0,1,4.05,4c0,.06,0,.11,0,.17a4.48,4.48,0,0,0,.06-.63A4.2,4.2,0,0,0,10,53.41,4.19,4.19,0,0,0,6,57.61c0,.08,0,.16,0,.24A4,4,0,0,1,10,54.06Z" fill="#fff" opacity="0.35"/>
			
	</g>
</svg>