<svg xmlns="http://www.w3.org/2000/svg" width="48" height="48" viewBox="0 0 100 100"><title>fusible-switch</title><g class="symbol"><path fill="none" d="M0 0h100v100H0z"/><linearGradient id="a" x1="248.12" y1="53" x2="248.12" y2="63" gradientTransform="matrix(-1 0 0 1 323.24 0)" gradientUnits="userSpaceOnUse"><stop offset="0" stop-color="#666"/><stop offset="1" stop-color="#4d4d4d"/></linearGradient><g class="open"><circle class="outer" cx="10" cy="57.71" r="7.79" fill="#282828"/><path class="edging" opacity=".65" d="M10 49.93a7.79 7.79 0 1 1-7.79 7.78A7.78 7.78 0 0 1 10 49.93m0-2a9.79 9.79 0 1 0 9.79 9.78A9.8 9.8 0 0 0 10 47.93z" fill="#fff"/><path class="outer" d="M95.62 55.5h-6v-6h-29v6h-4.15a.14.14 0 0 1 0-.06c0-.11-.07-.21-.1-.32s-.13-.36-.2-.53a7.74 7.74 0 0 0-6.87-4.78h-.4a7.82 7.82 0 0 0-5.35 2.11L14.9 35.3a2.42 2.42 0 1 0-2.43 4.19L41.19 56.1a7.61 7.61 0 0 0-.19 1.52 7.86 7.86 0 0 0 15.21 2.88h4.41v5h29v-5h6a2.5 2.5 0 0 0 0-5z" fill="#282828"/><path class="edging" opacity=".65" d="M13.69 35a2.42 2.42 0 0 1 1.21.33l28.65 16.54a7.82 7.82 0 0 1 5.35-2.11h.37a7.74 7.74 0 0 1 6.87 4.78c.07.17.14.35.2.53s.07.21.1.32a.14.14 0 0 0 0 .06h4.15v-6h29v6h6a2.5 2.5 0 0 1 0 5h-6v5h-29v-5h-4.38A7.86 7.86 0 0 1 41 57.62a7.61 7.61 0 0 1 .16-1.52L12.47 39.49A2.42 2.42 0 0 1 13.69 35m0-2a4.43 4.43 0 0 0-2.22 8.26l27.58 15.91v.45a9.86 9.86 0 0 0 18.41 4.88h1.16v5h33v-5h4a4.5 4.5 0 0 0 0-9h-4v-6h-33v6h-.76a9.74 9.74 0 0 0-8.53-5.72h-.43a9.73 9.73 0 0 0-5.52 1.7L15.9 33.57a4.42 4.42 0 0 0-2.21-.6z" fill="#fff"/></g><path fill="url(#a)" d="M63.62 53h23v10h-23zM10 62a4.29 4.29 0 0 0 0-8.57A4.29 4.29 0 0 0 10 62zm39 0a4.29 4.29 0 1 0-4.08-4.28A4.25 4.25 0 0 0 49 62z"/><path class="highlight" fill="#fff" opacity=".35" d="M63.62 53h23v1h-23zM49 54.06a4 4 0 0 1 4.05 4v.17a4.48 4.48 0 0 0 .06-.63 4.08 4.08 0 1 0-8.15 0v.24A4 4 0 0 1 49 54.06zm-39 0a4 4 0 0 1 4.05 4v.17a4.48 4.48 0 0 0 .06-.63A4.2 4.2 0 0 0 10 53.41a4.19 4.19 0 0 0-4 4.2v.24a4 4 0 0 1 4-3.79z"/></g></svg>