<svg xmlns="http://www.w3.org/2000/svg" width="48" height="48" viewBox="0 0 100 100">
  <title>ground</title>
  <g id="ground" class="symbol simple">
			<g id="bound">
				<rect class="" x="0" y="0" width="100" height="100" opacity="0"/>
			</g>

			<path class="outer" fill="#282828" d="M40.5,32.5c-1.1,0-2,0.9-2,2v13h-11c-1.4,0-2.5,1.1-2.5,2.5s1.1,2.5,2.5,2.5h11v13c0,1.1,0.9,2,2,2
				s2-0.9,2-2v-31C42.5,33.4,41.6,32.5,40.5,32.5z"/>

			<path class="edging" opacity="0.65" fill="#FFFFFF" d="M40.5,32.5c1.1,0,2,0.9,2,2v31c0,1.1-0.9,2-2,2s-2-0.9-2-2v-13h-11c-1.4,0-2.5-1.1-2.5-2.5
			s1.1-2.5,2.5-2.5h11v-13C38.5,33.4,39.4,32.5,40.5,32.5 M40.5,30.5c-2.2,0-4,1.8-4,4v11h-9c-2.5,0-4.5,2-4.5,4.5s2,4.5,4.5,4.5h9
			v11c0,2.2,1.8,4,4,4s4-1.8,4-4v-31C44.5,32.3,42.7,30.5,40.5,30.5L40.5,30.5z"/>

			<path class="outer" fill="#282828" d="M51.5,63.5c-1.1,0-2-0.9-2-2v-24c0-1.1,0.9-2,2-2s2,0.9,2,2v24C53.5,62.6,52.6,63.5,51.5,63.5z"/>

			<path class="edging" opacity="0.65" fill="#FFFFFF" d="M51.5,35.5c1.1,0,2,0.9,2,2v24c0,1.1-0.9,2-2,2s-2-0.9-2-2v-24C49.5,36.4,50.4,35.5,51.5,35.5
						 M51.5,33.5c-2.2,0-4,1.8-4,4v24c0,2.2,1.8,4,4,4s4-1.8,4-4v-24C55.5,35.3,53.7,33.5,51.5,33.5L51.5,33.5z"/>

			<path class="outer" fill="#282828" d="M62.5,58.5c-1.1,0-2-0.9-2-2v-14c0-1.1,0.9-2,2-2s2,0.9,2,2v14C64.5,57.6,63.6,58.5,62.5,58.5z"/>

			<path class="edging" opacity="0.65" fill="#FFFFFF" d="M62.5,40.5c1.1,0,2,0.9,2,2v14c0,1.1-0.9,2-2,2s-2-0.9-2-2v-14C60.5,41.4,61.4,40.5,62.5,40.5
				 M62.5,38.5c-2.2,0-4,1.8-4,4v14c0,2.2,1.8,4,4,4c2.2,0,4-1.8,4-4v-14C66.5,40.3,64.7,38.5,62.5,38.5L62.5,38.5z"/>

			<path class="outer" fill="#282828" d="M73.5,53.5c-1.1,0-2-0.9-2-2v-4c0-1.1,0.9-2,2-2s2,0.9,2,2v4C75.5,52.6,74.6,53.5,73.5,53.5z"/>

			<path class="edging" opacity="0.65" fill="#FFFFFF" d="M73.5,45.5c1.1,0,2,0.9,2,2v4c0,1.1-0.9,2-2,2s-2-0.9-2-2v-4C71.5,46.4,72.4,45.5,73.5,45.5 M73.5,43.5
				c-2.2,0-4,1.8-4,4v4c0,2.2,1.8,4,4,4s4-1.8,4-4v-4C77.5,45.3,75.7,43.5,73.5,43.5L73.5,43.5z"/>
	</g>

</svg>