<svg xmlns="http://www.w3.org/2000/svg" width="48" height="48" viewBox="0 0 100 100"><title>ground</title><g class="symbol simple"><path class="outer" fill="#282828" d="M40.5 32.5c-1.1 0-2 .9-2 2v13h-11c-1.4 0-2.5 1.1-2.5 2.5s1.1 2.5 2.5 2.5h11v13c0 1.1.9 2 2 2s2-.9 2-2v-31c0-1.1-.9-2-2-2z"/><path class="edging" opacity=".65" fill="#FFF" d="M40.5 32.5c1.1 0 2 .9 2 2v31c0 1.1-.9 2-2 2s-2-.9-2-2v-13h-11c-1.4 0-2.5-1.1-2.5-2.5s1.1-2.5 2.5-2.5h11v-13c0-1.1.9-2 2-2m0-2c-2.2 0-4 1.8-4 4v11h-9c-2.5 0-4.5 2-4.5 4.5s2 4.5 4.5 4.5h9v11c0 2.2 1.8 4 4 4s4-1.8 4-4v-31c0-2.2-1.8-4-4-4z"/><path class="outer" fill="#282828" d="M51.5 63.5c-1.1 0-2-.9-2-2v-24c0-1.1.9-2 2-2s2 .9 2 2v24c0 1.1-.9 2-2 2z"/><path class="edging" opacity=".65" fill="#FFF" d="M51.5 35.5c1.1 0 2 .9 2 2v24c0 1.1-.9 2-2 2s-2-.9-2-2v-24c0-1.1.9-2 2-2m0-2c-2.2 0-4 1.8-4 4v24c0 2.2 1.8 4 4 4s4-1.8 4-4v-24c0-2.2-1.8-4-4-4z"/><path class="outer" fill="#282828" d="M62.5 58.5c-1.1 0-2-.9-2-2v-14c0-1.1.9-2 2-2s2 .9 2 2v14c0 1.1-.9 2-2 2z"/><path class="edging" opacity=".65" fill="#FFF" d="M62.5 40.5c1.1 0 2 .9 2 2v14c0 1.1-.9 2-2 2s-2-.9-2-2v-14c0-1.1.9-2 2-2m0-2c-2.2 0-4 1.8-4 4v14c0 2.2 1.8 4 4 4s4-1.8 4-4v-14c0-2.2-1.8-4-4-4z"/><path class="outer" fill="#282828" d="M73.5 53.5c-1.1 0-2-.9-2-2v-4c0-1.1.9-2 2-2s2 .9 2 2v4c0 1.1-.9 2-2 2z"/><path class="edging" opacity=".65" fill="#FFF" d="M73.5 45.5c1.1 0 2 .9 2 2v4c0 1.1-.9 2-2 2s-2-.9-2-2v-4c0-1.1.9-2 2-2m0-2c-2.2 0-4 1.8-4 4v4c0 2.2 1.8 4 4 4s4-1.8 4-4v-4c0-2.2-1.8-4-4-4z"/></g></svg>