<svg xmlns="http://www.w3.org/2000/svg" width="48" height="48" viewBox="0 0 100 100">
  <title>hydro</title>
		<g id="hydro" class="symbol static energy">
			<g id="bound">
				<rect class="" x="0" y="0" width="100" height="100" opacity="0"/>
			</g>

			<g>
				<path fill="#282828" d="M84.4,59.8C71.8,52.9,68.7,38,68,31h0v-3v-1v-0.9c0-1.1-0.9-2.1-2.1-2.1H65H54.7c0-0.2-0.1-0.4-0.1-0.7
					v-0.1c0-2.2-1.5-4.2-3.6-4.6c-3-0.6-5.6,1.6-5.6,4.5v0.2c0,0.2-0.1,0.4-0.1,0.7H35h-0.9c-1.1,0-2.1,0.9-2.1,2.1V27v1v3h0
					c-0.7,7-3.8,21.9-16.4,28.8h0c-1,0.5-1.6,1.5-1.6,2.6v0v8l0,0c0,1,0.5,2,1.4,2.5h0c2.1,1.3,4.5,2.5,7.1,3.5
					c0.9,0.9,2.2,1.4,3.5,1.4h0.5c7.1,2.3,15.2,3.5,23.5,3.5s16.5-1.2,23.5-3.5H74c1.3,0,2.6-0.5,3.5-1.4c2.6-1.1,5-2.2,7.1-3.5l0,0
					c0.9-0.5,1.4-1.5,1.4-2.5l0,0v-8v0C86,61.4,85.4,60.4,84.4,59.8L84.4,59.8z"/>
				<path class="edging" opacity="0.65" fill="#FFFFFF" d="M50,18.5c0.3,0,0.7,0,1,0.1c2.1,0.5,3.6,2.5,3.6,4.6v0.1c0,0.2,0.1,0.4,0.1,0.7H65h0.9
					c1.1,0,2.1,0.9,2.1,2.1V27v1v3h0c0.7,7,3.8,21.9,16.4,28.8c1,0.5,1.6,1.5,1.6,2.6v0v8c0,1-0.5,2-1.4,2.5
					c-2.1,1.3-4.5,2.5-7.1,3.5C76.6,77.5,75.3,78,74,78h-0.5c-7.1,2.3-15.2,3.5-23.5,3.5S33.5,80.3,26.5,78H26
					c-1.3,0-2.6-0.5-3.5-1.4c-2.6-1.1-5-2.2-7.1-3.5c-0.9-0.5-1.4-1.5-1.4-2.5v-8v0c0-1.1,0.6-2.1,1.6-2.6C28.2,52.9,31.3,38,32,31h0
					v-3v-1v-0.9c0-1.1,0.9-2.1,2.1-2.1H35h10.3c0-0.2,0.1-0.5,0.1-0.7v-0.2C45.4,20.6,47.5,18.5,50,18.5 M50,16.5L50,16.5
					c-1.8,0-3.4,0.7-4.7,1.9c-1,1-1.6,2.2-1.8,3.5H35h-0.9c-2.3,0-4.1,1.8-4.1,4.1V27v1v2.9c-0.7,6.1-3.5,20.6-15.4,27.2
					C13,59,12,60.6,12,62.5v8c0,1.7,0.9,3.3,2.4,4.2c2.1,1.3,4.5,2.5,7.1,3.6c1.3,1.1,2.9,1.7,4.6,1.7h0.2c7.2,2.3,15.4,3.5,23.8,3.5
					s16.6-1.2,23.8-3.5H74c1.7,0,3.3-0.6,4.6-1.7c2.6-1.1,5-2.3,7.1-3.6c1.5-0.9,2.4-2.5,2.4-4.2v-8c0-1.8-1-3.5-2.6-4.4
					C73.5,51.6,70.7,37,70,30.9V28v-1v-0.9c0-2.3-1.8-4.1-4.1-4.1H65h-8.5c-0.5-2.6-2.5-4.8-5.1-5.3C51,16.6,50.5,16.5,50,16.5
					L50,16.5L50,16.5z"/>
			</g>

			<g>
				<linearGradient id="dam-gradient" gradientUnits="userSpaceOnUse" x1="50" y1="27.4738" x2="50" y2="70.4738">
					<stop  offset="0" style="stop-color:#E6E6E6"/>
					<stop  offset="1" style="stop-color:#CCCCCC"/>
				</linearGradient>
				<path fill="url(#dam-gradient)" d="M64.8,27.5H50H35.2c0,0,0,25-18.2,35v8h33h33v-8C64.8,52.5,64.8,27.5,64.8,27.5z"/>
				<g class="dam-lines">
					<line fill="none" stroke="#CCCCCC" stroke-linecap="round" stroke-linejoin="round" stroke-miterlimit="10" x1="45.1" y1="31.9" x2="45.1" y2="28.5"/>
				
					<line fill="none" stroke="#CCCCCC" stroke-linecap="round" stroke-linejoin="round" stroke-miterlimit="10" x1="41.8" y1="31.9" x2="41.8" y2="28.5"/>
				
					<line fill="none" stroke="#CCCCCC" stroke-linecap="round" stroke-linejoin="round" stroke-miterlimit="10" x1="38.5" y1="31.9" x2="38.5" y2="28.5"/>
				
					<line fill="none" stroke="#CCCCCC" stroke-linecap="round" stroke-linejoin="round" stroke-miterlimit="10" x1="54.9" y1="31.9" x2="54.9" y2="28.5"/>
				
					<line fill="none" stroke="#CCCCCC" stroke-linecap="round" stroke-linejoin="round" stroke-miterlimit="10" x1="51.6" y1="31.9" x2="51.6" y2="28.5"/>
				
					<line fill="none" stroke="#CCCCCC" stroke-linecap="round" stroke-linejoin="round" stroke-miterlimit="10" x1="61.5" y1="31.9" x2="61.5" y2="28.5"/>
				
					<line fill="none" stroke="#CCCCCC" stroke-linecap="round" stroke-linejoin="round" stroke-miterlimit="10" x1="58.2" y1="31.9" x2="58.2" y2="28.5"/>
				
					<line fill="none" stroke="#CCCCCC" stroke-linecap="round" stroke-linejoin="round" stroke-miterlimit="10" x1="48.4" y1="31.9" x2="48.4" y2="28.5"/>
				</g>
				<linearGradient id="hydro-gradient" gradientUnits="userSpaceOnUse" x1="17" y1="74.4738" x2="83" y2="74.4738">
					<stop  offset="0" style="stop-color:#007ABA"/>
					<stop  offset="1" style="stop-color:#52B3FF"/>
				</linearGradient>
				<path fill="url(#hydro-gradient)" d="M17,70.5c7.8,4.9,19.7,8,33,8s25.2-3.1,33-8H17z"/>
				<linearGradient id="dam-gradient-1" gradientUnits="userSpaceOnUse" x1="50" y1="69" x2="50" y2="63">
					<stop  offset="0" style="stop-color:#E6E6E6"/>
					<stop  offset="1" style="stop-color:#CCCCCC"/>
				</linearGradient>
				<rect x="17" y="63" fill="url(#dam-gradient-1)" width="66" height="6"/>
				<g class="dam-lines">
					<line fill="none" stroke="#B3B3B3" stroke-linecap="round" stroke-linejoin="round" stroke-miterlimit="10" x1="39.1" y1="70" x2="39.1" y2="62.5"/>
				
					<line fill="none" stroke="#B3B3B3" stroke-linecap="round" stroke-linejoin="round" stroke-miterlimit="10" x1="31.9" y1="70" x2="31.9" y2="62.5"/>
				
					<line fill="none" stroke="#B3B3B3" stroke-linecap="round" stroke-linejoin="round" stroke-miterlimit="10" x1="24.7" y1="70" x2="24.7" y2="62.5"/>
				
					<line fill="none" stroke="#B3B3B3" stroke-linecap="round" stroke-linejoin="round" stroke-miterlimit="10" x1="60.9" y1="70" x2="60.9" y2="62.5"/>
				
					<line fill="none" stroke="#B3B3B3" stroke-linecap="round" stroke-linejoin="round" stroke-miterlimit="10" x1="53.6" y1="70" x2="53.6" y2="62.5"/>
				
					<line fill="none" stroke="#B3B3B3" stroke-linecap="round" stroke-linejoin="round" stroke-miterlimit="10" x1="75.3" y1="70" x2="75.3" y2="62.5"/>
				
					<line fill="none" stroke="#B3B3B3" stroke-linecap="round" stroke-linejoin="round" stroke-miterlimit="10" x1="68.1" y1="70" x2="68.1" y2="62.5"/>
				
					<line fill="none" stroke="#B3B3B3" stroke-linecap="round" stroke-linejoin="round" stroke-miterlimit="10" x1="46.4" y1="70" x2="46.4" y2="62.5"/>
				</g>
				<rect x="17" y="62" fill="#F2F2F2" width="66" height="1"/>
				<rect x="35" y="27" fill="#F2F2F2" width="30" height="1"/>

				<g opacity="0.1">
					<path fill-rule="evenodd" clip-rule="evenodd" d="M50,53.5c-6.1,0-11-4.9-11-10.8c0-3.8,2.1-6.9,4.2-9.9
						c1.9-2.8,3.9-5.8,4.2-9.4l0-0.2c0-1.4,1.2-2.6,2.6-2.6s2.6,1.2,2.6,2.6v0.3c0.3,3.5,2.3,6.5,4.2,9.3c2,3,4.2,6.1,4.2,9.9
						C61,48.6,56.1,53.5,50,53.5z"/>
					<path d="M50,21.5c0.9,0,1.6,0.7,1.6,1.6v0.3c0.6,7.7,8.4,12.3,8.4,19.2c0,5.4-4.5,9.8-10,9.8c-5.5,0-10-4.4-10-9.8
						c0-7,7.7-11.5,8.4-19.2v-0.3C48.4,22.2,49.1,21.5,50,21.5 M50,19.5c-2,0-3.6,1.6-3.6,3.6v0.2c-0.3,3.3-2.1,6-4.1,8.8
						c-2.1,3.1-4.3,6.4-4.3,10.5c0,6.5,5.4,11.8,12,11.8s12-5.3,12-11.8c0-4.1-2.2-7.3-4.3-10.5c-1.9-2.8-3.8-5.5-4.1-8.8v-0.2
						C53.6,21.1,52,19.5,50,19.5L50,19.5z"/>
				</g>
				<linearGradient id="hydro-gradient-1" gradientUnits="userSpaceOnUse" x1="50" y1="52.4939" x2="50" y2="21.5262">
					<stop  offset="0" style="stop-color:#007ABA"/>
					<stop  offset="1" style="stop-color:#52B3FF"/>
				</linearGradient>
				<path fill-rule="evenodd" clip-rule="evenodd" fill="url(#hydro-gradient-1)" d="M40,42.7c0,5.4,4.5,9.8,10,9.8
					c5.5,0,10-4.4,10-9.8c0-7-7.8-11.5-8.4-19.2v-0.3c0-0.9-0.7-1.6-1.6-1.6c-0.9,0-1.6,0.7-1.6,1.6v0.3C47.7,31.2,40,35.7,40,42.7z"
					/>
			
				<path opacity="0.65" fill-rule="evenodd" clip-rule="evenodd" fill="none" stroke="#6DCBFF" stroke-linecap="round" stroke-miterlimit="10" d="
				M57.2,45.8c0.5-1.1,0.7-2.3,0.7-3.5c0-4.1-3-7.3-5.4-10.9 M54.3,49.4c0.7-0.5,1.3-1.1,1.8-1.7"/>

				<g>
					<linearGradient id="hydro-gradient-2" gradientUnits="userSpaceOnUse" x1="28" y1="73.5" x2="28" y2="65.5">
						<stop  offset="5.008013e-04" style="stop-color:#B5E6FF"/>
						<stop  offset="1" style="stop-color:#52B3FF"/>
					</linearGradient>
					<path fill-rule="evenodd" clip-rule="evenodd" fill="url(#hydro-gradient-2)" d="M28,73.5L28,73.5c-1.7,0-3-1.3-3-3v-2c0-1.7,1.3-3,3-3h0
						c1.6,0,3,1.3,3,3v2C31,72.2,29.7,73.5,28,73.5z"/>
					<path fill-rule="evenodd" clip-rule="evenodd" fill="#F2F2F2" d="M26,71h4c1.1,0,2,0.9,2,2l0,0c0,1.1-0.9,2-2,2h-4
						c-1.1,0-2-0.9-2-2l0,0C24,71.9,24.9,71,26,71z"/>
				</g>
				<g>
					<linearGradient id="hydro-gradient-3" gradientUnits="userSpaceOnUse" x1="72" y1="73.5" x2="72" y2="65.5">
						<stop  offset="5.008013e-04" style="stop-color:#B5E6FF"/>
						<stop  offset="1" style="stop-color:#52B3FF"/>
					</linearGradient>
					<path fill-rule="evenodd" clip-rule="evenodd" fill="url(#hydro-gradient-3)" d="M72,73.5L72,73.5c-1.7,0-3-1.3-3-3v-2c0-1.7,1.3-3,3-3
						l0,0c1.7,0,3,1.3,3,3v2C75,72.2,73.7,73.5,72,73.5z"/>
					<path fill-rule="evenodd" clip-rule="evenodd" fill="#F2F2F2" d="M70,71h4c1.1,0,2,0.9,2,2l0,0c0,1.1-0.9,2-2,2h-4
						c-1.1,0-2-0.9-2-2l0,0C68,71.9,68.9,71,70,71z"/>
				</g>
				<g>
					<linearGradient id="hydro-gradient-4" gradientUnits="userSpaceOnUse" x1="57" y1="73.5" x2="57" y2="65.5">
						<stop  offset="5.008013e-04" style="stop-color:#B5E6FF"/>
						<stop  offset="1" style="stop-color:#52B3FF"/>
					</linearGradient>
					<path fill-rule="evenodd" clip-rule="evenodd" fill="url(#hydro-gradient-4)" d="M57,73.5L57,73.5c-1.7,0-3-1.3-3-3v-2c0-1.7,1.3-3,3-3h0
						c1.6,0,3,1.3,3,3v2C60,72.2,58.7,73.5,57,73.5z"/>
					<path fill-rule="evenodd" clip-rule="evenodd" fill="#F2F2F2" d="M55,71h4c1.1,0,2,0.9,2,2l0,0c0,1.1-0.9,2-2,2h-4
						c-1.1,0-2-0.9-2-2l0,0C53,71.9,53.9,71,55,71z"/>
				</g>
				<g>
					<linearGradient id="hydro-gradient-5" gradientUnits="userSpaceOnUse" x1="43" y1="73.5" x2="43" y2="65.5">
						<stop  offset="5.008013e-04" style="stop-color:#B5E6FF"/>
						<stop  offset="1" style="stop-color:#52B3FF"/>
					</linearGradient>
					<path fill-rule="evenodd" clip-rule="evenodd" fill="url(#hydro-gradient-5)" d="M43,73.5L43,73.5c-1.7,0-3-1.3-3-3v-2c0-1.7,1.3-3,3-3h0
						c1.6,0,3,1.3,3,3v2C46,72.2,44.7,73.5,43,73.5z"/>
					<path fill-rule="evenodd" clip-rule="evenodd" fill="#F2F2F2" d="M41,71h4c1.1,0,2,0.9,2,2l0,0c0,1.1-0.9,2-2,2h-4
						c-1.1,0-2-0.9-2-2l0,0C39,71.9,39.9,71,41,71z"/>
				</g>
			</g>

			<linearGradient id="hydro-gradient-6" gradientUnits="userSpaceOnUse" x1="50" y1="52.4939" x2="50" y2="21.5262">
				<stop  offset="0" style="stop-color:#007ABA"/>
				<stop  offset="1" style="stop-color:#52B3FF"/>
			</linearGradient>
			<path id="XMLID_3_" fill-rule="evenodd" clip-rule="evenodd" fill="url(#hydro-gradient-6)" d="M40,42.7c0,5.4,4.5,9.8,10,9.8
				c5.5,0,10-4.4,10-9.8c0-7-7.8-11.5-8.4-19.2v-0.3c0-0.9-0.7-1.6-1.6-1.6c-0.9,0-1.6,0.7-1.6,1.6v0.3C47.7,31.2,40,35.7,40,42.7z"/>
			<linearGradient id="hydro-gradient-7" gradientUnits="userSpaceOnUse" x1="50" y1="52.4939" x2="50" y2="21.5262">
				<stop  offset="0" style="stop-color:#007ABA"/>
				<stop  offset="1" style="stop-color:#52B3FF"/>
			</linearGradient>
			<path id="XMLID_1_" fill-rule="evenodd" clip-rule="evenodd" fill="url(#hydro-gradient-7)" d="M40,42.7c0,5.4,4.5,9.8,10,9.8
				c5.5,0,10-4.4,10-9.8c0-7-7.8-11.5-8.4-19.2v-0.3c0-0.9-0.7-1.6-1.6-1.6c-0.9,0-1.6,0.7-1.6,1.6v0.3C47.7,31.2,40,35.7,40,42.7z"/>
		</g>
</svg>

		