<svg xmlns="http://www.w3.org/2000/svg" width="48" height="48" viewBox="0 0 100 100"><title>hydro</title><g class="symbol static energy"><path fill="#282828" d="M84.4 59.8C71.8 52.9 68.7 38 68 31v-4.9c0-1.1-.9-2.1-2.1-2.1H54.7c0-.2-.1-.4-.1-.7v-.1c0-2.2-1.5-4.2-3.6-4.6-3-.6-5.6 1.6-5.6 4.5v.2c0 .2-.1.4-.1.7H34.1c-1.1 0-2.1.9-2.1 2.1V31c-.7 7-3.8 21.9-16.4 28.8-1 .5-1.6 1.5-1.6 2.6v8c0 1 .5 2 1.4 2.5 2.1 1.3 4.5 2.5 7.1 3.5.9.9 2.2 1.4 3.5 1.4h.5c7.1 2.3 15.2 3.5 23.5 3.5s16.5-1.2 23.5-3.5h.5c1.3 0 2.6-.5 3.5-1.4 2.6-1.1 5-2.2 7.1-3.5.9-.5 1.4-1.5 1.4-2.5v-8c0-1-.6-2-1.6-2.6z"/><path class="edging" opacity=".65" fill="#FFF" d="M50 18.5c.3 0 .7 0 1 .1 2.1.5 3.6 2.5 3.6 4.6v.1c0 .2.1.4.1.7h11.2c1.1 0 2.1.9 2.1 2.1V31c.7 7 3.8 21.9 16.4 28.8 1 .5 1.6 1.5 1.6 2.6v8c0 1-.5 2-1.4 2.5-2.1 1.3-4.5 2.5-7.1 3.5-.9 1.1-2.2 1.6-3.5 1.6h-.5c-7.1 2.3-15.2 3.5-23.5 3.5S33.5 80.3 26.5 78H26c-1.3 0-2.6-.5-3.5-1.4-2.6-1.1-5-2.2-7.1-3.5-.9-.5-1.4-1.5-1.4-2.5v-8c0-1.1.6-2.1 1.6-2.6C28.2 52.9 31.3 38 32 31v-4.9c0-1.1.9-2.1 2.1-2.1h11.2c0-.2.1-.5.1-.7v-.2c0-2.5 2.1-4.6 4.6-4.6m0-2c-1.8 0-3.4.7-4.7 1.9-1 1-1.6 2.2-1.8 3.5h-9.4c-2.3 0-4.1 1.8-4.1 4.1v4.9c-.7 6.1-3.5 20.6-15.4 27.2-1.6.9-2.6 2.5-2.6 4.4v8c0 1.7.9 3.3 2.4 4.2 2.1 1.3 4.5 2.5 7.1 3.6 1.3 1.1 2.9 1.7 4.6 1.7h.2c7.2 2.3 15.4 3.5 23.8 3.5s16.6-1.2 23.8-3.5h.1c1.7 0 3.3-.6 4.6-1.7 2.6-1.1 5-2.3 7.1-3.6 1.5-.9 2.4-2.5 2.4-4.2v-8c0-1.8-1-3.5-2.6-4.4C73.5 51.6 70.7 37 70 30.9v-4.8c0-2.3-1.8-4.1-4.1-4.1h-9.4c-.5-2.6-2.5-4.8-5.1-5.3-.4-.1-.9-.2-1.4-.2z"/><linearGradient id="a" gradientUnits="userSpaceOnUse" x1="50" y1="27.474" x2="50" y2="70.474"><stop offset="0" stop-color="#e6e6e6"/><stop offset="1" stop-color="#ccc"/></linearGradient><path fill="url(#a)" d="M64.8 27.5H35.2s0 25-18.2 35v8h66v-8c-18.2-10-18.2-35-18.2-35z"/><path d="M45.1 31.9v-3.4m-3.3 3.4v-3.4m-3.3 3.4v-3.4m16.4 3.4v-3.4m-3.3 3.4v-3.4m9.9 3.4v-3.4m-3.3 3.4v-3.4m-9.8 3.4v-3.4" class="dam-lines" fill="none" stroke="#CCC" stroke-linecap="round" stroke-linejoin="round" stroke-miterlimit="10"/><linearGradient id="b" gradientUnits="userSpaceOnUse" x1="17" y1="74.474" x2="83" y2="74.474"><stop offset="0" stop-color="#007aba"/><stop offset="1" stop-color="#52b3ff"/></linearGradient><path fill="url(#b)" d="M17 70.5c7.8 4.9 19.7 8 33 8s25.2-3.1 33-8H17z"/><linearGradient id="c" gradientUnits="userSpaceOnUse" x1="50" y1="69" x2="50" y2="63"><stop offset="0" stop-color="#e6e6e6"/><stop offset="1" stop-color="#ccc"/></linearGradient><path fill="url(#c)" d="M17 63h66v6H17z"/><path d="M39.1 70v-7.5M31.9 70v-7.5M24.7 70v-7.5M60.9 70v-7.5M53.6 70v-7.5M75.3 70v-7.5M68.1 70v-7.5M46.4 70v-7.5" class="dam-lines" fill="none" stroke="#B3B3B3" stroke-linecap="round" stroke-linejoin="round" stroke-miterlimit="10"/><path fill="#F2F2F2" d="M17 62h66v1H17zm18-35h30v1H35z"/><g opacity=".1"><path fill-rule="evenodd" clip-rule="evenodd" d="M50 53.5c-6.1 0-11-4.9-11-10.8 0-3.8 2.1-6.9 4.2-9.9 1.9-2.8 3.9-5.8 4.2-9.4v-.2c0-1.4 1.2-2.6 2.6-2.6s2.6 1.2 2.6 2.6v.3c.3 3.5 2.3 6.5 4.2 9.3 2 3 4.2 6.1 4.2 9.9 0 5.9-4.9 10.8-11 10.8z"/><path d="M50 21.5c.9 0 1.6.7 1.6 1.6v.3c.6 7.7 8.4 12.3 8.4 19.2 0 5.4-4.5 9.8-10 9.8S40 48 40 42.6c0-7 7.7-11.5 8.4-19.2v-.3c0-.9.7-1.6 1.6-1.6m0-2c-2 0-3.6 1.6-3.6 3.6v.2c-.3 3.3-2.1 6-4.1 8.8-2.1 3.1-4.3 6.4-4.3 10.5 0 6.5 5.4 11.8 12 11.8s12-5.3 12-11.8c0-4.1-2.2-7.3-4.3-10.5-1.9-2.8-3.8-5.5-4.1-8.8v-.2c0-2-1.6-3.6-3.6-3.6z"/></g><linearGradient id="d" gradientUnits="userSpaceOnUse" x1="50" y1="52.494" x2="50" y2="21.526"><stop offset="0" stop-color="#007aba"/><stop offset="1" stop-color="#52b3ff"/></linearGradient><path fill-rule="evenodd" clip-rule="evenodd" fill="url(#d)" d="M40 42.7c0 5.4 4.5 9.8 10 9.8s10-4.4 10-9.8c0-7-7.8-11.5-8.4-19.2v-.3c0-.9-.7-1.6-1.6-1.6-.9 0-1.6.7-1.6 1.6v.3c-.7 7.7-8.4 12.2-8.4 19.2z"/><path opacity=".65" clip-rule="evenodd" fill="none" stroke="#6DCBFF" stroke-linecap="round" stroke-miterlimit="10" d="M57.2 45.8c.5-1.1.7-2.3.7-3.5 0-4.1-3-7.3-5.4-10.9m1.8 18c.7-.5 1.3-1.1 1.8-1.7"/><linearGradient id="e" gradientUnits="userSpaceOnUse" x1="28" y1="73.5" x2="28" y2="65.5"><stop offset=".001" stop-color="#b5e6ff"/><stop offset="1" stop-color="#52b3ff"/></linearGradient><path fill-rule="evenodd" clip-rule="evenodd" fill="url(#e)" d="M28 73.5c-1.7 0-3-1.3-3-3v-2c0-1.7 1.3-3 3-3 1.6 0 3 1.3 3 3v2c0 1.7-1.3 3-3 3z"/><path fill-rule="evenodd" clip-rule="evenodd" fill="#F2F2F2" d="M26 71h4c1.1 0 2 .9 2 2s-.9 2-2 2h-4c-1.1 0-2-.9-2-2s.9-2 2-2z"/><linearGradient id="f" gradientUnits="userSpaceOnUse" x1="72" y1="73.5" x2="72" y2="65.5"><stop offset=".001" stop-color="#b5e6ff"/><stop offset="1" stop-color="#52b3ff"/></linearGradient><path fill-rule="evenodd" clip-rule="evenodd" fill="url(#f)" d="M72 73.5c-1.7 0-3-1.3-3-3v-2c0-1.7 1.3-3 3-3s3 1.3 3 3v2c0 1.7-1.3 3-3 3z"/><path fill-rule="evenodd" clip-rule="evenodd" fill="#F2F2F2" d="M70 71h4c1.1 0 2 .9 2 2s-.9 2-2 2h-4c-1.1 0-2-.9-2-2s.9-2 2-2z"/><linearGradient id="g" gradientUnits="userSpaceOnUse" x1="57" y1="73.5" x2="57" y2="65.5"><stop offset=".001" stop-color="#b5e6ff"/><stop offset="1" stop-color="#52b3ff"/></linearGradient><path fill-rule="evenodd" clip-rule="evenodd" fill="url(#g)" d="M57 73.5c-1.7 0-3-1.3-3-3v-2c0-1.7 1.3-3 3-3 1.6 0 3 1.3 3 3v2c0 1.7-1.3 3-3 3z"/><path fill-rule="evenodd" clip-rule="evenodd" fill="#F2F2F2" d="M55 71h4c1.1 0 2 .9 2 2s-.9 2-2 2h-4c-1.1 0-2-.9-2-2s.9-2 2-2z"/><linearGradient id="h" gradientUnits="userSpaceOnUse" x1="43" y1="73.5" x2="43" y2="65.5"><stop offset=".001" stop-color="#b5e6ff"/><stop offset="1" stop-color="#52b3ff"/></linearGradient><path fill-rule="evenodd" clip-rule="evenodd" fill="url(#h)" d="M43 73.5c-1.7 0-3-1.3-3-3v-2c0-1.7 1.3-3 3-3 1.6 0 3 1.3 3 3v2c0 1.7-1.3 3-3 3z"/><path fill-rule="evenodd" clip-rule="evenodd" fill="#F2F2F2" d="M41 71h4c1.1 0 2 .9 2 2s-.9 2-2 2h-4c-1.1 0-2-.9-2-2s.9-2 2-2z"/><linearGradient id="i" gradientUnits="userSpaceOnUse" x1="50" y1="52.494" x2="50" y2="21.526"><stop offset="0" stop-color="#007aba"/><stop offset="1" stop-color="#52b3ff"/></linearGradient><path fill-rule="evenodd" clip-rule="evenodd" fill="url(#i)" d="M40 42.7c0 5.4 4.5 9.8 10 9.8s10-4.4 10-9.8c0-7-7.8-11.5-8.4-19.2v-.3c0-.9-.7-1.6-1.6-1.6-.9 0-1.6.7-1.6 1.6v.3c-.7 7.7-8.4 12.2-8.4 19.2z"/><linearGradient id="j" gradientUnits="userSpaceOnUse" x1="50" y1="52.494" x2="50" y2="21.526"><stop offset="0" stop-color="#007aba"/><stop offset="1" stop-color="#52b3ff"/></linearGradient><path fill-rule="evenodd" clip-rule="evenodd" fill="url(#j)" d="M40 42.7c0 5.4 4.5 9.8 10 9.8s10-4.4 10-9.8c0-7-7.8-11.5-8.4-19.2v-.3c0-.9-.7-1.6-1.6-1.6-.9 0-1.6.7-1.6 1.6v.3c-.7 7.7-8.4 12.2-8.4 19.2z"/></g></svg>