<svg xmlns="http://www.w3.org/2000/svg" width="48" height="48" viewBox="0 0 100 100">
  <title>io</title>
		<g id="io" class="symbol">
			<linearGradient id="DefaultGradient" gradientUnits="userSpaceOnUse" x1="50" y1="40" x2="50" y2="61">
				<stop  offset="0" style="stop-color:#666666"/>
				<stop  offset="1" style="stop-color:#4D4D4D"/>
			</linearGradient>

			<g id="bound">
				<rect class="" x="0" y="0" width="100" height="100" opacity="0"/>
			</g>

			<path class="edging" opacity="0.65" fill="#FFFFFF" d="M75.5,60c0,3.3-2.7,6-6,6h-38c-3.3,0-6-2.7-6-6V41c0-3.3,2.7-6,6-6h38c3.3,0,6,2.7,6,6V60z" />

			<path class="outer" fill="#282828" d="M73,59c0,2.8-2.2,5-5,5H32c-2.8,0-5-2.2-5-5V42c0-2.8,2.2-5,5-5h36c2.8,0,5,2.2,5,5V59z"/>

			<path class="inner" fill="url(#DefaultGradient)" d="M70,58c0,1.7-1.3,3-3,3H33c-1.7,0-3-1.3-3-3V43c0-1.7,1.3-3,3-3h34c1.7,0,3,1.3,3,3V58z"/>
			
			<g class="text">
				<text class="text" text-anchor="middle" transform="matrix(1 0 0 1 50 55)" fill="#ffffff" font-family="'Gotham-Black', 'Open Sans'" font-size="12px"  style="font-weight: bold;">I/O</text>
			</g>

			<path opacity="0.35" fill="#FFFFFF" d="M67,40H33c-1.7,0-3,1.3-3,3v1c0-1.7,1.3-3,3-3h34c1.7,0,3,1.3,3,3v-1C70,41.3,68.7,40,67,40z
			"/>
		</g>
</svg>