<svg xmlns="http://www.w3.org/2000/svg" width="48" height="48" viewBox="0 0 100 100">
  <title>leaf</title>

		<g id="leaf" class="symbol energy static">
			<g id="bound">
				<rect class="" x="0" y="0" width="100" height="100" opacity="0"/>
			</g>

			<path class="outer" fill="#282828" d="M72,27.3c-0.7-0.8-1.7-1.2-2.8-1.2h0c-0.5,0-1,0.1-1.5,0.3c-1.8,0.7-5.6,2.1-10.8,2.5
			c-7.6,0.7-15.4,1.7-20.3,6.6c-6.8,6.8-8.9,16.7-5.2,24.3c0.2,0.4,0.5,0.8,0.9,1.1c-1.5,1.8-2.9,3.8-4.5,5.9c-0.8,1.2-1,2.7-0.6,4
			c0.5,1.4,1.6,2.4,3,2.8l0.9,0.3c0.4,0.1,0.8,0.1,1.1,0.1c1.5,0,3-0.8,3.8-2.2c1-1.8,2.1-3.3,3-4.5c2.4,1.2,5.1,1.8,7.9,1.8
			c5.8,0,11.7-2.6,16.2-7c6.7-6.7,9.1-24.5,9.8-31.8C73.1,29.1,72.7,28.1,72,27.3z"/>

			<path class="edging" opacity="0.65" fill="#FFFFFF" d="M69.2,26c1.1,0,2.1,0.5,2.8,1.2c0.7,0.8,1.1,1.9,1,2.9c-0.7,7.3-3,25.1-9.8,31.8c-4.5,4.5-10.4,7-16.2,7
			c-2.8,0-5.5-0.6-7.9-1.8c-0.9,1.2-1.9,2.8-3,4.5c-0.8,1.3-2.2,2.2-3.8,2.2c-0.4,0-0.8-0.1-1.1-0.1l-0.9-0.3
			c-1.4-0.4-2.5-1.4-3-2.8c-0.5-1.4-0.3-2.9,0.6-4c1.5-2.1,3-4.1,4.5-5.9c-0.4-0.3-0.7-0.7-0.9-1.1c-3.7-7.5-1.6-17.5,5.2-24.3
			c4.9-4.9,12.7-6,20.3-6.6c5.2-0.4,9-1.8,10.8-2.5C68.2,26.1,68.7,26,69.2,26L69.2,26 M69.2,24L69.2,24c-0.8,0-1.5,0.1-2.2,0.4
			c-1.7,0.7-5.3,1.9-10.2,2.4c-8,0.7-16.2,1.8-21.6,7.2c-7.4,7.4-9.7,18.3-5.6,26.6c0,0.1,0.1,0.2,0.1,0.2c-1.1,1.5-2.3,3.1-3.6,4.8
			c-1.2,1.7-1.5,3.9-0.8,5.9c0.7,2,2.3,3.5,4.4,4l0.9,0.3c0.5,0.1,1.1,0.2,1.7,0.2c2.3,0,4.4-1.2,5.5-3.1c0.7-1.1,1.3-2.2,1.9-3.1
			C42,70.6,44.5,71,47,71c6.4,0,12.8-2.8,17.6-7.6c3-3,8.3-11.2,10.4-33.1c0.2-1.6-0.4-3.2-1.5-4.5C72.4,24.7,70.8,24,69.2,24
			L69.2,24z"/>

			<linearGradient id="leaf-gradient" gradientUnits="userSpaceOnUse" x1="50" y1="29.0345" x2="50" y2="70.9655">
				<stop  offset="0" style="stop-color:#4CC933"/>
				<stop  offset="1" style="stop-color:#39B620"/>
			</linearGradient>
			<path fill="url(#leaf-gradient)" d="M61.1,59.9c6.3-6.3,8.4-24.8,8.9-30c0.1-0.6-0.6-1.1-1.1-0.8c-1.9,0.8-6.1,2.2-11.7,2.7
				c-7.5,0.6-14.4,1.7-18.5,5.8c-6,6-7.7,14.6-4.6,20.8c0.2,0.3,0.6,0.3,0.8,0.1c4.5-6.1,19.6-14.3,19.6-14.3
				c-11,7.9-16.9,14.1-24.3,24.4c-0.6,0.8-0.2,1.9,0.8,2.2l0.9,0.3c0.6,0.2,1.2-0.1,1.6-0.6c0.9-1.6,3-5,4.9-6.9
				C44.8,67.9,54.4,66.6,61.1,59.9z"/>

			<path class="highlight" opacity="0.35" fill="#FFFFFF" d="M38.7,38.6c4.1-4.1,11-5.1,18.5-5.8c5.6-0.5,9.7-1.9,11.7-2.7c0.4-0.2,0.9,0,1.1,0.4c0-0.2,0-0.4,0.1-0.6
				c0.1-0.6-0.6-1.1-1.1-0.8c-1.9,0.8-6.1,2.2-11.7,2.7c-7.5,0.6-14.4,1.7-18.5,5.8c-4.2,4.2-6.3,9.6-6.1,14.7
				C32.7,47.5,34.8,42.5,38.7,38.6z"/>
			<path class="highlight" opacity="0.35" fill="#FFFFFF" d="M30.3,69.5C37.6,59.2,43.5,53,54.5,45.1c0,0-2.6,1.4-6,3.5c-7.4,6-12.4,11.6-18.3,19.9
				c-0.3,0.4-0.3,0.9-0.2,1.3C30.1,69.7,30.2,69.6,30.3,69.5z"/>
		</g>
</svg>
