<svg xmlns="http://www.w3.org/2000/svg" width="48" height="48" viewBox="0 0 100 100"><title>leaf</title><g class="symbol energy static"><path class="outer" fill="#282828" d="M72 27.3c-.7-.8-1.7-1.2-2.8-1.2-.5 0-1 .1-1.5.3-1.8.7-5.6 2.1-10.8 2.5-7.6.7-15.4 1.7-20.3 6.6-6.8 6.8-8.9 16.7-5.2 24.3.2.4.5.8.9 1.1-1.5 1.8-2.9 3.8-4.5 5.9-.8 1.2-1 2.7-.6 4 .5 1.4 1.6 2.4 3 2.8l.9.3c.4.1.8.1 1.1.1 1.5 0 3-.8 3.8-2.2 1-1.8 2.1-3.3 3-4.5 2.4 1.2 5.1 1.8 7.9 1.8 5.8 0 11.7-2.6 16.2-7 6.7-6.7 9.1-24.5 9.8-31.8.2-1.2-.2-2.2-.9-3z"/><path class="edging" opacity=".65" fill="#FFF" d="M69.2 26c1.1 0 2.1.5 2.8 1.2.7.8 1.1 1.9 1 2.9-.7 7.3-3 25.1-9.8 31.8-4.5 4.5-10.4 7-16.2 7-2.8 0-5.5-.6-7.9-1.8-.9 1.2-1.9 2.8-3 4.5-.8 1.3-2.2 2.2-3.8 2.2-.4 0-.8-.1-1.1-.1l-.9-.3c-1.4-.4-2.5-1.4-3-2.8s-.3-2.9.6-4c1.5-2.1 3-4.1 4.5-5.9-.4-.3-.7-.7-.9-1.1-3.7-7.5-1.6-17.5 5.2-24.3 4.9-4.9 12.7-6 20.3-6.6 5.2-.4 9-1.8 10.8-2.5.4-.1.9-.2 1.4-.2m0-2c-.8 0-1.5.1-2.2.4-1.7.7-5.3 1.9-10.2 2.4-8 .7-16.2 1.8-21.6 7.2-7.4 7.4-9.7 18.3-5.6 26.6 0 .1.1.2.1.2-1.1 1.5-2.3 3.1-3.6 4.8-1.2 1.7-1.5 3.9-.8 5.9.7 2 2.3 3.5 4.4 4l.9.3c.5.1 1.1.2 1.7.2 2.3 0 4.4-1.2 5.5-3.1.7-1.1 1.3-2.2 1.9-3.1 2.3.8 4.8 1.2 7.3 1.2 6.4 0 12.8-2.8 17.6-7.6 3-3 8.3-11.2 10.4-33.1.2-1.6-.4-3.2-1.5-4.5-1.1-1.1-2.7-1.8-4.3-1.8z"/><linearGradient id="a" gradientUnits="userSpaceOnUse" x1="50" y1="29.035" x2="50" y2="70.966"><stop offset="0" stop-color="#4cc933"/><stop offset="1" stop-color="#39b620"/></linearGradient><path fill="url(#a)" d="M61.1 59.9c6.3-6.3 8.4-24.8 8.9-30 .1-.6-.6-1.1-1.1-.8-1.9.8-6.1 2.2-11.7 2.7-7.5.6-14.4 1.7-18.5 5.8-6 6-7.7 14.6-4.6 20.8.2.3.6.3.8.1 4.5-6.1 19.6-14.3 19.6-14.3-11 7.9-16.9 14.1-24.3 24.4-.6.8-.2 1.9.8 2.2l.9.3c.6.2 1.2-.1 1.6-.6.9-1.6 3-5 4.9-6.9 6.4 4.3 16 3 22.7-3.7z"/><path class="highlight" opacity=".35" fill="#FFF" d="M38.7 38.6c4.1-4.1 11-5.1 18.5-5.8 5.6-.5 9.7-1.9 11.7-2.7.4-.2.9 0 1.1.4 0-.2 0-.4.1-.6.1-.6-.6-1.1-1.1-.8-1.9.8-6.1 2.2-11.7 2.7-7.5.6-14.4 1.7-18.5 5.8-4.2 4.2-6.3 9.6-6.1 14.7 0-4.8 2.1-9.8 6-13.7zm-8.4 30.9C37.6 59.2 43.5 53 54.5 45.1c0 0-2.6 1.4-6 3.5-7.4 6-12.4 11.6-18.3 19.9-.3.4-.3.9-.2 1.3l.3-.3z"/></g></svg>