<svg xmlns="http://www.w3.org/2000/svg" width="48" height="48" viewBox="0 0 100 100"><title>led</title><g class="symbol"><path fill="#282828" d="M50.1 36h-.2c-7.2 0-13 5.8-13 13s5.8 13 13 13h.2c7.2 0 13-5.8 13-13s-5.8-13-13-13z"/><path class="edging" opacity=".65" fill="#FFF" d="M50.1 36c7.2 0 13 5.8 13 13s-5.8 13-13 13h-.2c-7.2 0-13-5.8-13-13s5.8-13 13-13h.2m0-2h-.2c-8.3 0-15 6.7-15 15s6.7 15 15 15h.2c8.3 0 15-6.7 15-15s-6.7-15-15-15z"/><linearGradient id="a" gradientUnits="userSpaceOnUse" x1="50" y1="37" x2="50" y2="61"><stop offset="0" stop-color="#666"/><stop offset="1" stop-color="#4d4d4d"/></linearGradient><path fill="url(#a)" d="M49.9 61c-6.6 0-12-5.4-12-12s5.4-12 12-12h.2c6.6 0 12 5.4 12 12s-5.4 12-12 12h-.2z"/><path fill="#282828" d="M50.1 38c6.1 0 11 4.9 11 11s-4.9 11-11 11h-.2c-6.1 0-11-4.9-11-11s4.9-11 11-11h.2m0-2h-.2c-7.2 0-13 5.8-13 13s5.8 13 13 13h.2c7.2 0 13-5.8 13-13s-5.8-13-13-13z"/><circle fill="#262626" cx="50" cy="49.7" r="7.6"/><g class="light animate"><path class="highlight" opacity=".35" fill="#F2F2F2" d="M49.9 39.2h.1c5.9 0 10.6 4.6 10.9 10.4V49c0-6.1-4.9-11-11-11h-.1c-6.1 0-11 4.9-11 11v.6c.5-5.8 5.3-10.4 11.1-10.4z"/><circle class="inner" fill="#40BD27" cx="50" cy="49.7" r="7.6"/><path class="highlight" opacity=".45" fill="#FFF" d="M50 44.1c3.4 0 6.2 2.6 6.5 6v-.5c0-3.6-2.9-6.5-6.5-6.5s-6.5 2.9-6.5 6.5v.5c.3-3.3 3.1-6 6.5-6z"/><circle class="highlight" opacity=".35" fill="#F2F2F2" cx="48" cy="47.7" r="3"/><circle class="highlight" opacity=".35" fill="#F2F2F2" cx="47" cy="46.7" r="1.1"/><radialGradient id="b" cx="50" cy="50" r="7" gradientUnits="userSpaceOnUse"><stop offset="0" stop-opacity=".9" stop-color="#fff"/><stop offset=".654" stop-opacity="0" stop-color="#fff"/></radialGradient><circle fill="url(#b)" cx="50" cy="50" r="7"/></g><circle fill="none" stroke="#1A1A1A" stroke-width="2" stroke-miterlimit="10" cx="50" cy="49.7" r="7.6"/></g></svg>