<svg xmlns="http://www.w3.org/2000/svg" width="48" height="48" viewBox="0 0 100 100">
  <title>led</title>
		<g id="led" class="symbol">
			<g id="bound">
				<rect class="" x="0" y="0" width="100" height="100" opacity="0"/>
			</g>

			<path fill="#282828" d="M50.1,36h-0.2c-7.2,0-13,5.8-13,13s5.8,13,13,13h0.2c7.2,0,13-5.8,13-13S57.3,36,50.1,36L50.1,36z"/>
			
			<path class="edging" opacity="0.65" fill="#FFFFFF" d="M50.1,36c7.2,0,13,5.8,13,13s-5.8,13-13,13h-0.2c-7.2,0-13-5.8-13-13s5.8-13,13-13H50.1 M50.1,34h-0.2
							c-8.3,0-15,6.7-15,15s6.7,15,15,15h0.2c8.3,0,15-6.7,15-15S58.4,34,50.1,34L50.1,34z"/>

			<linearGradient id="led-body-color" gradientUnits="userSpaceOnUse" x1="50" y1="37" x2="50" y2="61">
				<stop  offset="0" style="stop-color:#666666"/>
				<stop  offset="1" style="stop-color:#4D4D4D"/>
			</linearGradient>
			
			<path fill="url(#led-body-color)" d="M49.9,61c-6.6,0-12-5.4-12-12s5.4-12,12-12h0.2c6.6,0,12,5.4,12,12s-5.4,12-12,12H49.9z"/>
			
			<path fill="#282828" d="M50.1,38c6.1,0,11,4.9,11,11s-4.9,11-11,11h-0.2c-6.1,0-11-4.9-11-11s4.9-11,11-11H50.1 M50.1,36h-0.2
					c-7.2,0-13,5.8-13,13s5.8,13,13,13h0.2c7.2,0,13-5.8,13-13S57.3,36,50.1,36L50.1,36z"/>

			<circle fill="#262626" cx="50" cy="49.7" r="7.6"/>

			<g class="light animate">
				<path class="highlight" opacity="0.35" fill="#F2F2F2" d="M49.9,39.2h0.1c5.9,0,10.6,4.6,10.9,10.4c0-0.2,0-0.4,0-0.6c0-6.1-4.9-11-11-11h-0.1c-6.1,0-11,4.9-11,11
						c0,0.2,0,0.4,0,0.6C39.3,43.8,44.1,39.2,49.9,39.2z"/>

				<circle class="inner" fill="#40BD27" cx="50" cy="49.7" r="7.6"/>
				
				<path class="highlight" opacity="0.45" fill="#FFFFFF" d="M50,44.1c3.4,0,6.2,2.6,6.5,6c0-0.2,0-0.3,0-0.5c0-3.6-2.9-6.5-6.5-6.5
					c-3.6,0-6.5,2.9-6.5,6.5c0,0.2,0,0.3,0,0.5C43.8,46.8,46.6,44.1,50,44.1z"/>
				
				<circle class="highlight" opacity="0.35" fill="#F2F2F2" cx="48" cy="47.7" r="3"/>
				<circle class="highlight" opacity="0.35" fill="#F2F2F2" cx="47" cy="46.7" r="1.1"/>

				<radialGradient id="bright-gradient" cx="50" cy="50" r="7" gradientUnits="userSpaceOnUse">
					<stop  offset="0" style="stop-color:#FFFFFF" stop-opacity=".9"/>
					<stop  offset="0.6542" style="stop-color:#ffffff" stop-opacity="0"/>
				</radialGradient>
				<circle fill="url(#bright-gradient)" cx="50" cy="50" r="7"/>

			</g>

			<circle fill="none" stroke="#1A1A1A" stroke-width="2" stroke-miterlimit="10" cx="50" cy="49.7" r="7.6"/>
		</g>
</svg>