<svg xmlns="http://www.w3.org/2000/svg" width="48" height="48" viewBox="0 0 100 100">
  <title>light-bulb</title>
<g id="light-bulb" class="symbol energy static">
			<g id="bound">
				<rect class="" x="0" y="0" width="100" height="100" opacity="0"/>
			</g>

			<path class="outer" fill="#282828" d="M50,15.5c-12.5,0-22.6,10.1-22.6,22.6c0,8.5,3.1,13,5.9,17c2.2,3.2,3.9,5.7,3.9,10c0,1.5,0.6,2.9,1.7,4
				c-0.2,0.5-0.3,1.1-0.3,1.7c0,0.8,0.2,1.5,0.5,2.1c-0.3,0.6-0.5,1.3-0.5,2.1c0,1.6,0.8,2.9,2.1,3.6c0,0.1,0,0.2,0.1,0.3
				c1.7,3.5,5.2,5.6,9.3,5.6c4,0,7.5-2,9.2-5.5c0.1-0.1,0.1-0.3,0.2-0.4c1.3-0.7,2.1-2,2.1-3.6c0-0.8-0.2-1.5-0.5-2.1
				c0.3-0.6,0.5-1.4,0.5-2.1c0-0.6-0.1-1.2-0.3-1.7c1-1.1,1.7-2.5,1.7-4c0-4.3,1.7-6.8,3.9-9.9c2.6-3.8,5.9-8.5,5.9-17
				C72.6,25.7,62.5,15.5,50,15.5z"/>
			<path class="edging" opacity="0.65" fill="#FFFFFF" d="M50,15.5c12.5,0,22.6,10.2,22.6,22.7c0,8.5-3.3,13.2-5.9,17c-2.2,3.2-3.9,5.7-3.9,9.9c0,1.5-0.6,2.9-1.7,4
				c0.2,0.5,0.3,1.1,0.3,1.7c0,0.8-0.2,1.5-0.5,2.1c0.3,0.6,0.5,1.3,0.5,2.1c0,1.6-0.8,2.9-2.1,3.6c0,0.1-0.1,0.3-0.2,0.4
				c-1.8,3.4-5.2,5.5-9.2,5.5c-4.1,0-7.6-2.1-9.3-5.6c0-0.1-0.1-0.2-0.1-0.3c-1.3-0.7-2.1-2-2.1-3.6c0-0.8,0.2-1.5,0.5-2.1
				c-0.3-0.6-0.5-1.4-0.5-2.1c0-0.6,0.1-1.2,0.3-1.7c-1-1.1-1.7-2.5-1.7-4c0-4.3-1.7-6.8-3.9-10c-2.8-4-5.9-8.5-5.9-17
				C27.4,25.6,37.5,15.5,50,15.5 M50,13.5c-13.6,0-24.6,11-24.6,24.6c0,9.1,3.5,14.1,6.2,18.1c2.2,3.1,3.6,5.2,3.6,8.9
				c0,1.5,0.5,3.1,1.4,4.4c-0.1,0.4-0.1,0.9-0.1,1.3c0,0.7,0.1,1.4,0.4,2.1c-0.2,0.7-0.4,1.4-0.4,2.1c0,2,0.9,3.8,2.5,5
				c2.1,4.1,6.2,6.5,11,6.5c4.8,0,8.9-2.4,11-6.5c1.6-1.2,2.5-3,2.5-5c0-0.7-0.1-1.4-0.4-2.1c0.2-0.7,0.4-1.4,0.4-2.1
				c0-0.4,0-0.9-0.1-1.3c0.9-1.3,1.4-2.9,1.4-4.4c0-3.7,1.4-5.7,3.6-8.8c2.6-3.8,6.2-9,6.2-18.1C74.6,24.6,63.6,13.5,50,13.5L50,13.5
				z"/>

			<linearGradient id="bulb-light-gradient" gradientUnits="userSpaceOnUse" x1="30.388" y1="43.2077" x2="69.612" y2="43.2077">
				<stop  offset="0" style="stop-color:#FFE6B4"/>
				<stop  offset="1" style="stop-color:#FFDE87"/>
			</linearGradient>
			<path class="bulb" fill="url(#bulb-light-gradient)" d="M50,18.5c-10.8,0-19.6,8.8-19.6,19.6c0,14.2,9.8,15.9,9.8,27c0,1.3,1.3,2.8,2.6,2.8h14.4
				c1.3,0,2.6-1.5,2.6-2.8c0-11.1,9.8-12.7,9.8-26.9C69.6,27.4,60.8,18.5,50,18.5z"/>

			<linearGradient id="bulb-off-gradient" gradientUnits="userSpaceOnUse" x1="30.388" y1="43.2077" x2="69.612" y2="43.2077">
				<stop  offset="0" style="stop-color:#E6E6E6"/>
				<stop  offset="1" style="stop-color:#CCCCCC"/>
			</linearGradient>

			<linearGradient id="bulb-socket-gradient" gradientUnits="userSpaceOnUse" x1="43.3966" y1="79.5388" x2="56.6034" y2="79.5388">
				<stop  offset="0" style="stop-color:#E6E6E6"/>
				<stop  offset="1" style="stop-color:#CCCCCC"/>
			</linearGradient>
			<path fill="url(#bulb-socket-gradient)" d="M50,81.5c2.8,0,5.3-1.3,6.6-3.9H43.4C44.7,80.2,47.2,81.5,50,81.5z"/>
			<path fill="url(#bulb-socket-gradient)" d="M56.9,69.2H43.1c-0.9,0-1.6,0.7-1.6,1.6c0,0.9,0.7,1.6,1.6,1.6h13.7c0.9,0,1.6-0.7,1.6-1.6
				C58.5,69.9,57.8,69.2,56.9,69.2z"/>
			<path fill="url(#bulb-socket-gradient)" d="M56.9,73.7H43.1c-0.9,0-1.6,0.4-1.6,1.3c0,0.9,0.7,1.3,1.6,1.3h13.7c0.9,0,1.6-0.4,1.6-1.3
				C58.5,74.1,57.8,73.7,56.9,73.7z"/>


			<path class="highlight" fill="#FFFFFF" fill-opacity="0.35" d="M44,78.6h12c0.2-0.3,0.4-0.6,0.6-1H43.4C43.6,77.9,43.8,78.3,44,78.6z"/>
			<path class="highlight" fill="#FFFFFF" fill-opacity="0.35" d="M43.1,74.7h13.7c0.7,0,1.3,0.2,1.5,0.8c0.1-0.1,0.1-0.3,0.1-0.5c0-0.9-0.7-1.3-1.6-1.3
				H43.1c-0.9,0-1.6,0.4-1.6,1.3c0,0.2,0,0.4,0.1,0.5C41.8,75,42.4,74.7,43.1,74.7z"/>
			<path class="highlight" fill="#FFFFFF" fill-opacity="0.35" d="M43.1,70.2h13.7c0.7,0,1.3,0.5,1.5,1.1c0.1-0.2,0.1-0.3,0.1-0.5c0-0.9-0.7-1.6-1.6-1.6
				H43.1c-0.9,0-1.6,0.7-1.6,1.6c0,0.2,0,0.3,0.1,0.5C41.8,70.7,42.4,70.2,43.1,70.2z"/>
		
			<path class="highlight" fill="#FFFFFF" fill-opacity="0.35" d="M35,40c-0.6,0-1-0.4-1-1c0-8.8,7.2-16,16-16c0.6,0,1,0.4,1,1s-0.4,1-1,1c-7.7,0-14,6.3-14,14
			C36,39.6,35.6,40,35,40z"/>


		</g>
</svg>