<svg xmlns="http://www.w3.org/2000/svg" width="48" height="48" viewBox="0 0 100 100"><title>light-bulb</title><g class="symbol energy static"><path class="outer" fill="#282828" d="M50 15.5c-12.5 0-22.6 10.1-22.6 22.6 0 8.5 3.1 13 5.9 17 2.2 3.2 3.9 5.7 3.9 10 0 1.5.6 2.9 1.7 4-.2.5-.3 1.1-.3 1.7 0 .8.2 1.5.5 2.1-.3.6-.5 1.3-.5 2.1 0 1.6.8 2.9 2.1 3.6 0 .1 0 .2.1.3 1.7 3.5 5.2 5.6 9.3 5.6 4 0 7.5-2 9.2-5.5.1-.1.1-.3.2-.4 1.3-.7 2.1-2 2.1-3.6 0-.8-.2-1.5-.5-2.1.3-.6.5-1.4.5-2.1 0-.6-.1-1.2-.3-1.7 1-1.1 1.7-2.5 1.7-4 0-4.3 1.7-6.8 3.9-9.9 2.6-3.8 5.9-8.5 5.9-17-.2-12.5-10.3-22.7-22.8-22.7z"/><path class="edging" opacity=".65" fill="#FFF" d="M50 15.5c12.5 0 22.6 10.2 22.6 22.7 0 8.5-3.3 13.2-5.9 17-2.2 3.2-3.9 5.7-3.9 9.9 0 1.5-.6 2.9-1.7 4 .2.5.3 1.1.3 1.7 0 .8-.2 1.5-.5 2.1.3.6.5 1.3.5 2.1 0 1.6-.8 2.9-2.1 3.6 0 .1-.1.3-.2.4-1.8 3.4-5.2 5.5-9.2 5.5-4.1 0-7.6-2.1-9.3-5.6 0-.1-.1-.2-.1-.3-1.3-.7-2.1-2-2.1-3.6 0-.8.2-1.5.5-2.1-.3-.6-.5-1.4-.5-2.1 0-.6.1-1.2.3-1.7-1-1.1-1.7-2.5-1.7-4 0-4.3-1.7-6.8-3.9-10-2.8-4-5.9-8.5-5.9-17 .2-12.5 10.3-22.6 22.8-22.6m0-2c-13.6 0-24.6 11-24.6 24.6 0 9.1 3.5 14.1 6.2 18.1 2.2 3.1 3.6 5.2 3.6 8.9 0 1.5.5 3.1 1.4 4.4-.1.4-.1.9-.1 1.3 0 .7.1 1.4.4 2.1-.2.7-.4 1.4-.4 2.1 0 2 .9 3.8 2.5 5 2.1 4.1 6.2 6.5 11 6.5s8.9-2.4 11-6.5c1.6-1.2 2.5-3 2.5-5 0-.7-.1-1.4-.4-2.1.2-.7.4-1.4.4-2.1 0-.4 0-.9-.1-1.3.9-1.3 1.4-2.9 1.4-4.4 0-3.7 1.4-5.7 3.6-8.8 2.6-3.8 6.2-9 6.2-18.1 0-13.6-11-24.7-24.6-24.7z"/><linearGradient id="a" gradientUnits="userSpaceOnUse" x1="30.388" y1="43.208" x2="69.612" y2="43.208"><stop offset="0" stop-color="#ffe6b4"/><stop offset="1" stop-color="#ffde87"/></linearGradient><path class="bulb" fill="url(#a)" d="M50 18.5c-10.8 0-19.6 8.8-19.6 19.6 0 14.2 9.8 15.9 9.8 27 0 1.3 1.3 2.8 2.6 2.8h14.4c1.3 0 2.6-1.5 2.6-2.8 0-11.1 9.8-12.7 9.8-26.9 0-10.8-8.8-19.7-19.6-19.7z"/><linearGradient id="b" gradientUnits="userSpaceOnUse" x1="43.397" y1="79.539" x2="56.603" y2="79.539"><stop offset="0" stop-color="#e6e6e6"/><stop offset="1" stop-color="#ccc"/></linearGradient><path fill="url(#b)" d="M50 81.5c2.8 0 5.3-1.3 6.6-3.9H43.4c1.3 2.6 3.8 3.9 6.6 3.9zm6.9-12.3H43.1c-.9 0-1.6.7-1.6 1.6 0 .9.7 1.6 1.6 1.6h13.7c.9 0 1.6-.7 1.6-1.6.1-.9-.6-1.6-1.5-1.6zm0 4.5H43.1c-.9 0-1.6.4-1.6 1.3s.7 1.3 1.6 1.3h13.7c.9 0 1.6-.4 1.6-1.3.1-.9-.6-1.3-1.5-1.3z"/><path class="highlight" fill="#FFF" fill-opacity=".35" d="M44 78.6h12c.2-.3.4-.6.6-1H43.4c.2.3.4.7.6 1zm-.9-3.9h13.7c.7 0 1.3.2 1.5.8.1-.1.1-.3.1-.5 0-.9-.7-1.3-1.6-1.3H43.1c-.9 0-1.6.4-1.6 1.3 0 .2 0 .4.1.5.2-.5.8-.8 1.5-.8zm0-4.5h13.7c.7 0 1.3.5 1.5 1.1.1-.2.1-.3.1-.5 0-.9-.7-1.6-1.6-1.6H43.1c-.9 0-1.6.7-1.6 1.6 0 .2 0 .3.1.5.2-.6.8-1.1 1.5-1.1zM35 40c-.6 0-1-.4-1-1 0-8.8 7.2-16 16-16 .6 0 1 .4 1 1s-.4 1-1 1c-7.7 0-14 6.3-14 14 0 .6-.4 1-1 1z"/></g></svg>