<svg xmlns="http://www.w3.org/2000/svg" width="48" height="48" viewBox="0 0 100 100"><title>low-voltage-drawout-breaker</title><g class="symbol position"><linearGradient id="a" gradientUnits="userSpaceOnUse" x1="50.5" y1="32.5" x2="50.5" y2="68.5"><stop offset="0" stop-color="#666"/><stop offset="1" stop-color="#4d4d4d"/></linearGradient><path class="outer" fill="#282828" d="M105.9 48.5c1.1-1.1 3-1.1 4.1 0l7.3 7.3c1.1 1.1 1.1 3 0 4.1l-7.3 7.3c-.6.6-1.3.9-2.1.9-.7 0-1.5-.3-2.1-.9-1.1-1.1-1.1-3 0-4.1l5.2-5.2-5.2-5.2c-1.1-1.2-1.1-3.1.1-4.2z"/><path class="edging" fill="#FFF" d="M107.9 47.7c.7 0 1.5.3 2.1.9l7.3 7.3c1.1 1.1 1.1 3 0 4.1l-7.3 7.3c-.6.6-1.3.9-2.1.9-.7 0-1.5-.3-2.1-.9-1.1-1.1-1.1-3 0-4.1L111 58l-5.2-5.2c-1.1-1.1-1.1-3 0-4.1.6-.8 1.4-1 2.1-1m0-2c-1.3 0-2.5.5-3.5 1.4-.9.9-1.4 2.2-1.4 3.5 0 1.3.5 2.5 1.4 3.5l3.8 3.8-3.8 3.8c-.9.9-1.4 2.2-1.4 3.5 0 1.3.5 2.5 1.4 3.5.9.9 2.2 1.4 3.5 1.4 1.3 0 2.5-.5 3.5-1.4l7.3-7.3c.9-.9 1.4-2.2 1.4-3.5 0-1.3-.5-2.5-1.4-3.5l-7.3-7.3c-1-.9-2.2-1.4-3.5-1.4z"/><path class="outer" fill="#282828" d="M14.2 48.5c-1.1-1.1-3-1.1-4.1 0l-7.3 7.3c-1.1 1.1-1.1 3 0 4.1l7.3 7.3c.6.6 1.3.9 2.1.9.7 0 1.5-.3 2.1-.9 1.1-1.1 1.1-3 0-4.1L9 57.8l5.2-5.2c1.1-1.1 1.1-3 0-4.1z"/><path class="edging" fill="#FFF" d="M12.2 47.7c.7 0 1.5.3 2.1.9 1.1 1.1 1.1 3 0 4.1L9 57.8l5.2 5.2c1.1 1.1 1.1 3 0 4.1-.6.6-1.3.9-2.1.9-.7 0-1.5-.3-2.1-.9l-7.3-7.3c-1.1-1.1-1.1-3 0-4.1l7.3-7.3c.7-.5 1.4-.7 2.2-.7m0-2c-1.3 0-2.5.5-3.5 1.4l-7.3 7.3c-.9.9-1.4 2.1-1.4 3.4 0 1.3.5 2.5 1.4 3.5l7.3 7.3c.9.9 2.2 1.4 3.5 1.4 1.3 0 2.5-.5 3.5-1.4.9-.9 1.4-2.2 1.4-3.5 0-1.3-.5-2.5-1.4-3.5l-3.8-3.8 3.8-3.8c.9-.9 1.4-2.2 1.4-3.5 0-1.3-.5-2.5-1.4-3.5-1-.8-2.2-1.3-3.5-1.3z"/><g class="animate"><g class="animate"><path class="outer" fill="#282828" d="M34.5 55.3h-6.8l2.5-2.5c1.1-1.1 1.1-3 0-4.1-1.1-1.1-3-1.1-4.1 0L18.8 56l-.1.1-.2.2-.2.2c0 .1-.1.1-.1.2s-.1.1-.1.2v.1c0 .1-.1.2-.1.3v.1c0 .2-.1.3-.1.5v.1c0 .8.3 1.5.8 2.1l7.3 7.3c.6.6 1.3.9 2.1.9.7 0 1.5-.3 2.1-.9 1.1-1.1 1.1-3 0-4.1l-2.9-2.9h7.2c1.4 0 2.5-1.1 2.5-2.5 0-1.5-1.1-2.6-2.5-2.6z"/><path class="edging" fill="#FFF" d="M28.2 47.8c.7 0 1.5.3 2.1.9 1.1 1.1 1.1 3 0 4.1l-2.5 2.5h6.8c1.4 0 2.5 1.1 2.5 2.5s-1.1 2.5-2.5 2.5h-7.2l2.9 2.9c1.1 1.1 1.1 3 0 4.1-.6.6-1.3.9-2.1.9-.7 0-1.5-.3-2.1-.9L18.9 60c-.6-.6-.9-1.4-.8-2.1v-.1c0-.2 0-.4.1-.5v-.1c0-.1.1-.2.1-.3v-.1c0-.1.1-.1.1-.2s.1-.1.1-.2.1-.1.2-.2l.2-.2.1-.1 7.3-7.3c.4-.5 1.1-.8 1.9-.8m0-2c-1.3 0-2.5.5-3.5 1.4l-7.3 7.3-.1.1-.1.1-.2.2v.1l-.3.3c-.1.1-.1.2-.2.4 0 .1-.1.1-.1.2v.1l-.1.1v.2c0 .1-.1.2-.1.3 0 .1 0 .1-.1.2-.1.4-.1.7-.1 1v.2c0 1.3.5 2.5 1.4 3.4l7.3 7.3c.9.9 2.2 1.4 3.5 1.4 1.3 0 2.5-.5 3.5-1.4.9-.9 1.4-2.2 1.4-3.5 0-1.1-.3-2.1-1-2.9h2.4c2.5 0 4.5-2 4.5-4.5 0-2-1.3-3.7-3.1-4.3v-.2h-3.5c.5-.8.7-1.7.7-2.6 0-1.3-.5-2.5-1.4-3.5-1-.9-2.2-1.4-3.5-1.4z"/></g><g class="animate"><path class="outer" fill="#282828" d="M101.9 57.8c0-.2 0-.4-.1-.5v-.1c0-.1-.1-.3-.1-.4-.1-.1-.1-.2-.2-.4 0 0 0-.1-.1-.1-.1-.1-.2-.2-.2-.3l-.1-.1-7.3-7.3c-1.1-1.1-3-1.1-4.1 0-1.1 1.1-1.1 3 0 4.1l2.5 2.5h-6.8c-1.4 0-2.5 1.1-2.5 2.5s1.1 2.5 2.5 2.5h7.1l-2.9 2.9c-1.1 1.1-1.1 3 0 4.1.6.6 1.3.9 2.1.9.7 0 1.5-.3 2.1-.9l7.3-7.3c.6-.6.8-1.3.8-2v-.1z"/><path class="edging" fill="#FFF" d="M91.7 47.8c.7 0 1.5.3 2.1.9l7.3 7.3.1.1c.1.1.2.2.2.3 0 0 0 .1.1.1.1.1.2.2.2.4.1.1.1.3.1.4v.1c0 .2.1.3.1.5v.2c0 .7-.3 1.5-.8 2l-7.3 7.3c-.6.6-1.3.9-2.1.9-.7 0-1.5-.3-2.1-.9-1.1-1.1-1.1-3 0-4.1l2.9-2.9h-7.1c-1.4 0-2.5-1.1-2.5-2.5s1.1-2.5 2.5-2.5h6.8l-2.5-2.5c-1.1-1.1-1.1-3 0-4.1.6-.7 1.3-1 2-1m0-2c-1.3 0-2.5.5-3.5 1.4-.9.9-1.4 2.2-1.4 3.5 0 .9.3 1.8.7 2.6H84v.2c-1.8.6-3.1 2.3-3.1 4.3 0 2.5 2 4.5 4.5 4.5h2.4c-.6.8-1 1.9-1 2.9 0 1.3.5 2.5 1.4 3.5.9.9 2.2 1.4 3.5 1.4 1.3 0 2.5-.5 3.5-1.4l7.3-7.3c.9-.9 1.4-2.1 1.4-3.3v-.3c0-.3 0-.6-.1-.9v-.2c0-.2-.1-.3-.1-.4v-.1l-.1-.2v-.1l-.3-.6c0-.1-.1-.1-.1-.2l-.3-.3-.1-.1-7.3-7.3c-1.2-1.1-2.4-1.6-3.8-1.6z"/></g><g class="animate"><path class="edging" fill="#FFF" d="M60 23.5c10.8 0 20.8 6 25.4 15.3 1.2 2.5.2 5.5-2.3 6.7-.6.4-1.4.5-2.1.5-1.9 0-3.6-1.1-4.5-2.8-2.9-5.9-9.4-9.8-16.5-9.8h-.2c-7 .1-13.4 3.9-16.3 9.8-.8 1.7-2.5 2.8-4.4 2.8-.8 0-1.5-.2-2.2-.5-1.2-.6-2.1-1.6-2.5-2.9-.4-1.3-.3-2.6.3-3.8 4.6-9.2 14.5-15.3 25.2-15.4 0 .1 0 .1.1.1m0-2h-.2c-11.5.1-22.1 6.6-27 16.5-.8 1.7-1 3.6-.4 5.3.6 1.8 1.9 3.2 3.5 4 1 .5 2 .7 3.1.7h.1c2.7 0 5-1.5 6.2-3.9 2.6-5.2 8.3-8.6 14.6-8.7h.1c6.3 0 12.1 3.4 14.7 8.7 1.2 2.4 3.6 3.9 6.3 3.9 1 0 2.1-.3 3-.7 3.5-1.7 4.9-5.9 3.2-9.4C82.3 28 71.6 21.5 60 21.5z"/><path class="inner" fill="url(#a)" d="M81 44.5c-1.3 0-2.6-.8-3.2-1.9-3.2-6.5-10.3-10.7-18-10.6-7.6.1-14.5 4.2-17.7 10.6-.6 1.2-1.8 1.9-3.1 1.9-.5 0-1.1-.1-1.6-.4-.8-.4-1.5-1.1-1.8-2-.3-.9-.2-1.8.2-2.7 4.3-8.7 13.7-14.4 23.9-14.5C70 24.8 79.6 30.5 84 39.4c.9 1.7.1 3.8-1.6 4.7-.4.3-.9.4-1.4.4z"/><path class="outer" fill="#282828" d="M59.8 26.5c9.8-.1 18.8 5.3 22.9 13.7.5 1 .1 2.2-.9 2.7-.2.1-.5.1-.8.1-.7 0-1.5-.4-1.8-1.1-3.5-7-11.1-11.5-19.3-11.4-8.1.1-15.6 4.6-19 11.5-.3.7-1 1.1-1.8 1.1-.3 0-.6-.1-.9-.2-1-.5-1.4-1.7-.9-2.7 4-8.2 12.9-13.6 22.5-13.7m0-3c-10.7.1-20.6 6.1-25.2 15.4-.6 1.2-.7 2.6-.3 3.8.4 1.3 1.3 2.3 2.5 2.9.7.3 1.5.5 2.3.5 1.9 0 3.6-1.1 4.4-2.8 2.9-5.9 9.3-9.7 16.3-9.8 7.1-.1 13.6 3.8 16.6 9.8.8 1.7 2.6 2.8 4.5 2.8.8 0 1.5-.2 2.2-.5 2.5-1.2 3.5-4.2 2.3-6.7-4.6-9.5-14.7-15.5-25.6-15.4z"/><path class="highlight" d="M59.9 27.4c10.3-.1 19.8 6.2 23 14.3.2-.5.1-1-.1-1.5-4.2-8.4-13.2-13.7-22.9-13.7-9.6.1-18.5 5.4-22.6 13.7-.3.5-.3 1.2 0 1.7 3-8.1 12.3-14.4 22.6-14.5z" opacity=".35" fill="#fff"/></g></g></g></svg>