<svg xmlns="http://www.w3.org/2000/svg" width="48" height="48" viewBox="0 0 100 100"><title>low-voltage-breaker</title><g class="symbol"><linearGradient id="a" gradientUnits="userSpaceOnUse" x1="50.5" y1="32.5" x2="50.5" y2="68.5"><stop offset="0" stop-color="#666"/><stop offset="1" stop-color="#4d4d4d"/></linearGradient><path class="outer" fill="#282828" d="M90 55.8H76c-1.4 0-2.5 1.1-2.5 2.5s1.1 2.5 2.5 2.5h14c1.4 0 2.5-1.1 2.5-2.5s-1.2-2.5-2.5-2.5z"/><path class="edging" fill="#FFF" d="M90 55.8c1.4 0 2.5 1.1 2.5 2.5s-1.1 2.5-2.5 2.5H76c-1.4 0-2.5-1.1-2.5-2.5s1.1-2.5 2.5-2.5h14m0-2H76c-2.5 0-4.5 2-4.5 4.5s2 4.5 4.5 4.5h14c2.5 0 4.5-2 4.5-4.5s-2.1-4.5-4.5-4.5z"/><path class="outer" fill="#282828" d="M25.1 55.8h-14c-1.4 0-2.5 1.1-2.5 2.5s1.1 2.5 2.5 2.5h14c1.4 0 2.5-1.1 2.5-2.5s-1.2-2.5-2.5-2.5z"/><path class="edging" fill="#FFF" d="M25.1 55.8c1.4 0 2.5 1.1 2.5 2.5s-1.1 2.5-2.5 2.5h-14c-1.4 0-2.5-1.1-2.5-2.5s1.1-2.5 2.5-2.5h14m0-2h-14c-2.5 0-4.5 2-4.5 4.5s2 4.5 4.5 4.5h14c2.5 0 4.5-2 4.5-4.5s-2.1-4.5-4.5-4.5z"/><g class="animate"><path class="edging" fill="#FFF" d="M50.6 24c10.8 0 20.8 6 25.4 15.3 1.2 2.5.2 5.5-2.3 6.7-.7.3-1.4.5-2.2.5-1.9 0-3.6-1.1-4.5-2.8-2.9-5.9-9.4-9.8-16.5-9.8h-.2c-7 .1-13.4 3.9-16.3 9.8-.8 1.7-2.5 2.8-4.4 2.8-.8 0-1.5-.2-2.2-.5-1.2-.6-2.1-1.6-2.5-2.9-.4-1.3-.3-2.6.3-3.8 4.6-9.2 14.5-15.3 25.2-15.4 0 .1.1.1.2.1m0-2h-.2c-11.5.1-22.1 6.6-27 16.5-.8 1.7-1 3.6-.4 5.3.6 1.8 1.9 3.2 3.5 4 1 .5 2 .7 3.1.7h.1c2.7 0 5-1.5 6.2-3.9 2.6-5.2 8.3-8.6 14.6-8.7h.1c6.3 0 12.1 3.4 14.7 8.7 1.2 2.4 3.6 3.9 6.3 3.9 1 0 2.1-.3 3-.7 3.5-1.7 4.9-5.9 3.2-9.4-5-9.9-15.7-16.4-27.2-16.4z"/><path class="outer" fill="#282828" d="M50.3 24c-10.7.1-20.6 6.1-25.2 15.4-.6 1.2-.7 2.6-.3 3.8.4 1.3 1.3 2.3 2.5 2.9.7.3 1.5.5 2.3.5 1.9 0 3.6-1.1 4.4-2.8 2.9-5.9 9.3-9.7 16.3-9.8 7.1-.1 13.6 3.8 16.6 9.8.8 1.7 2.6 2.8 4.5 2.8.8 0 1.5-.2 2.2-.5 2.5-1.2 3.5-4.2 2.3-6.7-4.6-9.5-14.6-15.5-25.6-15.4z"/><path class="inner" fill="url(#a)" d="M71.5 45c-1.3 0-2.6-.8-3.2-1.9-3.2-6.5-10.3-10.7-18-10.6-7.6.1-14.5 4.2-17.7 10.6-.6 1.2-1.8 1.9-3.1 1.9-.5 0-1.1-.1-1.6-.4-.8-.4-1.5-1.1-1.8-2-.3-.9-.2-1.8.2-2.7 4.3-8.7 13.7-14.4 23.9-14.5 10.3-.1 19.9 5.6 24.3 14.5.9 1.7.1 3.8-1.6 4.7-.3.3-.8.4-1.4.4z"/><path class="outer" fill="#282828" d="M50.4 27c9.8-.1 18.8 5.3 22.9 13.7.5 1 .1 2.2-.9 2.7-.3.1-.6.2-.9.2-.7 0-1.5-.4-1.8-1.1-3.5-7-11.1-11.5-19.3-11.4-8.1.1-15.6 4.6-19 11.5-.3.7-1 1.1-1.8 1.1-.3 0-.6-.1-.9-.2-1-.5-1.4-1.7-.9-2.7 4.1-8.3 12.9-13.7 22.6-13.8m-.1-3c-10.7.1-20.6 6.1-25.2 15.4-.6 1.2-.7 2.6-.3 3.8.4 1.3 1.3 2.3 2.5 2.9.7.3 1.5.5 2.3.5 1.9 0 3.6-1.1 4.4-2.8 2.9-5.9 9.3-9.7 16.3-9.8 7.1-.1 13.6 3.8 16.6 9.8.8 1.7 2.6 2.8 4.5 2.8.8 0 1.5-.2 2.2-.5 2.5-1.2 3.5-4.2 2.3-6.7-4.6-9.5-14.6-15.5-25.6-15.4z"/><path class="highlight" opacity=".35" fill="#FFF" d="M50.4 27.9c10.3-.1 19.8 6.2 23 14.3.2-.5.1-1-.1-1.5C69.1 32.3 60.1 27 50.4 27c-9.6.1-18.5 5.4-22.6 13.7-.3.5-.3 1.2 0 1.7 3.1-8.1 12.4-14.4 22.6-14.5z"/></g></g></svg>