<?xml version="1.0" encoding="utf-8"?><svg version="1.1" id="a" xmlns="http://www.w3.org/2000/svg" xmlns:xlink="http://www.w3.org/1999/xlink" x="0px" y="0px" viewBox="0 0 48 48" enable-background="new 0 0 48 48" xml:space="preserve"><g><g><path fill="#282828" d="M41.18,25.79c0.53-0.53,1.44-0.53,1.97,0l3.5,3.5c0.53,0.53,0.53,1.44,0,1.97l-3.5,3.5c-0.29,0.29-0.62,0.43-1.01,0.43c-0.34,0-0.72-0.14-1.01-0.43c-0.53-0.53-0.53-1.44,0-1.97l2.5-2.5l-2.5-2.5C40.61,27.23,40.61,26.32,41.18,25.79z"/><path fill="#FFFFFF" d="M42.14,25.41c0.34,0,0.72,0.14,1.01,0.43l3.5,3.5c0.53,0.53,0.53,1.44,0,1.97l-3.5,3.5c-0.29,0.29-0.62,0.43-1.01,0.43c-0.34,0-0.72-0.14-1.01-0.43c-0.53-0.53-0.53-1.44,0-1.97l2.5-2.5l-2.5-2.5c-0.53-0.53-0.53-1.44,0-1.97C41.42,25.5,41.81,25.41,42.14,25.41 M42.14,24.45c-0.62,0-1.2,0.24-1.68,0.67c-0.43,0.43-0.67,1.06-0.67,1.68c0,0.62,0.24,1.2,0.67,1.68l1.82,1.82l-1.82,1.82c-0.43,0.43-0.67,1.06-0.67,1.68c0,0.62,0.24,1.2,0.67,1.68c0.43,0.43,1.06,0.67,1.68,0.67s1.2-0.24,1.68-0.67l3.5-3.5C47.76,31.55,48,30.93,48,30.3c0-0.62-0.24-1.2-0.67-1.68l-3.5-3.5C43.34,24.69,42.77,24.45,42.14,24.45z"/></g><g><path fill="#282828" d="M6.82,25.8c-0.53-0.53-1.44-0.53-1.97,0l-3.5,3.5c-0.53,0.53-0.53,1.44,0,1.97l3.5,3.5c0.29,0.29,0.62,0.43,1.01,0.43c0.34,0,0.72-0.14,1.01-0.43c0.53-0.53,0.53-1.44,0-1.97l-2.54-2.54l2.5-2.5C7.34,27.24,7.34,26.32,6.82,25.8z"/><path fill="#FFFFFF" d="M5.86,25.41c0.34,0,0.72,0.14,1.01,0.43c0.53,0.53,0.53,1.44,0,1.97l-2.54,2.45l2.5,2.5c0.53,0.53,0.53,1.44,0,1.97c-0.29,0.29-0.62,0.43-1.01,0.43c-0.34,0-0.72-0.14-1.01-0.43l-3.5-3.5c-0.53-0.53-0.53-1.44,0-1.97l3.5-3.5C5.14,25.51,5.47,25.41,5.86,25.41 M5.86,24.45c-0.62,0-1.2,0.24-1.68,0.67l-3.5,3.5C0.24,29.06,0,29.64,0,30.26c0,0.62,0.24,1.2,0.67,1.68l3.5,3.5c0.43,0.43,1.06,0.67,1.68,0.67s1.2-0.24,1.68-0.67c0.43-0.43,0.67-1.06,0.67-1.68c0-0.62-0.24-1.2-0.67-1.68l-1.82-1.82l1.82-1.82c0.43-0.43,0.67-1.06,0.67-1.68c0-0.62-0.24-1.2-0.67-1.68C7.06,24.69,6.48,24.45,5.86,24.45z"/></g><g><path fill="#282828" d="M16.56,29.06H13.3l1.2-1.2c0.53-0.53,0.53-1.44,0-1.97c-0.53-0.53-1.44-0.53-1.97,0l-3.5,3.5l-0.05,0.05l-0.1,0.1l-0.1,0.1c0,0.05-0.05,0.05-0.05,0.1c0,0.05-0.05,0.05-0.05,0.1v0.05c0,0.05-0.05,0.1-0.05,0.14v0.05c0,0.1-0.05,0.14-0.05,0.24v0.05c0,0.38,0.14,0.72,0.38,1.01l3.5,3.5c0.29,0.29,0.62,0.43,1.01,0.43c0.34,0,0.72-0.14,1.01-0.43c0.53-0.53,0.53-1.44,0-1.97l-1.39-1.39h3.46c0.67,0,1.2-0.53,1.2-1.2C17.76,29.59,17.23,29.06,16.56,29.06z"/><path fill="#FFFFFF" d="M13.54,25.46c0.34,0,0.72,0.14,1.01,0.43c0.53,0.53,0.53,1.44,0,1.97l-1.2,1.2h3.26c0.67,0,1.2,0.53,1.2,1.2s-0.53,1.2-1.2,1.2h-3.46l1.39,1.39c0.53,0.53,0.53,1.44,0,1.97c-0.29,0.29-0.62,0.43-1.01,0.43c-0.34,0-0.72-0.14-1.01-0.43l-3.46-3.5c-0.29-0.29-0.43-0.67-0.38-1.01v-0.05c0-0.1,0-0.19,0.05-0.24v-0.05c0-0.05,0.05-0.1,0.05-0.14v-0.05c0-0.05,0.05-0.05,0.05-0.1c0-0.05,0.05-0.05,0.05-0.1c0-0.05,0.05-0.05,0.1-0.1l0.1-0.1l0.05-0.05l3.5-3.5C12.82,25.6,13.15,25.46,13.54,25.46 M13.54,24.5c-0.62,0-1.2,0.24-1.68,0.67l-3.5,3.5L8.3,28.72l-0.05,0.05l-0.1,0.1v0.05l-0.14,0.14c-0.05,0.05-0.05,0.1-0.1,0.19c0,0.05-0.05,0.05-0.05,0.1v0.05l-0.05,0.05v0.1c0,0.05-0.05,0.1-0.05,0.14c0,0.05,0,0.05-0.05,0.1c-0.05,0.19-0.05,0.34-0.05,0.48v0.1c0,0.62,0.24,1.2,0.67,1.63l3.5,3.5c0.43,0.43,1.06,0.67,1.68,0.67s1.2-0.24,1.68-0.67c0.43-0.43,0.67-1.06,0.67-1.68c0-0.53-0.14-1.01-0.48-1.39h1.15c1.2,0,2.16-0.96,2.16-2.16c0-0.96-0.62-1.78-1.49-2.06v-0.1h-1.68c0.24-0.38,0.34-0.82,0.34-1.25c0-0.62-0.24-1.2-0.67-1.68C14.74,24.74,14.16,24.5,13.54,24.5z"/></g><g><path fill="#282828" d="M39.26,30.25c0-0.1,0-0.19-0.05-0.24v-0.05c0-0.05-0.05-0.14-0.05-0.19c-0.05-0.05-0.05-0.1-0.1-0.19c0,0,0-0.05-0.05-0.05c-0.05-0.05-0.1-0.1-0.1-0.14l-0.05-0.05l-3.5-3.5c-0.53-0.53-1.44-0.53-1.97,0c-0.53,0.53-0.53,1.44,0,1.97l1.2,1.2h-3.26c-0.67,0-1.2,0.53-1.2,1.2s0.53,1.2,1.2,1.2h3.41l-1.39,1.39c-0.53,0.53-0.53,1.44,0,1.97c0.29,0.29,0.62,0.43,1.01,0.43c0.34,0,0.72-0.14,1.01-0.43l3.5-3.5c0.29-0.29,0.38-0.62,0.38-0.96C39.26,30.3,39.26,30.25,39.26,30.25z"/><path fill="#FFFFFF" d="M34.37,25.45c0.34,0,0.72,0.14,1.01,0.43l3.5,3.5l0.05,0.05c0.05,0.05,0.1,0.1,0.1,0.14c0,0,0,0.05,0.05,0.05c0.05,0.05,0.1,0.1,0.1,0.19c0.05,0.05,0.05,0.14,0.05,0.19v0.05c0,0.1,0.05,0.14,0.05,0.24v0.1c0,0.34-0.14,0.72-0.38,0.96l-3.5,3.5c-0.29,0.29-0.62,0.43-1.01,0.43c-0.34,0-0.72-0.14-1.01-0.43c-0.53-0.53-0.53-1.44,0-1.97l1.39-1.39h-3.41c-0.67,0-1.2-0.53-1.2-1.2s0.53-1.2,1.2-1.2h3.26l-1.2-1.2c-0.53-0.53-0.53-1.44,0-1.97C33.7,25.6,34.03,25.45,34.37,25.45 M34.37,24.49c-0.62,0-1.2,0.24-1.68,0.67c-0.43,0.43-0.67,1.06-0.67,1.68c0,0.43,0.14,0.86,0.34,1.25h-1.68v0.1c-0.86,0.29-1.49,1.1-1.49,2.06c0,1.2,0.96,2.16,2.16,2.16h1.15c-0.29,0.38-0.48,0.91-0.48,1.39c0,0.62,0.24,1.2,0.67,1.68c0.43,0.43,1.06,0.67,1.68,0.67s1.2-0.24,1.68-0.67l3.5-3.5c0.43-0.43,0.67-1.01,0.67-1.58v-0.14c0-0.14,0-0.29-0.05-0.43v-0.1c0-0.1-0.05-0.14-0.05-0.19v-0.05l-0.05-0.1v-0.05l-0.14-0.29c0-0.05-0.05-0.05-0.05-0.1l-0.14-0.14l-0.05-0.05l-3.5-3.5C35.62,24.73,35.04,24.49,34.37,24.49z"/></g><g><path fill="#FFFFFF" d="M24.01,12.8c5.18,0,9.98,2.88,12.19,7.34c0.58,1.2,0.1,2.64-1.1,3.22c-0.29,0.19-0.67,0.24-1.01,0.24c-0.91,0-1.73-0.53-2.16-1.34c-1.39-2.83-4.51-4.7-7.92-4.7h-0.1c-3.36,0.05-6.43,1.87-7.82,4.7c-0.38,0.82-1.2,1.34-2.11,1.34c-0.38,0-0.72-0.1-1.06-0.24c-0.58-0.29-1.01-0.77-1.2-1.39c-0.19-0.62-0.14-1.25,0.14-1.82c2.21-4.42,6.96-7.34,12.1-7.39C23.96,12.8,23.96,12.8,24.01,12.8 M24.01,11.84h-0.1C18.39,11.88,13.3,15,10.95,19.76c-0.38,0.82-0.48,1.73-0.19,2.54c0.29,0.86,0.91,1.54,1.68,1.92c0.48,0.24,0.96,0.34,1.49,0.34h0.05c1.3,0,2.4-0.72,2.98-1.87c1.25-2.5,3.98-4.13,7.01-4.18h0.05c3.02,0,5.81,1.63,7.06,4.18c0.58,1.15,1.73,1.87,3.02,1.87c0.48,0,1.01-0.14,1.44-0.34c1.68-0.82,2.35-2.83,1.54-4.51C34.71,14.96,29.57,11.84,24.01,11.84z"/><linearGradient id="SVGID_1_" gradientUnits="userSpaceOnUse" x1="109.4968" y1="-45.2417" x2="109.4968" y2="-81.2417" gradientTransform="matrix(0.48 0 0 -0.48 -28.6 -4.6)"><stop  offset="0" style="stop-color:#666666"/><stop  offset="1" style="stop-color:#4D4D4D"/></linearGradient><path fill="url(#SVGID_1_)" d="M34.09,22.88c-0.62,0-1.25-0.38-1.54-0.91c-1.54-3.12-4.94-5.14-8.64-5.09c-3.65,0.05-6.96,2.02-8.5,5.09c-0.29,0.58-0.86,0.91-1.49,0.91c-0.24,0-0.53-0.05-0.77-0.19c-0.38-0.19-0.72-0.53-0.86-0.96c-0.14-0.43-0.1-0.86,0.1-1.3c2.06-4.18,6.58-6.91,11.47-6.96c4.94-0.05,9.55,2.69,11.66,6.96c0.43,0.82,0.05,1.82-0.77,2.26C34.57,22.83,34.33,22.88,34.09,22.88z"/><path fill="#282828" d="M23.91,14.24c4.7-0.05,9.02,2.54,10.99,6.58c0.24,0.48,0.05,1.06-0.43,1.3c-0.1,0.05-0.24,0.05-0.38,0.05c-0.34,0-0.72-0.19-0.86-0.53c-1.68-3.36-5.33-5.52-9.26-5.47c-3.89,0.05-7.49,2.21-9.12,5.52c-0.14,0.34-0.48,0.53-0.86,0.53c-0.14,0-0.29-0.05-0.43-0.1c-0.48-0.24-0.67-0.82-0.43-1.3C15.03,16.88,19.3,14.28,23.91,14.24 M23.91,12.8c-5.14,0.05-9.89,2.93-12.1,7.39c-0.29,0.58-0.34,1.25-0.14,1.82c0.19,0.62,0.62,1.1,1.2,1.39c0.34,0.14,0.72,0.24,1.1,0.24c0.91,0,1.73-0.53,2.11-1.34c1.39-2.83,4.46-4.66,7.82-4.7c3.41-0.05,6.53,1.82,7.97,4.7c0.38,0.82,1.25,1.34,2.16,1.34c0.38,0,0.72-0.1,1.06-0.24c1.2-0.58,1.68-2.02,1.1-3.22C33.99,15.63,29.14,12.75,23.91,12.8z"/><path opacity="0.35" fill="#FFFFFF" enable-background="new    " d="M23.96,14.67c4.94-0.05,9.5,2.98,11.04,6.86c0.1-0.24,0.05-0.48-0.05-0.72c-2.02-4.03-6.34-6.58-10.99-6.58c-4.61,0.05-8.88,2.59-10.85,6.58c-0.14,0.24-0.14,0.58,0,0.82C14.55,17.74,19.01,14.72,23.96,14.67z"/></g></g></svg>