<svg xmlns="http://www.w3.org/2000/svg" width="48" height="48" viewBox="0 0 48 48"><path fill="#282828" d="M41.18 25.79a1.42 1.42 0 0 1 1.97 0l3.5 3.5c.53.53.53 1.44 0 1.97l-3.5 3.5c-.29.29-.62.43-1.01.43-.34 0-.72-.14-1.01-.43a1.42 1.42 0 0 1 0-1.97l2.5-2.5-2.5-2.5c-.52-.56-.52-1.47.05-2z"/><path fill="#FFF" d="M42.14 25.41c.34 0 .72.14 1.01.43l3.5 3.5c.53.53.53 1.44 0 1.97l-3.5 3.5c-.29.29-.62.43-1.01.43-.34 0-.72-.14-1.01-.43a1.42 1.42 0 0 1 0-1.97l2.5-2.5-2.5-2.5a1.42 1.42 0 0 1 0-1.97c.29-.37.68-.46 1.01-.46m0-.96c-.62 0-1.2.24-1.68.67-.43.43-.67 1.06-.67 1.68 0 .62.24 1.2.67 1.68l1.82 1.82-1.82 1.82c-.43.43-.67 1.06-.67 1.68 0 .62.24 1.2.67 1.68.43.43 1.06.67 1.68.67s1.2-.24 1.68-.67l3.5-3.5c.44-.43.68-1.05.68-1.68 0-.62-.24-1.2-.67-1.68l-3.5-3.5c-.49-.43-1.06-.67-1.69-.67z"/><path fill="#282828" d="M6.82 25.8a1.42 1.42 0 0 0-1.97 0l-3.5 3.5a1.42 1.42 0 0 0 0 1.97l3.5 3.5c.29.29.62.43 1.01.43.34 0 .72-.14 1.01-.43.53-.53.53-1.44 0-1.97l-2.54-2.54 2.5-2.5c.51-.52.51-1.44-.01-1.96z"/><path fill="#FFF" d="M5.86 25.41c.34 0 .72.14 1.01.43.53.53.53 1.44 0 1.97l-2.54 2.45 2.5 2.5c.53.53.53 1.44 0 1.97-.29.29-.62.43-1.01.43-.34 0-.72-.14-1.01-.43l-3.5-3.5a1.42 1.42 0 0 1 0-1.97l3.5-3.5c.33-.25.66-.35 1.05-.35m0-.96c-.62 0-1.2.24-1.68.67l-3.5 3.5A2.3 2.3 0 0 0 0 30.26c0 .62.24 1.2.67 1.68l3.5 3.5c.43.43 1.06.67 1.68.67s1.2-.24 1.68-.67c.43-.43.67-1.06.67-1.68 0-.62-.24-1.2-.67-1.68l-1.82-1.82 1.82-1.82c.43-.43.67-1.06.67-1.68 0-.62-.24-1.2-.67-1.68-.47-.39-1.05-.63-1.67-.63z"/><path fill="#282828" d="M16.56 29.06H13.3l1.2-1.2c.53-.53.53-1.44 0-1.97a1.42 1.42 0 0 0-1.97 0l-3.5 3.5-.05.05-.1.1-.1.1c0 .05-.05.05-.05.1s-.05.05-.05.1v.05c0 .05-.05.1-.05.14v.05c0 .1-.05.14-.05.24v.05c0 .38.14.72.38 1.01l3.5 3.5c.29.29.62.43 1.01.43.34 0 .72-.14 1.01-.43.53-.53.53-1.44 0-1.97l-1.39-1.39h3.46c.67 0 1.2-.53 1.2-1.2.01-.73-.52-1.26-1.19-1.26z"/><path fill="#FFF" d="M13.54 25.46c.34 0 .72.14 1.01.43.53.53.53 1.44 0 1.97l-1.2 1.2h3.26c.67 0 1.2.53 1.2 1.2s-.53 1.2-1.2 1.2h-3.46l1.39 1.39c.53.53.53 1.44 0 1.97-.29.29-.62.43-1.01.43-.34 0-.72-.14-1.01-.43l-3.46-3.5c-.29-.29-.43-.67-.38-1.01v-.05c0-.1 0-.19.05-.24v-.05c0-.05.05-.1.05-.14v-.05c0-.05.05-.05.05-.1s.05-.05.05-.1.05-.05.1-.1l.1-.1.05-.05 3.5-3.5c.19-.23.52-.37.91-.37m0-.96c-.62 0-1.2.24-1.68.67l-3.5 3.5-.06.05-.05.05-.1.1v.05l-.14.14c-.05.05-.05.1-.1.19 0 .05-.05.05-.05.1v.05l-.05.05v.1c0 .05-.05.1-.05.14 0 .05 0 .05-.05.1-.05.19-.05.34-.05.48v.1c0 .62.24 1.2.67 1.63l3.5 3.5c.43.43 1.06.67 1.68.67s1.2-.24 1.68-.67c.43-.43.67-1.06.67-1.68 0-.53-.14-1.01-.48-1.39h1.15c1.2 0 2.16-.96 2.16-2.16 0-.96-.62-1.78-1.49-2.06v-.1h-1.68c.24-.38.34-.82.34-1.25 0-.62-.24-1.2-.67-1.68a2.34 2.34 0 0 0-1.65-.68z"/><path fill="#282828" d="M39.26 30.25c0-.1 0-.19-.05-.24v-.05c0-.05-.05-.14-.05-.19-.05-.05-.05-.1-.1-.19 0 0 0-.05-.05-.05-.05-.05-.1-.1-.1-.14l-.05-.05-3.5-3.5a1.42 1.42 0 0 0-1.97 0 1.42 1.42 0 0 0 0 1.97l1.2 1.2h-3.26c-.67 0-1.2.53-1.2 1.2s.53 1.2 1.2 1.2h3.41l-1.39 1.39a1.42 1.42 0 0 0 0 1.97c.29.29.62.43 1.01.43.34 0 .72-.14 1.01-.43l3.5-3.5c.29-.29.38-.62.38-.96.01-.01.01-.06.01-.06z"/><path fill="#FFF" d="M34.37 25.45c.34 0 .72.14 1.01.43l3.5 3.5.05.05c.05.05.1.1.1.14 0 0 0 .05.05.05.05.05.1.1.1.19.05.05.05.14.05.19v.05c0 .1.05.14.05.24v.1c0 .34-.14.72-.38.96l-3.5 3.5c-.29.29-.62.43-1.01.43-.34 0-.72-.14-1.01-.43a1.42 1.42 0 0 1 0-1.97l1.39-1.39h-3.41c-.67 0-1.2-.53-1.2-1.2s.53-1.2 1.2-1.2h3.26l-1.2-1.2a1.42 1.42 0 0 1 0-1.97c.28-.32.61-.47.95-.47m0-.96c-.62 0-1.2.24-1.68.67-.43.43-.67 1.06-.67 1.68 0 .43.14.86.34 1.25h-1.68v.1c-.86.29-1.49 1.1-1.49 2.06 0 1.2.96 2.16 2.16 2.16h1.15c-.29.38-.48.91-.48 1.39 0 .62.24 1.2.67 1.68.43.43 1.06.67 1.68.67s1.2-.24 1.68-.67l3.5-3.5c.43-.43.67-1.01.67-1.58v-.14c0-.14 0-.29-.05-.43v-.1c0-.1-.05-.14-.05-.19v-.05l-.05-.1v-.05l-.14-.29c0-.05-.05-.05-.05-.1l-.14-.14-.05-.05-3.5-3.5c-.57-.53-1.15-.77-1.82-.77z"/><path fill="#FFF" d="M24.01 12.8c5.18 0 9.98 2.88 12.19 7.34.58 1.2.1 2.64-1.1 3.22-.29.19-.67.24-1.01.24-.91 0-1.73-.53-2.16-1.34-1.39-2.83-4.51-4.7-7.92-4.7h-.1c-3.36.05-6.43 1.87-7.82 4.7-.38.82-1.2 1.34-2.11 1.34-.38 0-.72-.1-1.06-.24-.58-.29-1.01-.77-1.2-1.39a2.44 2.44 0 0 1 .14-1.82c2.21-4.42 6.96-7.34 12.1-7.39 0 .04 0 .04.05.04m0-.96h-.1c-5.52.04-10.61 3.16-12.96 7.92-.38.82-.48 1.73-.19 2.54.29.86.91 1.54 1.68 1.92.48.24.96.34 1.49.34h.05c1.3 0 2.4-.72 2.98-1.87 1.25-2.5 3.98-4.13 7.01-4.18h.05c3.02 0 5.81 1.63 7.06 4.18a3.365 3.365 0 0 0 3.02 1.87c.48 0 1.01-.14 1.44-.34 1.68-.82 2.35-2.83 1.54-4.51-2.37-4.75-7.51-7.87-13.07-7.87z"/><linearGradient id="a" gradientUnits="userSpaceOnUse" x1="109.497" y1="-45.242" x2="109.497" y2="-81.242" gradientTransform="matrix(.48 0 0 -.48 -28.6 -4.6)"><stop offset="0" stop-color="#666"/><stop offset="1" stop-color="#4d4d4d"/></linearGradient><path fill="url(#a)" d="M34.09 22.88c-.62 0-1.25-.38-1.54-.91-1.54-3.12-4.94-5.14-8.64-5.09-3.65.05-6.96 2.02-8.5 5.09-.29.58-.86.91-1.49.91-.24 0-.53-.05-.77-.19-.38-.19-.72-.53-.86-.96-.14-.43-.1-.86.1-1.3 2.06-4.18 6.58-6.91 11.47-6.96 4.94-.05 9.55 2.69 11.66 6.96.43.82.05 1.82-.77 2.26-.18.14-.42.19-.66.19z"/><path fill="#282828" d="M23.91 14.24c4.7-.05 9.02 2.54 10.99 6.58.24.48.05 1.06-.43 1.3-.1.05-.24.05-.38.05-.34 0-.72-.19-.86-.53-1.68-3.36-5.33-5.52-9.26-5.47-3.89.05-7.49 2.21-9.12 5.52-.14.34-.48.53-.86.53-.14 0-.29-.05-.43-.1a.966.966 0 0 1-.43-1.3c1.9-3.94 6.17-6.54 10.78-6.58m0-1.44c-5.14.05-9.89 2.93-12.1 7.39-.29.58-.34 1.25-.14 1.82.19.62.62 1.1 1.2 1.39.34.14.72.24 1.1.24.91 0 1.73-.53 2.11-1.34 1.39-2.83 4.46-4.66 7.82-4.7 3.41-.05 6.53 1.82 7.97 4.7.38.82 1.25 1.34 2.16 1.34.38 0 .72-.1 1.06-.24 1.2-.58 1.68-2.02 1.1-3.22-2.2-4.55-7.05-7.43-12.28-7.38z"/><path opacity=".35" fill="#FFF" d="M23.96 14.67c4.94-.05 9.5 2.98 11.04 6.86.1-.24.05-.48-.05-.72-2.02-4.03-6.34-6.58-10.99-6.58-4.61.05-8.88 2.59-10.85 6.58-.14.24-.14.58 0 .82 1.44-3.89 5.9-6.91 10.85-6.96z"/></svg>