<svg xmlns="http://www.w3.org/2000/svg" width="48" height="48" viewBox="0 0 100 100">
  <title>low-voltage-breaker</title>
  <g id="low-voltage-breaker" class="symbol">
			<linearGradient id="DefaultGradient" gradientUnits="userSpaceOnUse" x1="50.5" y1="32.5" x2="50.5" y2="68.5">
					<stop  offset="0" style="stop-color:#666666"/>
					<stop  offset="1" style="stop-color:#4D4D4D"/>
			</linearGradient>

			<g id="bound">
				<rect class="" x="0" y="0" width="100" height="100" opacity="0"/>
			</g>

			<rect x="-365.5" y="-157" display="none" opacity="0.75" fill="#E8E8E8" width="3097.5" height="755"/>

			<g id="leftSide">
				<path class="outer" fill="#282828" d="M90,55.8H76c-1.4,0-2.5,1.1-2.5,2.5c0,1.4,1.1,2.5,2.5,2.5h14c1.4,0,2.5-1.1,2.5-2.5
					C92.5,56.9,91.3,55.8,90,55.8z"/>

				<path class="edging" fill="#FFFFFF" d="M90,55.8c1.4,0,2.5,1.1,2.5,2.5c0,1.4-1.1,2.5-2.5,2.5H76c-1.4,0-2.5-1.1-2.5-2.5
					c0-1.4,1.1-2.5,2.5-2.5H90 M90,53.8H76c-2.5,0-4.5,2-4.5,4.5s2,4.5,4.5,4.5h14c2.5,0,4.5-2,4.5-4.5S92.4,53.8,90,53.8L90,53.8z
					"/>
			</g>
			<g id="rightSide">
				<path class="outer" fill="#282828" d="M25.1,55.8h-14c-1.4,0-2.5,1.1-2.5,2.5c0,1.4,1.1,2.5,2.5,2.5h14c1.4,0,2.5-1.1,2.5-2.5
					C27.6,56.9,26.4,55.8,25.1,55.8z"/>

				<path class="edging" fill="#FFFFFF" d="M25.1,55.8c1.4,0,2.5,1.1,2.5,2.5c0,1.4-1.1,2.5-2.5,2.5h-14c-1.4,0-2.5-1.1-2.5-2.5
					c0-1.4,1.1-2.5,2.5-2.5H25.1 M25.1,53.8h-14c-2.5,0-4.5,2-4.5,4.5s2,4.5,4.5,4.5h14c2.5,0,4.5-2,4.5-4.5S27.5,53.8,25.1,53.8
					L25.1,53.8z"/>
			</g>

			<g id="center" class="animate" normal="translate(0, 0)" closed="translate(0, 15)" open="translate(0, 0)" tripped="translate(0, -5)">
				<path class="edging" fill="#FFFFFF" d="M50.6,24c10.8,0,20.8,6,25.4,15.3c1.2,2.5,0.2,5.5-2.3,6.7c-0.7,0.3-1.4,0.5-2.2,0.5c0,0,0,0,0,0
				c-1.9,0-3.6-1.1-4.5-2.8c-2.9-5.9-9.4-9.8-16.5-9.8c0,0-0.1,0-0.2,0c-7,0.1-13.4,3.9-16.3,9.8c-0.8,1.7-2.5,2.8-4.4,2.8
				c0,0,0,0,0,0c-0.8,0-1.5-0.2-2.2-0.5c-1.2-0.6-2.1-1.6-2.5-2.9c-0.4-1.3-0.3-2.6,0.3-3.8c4.6-9.2,14.5-15.3,25.2-15.4
				C50.4,24,50.5,24,50.6,24 M50.6,22l-0.2,0c-11.5,0.1-22.1,6.6-27,16.5c-0.8,1.7-1,3.6-0.4,5.3c0.6,1.8,1.9,3.2,3.5,4
				c1,0.5,2,0.7,3.1,0.7h0l0.1,0c2.7,0,5-1.5,6.2-3.9c2.6-5.2,8.3-8.6,14.6-8.7l0.1,0c6.3,0,12.1,3.4,14.7,8.7
				c1.2,2.4,3.6,3.9,6.3,3.9h0l0,0c1,0,2.1-0.3,3-0.7c3.5-1.7,4.9-5.9,3.2-9.4C72.8,28.5,62.1,22,50.6,22L50.6,22z"/>

				<path class="outer" fill="#282828" d="M50.3,24c-10.7,0.1-20.6,6.1-25.2,15.4c-0.6,1.2-0.7,2.6-0.3,3.8c0.4,1.3,1.3,2.3,2.5,2.9
				c0.7,0.3,1.5,0.5,2.3,0.5c1.9,0,3.6-1.1,4.4-2.8c2.9-5.9,9.3-9.7,16.3-9.8c7.1-0.1,13.6,3.8,16.6,9.8c0.8,1.7,2.6,2.8,4.5,2.8
				c0.8,0,1.5-0.2,2.2-0.5c2.5-1.2,3.5-4.2,2.3-6.7C71.3,29.9,61.3,23.9,50.3,24L50.3,24z"/>

				<path class="inner" fill="url(#DefaultGradient)" d="M71.5,45c-1.3,0-2.6-0.8-3.2-1.9c-3.2-6.5-10.3-10.7-18-10.6c-7.6,0.1-14.5,4.2-17.7,10.6
				c-0.6,1.2-1.8,1.9-3.1,1.9c-0.5,0-1.1-0.1-1.6-0.4c-0.8-0.4-1.5-1.1-1.8-2c-0.3-0.9-0.2-1.8,0.2-2.7c4.3-8.7,13.7-14.4,23.9-14.5
				c10.3-0.1,19.9,5.6,24.3,14.5c0.9,1.7,0.1,3.8-1.6,4.7C72.6,44.9,72.1,45,71.5,45z"/>

				<path class="outer" fill="#282828" d="M50.4,27c9.8-0.1,18.8,5.3,22.9,13.7c0.5,1,0.1,2.2-0.9,2.7c-0.3,0.1-0.6,0.2-0.9,0.2
				c-0.7,0-1.5-0.4-1.8-1.1c-3.5-7-11.1-11.5-19.3-11.4c-8.1,0.1-15.6,4.6-19,11.5c-0.3,0.7-1,1.1-1.8,1.1c-0.3,0-0.6-0.1-0.9-0.2
				c-1-0.5-1.4-1.7-0.9-2.7C31.9,32.5,40.7,27.1,50.4,27 M50.3,24c-10.7,0.1-20.6,6.1-25.2,15.4c-0.6,1.2-0.7,2.6-0.3,3.8
				c0.4,1.3,1.3,2.3,2.5,2.9c0.7,0.3,1.5,0.5,2.3,0.5c1.9,0,3.6-1.1,4.4-2.8c2.9-5.9,9.3-9.7,16.3-9.8c7.1-0.1,13.6,3.8,16.6,9.8
				c0.8,1.7,2.6,2.8,4.5,2.8c0.8,0,1.5-0.2,2.2-0.5c2.5-1.2,3.5-4.2,2.3-6.7C71.3,29.9,61.3,23.9,50.3,24L50.3,24z"/>

				<path class="highlight" opacity="0.35" fill="#FFFFFF" d="M50.4,27.9c10.3-0.1,19.8,6.2,23,14.3c0.2-0.5,0.1-1-0.1-1.5C69.1,32.3,60.1,27,50.4,27
				c-9.6,0.1-18.5,5.4-22.6,13.7c-0.3,0.5-0.3,1.2,0,1.7C30.9,34.3,40.2,28,50.4,27.9z"/>
			</g>
		</g>
</svg>

		