<svg xmlns="http://www.w3.org/2000/svg" width="48" height="48" viewBox="0 0 100 100">
  <title>low-voltage-drawout-breaker</title>
  <g id="low-voltage-drawout-breaker" class="symbol position" width="120px">
			<linearGradient id="DefaultGradient" gradientUnits="userSpaceOnUse" x1="50.5" y1="32.5" x2="50.5" y2="68.5">
					<stop  offset="0" style="stop-color:#666666"/>
					<stop  offset="1" style="stop-color:#4D4D4D"/>
			</linearGradient>

			<g id="bound">
				<rect class="" x="0" y="0" width="120" height="100" opacity="0"/>
			</g>

			<g class="test-label" transform="translate(10,0)" opacity="0">
				<path class="edging" opacity="0.65" fill="#FFFFFF" d="M66,69H34c-1.7,0-3-1.3-3-3V54c0-1.7,1.3-3,3-3h32c1.7,0,3,1.3,3,3v12C69,67.7,67.7,69,66,69
					z"/>
				<g class="test-label-text" opacity="0.8">
					<path d="M42.4,63.7h-1.9v-5.6h-1.7v-1.6h5.4v1.6h-1.7V63.7z"/>
					<path d="M49.4,63.7h-4.2v-7.1h4.2v1.5h-2.3v1.1h2.1v1.5h-2.1v1.3h2.3V63.7z"/>
					<path d="M55.3,61.5c0,0.4-0.1,0.8-0.3,1.2s-0.5,0.6-1,0.8s-0.9,0.3-1.5,0.3c-0.5,0-0.9,0-1.2-0.1s-0.7-0.2-1-0.3v-1.7
						c0.4,0.2,0.8,0.3,1.1,0.4s0.8,0.2,1.1,0.2c0.3,0,0.5,0,0.6-0.1s0.2-0.2,0.2-0.4c0-0.1,0-0.2-0.1-0.3c-0.1-0.1-0.1-0.1-0.3-0.2
						c-0.1-0.1-0.4-0.2-1-0.5c-0.5-0.2-0.8-0.4-1-0.6c-0.2-0.2-0.4-0.4-0.5-0.7c-0.1-0.3-0.2-0.6-0.2-0.9c0-0.7,0.2-1.2,0.7-1.5
						s1.1-0.6,2-0.6c0.7,0,1.5,0.2,2.3,0.5l-0.6,1.5C54,58.1,53.5,58,53,58c-0.3,0-0.4,0-0.5,0.1s-0.2,0.2-0.2,0.3
						c0,0.1,0.1,0.3,0.2,0.4c0.1,0.1,0.5,0.3,1.2,0.6c0.6,0.3,1,0.6,1.3,0.9C55.2,60.6,55.3,61,55.3,61.5z"/>
					<path d="M59.6,63.7h-1.9v-5.6h-1.7v-1.6h5.4v1.6h-1.7V63.7z"/>
				</g>
			</g>

			<g id="outerRightSide">
				<path class="outer" fill="#282828" d="M105.9,48.5c1.1-1.1,3-1.1,4.1,0l7.3,7.3c1.1,1.1,1.1,3,0,4.1l-7.3,7.3c-0.6,0.6-1.3,0.9-2.1,0.9
				c-0.7,0-1.5-0.3-2.1-0.9c-1.1-1.1-1.1-3,0-4.1l5.2-5.2l-5.2-5.2C104.7,51.5,104.7,49.6,105.9,48.5z"/>

				<path class="edging" fill="#FFFFFF" d="M107.9,47.7c0.7,0,1.5,0.3,2.1,0.9l7.3,7.3c1.1,1.1,1.1,3,0,4.1l-7.3,7.3
				c-0.6,0.6-1.3,0.9-2.1,0.9c-0.7,0-1.5-0.3-2.1-0.9c-1.1-1.1-1.1-3,0-4.1l5.2-5.2l-5.2-5.2c-1.1-1.1-1.1-3,0-4.1
				C106.4,47.9,107.2,47.7,107.9,47.7 M107.9,45.7c-1.3,0-2.5,0.5-3.5,1.4c-0.9,0.9-1.4,2.2-1.4,3.5c0,1.3,0.5,2.5,1.4,3.5
				l3.8,3.8l-3.8,3.8c-0.9,0.9-1.4,2.2-1.4,3.5c0,1.3,0.5,2.5,1.4,3.5c0.9,0.9,2.2,1.4,3.5,1.4c1.3,0,2.5-0.5,3.5-1.4l7.3-7.3
				c0.9-0.9,1.4-2.2,1.4-3.5c0-1.3-0.5-2.5-1.4-3.5l-7.3-7.3C110.4,46.2,109.2,45.7,107.9,45.7L107.9,45.7z"/>
			</g>

			<g id="outerLeftSide">
				<path class="outer" fill="#282828" d="M14.2,48.5c-1.1-1.1-3-1.1-4.1,0l-7.3,7.3c-1.1,1.1-1.1,3,0,4.1l7.3,7.3c0.6,0.6,1.3,0.9,2.1,0.9
				c0.7,0,1.5-0.3,2.1-0.9c1.1-1.1,1.1-3,0-4.1L9,57.8l5.2-5.2C15.3,51.5,15.3,49.6,14.2,48.5z"/>

				<path class="edging" fill="#FFFFFF" d="M12.2,47.7c0.7,0,1.5,0.3,2.1,0.9c1.1,1.1,1.1,3,0,4.1L9,57.8l5.2,5.2c1.1,1.1,1.1,3,0,4.1
				c-0.6,0.6-1.3,0.9-2.1,0.9c-0.7,0-1.5-0.3-2.1-0.9l-7.3-7.3c-1.1-1.1-1.1-3,0-4.1l7.3-7.3C10.7,47.9,11.4,47.7,12.2,47.7
				M12.2,45.7c-1.3,0-2.5,0.5-3.5,1.4l-7.3,7.3C0.5,55.3,0,56.5,0,57.8c0,1.3,0.5,2.5,1.4,3.5l7.3,7.3c0.9,0.9,2.2,1.4,3.5,1.4
				c1.3,0,2.5-0.5,3.5-1.4c0.9-0.9,1.4-2.2,1.4-3.5c0-1.3-0.5-2.5-1.4-3.5l-3.8-3.8l3.8-3.8c0.9-0.9,1.4-2.2,1.4-3.5
				c0-1.3-0.5-2.5-1.4-3.5C14.7,46.2,13.5,45.7,12.2,45.7L12.2,45.7z"/>
			</g>

			<g id="inner" class="animate" connected="translate(0,0)" disconnected="translate(0, -30)" test="translate(0, -20)">


				<g id="innerLeftSide" class="animate">
					<path class="outer" fill="#282828" d="M34.5,55.3h-0.4l0,0h-6.4l2.5-2.5c1.1-1.1,1.1-3,0-4.1c-1.1-1.1-3-1.1-4.1,0l-7.3,7.3
					c0,0,0,0-0.1,0.1c0,0,0,0,0,0c-0.1,0.1-0.1,0.1-0.2,0.2c-0.1,0.1-0.1,0.1-0.2,0.2c0,0.1-0.1,0.1-0.1,0.2c0,0.1-0.1,0.1-0.1,0.2
					c0,0,0,0,0,0c0,0,0,0,0,0c0,0,0,0.1,0,0.1c0,0.1-0.1,0.2-0.1,0.3c0,0,0,0,0,0.1c0,0.2-0.1,0.3-0.1,0.5c0,0,0,0.1,0,0.1
					c0,0.8,0.3,1.5,0.8,2.1l7.3,7.3c0.6,0.6,1.3,0.9,2.1,0.9c0.7,0,1.5-0.3,2.1-0.9c1.1-1.1,1.1-3,0-4.1l-2.9-2.9h7.2
					c1.4,0,2.5-1.1,2.5-2.5C37,56.4,35.9,55.3,34.5,55.3z"/>

					<path class="edging" fill="#FFFFFF" d="M28.2,47.8c0.7,0,1.5,0.3,2.1,0.9c1.1,1.1,1.1,3,0,4.1l-2.5,2.5h6.4l0,0h0.4
					c1.4,0,2.5,1.1,2.5,2.5c0,1.4-1.1,2.5-2.5,2.5h-7.2l2.9,2.9c1.1,1.1,1.1,3,0,4.1c-0.6,0.6-1.3,0.9-2.1,0.9
					c-0.7,0-1.5-0.3-2.1-0.9L18.9,60c-0.6-0.6-0.9-1.4-0.8-2.1c0,0,0-0.1,0-0.1c0-0.2,0-0.4,0.1-0.5c0,0,0,0,0-0.1
					c0-0.1,0.1-0.2,0.1-0.3c0,0,0-0.1,0-0.1c0,0,0,0,0,0c0,0,0,0,0,0c0-0.1,0.1-0.1,0.1-0.2c0-0.1,0.1-0.1,0.1-0.2
					c0-0.1,0.1-0.1,0.2-0.2c0.1-0.1,0.1-0.1,0.2-0.2c0,0,0,0,0,0c0,0,0,0,0.1-0.1l7.3-7.3C26.7,48.1,27.4,47.8,28.2,47.8
					M28.2,45.8c-1.3,0-2.5,0.5-3.5,1.4l-7.3,7.3l-0.1,0.1l-0.1,0.1c-0.1,0.1-0.1,0.1-0.2,0.2l0,0.1c-0.1,0.1-0.2,0.2-0.3,0.3
					c-0.1,0.1-0.1,0.2-0.2,0.4c0,0.1-0.1,0.1-0.1,0.2l0,0l0,0.1l0,0l0,0l-0.1,0.1l0,0.1c0,0,0,0.1,0,0.1l0,0c0,0.1-0.1,0.2-0.1,0.3
					c0,0.1,0,0.1-0.1,0.2C16,57.2,16,57.5,16,57.8v0.1l0,0.1c0,1.3,0.5,2.5,1.4,3.4l7.3,7.3c0.9,0.9,2.2,1.4,3.5,1.4
					c1.3,0,2.5-0.5,3.5-1.4c0.9-0.9,1.4-2.2,1.4-3.5c0-1.1-0.3-2.1-1-2.9h2.4c2.5,0,4.5-2,4.5-4.5c0-2-1.3-3.7-3.1-4.3l0-0.2
					l-1.8,0h-1.7c0.5-0.8,0.7-1.7,0.7-2.6c0-1.3-0.5-2.5-1.4-3.5C30.7,46.3,29.5,45.8,28.2,45.8L28.2,45.8z"/>
				</g> 

				<g id="innerRightSide" class="animate">
					<path class="outer" fill="#282828" d="M101.9,57.8c0-0.2,0-0.4-0.1-0.5l0,0c0,0,0,0,0-0.1c0,0,0,0,0,0c0-0.1-0.1-0.3-0.1-0.4
					c0,0,0,0,0,0c0,0,0,0,0,0c0,0,0,0,0,0c-0.1-0.1-0.1-0.2-0.2-0.4c0,0,0-0.1-0.1-0.1c-0.1-0.1-0.2-0.2-0.2-0.3c0,0,0,0,0,0
					c0,0,0,0-0.1-0.1l-7.3-7.3c-1.1-1.1-3-1.1-4.1,0c-1.1,1.1-1.1,3,0,4.1l2.5,2.5h-6.4l0,0h-0.4c-1.4,0-2.5,1.1-2.5,2.5
					c0,1.4,1.1,2.5,2.5,2.5h7.1l-2.9,2.9c-1.1,1.1-1.1,3,0,4.1c0.6,0.6,1.3,0.9,2.1,0.9c0.7,0,1.5-0.3,2.1-0.9l7.3-7.3
					c0.6-0.6,0.8-1.3,0.8-2C101.9,57.9,101.9,57.9,101.9,57.8z"/>

					<path class="edging" fill="#FFFFFF" d="M91.7,47.8c0.7,0,1.5,0.3,2.1,0.9l7.3,7.3c0,0,0,0,0.1,0.1c0,0,0,0,0,0c0.1,0.1,0.2,0.2,0.2,0.3
					c0,0,0,0.1,0.1,0.1c0.1,0.1,0.2,0.2,0.2,0.4c0,0,0,0,0,0c0,0,0,0,0,0c0,0,0,0,0,0c0.1,0.1,0.1,0.3,0.1,0.4c0,0,0,0,0,0
					c0,0,0,0,0,0.1l0,0c0,0.2,0.1,0.3,0.1,0.5c0,0.1,0,0.1,0,0.2c0,0.7-0.3,1.5-0.8,2l-7.3,7.3c-0.6,0.6-1.3,0.9-2.1,0.9
					c-0.7,0-1.5-0.3-2.1-0.9c-1.1-1.1-1.1-3,0-4.1l2.9-2.9h-7.1c-1.4,0-2.5-1.1-2.5-2.5c0-1.4,1.1-2.5,2.5-2.5h0.4l0,0h6.4
					l-2.5-2.5c-1.1-1.1-1.1-3,0-4.1C90.3,48.1,91,47.8,91.7,47.8 M91.7,45.8c-1.3,0-2.5,0.5-3.5,1.4c-0.9,0.9-1.4,2.2-1.4,3.5
					c0,0.9,0.3,1.8,0.7,2.6h-1.7H84l0,0.2c-1.8,0.6-3.1,2.3-3.1,4.3c0,2.5,2,4.5,4.5,4.5h2.4c-0.6,0.8-1,1.9-1,2.9
					c0,1.3,0.5,2.5,1.4,3.5c0.9,0.9,2.2,1.4,3.5,1.4c1.3,0,2.5-0.5,3.5-1.4l7.3-7.3c0.9-0.9,1.4-2.1,1.4-3.3c0-0.1,0-0.2,0-0.3
					c0-0.3,0-0.6-0.1-0.9l0-0.1l0-0.1l0,0l0,0c0-0.2-0.1-0.3-0.1-0.4l0-0.1l-0.1-0.2l0-0.1l0,0c0,0,0,0,0,0
					c-0.1-0.2-0.2-0.4-0.3-0.6c0-0.1-0.1-0.1-0.1-0.2c-0.1-0.1-0.2-0.2-0.3-0.3l0,0l-0.1-0.1l-7.3-7.3
					C94.3,46.3,93.1,45.8,91.7,45.8L91.7,45.8z"/>
				</g>

				<g id="center" class="animate"  closed="translate(0, 15)" open="translate(0, 0)" tripped="translate(0, -5)" normal="translate(0,0)">
					<path class="edging" fill="#FFFFFF" d="M60,23.5c10.8,0,20.8,6,25.4,15.3c1.2,2.5,0.2,5.5-2.3,6.7C82.5,45.9,81.7,46,81,46c0,0,0,0,0,0
					c-1.9,0-3.6-1.1-4.5-2.8c-2.9-5.9-9.4-9.8-16.5-9.8c0,0-0.1,0-0.2,0c-7,0.1-13.4,3.9-16.3,9.8c-0.8,1.7-2.5,2.8-4.4,2.8
					c0,0,0,0,0,0c-0.8,0-1.5-0.2-2.2-0.5c-1.2-0.6-2.1-1.6-2.5-2.9c-0.4-1.3-0.3-2.6,0.3-3.8c4.6-9.2,14.5-15.3,25.2-15.4
					C59.9,23.5,59.9,23.5,60,23.5 M60,21.5l-0.2,0c-11.5,0.1-22.1,6.6-27,16.5c-0.8,1.7-1,3.6-0.4,5.3c0.6,1.8,1.9,3.2,3.5,4
					c1,0.5,2,0.7,3.1,0.7h0l0.1,0c2.7,0,5-1.5,6.2-3.9c2.6-5.2,8.3-8.6,14.6-8.7l0.1,0c6.3,0,12.1,3.4,14.7,8.7
					c1.2,2.4,3.6,3.9,6.3,3.9h0l0,0c1,0,2.1-0.3,3-0.7c3.5-1.7,4.9-5.9,3.2-9.4C82.3,28,71.6,21.5,60,21.5L60,21.5z"/>

					<path class="inner" fill="url(#DefaultGradient)" d="M81,44.5c-1.3,0-2.6-0.8-3.2-1.9c-3.2-6.5-10.3-10.7-18-10.6c-7.6,0.1-14.5,4.2-17.7,10.6
					c-0.6,1.2-1.8,1.9-3.1,1.9c-0.5,0-1.1-0.1-1.6-0.4c-0.8-0.4-1.5-1.1-1.8-2c-0.3-0.9-0.2-1.8,0.2-2.7c4.3-8.7,13.7-14.4,23.9-14.5
					c10.3-0.1,19.9,5.6,24.3,14.5c0.9,1.7,0.1,3.8-1.6,4.7C82,44.4,81.5,44.5,81,44.5z"/>

					<path class="outer" fill="#282828" d="M59.8,26.5c9.8-0.1,18.8,5.3,22.9,13.7c0.5,1,0.1,2.2-0.9,2.7C81.6,43,81.3,43,81,43
					c-0.7,0-1.5-0.4-1.8-1.1c-3.5-7-11.1-11.5-19.3-11.4c-8.1,0.1-15.6,4.6-19,11.5c-0.3,0.7-1,1.1-1.8,1.1c-0.3,0-0.6-0.1-0.9-0.2
					c-1-0.5-1.4-1.7-0.9-2.7C41.3,32,50.2,26.6,59.8,26.5 M59.8,23.5c-10.7,0.1-20.6,6.1-25.2,15.4c-0.6,1.2-0.7,2.6-0.3,3.8
					c0.4,1.3,1.3,2.3,2.5,2.9c0.7,0.3,1.5,0.5,2.3,0.5c1.9,0,3.6-1.1,4.4-2.8c2.9-5.9,9.3-9.7,16.3-9.8c7.1-0.1,13.6,3.8,16.6,9.8
					c0.8,1.7,2.6,2.8,4.5,2.8c0.8,0,1.5-0.2,2.2-0.5c2.5-1.2,3.5-4.2,2.3-6.7C80.8,29.4,70.7,23.4,59.8,23.5L59.8,23.5z"/>

					<path class="highlight" style="opacity:0.35;fill:#FFFFFF;" d="M59.9,27.4c10.3-0.1,19.8,6.2,23,14.3c0.2-0.5,0.1-1-0.1-1.5
					c-4.2-8.4-13.2-13.7-22.9-13.7c-9.6,0.1-18.5,5.4-22.6,13.7c-0.3,0.5-0.3,1.2,0,1.7C40.3,33.8,49.6,27.5,59.9,27.4z"/>
				</g>
			</g>

			<g class="dotted-slot" opacity="0" transform="translate(10, 8)">
				<path opacity=".65" class="edging" fill="#FFFFFF" d="M86,58.5c-1.8,0-3.2,1.3-3.5,3c-1.7,0.2-3,1.7-3,3.5c0,1.9,1.6,3.5,3.5,3.5h3c1.9,0,3.5-1.6,3.5-3.5v-3
					C89.5,60.1,87.9,58.5,86,58.5z"/>
				<path opacity=".65" class="edging" fill="#FFFFFF" d="M18.5,61.5c-0.2-1.7-1.7-3-3.5-3c-1.9,0-3.5,1.6-3.5,3.5v3c0,1.9,1.6,3.5,3.5,3.5h3c1.9,0,3.5-1.6,3.5-3.5
					C21.5,63.2,20.2,61.8,18.5,61.5z"/>
				<path opacity=".65" class="edging" fill="#FFFFFF" d="M15,56.8c1.9,0,3.5-1.6,3.5-3.5v-6.5c0-1.9-1.6-3.5-3.5-3.5s-3.5,1.6-3.5,3.5v6.5
					C11.5,55.2,13.1,56.8,15,56.8z"/>
				<path opacity=".65" class="edging" fill="#FFFFFF" d="M18,31.5h-3c-1.9,0-3.5,1.6-3.5,3.5v3c0,1.9,1.6,3.5,3.5,3.5c1.8,0,3.2-1.3,3.5-3c1.7-0.2,3-1.7,3-3.5
					C21.5,33.1,19.9,31.5,18,31.5z"/>
				<path opacity=".65" class="edging" fill="#FFFFFF" d="M34.3,61.5h-7c-1.9,0-3.5,1.6-3.5,3.5s1.6,3.5,3.5,3.5h7c1.9,0,3.5-1.6,3.5-3.5S36.3,61.5,34.3,61.5z"/>
				<path opacity=".65" class="edging" fill="#FFFFFF" d="M73.7,61.5h-7c-1.9,0-3.5,1.6-3.5,3.5s1.6,3.5,3.5,3.5h7c1.9,0,3.5-1.6,3.5-3.5S75.6,61.5,73.7,61.5z"/>
				<path opacity=".65" class="edging" fill="#FFFFFF" d="M57.3,61.5h-6.7h-0.3h-6.7c-1.9,0-3.5,1.6-3.5,3.5s1.6,3.5,3.5,3.5h6.7h0.3h6.7c1.9,0,3.5-1.6,3.5-3.5
					S59.3,61.5,57.3,61.5z"/>
				<path opacity=".65" class="edging" fill="#FFFFFF" d="M27.3,38.5h7c1.9,0,3.5-1.6,3.5-3.5s-1.6-3.5-3.5-3.5h-7c-1.9,0-3.5,1.6-3.5,3.5S25.4,38.5,27.3,38.5z"/>
				<path opacity=".65" class="edging" fill="#FFFFFF" d="M66.7,38.5h7c1.9,0,3.5-1.6,3.5-3.5s-1.6-3.5-3.5-3.5h-7c-1.9,0-3.5,1.6-3.5,3.5S64.7,38.5,66.7,38.5z"/>
				<path opacity=".65" class="edging" fill="#FFFFFF" d="M43.7,38.5h6.7h0.3h6.7c1.9,0,3.5-1.6,3.5-3.5s-1.6-3.5-3.5-3.5h-6.7h-0.3h-6.7c-1.9,0-3.5,1.6-3.5,3.5
					S41.7,38.5,43.7,38.5z"/>
				<path opacity=".65" class="edging" fill="#FFFFFF" d="M86,31.5h-3c-1.9,0-3.5,1.6-3.5,3.5c0,1.8,1.3,3.2,3,3.5c0.2,1.7,1.7,3,3.5,3c1.9,0,3.5-1.6,3.5-3.5v-3
					C89.5,33.1,87.9,31.5,86,31.5z"/>
				<path opacity=".65" class="edging" fill="#FFFFFF" d="M86,43.2c-1.9,0-3.5,1.6-3.5,3.5v6.5c0,1.9,1.6,3.5,3.5,3.5s3.5-1.6,3.5-3.5v-6.5
					C89.5,44.8,87.9,43.2,86,43.2z"/>

				<path fill="#282828" class="outer" d="M86,60.5c-0.8,0-1.5,0.7-1.5,1.5v1.5H83c-0.8,0-1.5,0.7-1.5,1.5s0.7,1.5,1.5,1.5h3c0.8,0,1.5-0.7,1.5-1.5
					v-3C87.5,61.2,86.8,60.5,86,60.5z"/>
				<path fill="#282828" class="outer" d="M18,63.5h-1.5V62c0-0.8-0.7-1.5-1.5-1.5s-1.5,0.7-1.5,1.5v3c0,0.8,0.7,1.5,1.5,1.5h3c0.8,0,1.5-0.7,1.5-1.5
					S18.8,63.5,18,63.5z"/>
				<path fill="#282828" class="outer" d="M15,54.8c0.8,0,1.5-0.7,1.5-1.5v-6.5c0-0.8-0.7-1.5-1.5-1.5s-1.5,0.7-1.5,1.5v6.5
					C13.5,54.1,14.2,54.8,15,54.8z"/>
				<path fill="#282828" class="outer" d="M18,33.5h-3c-0.8,0-1.5,0.7-1.5,1.5v3c0,0.8,0.7,1.5,1.5,1.5s1.5-0.7,1.5-1.5v-1.5H18
					c0.8,0,1.5-0.7,1.5-1.5S18.8,33.5,18,33.5z"/>
				<path fill="#282828" class="outer" d="M86,33.5h-3c-0.8,0-1.5,0.7-1.5,1.5s0.7,1.5,1.5,1.5h1.5V38c0,0.8,0.7,1.5,1.5,1.5s1.5-0.7,1.5-1.5v-3
					C87.5,34.2,86.8,33.5,86,33.5z"/>
				<path fill="#282828" class="outer" d="M86,45.2c-0.8,0-1.5,0.7-1.5,1.5v6.5c0,0.8,0.7,1.5,1.5,1.5s1.5-0.7,1.5-1.5v-6.5
					C87.5,45.9,86.8,45.2,86,45.2z"/>
				<path fill="#282828" class="outer" d="M34.3,63.5h-7c-0.8,0-1.5,0.7-1.5,1.5s0.7,1.5,1.5,1.5h7c0.8,0,1.5-0.7,1.5-1.5S35.2,63.5,34.3,63.5z"/>
				<path fill="#282828" class="outer" d="M27.3,36.5h7c0.8,0,1.5-0.7,1.5-1.5s-0.7-1.5-1.5-1.5h-7c-0.8,0-1.5,0.7-1.5,1.5S26.5,36.5,27.3,36.5z"/>
				<path fill="#282828" class="outer" d="M43.7,36.5h6.7h0.3h6.7c0.8,0,1.5-0.7,1.5-1.5s-0.7-1.5-1.5-1.5h-6.7h-0.3h-6.7c-0.8,0-1.5,0.7-1.5,1.5
					S42.8,36.5,43.7,36.5z"/>
				<path fill="#282828" class="outer" d="M73.7,63.5h-7c-0.8,0-1.5,0.7-1.5,1.5s0.7,1.5,1.5,1.5h7c0.8,0,1.5-0.7,1.5-1.5S74.5,63.5,73.7,63.5z"/>
				<path fill="#282828" class="outer" d="M57.3,63.5h-6.7h-0.3h-6.7c-0.8,0-1.5,0.7-1.5,1.5s0.7,1.5,1.5,1.5h6.7h0.3h6.7c0.8,0,1.5-0.7,1.5-1.5
					S58.2,63.5,57.3,63.5z"/>
				<path fill="#282828" class="outer" d="M66.7,36.5h7c0.8,0,1.5-0.7,1.5-1.5s-0.7-1.5-1.5-1.5h-7c-0.8,0-1.5,0.7-1.5,1.5S65.8,36.5,66.7,36.5z"/>
			</g>
		</g>
</svg>