<svg xmlns="http://www.w3.org/2000/svg" width="48" height="48" viewBox="0 0 100 100"><title>magnetic-ol</title><g class="symbol"><path class="outer" fill="#282828" d="M50 86.5c-1.1 0-2-.9-2-2v-11L32.8 62.6c-.5-.4-.8-1-.8-1.6 0-.7.3-1.3.9-1.6L62.5 39l-13.7-9.8c-.5-.4-.8-1-.8-1.6v-12c0-1.1.9-2 2-2s2 .9 2 2v11l15.2 10.9c.5.4.8 1 .8 1.6 0 .7-.3 1.3-.9 1.6L37.5 61l13.7 9.8c.5.4.8 1 .8 1.6v12c0 1.2-.9 2.1-2 2.1z"/><path class="edging" opacity=".65" fill="#FFF" d="M50 13.5c1.1 0 2 .9 2 2v11l15.2 10.9c.5.4.8 1 .8 1.6 0 .7-.3 1.3-.9 1.6L37.5 61l13.7 9.8c.5.4.8 1 .8 1.6v12c0 1.1-.9 2-2 2s-2-.9-2-2v-11L32.8 62.6c-.5-.4-.8-1-.8-1.6 0-.7.3-1.3.9-1.6L62.5 39l-13.7-9.8c-.5-.4-.8-1-.8-1.6v-12c0-1.2.9-2.1 2-2.1m0-2c-2.2 0-4 1.8-4 4v12c0 1.3.6 2.5 1.7 3.2L59 38.9 31.7 57.7c-1.1.7-1.7 2-1.7 3.3 0 1.3.6 2.5 1.7 3.3L46 74.6v9.9c0 2.2 1.8 4 4 4s4-1.8 4-4v-12c0-1.3-.6-2.5-1.7-3.2L41 61.1l27.3-18.8c1.1-.7 1.7-2 1.7-3.3 0-1.3-.6-2.5-1.7-3.3L54 25.4v-9.9c0-2.2-1.8-4-4-4z"/></g></svg>