<svg xmlns="http://www.w3.org/2000/svg" width="48" height="48" viewBox="0 0 100 100">
  <title>magnetic-ol</title>
		<g id="magnetic-ol" class="symbol">
			<g id="bound">
				<rect class="" x="0" y="0" width="100" height="100" opacity="0"/>
			</g>

			<path class="outer" fill="#282828" d="M50,86.5c-1.1,0-2-0.9-2-2v-11L32.8,62.6c-0.5-0.4-0.8-1-0.8-1.6c0-0.7,0.3-1.3,0.9-1.6L62.5,39l-13.7-9.8
				c-0.5-0.4-0.8-1-0.8-1.6v-12c0-1.1,0.9-2,2-2s2,0.9,2,2v11l15.2,10.9c0.5,0.4,0.8,1,0.8,1.6c0,0.7-0.3,1.3-0.9,1.6L37.5,61
				l13.7,9.8c0.5,0.4,0.8,1,0.8,1.6v12C52,85.6,51.1,86.5,50,86.5z"/>

			<path class="edging" opacity="0.65" fill="#FFFFFF" d="M50,13.5c1.1,0,2,0.9,2,2v11l15.2,10.9c0.5,0.4,0.8,1,0.8,1.6c0,0.7-0.3,1.3-0.9,1.6L37.5,61l13.7,9.8
				c0.5,0.4,0.8,1,0.8,1.6v12c0,1.1-0.9,2-2,2s-2-0.9-2-2v-11L32.8,62.6c-0.5-0.4-0.8-1-0.8-1.6c0-0.7,0.3-1.3,0.9-1.6L62.5,39
				l-13.7-9.8c-0.5-0.4-0.8-1-0.8-1.6v-12C48,14.4,48.9,13.5,50,13.5 M50,11.5c-2.2,0-4,1.8-4,4v12c0,1.3,0.6,2.5,1.7,3.2L59,38.9
				L31.7,57.7c-1.1,0.7-1.7,2-1.7,3.3c0,1.3,0.6,2.5,1.7,3.3L46,74.6v9.9c0,2.2,1.8,4,4,4s4-1.8,4-4v-12c0-1.3-0.6-2.5-1.7-3.2
				L41,61.1l27.3-18.8c1.1-0.7,1.7-2,1.7-3.3c0-1.3-0.6-2.5-1.7-3.3L54,25.4v-9.9C54,13.3,52.2,11.5,50,11.5L50,11.5z"/>
		</g>
</svg>