<svg xmlns="http://www.w3.org/2000/svg" width="48" height="48" viewBox="0 0 100 100">
  <title>mcc</title>
		<g id="mcc" class="symbol load assembly">

			<rect id="bounding" fill="none" width="100" height="100"/>	
			
			<path class="outer" fill="#282828" d="M79,76H21c-3.3,0-6-2.7-6-6V30c0-3.3,2.7-6,6-6h58c3.3,0,6,2.7,6,6v40C85,73.3,82.3,76,79,76z"/>

			<path class="edging" opacity="0.65" fill="#FFFFFF" d="M79,24c3.3,0,6,2.7,6,6v40c0,3.3-2.7,6-6,6H21c-3.3,0-6-2.7-6-6V30c0-3.3,2.7-6,6-6H79 M79,22H21
					c-4.4,0-8,3.6-8,8v40c0,4.4,3.6,8,8,8h58c4.4,0,8-3.6,8-8V30C87,25.6,83.4,22,79,22L79,22z"/>


			<linearGradient id="mcc-gradient" gradientUnits="userSpaceOnUse" x1="50" y1="27" x2="50" y2="73">
				<stop  offset="0" style="stop-color:#E6E6E6"/>
				<stop  offset="1" style="stop-color:#CCCCCC"/>
			</linearGradient>

			<path fill="url(#mcc-gradient)" d="M79,73H21c-1.7,0-3-1.3-3-3V30c0-1.7,1.3-3,3-3h58c1.7,0,3,1.3,3,3v40C82,71.7,80.7,73,79,73z"/>

			<g opacity="0.7">
				<path fill="#b5b5b5" d="M79,27H21c-1.7,0-3,1.3-3,3v0.5h64V30C82,28.3,80.7,27,79,27z"/>
				<path fill="#b5b5b5" d="M18,70c0,1.7,1.3,3,3,3h58c1.7,0,3-1.3,3-3v-0.5H18V70z"/>
			</g>


			<polygon fill="#919191" points="27.7,50 18,50 18,51 27.7,51 27.7,60 18,60 18,61 27.7,61 27.7,73 28.7,73 28.7,27 27.7,27 		"/>
			<path fill="#919191" d="M41.3,34h-9.7v-7h-1v46h1v-6h9.7v6h1V27h-1V34z M41.3,35v3h-9.7v-3H41.3z M31.6,58v-3h9.7v3H31.6z M41.3,59v3
				h-9.7v-3H41.3z M31.6,54v-3h9.7v3H31.6z M31.6,50v-3h9.7v3H31.6z M31.6,46v-3h9.7v3H31.6z M31.6,42v-3h9.7v3H31.6z M31.6,66v-3
				h9.7v3H31.6z"/>
			<path fill="#919191" d="M54.8,34h-9.7v-7h-1v46h1v-6h9.7v6h1V27h-1V34z M54.8,35v3h-9.7v-3H54.8z M45.2,58v-3h9.7v3H45.2z M54.8,59v3
				h-9.7v-3H54.8z M45.2,54v-3h9.7v3H45.2z M45.2,50v-3h9.7v3H45.2z M45.2,46v-3h9.7v3H45.2z M45.2,42v-3h9.7v3H45.2z M45.2,66v-3
				h9.7v3H45.2z"/>
			<path fill="#919191" d="M68.4,34h-9.7v-7h-1v46h1v-6h9.7v6h1V27h-1V34z M68.4,35v3h-9.7v-3H68.4z M58.7,58v-3h9.7v3H58.7z M68.4,59v3
				h-9.7v-3H68.4z M58.7,54v-3h9.7v3H58.7z M58.7,50v-3h9.7v3H58.7z M58.7,46v-3h9.7v3H58.7z M58.7,42v-3h9.7v3H58.7z M58.7,66v-3
				h9.7v3H58.7z"/>
			<polygon fill="#919191" points="82,39 82,38 72.3,38 72.3,27 71.3,27 71.3,73 72.3,73 72.3,63 82,63 82,62 72.3,62 72.3,55 82,55 
				82,54 72.3,54 72.3,47 82,47 82,46 72.3,46 72.3,39 		"/>


			<path class="highlight" fill="#ffffff" opacity="0.35" d="M79,27H21c-1.7,0-3,1.3-3,3v1c0-1.7,1.3-3,3-3h58c1.7,0,3,1.3,3,3v-1C82,28.3,80.7,27,79,27z"/>
		</g>
</svg>