<svg xmlns="http://www.w3.org/2000/svg" width="48" height="48" viewBox="0 0 100 100">
  <title>medium-voltage-drawout-breaker</title>
  <g id="medium-voltage-drawout-breaker" class="symbol position">
			<!-- All Gradients MUST have a Unique ID. DO NOT USE THE ID FROM ILLUSTRATOR -->
			<linearGradient id="DefaultGradient" gradientUnits="userSpaceOnUse" x1="50" y1="42" x2="50" y2="60">
				<stop  offset="0" style="stop-color:#666666"/>
				<stop  offset="1" style="stop-color:#4D4D4D"/>
			</linearGradient>

			<g id="bound">
				<rect class="" x="0" y="0" width="100" height="100" opacity="0"/>
			</g>

			<!-- Functional paths/shapes should be grouped and named -->
			<g id="leftArrow">
				<!-- Be sure to apply the edging class do all edging paths (easy to find because of their fill) -->
				<path class="edging" fill="#FFFFFF" d="M13.7,40.8c0.7,0,1.5,0.3,2.1,0.9c1.1,1.1,1.1,3,0,4.1L10.5,51l5.2,5.2c1.1,1.1,1.1,3,0,4.1
					c-0.6,0.6-1.3,0.9-2.1,0.9c-0.7,0-1.5-0.3-2.1-0.9l-7.3-7.3c-1.1-1.1-1.1-3,0-4.1l7.3-7.3C12.2,41.1,12.9,40.8,13.7,40.8
					 M13.7,38.8c-1.3,0-2.5,0.5-3.5,1.4l-7.3,7.3C2,48.5,1.5,49.7,1.5,51c0,1.3,0.5,2.5,1.4,3.5l7.3,7.3c0.9,0.9,2.2,1.4,3.5,1.4
					c1.3,0,2.5-0.5,3.5-1.4c0.9-0.9,1.4-2.2,1.4-3.5c0-1.3-0.5-2.5-1.4-3.5L13.3,51l3.8-3.8c0.9-0.9,1.4-2.2,1.4-3.5
					c0-1.3-0.5-2.5-1.4-3.5C16.2,39.3,15,38.8,13.7,38.8L13.7,38.8z"/>
				<!-- Be sure to apply the outer class do all outer paths (easy to find because of their fill) -->
				<path class="outer" fill="#282828" d="M15.7,41.7c-1.1-1.1-3-1.1-4.1,0l-7.3,7.3c-1.1,1.1-1.1,3,0,4.1l7.3,7.3c0.6,0.6,1.3,0.9,2.1,0.9
					c0.7,0,1.5-0.3,2.1-0.9c1.1-1.1,1.1-3,0-4.1L10.5,51l5.2-5.2C16.8,44.7,16.8,42.8,15.7,41.7z"/>
			</g>

			<g id="rightArrow">
				<path class="edging" fill="#FFFFFF" d="M86.3,40.8c0.7,0,1.5,0.3,2.1,0.9l7.3,7.3c1.1,1.1,1.1,3,0,4.1l-7.3,7.3c-0.6,0.6-1.3,0.9-2.1,0.9
					c-0.7,0-1.5-0.3-2.1-0.9c-1.1-1.1-1.1-3,0-4.1l5.2-5.2l-5.2-5.2c-1.1-1.1-1.1-3,0-4.1C84.9,41.1,85.6,40.8,86.3,40.8
					 M86.3,38.8c-1.3,0-2.5,0.5-3.5,1.4c-0.9,0.9-1.4,2.2-1.4,3.5c0,1.3,0.5,2.5,1.4,3.5l3.8,3.8l-3.8,3.8
					c-0.9,0.9-1.4,2.2-1.4,3.5c0,1.3,0.5,2.5,1.4,3.5c0.9,0.9,2.2,1.4,3.5,1.4c1.3,0,2.5-0.5,3.5-1.4l7.3-7.3
					c0.9-0.9,1.4-2.2,1.4-3.5c0-1.3-0.5-2.5-1.4-3.5l-7.3-7.3C88.9,39.3,87.6,38.8,86.3,38.8L86.3,38.8z"/>
				<path class="outer" fill="#282828" d="M95.6,48.9l-7.3-7.3c-1.1-1.1-3-1.1-4.1,0c-1.1,1.1-1.1,3,0,4.1l5.2,5.2l-5.2,5.2c-1.1,1.1-1.1,3,0,4.1
					c0.6,0.6,1.3,0.9,2.1,0.9c0.7,0,1.5-0.3,2.1-0.9l7.3-7.3C96.8,51.9,96.8,50.1,95.6,48.9z"/>
			</g>

			<!-- If a functional group will be animated, include the class 'animate' -->
			<g id="innerBlock" class="animate" connected="translate(0, 0)" disconnected="translate(0, -30)" test="translate(0, -20)">
				<path class="edging" fill="#FFFFFF" d="M62,39v9h8l-2.2-2.2c-1.1-1.1-1.1-3,0-4.1c0.6-0.6,1.3-0.9,2.1-0.9c0.7,0,1.5,0.3,2.1,0.9l6.9,6.9
					c0.6,0.4,1,1.1,1.2,1.9c0,0.1,0,0.3,0,0.4c0,0.1,0,0.1,0,0.2c0,0.1,0,0.1,0,0.2c0,0.1,0,0.3,0,0.4c-0.1,0.7-0.6,1.4-1.2,1.9
					l-6.9,6.9c-0.6,0.6-1.3,0.9-2.1,0.9c-0.7,0-1.5-0.3-2.1-0.9c-1.1-1.1-1.1-3,0-4.1L70,54h-8v9H38v-9h-8l2.2,2.2
					c1.1,1.1,1.1,3,0,4.1c-0.6,0.6-1.3,0.9-2.1,0.9c-0.7,0-1.5-0.3-2.1-0.9l-6.9-6.9c-0.6-0.4-1-1.1-1.2-1.9c0-0.2,0-0.3,0-0.5
					c0,0,0-0.1,0-0.1c0,0,0-0.1,0-0.1c0-0.2,0-0.3,0-0.5c0.1-0.7,0.6-1.4,1.2-1.9l6.9-6.9c0.6-0.6,1.3-0.9,2.1-0.9
					c0.7,0,1.5,0.3,2.1,0.9c1.1,1.1,1.1,3,0,4.1L30,48h8v-9H62 M64,37h-2H38h-2v2v7h-1.5c0.4-0.7,0.5-1.5,0.5-2.3
					c0-1.3-0.5-2.5-1.4-3.5c-0.9-0.9-2.2-1.4-3.5-1.4c-1.3,0-2.5,0.5-3.5,1.4l-6.8,6.8c-0.9,0.8-1.6,1.8-1.8,3
					c-0.1,0.3-0.1,0.5-0.1,0.7c0,0.1,0,0.2,0,0.2v0.1l0,0.1c0,0.3,0,0.5,0.1,0.7c0.2,1.2,0.9,2.2,1.8,3l6.8,6.8
					c0.9,0.9,2.2,1.4,3.5,1.4c1.3,0,2.5-0.5,3.5-1.4c0.9-0.9,1.4-2.2,1.4-3.5c0-0.8-0.2-1.6-0.5-2.3H36v7v2h2h24h2v-2v-7h1.5
					c-0.4,0.7-0.5,1.5-0.5,2.3c0,1.3,0.5,2.5,1.4,3.5c0.9,0.9,2.2,1.4,3.5,1.4c1.3,0,2.5-0.5,3.5-1.4l6.8-6.8
					c0.9-0.8,1.6-1.8,1.8-3c0-0.2,0.1-0.5,0.1-0.6c0-0.1,0-0.2,0-0.3c0-0.1,0-0.2,0-0.4c0-0.2,0-0.4-0.1-0.6
					c-0.2-1.2-0.9-2.2-1.8-3l-6.8-6.8c-0.9-0.9-2.2-1.4-3.5-1.4c-1.3,0-2.5,0.5-3.5,1.4c-0.9,0.9-1.4,2.2-1.4,3.5
					c0,0.8,0.2,1.6,0.5,2.3H64v-7V37L64,37z"/>
				<path class="outer" fill="#282828" d="M79.9,50.4c-0.1-0.8-0.6-1.4-1.2-1.9l-6.9-6.9c-1.1-1.1-3-1.1-4.1,0c-1.1,1.1-1.1,3,0,4.1L70,48h-8v-9
					H38v9h-8l2.2-2.2c1.1-1.1,1.1-3,0-4.1c-1.1-1.1-3-1.1-4.1,0l-6.9,6.9c-0.6,0.4-1,1.1-1.2,1.9c0,0.2,0,0.3,0,0.5
					c0,0,0,0.1,0,0.1c0,0,0,0.1,0,0.1c0,0.2,0,0.3,0,0.5c0.1,0.7,0.6,1.4,1.2,1.9l6.9,6.9c0.6,0.6,1.3,0.9,2.1,0.9
					c0.7,0,1.5-0.3,2.1-0.9c1.1-1.1,1.1-3,0-4.1L30,54h8v9h24v-9h8l-2.2,2.2c-1.1,1.1-1.1,3,0,4.1c0.6,0.6,1.3,0.9,2.1,0.9
					c0.7,0,1.5-0.3,2.1-0.9l6.9-6.9c0.6-0.4,1-1.1,1.2-1.9c0-0.1,0-0.3,0-0.4c0-0.1,0-0.1,0-0.2c0-0.1,0-0.1,0-0.2
					C80,50.7,80,50.6,79.9,50.4z"/>

				<!-- Inner is the class to apply to all shapes or paths that will change based on status or preference -->
				<rect class="inner" x="41" y="42" fill="url(#DefaultGradient)" width="18" height="18"/>

				<!-- Highlights should always have a class and should have a default opacity of .45 -->
				<rect class="highlight" x="41" y="42" fill="#FFFFFF" opacity=".45" width="18" height="1"/>
			</g>

			<g class="dotted-slot" opacity="0" transform="translate(0, 1)">

				<path fill="#282828" d="M74,66.5h-3c-0.8,0-1.5-0.7-1.5-1.5s0.7-1.5,1.5-1.5h1.5V62c0-0.8,0.7-1.5,1.5-1.5s1.5,0.7,1.5,1.5v3
					C75.5,65.8,74.8,66.5,74,66.5z"/>

				<path fill="#282828" d="M61.7,66.5h-7c-0.8,0-1.5-0.7-1.5-1.5s0.7-1.5,1.5-1.5h7c0.8,0,1.5,0.7,1.5,1.5S62.5,66.5,61.7,66.5z
					 M45.3,66.5h-7c-0.8,0-1.5-0.7-1.5-1.5s0.7-1.5,1.5-1.5h7c0.8,0,1.5,0.7,1.5,1.5S46.2,66.5,45.3,66.5z"/>

				<path fill="#282828" d="M29,66.5h-3c-0.8,0-1.5-0.7-1.5-1.5v-3c0-0.8,0.7-1.5,1.5-1.5s1.5,0.7,1.5,1.5v1.5H29
					c0.8,0,1.5,0.7,1.5,1.5S29.8,66.5,29,66.5z"/>

				<path fill="#282828" d="M26,54.8c-0.8,0-1.5-0.7-1.5-1.5v-6.5c0-0.8,0.7-1.5,1.5-1.5s1.5,0.7,1.5,1.5v6.5
					C27.5,54.1,26.8,54.8,26,54.8z"/>

				<path fill="#282828" d="M26,39.5c-0.8,0-1.5-0.7-1.5-1.5v-3c0-0.8,0.7-1.5,1.5-1.5h3c0.8,0,1.5,0.7,1.5,1.5s-0.7,1.5-1.5,1.5
					h-1.5V38C27.5,38.8,26.8,39.5,26,39.5z"/>

				<path fill="#282828" d="M61.7,36.5h-7c-0.8,0-1.5-0.7-1.5-1.5s0.7-1.5,1.5-1.5h7c0.8,0,1.5,0.7,1.5,1.5S62.5,36.5,61.7,36.5z
					 M45.3,36.5h-7c-0.8,0-1.5-0.7-1.5-1.5s0.7-1.5,1.5-1.5h7c0.8,0,1.5,0.7,1.5,1.5S46.2,36.5,45.3,36.5z"/>

				<path fill="#282828" d="M74,39.5c-0.8,0-1.5-0.7-1.5-1.5v-1.5H71c-0.8,0-1.5-0.7-1.5-1.5s0.7-1.5,1.5-1.5h3
					c0.8,0,1.5,0.7,1.5,1.5v3C75.5,38.8,74.8,39.5,74,39.5z"/>

				<path fill="#282828" d="M74,54.8c-0.8,0-1.5-0.7-1.5-1.5v-6.5c0-0.8,0.7-1.5,1.5-1.5s1.5,0.7,1.5,1.5v6.5
					C75.5,54.1,74.8,54.8,74,54.8z"/>

				<path fill="#FFFFFF" class="edging" opacity=".65" d="M74,60.5c0.8,0,1.5,0.7,1.5,1.5v3c0,0.8-0.7,1.5-1.5,1.5h-3c-0.8,0-1.5-0.7-1.5-1.5s0.7-1.5,1.5-1.5h1.5
					V62C72.5,61.2,73.2,60.5,74,60.5 M74,58.5c-1.8,0-3.2,1.3-3.5,3c-1.7,0.2-3,1.7-3,3.5c0,1.9,1.6,3.5,3.5,3.5h3
					c1.9,0,3.5-1.6,3.5-3.5v-3C77.5,60.1,75.9,58.5,74,58.5L74,58.5z"/>

				<path fill="#FFFFFF" class="edging" opacity=".65" d="M61.7,63.5c0.8,0,1.5,0.7,1.5,1.5s-0.7,1.5-1.5,1.5h-7c-0.8,0-1.5-0.7-1.5-1.5s0.7-1.5,1.5-1.5H61.7
					 M45.3,63.5c0.8,0,1.5,0.7,1.5,1.5s-0.7,1.5-1.5,1.5h-7c-0.8,0-1.5-0.7-1.5-1.5s0.7-1.5,1.5-1.5H45.3 M61.7,61.5h-7
					c-1.9,0-3.5,1.6-3.5,3.5s1.6,3.5,3.5,3.5h7c1.9,0,3.5-1.6,3.5-3.5S63.6,61.5,61.7,61.5L61.7,61.5z M45.3,61.5h-7
					c-1.9,0-3.5,1.6-3.5,3.5s1.6,3.5,3.5,3.5h7c1.9,0,3.5-1.6,3.5-3.5S47.3,61.5,45.3,61.5L45.3,61.5z"/>

				<path fill="#FFFFFF" class="edging" opacity=".65" d="M26,60.5c0.8,0,1.5,0.7,1.5,1.5v1.5H29c0.8,0,1.5,0.7,1.5,1.5s-0.7,1.5-1.5,1.5h-3
					c-0.8,0-1.5-0.7-1.5-1.5v-3C24.5,61.2,25.2,60.5,26,60.5 M26,58.5c-1.9,0-3.5,1.6-3.5,3.5v3c0,1.9,1.6,3.5,3.5,3.5h3
					c1.9,0,3.5-1.6,3.5-3.5c0-1.8-1.3-3.2-3-3.5C29.2,59.8,27.8,58.5,26,58.5L26,58.5z"/>

				<path fill="#FFFFFF" class="edging" opacity=".65" d="M26,45.2c0.8,0,1.5,0.7,1.5,1.5v6.5c0,0.8-0.7,1.5-1.5,1.5s-1.5-0.7-1.5-1.5v-6.5
					C24.5,45.9,25.2,45.2,26,45.2 M26,43.2c-1.9,0-3.5,1.6-3.5,3.5v6.5c0,1.9,1.6,3.5,3.5,3.5s3.5-1.6,3.5-3.5v-6.5
					C29.5,44.8,27.9,43.2,26,43.2L26,43.2z"/>

				<path fill="#FFFFFF" class="edging" opacity=".65" d="M29,33.5c0.8,0,1.5,0.7,1.5,1.5s-0.7,1.5-1.5,1.5h-1.5V38c0,0.8-0.7,1.5-1.5,1.5s-1.5-0.7-1.5-1.5v-3
					c0-0.8,0.7-1.5,1.5-1.5H29 M29,31.5h-3c-1.9,0-3.5,1.6-3.5,3.5v3c0,1.9,1.6,3.5,3.5,3.5c1.8,0,3.2-1.3,3.5-3
					c1.7-0.2,3-1.7,3-3.5C32.5,33.1,30.9,31.5,29,31.5L29,31.5z"/>

				<path fill="#FFFFFF" class="edging" opacity=".65" d="M61.7,33.5c0.8,0,1.5,0.7,1.5,1.5s-0.7,1.5-1.5,1.5h-7c-0.8,0-1.5-0.7-1.5-1.5s0.7-1.5,1.5-1.5H61.7
					 M45.3,33.5c0.8,0,1.5,0.7,1.5,1.5s-0.7,1.5-1.5,1.5h-7c-0.8,0-1.5-0.7-1.5-1.5s0.7-1.5,1.5-1.5H45.3 M61.7,31.5h-7
					c-1.9,0-3.5,1.6-3.5,3.5s1.6,3.5,3.5,3.5h7c1.9,0,3.5-1.6,3.5-3.5S63.6,31.5,61.7,31.5L61.7,31.5z M45.3,31.5h-7
					c-1.9,0-3.5,1.6-3.5,3.5s1.6,3.5,3.5,3.5h7c1.9,0,3.5-1.6,3.5-3.5S47.3,31.5,45.3,31.5L45.3,31.5z"/>

				<path fill="#FFFFFF" class="edging" opacity=".65" d="M74,33.5c0.8,0,1.5,0.7,1.5,1.5v3c0,0.8-0.7,1.5-1.5,1.5s-1.5-0.7-1.5-1.5v-1.5H71
					c-0.8,0-1.5-0.7-1.5-1.5s0.7-1.5,1.5-1.5H74 M74,31.5h-3c-1.9,0-3.5,1.6-3.5,3.5c0,1.8,1.3,3.2,3,3.5c0.2,1.7,1.7,3,3.5,3
					c1.9,0,3.5-1.6,3.5-3.5v-3C77.5,33.1,75.9,31.5,74,31.5L74,31.5z"/>

				<path fill="#FFFFFF" class="edging" opacity=".65" d="M74,45.2c0.8,0,1.5,0.7,1.5,1.5v6.5c0,0.8-0.7,1.5-1.5,1.5s-1.5-0.7-1.5-1.5v-6.5
					C72.5,45.9,73.2,45.2,74,45.2 M74,43.2c-1.9,0-3.5,1.6-3.5,3.5v6.5c0,1.9,1.6,3.5,3.5,3.5s3.5-1.6,3.5-3.5v-6.5
					C77.5,44.8,75.9,43.2,74,43.2L74,43.2z"/>

			</g>

			<g class="test-label" opacity="0">
				<path class="edging" opacity="0.65" fill="#FFFFFF" d="M66,69H34c-1.7,0-3-1.3-3-3V54c0-1.7,1.3-3,3-3h32c1.7,0,3,1.3,3,3v12C69,67.7,67.7,69,66,69
					z"/>
				<g class="test-label-text" opacity="0.8">
					<path d="M42.4,63.7h-1.9v-5.6h-1.7v-1.6h5.4v1.6h-1.7V63.7z"/>
					<path d="M49.4,63.7h-4.2v-7.1h4.2v1.5h-2.3v1.1h2.1v1.5h-2.1v1.3h2.3V63.7z"/>
					<path d="M55.3,61.5c0,0.4-0.1,0.8-0.3,1.2s-0.5,0.6-1,0.8s-0.9,0.3-1.5,0.3c-0.5,0-0.9,0-1.2-0.1s-0.7-0.2-1-0.3v-1.7
						c0.4,0.2,0.8,0.3,1.1,0.4s0.8,0.2,1.1,0.2c0.3,0,0.5,0,0.6-0.1s0.2-0.2,0.2-0.4c0-0.1,0-0.2-0.1-0.3c-0.1-0.1-0.1-0.1-0.3-0.2
						c-0.1-0.1-0.4-0.2-1-0.5c-0.5-0.2-0.8-0.4-1-0.6c-0.2-0.2-0.4-0.4-0.5-0.7c-0.1-0.3-0.2-0.6-0.2-0.9c0-0.7,0.2-1.2,0.7-1.5
						s1.1-0.6,2-0.6c0.7,0,1.5,0.2,2.3,0.5l-0.6,1.5C54,58.1,53.5,58,53,58c-0.3,0-0.4,0-0.5,0.1s-0.2,0.2-0.2,0.3
						c0,0.1,0.1,0.3,0.2,0.4c0.1,0.1,0.5,0.3,1.2,0.6c0.6,0.3,1,0.6,1.3,0.9C55.2,60.6,55.3,61,55.3,61.5z"/>
					<path d="M59.6,63.7h-1.9v-5.6h-1.7v-1.6h5.4v1.6h-1.7V63.7z"/>
				</g>
			</g>
		</g>
</svg>

		