<svg xmlns="http://www.w3.org/2000/svg" width="48" height="48" viewBox="0 0 100 100"><title>medium-voltage-drawout-breaker</title><g class="symbol position"><linearGradient id="a" gradientUnits="userSpaceOnUse" x1="50" y1="42" x2="50" y2="60"><stop offset="0" stop-color="#666"/><stop offset="1" stop-color="#4d4d4d"/></linearGradient><path class="edging" fill="#FFF" d="M13.7 40.8c.7 0 1.5.3 2.1.9 1.1 1.1 1.1 3 0 4.1L10.5 51l5.2 5.2c1.1 1.1 1.1 3 0 4.1-.6.6-1.3.9-2.1.9-.7 0-1.5-.3-2.1-.9L4.2 53c-1.1-1.1-1.1-3 0-4.1l7.3-7.3c.7-.5 1.4-.8 2.2-.8m0-2c-1.3 0-2.5.5-3.5 1.4l-7.3 7.3c-.9 1-1.4 2.2-1.4 3.5 0 1.3.5 2.5 1.4 3.5l7.3 7.3c.9.9 2.2 1.4 3.5 1.4 1.3 0 2.5-.5 3.5-1.4.9-.9 1.4-2.2 1.4-3.5 0-1.3-.5-2.5-1.4-3.5L13.3 51l3.8-3.8c.9-.9 1.4-2.2 1.4-3.5 0-1.3-.5-2.5-1.4-3.5-.9-.9-2.1-1.4-3.4-1.4z"/><path class="outer" fill="#282828" d="M15.7 41.7c-1.1-1.1-3-1.1-4.1 0L4.3 49c-1.1 1.1-1.1 3 0 4.1l7.3 7.3c.6.6 1.3.9 2.1.9.7 0 1.5-.3 2.1-.9 1.1-1.1 1.1-3 0-4.1L10.5 51l5.2-5.2c1.1-1.1 1.1-3 0-4.1z"/><path class="edging" fill="#FFF" d="M86.3 40.8c.7 0 1.5.3 2.1.9l7.3 7.3c1.1 1.1 1.1 3 0 4.1l-7.3 7.3c-.6.6-1.3.9-2.1.9-.7 0-1.5-.3-2.1-.9-1.1-1.1-1.1-3 0-4.1l5.2-5.2-5.2-5.2c-1.1-1.1-1.1-3 0-4.1.7-.7 1.4-1 2.1-1m0-2c-1.3 0-2.5.5-3.5 1.4-.9.9-1.4 2.2-1.4 3.5 0 1.3.5 2.5 1.4 3.5l3.8 3.8-3.8 3.8c-.9.9-1.4 2.2-1.4 3.5 0 1.3.5 2.5 1.4 3.5.9.9 2.2 1.4 3.5 1.4 1.3 0 2.5-.5 3.5-1.4l7.3-7.3c.9-.9 1.4-2.2 1.4-3.5 0-1.3-.5-2.5-1.4-3.5l-7.3-7.3c-.9-.9-2.2-1.4-3.5-1.4z"/><path class="outer" fill="#282828" d="M95.6 48.9l-7.3-7.3c-1.1-1.1-3-1.1-4.1 0-1.1 1.1-1.1 3 0 4.1l5.2 5.2-5.2 5.2c-1.1 1.1-1.1 3 0 4.1.6.6 1.3.9 2.1.9.7 0 1.5-.3 2.1-.9l7.3-7.3c1.1-1 1.1-2.8-.1-4z"/><g class="animate"><path class="edging" fill="#FFF" d="M62 39v9h8l-2.2-2.2c-1.1-1.1-1.1-3 0-4.1.6-.6 1.3-.9 2.1-.9.7 0 1.5.3 2.1.9l6.9 6.9c.6.4 1 1.1 1.2 1.9v1.2c-.1.7-.6 1.4-1.2 1.9L72 60.5c-.6.6-1.3.9-2.1.9-.7 0-1.5-.3-2.1-.9-1.1-1.1-1.1-3 0-4.1L70 54h-8v9H38v-9h-8l2.2 2.2c1.1 1.1 1.1 3 0 4.1-.6.6-1.3.9-2.1.9-.7 0-1.5-.3-2.1-.9l-6.9-6.9c-.6-.4-1-1.1-1.2-1.9v-1.2c.1-.7.6-1.4 1.2-1.9l6.9-6.9c.6-.6 1.3-.9 2.1-.9.7 0 1.5.3 2.1.9 1.1 1.1 1.1 3 0 4.1L30 48h8v-9h24m2-2H36v9h-1.5c.4-.7.5-1.5.5-2.3 0-1.3-.5-2.5-1.4-3.5-.9-.9-2.2-1.4-3.5-1.4-1.3 0-2.5.5-3.5 1.4L19.8 47c-.9.8-1.6 1.8-1.8 3-.1.3-.1.5-.1.7v.4c0 .3 0 .5.1.7.2 1.2.9 2.2 1.8 3l6.8 6.8c.9.9 2.2 1.4 3.5 1.4 1.3 0 2.5-.5 3.5-1.4.9-.9 1.4-2.2 1.4-3.5 0-.8-.2-1.6-.5-2.3H36v9h28v-9h1.5c-.4.7-.5 1.5-.5 2.3 0 1.3.5 2.5 1.4 3.5.9.9 2.2 1.4 3.5 1.4 1.3 0 2.5-.5 3.5-1.4l6.8-6.8c.9-.8 1.6-1.8 1.8-3 0-.2.1-.5.1-.6v-.7c0-.2 0-.4-.1-.6-.2-1.2-.9-2.2-1.8-3l-6.8-6.8c-.9-.9-2.2-1.4-3.5-1.4-1.3 0-2.5.5-3.5 1.4-.9.9-1.4 2.2-1.4 3.5 0 .8.2 1.6.5 2.3H64V37z"/><path class="outer" fill="#282828" d="M79.9 50.4c-.1-.8-.6-1.4-1.2-1.9l-6.9-6.9c-1.1-1.1-3-1.1-4.1 0-1.1 1.1-1.1 3 0 4.1L70 48h-8v-9H38v9h-8l2.2-2.2c1.1-1.1 1.1-3 0-4.1-1.1-1.1-3-1.1-4.1 0l-6.9 6.9c-.6.4-1 1.1-1.2 1.9v1.2c.1.7.6 1.4 1.2 1.9l6.9 6.9c.6.6 1.3.9 2.1.9.7 0 1.5-.3 2.1-.9 1.1-1.1 1.1-3 0-4.1L30 54h8v9h24v-9h8l-2.2 2.2c-1.1 1.1-1.1 3 0 4.1.6.6 1.3.9 2.1.9.7 0 1.5-.3 2.1-.9l6.9-6.9c.6-.4 1-1.1 1.2-1.9v-.8c-.1 0-.1-.1-.2-.3z"/><path class="inner" fill="url(#a)" d="M41 42h18v18H41z"/><path class="highlight" fill="#FFF" opacity=".45" d="M41 42h18v1H41z"/></g></g></svg>