<svg xmlns="http://www.w3.org/2000/svg" width="48" height="48" viewBox="0 0 100 100"><title>medium-voltage-breaker</title><g class="symbol"><linearGradient id="a" gradientUnits="userSpaceOnUse" x1="50" y1="42" x2="50" y2="60"><stop offset="0" stop-color="#666"/><stop offset="1" stop-color="#4d4d4d"/></linearGradient><g class="animate"><path class="edging" opacity=".65" fill="#FFF" d="M89.4 45H64v-9H36v9H10.5C8.1 45 6 47 6 49.5S8 54 10.5 54H36v10h28V54h25.4c2.5 0 4.5-2 4.5-4.5s-2-4.5-4.5-4.5zM38 38h24v7H38v-7zm0 14v-5h24v5H38zm-27.5 0C9.2 52 8 50.9 8 49.5S9.1 47 10.5 47H36v5H10.5zM62 62H38v-8h24v8zm27.4-10H64v-5h25.4c1.4 0 2.5 1.1 2.5 2.5S90.8 52 89.4 52z"/><path class="outer" fill="#282828" d="M89.4 47H62v-9H38v9H10.5C9.2 47 8 48.1 8 49.5S9.1 52 10.5 52H38v10h24V52h27.4c1.4 0 2.5-1.1 2.5-2.5S90.8 47 89.4 47z"/><path class="inner" fill="url(#a)" d="M41 41h18v18H41z"/><path class="highlight" fill="#FFF" opacity=".45" d="M41 41h18v1H41z"/></g></g></svg>