<svg xmlns="http://www.w3.org/2000/svg" width="48" height="48" viewBox="0 0 100 100">
  <title>medium-voltage-breaker</title>
  <g id="medium-voltage-breaker" class="symbol">

			<!-- All Gradients MUST have a Unique ID. DO NOT USE THE ID FROM ILLUSTRATOR -->
			<linearGradient id="DefaultGradient" gradientUnits="userSpaceOnUse" x1="50" y1="42" x2="50" y2="60">
				<stop  offset="0" style="stop-color:#666666"/>
				<stop  offset="1" style="stop-color:#4D4D4D"/>
			</linearGradient>

			<g class="animate">
				<path class="edging" opacity="0.65" fill="#FFFFFF" d="M89.4,45H64l0,0v-7v-2h-2H38h-2v2v7l0,0H10.5C8.1,45,6,47,6,49.5c0,2.5,2,4.5,4.5,4.5H36
				v1v7v2h2h24h2v-2v-7v-1h25.4c2.5,0,4.5-2,4.5-4.5C93.9,47,91.9,45,89.4,45z M38,38h24v7H38V38z M38,52v-5h24v5H38z M10.5,52
				C9.2,52,8,50.9,8,49.5c0-1.4,1.1-2.5,2.5-2.5H36v5H10.5z M62,62H38v-8h24V62z M89.4,52H64v-5h25.4c1.4,0,2.5,1.1,2.5,2.5
				C91.9,50.9,90.8,52,89.4,52z"/>

				<path class="outer" fill="#282828" d="M89.4,47H62v-9H38v9H10.5C9.2,47,8,48.1,8,49.5c0,1.4,1.1,2.5,2.5,2.5H38v1v9h24v-9v-1h27.4
				c1.4,0,2.5-1.1,2.5-2.5C91.9,48.1,90.8,47,89.4,47z"/>

				<rect class="inner" x="41" y="41" fill="url(#DefaultGradient)" width="18" height="18"/>
				<rect class="highlight" x="41" y="41" fill="#FFFFFF" opacity=".45" width="18" height="1"/>
			</g>
	</g>

</svg>