<svg xmlns="http://www.w3.org/2000/svg" width="48" height="48" viewBox="0 0 100 100"><title>meter-face</title><g class="symbol face"><path class="outer" fill="#282828" d="M57.2 28H42.8C34.6 28 28 34.6 28 42.8v14.4C28 65.4 34.6 72 42.8 72h14.4C65.4 72 72 65.4 72 57.2V42.8C72 34.6 65.4 28 57.2 28z"/><path class="edging" opacity=".65" fill="#FFF" d="M57.2 28C65.4 28 72 34.6 72 42.8v14.4C72 65.4 65.4 72 57.2 72H42.8C34.6 72 28 65.4 28 57.2V42.8C28 34.6 34.6 28 42.8 28h14.4m0-2H42.8C33.5 26 26 33.5 26 42.8v14.4C26 66.5 33.5 74 42.8 74h14.4C66.5 74 74 66.5 74 57.2V42.8C74 33.5 66.5 26 57.2 26z"/><linearGradient id="a" gradientUnits="userSpaceOnUse" x1="50" y1="31" x2="50" y2="69"><stop offset="0" stop-color="#666"/><stop offset="1" stop-color="#4d4d4d"/></linearGradient><path fill="url(#a)" d="M57.2 69H42.8C36.3 69 31 63.7 31 57.2V42.8C31 36.3 36.3 31 42.8 31h14.4C63.7 31 69 36.3 69 42.8v14.4C69 63.7 63.7 69 57.2 69z"/><g class="blue-borders"><linearGradient id="b" gradientUnits="userSpaceOnUse" x1="51.316" y1="56.151" x2="51.316" y2="69"><stop offset="0" stop-color="#007aba"/><stop offset="1" stop-color="#0360a7"/></linearGradient><path fill="url(#b)" d="M51.9 65.8c-6.8 1.5-13.3.9-18.3-1.2 2.2 2.7 5.5 4.4 9.1 4.4h14.4C63.7 69 69 63.7 69 57.2v-1.1c-3.6 4.5-9.7 8.1-17.1 9.7z"/><linearGradient id="c" gradientUnits="userSpaceOnUse" x1="53.948" y1="94.151" x2="53.948" y2="81.303" gradientTransform="rotate(180 51.316 62.576)"><stop offset="0" stop-color="#007aba"/><stop offset="1" stop-color="#0360a7"/></linearGradient><path fill="url(#c)" d="M48.1 34.2c6.8-1.5 13.3-.9 18.3 1.2-2.2-2.7-5.5-4.4-9.1-4.4H42.8C36.3 31 31 36.3 31 42.8v1.1c3.6-4.5 9.7-8.1 17.1-9.7z"/></g><path class="highlight" opacity=".2" fill="#FFF" d="M57.2 31H42.8C36.3 31 31 36.3 31 42.8v1C31 37.3 36.3 32 42.8 32h14.4C63.7 32 69 37.3 69 43.8v-1C69 36.3 63.7 31 57.2 31z"/><ellipse fill="#333" cx="50" cy="50" rx="13" ry="14"/><g opacity=".7"><g opacity=".4"><linearGradient id="d" gradientUnits="userSpaceOnUse" x1="50" y1="40" x2="50" y2="46"><stop offset="0" stop-color="#e01313"/><stop offset="1" stop-color="#ce0101"/></linearGradient><path fill="url(#d)" d="M42.3 40h15.4v6H42.3zm0 7h15.4v6H42.3zm0 7h15.4v6H42.3z"/></g><path opacity=".15" fill="#FFF" d="M42.3 54h15.4v1H42.3zm0-14h15.4v1H42.3zm0 7h15.4v1H42.3z"/></g><linearGradient id="e" gradientUnits="userSpaceOnUse" x1="50" y1="64" x2="50" y2="61"><stop offset="0" stop-color="#e01313"/><stop offset="1" stop-color="#ce0101"/></linearGradient><path fill="url(#e)" d="M42 61c2.2 1.9 5 3 8 3s5.8-1.1 8-3H42z"/><path opacity=".6" fill="#FFF" d="M37 34h4v2h-4zm20 31h6v1h-6z"/><path opacity=".4" fill="#FFF" d="M59 43h1v1h-1zm0 7h1v1h-1zm0 7h1v1h-1z"/></g></svg>