<svg xmlns="http://www.w3.org/2000/svg" width="48" height="48" viewBox="0 0 100 100">
  <title>meter</title>
  <g id="meter" class="symbol">
			
			<g id="bound">
				<rect class="" x="0" y="0" width="100" height="100" opacity="0"/>
			</g>

			<linearGradient id="DefaultGradient" gradientUnits="userSpaceOnUse" x1="50.5" y1="32.5" x2="50.5" y2="68.5">
					<stop  offset="0" style="stop-color:#666666"/>
					<stop  offset="1" style="stop-color:#4D4D4D"/>
			</linearGradient>

			<g id="circle">
				<path class="outer" fill="#282828" d="M50.5,72.5c-12.1,0-22-9.9-22-22s9.9-22,22-22c12.1,0,22,9.9,22,22S62.6,72.5,50.5,72.5z"/>
				<path class="edging" fill="#FFFFFF" d="M50.5,28.5c12.1,0,22,9.9,22,22s-9.9,22-22,22c-12.1,0-22-9.9-22-22S38.4,28.5,50.5,28.5 M50.5,26.5
					c-13.2,0-24,10.8-24,24s10.8,24,24,24c13.2,0,24-10.8,24-24S63.7,26.5,50.5,26.5L50.5,26.5z"/>
				<circle class="inner" fill="url(#DefaultGradient)" cx="50.5" cy="50.5" r="18"/>
				<path  class="highlight" opacity="0.35" fill="#FFFFFF" d="M32.6,51.5c0-8.1,5.3-14.9,12.7-17.2c1.7-0.5,3.4-0.8,5.3-0.8c1.8,0,3.5,0.3,5.1,0.8
					c7.3,2.1,12.6,8.7,12.9,16.6c0-0.1,0-0.3,0-0.4c0-9.9-8.1-18-18-18c-9.9,0-18,8.1-18,18c0,0.7,0,1.3,0.1,2
					C32.6,52.2,32.6,51.8,32.6,51.5z"/>
			</g>
			
			<g id="icon">
				<path class="content-shadow" fill="#282828" d="M43.2,60.3L41,62.5c-0.4,0.4-1,0.4-1.4,0c-0.4-0.4-0.4-1,0-1.4l1.4-1.4c-1.7-1.9-2.7-4.4-3-7.1h-2
					c-0.5,0-1-0.4-1-1c0-0.5,0.4-1,1-1h2c0.1-1.7,0.6-3.3,1.4-4.8l1.4,2c-0.4,1.2-0.7,2.4-0.7,3.7c0,2.9,1.2,5.5,3,7.3
					C43.6,59.3,43.6,60,43.2,60.3z M65,52.6h-2c-0.2,2.7-1.3,5.2-3,7.1l1.4,1.4c0.4,0.4,0.4,1,0,1.4c-0.4,0.4-1,0.4-1.4,0l-2.2-2.2
					c-0.4-0.4-0.4-1,0-1.4c1.9-1.9,3-4.5,3-7.3c0-5.7-4.6-10.4-10.4-10.4c-2.1,0-4.1,0.7-5.8,1.8l8,5.5l0,0c0.2,0.1,0.4,0.3,0.5,0.4
					c1.5,1.5,1.5,3.9,0,5.4c0,0-0.1,0.1-0.1,0.1c-1.5,1.4-3.9,1.3-5.3-0.2L39.8,43c-0.4-0.6-0.4-1.4,0.1-1.9
					c0.5-0.5,1.3-0.6,1.9-0.1l1.1,0.7c1.9-1.5,4.2-2.4,6.7-2.6v-2c0-0.5,0.4-1,1-1c0.5,0,1,0.4,1,1v2c2.7,0.2,5.2,1.3,7.1,3l1.4-1.4
					c0.4-0.4,1-0.4,1.4,0c0.4,0.4,0.4,1,0,1.4L60,43.5c1.7,2,2.7,4.4,3,7.1h2c0.5,0,1,0.4,1,1C66,52.2,65.5,52.6,65,52.6z"/>
				<circle class="content-shadow" fill="#282828" cx="50.6" cy="51.8" r="1.5"/>
				<path  class="content"  fill="#FFFFFF" d="M43.2,59.3L41,61.5c-0.4,0.4-1,0.4-1.4,0c-0.4-0.4-0.4-1,0-1.4l1.4-1.4c-1.7-1.9-2.7-4.4-3-7.1h-2
					c-0.5,0-1-0.4-1-1c0-0.5,0.4-1,1-1h2c0.1-1.7,0.6-3.3,1.4-4.8l1.4,2c-0.4,1.2-0.7,2.4-0.7,3.7c0,2.9,1.2,5.5,3,7.3
					C43.6,58.3,43.6,59,43.2,59.3z M65,51.6h-2c-0.2,2.7-1.3,5.2-3,7.1l1.4,1.4c0.4,0.4,0.4,1,0,1.4c-0.4,0.4-1,0.4-1.4,0l-2.2-2.2
					c-0.4-0.4-0.4-1,0-1.4c1.9-1.9,3-4.5,3-7.3c0-5.7-4.6-10.4-10.4-10.4c-2.1,0-4.1,0.7-5.8,1.8l8,5.5l0,0c0.2,0.1,0.4,0.3,0.5,0.4
					c1.5,1.5,1.5,3.9,0,5.4c0,0-0.1,0.1-0.1,0.1c-1.5,1.4-3.9,1.3-5.3-0.2L39.8,42c-0.4-0.6-0.4-1.4,0.1-1.9c0.5-0.5,1.3-0.6,1.9-0.1
					l1.1,0.7c1.9-1.5,4.2-2.4,6.7-2.6v-2c0-0.5,0.4-1,1-1c0.5,0,1,0.4,1,1v2c2.7,0.2,5.2,1.3,7.1,3l1.4-1.4c0.4-0.4,1-0.4,1.4,0
					c0.4,0.4,0.4,1,0,1.4L60,42.5c1.7,2,2.7,4.4,3,7.1h2c0.5,0,1,0.4,1,1C66,51.2,65.5,51.6,65,51.6z"/>
				<!-- this peice sits on top of the white path -->
				<circle class="content-shadow" fill="#282828" cx="50.6" cy="50.8" r="1.5"/>
			</g>
	</g>
</svg>