<svg xmlns="http://www.w3.org/2000/svg" width="48" height="48" viewBox="0 0 100 100"><title>meter</title><g class="symbol"><linearGradient id="a" gradientUnits="userSpaceOnUse" x1="50.5" y1="32.5" x2="50.5" y2="68.5"><stop offset="0" stop-color="#666"/><stop offset="1" stop-color="#4d4d4d"/></linearGradient><path class="outer" fill="#282828" d="M50.5 72.5c-12.1 0-22-9.9-22-22s9.9-22 22-22 22 9.9 22 22-9.9 22-22 22z"/><path class="edging" fill="#FFF" d="M50.5 28.5c12.1 0 22 9.9 22 22s-9.9 22-22 22-22-9.9-22-22 9.9-22 22-22m0-2c-13.2 0-24 10.8-24 24s10.8 24 24 24 24-10.8 24-24-10.8-24-24-24z"/><circle class="inner" fill="url(#a)" cx="50.5" cy="50.5" r="18"/><path class="highlight" opacity=".35" fill="#FFF" d="M32.6 51.5c0-8.1 5.3-14.9 12.7-17.2 1.7-.5 3.4-.8 5.3-.8 1.8 0 3.5.3 5.1.8C63 36.4 68.3 43 68.6 50.9v-.4c0-9.9-8.1-18-18-18s-18 8.1-18 18c0 .7 0 1.3.1 2-.1-.3-.1-.7-.1-1z"/><path class="content-shadow" fill="#282828" d="M43.2 60.3L41 62.5c-.4.4-1 .4-1.4 0-.4-.4-.4-1 0-1.4l1.4-1.4c-1.7-1.9-2.7-4.4-3-7.1h-2c-.5 0-1-.4-1-1 0-.5.4-1 1-1h2c.1-1.7.6-3.3 1.4-4.8l1.4 2c-.4 1.2-.7 2.4-.7 3.7 0 2.9 1.2 5.5 3 7.3.5.5.5 1.2.1 1.5zM65 52.6h-2c-.2 2.7-1.3 5.2-3 7.1l1.4 1.4c.4.4.4 1 0 1.4-.4.4-1 .4-1.4 0l-2.2-2.2c-.4-.4-.4-1 0-1.4 1.9-1.9 3-4.5 3-7.3 0-5.7-4.6-10.4-10.4-10.4-2.1 0-4.1.7-5.8 1.8l8 5.5c.2.1.4.3.5.4 1.5 1.5 1.5 3.9 0 5.4l-.1.1c-1.5 1.4-3.9 1.3-5.3-.2L39.8 43c-.4-.6-.4-1.4.1-1.9s1.3-.6 1.9-.1l1.1.7c1.9-1.5 4.2-2.4 6.7-2.6v-2c0-.5.4-1 1-1 .5 0 1 .4 1 1v2c2.7.2 5.2 1.3 7.1 3l1.4-1.4c.4-.4 1-.4 1.4 0 .4.4.4 1 0 1.4L60 43.5c1.7 2 2.7 4.4 3 7.1h2c.5 0 1 .4 1 1s-.5 1-1 1z"/><circle class="content-shadow" fill="#282828" cx="50.6" cy="51.8" r="1.5"/><path class="content" fill="#FFF" d="M43.2 59.3L41 61.5c-.4.4-1 .4-1.4 0-.4-.4-.4-1 0-1.4l1.4-1.4c-1.7-1.9-2.7-4.4-3-7.1h-2c-.5 0-1-.4-1-1 0-.5.4-1 1-1h2c.1-1.7.6-3.3 1.4-4.8l1.4 2c-.4 1.2-.7 2.4-.7 3.7 0 2.9 1.2 5.5 3 7.3.5.5.5 1.2.1 1.5zM65 51.6h-2c-.2 2.7-1.3 5.2-3 7.1l1.4 1.4c.4.4.4 1 0 1.4-.4.4-1 .4-1.4 0l-2.2-2.2c-.4-.4-.4-1 0-1.4 1.9-1.9 3-4.5 3-7.3 0-5.7-4.6-10.4-10.4-10.4-2.1 0-4.1.7-5.8 1.8l8 5.5c.2.1.4.3.5.4 1.5 1.5 1.5 3.9 0 5.4l-.1.1c-1.5 1.4-3.9 1.3-5.3-.2L39.8 42c-.4-.6-.4-1.4.1-1.9s1.3-.6 1.9-.1l1.1.7c1.9-1.5 4.2-2.4 6.7-2.6v-2c0-.5.4-1 1-1 .5 0 1 .4 1 1v2c2.7.2 5.2 1.3 7.1 3l1.4-1.4c.4-.4 1-.4 1.4 0 .4.4.4 1 0 1.4L60 42.5c1.7 2 2.7 4.4 3 7.1h2c.5 0 1 .4 1 1s-.5 1-1 1z"/><circle class="content-shadow" fill="#282828" cx="50.6" cy="50.8" r="1.5"/></g></svg>