<svg xmlns="http://www.w3.org/2000/svg" width="48" height="48" viewBox="0 0 100 100">
  <title>meter-face</title>
  <g id="meter-face" class="symbol face">
			<path class="outer" fill="#282828" d="M57.2,28H42.8C34.6,28,28,34.6,28,42.8v14.4C28,65.4,34.6,72,42.8,72h14.4C65.4,72,72,65.4,72,57.2V42.8
					C72,34.6,65.4,28,57.2,28L57.2,28z"/>

			<path class="edging" opacity="0.65" fill="#FFFFFF" d="M57.2,28C65.4,28,72,34.6,72,42.8v14.4C72,65.4,65.4,72,57.2,72H42.8C34.6,72,28,65.4,28,57.2V42.8
						C28,34.6,34.6,28,42.8,28H57.2 M57.2,26H42.8C33.5,26,26,33.5,26,42.8v14.4C26,66.5,33.5,74,42.8,74h14.4
						C66.5,74,74,66.5,74,57.2V42.8C74,33.5,66.5,26,57.2,26L57.2,26z"/>


			<linearGradient id="meter-face-background-gradient" gradientUnits="userSpaceOnUse" x1="50" y1="31" x2="50" y2="69">
				<stop  offset="0" style="stop-color:#666666"/>
				<stop  offset="1" style="stop-color:#4D4D4D"/>
			</linearGradient>
			<path fill="url(#meter-face-background-gradient)" d="M57.2,69H42.8C36.3,69,31,63.7,31,57.2V42.8C31,36.3,36.3,31,42.8,31h14.4C63.7,31,69,36.3,69,42.8
				v14.4C69,63.7,63.7,69,57.2,69z"/>
			
			<g class="blue-borders">
				<linearGradient id="meter-face-blue-border" gradientUnits="userSpaceOnUse" x1="51.3159" y1="56.1514" x2="51.3159" y2="69">
					<stop  offset="0" style="stop-color:#007ABA"/>
					<stop  offset="1" style="stop-color:#0360A7"/>
				</linearGradient>
				<path fill="url(#meter-face-blue-border)" d="M51.9,65.8c-6.8,1.5-13.3,0.9-18.3-1.2c2.2,2.7,5.5,4.4,9.1,4.4h14.4C63.7,69,69,63.7,69,57.2v-1.1
					C65.4,60.6,59.3,64.2,51.9,65.8z"/>
				
				<linearGradient id="meter-face-blue-border-2" gradientUnits="userSpaceOnUse" x1="53.9478" y1="94.1514" x2="53.9478" y2="81.3027" gradientTransform="matrix(-1 0 0 -1 102.6318 125.1514)">
					<stop  offset="0" style="stop-color:#007ABA"/>
					<stop  offset="1" style="stop-color:#0360A7"/>
				</linearGradient>
				<path fill="url(#meter-face-blue-border-2)" d="M48.1,34.2c6.8-1.5,13.3-0.9,18.3,1.2c-2.2-2.7-5.5-4.4-9.1-4.4H42.8C36.3,31,31,36.3,31,42.8v1.1
					C34.6,39.4,40.7,35.8,48.1,34.2z"/>
			</g>

			<path class="highlight" opacity="0.2" fill="#FFFFFF" d="M57.2,31H42.8C36.3,31,31,36.3,31,42.8v1C31,37.3,36.3,32,42.8,32h14.4
				C63.7,32,69,37.3,69,43.8v-1C69,36.3,63.7,31,57.2,31z"/>
			<g>
				<g>
					<ellipse fill="#333333" cx="50" cy="50" rx="13" ry="14"/>
				</g>
				<g opacity="0.7">
					<g opacity="0.4">
						<linearGradient id="meter-face-red-display" gradientUnits="userSpaceOnUse" x1="50" y1="40" x2="50" y2="46">
							<stop  offset="0" style="stop-color:#E01313"/>
							<stop  offset="1" style="stop-color:#CE0101"/>
						</linearGradient>
						<rect x="42.3" y="40" fill="url(#meter-face-red-display)" width="15.4" height="6"/>

						<rect x="42.3" y="47" fill="url(#meter-face-red-display)" width="15.4" height="6"/>

						<rect x="42.3" y="54" fill="url(#meter-face-red-display)" width="15.4" height="6"/>
					</g>
					<rect x="42.3" y="54" opacity=".15" fill="#FFFFFF" width="15.4" height="1"/>
					<rect x="42.3" y="40" opacity=".15" fill="#FFFFFF" width="15.4" height="1"/>
					<rect x="42.3" y="47" opacity=".15" fill="#FFFFFF" width="15.4" height="1"/>
				</g>
				<g>
					<linearGradient id="meter-face-red-buttons" gradientUnits="userSpaceOnUse" x1="50" y1="64" x2="50" y2="61">
						<stop  offset="0" style="stop-color:#E01313"/>
						<stop  offset="1" style="stop-color:#CE0101"/>
					</linearGradient>
					<path fill="url(#meter-face-red-buttons)" d="M42,61c2.2,1.9,5,3,8,3s5.8-1.1,8-3H42z"/>
				</g>
			</g>
			<rect x="37" y="34" opacity="0.6" fill="#FFFFFF" width="4" height="2"/>
			<rect x="57" y="65" opacity="0.6" fill="#FFFFFF" width="6" height="1"/>
			<rect x="59" y="43" opacity="0.4" fill="#FFFFFF" width="1" height="1"/>
			<rect x="59" y="50" opacity="0.4" fill="#FFFFFF" width="1" height="1"/>
			<rect x="59" y="57" opacity="0.4" fill="#FFFFFF" width="1" height="1"/>
		</g>
</svg>