<svg xmlns="http://www.w3.org/2000/svg" width="48" height="48" viewBox="0 0 100 100"><title>motor-starter</title><g class="symbol"><g class="background"><path class="outer" fill="#282828" d="M65.5 33.5h-31c-6.1 0-11 4.9-11 11v11c0 6.1 4.9 11 11 11h31c6.1 0 11-4.9 11-11v-11c0-6.1-4.9-11-11-11z"/><path class="edging" fill="#FFF" opacity=".65" d="M65.5 33.5c6.1 0 11 4.9 11 11v11c0 6.1-4.9 11-11 11h-31c-6.1 0-11-4.9-11-11v-11c0-6.1 4.9-11 11-11h31m0-2h-31c-7.2 0-13 5.8-13 13v11c0 7.2 5.8 13 13 13h31c7.2 0 13-5.8 13-13v-11c0-7.2-5.8-13-13-13z"/><linearGradient id="a" gradientUnits="userSpaceOnUse" x1="50" y1="36.5" x2="50" y2="63.5"><stop offset="0" stop-color="#666"/><stop offset="1" stop-color="#4d4d4d"/></linearGradient><path fill="url(#a)" d="M73.5 44.5c0-4.4-3.6-8-8-8h-31c-4.4 0-8 3.6-8 8v11c0 4.4 3.6 8 8 8h31c4.4 0 8-3.6 8-8v-11z"/><path class="highlight" opacity=".35" fill="#FFF" d="M65.5 36.5h-31c-4.4 0-8 3.6-8 8v1c0-4.4 3.6-8 8-8h31c4.4 0 8 3.6 8 8v-1c0-4.4-3.6-8-8-8z"/></g><linearGradient id="b" gradientUnits="userSpaceOnUse" x1="31.5" y1="50" x2="46.5" y2="50"><stop offset="0" stop-color="#e6e6e6"/><stop offset="1" stop-color="#ccc"/></linearGradient><circle fill="url(#b)" cx="39" cy="50" r="7.5"/><path fill="#282828" d="M39 44c3.3 0 6 2.7 6 6s-2.7 6-6 6-6-2.7-6-6 2.7-6 6-6m0-3c-5 0-9 4-9 9s4 9 9 9 9-4 9-9-4-9-9-9z"/><circle fill="url(#b)" cx="61" cy="50" r="7.5"/><path fill="#282828" d="M61 44c3.3 0 6 2.7 6 6s-2.7 6-6 6-6-2.7-6-6 2.7-6 6-6m0-3c-5 0-9 4-9 9s4 9 9 9 9-4 9-9-4-9-9-9z"/><path fill="#FFF" opacity=".35" d="M39 45c3.1 0 5.7 2.4 6 5.5V50c0-3.3-2.7-6-6-6s-6 2.7-6 6v.5c.3-3.1 2.9-5.5 6-5.5zm22 0c3.1 0 5.7 2.4 6 5.5V50c0-3.3-2.7-6-6-6s-6 2.7-6 6v.5c.3-3.1 2.9-5.5 6-5.5z"/><linearGradient id="c" gradientUnits="userSpaceOnUse" x1="-5801.501" y1="-2661.001" x2="-5786.501" y2="-2661.001" gradientTransform="rotate(90 -4233 1611)"><stop offset="0" stop-color="#4cc933"/><stop offset="1" stop-color="#39b620"/></linearGradient><circle fill="url(#c)" cx="39" cy="50" r="7.5"/><path fill="#282828" d="M39 44c3.3 0 6 2.7 6 6s-2.7 6-6 6-6-2.7-6-6 2.7-6 6-6m0-3c-5 0-9 4-9 9s4 9 9 9 9-4 9-9-4-9-9-9z"/><path class="highlight" opacity=".35" fill="#FFF" d="M39 45c3.1 0 5.7 2.4 6 5.5V50c0-3.3-2.7-6-6-6s-6 2.7-6 6v.5c.3-3.1 2.9-5.5 6-5.5z"/><linearGradient id="d" gradientUnits="userSpaceOnUse" x1="-76.501" y1="-782" x2="-61.501" y2="-782" gradientTransform="rotate(180 -4 -366)"><stop offset="0" stop-color="#e01313"/><stop offset="1" stop-color="#ce0101"/></linearGradient><circle fill="url(#d)" cx="61" cy="50" r="7.5"/><path fill="#282828" d="M61 44c3.3 0 6 2.7 6 6s-2.7 6-6 6-6-2.7-6-6 2.7-6 6-6m0-3c-5 0-9 4-9 9s4 9 9 9 9-4 9-9-4-9-9-9z"/><path fill="#FFF" opacity=".35" d="M61 45c3.1 0 5.7 2.4 6 5.5V50c0-3.3-2.7-6-6-6s-6 2.7-6 6v.5c.3-3.1 2.9-5.5 6-5.5z"/><circle fill="#33572C" cx="39" cy="50" r="7.5"/><path fill="#282828" d="M39 44c3.3 0 6 2.7 6 6s-2.7 6-6 6-6-2.7-6-6 2.7-6 6-6m0-3c-5 0-9 4-9 9s4 9 9 9 9-4 9-9-4-9-9-9z"/><linearGradient id="e" gradientUnits="userSpaceOnUse" x1="-75.001" y1="-782" x2="-63.001" y2="-782" gradientTransform="rotate(180 -4 -366)"><stop offset="0" stop-color="#e01313"/><stop offset="1" stop-color="#ce0101"/></linearGradient><circle fill="url(#e)" cx="61" cy="50" r="6"/><linearGradient id="f" gradientUnits="userSpaceOnUse" x1="-76.501" y1="-782" x2="-61.501" y2="-782" gradientTransform="rotate(180 -4 -366)"><stop offset="0" stop-color="#e01313"/><stop offset="1" stop-color="#ce0101"/></linearGradient><circle fill="url(#f)" cx="61" cy="50" r="7.5"/><path fill="#282828" d="M61 44c3.3 0 6 2.7 6 6s-2.7 6-6 6-6-2.7-6-6 2.7-6 6-6m0-3c-5 0-9 4-9 9s4 9 9 9 9-4 9-9-4-9-9-9z"/><path fill="#231F20" opacity=".35" d="M39 45c3.1 0 5.7 2.4 6 5.5V50c0-3.3-2.7-6-6-6s-6 2.7-6 6v.5c.3-3.1 2.9-5.5 6-5.5z"/><path fill="#FFF" opacity=".35" d="M61 45c3.1 0 5.7 2.4 6 5.5V50c0-3.3-2.7-6-6-6s-6 2.7-6 6v.5c.3-3.1 2.9-5.5 6-5.5z"/><radialGradient id="g" cx="-69.001" cy="-782.5" r="15.424" gradientTransform="rotate(180 -4 -366)" gradientUnits="userSpaceOnUse"><stop offset="0" stop-color="#e01313" stop-opacity=".8"/><stop offset="1" stop-color="#ce0101" stop-opacity="0"/></radialGradient><circle fill="url(#g)" cx="61" cy="50.5" r="15.4"/><linearGradient id="h" gradientUnits="userSpaceOnUse" x1="-5801.501" y1="-2661.001" x2="-5786.501" y2="-2661.001" gradientTransform="rotate(90 -4233 1611)"><stop offset="0" stop-color="#4cc933"/><stop offset="1" stop-color="#39b620"/></linearGradient><circle fill="url(#h)" cx="39" cy="50" r="7.5"/><path fill="#282828" d="M39 44c3.3 0 6 2.7 6 6s-2.7 6-6 6-6-2.7-6-6 2.7-6 6-6m0-3c-5 0-9 4-9 9s4 9 9 9 9-4 9-9-4-9-9-9z"/><linearGradient id="i" gradientUnits="userSpaceOnUse" x1="-8489.001" y1="3172" x2="-8477.001" y2="3172" gradientTransform="rotate(180 -4211 1611)"><stop offset="0" stop-color="#e01313"/><stop offset="1" stop-color="#ce0101"/></linearGradient><circle fill="url(#i)" cx="61" cy="50" r="6"/><circle fill="#802D2D" cx="61" cy="50" r="7.5"/><path fill="#282828" d="M61 44c3.3 0 6 2.7 6 6s-2.7 6-6 6-6-2.7-6-6 2.7-6 6-6m0-3c-5 0-9 4-9 9s4 9 9 9 9-4 9-9-4-9-9-9z"/><path class="highlight" opacity=".35" fill="#FFF" d="M39 45c3.1 0 5.7 2.4 6 5.5V50c0-3.3-2.7-6-6-6s-6 2.7-6 6v.5c.3-3.1 2.9-5.5 6-5.5z"/><path class="highlight" opacity=".35" fill="#231F20" d="M61 45c3.1 0 5.7 2.4 6 5.5V50c0-3.3-2.7-6-6-6s-6 2.7-6 6v.5c.3-3.1 2.9-5.5 6-5.5z"/><radialGradient id="j" cx="-8461.001" cy="3171.5" r="15.424" gradientTransform="rotate(180 -4211 1611)" gradientUnits="userSpaceOnUse"><stop offset="0" stop-color="#4cc933" stop-opacity=".8"/><stop offset="1" stop-color="#39b620" stop-opacity="0"/></radialGradient><circle fill="url(#j)" cx="39" cy="50.5" r="15.4"/></g></svg>