	<svg xmlns="http://www.w3.org/2000/svg" width="48" height="48" viewBox="0 0 100 100">
  <title>motor-starter</title>
  <g id="motor-starter" class="symbol">
			<g id="bound">
				<rect class="" x="0" y="0" width="100" height="100" opacity="0"/>
			</g>

			<g class="background">

				<path class="outer" fill="#282828" d="M65.5,33.5h-31c-6.1,0-11,4.9-11,11v11c0,6.1,4.9,11,11,11h31c6.1,0,11-4.9,11-11v-11
					C76.5,38.4,71.6,33.5,65.5,33.5L65.5,33.5z"/>

				<path class="edging" fill="#FFFFFF" opacity="0.65" d="M65.5,33.5c6.1,0,11,4.9,11,11v11c0,6.1-4.9,11-11,11h-31c-6.1,0-11-4.9-11-11v-11c0-6.1,4.9-11,11-11
					H65.5 M65.5,31.5h-31c-7.2,0-13,5.8-13,13v11c0,7.2,5.8,13,13,13h31c7.2,0,13-5.8,13-13v-11C78.5,37.3,72.7,31.5,65.5,31.5
					L65.5,31.5z"/>

				<linearGradient id="motor-starter-gradient" gradientUnits="userSpaceOnUse" x1="50" y1="36.5001" x2="50" y2="63.4999">
					<stop  offset="0" style="stop-color:#666666"/>
					<stop  offset="1" style="stop-color:#4D4D4D"/>
				</linearGradient>
				<path fill="url(#motor-starter-gradient)" d="M73.5,44.5c0-4.4-3.6-8-8-8h-31c-4.4,0-8,3.6-8,8v11c0,4.4,3.6,8,8,8h31c4.4,0,8-3.6,8-8V44.5z"/>
				<path class="highlight" opacity="0.35" fill="#FFFFFF" d="M65.5,36.5h-31c-4.4,0-8,3.6-8,8v1c0-4.4,3.6-8,8-8h31c4.4,0,8,3.6,8,8v-1
					C73.5,40.1,69.9,36.5,65.5,36.5z"/>
			</g>


			<g id="ms-unknown">
				<linearGradient id="motor-starter-gray" gradientUnits="userSpaceOnUse" x1="31.5" y1="50" x2="46.5" y2="50">
					<stop  offset="0" style="stop-color:#E6E6E6"/>
					<stop  offset="1" style="stop-color:#CCCCCC"/>
				</linearGradient>

				<circle fill="url(#motor-starter-gray)" cx="39" cy="50" r="7.5"/>
				<path fill="#282828" d="M39,44c3.3,0,6,2.7,6,6s-2.7,6-6,6s-6-2.7-6-6S35.7,44,39,44 M39,41c-5,0-9,4-9,9s4,9,9,9s9-4,9-9
					S44,41,39,41L39,41z"/>


				<circle fill="url(#motor-starter-gray)" cx="61" cy="50" r="7.5"/>
				<path fill="#282828" d="M61,44c3.3,0,6,2.7,6,6s-2.7,6-6,6s-6-2.7-6-6S57.7,44,61,44 M61,41c-5,0-9,4-9,9s4,9,9,9s9-4,9-9
						S66,41,61,41L61,41z"/>

				<path fill="#FFFFFF" opacity="0.35" d="M39,45c3.1,0,5.7,2.4,6,5.5c0-0.2,0-0.3,0-0.5c0-3.3-2.7-6-6-6c-3.3,0-6,2.7-6,6c0,0.2,0,0.3,0,0.5
					C33.3,47.4,35.9,45,39,45z"/>

				<path fill="#FFFFFF" opacity="0.35" d="M61,45c3.1,0,5.7,2.4,6,5.5c0-0.2,0-0.3,0-0.5c0-3.3-2.7-6-6-6c-3.3,0-6,2.7-6,6c0,0.2,0,0.3,0,0.5
					C55.3,47.4,57.9,45,61,45z"/>
			</g>

			<g id="ms-default">
				<linearGradient id="motor-starter-green-gradient-3" gradientUnits="userSpaceOnUse" x1="-5801.5005" y1="-2661.0005" x2="-5786.5005" y2="-2661.0005" gradientTransform="matrix(0 1 -1 0 -2622.0005 5844.0005)">
					<stop  offset="0" style="stop-color:#4CC933"/>
					<stop  offset="1" style="stop-color:#39B620"/>
				</linearGradient>
				<circle fill="url(#motor-starter-green-gradient-3)" cx="39" cy="50" r="7.5"/>
				<path fill="#282828" d="M39,44c3.3,0,6,2.7,6,6s-2.7,6-6,6s-6-2.7-6-6S35.7,44,39,44 M39,41c-5,0-9,4-9,9s4,9,9,9s9-4,9-9
					S44,41,39,41L39,41z"/>
				<path class="highlight" opacity="0.35" fill="#FFFFFF" d="M39,45c3.1,0,5.7,2.4,6,5.5c0-0.2,0-0.3,0-0.5c0-3.3-2.7-6-6-6c-3.3,0-6,2.7-6,6c0,0.2,0,0.3,0,0.5
				C33.3,47.4,35.9,45,39,45z"/>

				<linearGradient id="motor-starter-red-gradient-4" gradientUnits="userSpaceOnUse" x1="-76.5008" y1="-782" x2="-61.5008" y2="-782" gradientTransform="matrix(-1 0 0 -1 -8.0008 -732)">
					<stop  offset="0" style="stop-color:#E01313"/>
					<stop  offset="1" style="stop-color:#CE0101"/>
				</linearGradient>
				<circle fill="url(#motor-starter-red-gradient-4)" cx="61" cy="50" r="7.5"/>
				<path fill="#282828" d="M61,44c3.3,0,6,2.7,6,6s-2.7,6-6,6s-6-2.7-6-6S57.7,44,61,44 M61,41c-5,0-9,4-9,9s4,9,9,9s9-4,9-9
					S66,41,61,41L61,41z"/>
				<path fill="#FFFFFF" opacity="0.35" d="M61,45c3.1,0,5.7,2.4,6,5.5c0-0.2,0-0.3,0-0.5c0-3.3-2.7-6-6-6c-3.3,0-6,2.7-6,6c0,0.2,0,0.3,0,0.5
					C55.3,47.4,57.9,45,61,45z"/>
			</g>

			<g id="ms-running">
				<circle fill="#33572C" cx="39" cy="50" r="7.5"/>
				<path fill="#282828" d="M39,44c3.3,0,6,2.7,6,6s-2.7,6-6,6s-6-2.7-6-6S35.7,44,39,44 M39,41c-5,0-9,4-9,9s4,9,9,9s9-4,9-9
					S44,41,39,41L39,41z"/>

				<linearGradient id="motor-starter-green-gradient-2" gradientUnits="userSpaceOnUse" x1="-75.0008" y1="-782" x2="-63.0008" y2="-782" gradientTransform="matrix(-1 0 0 -1 -8.0008 -732)">
					<stop  offset="0" style="stop-color:#E01313"/>
					<stop  offset="1" style="stop-color:#CE0101"/>
				</linearGradient>
				<circle fill="url(#motor-starter-green-gradient-2)" cx="61" cy="50" r="6"/>
				
				<linearGradient id="motor-starter-red-gradient-3" gradientUnits="userSpaceOnUse" x1="-76.5008" y1="-782" x2="-61.5008" y2="-782" gradientTransform="matrix(-1 0 0 -1 -8.0008 -732)">
					<stop  offset="0" style="stop-color:#E01313"/>
					<stop  offset="1" style="stop-color:#CE0101"/>
				</linearGradient>
				<circle fill="url(#motor-starter-red-gradient-3)" cx="61" cy="50" r="7.5"/>
				<path fill="#282828" d="M61,44c3.3,0,6,2.7,6,6s-2.7,6-6,6s-6-2.7-6-6S57.7,44,61,44 M61,41c-5,0-9,4-9,9s4,9,9,9s9-4,9-9
					S66,41,61,41L61,41z"/>

				<path fill="#231F20" opacity="0.35" d="M39,45c3.1,0,5.7,2.4,6,5.5c0-0.2,0-0.3,0-0.5c0-3.3-2.7-6-6-6c-3.3,0-6,2.7-6,6c0,0.2,0,0.3,0,0.5
					C33.3,47.4,35.9,45,39,45z"/>

				<path fill="#FFFFFF" opacity="0.35" d="M61,45c3.1,0,5.7,2.4,6,5.5c0-0.2,0-0.3,0-0.5c0-3.3-2.7-6-6-6c-3.3,0-6,2.7-6,6c0,0.2,0,0.3,0,0.5
					C55.3,47.4,57.9,45,61,45z"/>

				<radialGradient id="motor-starter-red-radial" cx="-69.0007" cy="-782.5" r="15.4243" gradientTransform="matrix(-1 0 0 -1 -8.0008 -732)" gradientUnits="userSpaceOnUse">
					<stop  offset="0" style="stop-color:#E01313;stop-opacity:0.8"/>
					<stop  offset="1" style="stop-color:#CE0101;stop-opacity:0"/>
				</radialGradient>
				<circle fill="url(#motor-starter-red-radial)" cx="61" cy="50.5" r="15.4"/>
			</g>


			<g id="ms-stopped">

				<linearGradient id="motor-starter-green-gradient" gradientUnits="userSpaceOnUse" x1="-5801.5005" y1="-2661.0005" x2="-5786.5005" y2="-2661.0005" gradientTransform="matrix(0 1 -1 0 -2622.0005 5844.0005)">
					<stop  offset="0" style="stop-color:#4CC933"/>
					<stop  offset="1" style="stop-color:#39B620"/>
				</linearGradient>
				<circle fill="url(#motor-starter-green-gradient)" cx="39" cy="50" r="7.5"/>
				<path fill="#282828" d="M39,44c3.3,0,6,2.7,6,6s-2.7,6-6,6s-6-2.7-6-6S35.7,44,39,44 M39,41c-5,0-9,4-9,9s4,9,9,9s9-4,9-9
					S44,41,39,41L39,41z"/>
				
				
				<linearGradient id="motor-starter-red-gradient-2" gradientUnits="userSpaceOnUse" x1="-8489.001" y1="3172" x2="-8477.001" y2="3172" gradientTransform="matrix(-1 0 0 -1 -8422.001 3222)">
					<stop  offset="0" style="stop-color:#E01313"/>
					<stop  offset="1" style="stop-color:#CE0101"/>
				</linearGradient>
				<circle fill="url(#motor-starter-red-gradient-2)" cx="61" cy="50" r="6"/>

				<circle fill="#802D2D" cx="61" cy="50" r="7.5"/>

				<path fill="#282828" d="M61,44c3.3,0,6,2.7,6,6s-2.7,6-6,6c-3.3,0-6-2.7-6-6S57.7,44,61,44 M61,41c-5,0-9,4-9,9s4,9,9,9s9-4,9-9
					S66,41,61,41L61,41z"/>

				<path class="highlight" opacity="0.35" fill="#FFFFFF" d="M39,45c3.1,0,5.7,2.4,6,5.5c0-0.2,0-0.3,0-0.5c0-3.3-2.7-6-6-6c-3.3,0-6,2.7-6,6c0,0.2,0,0.3,0,0.5
				C33.3,47.4,35.9,45,39,45z"/>

				<path class="highlight" opacity="0.35" fill="#231F20" d="M61,45c3.1,0,5.7,2.4,6,5.5c0-0.2,0-0.3,0-0.5c0-3.3-2.7-6-6-6c-3.3,0-6,2.7-6,6c0,0.2,0,0.3,0,0.5
				C55.3,47.4,57.9,45,61,45z"/>

				<radialGradient id="motor-starter-green-radial" cx="-8461.001" cy="3171.5" r="15.4243" gradientTransform="matrix(-1 0 0 -1 -8422.001 3222)" gradientUnits="userSpaceOnUse">
					<stop  offset="0" style="stop-color:#4CC933;stop-opacity:0.8"/>
					<stop  offset="1" style="stop-color:#39B620;stop-opacity:0"/>
				</radialGradient>
				<circle fill="url(#motor-starter-green-radial)" cx="39" cy="50.5" r="15.4"/>
			</g>
		</g>
</svg>
