<svg xmlns="http://www.w3.org/2000/svg" width="48" height="48" viewBox="0 0 100 100">
  <title>motor</title>
  <g id="motor" class="symbol">
			<g id="bound">
				<rect class="" x="0" y="0" width="100" height="100" opacity="0"/>
			</g>

			<linearGradient id="DefaultGradient" gradientUnits="userSpaceOnUse" x1="50.5" y1="32.5" x2="50.5" y2="68.5">
					<stop  offset="0" style="stop-color:#666666"/>
					<stop  offset="1" style="stop-color:#4D4D4D"/>
			</linearGradient>

			<g id="circle">
				<path class="outer" fill="#282828" d="M50.5,72.5c-12.1,0-22-9.9-22-22s9.9-22,22-22c12.1,0,22,9.9,22,22S62.6,72.5,50.5,72.5z"/>
				<path class="edging" fill="#FFFFFF" d="M50.5,28.5c12.1,0,22,9.9,22,22s-9.9,22-22,22c-12.1,0-22-9.9-22-22S38.4,28.5,50.5,28.5 M50.5,26.5
					c-13.2,0-24,10.8-24,24s10.8,24,24,24c13.2,0,24-10.8,24-24S63.7,26.5,50.5,26.5L50.5,26.5z"/>
				<circle class="inner" fill="url(#DefaultGradient)" cx="50.5" cy="50.5" r="18"/>
				<path  class="highlight" opacity="0.35" fill="#FFFFFF" d="M32.6,51.5c0-8.1,5.3-14.9,12.7-17.2c1.7-0.5,3.4-0.8,5.3-0.8c1.8,0,3.5,0.3,5.1,0.8
					c7.3,2.1,12.6,8.7,12.9,16.6c0-0.1,0-0.3,0-0.4c0-9.9-8.1-18-18-18c-9.9,0-18,8.1-18,18c0,0.7,0,1.3,0.1,2
					C32.6,52.2,32.6,51.8,32.6,51.5z"/>
			</g>
			
			<g class="text">
				<text class="text" text-anchor="middle" transform="matrix(1 0 0 1 50 58)" fill="#ffffff" font-family="'Gotham-Black', 'Open Sans'" font-size="22px" style="font-weight: bold;">M</text>
			</g>
	</g>
</svg>
		
		