<svg xmlns="http://www.w3.org/2000/svg" width="48" height="48" viewBox="0 0 100 100">
  <title>nuclear</title>
		<g id="nuclear" class="symbol static energy">
			<g id="bound">
				<rect class="" x="0" y="0" width="100" height="100" opacity="0"/>
			</g>			

			<g>
				<path fill="#282828" d="M74.9,74.5c-2-5.2-7-19-7.9-27.7c-0.9-8.3,0.6-18.3,1.5-23c0.7-0.6,1.1-1.5,1.1-2.5c0-1.9-1.5-3.4-3.4-3.4
					H33.8c-1.9,0-3.4,1.5-3.4,3.4c0,1,0.4,1.9,1.1,2.5c0.8,4.7,2.3,14.7,1.5,23c-0.9,8.7-5.9,22.5-7.9,27.7c-1.3,0.7-2.1,2-2.1,3.5
					c0,2.2,1.8,4,4,4h46.2c2.2,0,4-1.8,4-4C77.1,76.5,76.2,75.2,74.9,74.5z"/>
				<path class="edging" opacity="0.65" fill="#FFFFFF" d="M66.2,18c1.9,0,3.4,1.5,3.4,3.4c0,1-0.4,1.9-1.1,2.5c-0.8,4.7-2.3,14.7-1.5,23c0.9,8.7,5.9,22.5,7.9,27.7
						c1.3,0.7,2.1,2,2.1,3.5c0,2.2-1.8,4-4,4H26.9c-2.2,0-4-1.8-4-4c0-1.5,0.9-2.8,2.1-3.5c2-5.2,7-19,7.9-27.7
						c0.9-8.3-0.6-18.3-1.5-23c-0.7-0.6-1.1-1.5-1.1-2.5c0-1.9,1.5-3.4,3.4-3.4H66.2 M66.2,16H33.8c-3,0-5.4,2.4-5.4,5.4
						c0,1.3,0.4,2.5,1.2,3.4c0.8,4.3,2.1,14,1.3,21.8c-0.8,8.1-5.4,20.8-7.6,26.5c-1.6,1.1-2.5,2.9-2.5,4.9c0,3.3,2.7,6,6,6h46.2
						c3.3,0,6-2.7,6-6c0-1.9-0.9-3.7-2.5-4.9c-2.2-5.7-6.7-18.4-7.6-26.5c-0.8-7.8,0.6-17.5,1.3-21.8c0.8-1,1.2-2.2,1.2-3.4
						C71.6,18.4,69.2,16,66.2,16L66.2,16z"/>
			</g>
			<linearGradient id="nuclear-gradient-1" gradientUnits="userSpaceOnUse" x1="25.9079" y1="49.4079" x2="74.0921" y2="49.4079">
				<stop  offset="0" style="stop-color:#E6E6E6"/>
				<stop  offset="1" style="stop-color:#CCCCCC"/>
			</linearGradient>

			<path fill="url(#nuclear-gradient-1)" d="M65,47C63.8,35.6,67,21,67,21H49.2h-0.4H33c0,0,3.2,14.6,2,26.1c-1.2,11.4-9.1,30.8-9.1,30.8h22.9
				h0.4h24.9C74.1,77.8,66.2,58.5,65,47z"/>

			<path fill="#B3B3B3" d="M66.4,24c0.1-0.8,0.3-1.5,0.4-2H33.2c0.1,0.5,0.2,1.2,0.4,2H66.4z"/>
			<path fill="#B3B3B3" d="M73.8,77c-0.2-0.5-0.5-1.2-0.8-2H27c-0.3,0.8-0.6,1.5-0.8,2H73.8z"/>

			<linearGradient id="nuclear-gradient-2" gradientUnits="userSpaceOnUse" x1="32.4211" y1="21.3816" x2="67.5789" y2="21.3816">
				<stop  offset="0" style="stop-color:#E6E6E6"/>
				<stop  offset="1" style="stop-color:#CCCCCC"/>
			</linearGradient>

			<path fill="url(#nuclear-gradient-2)" d="M66.2,22.8H33.8c-0.8,0-1.4-0.6-1.4-1.4v0c0-0.8,0.6-1.4,1.4-1.4h32.4c0.8,0,1.4,0.6,1.4,1.4v0
				C67.6,22.1,67,22.8,66.2,22.8z"/>

			<linearGradient id="nuclear-gradient-3" gradientUnits="userSpaceOnUse" x1="24.9211" y1="78.0263" x2="75.0789" y2="78.0263">
				<stop  offset="0" style="stop-color:#E6E6E6"/>
				<stop  offset="1" style="stop-color:#CCCCCC"/>
			</linearGradient>

			<path fill="url(#nuclear-gradient-3)" d="M73.1,80H26.9c-1.1,0-2-0.9-2-2v0c0-1.1,0.9-2,2-2h46.2c1.1,0,2,0.9,2,2v0
				C75.1,79.1,74.2,80,73.1,80z"/>
			<g class="icon">
				<path fill="#282828" d="M49,46.9c0.3-0.2,0.7-0.3,1.1-0.3s0.8,0.1,1.1,0.3c0.6,0.4,1.1,1.1,1.1,1.9c0,0.8-0.4,1.5-1.1,1.9
					c-0.3,0.2-0.7,0.3-1.1,0.3s-0.8-0.1-1.1-0.3c-0.6-0.4-1.1-1.1-1.1-1.9C47.9,47.9,48.3,47.3,49,46.9z M40.6,47.8
					c0.3-2.8,1.7-5.3,3.9-6.9c0.2-0.1,0.3-0.2,0.5-0.2c0.3,0,0.6,0.2,0.8,0.4l2.1,3.8c0.2,0.4,0.1,0.8-0.2,1.1
					c-0.6,0.5-1,1.3-1.2,2.1c-0.1,0.4-0.4,0.7-0.8,0.7h-4.2C40.9,48.7,40.5,48.3,40.6,47.8z M54,57.6c-1.2,0.6-2.6,0.9-3.9,0.9
					c-1.4,0-2.8-0.3-3.9-0.9c-0.4-0.2-0.6-0.8-0.4-1.2l2.2-3.8c0.2-0.3,0.4-0.4,0.7-0.4c0.1,0,0.2,0,0.3,0c0.4,0.1,0.8,0.2,1.2,0.2
					c0.4,0,0.8-0.1,1.2-0.2c0.1,0,0.2,0,0.3,0c0.3,0,0.6,0.2,0.8,0.4l2.1,3.8C54.6,56.8,54.4,57.4,54,57.6z M58.6,48.7h-4.3
					c-0.4,0-0.8-0.3-0.8-0.7c-0.2-0.8-0.6-1.5-1.2-2.1c-0.3-0.3-0.4-0.7-0.2-1.1l2.1-3.8c0.2-0.3,0.4-0.4,0.8-0.4
					c0.2,0,0.3,0,0.5,0.2c2.2,1.6,3.7,4.1,3.9,6.9C59.5,48.3,59.1,48.7,58.6,48.7z"/>

				<path fill="#FFFFFF" opacity="0.65" d="M55,40.6c0.2,0,0.3,0,0.5,0.2c2.2,1.6,3.7,4.1,3.9,6.9c0.1,0.6-0.3,1-0.8,1h-4.3
					c-0.4,0-0.8-0.3-0.8-0.7c-0.2-0.8-0.6-1.5-1.2-2.1c-0.3-0.3-0.4-0.7-0.2-1.1l2.1-3.8C54.4,40.8,54.7,40.6,55,40.6 M45,40.7
					c0.3,0,0.6,0.2,0.8,0.4l2.1,3.8c0.2,0.4,0.1,0.8-0.2,1.1c-0.6,0.5-1,1.3-1.2,2.1c-0.1,0.4-0.4,0.7-0.8,0.7h-4.2
					c-0.5,0-0.9-0.5-0.9-1c0.3-2.8,1.7-5.3,3.9-6.9C44.6,40.7,44.8,40.7,45,40.7 M50,46.6c0.4,0,0.8,0.1,1.1,0.3
					c0.6,0.4,1.1,1.1,1.1,1.9c0,0.8-0.4,1.5-1.1,1.9c-0.3,0.2-0.7,0.3-1.1,0.3c-0.4,0-0.8-0.1-1.1-0.3c-0.6-0.4-1.1-1.1-1.1-1.9
					c0-0.8,0.4-1.5,1.1-1.9C49.3,46.7,49.6,46.6,50,46.6 M51.5,52.2c0.3,0,0.6,0.2,0.8,0.4l2.1,3.8c0.2,0.4,0,1-0.4,1.2
					c-1.2,0.6-2.6,0.9-3.9,0.9c-1.4,0-2.8-0.3-3.9-0.9c-0.4-0.2-0.6-0.8-0.4-1.2l2.2-3.8c0.2-0.3,0.4-0.4,0.7-0.4
					c0.1,0,0.2,0,0.3,0c0.4,0.1,0.8,0.2,1.2,0.2c0.4,0,0.8-0.1,1.2-0.2C51.3,52.2,51.4,52.2,51.5,52.2 M55,38.6c-1,0-2,0.5-2.5,1.4
					l-2.1,3.8c-0.1,0.2-0.2,0.5-0.3,0.7c0,0-0.1,0-0.1,0c-0.1,0-0.1,0-0.2,0c-0.1-0.2-0.1-0.5-0.3-0.7l-2.1-3.8
					c-0.5-0.9-1.5-1.5-2.5-1.5c-0.6,0-1.2,0.2-1.7,0.6c-2.7,1.9-4.4,5-4.7,8.3c-0.1,1.6,1.1,3.1,2.7,3.2l0.1,0h0.1h4.2
					c0.2,0,0.4,0,0.6-0.1c0.1,0.1,0.1,0.3,0.2,0.4c-0.2,0.2-0.3,0.3-0.4,0.5L44,55.4c-0.4,0.7-0.5,1.6-0.2,2.4
					c0.2,0.7,0.8,1.4,1.5,1.7c1.5,0.7,3.1,1,4.8,1c1.6,0,3.2-0.3,4.8-1c0.7-0.3,1.2-0.9,1.5-1.6c0.3-0.7,0.3-1.6-0.1-2.3l0-0.1
					l0-0.1L54,51.6c-0.1-0.2-0.3-0.5-0.5-0.6c0.1-0.1,0.1-0.2,0.2-0.4c0.2,0,0.4,0.1,0.6,0.1h4.3c0.8,0,1.6-0.4,2.1-1
					c0.5-0.6,0.8-1.4,0.7-2.2c-0.3-3.3-2-6.3-4.7-8.3C56.2,38.8,55.6,38.6,55,38.6L55,38.6z"/>
			</g>
		</g>
</svg>
