<svg xmlns="http://www.w3.org/2000/svg" width="48" height="48" viewBox="0 0 100 100"><title>nuclear</title><g class="symbol static energy"><path fill="#282828" d="M74.9 74.5c-2-5.2-7-19-7.9-27.7-.9-8.3.6-18.3 1.5-23 .7-.6 1.1-1.5 1.1-2.5 0-1.9-1.5-3.4-3.4-3.4H33.8c-1.9 0-3.4 1.5-3.4 3.4 0 1 .4 1.9 1.1 2.5.8 4.7 2.3 14.7 1.5 23-.9 8.7-5.9 22.5-7.9 27.7-1.3.7-2.1 2-2.1 3.5 0 2.2 1.8 4 4 4h46.2c2.2 0 4-1.8 4-4-.1-1.5-1-2.8-2.3-3.5z"/><path class="edging" opacity=".65" fill="#FFF" d="M66.2 18c1.9 0 3.4 1.5 3.4 3.4 0 1-.4 1.9-1.1 2.5-.8 4.7-2.3 14.7-1.5 23 .9 8.7 5.9 22.5 7.9 27.7 1.3.7 2.1 2 2.1 3.5 0 2.2-1.8 4-4 4H26.9c-2.2 0-4-1.8-4-4 0-1.5.9-2.8 2.1-3.5 2-5.2 7-19 7.9-27.7.9-8.3-.6-18.3-1.5-23-.7-.6-1.1-1.5-1.1-2.5 0-1.9 1.5-3.4 3.4-3.4h32.5m0-2H33.8c-3 0-5.4 2.4-5.4 5.4 0 1.3.4 2.5 1.2 3.4.8 4.3 2.1 14 1.3 21.8-.8 8.1-5.4 20.8-7.6 26.5-1.6 1.1-2.5 2.9-2.5 4.9 0 3.3 2.7 6 6 6H73c3.3 0 6-2.7 6-6 0-1.9-.9-3.7-2.5-4.9-2.2-5.7-6.7-18.4-7.6-26.5-.8-7.8.6-17.5 1.3-21.8.8-1 1.2-2.2 1.2-3.4.2-3-2.2-5.4-5.2-5.4z"/><linearGradient id="a" gradientUnits="userSpaceOnUse" x1="25.908" y1="49.408" x2="74.092" y2="49.408"><stop offset="0" stop-color="#e6e6e6"/><stop offset="1" stop-color="#ccc"/></linearGradient><path fill="url(#a)" d="M65 47c-1.2-11.4 2-26 2-26H33s3.2 14.6 2 26.1c-1.2 11.4-9.1 30.8-9.1 30.8h48.2c0-.1-7.9-19.4-9.1-30.9z"/><path fill="#B3B3B3" d="M66.4 24c.1-.8.3-1.5.4-2H33.2c.1.5.2 1.2.4 2h32.8zm7.4 53c-.2-.5-.5-1.2-.8-2H27c-.3.8-.6 1.5-.8 2h47.6z"/><linearGradient id="b" gradientUnits="userSpaceOnUse" x1="32.421" y1="21.382" x2="67.579" y2="21.382"><stop offset="0" stop-color="#e6e6e6"/><stop offset="1" stop-color="#ccc"/></linearGradient><path fill="url(#b)" d="M66.2 22.8H33.8c-.8 0-1.4-.6-1.4-1.4 0-.8.6-1.4 1.4-1.4h32.4c.8 0 1.4.6 1.4 1.4 0 .7-.6 1.4-1.4 1.4z"/><linearGradient id="c" gradientUnits="userSpaceOnUse" x1="24.921" y1="78.026" x2="75.079" y2="78.026"><stop offset="0" stop-color="#e6e6e6"/><stop offset="1" stop-color="#ccc"/></linearGradient><path fill="url(#c)" d="M73.1 80H26.9c-1.1 0-2-.9-2-2s.9-2 2-2h46.2c1.1 0 2 .9 2 2s-.9 2-2 2z"/><g class="icon"><path fill="#282828" d="M49 46.9c.3-.2.7-.3 1.1-.3s.8.1 1.1.3c.6.4 1.1 1.1 1.1 1.9 0 .8-.4 1.5-1.1 1.9-.3.2-.7.3-1.1.3s-.8-.1-1.1-.3c-.6-.4-1.1-1.1-1.1-1.9 0-.9.4-1.5 1.1-1.9zm-8.4.9c.3-2.8 1.7-5.3 3.9-6.9.2-.1.3-.2.5-.2.3 0 .6.2.8.4l2.1 3.8c.2.4.1.8-.2 1.1-.6.5-1 1.3-1.2 2.1-.1.4-.4.7-.8.7h-4.2c-.6-.1-1-.5-.9-1zM54 57.6c-1.2.6-2.6.9-3.9.9-1.4 0-2.8-.3-3.9-.9-.4-.2-.6-.8-.4-1.2l2.2-3.8c.2-.3.4-.4.7-.4h.3c.4.1.8.2 1.2.2.4 0 .8-.1 1.2-.2h.3c.3 0 .6.2.8.4l2.1 3.8c0 .4-.2 1-.6 1.2zm4.6-8.9h-4.3c-.4 0-.8-.3-.8-.7-.2-.8-.6-1.5-1.2-2.1-.3-.3-.4-.7-.2-1.1l2.1-3.8c.2-.3.4-.4.8-.4.2 0 .3 0 .5.2 2.2 1.6 3.7 4.1 3.9 6.9.1.6-.3 1-.8 1z"/><path fill="#FFF" opacity=".65" d="M55 40.6c.2 0 .3 0 .5.2 2.2 1.6 3.7 4.1 3.9 6.9.1.6-.3 1-.8 1h-4.3c-.4 0-.8-.3-.8-.7-.2-.8-.6-1.5-1.2-2.1-.3-.3-.4-.7-.2-1.1l2.1-3.8c.2-.2.5-.4.8-.4m-10 .1c.3 0 .6.2.8.4l2.1 3.8c.2.4.1.8-.2 1.1-.6.5-1 1.3-1.2 2.1-.1.4-.4.7-.8.7h-4.2c-.5 0-.9-.5-.9-1 .3-2.8 1.7-5.3 3.9-6.9.1-.2.3-.2.5-.2m5 5.9c.4 0 .8.1 1.1.3.6.4 1.1 1.1 1.1 1.9 0 .8-.4 1.5-1.1 1.9-.3.2-.7.3-1.1.3-.4 0-.8-.1-1.1-.3-.6-.4-1.1-1.1-1.1-1.9 0-.8.4-1.5 1.1-1.9.4-.2.7-.3 1.1-.3m1.5 5.6c.3 0 .6.2.8.4l2.1 3.8c.2.4 0 1-.4 1.2-1.2.6-2.6.9-3.9.9-1.4 0-2.8-.3-3.9-.9-.4-.2-.6-.8-.4-1.2l2.2-3.8c.2-.3.4-.4.7-.4h.3c.4.1.8.2 1.2.2.4 0 .8-.1 1.2-.2h.1M55 38.6c-1 0-2 .5-2.5 1.4l-2.1 3.8c-.1.2-.2.5-.3.7h-.3c-.1-.2-.1-.5-.3-.7L47.4 40c-.5-.9-1.5-1.5-2.5-1.5-.6 0-1.2.2-1.7.6-2.7 1.9-4.4 5-4.7 8.3-.1 1.6 1.1 3.1 2.7 3.2h4.4c.2 0 .4 0 .6-.1.1.1.1.3.2.4-.2.2-.3.3-.4.5l-2 4c-.4.7-.5 1.6-.2 2.4.2.7.8 1.4 1.5 1.7 1.5.7 3.1 1 4.8 1 1.6 0 3.2-.3 4.8-1 .7-.3 1.2-.9 1.5-1.6.3-.7.3-1.6-.1-2.3v-.2L54 51.6c-.1-.2-.3-.5-.5-.6.1-.1.1-.2.2-.4.2 0 .4.1.6.1h4.3c.8 0 1.6-.4 2.1-1s.8-1.4.7-2.2c-.3-3.3-2-6.3-4.7-8.3-.5-.4-1.1-.6-1.7-.6z"/></g></g></svg>