<svg xmlns="http://www.w3.org/2000/svg" width="48" height="48" viewBox="0 0 100 100">
  <title>oneline</title>
  <g id="oneline" class="symbol simple">
			<g id="bound">
				<rect class="" x="0" y="0" width="100" height="100" opacity="0"/>
			</g>

			<path class="outer" fill="#282828" d="M71,56.1c0-2.8-2.3-5.1-5.1-5.1h-5.7c-2.8,0-5.1,2.3-5.1,5.1V57h-2V44h2v0.9c0,2.8,2.3,5.1,5.1,5.1h5.7
				c2.8,0,5.1-2.3,5.1-5.1v-5.7c0-2.8-2.3-5.1-5.1-5.1h-5.7c-2.8,0-5.1,2.3-5.1,5.1V40h-4c-1.1,0-2,0.9-2,2v6h-2v-0.9
				c0-2.8-2.3-5.1-5.1-5.1h-5.7c-2.8,0-5.1,2.3-5.1,5.1v5.7c0,2.8,2.3,5.1,5.1,5.1h5.7c2.8,0,5.1-2.3,5.1-5.1V52h2v7c0,1.1,0.9,2,2,2
				h4v0.9c0,2.8,2.3,5.1,5.1,5.1h5.7c2.8,0,5.1-2.3,5.1-5.1V56.1z M59,43.7c0.6-0.3,1-1,1-1.7s-0.4-1.4-1-1.7v-1.1
				c0-0.6,0.5-1.1,1.1-1.1h5.7c0.6,0,1.1,0.5,1.1,1.1v5.7c0,0.6-0.5,1.1-1.1,1.1h-5.7c-0.6,0-1.1-0.5-1.1-1.1V43.7z M43,48.3
				c-0.6,0.3-1,1-1,1.7s0.4,1.4,1,1.7v1.1c0,0.6-0.5,1.1-1.1,1.1h-5.7c-0.6,0-1.1-0.5-1.1-1.1v-5.7c0-0.6,0.5-1.1,1.1-1.1h5.7
				c0.6,0,1.1,0.5,1.1,1.1V48.3z M67,61.9c0,0.6-0.5,1.1-1.1,1.1h-5.7c-0.6,0-1.1-0.5-1.1-1.1v-1.1c0.6-0.3,1-1,1-1.7s-0.4-1.4-1-1.7
				v-1.1c0-0.6,0.5-1.1,1.1-1.1h5.7c0.6,0,1.1,0.5,1.1,1.1V61.9z"/>
			<path class="edging" opacity="0.65" fill="#FFFFFF" d="M65.9,34c2.8,0,5.1,2.3,5.1,5.1v5.7c0,2.8-2.3,5.1-5.1,5.1h-5.7c-2.8,0-5.1-2.3-5.1-5.1V44h-2v13h2v-0.9
			c0-2.8,2.3-5.1,5.1-5.1h5.7c2.8,0,5.1,2.3,5.1,5.1v5.7c0,2.8-2.3,5.1-5.1,5.1h-5.7c-2.8,0-5.1-2.3-5.1-5.1V61h-4c-1.1,0-2-0.9-2-2
			v-7h-2v0.9c0,2.8-2.3,5.1-5.1,5.1h-5.7c-2.8,0-5.1-2.3-5.1-5.1v-5.7c0-2.8,2.3-5.1,5.1-5.1h5.7c2.8,0,5.1,2.3,5.1,5.1V48h2v-6
			c0-1.1,0.9-2,2-2h4v-0.9c0-2.8,2.3-5.1,5.1-5.1H65.9 M60.1,46h5.7c0.6,0,1.1-0.5,1.1-1.1v-5.7c0-0.6-0.5-1.1-1.1-1.1h-5.7
			c-0.6,0-1.1,0.5-1.1,1.1v1.1c0.6,0.3,1,1,1,1.7s-0.4,1.4-1,1.7v1.1C59,45.5,59.5,46,60.1,46 M36.1,54h5.7c0.6,0,1.1-0.5,1.1-1.1
			v-1.1c-0.6-0.3-1-1-1-1.7s0.4-1.4,1-1.7v-1.1c0-0.6-0.5-1.1-1.1-1.1h-5.7c-0.6,0-1.1,0.5-1.1,1.1v5.7C35,53.5,35.5,54,36.1,54
			 M60.1,63h5.7c0.6,0,1.1-0.5,1.1-1.1v-5.7c0-0.6-0.5-1.1-1.1-1.1h-5.7c-0.6,0-1.1,0.5-1.1,1.1v1.1c0.6,0.3,1,1,1,1.7
			s-0.4,1.4-1,1.7v1.1C59,62.5,59.5,63,60.1,63 M65.9,32h-5.7c-3.5,0-6.5,2.6-7,6H51c-2.2,0-4,1.8-4,4v0.2c-1.3-1.3-3.1-2.2-5.1-2.2
			h-5.7c-3.9,0-7.1,3.2-7.1,7.1v5.7c0,3.9,3.2,7.1,7.1,7.1h5.7c2,0,3.8-0.8,5.1-2.2V59c0,2.2,1.8,4,4,4h2.1c0.5,3.4,3.5,6,7,6h5.7
			c3.9,0,7.1-3.2,7.1-7.1v-5.7c0-2.3-1.1-4.3-2.8-5.6c1.7-1.3,2.8-3.3,2.8-5.6v-5.7C73,35.2,69.8,32,65.9,32L65.9,32z M61.5,40H65v4
			h-3.5c0.3-0.6,0.5-1.3,0.5-2S61.8,40.6,61.5,40L61.5,40z M37,48h3.5c-0.3,0.6-0.5,1.3-0.5,2s0.2,1.4,0.5,2H37V48L37,48z M55,51.2
			v-1.4c0.2,0.2,0.5,0.5,0.8,0.7C55.5,50.7,55.2,50.9,55,51.2L55,51.2z M61.5,57H65v4h-3.5c0.3-0.6,0.5-1.3,0.5-2S61.8,57.6,61.5,57
			L61.5,57z"/>
	</g>
</svg>

		