<svg xmlns="http://www.w3.org/2000/svg" width="48" height="48" viewBox="0 0 100 100"><title>oneline</title><g class="symbol simple"><path class="outer" fill="#282828" d="M71 56.1c0-2.8-2.3-5.1-5.1-5.1h-5.7c-2.8 0-5.1 2.3-5.1 5.1v.9h-2V44h2v.9c0 2.8 2.3 5.1 5.1 5.1h5.7c2.8 0 5.1-2.3 5.1-5.1v-5.7c0-2.8-2.3-5.1-5.1-5.1h-5.7c-2.8 0-5.1 2.3-5.1 5.1v.8h-4c-1.1 0-2 .9-2 2v6h-2v-.9c0-2.8-2.3-5.1-5.1-5.1h-5.7c-2.8 0-5.1 2.3-5.1 5.1v5.7c0 2.8 2.3 5.1 5.1 5.1H42c2.8 0 5.1-2.3 5.1-5.1V52h2v7c0 1.1.9 2 2 2h4v.9c0 2.8 2.3 5.1 5.1 5.1h5.7c2.8 0 5.1-2.3 5.1-5.1v-5.8zM59 43.7c.6-.3 1-1 1-1.7s-.4-1.4-1-1.7v-1.1c0-.6.5-1.1 1.1-1.1h5.7c.6 0 1.1.5 1.1 1.1v5.7c0 .6-.5 1.1-1.1 1.1h-5.7c-.6 0-1.1-.5-1.1-1.1v-1.2zm-16 4.6c-.6.3-1 1-1 1.7s.4 1.4 1 1.7v1.1c0 .6-.5 1.1-1.1 1.1h-5.7c-.6 0-1.1-.5-1.1-1.1v-5.7c0-.6.5-1.1 1.1-1.1h5.7c.6 0 1.1.5 1.1 1.1v1.2zm24 13.6c0 .6-.5 1.1-1.1 1.1h-5.7c-.6 0-1.1-.5-1.1-1.1v-1.1c.6-.3 1-1 1-1.7s-.4-1.4-1-1.7v-1.1c0-.6.5-1.1 1.1-1.1h5.7c.6 0 1.1.5 1.1 1.1v5.6z"/><path class="edging" opacity=".65" fill="#FFF" d="M65.9 34c2.8 0 5.1 2.3 5.1 5.1v5.7c0 2.8-2.3 5.1-5.1 5.1h-5.7c-2.8 0-5.1-2.3-5.1-5.1V44h-2v13h2v-.9c0-2.8 2.3-5.1 5.1-5.1h5.7c2.8 0 5.1 2.3 5.1 5.1v5.7c0 2.8-2.3 5.1-5.1 5.1h-5.7c-2.8 0-5.1-2.3-5.1-5.1V61h-4c-1.1 0-2-.9-2-2v-7h-2v.9c0 2.8-2.3 5.1-5.1 5.1h-5.7c-2.8 0-5.1-2.3-5.1-5.1v-5.7c0-2.8 2.3-5.1 5.1-5.1H42c2.8 0 5.1 2.3 5.1 5.1v.8h2v-6c0-1.1.9-2 2-2h4v-.9c0-2.8 2.3-5.1 5.1-5.1h5.7m-5.8 12h5.7c.6 0 1.1-.5 1.1-1.1v-5.7c0-.6-.5-1.1-1.1-1.1h-5.7c-.6 0-1.1.5-1.1 1.1v1.1c.6.3 1 1 1 1.7s-.4 1.4-1 1.7v1.1c0 .7.5 1.2 1.1 1.2m-24 8h5.7c.6 0 1.1-.5 1.1-1.1v-1.1c-.6-.3-1-1-1-1.7s.4-1.4 1-1.7v-1.1c0-.6-.5-1.1-1.1-1.1h-5.7c-.6 0-1.1.5-1.1 1.1V53c0 .5.5 1 1.1 1m24 9h5.7c.6 0 1.1-.5 1.1-1.1v-5.7c0-.6-.5-1.1-1.1-1.1h-5.7c-.6 0-1.1.5-1.1 1.1v1.1c.6.3 1 1 1 1.7s-.4 1.4-1 1.7v1.1c0 .7.5 1.2 1.1 1.2m5.8-31h-5.7c-3.5 0-6.5 2.6-7 6H51c-2.2 0-4 1.8-4 4v.2c-1.3-1.3-3.1-2.2-5.1-2.2h-5.7c-3.9 0-7.1 3.2-7.1 7.1v5.7c0 3.9 3.2 7.1 7.1 7.1h5.7c2 0 3.8-.8 5.1-2.2V59c0 2.2 1.8 4 4 4h2.1c.5 3.4 3.5 6 7 6h5.7c3.9 0 7.1-3.2 7.1-7.1v-5.7c0-2.3-1.1-4.3-2.8-5.6 1.7-1.3 2.8-3.3 2.8-5.6v-5.7c.1-4.1-3.1-7.3-7-7.3zm-4.4 8H65v4h-3.5c.3-.6.5-1.3.5-2s-.2-1.4-.5-2zM37 48h3.5c-.3.6-.5 1.3-.5 2s.2 1.4.5 2H37v-4zm18 3.2v-1.4c.2.2.5.5.8.7-.3.2-.6.4-.8.7zm6.5 5.8H65v4h-3.5c.3-.6.5-1.3.5-2s-.2-1.4-.5-2z"/></g></svg>