<svg xmlns="http://www.w3.org/2000/svg" width="48" height="48" viewBox="0 0 100 100"><title>other</title><g class="symbol"><linearGradient id="a" gradientUnits="userSpaceOnUse" x1="50.5" y1="40" x2="50.5" y2="61"><stop offset="0" stop-color="#666"/><stop offset="1" stop-color="#4d4d4d"/></linearGradient><path class="outer" fill="#282828" d="M64 59c0 2.8-2.2 5-5 5H42c-2.8 0-5-2.2-5-5V42c0-2.8 2.2-5 5-5h17c2.8 0 5 2.2 5 5v17z"/><path class="edging" opacity=".65" fill="#FFF" d="M59 37c2.8 0 5 2.2 5 5v17c0 2.8-2.2 5-5 5H42c-2.8 0-5-2.2-5-5V42c0-2.8 2.2-5 5-5h17m0-2H42c-3.9 0-7 3.1-7 7v17c0 3.9 3.1 7 7 7h17c3.9 0 7-3.1 7-7V42c0-3.9-3.1-7-7-7z"/><path class="inner" fill="url(#a)" d="M61 58c0 1.7-1.3 3-3 3H43c-1.7 0-3-1.3-3-3V43c0-1.7 1.3-3 3-3h15c1.7 0 3 1.3 3 3v15z"/><path class="highlight" opacity=".35" fill="#FFF" d="M58 40H43c-1.7 0-3 1.3-3 3v1c0-1.7 1.3-3 3-3h15c1.7 0 3 1.3 3 3v-1c0-1.7-1.3-3-3-3z"/></g></svg>