		<svg xmlns="http://www.w3.org/2000/svg" width="48" height="48" viewBox="0 0 100 100">
  <title>outlet</title>
  <g id="outlet" class="symbol energy static">
			<g id="bound">
				<rect class="" x="0" y="0" width="100" height="100" opacity="0"/>
			</g>

			<path class="outer" fill="#282828" d="M61.2,25H38.8C31.2,25,25,31.3,25,39.1v21.9C25,68.7,31.2,75,38.8,75h22.3C68.8,75,75,68.7,75,60.9V39.1
				C75,31.3,68.8,25,61.2,25z"/>
			<path class='edging' opacity="0.65" fill="#FFFFFF" d="M61.2,25C68.8,25,75,31.3,75,39.1v21.9C75,68.7,68.8,75,61.2,75H38.8C31.2,75,25,68.7,25,60.9V39.1
				C25,31.3,31.2,25,38.8,25H61.2 M61.2,23H38.8C30.1,23,23,30.2,23,39.1v21.9C23,69.8,30.1,77,38.8,77h22.3C69.9,77,77,69.8,77,60.9
				V39.1C77,30.2,69.9,23,61.2,23L61.2,23z"/>


			<linearGradient id="outlet-gradient" gradientUnits="userSpaceOnUse" x1="50" y1="28" x2="50" y2="72">
				<stop  offset="0" style="stop-color:#E6E6E6"/>
				<stop  offset="1" style="stop-color:#CCCCCC"/>
			</linearGradient>
			<path fill="url(#outlet-gradient)" d="M61.2,28H38.8c-6,0-10.8,5-10.8,11.1v21.9C28,67,32.9,72,38.8,72h22.3c6,0,10.8-5,10.8-11.1V39.1
				C72,33,67.1,28,61.2,28z M41.9,49.5L41.9,49.5c0,1.1-0.7,2.2-1.8,2.2h-2.3c-1.1,0-1.7-1.1-1.7-2.2v-0.1v-10v-0.1
				c0-1.1,0.7-2.1,1.7-2.1h2.3c1.1,0,1.8,1.1,1.8,2.2V49.5z M54.1,63.7V64c0,1.1-0.9,1.6-2,1.6H50h-2.1c-1.1,0-2-0.7-2-1.8v-0.1v-2.8
				c0-2.3,1.8-4.2,4.1-4.2c2.2,0,4.1,1.9,4.1,4.2V63.7z M63.9,49.5L63.9,49.5c0,1.1-0.6,2.2-1.7,2.2h-2.4c-1.1,0-1.7-1.1-1.7-2.2v-0.1
				v-10v-0.1c0-1.1,0.7-2.1,1.7-2.1h2.4c1.1,0,1.7,1.1,1.7,2.2V49.5z"/>

			<path class="highlight" opacity=".75" fill="#F2F2F2" d="M61.2,28H38.8c-6,0-10.8,5-10.8,11.1v2C28,35,32.9,30,38.8,30h22.3c6,0,10.8,5,10.8,11.1v-2
				C72,33,67.1,28,61.2,28z"/>
			<path class="highlight" opacity=".75" fill="#F2F2F2" d="M45.9,65.8c0,1.1,0.9,1.8,2,1.8H50h2.1c1.1,0,2-0.5,2-1.6v-0.3V64c0,1.1-0.9,1.6-2,1.6H50h-2.1
				c-1.1,0-2-0.7-2-1.8V65.8L45.9,65.8z"/>
			<path class="highlight" opacity=".75" fill="#F2F2F2" d="M58.1,51.6c0,1.1,0.6,2.2,1.7,2.2h2.4c1.1,0,1.7-1.1,1.7-2.2v-0.1v-1.9c0,1.1-0.6,2.2-1.7,2.2h-2.4
				c-1.1,0-1.7-1.1-1.7-2.2V51.6L58.1,51.6z"/>
			<path class="highlight" opacity=".75" fill="#F2F2F2" d="M36.1,51.6c0,1.1,0.6,2.2,1.7,2.2h2.3c1.1,0,1.8-1.1,1.8-2.2v-0.1v-1.9c0,1.1-0.7,2.2-1.8,2.2h-2.3
				c-1.1,0-1.7-1.1-1.7-2.2V51.6L36.1,51.6z"/>
	</g>
</svg>