<svg xmlns="http://www.w3.org/2000/svg" width="48" height="48" viewBox="0 0 100 100"><title>outlet</title><g class="symbol energy static"><path class="outer" fill="#282828" d="M61.2 25H38.8C31.2 25 25 31.3 25 39.1V61c0 7.7 6.2 14 13.8 14h22.3C68.8 75 75 68.7 75 60.9V39.1C75 31.3 68.8 25 61.2 25z"/><path class="edging" opacity=".65" fill="#FFF" d="M61.2 25C68.8 25 75 31.3 75 39.1V61c0 7.7-6.2 14-13.8 14H38.8C31.2 75 25 68.7 25 60.9V39.1C25 31.3 31.2 25 38.8 25h22.4m0-2H38.8C30.1 23 23 30.2 23 39.1V61c0 8.8 7.1 16 15.8 16h22.3C69.9 77 77 69.8 77 60.9V39.1C77 30.2 69.9 23 61.2 23z"/><linearGradient id="a" gradientUnits="userSpaceOnUse" x1="50" y1="28" x2="50" y2="72"><stop offset="0" stop-color="#e6e6e6"/><stop offset="1" stop-color="#ccc"/></linearGradient><path fill="url(#a)" d="M61.2 28H38.8c-6 0-10.8 5-10.8 11.1V61c0 6 4.9 11 10.8 11h22.3c6 0 10.8-5 10.8-11.1V39.1C72 33 67.1 28 61.2 28zM41.9 49.5c0 1.1-.7 2.2-1.8 2.2h-2.3c-1.1 0-1.7-1.1-1.7-2.2V39.3c0-1.1.7-2.1 1.7-2.1h2.3c1.1 0 1.8 1.1 1.8 2.2v10.1zm12.2 14.2v.3c0 1.1-.9 1.6-2 1.6h-4.2c-1.1 0-2-.7-2-1.8v-2.9c0-2.3 1.8-4.2 4.1-4.2 2.2 0 4.1 1.9 4.1 4.2v2.8zm9.8-14.2c0 1.1-.6 2.2-1.7 2.2h-2.4c-1.1 0-1.7-1.1-1.7-2.2V39.3c0-1.1.7-2.1 1.7-2.1h2.4c1.1 0 1.7 1.1 1.7 2.2v10.1z"/><path class="highlight" opacity=".75" fill="#F2F2F2" d="M61.2 28H38.8c-6 0-10.8 5-10.8 11.1v2C28 35 32.9 30 38.8 30h22.3c6 0 10.8 5 10.8 11.1v-2C72 33 67.1 28 61.2 28zM45.9 65.8c0 1.1.9 1.8 2 1.8h4.2c1.1 0 2-.5 2-1.6v-2c0 1.1-.9 1.6-2 1.6h-4.2c-1.1 0-2-.7-2-1.8v2zm12.2-14.2c0 1.1.6 2.2 1.7 2.2h2.4c1.1 0 1.7-1.1 1.7-2.2v-2c0 1.1-.6 2.2-1.7 2.2h-2.4c-1.1 0-1.7-1.1-1.7-2.2v2zm-22 0c0 1.1.6 2.2 1.7 2.2h2.3c1.1 0 1.8-1.1 1.8-2.2v-2c0 1.1-.7 2.2-1.8 2.2h-2.3c-1.1 0-1.7-1.1-1.7-2.2v2z"/></g></svg>