<svg xmlns="http://www.w3.org/2000/svg" width="48" height="48" viewBox="0 0 100 100">
  <title>panel-door</title>
  <g id="panel-door" class="symbol load assembly">
			<rect id="bounding" width="100" height="100" fill="none"/>

			<path class="outer" d="M65,21.55H35a5,5,0,0,0-5,5v46a5,5,0,0,0,5,5H65a5,5,0,0,0,5-5v-46a5,5,0,0,0-5-5Z" fill="#282828"/>

			<path class="edging" opacity="0.65" d="M65,21.55a5,5,0,0,1,5,5v46a5,5,0,0,1-5,5H35a5,5,0,0,1-5-5v-46a5,5,0,0,1,5-5H65m0-2H35a7,7,0,0,0-7,7v46a7,7,0,0,0,7,7H65a7,7,0,0,0,7-7v-46a7,7,0,0,0-7-7Z" fill="#fff"/>

			<linearGradient id="panel-gradient" x1="50" y1="74.55" x2="50" y2="24.55" gradientUnits="userSpaceOnUse">
			  <stop offset="0" stop-color="#ccc"/>
			  <stop offset="1" stop-color="#e6e6e6"/>
			</linearGradient>

			<rect x="33" y="24.55" width="34" height="50" rx="2" ry="2" fill="url(#panel-gradient)"/>
			  

			<path fill="#333333" d="M60.5,52.5h-5c-1.1,0-2-0.9-2-2v-2c0-1.1,0.9-2,2-2h5c1.1,0,2,0.9,2,2v2C62.5,51.6,61.6,52.5,60.5,52.5z"/>
			<path fill="#282828" d="M60.3,51.5h-2.7c-0.6,0-1.2-0.5-1.2-1.2v-1.7c0-0.6,0.5-1.2,1.2-1.2h2.7c0.6,0,1.2,0.5,1.2,1.2v1.7
			C61.5,51,61,51.5,60.3,51.5z"/>
			<path class="highlight" fill="#ffffff" opacity="0.35" d="M60.5,52.5h-5c-1.1,0-2-0.9-2-2v1c0,1.1,0.9,2,2,2h5c1.1,0,2-0.9,2-2v-1C62.5,51.6,61.6,52.5,60.5,52.5z"/>

			 <path class="highlight" d="M65,24.55H35a2,2,0,0,0-2,2v1a2,2,0,0,1,2-2H65a2,2,0,0,1,2,2v-1A2,2,0,0,0,65,24.55Z" fill="#fff" opacity="0.35"/>
	</g>
</svg>