<svg xmlns="http://www.w3.org/2000/svg" width="48" height="48" viewBox="0 0 100 100"><title>panel</title><g class="symbol load assembly"><path fill="none" d="M0 0h100v100H0z"/><path class="outer" d="M65 21.55H35a5 5 0 0 0-5 5v46a5 5 0 0 0 5 5h30a5 5 0 0 0 5-5v-46a5 5 0 0 0-5-5z" fill="#282828"/><path class="edging" opacity=".65" d="M65 21.55a5 5 0 0 1 5 5v46a5 5 0 0 1-5 5H35a5 5 0 0 1-5-5v-46a5 5 0 0 1 5-5h30m0-2H35a7 7 0 0 0-7 7v46a7 7 0 0 0 7 7h30a7 7 0 0 0 7-7v-46a7 7 0 0 0-7-7z" fill="#fff"/><linearGradient id="a" x1="50" y1="74.55" x2="50" y2="24.55" gradientUnits="userSpaceOnUse"><stop offset="0" stop-color="#ccc"/><stop offset="1" stop-color="#e6e6e6"/></linearGradient><rect x="33" y="24.55" width="34" height="50" rx="2" ry="2" fill="url(#a)"/><rect x="35" y="42" width="9" height="28" rx="1" ry="1" fill="#f2f2f2"/><rect x="56" y="42" width="9" height="28" rx="1" ry="1" fill="#f2f2f2"/><rect x="40" y="42" width="9" height="28" rx="1" ry="1" fill="#333"/><rect x="44" y="29" width="12" height="6" rx="1" ry="1" fill="#0071bc"/><rect x="51" y="42" width="9" height="28" rx="1" ry="1" fill="#333"/><rect x="44" y="33" width="12" height="6" rx="1" ry="1" fill="#333"/><rect x="45" y="43" width="3" height="2" rx=".5" ry=".5" fill="#282828"/><rect x="45" y="46" width="3" height="2" rx=".5" ry=".5" fill="#282828"/><rect x="45" y="49" width="3" height="2" rx=".5" ry=".5" fill="#282828"/><rect x="45" y="52" width="3" height="2" rx=".5" ry=".5" fill="#282828"/><rect x="45" y="55" width="3" height="2" rx=".5" ry=".5" fill="#282828"/><rect x="45" y="58" width="3" height="2" rx=".5" ry=".5" fill="#282828"/><rect x="45" y="61" width="3" height="2" rx=".5" ry=".5" fill="#282828"/><rect x="45" y="64" width="3" height="2" rx=".5" ry=".5" fill="#282828"/><rect x="45" y="67" width="3" height="2" rx=".5" ry=".5" fill="#282828"/><rect x="41.5" y="43.5" width="2" height="1" rx=".29" ry=".29" fill="#e6e6e6"/><rect x="41.5" y="46.5" width="2" height="1" rx=".29" ry=".29" fill="#e6e6e6"/><rect x="41.5" y="49.5" width="2" height="1" rx=".29" ry=".29" fill="#e6e6e6"/><rect x="41.5" y="52.5" width="2" height="1" rx=".29" ry=".29" fill="#e6e6e6"/><rect x="41.5" y="55.5" width="2" height="1" rx=".29" ry=".29" fill="#e6e6e6"/><rect x="41.5" y="58.5" width="2" height="1" rx=".29" ry=".29" fill="#e6e6e6"/><rect x="41.5" y="61.5" width="2" height="1" rx=".29" ry=".29" fill="#e6e6e6"/><rect x="41.5" y="64.5" width="2" height="1" rx=".29" ry=".29" fill="#e6e6e6"/><rect x="41.5" y="67.5" width="2" height="1" rx=".29" ry=".29" fill="#e6e6e6"/><rect x="36.5" y="43.5" width="2" height="1" rx=".29" ry=".29" fill="#333" opacity=".6"/><rect x="36.5" y="46.5" width="2" height="1" rx=".29" ry=".29" fill="#333" opacity=".6"/><rect x="36.5" y="49.5" width="2" height="1" rx=".29" ry=".29" fill="#333" opacity=".6"/><rect x="36.5" y="52.5" width="2" height="1" rx=".29" ry=".29" fill="#333" opacity=".6"/><rect x="36.5" y="55.5" width="2" height="1" rx=".29" ry=".29" fill="#333" opacity=".6"/><rect x="36.5" y="58.5" width="2" height="1" rx=".29" ry=".29" fill="#333" opacity=".6"/><rect x="36.5" y="61.5" width="2" height="1" rx=".29" ry=".29" fill="#333" opacity=".6"/><rect x="36.5" y="64.5" width="2" height="1" rx=".29" ry=".29" fill="#333" opacity=".6"/><rect x="36.5" y="67.5" width="2" height="1" rx=".29" ry=".29" fill="#333" opacity=".6"/><rect x="52" y="43" width="3" height="2" rx=".5" ry=".5" fill="#282828"/><rect x="52" y="46" width="3" height="2" rx=".5" ry=".5" fill="#282828"/><rect x="52" y="49" width="3" height="2" rx=".5" ry=".5" fill="#282828"/><rect x="52" y="52" width="3" height="2" rx=".5" ry=".5" fill="#282828"/><rect x="52" y="55" width="3" height="2" rx=".5" ry=".5" fill="#282828"/><rect x="52" y="58" width="3" height="2" rx=".5" ry=".5" fill="#282828"/><rect x="52" y="61" width="3" height="2" rx=".5" ry=".5" fill="#282828"/><rect x="52" y="64" width="3" height="2" rx=".5" ry=".5" fill="#282828"/><rect x="52" y="67" width="3" height="2" rx=".5" ry=".5" fill="#282828"/><rect x="56.5" y="43.5" width="2" height="1" rx=".29" ry=".29" fill="#e6e6e6"/><rect x="56.5" y="46.5" width="2" height="1" rx=".29" ry=".29" fill="#e6e6e6"/><rect x="56.5" y="49.5" width="2" height="1" rx=".29" ry=".29" fill="#e6e6e6"/><rect x="56.5" y="52.5" width="2" height="1" rx=".29" ry=".29" fill="#e6e6e6"/><rect x="56.5" y="55.5" width="2" height="1" rx=".29" ry=".29" fill="#e6e6e6"/><rect x="56.5" y="58.5" width="2" height="1" rx=".29" ry=".29" fill="#e6e6e6"/><rect x="56.5" y="61.5" width="2" height="1" rx=".29" ry=".29" fill="#e6e6e6"/><rect x="56.5" y="64.5" width="2" height="1" rx=".29" ry=".29" fill="#e6e6e6"/><rect x="56.5" y="67.5" width="2" height="1" rx=".29" ry=".29" fill="#e6e6e6"/><rect x="61.5" y="43.5" width="2" height="1" rx=".29" ry=".29" fill="#333" opacity=".5"/><rect x="61.5" y="46.5" width="2" height="1" rx=".29" ry=".29" fill="#333" opacity=".5"/><rect x="61.5" y="49.5" width="2" height="1" rx=".29" ry=".29" fill="#333" opacity=".5"/><rect x="61.5" y="52.5" width="2" height="1" rx=".29" ry=".29" fill="#333" opacity=".5"/><rect x="61.5" y="55.5" width="2" height="1" rx=".29" ry=".29" fill="#333" opacity=".5"/><rect x="61.5" y="58.5" width="2" height="1" rx=".29" ry=".29" fill="#333" opacity=".5"/><rect x="61.5" y="61.5" width="2" height="1" rx=".29" ry=".29" fill="#333" opacity=".5"/><rect x="61.5" y="64.5" width="2" height="1" rx=".29" ry=".29" fill="#333" opacity=".5"/><rect x="61.5" y="67.5" width="2" height="1" rx=".29" ry=".29" fill="#333" opacity=".5"/><rect x="51" y="35" width="3" height="2" rx=".5" ry=".5" transform="rotate(180 52.5 36)" fill="#282828"/><path d="M54.84 32h-9.68l-.16-.16v-.68l.16-.16h9.68l.16.16v.68z" fill="#e6e6e6" opacity=".5"/><path class="highlight" d="M65 24.55H35a2 2 0 0 0-2 2v1a2 2 0 0 1 2-2h30a2 2 0 0 1 2 2v-1a2 2 0 0 0-2-2z" fill="#fff" opacity=".35"/></g></svg>