<svg xmlns="http://www.w3.org/2000/svg" width="48" height="48" viewBox="0 0 100 100"><title>panel-door</title><g class="symbol load assembly"><path fill="none" d="M0 0h100v100H0z"/><path class="outer" d="M65 21.55H35a5 5 0 0 0-5 5v46a5 5 0 0 0 5 5h30a5 5 0 0 0 5-5v-46a5 5 0 0 0-5-5z" fill="#282828"/><path class="edging" opacity=".65" d="M65 21.55a5 5 0 0 1 5 5v46a5 5 0 0 1-5 5H35a5 5 0 0 1-5-5v-46a5 5 0 0 1 5-5h30m0-2H35a7 7 0 0 0-7 7v46a7 7 0 0 0 7 7h30a7 7 0 0 0 7-7v-46a7 7 0 0 0-7-7z" fill="#fff"/><linearGradient id="a" x1="50" y1="74.55" x2="50" y2="24.55" gradientUnits="userSpaceOnUse"><stop offset="0" stop-color="#ccc"/><stop offset="1" stop-color="#e6e6e6"/></linearGradient><rect x="33" y="24.55" width="34" height="50" rx="2" ry="2" fill="url(#a)"/><path fill="#333" d="M60.5 52.5h-5c-1.1 0-2-.9-2-2v-2c0-1.1.9-2 2-2h5c1.1 0 2 .9 2 2v2c0 1.1-.9 2-2 2z"/><path fill="#282828" d="M60.3 51.5h-2.7c-.6 0-1.2-.5-1.2-1.2v-1.7c0-.6.5-1.2 1.2-1.2h2.7c.6 0 1.2.5 1.2 1.2v1.7c0 .7-.5 1.2-1.2 1.2z"/><path class="highlight" fill="#fff" opacity=".35" d="M60.5 52.5h-5c-1.1 0-2-.9-2-2v1c0 1.1.9 2 2 2h5c1.1 0 2-.9 2-2v-1c0 1.1-.9 2-2 2zM65 24.55H35a2 2 0 0 0-2 2v1a2 2 0 0 1 2-2h30a2 2 0 0 1 2 2v-1a2 2 0 0 0-2-2z"/></g></svg>