<svg xmlns="http://www.w3.org/2000/svg" width="48" height="48" viewBox="0 0 100 100"><title>placeholder-square</title><g class="symbol placeholder simple"><path fill="none" d="M0 0h100v100H0z"/><path class="inner-white" opacity=".35" fill="#fff" d="M13 13h74v74H13z"/><path class="outer" d="M87 80.5a1.5 1.5 0 0 0-1.5 1.5v3.5H82a1.5 1.5 0 0 0 0 3h5a1.5 1.5 0 0 0 1.5-1.5v-5a1.5 1.5 0 0 0-1.5-1.5zm-32.43 5h-9.14a1.5 1.5 0 0 0 0 3h9.14a1.5 1.5 0 0 0 0-3zm-18.28 0h-9.15a1.5 1.5 0 0 0 0 3h9.15a1.5 1.5 0 0 0 0-3zm36.57 0h-9.15a1.5 1.5 0 0 0 0 3h9.15a1.5 1.5 0 1 0 0-3zM18 85.5h-3.5V82a1.5 1.5 0 0 0-3 0v5a1.5 1.5 0 0 0 1.5 1.5h5a1.5 1.5 0 0 0 0-3zm-5-29.43a1.5 1.5 0 0 0 1.5-1.5v-9.14a1.5 1.5 0 0 0-3 0v9.14a1.5 1.5 0 0 0 1.5 1.5zm0-18.28a1.5 1.5 0 0 0 1.5-1.5v-9.15a1.5 1.5 0 0 0-3 0v9.15a1.5 1.5 0 0 0 1.5 1.5zm0 36.57a1.5 1.5 0 0 0 1.5-1.5v-9.15a1.5 1.5 0 0 0-3 0v9.15a1.5 1.5 0 0 0 1.5 1.5zm5-62.86h-5a1.5 1.5 0 0 0-1.5 1.5v5a1.5 1.5 0 0 0 3 0v-3.5H18a1.5 1.5 0 0 0 0-3zm9.14 3h9.15a1.5 1.5 0 0 0 0-3h-9.15a1.5 1.5 0 0 0 0 3zm36.57 0h9.15a1.5 1.5 0 0 0 0-3h-9.15a1.5 1.5 0 0 0 0 3zm-9.14-3h-9.14a1.5 1.5 0 0 0 0 3h9.14a1.5 1.5 0 0 0 0-3zm32.43 0h-5a1.5 1.5 0 0 0 0 3h3.5V18a1.5 1.5 0 0 0 3 0v-5a1.5 1.5 0 0 0-1.5-1.5zm0 32.43a1.5 1.5 0 0 0-1.5 1.5v9.14a1.5 1.5 0 0 0 3 0v-9.14a1.5 1.5 0 0 0-1.5-1.5zm0 18.28a1.5 1.5 0 0 0-1.5 1.5v9.15a1.5 1.5 0 1 0 3 0v-9.15a1.5 1.5 0 0 0-1.5-1.5zm0-36.57a1.5 1.5 0 0 0-1.5 1.5v9.15a1.5 1.5 0 0 0 3 0v-9.15a1.5 1.5 0 0 0-1.5-1.5z" fill="#282828"/><path class="edging" opacity=".65" d="M87 11.5a1.5 1.5 0 0 1 1.5 1.5v5a1.5 1.5 0 0 1-3 0v-3.5H82a1.5 1.5 0 0 1 0-3h5m-14.14 0a1.5 1.5 0 0 1 0 3h-9.15a1.5 1.5 0 0 1 0-3h9.15m-18.29 0a1.5 1.5 0 0 1 0 3h-9.14a1.5 1.5 0 0 1 0-3h9.14m-18.28 0a1.5 1.5 0 0 1 0 3h-9.15a1.5 1.5 0 0 1 0-3h9.15M18 11.5a1.5 1.5 0 0 1 0 3h-3.5V18a1.5 1.5 0 0 1-3 0v-5a1.5 1.5 0 0 1 1.5-1.5h5m-5 14.14a1.5 1.5 0 0 1 1.5 1.5v9.15a1.5 1.5 0 0 1-3 0v-9.15a1.5 1.5 0 0 1 1.5-1.5m74 0a1.5 1.5 0 0 1 1.5 1.5v9.15a1.5 1.5 0 0 1-3 0v-9.15a1.5 1.5 0 0 1 1.5-1.5M13 43.93a1.5 1.5 0 0 1 1.5 1.5v9.14a1.5 1.5 0 0 1-3 0v-9.14a1.5 1.5 0 0 1 1.5-1.5m74 0a1.5 1.5 0 0 1 1.5 1.5v9.14a1.5 1.5 0 0 1-3 0v-9.14a1.5 1.5 0 0 1 1.5-1.5M13 62.21a1.5 1.5 0 0 1 1.5 1.5v9.15a1.5 1.5 0 0 1-3 0v-9.15a1.5 1.5 0 0 1 1.5-1.5m74 0a1.5 1.5 0 0 1 1.5 1.5v9.15a1.5 1.5 0 1 1-3 0v-9.15a1.5 1.5 0 0 1 1.5-1.5m0 18.29a1.5 1.5 0 0 1 1.5 1.5v5a1.5 1.5 0 0 1-1.5 1.5h-5a1.5 1.5 0 0 1 0-3h3.5V82a1.5 1.5 0 0 1 1.5-1.5m-74 0a1.5 1.5 0 0 1 1.5 1.5v3.5H18a1.5 1.5 0 0 1 0 3h-5a1.5 1.5 0 0 1-1.5-1.5v-5a1.5 1.5 0 0 1 1.5-1.5m59.86 5a1.5 1.5 0 1 1 0 3h-9.15a1.5 1.5 0 0 1 0-3h9.15m-18.29 0a1.5 1.5 0 0 1 0 3h-9.14a1.5 1.5 0 0 1 0-3h9.14m-18.28 0a1.5 1.5 0 0 1 0 3h-9.15a1.5 1.5 0 0 1 0-3h9.15M87 9.5h-5a3.5 3.5 0 0 0 0 7h1.5V18a3.5 3.5 0 0 0 7 0v-5A3.5 3.5 0 0 0 87 9.5zm-14.14 0h-9.15a3.5 3.5 0 0 0 0 7h9.15a3.5 3.5 0 0 0 0-7zm-18.29 0h-9.14a3.5 3.5 0 0 0 0 7h9.14a3.5 3.5 0 0 0 0-7zm-18.28 0h-9.15a3.5 3.5 0 0 0 0 7h9.15a3.5 3.5 0 0 0 0-7zM18 9.5h-5A3.5 3.5 0 0 0 9.5 13v5a3.5 3.5 0 0 0 7 0v-1.5H18a3.5 3.5 0 0 0 0-7zm-5 14.14a3.5 3.5 0 0 0-3.5 3.5v9.15a3.5 3.5 0 0 0 7 0v-9.15a3.5 3.5 0 0 0-3.5-3.5zm74 0a3.5 3.5 0 0 0-3.5 3.5v9.15a3.5 3.5 0 0 0 7 0v-9.15a3.5 3.5 0 0 0-3.5-3.5zM13 41.93a3.5 3.5 0 0 0-3.5 3.5v9.14a3.5 3.5 0 0 0 7 0v-9.14a3.5 3.5 0 0 0-3.5-3.5zm74 0a3.5 3.5 0 0 0-3.5 3.5v9.14a3.5 3.5 0 0 0 7 0v-9.14a3.5 3.5 0 0 0-3.5-3.5zM13 60.21a3.5 3.5 0 0 0-3.5 3.5v9.15a3.5 3.5 0 0 0 7 0v-9.15a3.5 3.5 0 0 0-3.5-3.5zm74 0a3.5 3.5 0 0 0-3.5 3.5v9.15a3.5 3.5 0 1 0 7 0v-9.15a3.5 3.5 0 0 0-3.5-3.5zm0 18.29a3.5 3.5 0 0 0-3.5 3.5v1.5H82a3.5 3.5 0 0 0 0 7h5a3.5 3.5 0 0 0 3.5-3.5v-5a3.5 3.5 0 0 0-3.5-3.5zm-74 0A3.5 3.5 0 0 0 9.5 82v5a3.5 3.5 0 0 0 3.5 3.5h5a3.5 3.5 0 0 0 0-7h-1.5V82a3.5 3.5 0 0 0-3.5-3.5zm59.86 5h-9.15a3.5 3.5 0 0 0 0 7h9.15a3.5 3.5 0 1 0 0-7zm-18.29 0h-9.14a3.5 3.5 0 0 0 0 7h9.14a3.5 3.5 0 0 0 0-7zm-18.28 0h-9.15a3.5 3.5 0 0 0 0 7h9.15a3.5 3.5 0 0 0 0-7z" fill="#fff"/></g></svg>