<svg xmlns="http://www.w3.org/2000/svg" width="48" height="48" viewBox="0 0 100 100">
  <title>potential-transformer</title>
  <g id="potential-transformer" class="symbol simple">
			<g id="bound">
				<rect class="" x="0" y="0" width="100" height="100" opacity="0"/>
			</g>

			<g id="top">
				<path class="outer" fill="#282828" d="M70,63.3c0,1.4-1.5,2.4-2.8,1.8c-1.5-0.6-1.1-2.2-1.4-3.4c-0.7-2.6-3-4.5-5.7-5c-2.7-0.4-5.6,0.7-7.1,3.1
					c-0.8,1.2-0.9,2.4-1.1,3.8c-0.2,1.5-1.9,2.2-3.2,1.3c-1.2-0.9-0.8-2.7-1.3-4c-0.6-1.4-1.6-2.5-2.9-3.3c-2.8-1.6-6.5-1.2-8.8,1.1
					c-1,1.1-1.7,2.4-1.9,3.9c-0.1,1.3-0.6,2.8-2.3,2.6c-3.5-0.5-1-6.2,0.1-7.8c4.3-6.3,13.7-6.3,18.2-0.3c2.9-4,8.3-5.5,12.9-3.8
					C67,54.9,70,58.9,70,63.3z"/>
				<path class="edging" opacity="0.65" fill="#FFFFFF" d="M59.1,52.7c1.3,0,2.6,0.2,3.8,0.7c4.1,1.5,7.1,5.5,7.1,9.9c0,1.1-1,2-2,2c-0.3,0-0.5,0-0.8-0.2
					c-1.5-0.6-1.1-2.2-1.4-3.4c-0.7-2.6-3-4.5-5.7-5c-0.4-0.1-0.7-0.1-1.1-0.1c-2.4,0-4.7,1.1-6,3.1c-0.8,1.2-0.9,2.4-1.1,3.8
					c-0.2,1-1.1,1.7-2,1.7c-0.4,0-0.8-0.1-1.1-0.4c-1.2-0.9-0.8-2.7-1.3-4c-0.6-1.4-1.6-2.5-2.9-3.3c-1.1-0.7-2.4-1-3.7-1
					c-1.9,0-3.8,0.7-5.1,2.1c-1,1.1-1.7,2.4-1.9,3.9c-0.1,1.2-0.5,2.6-2,2.6c-0.1,0-0.2,0-0.3,0c-3.5-0.5-1-6.2,0.1-7.8
					c2.2-3.2,5.6-4.7,9.1-4.7c3.4,0,6.8,1.5,9.1,4.5C52.1,54.3,55.6,52.7,59.1,52.7 M59.1,50.7L59.1,50.7c-3.4,0-6.7,1.3-9.1,3.5
					c-2.4-2.2-5.7-3.5-9-3.5c-4.4,0-8.4,2.1-10.8,5.6C29.4,57.4,27,62,28.3,65c0.6,1.3,1.7,2.1,3.1,2.3c0.2,0,0.4,0,0.6,0
					c1.1,0,3.6-0.4,3.9-4.4c0.1-1,0.6-2,1.3-2.7c0.9-0.9,2.3-1.5,3.7-1.5c1,0,1.9,0.2,2.7,0.7c0.9,0.5,1.6,1.4,2,2.3
					c0.1,0.2,0.1,0.6,0.2,1c0.1,1.1,0.3,2.8,1.8,3.8c0.7,0.5,1.5,0.8,2.3,0.8c2,0,3.7-1.5,4-3.4c0-0.2,0.1-0.4,0.1-0.7
					c0.2-1.1,0.3-1.7,0.7-2.3c0.9-1.4,2.6-2.2,4.3-2.2c0.3,0,0.5,0,0.8,0.1c2,0.3,3.6,1.7,4,3.5c0.1,0.2,0.1,0.5,0.1,0.8
					c0.1,1.1,0.3,3.1,2.5,4c0.5,0.2,1,0.3,1.5,0.3c2.2,0,4-1.8,4-4c0-5.2-3.4-10-8.4-11.8C62.1,51,60.6,50.7,59.1,50.7L59.1,50.7z"/>
			</g>
			<g id="bottom">
				<path class="outer" fill="#282828" d="M70,37.7c0-1.4-1.5-2.4-2.8-1.8c-1.5,0.6-1.1,2.2-1.4,3.4c-0.7,2.6-3,4.5-5.7,5c-2.7,0.4-5.6-0.7-7.1-3.1
					c-0.8-1.2-0.9-2.4-1.1-3.8c-0.2-1.5-1.9-2.2-3.2-1.3c-1.2,0.9-0.8,2.7-1.3,4c-0.6,1.4-1.6,2.5-2.9,3.3c-2.8,1.6-6.5,1.2-8.8-1.1
					c-1-1.1-1.7-2.4-1.9-3.9c-0.1-1.3-0.6-2.8-2.3-2.6c-3.5,0.5-1,6.2,0.1,7.8c4.3,6.3,13.7,6.3,18.2,0.3c2.9,4,8.3,5.5,12.9,3.8
					C67,46.1,70,42.1,70,37.7z"/>
				
				<path class="edging" opacity="0.65" fill="#FFFFFF" d="M32.1,35.7c1.4,0,1.8,1.4,2,2.6c0.1,1.5,0.8,2.9,1.9,3.9c1.4,1.4,3.2,2.1,5.1,2.1c1.3,0,2.6-0.3,3.7-1
					c1.3-0.7,2.3-1.9,2.9-3.3c0.5-1.2,0.1-3.1,1.3-4c0.4-0.3,0.8-0.4,1.1-0.4c0.9,0,1.9,0.7,2,1.7c0.2,1.4,0.3,2.5,1.1,3.8
					c1.3,2,3.6,3.1,6,3.1c0.4,0,0.7,0,1.1-0.1c2.6-0.4,5-2.3,5.7-5c0.3-1.3,0-2.8,1.4-3.4c0.2-0.1,0.5-0.2,0.8-0.2c1.1,0,2,0.9,2,2
					c0,4.4-3,8.4-7.1,9.9c-1.2,0.5-2.5,0.7-3.8,0.7c-3.5,0-6.9-1.6-9.1-4.5c-2.2,3-5.6,4.5-9.1,4.5c-3.5,0-7-1.6-9.1-4.7
					c-1.1-1.6-3.6-7.3-0.1-7.8C31.8,35.7,32,35.7,32.1,35.7 M32.1,33.7L32.1,33.7c-0.2,0-0.4,0-0.6,0c-1.5,0.2-2.6,1-3.1,2.3
					c-1.3,3,1.1,7.6,1.8,8.7c2.4,3.5,6.4,5.6,10.8,5.6c3.4,0,6.6-1.3,9-3.5c2.4,2.2,5.7,3.5,9.1,3.5c1.6,0,3.1-0.3,4.5-0.8
					c5-1.9,8.4-6.6,8.4-11.8c0-2.2-1.8-4-4-4c-0.5,0-1,0.1-1.5,0.3c-2.2,0.9-2.4,2.9-2.5,4c0,0.3-0.1,0.6-0.1,0.8
					c-0.5,1.8-2.1,3.2-4,3.5c-0.3,0-0.5,0.1-0.8,0.1c-1.8,0-3.4-0.9-4.3-2.2c-0.4-0.6-0.5-1.2-0.7-2.3c0-0.2-0.1-0.4-0.1-0.7
					c-0.3-1.9-2-3.4-4-3.4c-0.8,0-1.6,0.3-2.3,0.8c-1.5,1.1-1.7,2.7-1.8,3.8c0,0.4-0.1,0.8-0.2,1c-0.4,0.9-1.1,1.8-2,2.3
					C42.9,42,42,42.3,41,42.3c-1.4,0-2.8-0.5-3.7-1.5c-0.7-0.7-1.2-1.7-1.3-2.7C35.6,34.1,33.1,33.7,32.1,33.7L32.1,33.7z"/>

			</g>
	</g>
</svg>

		