<svg xmlns="http://www.w3.org/2000/svg" width="48" height="48" viewBox="0 0 100 100"><title>potential-transformer</title><g class="symbol simple"><path class="outer" fill="#282828" d="M70 63.3c0 1.4-1.5 2.4-2.8 1.8-1.5-.6-1.1-2.2-1.4-3.4-.7-2.6-3-4.5-5.7-5-2.7-.4-5.6.7-7.1 3.1-.8 1.2-.9 2.4-1.1 3.8-.2 1.5-1.9 2.2-3.2 1.3-1.2-.9-.8-2.7-1.3-4-.6-1.4-1.6-2.5-2.9-3.3-2.8-1.6-6.5-1.2-8.8 1.1-1 1.1-1.7 2.4-1.9 3.9-.1 1.3-.6 2.8-2.3 2.6-3.5-.5-1-6.2.1-7.8 4.3-6.3 13.7-6.3 18.2-.3 2.9-4 8.3-5.5 12.9-3.8 4.3 1.6 7.3 5.6 7.3 10z"/><path class="edging" opacity=".65" fill="#FFF" d="M59.1 52.7c1.3 0 2.6.2 3.8.7 4.1 1.5 7.1 5.5 7.1 9.9 0 1.1-1 2-2 2-.3 0-.5 0-.8-.2-1.5-.6-1.1-2.2-1.4-3.4-.7-2.6-3-4.5-5.7-5-.4-.1-.7-.1-1.1-.1-2.4 0-4.7 1.1-6 3.1-.8 1.2-.9 2.4-1.1 3.8-.2 1-1.1 1.7-2 1.7-.4 0-.8-.1-1.1-.4-1.2-.9-.8-2.7-1.3-4-.6-1.4-1.6-2.5-2.9-3.3-1.1-.7-2.4-1-3.7-1-1.9 0-3.8.7-5.1 2.1-1 1.1-1.7 2.4-1.9 3.9-.1 1.2-.5 2.6-2 2.6h-.3c-3.5-.5-1-6.2.1-7.8 2.2-3.2 5.6-4.7 9.1-4.7 3.4 0 6.8 1.5 9.1 4.5 2.2-2.8 5.7-4.4 9.2-4.4m0-2c-3.4 0-6.7 1.3-9.1 3.5-2.4-2.2-5.7-3.5-9-3.5-4.4 0-8.4 2.1-10.8 5.6-.8 1.1-3.2 5.7-1.9 8.7.6 1.3 1.7 2.1 3.1 2.3h.6c1.1 0 3.6-.4 3.9-4.4.1-1 .6-2 1.3-2.7.9-.9 2.3-1.5 3.7-1.5 1 0 1.9.2 2.7.7.9.5 1.6 1.4 2 2.3.1.2.1.6.2 1 .1 1.1.3 2.8 1.8 3.8.7.5 1.5.8 2.3.8 2 0 3.7-1.5 4-3.4 0-.2.1-.4.1-.7.2-1.1.3-1.7.7-2.3.9-1.4 2.6-2.2 4.3-2.2.3 0 .5 0 .8.1 2 .3 3.6 1.7 4 3.5.1.2.1.5.1.8.1 1.1.3 3.1 2.5 4 .5.2 1 .3 1.5.3 2.2 0 4-1.8 4-4 0-5.2-3.4-10-8.4-11.8-1.4-.6-2.9-.9-4.4-.9z"/><path class="outer" fill="#282828" d="M70 37.7c0-1.4-1.5-2.4-2.8-1.8-1.5.6-1.1 2.2-1.4 3.4-.7 2.6-3 4.5-5.7 5-2.7.4-5.6-.7-7.1-3.1-.8-1.2-.9-2.4-1.1-3.8-.2-1.5-1.9-2.2-3.2-1.3-1.2.9-.8 2.7-1.3 4-.6 1.4-1.6 2.5-2.9 3.3-2.8 1.6-6.5 1.2-8.8-1.1-1-1.1-1.7-2.4-1.9-3.9-.1-1.3-.6-2.8-2.3-2.6-3.5.5-1 6.2.1 7.8 4.3 6.3 13.7 6.3 18.2.3 2.9 4 8.3 5.5 12.9 3.8 4.3-1.6 7.3-5.6 7.3-10z"/><path class="edging" opacity=".65" fill="#FFF" d="M32.1 35.7c1.4 0 1.8 1.4 2 2.6.1 1.5.8 2.9 1.9 3.9 1.4 1.4 3.2 2.1 5.1 2.1 1.3 0 2.6-.3 3.7-1 1.3-.7 2.3-1.9 2.9-3.3.5-1.2.1-3.1 1.3-4 .4-.3.8-.4 1.1-.4.9 0 1.9.7 2 1.7.2 1.4.3 2.5 1.1 3.8 1.3 2 3.6 3.1 6 3.1.4 0 .7 0 1.1-.1 2.6-.4 5-2.3 5.7-5 .3-1.3 0-2.8 1.4-3.4.2-.1.5-.2.8-.2 1.1 0 2 .9 2 2 0 4.4-3 8.4-7.1 9.9-1.2.5-2.5.7-3.8.7-3.5 0-6.9-1.6-9.1-4.5-2.2 3-5.6 4.5-9.1 4.5s-7-1.6-9.1-4.7c-1.1-1.6-3.6-7.3-.1-7.8-.1.1.1.1.2.1m0-2h-.6c-1.5.2-2.6 1-3.1 2.3-1.3 3 1.1 7.6 1.8 8.7 2.4 3.5 6.4 5.6 10.8 5.6 3.4 0 6.6-1.3 9-3.5 2.4 2.2 5.7 3.5 9.1 3.5 1.6 0 3.1-.3 4.5-.8 5-1.9 8.4-6.6 8.4-11.8 0-2.2-1.8-4-4-4-.5 0-1 .1-1.5.3-2.2.9-2.4 2.9-2.5 4 0 .3-.1.6-.1.8-.5 1.8-2.1 3.2-4 3.5-.3 0-.5.1-.8.1-1.8 0-3.4-.9-4.3-2.2-.4-.6-.5-1.2-.7-2.3 0-.2-.1-.4-.1-.7-.3-1.9-2-3.4-4-3.4-.8 0-1.6.3-2.3.8-1.5 1.1-1.7 2.7-1.8 3.8 0 .4-.1.8-.2 1-.4.9-1.1 1.8-2 2.3-.8.3-1.7.6-2.7.6-1.4 0-2.8-.5-3.7-1.5-.7-.7-1.2-1.7-1.3-2.7-.4-4-2.9-4.4-3.9-4.4z"/></g></svg>