<svg xmlns="http://www.w3.org/2000/svg" width="48" height="48" viewBox="0 0 100 100"><title>ppe</title><g class="symbol indicator"><path class="bound" fill="none" d="M0 0h100v100H0z"/><path class="edging" opacity=".65" fill="#FFF" d="M59.5 64.4h-18c-2.1 0-4.1-1.1-5.2-2.9-1.1-1.9-1.1-4.2-.1-6l9-15.8c1.1-1.9 3.1-3 5.2-3 2.2 0 4.2 1.2 5.2 3l9 15.7c1.1 1.9 1 4.2 0 6-1 1.9-3 3-5.1 3zm-9-22.9c-.4 0-.8.2-1 .6l-9 15.8c-.2.3-.2.8 0 1.1.2.3.6.5 1 .5h18c.4 0 .8-.2 1-.5.2-.3.2-.8 0-1.1l-9-15.8c-.2-.4-.6-.6-1-.6z"/><path class="outer" fill="#282828" d="M62.6 56.6l-9-15.8c-.6-1.1-1.8-1.8-3.1-1.8s-2.5.7-3.1 1.8l-9 15.8c-.6 1.1-.6 2.5 0 3.6s1.8 1.7 3.1 1.7h18c1.3 0 2.4-.7 3.1-1.8.6-1 .6-2.4 0-3.5z"/><path class="inner" fill="#E5E5E5" d="M60.1 58l-9-15.8c-.1-.2-.4-.4-.6-.4-.3 0-.5.1-.6.4l-9 15.8c-.1.2-.1.5 0 .7.1.2.4.3.6.3h18c.2 0 .5-.1.6-.3.1-.2.1-.4 0-.7zm-8.7-11.8c-.7 1.9-1.3 3.6-1.9 5.5l4.1-1.8c-.7 1.9-1.4 3.8-2.2 5.7.3 0 .5.1 1 .1-.7.8-1.3 1.5-2 2.3-.3-1-.5-1.8-.8-2.7h.8c.1-.8.2-1.6.4-2.5-1.1.6-2.1 1.1-3.4 1.8.2-1.2.4-2.2.6-3.2l1-5 2.4-.2z"/><path fill="#FFF" d="M41 58.8l8.9-15.5c.1-.2.4-.4.6-.4.3 0 .5.1.6.4L60 58.8l.1-.1c.1-.2.1-.5 0-.7l-9-15.8c-.1-.2-.4-.4-.6-.4-.3 0-.5.1-.6.4l-9 15.8c-.1.2-.1.5 0 .7 0 .1.1.1.1.1z" class="highlight" opacity=".35"/><path d="M51.1 47.3c-.5 1.5-1 3-1.6 4.5l.4-.2c.5-1.5 1-2.9 1.5-4.4l-.3.1zm.3 8.4h.4l1.8-4.8-.5.2c-.5 1.6-1.1 3.1-1.7 4.6zm-.6-2.8l-3.2 1.6c-.1.3-.1.7-.2 1.1 1.2-.6 2.2-1.1 3.2-1.7.1-.3.1-.6.2-1zm-.4 5.2c-.2-.6-.3-1.2-.5-1.7h-.3c.3.9.5 1.8.8 2.7.7-.8 1.3-1.5 2-2.3-.4-.1-.6-.1-.8-.1-.4.5-.8 1-1.2 1.4z" class="highlight" opacity=".4" fill="#FFF"/></g></svg>