<svg xmlns="http://www.w3.org/2000/svg" width="48" height="48" viewBox="0 0 100 100">
  <title>ppe</title>
  <g id="ppe" class="symbol indicator">
			<rect class="bound" fill="none" width="100" height="100"/>

			<path class="edging" opacity="0.65" fill="#FFFFFF" d="M59.5,64.4h-18c-2.1,0-4.1-1.1-5.2-2.9c-1.1-1.9-1.1-4.2-0.1-6l9-15.8c1.1-1.9,3.1-3,5.2-3
				c2.2,0,4.2,1.2,5.2,3l9,15.7c1.1,1.9,1,4.2,0,6C63.6,63.3,61.6,64.4,59.5,64.4z M50.5,41.5c-0.4,0-0.8,0.2-1,0.6l-9,15.8
				c-0.2,0.3-0.2,0.8,0,1.1c0.2,0.3,0.6,0.5,1,0.5h18c0.4,0,0.8-0.2,1-0.5c0.2-0.3,0.2-0.8,0-1.1l-9-15.8
				C51.3,41.7,50.9,41.5,50.5,41.5z"/>

			<path class="outer" fill="#282828" d="M62.6,56.6l-9-15.8c-0.6-1.1-1.8-1.8-3.1-1.8c-1.3,0-2.5,0.7-3.1,1.8l-9,15.8c-0.6,1.1-0.6,2.5,0,3.6
				c0.6,1.1,1.8,1.7,3.1,1.7h18c1.3,0,2.4-0.7,3.1-1.8C63.2,59.1,63.2,57.7,62.6,56.6z"/>

			<path class="inner" fill="rgb(229,229,229)" d="M60.1,58l-9-15.8c-0.1-0.2-0.4-0.4-0.6-0.4c-0.3,0-0.5,0.1-0.6,0.4l-9,15.8c-0.1,0.2-0.1,0.5,0,0.7
				c0.1,0.2,0.4,0.3,0.6,0.3h18c0.2,0,0.5-0.1,0.6-0.3C60.2,58.5,60.2,58.3,60.1,58z M51.4,46.2c-0.7,1.9-1.3,3.6-1.9,5.5l4.1-1.8
				c-0.7,1.9-1.4,3.8-2.2,5.7c0.3,0,0.5,0.1,1,0.1c-0.7,0.8-1.3,1.5-2,2.3c-0.3-1-0.5-1.8-0.8-2.7c0.3,0,0.6,0,0.8,0
				c0.1-0.8,0.2-1.6,0.4-2.5c-1.1,0.6-2.1,1.1-3.4,1.8c0.2-1.2,0.4-2.2,0.6-3.2c0.3-1.5,0.7-3.5,1-5L51.4,46.2z"/>
			
			<g class="highlight" opacity="0.35">
				<path fill="#FFFFFF" d="M41,58.8l8.9-15.5c0.1-0.2,0.4-0.4,0.6-0.4c0.3,0,0.5,0.1,0.6,0.4L60,58.8c0,0,0.1-0.1,0.1-0.1
					c0.1-0.2,0.1-0.5,0-0.7l-9-15.8c-0.1-0.2-0.4-0.4-0.6-0.4c-0.3,0-0.5,0.1-0.6,0.4l-9,15.8c-0.1,0.2-0.1,0.5,0,0.7
					C40.9,58.8,41,58.8,41,58.8z"/>
			</g>

			<g class="highlight" opacity="0.4">
				<path fill="#FFFFFF" d="M51.1,47.3c-0.5,1.5-1,3-1.6,4.5l0.4-0.2c0.5-1.5,1-2.9,1.5-4.4L51.1,47.3z"/>
				<path fill="#FFFFFF" d="M51.4,55.7c0.1,0,0.2,0,0.4,0c0.6-1.6,1.2-3.2,1.8-4.8l-0.5,0.2C52.6,52.7,52,54.2,51.4,55.7z"/>
				<path fill="#FFFFFF" d="M50.8,52.9c-1,0.5-2,1-3.2,1.6c-0.1,0.3-0.1,0.7-0.2,1.1c1.2-0.6,2.2-1.1,3.2-1.7
					C50.7,53.6,50.7,53.3,50.8,52.9z"/>
				<path fill="#FFFFFF" d="M50.4,58.1c-0.2-0.6-0.3-1.2-0.5-1.7c-0.1,0-0.2,0-0.3,0c0.3,0.9,0.5,1.8,0.8,2.7c0.7-0.8,1.3-1.5,2-2.3
					c-0.4-0.1-0.6-0.1-0.8-0.1C51.2,57.2,50.8,57.7,50.4,58.1z"/>
			</g>
	</g>
</svg>