<svg xmlns="http://www.w3.org/2000/svg" width="48" height="48" viewBox="0 0 100 100"><title>provisional-breaker</title><g class="symbol simple"><path class="outer" fill="#282828" d="M29.3 60.8c-.6 0-1.3-.2-1.8-.7l-7.8-7.8c-.5-.5-.7-1.1-.7-1.8s.3-1.3.7-1.8l7.8-7.8c1-1 2.6-1 3.5 0 1 1 1 2.6 0 3.5l-6 6 6 6c1 1 1 2.6 0 3.5-.4.6-1.1.9-1.7.9z"/><path class="edging" opacity=".65" fill="#FFF" d="M29.3 40.2c.6 0 1.3.2 1.8.7 1 1 1 2.6 0 3.5l-6 6 6 6c1 1 1 2.6 0 3.5-.5.5-1.1.7-1.8.7-.6 0-1.3-.2-1.8-.7l-7.8-7.8c-.5-.5-.7-1.1-.7-1.8s.3-1.3.7-1.8l7.8-7.8c.5-.2 1.1-.5 1.8-.5m0-2c-1.2 0-2.3.5-3.2 1.3l-7.8 7.8c-.8.8-1.3 2-1.3 3.2s.5 2.3 1.3 3.2l7.8 7.8c.9.9 2 1.3 3.2 1.3 1.2 0 2.3-.5 3.2-1.3 1.8-1.8 1.8-4.6 0-6.4l-4.6-4.6 4.6-4.6c1.8-1.8 1.8-4.6 0-6.4-.9-.8-2-1.3-3.2-1.3z"/><path class="outer" fill="#282828" d="M69.7 60.8c-.6 0-1.3-.2-1.8-.7-1-1-1-2.6 0-3.5l6-6-6-6c-1-1-1-2.6 0-3.5 1-1 2.6-1 3.5 0l7.8 7.8c1 1 1 2.6 0 3.5L71.5 60c-.5.5-1.1.8-1.8.8z"/><path class="edging" fill="#FFF" opacity=".65" d="M69.7 40.2c.6 0 1.3.2 1.8.7l7.8 7.8c1 1 1 2.6 0 3.5L71.5 60c-.5.5-1.1.7-1.8.7-.6 0-1.3-.2-1.8-.7-1-1-1-2.6 0-3.5l6-6-6-6c-1-1-1-2.6 0-3.5.5-.5 1.2-.8 1.8-.8m0-2c-1.2 0-2.3.5-3.2 1.3-1.8 1.8-1.8 4.6 0 6.4l4.6 4.6-4.6 4.6c-1.8 1.8-1.8 4.6 0 6.4.8.8 2 1.3 3.2 1.3 1.2 0 2.3-.5 3.2-1.3l7.8-7.8c.8-.8 1.3-2 1.3-3.2s-.5-2.3-1.3-3.2l-7.8-7.8c-.8-.8-2-1.3-3.2-1.3z"/></g></svg>