<svg xmlns="http://www.w3.org/2000/svg" width="48" height="48" viewBox="0 0 100 100">
  <title>provisional-breaker</title>
<g id="provisional-breaker" class="symbol simple">
			
			<g id="bound">
				<rect class="" x="0" y="0" width="100" height="100" opacity="0"/>
			</g>

			<g id="leftArrow">
				<path class="outer" fill="#282828" d="M29.3,60.8c-0.6,0-1.3-0.2-1.8-0.7l-7.8-7.8c-0.5-0.5-0.7-1.1-0.7-1.8s0.3-1.3,0.7-1.8l7.8-7.8
				c1-1,2.6-1,3.5,0c1,1,1,2.6,0,3.5l-6,6l6,6c1,1,1,2.6,0,3.5C30.6,60.5,29.9,60.8,29.3,60.8z"/>

				<path class="edging" opacity="0.65" fill="#FFFFFF" d="M29.3,40.2c0.6,0,1.3,0.2,1.8,0.7c1,1,1,2.6,0,3.5l-6,6l6,6c1,1,1,2.6,0,3.5c-0.5,0.5-1.1,0.7-1.8,0.7
				c-0.6,0-1.3-0.2-1.8-0.7l-7.8-7.8c-0.5-0.5-0.7-1.1-0.7-1.8s0.3-1.3,0.7-1.8l7.8-7.8C28,40.5,28.6,40.2,29.3,40.2 M29.3,38.2
				c-1.2,0-2.3,0.5-3.2,1.3l-7.8,7.8c-0.8,0.8-1.3,2-1.3,3.2s0.5,2.3,1.3,3.2l7.8,7.8c0.9,0.9,2,1.3,3.2,1.3
				c1.2,0,2.3-0.5,3.2-1.3c1.8-1.8,1.8-4.6,0-6.4l-4.6-4.6l4.6-4.6c1.8-1.8,1.8-4.6,0-6.4C31.6,38.7,30.5,38.2,29.3,38.2
				L29.3,38.2z"/>
			</g>

			<g id="rightArrow">
				<path class="outer" fill="#282828" d="M69.7,60.8c-0.6,0-1.3-0.2-1.8-0.7c-1-1-1-2.6,0-3.5l6-6l-6-6c-1-1-1-2.6,0-3.5c1-1,2.6-1,3.5,0l7.8,7.8
				c1,1,1,2.6,0,3.5L71.5,60C71,60.5,70.4,60.8,69.7,60.8z"/>

				<path class="edging" fill="#FFFFFF" opacity="0.65" d="M69.7,40.2c0.6,0,1.3,0.2,1.8,0.7l7.8,7.8c1,1,1,2.6,0,3.5L71.5,60c-0.5,0.5-1.1,0.7-1.8,0.7
				c-0.6,0-1.3-0.2-1.8-0.7c-1-1-1-2.6,0-3.5l6-6l-6-6c-1-1-1-2.6,0-3.5C68.4,40.5,69.1,40.2,69.7,40.2 M69.7,38.2
				c-1.2,0-2.3,0.5-3.2,1.3c-1.8,1.8-1.8,4.6,0,6.4l4.6,4.6l-4.6,4.6c-1.8,1.8-1.8,4.6,0,6.4c0.8,0.8,2,1.3,3.2,1.3
				c1.2,0,2.3-0.5,3.2-1.3l7.8-7.8c0.8-0.8,1.3-2,1.3-3.2s-0.5-2.3-1.3-3.2l-7.8-7.8C72.1,38.7,70.9,38.2,69.7,38.2L69.7,38.2z"/>
			</g>
	</g>
</svg>

		