<svg xmlns="http://www.w3.org/2000/svg" width="48" height="48" viewBox="0 0 100 100"><title>pump</title><g class="symbol load"><linearGradient id="a" gradientUnits="userSpaceOnUse" x1="50.5" y1="32.5" x2="50.5" y2="68.5"><stop offset="0" stop-color="#666"/><stop offset="1" stop-color="#4d4d4d"/></linearGradient><path class="outer" fill="#282828" d="M72.5 50.4c0-12.1-9.9-22-22-22-1.3 0-2.5.1-3.7.3l11.9-11.9c.8-.8.8-2 0-2.8-.8-.8-2-.8-2.8 0L35.8 34.1c-4.4 4-7.2 9.8-7.2 16.3v.1c0 12.1 9.9 22 22 22 1.3 0 2.5-.1 3.7-.3l-12 11.9c-.8.8-.8 2 0 2.8.8.8 2 .8 2.8 0l20.1-20.1c4.5-4 7.3-9.8 7.3-16.4 0 .1 0 .1 0 0z"/><path class="edging" opacity=".65" fill="#FFF" d="M57.3 13.4c.5 0 1 .2 1.4.6.8.8.8 2 0 2.8l-11.9 12c1.2-.2 2.4-.3 3.7-.3 12.1 0 22 9.9 22 22v.1c0 6.5-2.8 12.3-7.2 16.3l-20.2 20c-.4.4-.9.6-1.4.6s-1-.2-1.4-.6c-.8-.8-.8-2 0-2.8l11.9-11.9c-1.2.2-2.4.3-3.7.3-12.1 0-22-9.9-22-22v-.1c0-6.5 2.8-12.3 7.2-16.3L55.9 14c.4-.4.9-.6 1.4-.6m0-2c-1.1 0-2.1.4-2.8 1.2L34.6 32.7c-5 4.5-7.6 11-7.6 17.7 0 12.7 9.8 23.2 22.3 23.9L41 82.6c-.8.8-1.2 1.8-1.2 2.8 0 1.1.4 2.1 1.1 2.8.8.8 1.7 1.2 2.8 1.2 1.1 0 2.1-.4 2.8-1.2l19.8-20.1c5-4.5 7.6-11 7.6-17.7 0-12.7-9.8-23.2-22.3-23.9l8.3-8.2c.8-.8 1.2-1.8 1.2-2.8s-.4-2.1-1.1-2.8c-.7-.8-1.6-1.3-2.7-1.3z"/><circle class="inner" fill="url(#a)" cx="50.5" cy="50.5" r="18"/><path class="highlight" opacity=".35" fill="#FFF" d="M32.6 51.5c0-8.1 5.3-14.9 12.7-17.2 1.7-.5 3.4-.8 5.3-.8 1.8 0 3.5.3 5.1.8C63 36.4 68.3 43 68.6 50.9v-.4c0-9.9-8.1-18-18-18s-18 8.1-18 18c0 .7 0 1.3.1 2-.1-.3-.1-.7-.1-1z"/></g></svg>