<svg xmlns="http://www.w3.org/2000/svg" width="48" height="48" viewBox="0 0 100 100">
  <title>pump</title>
  <g id="pump" class="symbol load">
			<g id="bound">
				<rect class="" x="0" y="0" width="100" height="100" opacity="0"/>
			</g>

			<linearGradient id="DefaultGradient" gradientUnits="userSpaceOnUse" x1="50.5" y1="32.5" x2="50.5" y2="68.5">
					<stop  offset="0" style="stop-color:#666666"/>
					<stop  offset="1" style="stop-color:#4D4D4D"/>
			</linearGradient>

			<path class="outer" fill="#282828" d="M72.5,50.4c0-12.1-9.9-22-22-22c-1.3,0-2.5,0.1-3.7,0.3l11.9-11.9c0.8-0.8,0.8-2,0-2.8
			c-0.8-0.8-2-0.8-2.8,0L35.8,34.1c-4.4,4-7.2,9.8-7.2,16.3c0,0,0,0,0,0.1c0,0,0,0,0,0c0,12.1,9.9,22,22,22c1.3,0,2.5-0.1,3.7-0.3
			L42.3,84.1c-0.8,0.8-0.8,2,0,2.8c0.8,0.8,2,0.8,2.8,0l20.1-20.1C69.7,62.8,72.5,57,72.5,50.4C72.5,50.5,72.5,50.5,72.5,50.4
			C72.5,50.4,72.5,50.4,72.5,50.4z"/>
			<path class="edging" opacity="0.65" fill="#FFFFFF" d="M57.3,13.4c0.5,0,1,0.2,1.4,0.6c0.8,0.8,0.8,2,0,2.8L46.8,28.8c1.2-0.2,2.4-0.3,3.7-0.3
			c12.1,0,22,9.9,22,22c0,0,0,0,0,0c0,0,0,0,0,0.1c0,6.5-2.8,12.3-7.2,16.3L45.1,86.9c-0.4,0.4-0.9,0.6-1.4,0.6s-1-0.2-1.4-0.6
			c-0.8-0.8-0.8-2,0-2.8l11.9-11.9c-1.2,0.2-2.4,0.3-3.7,0.3c-12.1,0-22-9.9-22-22c0,0,0,0,0,0c0,0,0,0,0-0.1
			c0-6.5,2.8-12.3,7.2-16.3L55.9,14C56.3,13.6,56.8,13.4,57.3,13.4 M57.3,11.4c-1.1,0-2.1,0.4-2.8,1.2L34.6,32.7
			c-5,4.5-7.6,11-7.6,17.7v0v0v0c0,12.7,9.8,23.2,22.3,23.9L41,82.6c-0.8,0.8-1.2,1.8-1.2,2.8c0,1.1,0.4,2.1,1.1,2.8
			c0.8,0.8,1.7,1.2,2.8,1.2c1.1,0,2.1-0.4,2.8-1.2l19.8-20.1c5-4.5,7.6-11,7.6-17.7v0v0v0c0-12.7-9.8-23.2-22.3-23.9l8.3-8.2
			c0.8-0.8,1.2-1.8,1.2-2.8s-0.4-2.1-1.1-2.8C59.3,11.9,58.4,11.4,57.3,11.4L57.3,11.4z"/>
			<circle class="inner" fill="url(#DefaultGradient)" cx="50.5" cy="50.5" r="18"/>
			<path class="highlight" opacity="0.35" fill="#FFFFFF" d="M32.6,51.5c0-8.1,5.3-14.9,12.7-17.2c1.7-0.5,3.4-0.8,5.3-0.8
			c1.8,0,3.5,0.3,5.1,0.8c7.3,2.1,12.6,8.7,12.9,16.6c0-0.1,0-0.3,0-0.4c0-9.9-8.1-18-18-18c-9.9,0-18,8.1-18,18c0,0.7,0,1.3,0.1,2
			C32.6,52.2,32.6,51.8,32.6,51.5z"/>

			<g class="text">
				<text class="text" text-anchor="middle" transform="matrix(1 0 0 1 50 58)" fill="#ffffff" font-family="'Gotham-Black', 'Open Sans'" font-size="22px" style="font-weight: bold;"></text>
			</g>
	</g>
</svg>

		