<svg xmlns="http://www.w3.org/2000/svg" width="48" height="48" viewBox="0 0 100 100"><title>relay-face</title><g class="symbol face"><path class="outer" fill="#282828" d="M64.5 21h-26c-6 0-10 4-10 9v41c0 5 4 9 9 9h26c5 0 8-4 8-9V30c0-5-3-9-8-9h1z"/><path class="edging" opacity=".65" fill="#FFF" d="M64.5 21h-1 1m-1 0c5 0 8 4 8 9v41c0 5-3 9-8 9h-26c-5 0-9-4-9-9V30c0-5 4-9 10-9h25m1-2h-26c-6.8 0-12 4.7-12 11v41c0 6.1 4.9 11 11 11h26c5.8 0 10-4.6 10-11V30c0-6-3.7-10.5-9-11z"/><linearGradient id="a" gradientUnits="userSpaceOnUse" x1="50" y1="24" x2="50" y2="77"><stop offset="0" stop-color="#666"/><stop offset="1" stop-color="#4d4d4d"/></linearGradient><path fill="url(#a)" d="M63.5 77h-26c-3.3 0-6-2.7-6-6V30c0-3.3 2.7-6 6-6h26c3.3 0 5 2.7 5 6v41c0 3.3-1.7 6-5 6z"/><linearGradient id="b" gradientUnits="userSpaceOnUse" x1="49.921" y1="24" x2="49.921" y2="31.749"><stop offset="0" stop-color="#007aba"/><stop offset="1" stop-color="#0360a7"/></linearGradient><path fill="url(#b)" d="M42.1 28.3c9.6-2.2 18.8-2 26.3 0-.5-2.5-2.1-4.3-4.8-4.3h-26c-3.3 0-6 2.7-6 6v1.7c3.2-1.3 6.7-2.5 10.5-3.4z"/><linearGradient id="c" gradientUnits="userSpaceOnUse" x1="50.661" y1="67.361" x2="50.661" y2="77"><stop offset="0" stop-color="#007aba"/><stop offset="1" stop-color="#0360a7"/></linearGradient><path fill="url(#c)" d="M52.4 73.5c-6.9 1.6-13.6 1.9-19.6 1.2 1.1 1.4 2.8 2.3 4.7 2.3h26c3.3 0 5-2.7 5-6v-3.6c-4.7 2.6-10.1 4.7-16.1 6.1z"/><path class="highlight" opacity=".2" fill="#FFF" d="M63.5 24h-26c-3.3 0-6 2.7-6 6v1c0-3.3 2.7-6 6-6h26c3.3 0 5 2.7 5 6v-1c0-3.3-1.7-6-5-6z"/><g class="display"><path opacity=".25" fill="#22B573" d="M40 35h20v10H40z"/><path fill="#4D4D4D" d="M60 35v10H40V35h20m2-2H38v14h24V33z"/></g><path d="M43 52h-2c-.6 0-1-.4-1-1v-1c0-.6.4-1 1-1h2c.6 0 1 .4 1 1v1c0 .6-.4 1-1 1zm16 0h-2c-.6 0-1-.4-1-1v-1c0-.6.4-1 1-1h2c.6 0 1 .4 1 1v1c0 .6-.4 1-1 1zm-10.7 0h-2c-.6 0-1-.4-1-1v-1c0-.6.4-1 1-1h2c.6 0 1 .4 1 1v1c0 .6-.4 1-1 1zm5.4 0h-2c-.6 0-1-.4-1-1v-1c0-.6.4-1 1-1h2c.6 0 1 .4 1 1v1c0 .6-.5 1-1 1zM43 56h-2c-.6 0-1-.4-1-1v-1c0-.6.4-1 1-1h2c.6 0 1 .4 1 1v1c0 .6-.4 1-1 1zm16 0h-2c-.6 0-1-.4-1-1v-1c0-.6.4-1 1-1h2c.6 0 1 .4 1 1v1c0 .6-.4 1-1 1zm-10.7 0h-2c-.6 0-1-.4-1-1v-1c0-.6.4-1 1-1h2c.6 0 1 .4 1 1v1c0 .6-.4 1-1 1zm5.4 0h-2c-.6 0-1-.4-1-1v-1c0-.6.4-1 1-1h2c.6 0 1 .4 1 1v1c0 .6-.5 1-1 1z" class="buttons" fill="#0071BC"/><path opacity=".6" fill="#FFF" d="M35 26h4v2h-4zm24 47h6v1h-6z"/><path class="plug" opacity=".4" fill="#282828" d="M52 62h-4c-.6 0-1 .5-1 1v3c0 .5.4 1 1 1h1v1h2v-1h1c.6 0 1-.5 1-1v-3c0-.5-.4-1-1-1z"/></g></svg>