<svg xmlns="http://www.w3.org/2000/svg" width="48" height="48" viewBox="0 0 100 100">
  <title>relay-face</title>

		<g id="relay-face" class="symbol face">

			<path class="outer" fill="#282828" d="M64.5,21h-26c-6,0-10,4-10,9v41c0,5,4,9,9,9h26c5,0,8-4,8-9V30c0-5-3-9-8-9H64.5z"/>

			<path class="edging" opacity="0.65" fill="#FFFFFF" d="M64.5,21h-1H64.5 M63.5,21c5,0,8,4,8,9v41c0,5-3,9-8,9h-26c-5,0-9-4-9-9V30c0-5,4-9,10-9H63.5 M64.5,19
				h-1h-25c-6.8,0-12,4.7-12,11v41c0,6.1,4.9,11,11,11h26c5.8,0,10-4.6,10-11V30C73.5,24,69.8,19.5,64.5,19L64.5,19L64.5,19z"/>

			<linearGradient id="relay-face-background" gradientUnits="userSpaceOnUse" x1="50" y1="24" x2="50" y2="77">
				<stop  offset="0" style="stop-color:#666666"/>
				<stop  offset="1" style="stop-color:#4D4D4D"/>
			</linearGradient>
			<path fill="url(#relay-face-background)" d="M63.5,77h-26c-3.3,0-6-2.7-6-6V30c0-3.3,2.7-6,6-6h26c3.3,0,5,2.7,5,6v41C68.5,74.3,66.8,77,63.5,77
				z"/>

			<g>
				<linearGradient id="relay-face-border-1" gradientUnits="userSpaceOnUse" x1="49.921" y1="24" x2="49.921" y2="31.7493">
					<stop  offset="0" style="stop-color:#007ABA"/>
					<stop  offset="1" style="stop-color:#0360A7"/>
				</linearGradient>
				<path fill="url(#relay-face-border-1)" d="M42.1,28.3c9.6-2.2,18.8-2,26.3,0c-0.5-2.5-2.1-4.3-4.8-4.3h-26c-3.3,0-6,2.7-6,6v1.7
					C34.8,30.4,38.3,29.2,42.1,28.3z"/>
				<linearGradient id="relay-face-border-2" gradientUnits="userSpaceOnUse" x1="50.661" y1="67.3611" x2="50.661" y2="77">
					<stop  offset="0" style="stop-color:#007ABA"/>
					<stop  offset="1" style="stop-color:#0360A7"/>
				</linearGradient>
				<path fill="url(#relay-face-border-2)" d="M52.4,73.5c-6.9,1.6-13.6,1.9-19.6,1.2c1.1,1.4,2.8,2.3,4.7,2.3h26c3.3,0,5-2.7,5-6v-3.6
					C63.8,70,58.4,72.1,52.4,73.5z"/>
			</g>

			<path class="highlight" opacity="0.2" fill="#FFFFFF" d="M63.5,24h-26c-3.3,0-6,2.7-6,6v1c0-3.3,2.7-6,6-6h26c3.3,0,5,2.7,5,6v-1
				C68.5,26.7,66.8,24,63.5,24z"/>
			
			<g class="display">
				<rect x="40" y="35" opacity="0.25" fill="#22B573" width="20" height="10"/>
				<g>
					<path fill="#4D4D4D" d="M60,35v10H40V35H60 M62,33h-2H40h-2v2v10v2h2h20h2v-2V35V33L62,33z"/>
				</g>
			</g>

			<g class="buttons">
				<path fill="#0071BC" d="M43,52h-2c-0.6,0-1-0.4-1-1v-1c0-0.6,0.4-1,1-1h2c0.6,0,1,0.4,1,1v1C44,51.6,43.6,52,43,52z"/>
				<path fill="#0071BC" d="M59,52h-2c-0.6,0-1-0.4-1-1v-1c0-0.6,0.4-1,1-1h2c0.6,0,1,0.4,1,1v1C60,51.6,59.6,52,59,52z"/>
				<path fill="#0071BC" d="M48.3,52h-2c-0.6,0-1-0.4-1-1v-1c0-0.6,0.4-1,1-1h2c0.6,0,1,0.4,1,1v1C49.3,51.6,48.9,52,48.3,52z"/>
				<path fill="#0071BC" d="M53.7,52h-2c-0.6,0-1-0.4-1-1v-1c0-0.6,0.4-1,1-1h2c0.6,0,1,0.4,1,1v1C54.7,51.6,54.2,52,53.7,52z"/>
				<path fill="#0071BC" d="M43,56h-2c-0.6,0-1-0.4-1-1v-1c0-0.6,0.4-1,1-1h2c0.6,0,1,0.4,1,1v1C44,55.6,43.6,56,43,56z"/>
				<path fill="#0071BC" d="M59,56h-2c-0.6,0-1-0.4-1-1v-1c0-0.6,0.4-1,1-1h2c0.6,0,1,0.4,1,1v1C60,55.6,59.6,56,59,56z"/>
				<path fill="#0071BC" d="M48.3,56h-2c-0.6,0-1-0.4-1-1v-1c0-0.6,0.4-1,1-1h2c0.6,0,1,0.4,1,1v1C49.3,55.6,48.9,56,48.3,56z"/>
				<path fill="#0071BC" d="M53.7,56h-2c-0.6,0-1-0.4-1-1v-1c0-0.6,0.4-1,1-1h2c0.6,0,1,0.4,1,1v1C54.7,55.6,54.2,56,53.7,56z"/>
			</g>
			<rect x="35" y="26" opacity="0.6" fill="#FFFFFF" width="4" height="2"/>
			<rect x="59" y="73" opacity="0.6" fill="#FFFFFF" width="6" height="1"/>

			<path class="plug" opacity="0.4" fill="#282828" d="M52,62h-4c-0.6,0-1,0.5-1,1v3c0,0.5,0.4,1,1,1h1v1h2v-1h1c0.6,0,1-0.5,1-1v-3
				C53,62.5,52.6,62,52,62z"/>
		</g>
</svg>