<svg xmlns="http://www.w3.org/2000/svg" width="48" height="48" viewBox="0 0 100 100"><title>remove</title><g class="symbol indicator"><path class="bound" fill="none" d="M0 0h100v100H0z"/><circle class="outer" fill="#282828" cx="50.5" cy="50.5" r="12"/><path class="edging" opacity=".65" fill="#FFF" d="M50.5 38.5c6.6 0 12 5.4 12 12s-5.4 12-12 12-12-5.4-12-12 5.4-12 12-12m0-2c-7.7 0-14 6.3-14 14s6.3 14 14 14 14-6.3 14-14-6.3-14-14-14z"/><linearGradient id="a" gradientUnits="userSpaceOnUse" x1="50.225" y1="44.714" x2="50.225" y2="62.714" gradientTransform="rotate(-45.001 46.483 51.776)"><stop offset="0" stop-color="#e01313"/><stop offset="1" stop-color="#ce0101"/></linearGradient><path fill="url(#a)" d="M44.1 44.1c-3.5 3.5-3.5 9.2 0 12.7s9.2 3.5 12.7 0 3.5-9.2 0-12.7-9.1-3.5-12.7 0zm8.6 6.4l2.7 2.7-2.2 2.2-2.7-2.7-2.7 2.7-2.2-2.2 2.7-2.7-2.7-2.7 2.2-2.2 2.7 2.7 2.7-2.7 2.2 2.2-2.7 2.7z"/><g class="highlight" opacity=".35" fill="#FFF"><path d="M50.5 42.5c4.8 0 8.7 3.8 9 8.5v-.5c0-5-4-9-9-9s-9 4-9 9v.5c.3-4.7 4.2-8.5 9-8.5z"/><path d="M45.558 48.739l.495-.495 2.263 2.263-.495.495zm7.088 1.811l2.263-2.263.495.495-2.263 2.263zm.554 4.85l-2.7-2.7-2.7 2.7-1.7-1.7-.5.5 2.2 2.2 2.7-2.7 2.7 2.7 2.2-2.2-.5-.5z"/></g></g></svg>