<svg xmlns="http://www.w3.org/2000/svg" width="48" height="48" viewBox="0 0 100 100"><title>remote</title><g class="symbol indicator"><path class="bound" fill="none" d="M0 0h100v100H0z"/><linearGradient id="a" gradientUnits="userSpaceOnUse" x1="40.8" y1="47.303" x2="53.8" y2="47.303"><stop offset="0" stop-color="#007aba"/><stop offset="1" stop-color="#0360a7"/></linearGradient><path fill="url(#a)" d="M42.8 54.8h-2v-9.1c0-3.2 2.6-5.9 5.9-5.9h1.2c3.2 0 5.9 2.6 5.9 5.9v.1h-2v-.1c0-2.1-1.7-3.9-3.9-3.9h-1.2c-2.1 0-3.9 1.7-3.9 3.9v9.1z"/><path class="highlight" opacity=".15" fill="#FFF" d="M47.9 39.8h-1.2c-3.2 0-5.9 2.6-5.9 5.9v1c0-3.2 2.6-5.9 5.9-5.9h1.2c2.9 0 5.4 2.2 5.8 5h.1v-.1c0-3.3-2.6-5.9-5.9-5.9z"/><linearGradient id="b" gradientUnits="userSpaceOnUse" x1="54.429" y1="40.005" x2="54.429" y2="56.662" gradientTransform="rotate(.85 -183.01 -60.971) scale(1.00001)"><stop offset="0" stop-color="#666"/><stop offset="1" stop-color="#4d4d4d"/></linearGradient><path fill="url(#b)" d="M57.4 43.5l-9-.1c-1.5 0-2.8 1.2-2.8 2.8l-.2 11c0 1.5 1.2 2.8 2.8 2.8l9 .1c1.5 0 2.8-1.2 2.8-2.8l.2-11c0-1.5-1.2-2.7-2.8-2.8z"/><linearGradient id="c" gradientUnits="userSpaceOnUse" x1="54.4" y1="46.302" x2="54.4" y2="56.662" gradientTransform="rotate(.85 -183.01 -60.971) scale(1.00001)"><stop offset="0" stop-color="#007aba"/><stop offset="1" stop-color="#0360a7"/></linearGradient><path fill="url(#c)" d="M54.3 53.6c-3 1.3-6 2-8.9 2.1v1.6c0 1.5 1.2 2.8 2.8 2.8l9 .1c1.5 0 2.8-1.2 2.8-2.8l.1-7.6c-1.7 1.5-3.6 2.8-5.8 3.8z"/><linearGradient id="d" gradientUnits="userSpaceOnUse" x1="54.236" y1="40.005" x2="54.236" y2="46.438" gradientTransform="rotate(.85 -183.01 -60.971) scale(1.00001)"><stop offset="0" stop-color="#007aba"/><stop offset="1" stop-color="#0360a7"/></linearGradient><path fill="url(#d)" d="M55.8 45.6c1.3-.3 2.7-.5 4-.7-.5-.8-1.4-1.3-2.3-1.3l-9-.1c-1.5 0-2.8 1.2-2.8 2.8l-.1 3.6c2.8-1.9 6.3-3.4 10.2-4.3z"/><path opacity=".35" fill="#FFF" d="M57.4 43.5l-9-.1c-1.5 0-2.8 1.2-2.8 2.8v1c0-1.5 1.3-2.8 2.8-2.8l9 .1c1.5 0 2.8 1.3 2.8 2.8v-1c0-1.5-1.2-2.7-2.8-2.8z"/><g class="buttons"><linearGradient id="e" gradientUnits="userSpaceOnUse" x1="57.429" y1="41.284" x2="57.429" y2="45.243" gradientTransform="rotate(.85 -183.01 -60.971) scale(1.00001)"><stop offset="0" stop-color="#e01313"/><stop offset="1" stop-color="#ce0101"/></linearGradient><circle fill="url(#e)" cx="55.9" cy="46.8" r="2"/><path opacity=".2" d="M55.9 48.8c-.9 0-1.7-.7-1.9-1.6-.1.2-.1.4-.1.6 0 1.1.9 2 2 2s2-.9 2-2v-.4c-.4.8-1.1 1.4-2 1.4z"/><linearGradient id="f" gradientUnits="userSpaceOnUse" x1="57.455" y1="50.964" x2="57.455" y2="54.923" gradientTransform="rotate(.85 -183.01 -60.971) scale(1.00001)"><stop offset="0" stop-color="#4cc933"/><stop offset="1" stop-color="#39b620"/></linearGradient><circle fill="url(#f)" cx="55.8" cy="56.5" r="2"/><path opacity=".2" d="M57.6 56.9c-.2.9-1 1.6-2 1.6-.9 0-1.6-.6-1.8-1.4v.4c0 1.1.9 2 2 2s2-.9 2-2c-.1-.2-.1-.4-.2-.6z"/><linearGradient id="g" gradientUnits="userSpaceOnUse" x1="57.462" y1="46.123" x2="57.462" y2="50.082" gradientTransform="rotate(.85 -183.01 -60.971) scale(1.00001)"><stop offset="0" stop-color="#ffe633"/><stop offset="1" stop-color="#ffde00"/></linearGradient><circle fill="url(#g)" cx="55.8" cy="51.6" r="2"/><path opacity=".2" d="M57.7 52.1c-.2.9-1 1.5-2 1.5-.9 0-1.6-.6-1.9-1.5 0 .2-.1.3-.1.5 0 1.1.9 2 2 2s2-.9 2-2c.1-.1.1-.3 0-.5z"/></g><g class="cable-tip"><path fill="#C9C9C9" d="M42.8 59.8h-2c-.5 0-1-.5-1-1v-4c0-.5.5-1 1-1h2c.6 0 1 .5 1 1v4c0 .6-.5 1-1 1z"/><path opacity=".6" fill="#FFF" d="M41.8 57.8c-.3 0-.5-.2-.5-.5v-3c0-.3.2-.5.5-.5s.5.2.5.5v3c0 .3-.2.5-.5.5z"/></g><linearGradient id="h" gradientUnits="userSpaceOnUse" x1="47" y1="51.5" x2="52" y2="51.5"><stop offset="0" stop-color="#e01313"/><stop offset="1" stop-color="#ce0101"/></linearGradient><path opacity=".2" fill="url(#h)" d="M47 50h5v3h-5z"/><path class="outer" fill="#282828" d="M47.9 39.8c2.5 0 4.6 1.5 5.4 3.7l4.1.1c1.5 0 2.8 1.3 2.8 2.8l-.2 11c0 1.5-1.3 2.8-2.8 2.8l-9-.1c-1.5 0-2.8-1.3-2.8-2.8l.2-11c0-1.5 1.3-2.8 2.8-2.8H51c-.7-1-1.9-1.6-3.2-1.6h-1.2c-2.1 0-3.9 1.7-3.9 3.9v8.1c.6 0 1 .5 1 1v4c0 .5-.4 1-1 1h-2c-.6 0-1-.5-1-1v-4c0-.5.4-1 1-1v-8.1c0-3.2 2.6-5.9 5.9-5.9h1.3m0-3.1h-1.2c-4.9 0-8.9 4-8.9 8.9v6.5c-.6.7-1 1.6-1 2.6v4c0 2.2 1.8 4 4 4h2c.8 0 1.6-.3 2.2-.7.9.6 2 .9 3.1.9l9 .1h.1c3.2 0 5.8-2.6 5.8-5.7l.2-11c0-1.5-.6-3-1.6-4.1-1.1-1.1-2.5-1.7-4.1-1.8h-2.3c-1.7-2.3-4.4-3.7-7.3-3.7z"/><path class="edging" opacity=".65" fill="#FFF" d="M47.9 36.8c2.9 0 5.6 1.4 7.2 3.7h2.3c1.5 0 3 .6 4.1 1.8 1.1 1.1 1.7 2.6 1.6 4.1l-.2 11c0 3.2-2.7 5.7-5.8 5.7H57l-9-.1c-1.1 0-2.2-.3-3.1-.9-.6.4-1.4.7-2.2.7h-2c-2.2 0-4-1.8-4-4v-4c0-1 .4-1.9 1-2.6v-6.5c0-4.9 4-8.9 8.9-8.9h1.3m0-2h-1.2c-6 0-10.9 4.9-10.9 10.9v5.8c-.6 1-1 2.1-1 3.3v4c0 3.3 2.7 6 6 6h2c.8 0 1.5-.1 2.2-.4 1 .4 2 .7 3.1.7l9 .1h.1c4.2 0 7.7-3.5 7.8-7.7l.2-11c0-2.1-.8-4.1-2.2-5.6s-3.4-2.3-5.5-2.4h-1.4c-2-2.3-5-3.7-8.2-3.7z"/><path d="M40.5 59.5c-.2 0-.3-.1-.3-.2v-.9c0-.1.1-.2.2-.2h.1c.1 0 .2.1.2.2v.9c0 .1-.1.2-.2.2zm2.6 0c-.2 0-.3-.1-.3-.2v-.9c0-.1.1-.2.2-.2h.1c.1 0 .2.1.2.2v.9c0 .1-.1.2-.2.2zm-1.9 0c-.2 0-.3-.1-.3-.2v-.9c0-.1.1-.2.2-.2h.1c.1 0 .2.1.2.2v.9c0 .1-.1.2-.2.2zm1.3 0c-.2 0-.3-.1-.3-.2v-.9c0-.1.1-.2.2-.2h.1c.1 0 .2.1.2.2v.9c-.1.1-.1.2-.2.2zm-.7 0c-.2 0-.3-.1-.3-.2v-.9c0-.1.1-.2.2-.2h.1c.1 0 .2.1.2.2v.9c0 .1-.1.2-.2.2z" class="ethernet-copper" opacity=".7" fill="#BD8C42"/></g></svg>