<svg xmlns="http://www.w3.org/2000/svg" width="48" height="48" viewBox="0 0 100 100">
  <title>remote</title>
		<g id="remote" class="symbol indicator">
			<rect class="bound" fill="none" width="100" height="100"/>
			
			<linearGradient id="remote-ethernet-cable" gradientUnits="userSpaceOnUse" x1="40.7999" y1="47.3034" x2="53.7999" y2="47.3034">
				<stop  offset="0" style="stop-color:#007ABA"/>
				<stop  offset="1" style="stop-color:#0360A7"/>
			</linearGradient>
			<path fill="url(#remote-ethernet-cable)" d="M42.8,54.8h-2v-9.1c0-3.2,2.6-5.9,5.9-5.9h1.2c3.2,0,5.9,2.6,5.9,5.9v0.1h-2v-0.1
					c0-2.1-1.7-3.9-3.9-3.9h-1.2c-2.1,0-3.9,1.7-3.9,3.9V54.8z"/>
			<path class="highlight" opacity="0.15" fill="#FFFFFF" d="M47.9,39.8h-1.2c-3.2,0-5.9,2.6-5.9,5.9v1c0-3.2,2.6-5.9,5.9-5.9h1.2c2.9,0,5.4,2.2,5.8,5
					h0.1v-0.1C53.8,42.4,51.2,39.8,47.9,39.8z"/>

				
			<linearGradient id="remote-body-background" gradientUnits="userSpaceOnUse" x1="54.4289" y1="40.0048" x2="54.4289" y2="56.6616" gradientTransform="matrix(0.9999 1.466556e-02 -1.466556e-02 0.9999 -0.9143 2.6772)">
				<stop  offset="0" style="stop-color:#666666"/>
				<stop  offset="1" style="stop-color:#4D4D4D"/>
			</linearGradient>
			<path fill="url(#remote-body-background)" d="M57.4,43.5l-9-0.1c-1.5,0-2.8,1.2-2.8,2.8l-0.2,11c0,1.5,1.2,2.8,2.8,2.8l9,0.1
					c1.5,0,2.8-1.2,2.8-2.8l0.2-11C60.2,44.8,59,43.6,57.4,43.5z"/>

					
			<linearGradient id="remote-swoosh-bottom" gradientUnits="userSpaceOnUse" x1="54.3995" y1="46.3019" x2="54.3995" y2="56.6616" gradientTransform="matrix(0.9999 1.466556e-02 -1.466556e-02 0.9999 -0.9143 2.6772)">
				<stop  offset="0" style="stop-color:#007ABA"/>
				<stop  offset="1" style="stop-color:#0360A7"/>
			</linearGradient>
			<path fill="url(#remote-swoosh-bottom)" d="M54.3,53.6c-3,1.3-6,2-8.9,2.1l0,1.6c0,1.5,1.2,2.8,2.8,2.8l9,0.1c1.5,0,2.8-1.2,2.8-2.8l0.1-7.6
						C58.4,51.3,56.5,52.6,54.3,53.6z"/>

				
			<linearGradient id="remote-swoosh-top" gradientUnits="userSpaceOnUse" x1="54.2365" y1="40.0047" x2="54.2365" y2="46.4377" gradientTransform="matrix(0.9999 1.466556e-02 -1.466556e-02 0.9999 -0.9143 2.6772)">
				<stop  offset="0" style="stop-color:#007ABA"/>
				<stop  offset="1" style="stop-color:#0360A7"/>
			</linearGradient>
			<path fill="url(#remote-swoosh-top)" d="M55.8,45.6c1.3-0.3,2.7-0.5,4-0.7c-0.5-0.8-1.4-1.3-2.3-1.3l-9-0.1c-1.5,0-2.8,1.2-2.8,2.8
					l-0.1,3.6C48.4,48,51.9,46.5,55.8,45.6z"/>
			<path opacity="0.35" fill="#FFFFFF" d="M57.4,43.5l-9-0.1c-1.5,0-2.8,1.2-2.8,2.8l0,1c0-1.5,1.3-2.8,2.8-2.8l9,0.1
					c1.5,0,2.8,1.3,2.8,2.8l0-1C60.2,44.8,59,43.6,57.4,43.5z"/>

			<g class="buttons">			
				<linearGradient id="remote-red-gradient" gradientUnits="userSpaceOnUse" x1="57.4286" y1="41.2837" x2="57.4286" y2="45.2427" gradientTransform="matrix(0.9999 1.466556e-02 -1.466556e-02 0.9999 -0.9143 2.6772)">
					<stop  offset="0" style="stop-color:#E01313"/>
					<stop  offset="1" style="stop-color:#CE0101"/>
				</linearGradient>
				<circle fill="url(#remote-red-gradient)" cx="55.9" cy="46.8" r="2"/>
				<path opacity="0.2" d="M55.9,48.8c-0.9,0-1.7-0.7-1.9-1.6c-0.1,0.2-0.1,0.4-0.1,0.6c0,1.1,0.9,2,2,2c1.1,0,2-0.9,2-2
							c0-0.2,0-0.3,0-0.4C57.5,48.2,56.8,48.8,55.9,48.8z"/>

						
				<linearGradient id="remote-green-gradient" gradientUnits="userSpaceOnUse" x1="57.455" y1="50.9639" x2="57.455" y2="54.9228" gradientTransform="matrix(0.9999 1.466556e-02 -1.466556e-02 0.9999 -0.9143 2.6772)">
					<stop  offset="0" style="stop-color:#4CC933"/>
					<stop  offset="1" style="stop-color:#39B620"/>
				</linearGradient>
				<circle fill="url(#remote-green-gradient)" cx="55.8" cy="56.5" r="2"/>
				<path opacity="0.2" d="M57.6,56.9c-0.2,0.9-1,1.6-2,1.6c-0.9,0-1.6-0.6-1.8-1.4c0,0.1,0,0.3,0,0.4c0,1.1,0.9,2,2,2s2-0.9,2-2
							C57.7,57.3,57.7,57.1,57.6,56.9z"/>

						
				<linearGradient id="remote-yellow-gradient" gradientUnits="userSpaceOnUse" x1="57.4623" y1="46.1235" x2="57.4623" y2="50.0824" gradientTransform="matrix(0.9999 1.466556e-02 -1.466556e-02 0.9999 -0.9143 2.6772)">
						<stop  offset="0" style="stop-color:#FFE633"/>
						<stop  offset="1" style="stop-color:#FFDE00"/>
				</linearGradient>
				<circle fill="url(#remote-yellow-gradient)" cx="55.8" cy="51.6" r="2"/>
				<path opacity="0.2" d="M57.7,52.1c-0.2,0.9-1,1.5-2,1.5c-0.9,0-1.6-0.6-1.9-1.5c0,0.2-0.1,0.3-0.1,0.5c0,1.1,0.9,2,2,2
							c1.1,0,2-0.9,2-2C57.8,52.5,57.8,52.3,57.7,52.1z"/>
			</g>

			<g class="cable-tip">
				<path fill="#C9C9C9" d="M42.8,59.8h-2c-0.5,0-1-0.5-1-1v-4c0-0.5,0.5-1,1-1h2c0.6,0,1,0.5,1,1v4C43.8,59.4,43.3,59.8,42.8,59.8z"
						/>
				<path opacity="0.6" fill="#FFFFFF" d="M41.8,57.8L41.8,57.8c-0.3,0-0.5-0.2-0.5-0.5v-3c0-0.3,0.2-0.5,0.5-0.5l0,0
						c0.3,0,0.5,0.2,0.5,0.5v3C42.3,57.6,42.1,57.8,41.8,57.8z"/>
			</g>

			<linearGradient id="remote-display" gradientUnits="userSpaceOnUse" x1="47" y1="51.5" x2="52" y2="51.5">
				<stop  offset="0" style="stop-color:#E01313"/>
				<stop  offset="1" style="stop-color:#CE0101"/>
			</linearGradient>
			<rect x="47" y="50" opacity="0.2" fill="url(#remote-display)" width="5" height="3"/>

			<path class="outer" fill="#282828" d="M47.9,39.8c2.5,0,4.6,1.5,5.4,3.7l4.1,0.1c1.5,0,2.8,1.3,2.8,2.8l-0.2,11c0,1.5-1.3,2.8-2.8,2.8
				c0,0,0,0,0,0l-9-0.1c-1.5,0-2.8-1.3-2.8-2.8l0.2-11c0-1.5,1.3-2.8,2.8-2.8c0,0,0,0,0,0l2.6,0c-0.7-1-1.9-1.6-3.2-1.6h-1.2
				c-2.1,0-3.9,1.7-3.9,3.9v8.1c0.6,0,1,0.5,1,1v4c0,0.5-0.4,1-1,1h-2c-0.6,0-1-0.5-1-1v-4c0-0.5,0.4-1,1-1v-8.1
				c0-3.2,2.6-5.9,5.9-5.9H47.9 M47.9,36.8h-1.2c-4.9,0-8.9,4-8.9,8.9v6.5c-0.6,0.7-1,1.6-1,2.6v4c0,2.2,1.8,4,4,4h2
				c0.8,0,1.6-0.3,2.2-0.7c0.9,0.6,2,0.9,3.1,0.9l9,0.1c0,0,0.1,0,0.1,0c3.2,0,5.8-2.6,5.8-5.7l0.2-11c0-1.5-0.6-3-1.6-4.1
				c-1.1-1.1-2.5-1.7-4.1-1.8l-2.3,0C53.5,38.2,50.8,36.8,47.9,36.8L47.9,36.8z"/>

			<path class="edging" opacity="0.65" fill="#FFFFFF" d="M47.9,36.8c2.9,0,5.6,1.4,7.2,3.7l2.3,0c1.5,0,3,0.6,4.1,1.8c1.1,1.1,1.7,2.6,1.6,4.1l-0.2,11
					c0,3.2-2.7,5.7-5.8,5.7c0,0-0.1,0-0.1,0l-9-0.1c-1.1,0-2.2-0.3-3.1-0.9c-0.6,0.4-1.4,0.7-2.2,0.7h-2c-2.2,0-4-1.8-4-4v-4
					c0-1,0.4-1.9,1-2.6v-6.5c0-4.9,4-8.9,8.9-8.9H47.9 M47.9,34.8h-1.2c-6,0-10.9,4.9-10.9,10.9v5.8c-0.6,1-1,2.1-1,3.3v4
					c0,3.3,2.7,6,6,6h2c0.8,0,1.5-0.1,2.2-0.4c1,0.4,2,0.7,3.1,0.7l9,0.1l0.1,0c4.2,0,7.7-3.5,7.8-7.7l0.2-11c0-2.1-0.8-4.1-2.2-5.6
					s-3.4-2.3-5.5-2.4l-1.4,0C54.1,36.2,51.1,34.8,47.9,34.8L47.9,34.8z"/>

			<g class="ethernet-copper" opacity="0.7">
				<path fill="#BD8C42" d="M40.5,59.5L40.5,59.5c-0.2,0-0.3-0.1-0.3-0.2v-0.9c0-0.1,0.1-0.2,0.2-0.2h0.1c0.1,0,0.2,0.1,0.2,0.2v0.9
					C40.7,59.4,40.6,59.5,40.5,59.5z"/>
				<path fill="#BD8C42" d="M43.1,59.5L43.1,59.5c-0.2,0-0.3-0.1-0.3-0.2v-0.9c0-0.1,0.1-0.2,0.2-0.2h0.1c0.1,0,0.2,0.1,0.2,0.2v0.9
					C43.3,59.4,43.2,59.5,43.1,59.5z"/>
				<path fill="#BD8C42" d="M41.2,59.5L41.2,59.5c-0.2,0-0.3-0.1-0.3-0.2v-0.9c0-0.1,0.1-0.2,0.2-0.2h0.1c0.1,0,0.2,0.1,0.2,0.2v0.9
					C41.4,59.4,41.3,59.5,41.2,59.5z"/>
				<path fill="#BD8C42" d="M42.5,59.5L42.5,59.5c-0.2,0-0.3-0.1-0.3-0.2v-0.9c0-0.1,0.1-0.2,0.2-0.2h0.1c0.1,0,0.2,0.1,0.2,0.2v0.9
					C42.6,59.4,42.6,59.5,42.5,59.5z"/>
				<path fill="#BD8C42" d="M41.8,59.5L41.8,59.5c-0.2,0-0.3-0.1-0.3-0.2v-0.9c0-0.1,0.1-0.2,0.2-0.2h0.1c0.1,0,0.2,0.1,0.2,0.2v0.9
					C42,59.4,41.9,59.5,41.8,59.5z"/>
			</g>
		</g>
</svg>