	<svg xmlns="http://www.w3.org/2000/svg" width="48" height="48" viewBox="0 0 100 100">
  <title>running-reversed</title>
	<g id="running-reversed" class="symbol indicator">
			<rect width="100" height="100" fill="none"/>

		    <linearGradient id="running-reversed-gradient" x1="39.51" y1="45.6" x2="55.71" y2="45.6" gradientTransform="matrix(-1, 0, 0, 1, 100, 0)" gradientUnits="userSpaceOnUse">
				<stop offset="0" stop-color="#e01313"/>
				<stop offset="1" stop-color="#ce0101"/>
		    </linearGradient>

		    <g class="animate">

				<path class="outer" d="M39.55,58.57A13.62,13.62,0,0,1,36.78,47.3,13.24,13.24,0,0,1,39,42.2a22.76,22.76,0,0,1,3.66-3.55c1.62-1.45,3.1-3.1,4.64-4.64a8.77,8.77,0,0,1,1.79-1.6,3,3,0,0,1,4.35,2.1A7.63,7.63,0,0,1,53.49,36a2.42,2.42,0,0,0,0,.76c.17.36.54.35,1,.51a13.47,13.47,0,0,1,8.94,13.94A14,14,0,0,1,57.7,61.1a47.13,47.13,0,0,0-4.34,4.26c-.58.57-1.14,1.19-1.74,1.74a3,3,0,0,1-5-1.44,8.25,8.25,0,0,1-.09-1.92c0-.16.08-.52,0-.65s-1.25-.44-1.59-.57A13.51,13.51,0,0,1,39.55,58.57Z" fill="#282828"/>

				<path class="edging" opacity="0.65" d="M50.46,32.07a3,3,0,0,1,3,2.44A7.63,7.63,0,0,1,53.49,36a2.42,2.42,0,0,0,0,.76c.17.36.54.35,1,.51a13.47,13.47,0,0,1,8.94,13.94A14,14,0,0,1,57.7,61.1a47.13,47.13,0,0,0-4.34,4.26c-.58.57-1.14,1.19-1.74,1.74a3.2,3.2,0,0,1-2.15.83,2.9,2.9,0,0,1-2.89-2.27,8.25,8.25,0,0,1-.09-1.92c0-.16.08-.52,0-.65s-1.25-.44-1.59-.57A13.49,13.49,0,0,1,36.78,47.3,13.24,13.24,0,0,1,39,42.2a22.76,22.76,0,0,1,3.66-3.55c1.62-1.45,3.1-3.1,4.64-4.64a8.52,8.52,0,0,1,1.79-1.6,3,3,0,0,1,1.37-.34m0-2h0a5,5,0,0,0-2.3.57,7.62,7.62,0,0,0-1.94,1.61l-.33.35c-.52.52-1,1-1.55,1.59-1,1.05-2,2.05-3,3-.31.28-.61.54-.92.79a17.38,17.38,0,0,0-3,3.08,15.15,15.15,0,0,0-2.56,5.87A15.7,15.7,0,0,0,38,59.84a15.45,15.45,0,0,0,6.15,4.53l.33.12a6.7,6.7,0,0,0,.15,1.62,4.87,4.87,0,0,0,4.84,3.82A5.19,5.19,0,0,0,53,68.58c.45-.41.86-.84,1.26-1.25l.55-.56c.44-.44.87-.89,1.3-1.35a26,26,0,0,1,2.86-2.74,16,16,0,0,0,6.49-11.27A15.46,15.46,0,0,0,55.5,35.54a6.88,6.88,0,0,0-.09-1.39,5,5,0,0,0-4.95-4.08Z" fill="#fff"/>


				<path d="M57,50a7,7,0,0,0-6.5-7v4.44l-6.2-6.21,6.2-6.21v4.47a10.49,10.49,0,0,1,8.38,16.08l-.34.53L56,53.61l.18-.33A6.88,6.88,0,0,0,57,50Z" fill="url(#running-reversed-gradient)"/>

				<path d="M41.12,44.43l.34-.53L44,46.43l-.17.32A7,7,0,0,0,49.49,57V52.56l6.21,6.21L49.49,65V60.51a10.48,10.48,0,0,1-8.37-16.08Z" fill="url(#running-reversed-gradient)"/>


				<polygon class="highlight" points="44.29 41.27 50.49 35.06 50.49 36.06 44.79 41.77 44.29 41.27" fill="#fff" opacity="0.35"/>

				<path class="highlight" d="M57,50.46c0,.19,0,.37,0,.56a6.92,6.92,0,0,1-.65,2.92L56,53.61l.18-.33A7,7,0,0,0,57,50.46Z" fill="#fff" opacity="0.35"/>

				<path class="highlight" d="M50.49,40.53v-1A10.51,10.51,0,0,1,60.49,50c0,.14,0,.27,0,.41A10.51,10.51,0,0,0,50.49,40.53Z" fill="#fff" opacity="0.35"/>

				<path class="highlight" d="M49.49,58A7,7,0,0,1,43,51c0-.15,0-.3,0-.44A7,7,0,0,0,49.49,57Z" fill="#fff" opacity="0.35"/>

				<path class="highlight" d="M43.66,47.1l-2.2-2.2-.34.53a10.5,10.5,0,0,0-1.6,5.18c0-.2,0-.39,0-.59a10.47,10.47,0,0,1,1.63-5.59l.34-.53L44,46.43l-.17.32C43.75,46.87,43.71,47,43.66,47.1Z" fill="#fff" opacity="0.35"/>

				<polygon class="highlight" points="49.49 53.56 49.49 52.56 55.7 58.77 55.2 59.27 49.49 53.56" fill="#fff" opacity="0.35"/>
			</g>
		</g>
</svg>