<svg xmlns="http://www.w3.org/2000/svg" width="48" height="48" viewBox="0 0 100 100">
  <title>running</title>
		<g id="running" class="symbol indicator">
			<rect width="100" height="100" fill="none"/>

			<linearGradient id="running-gradient" x1="39.51" y1="45.6" x2="55.71" y2="45.6" gradientUnits="userSpaceOnUse">
				<stop offset="0" stop-color="#e01313"/>
				<stop offset="1" stop-color="#ce0101"/>
			</linearGradient>

			<g class="animate">
				<path class="outer" d="M60.45,58.57A13.62,13.62,0,0,0,63.22,47.3,13.24,13.24,0,0,0,61,42.2a22.76,22.76,0,0,0-3.66-3.55c-1.62-1.45-3.1-3.1-4.64-4.64a8.77,8.77,0,0,0-1.79-1.6,3,3,0,0,0-4.35,2.1A7.63,7.63,0,0,0,46.51,36a2.42,2.42,0,0,1,0,.76c-.17.36-.54.35-1,.51a13.47,13.47,0,0,0-8.94,13.94A14,14,0,0,0,42.3,61.1a47.13,47.13,0,0,1,4.34,4.26c.58.57,1.14,1.19,1.74,1.74a3,3,0,0,0,5-1.44,8.25,8.25,0,0,0,.09-1.92c0-.16-.08-.52,0-.65s1.25-.44,1.59-.57A13.51,13.51,0,0,0,60.45,58.57Z" fill="#282828"/>

				<path class="edging" opacity="0.65" d="M49.54,32.07a3,3,0,0,1,1.37.34A8.52,8.52,0,0,1,52.7,34c1.54,1.54,3,3.19,4.64,4.64A22.76,22.76,0,0,1,61,42.2a13.24,13.24,0,0,1,2.22,5.1A13.49,13.49,0,0,1,55.1,62.52c-.34.13-1.46.33-1.59.57s0,.49,0,.65a8.25,8.25,0,0,1-.09,1.92,2.9,2.9,0,0,1-2.89,2.27,3.2,3.2,0,0,1-2.15-.83c-.6-.55-1.16-1.17-1.74-1.74A47.13,47.13,0,0,0,42.3,61.1a14,14,0,0,1-5.73-9.87,13.47,13.47,0,0,1,8.94-13.94c.46-.16.83-.15,1-.51a2.42,2.42,0,0,0,0-.76,7.63,7.63,0,0,1,.05-1.51,3,3,0,0,1,3-2.44m0-2a5,5,0,0,0-4.95,4.08,6.88,6.88,0,0,0-.09,1.39,15.46,15.46,0,0,0-9.92,15.87,16,16,0,0,0,6.49,11.27,26,26,0,0,1,2.86,2.74c.43.46.86.91,1.3,1.35l.55.56c.4.41.81.84,1.26,1.25a5.19,5.19,0,0,0,3.49,1.35,4.87,4.87,0,0,0,4.84-3.82,6.7,6.7,0,0,0,.15-1.62l.33-.12A15.45,15.45,0,0,0,62,59.84,15.7,15.7,0,0,0,65.18,46.9,15.15,15.15,0,0,0,62.62,41a17.38,17.38,0,0,0-3-3.08c-.31-.25-.61-.51-.92-.79-1-.92-2-1.92-3-3-.51-.54-1-1.07-1.55-1.59l-.33-.35a7.62,7.62,0,0,0-1.94-1.61,5,5,0,0,0-2.3-.57Z" fill="#fff"/>


				<path class="inner" d="M43,50a7,7,0,0,1,6.5-7v4.44l6.2-6.21-6.2-6.21v4.47a10.49,10.49,0,0,0-8.38,16.08l.34.53L44,53.61l-.18-.33A6.88,6.88,0,0,1,43,50Z" fill="url(#running-gradient)"/>

				<path class="inner" d="M58.88,44.43l-.34-.53L56,46.43l.17.32A7,7,0,0,1,50.51,57V52.56L44.3,58.77,50.51,65V60.51a10.48,10.48,0,0,0,8.37-16.08Z" fill="url(#running-gradient)"/>

				<polygon class="highlight" points="55.71 41.27 49.51 35.06 49.51 36.06 55.21 41.77 55.71 41.27" fill="#fff" opacity="0.35"/>

				<path class="highlight" d="M43,50.46c0,.19,0,.37,0,.56a6.92,6.92,0,0,0,.65,2.92l.34-.33-.18-.33A7,7,0,0,1,43,50.46Z" fill="#fff" opacity="0.35"/>

				<path class="highlight" d="M49.51,40.53v-1A10.51,10.51,0,0,0,39.51,50c0,.14,0,.27,0,.41A10.51,10.51,0,0,1,49.51,40.53Z" fill="#fff" opacity="0.35"/>

				<path class="highlight" d="M50.51,58A7,7,0,0,0,57,51c0-.15,0-.3,0-.44A7,7,0,0,1,50.51,57Z" fill="#fff" opacity="0.35"/>

				<path class="highlight" d="M56.34,47.1l2.2-2.2.34.53a10.5,10.5,0,0,1,1.6,5.18c0-.2,0-.39,0-.59a10.47,10.47,0,0,0-1.63-5.59l-.34-.53L56,46.43l.17.32C56.25,46.87,56.29,47,56.34,47.1Z" fill="#fff" opacity="0.35"/>

				<polygon class="highlight" points="50.51 53.56 50.51 52.56 44.3 58.77 44.8 59.27 50.51 53.56" fill="#fff" opacity="0.35"/>
			</g>
		</g>
</svg>