<svg xmlns="http://www.w3.org/2000/svg" width="48" height="48" viewBox="0 0 100 100"><title>sensor</title><g class="symbol fill dynamic"><path d="M50.5 56.3c-2.1 0-3.8-1.7-3.8-3.8 0-1.7 1.2-3.2 2.8-3.7V38.6h2.2v10.2c1.5.5 2.6 1.9 2.6 3.6 0 2.2-1.7 3.9-3.8 3.9z"/><clipPath id="b"><use overflow="visible"/></clipPath><path class="edging" opacity=".65" fill="#FFF" d="M52.3 36.2c.6 0 1.1.5 1.1 1.1v9.9c1.9 1 3.1 3 3.1 5.3 0 3.3-2.7 6-6 6s-6-2.7-6-6c0-2.3 1.3-4.3 3.1-5.3v-9.9c0-.6.3-1.1.9-1.1h3.8m0-2.5h-3.8c-2 0-3.4 1.5-3.4 3.6v8.6c-2 1.6-3.1 4-3.1 6.6 0 4.7 3.8 8.5 8.5 8.5s8.5-3.8 8.5-8.5c0-2.6-1.2-5-3.1-6.6v-8.6c0-2-1.6-3.6-3.6-3.6z"/><path class="outer" fill="#282828" d="M52.3 36.2h-3.8c-.6 0-.9.5-.9 1.1v9.9c-1.9 1-3.1 3-3.1 5.3 0 3.3 2.7 6 6 6s6-2.7 6-6c0-2.3-1.3-4.3-3.1-5.3v-9.9c0-.6-.5-1.1-1.1-1.1zm2 16.3c0 2.1-1.7 3.8-3.8 3.8s-3.8-1.7-3.8-3.8c0-1.7 1.2-3.2 2.8-3.7V38.6h2.2v10.2c1.5.6 2.6 2 2.6 3.7z"/><linearGradient id="a" gradientUnits="userSpaceOnUse" x1="46.697" y1="47.464" x2="54.303" y2="47.464"><stop offset="0" stop-color="#e01313"/><stop offset="1" stop-color="#ce0101"/></linearGradient><path class="inner" fill="url(#a)" d="M50.5 56.3c-2.1 0-3.8-1.7-3.8-3.8 0-1.7 1.2-3.2 2.8-3.7V38.6h2.2v10.2c1.5.5 2.6 1.9 2.6 3.6 0 2.2-1.7 3.9-3.8 3.9z"/><path d="M51.7 49.9c1.3.4 2.4 1.6 2.6 3.1v-.4c0-1.7-1.1-3.1-2.6-3.6v.9zm-2.2-.1v-1c-1.6.5-2.8 1.9-2.8 3.7v.5c.3-1.5 1.3-2.8 2.8-3.2z" opacity=".4" class="highlight highlight-bottom" fill="#FFF"/><g clip-path="url(#b)"><path data-position-0="0" data-position-100="-18" class="clipper" fill="#282828" d="M42.4 38.6h16.2v17.7H42.4z"/><path data-position-0="0" data-position-100="-18" class="highlight clipper-highlight" opacity=".4" fill="#FFF" d="M42.5 55.6h16.1v1H42.5z"/></g></g></svg>