<svg xmlns="http://www.w3.org/2000/svg" width="48" height="48" viewBox="0 0 100 100">
  <title>skull</title>
  <g id="skull" class="symbol static">
			<g id="bound">
				<rect class="" x="0" y="0" width="100" height="100" opacity="0"/>
			</g>

			<path class="outer" fill="#282828" d="M73.8,30.1c-5.2-7.7-15-9.6-22.3-9.8c-0.6,0-1.1,0-1.7,0c-10.4,0-18.6,3.3-23,9.4c-4.2,5.8-4.9,13.4-2,22.8
				c0.7,2.2,0.5,2.5,0.4,2.9c-0.4,0.9-1,2.4-0.7,4.8c0.6,5,5.2,8.2,9.6,9.2c0,1.6,0.2,3.2,0.6,4.7c0.3,1.2,1.2,2.2,2.3,2.8
				c3.7,1.9,7.7,2.9,12.1,2.9c0.3,0,0.6,0,0.9,0l0.1,0c0,0,0.1,0,0.1,0c0.1,0,0.3,0,0.4,0c4.7-0.2,9-1.5,11.8-2.4
				c1.2-0.4,2.1-1.2,2.6-2.3c0.9-2,1.1-4.2,0.9-6.3c4.2-1.2,7.5-4.6,8.7-7.9c1.2-3.1,0.6-5.2,0.2-6.4c-0.2-0.6-0.2-0.7,0.1-1.6
				C78.1,43.5,77.7,35.9,73.8,30.1z"/>

			<path class="edging" opacity="0.65" fill="#FFFFFF" d="M49.8,20.2c0.6,0,1.1,0,1.7,0c7.3,0.3,17.1,2.2,22.3,9.8c3.9,5.8,4.3,13.4,1,22.7c-0.3,1-0.3,1-0.1,1.6
				c0.4,1.2,1.1,3.3-0.2,6.4c-1.3,3.3-4.6,6.7-8.7,7.9c0.2,2.1,0,4.3-0.9,6.3c-0.5,1.1-1.5,2-2.6,2.3c-2.8,0.9-7.1,2.2-11.8,2.4
				c-0.1,0-0.2,0-0.4,0c0,0-0.1,0-0.1,0l-0.1,0c-0.3,0-0.6,0-0.9,0c-4.3,0-8.4-1-12.1-2.9c-1.1-0.6-1.9-1.6-2.3-2.8
				c-0.4-1.5-0.6-3.1-0.6-4.7c-4.3-1-9-4.2-9.6-9.2c-0.3-2.4,0.3-3.9,0.7-4.8c0.2-0.4,0.3-0.8-0.4-2.9c-2.9-9.4-2.3-17,2-22.8
				C31.2,23.6,39.4,20.2,49.8,20.2 M49.8,18.2c-11.1,0-19.8,3.6-24.7,10.2C20.5,34.7,19.7,43,22.9,53c0.3,1,0.4,1.5,0.4,1.6
				c-0.4,1-1.1,2.9-0.8,5.7c0.6,5.6,5.3,9,9.6,10.5c0.1,1.3,0.3,2.5,0.6,3.7c0.5,1.8,1.7,3.2,3.3,4.1c4,2.1,8.3,3.1,13,3.1
				c0.3,0,0.7,0,1,0l0,0l0.1,0c0.2,0,0.4,0,0.5,0c5-0.2,9.4-1.6,12.3-2.5c1.7-0.6,3.1-1.8,3.8-3.4c0.8-1.7,1.2-3.6,1.2-5.7
				c4.3-1.8,7.3-5.4,8.5-8.5c1.5-3.8,0.7-6.4,0.2-7.8c0,0,0,0,0,0c0-0.1,0.1-0.2,0.1-0.3c3.5-9.9,3.1-18.1-1.2-24.4
				c-5.7-8.4-16.1-10.4-23.9-10.7C51,18.2,50.4,18.2,49.8,18.2L49.8,18.2z"/>

			<linearGradient id="skull-gradient" gradientUnits="userSpaceOnUse" x1="26" y1="50" x2="74" y2="50">
				<stop  offset="0" style="stop-color:#E6E6E6"/>
				<stop  offset="1" style="stop-color:#CCCCCC"/>
			</linearGradient>
			<path fill="url(#skull-gradient)" d="M71.3,31.8c-4.5-6.6-13.3-8.3-19.9-8.5c-0.5,0-1.1,0-1.6,0c-9.4,0-16.8,2.9-20.6,8.2
				c-3.6,5-4.2,11.7-1.5,20.1c1,3.2,0.7,4,0.3,4.9c-0.3,0.8-0.7,1.7-0.5,3.4c0.5,4.4,6,6.9,9.5,6.9h0c0.1,0,0.2,0,0.3,0
				c-0.4,2.1-0.4,4.4,0.2,6.6c0.1,0.4,0.4,0.7,0.8,0.9c3.2,1.7,6.8,2.5,10.7,2.5c0.3,0,0.7,0,1,0c0,0,0,0,0.1,0c0,0,0.1,0,0.1,0
				c4.3-0.2,8.4-1.4,11.1-2.3c0.4-0.1,0.7-0.4,0.9-0.8c1-2.1,0.8-4.6,0.2-7.6c0.1,0,0.2,0,0.3,0h0c4.1,0,7.8-3.3,9-6.4
				c0.8-2.1,0.4-3.4,0.1-4.4c-0.3-0.9-0.5-1.7,0.1-3.6C74.9,43.5,74.7,36.7,71.3,31.8z"/>
			<g>
				<path fill="#282828" d="M47.5,50.1c0.1-0.3,0.2-0.6,0.2-0.8c0.4-1.2,0.3-2.2-0.2-3.1c-0.8-1.4-2.6-2-4.9-2.4
					c-0.5-0.1-1.1-0.1-1.7-0.1c-2.2,0-5,0.7-6.4,2.8c-0.7,1-1.3,2.6-0.4,4.9c1.2,3.2,3.4,5.1,6.1,5.1c0.2,0,0.3,0,0.5,0
					C45.9,56,46.9,52.3,47.5,50.1z"/>
				<path fill="#282828" d="M59.1,43.7c-0.6,0-1.1,0-1.7,0.1c-2.3,0.4-4,1-4.9,2.4c-0.5,0.9-0.6,1.9-0.2,3.1c0.1,0.3,0.2,0.5,0.2,0.8
					c0.6,2.2,1.6,5.9,6.8,6.3c0.2,0,0.3,0,0.5,0c2.7,0,4.9-1.8,6.1-5.1c0.9-2.3,0.2-4-0.4-4.9C64.1,44.4,61.3,43.7,59.1,43.7z"/>
				<path fill="#282828" d="M51.3,54.8C51.1,54.3,50.6,54,50,54s-1.1,0.3-1.3,0.8l-3.2,6.7c-0.2,0.4-0.2,1,0.1,1.4
					c0.3,0.4,0.7,0.7,1.2,0.7h6.5c0,0,0,0,0,0c0.8,0,1.4-0.6,1.4-1.4c0-0.3-0.1-0.6-0.2-0.8L51.3,54.8z"/>
				<g>
					<path fill="#282828" d="M50,69c-0.8,0-1.5,0.7-1.5,1.5v6c0,0.8,0.7,1.5,1.5,1.5s1.5-0.7,1.5-1.5v-6C51.5,69.7,50.8,69,50,69z"/>
					<path fill="#282828" d="M43,69c-0.8,0-1.5,0.7-1.5,1.5v6c0,0.8,0.7,1.5,1.5,1.5s1.5-0.7,1.5-1.5v-6C44.5,69.7,43.8,69,43,69z"/>
					<path fill="#282828" d="M57,69c-0.8,0-1.5,0.7-1.5,1.5v6c0,0.8,0.7,1.5,1.5,1.5s1.5-0.7,1.5-1.5v-6C58.5,69.7,57.8,69,57,69z"/>
				</g>
				<path class="highlight" fill="#F2F2F2" fill-opacity="0.35" d="M47.7,49.3c-0.1,0.3-0.2,0.5-0.2,0.8c-0.6,2.2-1.6,5.9-6.8,6.3c-0.2,0-0.3,0-0.5,0
					c-2.7,0-4.9-1.8-6.1-5.1c-0.2-0.6-0.3-1.1-0.4-1.7c-0.1,0.8,0,1.6,0.4,2.7c1.2,3.2,3.4,5.1,6.1,5.1c0.2,0,0.3,0,0.5,0
					c5.2-0.4,6.2-4.1,6.8-6.3c0.1-0.3,0.2-0.6,0.2-0.8c0.2-0.7,0.3-1.3,0.2-1.8C47.8,48.8,47.8,49,47.7,49.3z"/>
				<path class="highlight" fill="#F2F2F2" fill-opacity="0.35" d="M66,51.4c-1.2,3.2-3.4,5.1-6.1,5.1c-0.2,0-0.3,0-0.5,0c-5.2-0.4-6.2-4.1-6.8-6.3
					c-0.1-0.3-0.2-0.6-0.2-0.8c-0.1-0.3-0.2-0.6-0.2-0.8c-0.1,0.6,0,1.2,0.2,1.8c0.1,0.3,0.2,0.5,0.2,0.8c0.6,2.2,1.6,5.9,6.8,6.3
					c0.2,0,0.3,0,0.5,0c2.7,0,4.9-1.8,6.1-5.1c0.4-1,0.5-1.9,0.4-2.7C66.3,50.2,66.2,50.8,66,51.4z"/>
				<path class="highlight" fill="#F2F2F2" fill-opacity="0.35" d="M53.3,63.5C53.3,63.5,53.3,63.5,53.3,63.5h-6.5c-0.5,0-1-0.3-1.2-0.7
					c-0.1-0.1-0.1-0.2-0.1-0.3c-0.2,0.4-0.1,0.9,0.1,1.3c0.3,0.4,0.7,0.7,1.2,0.7h6.5c0,0,0,0,0,0c0.8,0,1.4-0.6,1.4-1.4
					c0-0.2,0-0.3-0.1-0.5C54.4,63.2,53.9,63.5,53.3,63.5z"/>

				<path fill="#F2F2F2" fill-opacity="0.35" d="M29.2,33.4c3.9-5.3,11.2-8.2,20.6-8.2c0.5,0,1.1,0,1.6,0c6.6,0.2,15.4,1.9,19.9,8.5
					c1.6,2.4,2.5,5.2,2.7,8.4c0.2-4-0.7-7.5-2.7-10.4c-4.5-6.6-13.3-8.3-19.9-8.5c-0.5,0-1.1,0-1.6,0c-9.4,0-16.8,2.9-20.6,8.2
					c-2.3,3.1-3.3,7-3.1,11.5C26.2,39.2,27.2,36.1,29.2,33.4z"/>
				<path fill="#F2F2F2" fill-opacity="0.35" d="M37.1,68.7c0,0.6,0,1.2,0,1.8c0-0.6,0.1-1.2,0.2-1.8C37.2,68.7,37.2,68.7,37.1,68.7z"
					/>
				<path fill="#F2F2F2" fill-opacity="0.35" d="M62.3,68.1c0.2,1.1,0.4,2.1,0.4,3c0.1-0.9,0-2-0.1-3C62.6,68.1,62.4,68.1,62.3,68.1z"
					/>
				<path fill="#F2F2F2" fill-opacity="0.35" d="M28.2,55.7C28.1,56,28,56.2,28,56.5c-0.3,0.8-0.7,1.7-0.5,3.4c0,0.1,0,0.1,0,0.2
					c0.1-0.6,0.3-1.1,0.5-1.6C28.2,57.8,28.4,57.2,28.2,55.7z"/>
				<path fill="#F2F2F2" fill-opacity="0.35" d="M71.6,54.8c-0.3,1.2-0.1,1.8,0.2,2.5c0.1,0.3,0.2,0.7,0.3,1.1c0.3-1.4,0-2.3-0.3-3.1
					C71.7,55.1,71.7,55,71.6,54.8z"/>
			</g>
	</g>
</svg>