<svg xmlns="http://www.w3.org/2000/svg" width="48" height="48" viewBox="0 0 100 100"><title>skull</title><g class="symbol static"><path class="outer" fill="#282828" d="M73.8 30.1c-5.2-7.7-15-9.6-22.3-9.8h-1.7c-10.4 0-18.6 3.3-23 9.4-4.2 5.8-4.9 13.4-2 22.8.7 2.2.5 2.5.4 2.9-.4.9-1 2.4-.7 4.8.6 5 5.2 8.2 9.6 9.2 0 1.6.2 3.2.6 4.7.3 1.2 1.2 2.2 2.3 2.8 3.7 1.9 7.7 2.9 12.1 2.9h1.5c4.7-.2 9-1.5 11.8-2.4 1.2-.4 2.1-1.2 2.6-2.3.9-2 1.1-4.2.9-6.3 4.2-1.2 7.5-4.6 8.7-7.9 1.2-3.1.6-5.2.2-6.4-.2-.6-.2-.7.1-1.6 3.2-9.4 2.8-17-1.1-22.8z"/><path class="edging" opacity=".65" fill="#FFF" d="M49.8 20.2h1.7c7.3.3 17.1 2.2 22.3 9.8 3.9 5.8 4.3 13.4 1 22.7-.3 1-.3 1-.1 1.6.4 1.2 1.1 3.3-.2 6.4-1.3 3.3-4.6 6.7-8.7 7.9.2 2.1 0 4.3-.9 6.3-.5 1.1-1.5 2-2.6 2.3-2.8.9-7.1 2.2-11.8 2.4H49c-4.3 0-8.4-1-12.1-2.9-1.1-.6-1.9-1.6-2.3-2.8-.4-1.5-.6-3.1-.6-4.7-4.3-1-9-4.2-9.6-9.2-.3-2.4.3-3.9.7-4.8.2-.4.3-.8-.4-2.9-2.9-9.4-2.3-17 2-22.8 4.5-5.9 12.7-9.3 23.1-9.3m0-2c-11.1 0-19.8 3.6-24.7 10.2-4.6 6.3-5.4 14.6-2.2 24.6.3 1 .4 1.5.4 1.6-.4 1-1.1 2.9-.8 5.7.6 5.6 5.3 9 9.6 10.5.1 1.3.3 2.5.6 3.7.5 1.8 1.7 3.2 3.3 4.1 4 2.1 8.3 3.1 13 3.1h1.6c5-.2 9.4-1.6 12.3-2.5 1.7-.6 3.1-1.8 3.8-3.4.8-1.7 1.2-3.6 1.2-5.7 4.3-1.8 7.3-5.4 8.5-8.5 1.5-3.8.7-6.4.2-7.8 0-.1.1-.2.1-.3 3.5-9.9 3.1-18.1-1.2-24.4-5.7-8.4-16.1-10.4-23.9-10.7-.6-.2-1.2-.2-1.8-.2z"/><linearGradient id="a" gradientUnits="userSpaceOnUse" x1="26" y1="50" x2="74" y2="50"><stop offset="0" stop-color="#e6e6e6"/><stop offset="1" stop-color="#ccc"/></linearGradient><path fill="url(#a)" d="M71.3 31.8c-4.5-6.6-13.3-8.3-19.9-8.5h-1.6c-9.4 0-16.8 2.9-20.6 8.2-3.6 5-4.2 11.7-1.5 20.1 1 3.2.7 4 .3 4.9-.3.8-.7 1.7-.5 3.4.5 4.4 6 6.9 9.5 6.9h.3c-.4 2.1-.4 4.4.2 6.6.1.4.4.7.8.9 3.2 1.7 6.8 2.5 10.7 2.5h1.2c4.3-.2 8.4-1.4 11.1-2.3.4-.1.7-.4.9-.8 1-2.1.8-4.6.2-7.6h.3c4.1 0 7.8-3.3 9-6.4.8-2.1.4-3.4.1-4.4-.3-.9-.5-1.7.1-3.6 3-8.2 2.8-15-.6-19.9z"/><path fill="#282828" d="M47.5 50.1c.1-.3.2-.6.2-.8.4-1.2.3-2.2-.2-3.1-.8-1.4-2.6-2-4.9-2.4-.5-.1-1.1-.1-1.7-.1-2.2 0-5 .7-6.4 2.8-.7 1-1.3 2.6-.4 4.9 1.2 3.2 3.4 5.1 6.1 5.1h.5c5.2-.5 6.2-4.2 6.8-6.4zm11.6-6.4c-.6 0-1.1 0-1.7.1-2.3.4-4 1-4.9 2.4-.5.9-.6 1.9-.2 3.1.1.3.2.5.2.8.6 2.2 1.6 5.9 6.8 6.3h.5c2.7 0 4.9-1.8 6.1-5.1.9-2.3.2-4-.4-4.9-1.4-2-4.2-2.7-6.4-2.7zm-7.8 11.1c-.2-.5-.7-.8-1.3-.8s-1.1.3-1.3.8l-3.2 6.7c-.2.4-.2 1 .1 1.4.3.4.7.7 1.2.7h6.5c.8 0 1.4-.6 1.4-1.4 0-.3-.1-.6-.2-.8l-3.2-6.6zM50 69c-.8 0-1.5.7-1.5 1.5v6c0 .8.7 1.5 1.5 1.5s1.5-.7 1.5-1.5v-6c0-.8-.7-1.5-1.5-1.5zm-7 0c-.8 0-1.5.7-1.5 1.5v6c0 .8.7 1.5 1.5 1.5s1.5-.7 1.5-1.5v-6c0-.8-.7-1.5-1.5-1.5zm14 0c-.8 0-1.5.7-1.5 1.5v6c0 .8.7 1.5 1.5 1.5s1.5-.7 1.5-1.5v-6c0-.8-.7-1.5-1.5-1.5z"/><path class="highlight" fill="#F2F2F2" fill-opacity=".35" d="M47.7 49.3c-.1.3-.2.5-.2.8-.6 2.2-1.6 5.9-6.8 6.3h-.5c-2.7 0-4.9-1.8-6.1-5.1-.2-.6-.3-1.1-.4-1.7-.1.8 0 1.6.4 2.7 1.2 3.2 3.4 5.1 6.1 5.1h.5c5.2-.4 6.2-4.1 6.8-6.3.1-.3.2-.6.2-.8.2-.7.3-1.3.2-1.8-.1.3-.1.5-.2.8zM66 51.4c-1.2 3.2-3.4 5.1-6.1 5.1h-.5c-5.2-.4-6.2-4.1-6.8-6.3-.1-.3-.2-.6-.2-.8-.1-.3-.2-.6-.2-.8-.1.6 0 1.2.2 1.8.1.3.2.5.2.8.6 2.2 1.6 5.9 6.8 6.3h.5c2.7 0 4.9-1.8 6.1-5.1.4-1 .5-1.9.4-2.7-.1.5-.2 1.1-.4 1.7zM53.3 63.5h-6.5c-.5 0-1-.3-1.2-.7-.1-.1-.1-.2-.1-.3-.2.4-.1.9.1 1.3.3.4.7.7 1.2.7h6.5c.8 0 1.4-.6 1.4-1.4 0-.2 0-.3-.1-.5-.2.6-.7.9-1.3.9z"/><path fill="#F2F2F2" fill-opacity=".35" d="M29.2 33.4c3.9-5.3 11.2-8.2 20.6-8.2h1.6c6.6.2 15.4 1.9 19.9 8.5 1.6 2.4 2.5 5.2 2.7 8.4.2-4-.7-7.5-2.7-10.4-4.5-6.6-13.3-8.3-19.9-8.5h-1.6c-9.4 0-16.8 2.9-20.6 8.2-2.3 3.1-3.3 7-3.1 11.5.1-3.7 1.1-6.8 3.1-9.5zm7.9 35.3v1.8c0-.6.1-1.2.2-1.8h-.2zm25.2-.6c.2 1.1.4 2.1.4 3 .1-.9 0-2-.1-3h-.3zM28.2 55.7c-.1.3-.2.5-.2.8-.3.8-.7 1.7-.5 3.4v.2c.1-.6.3-1.1.5-1.6.2-.7.4-1.3.2-2.8zm43.4-.9c-.3 1.2-.1 1.8.2 2.5.1.3.2.7.3 1.1.3-1.4 0-2.3-.3-3.1-.1-.2-.1-.3-.2-.5z"/></g></svg>