<svg xmlns="http://www.w3.org/2000/svg" width="48" height="48" viewBox="0 0 100 100">
  <title>soft-starter</title>
		<g id="soft-starter" class="symbol">
			<g id="bound">
				<rect class="" x="0" y="0" width="100" height="100" opacity="0"/>
			</g>
			<path class="edging" opacity="0.65" fill="#FFFFFF" d="M87.4,52.9l-6-10c-0.2-0.3-0.3-0.5-0.5-0.7c0.7-0.7,1.1-1.7,1.1-2.7V33c0-2.2-1.8-4-4-4H54
				v-6c0-2.2-1.8-4-4-4s-4,1.8-4,4v6H22c-2.2,0-4,1.8-4,4v8h-2c-1.4,0-2.8,0.8-3.5,2c-0.7,1.3-0.7,2.8,0.1,4l6,10
				c0.1,0.2,0.3,0.4,0.4,0.6c-0.6,0.7-1,1.6-1,2.6V67c0,2.2,1.8,4,4,4h24v6c0,2.2,1.8,4,4,4s4-1.8,4-4v-6h24c2.2,0,4-1.8,4-4v-8h2
				c1.4,0,2.8-0.8,3.5-2C88.2,55.7,88.2,54.2,87.4,52.9z M14.3,46c-0.4-0.6-0.4-1.4,0-2c0.4-0.6,1-1,1.7-1h4V33c0-1.1,0.9-2,2-2h26v-8
				c0-1.1,0.9-2,2-2s2,0.9,2,2v8h26c1.1,0,2,0.9,2,2v6.5c0,0.7-0.4,1.3-0.9,1.7C78.8,41.1,78.4,41,78,41s-0.8,0.1-1.1,0.2
				c-0.5-0.4-0.9-1-0.9-1.7V35H24v8h4c0.7,0,1.4,0.4,1.7,1c0.4,0.6,0.3,1.4,0,2l-6,10c-0.1,0.2-0.2,0.3-0.4,0.5
				c-0.4-0.1-0.9-0.2-1.3-0.2s-0.9,0.1-1.3,0.2c-0.2-0.1-0.3-0.3-0.4-0.5L14.3,46z M68.5,57c0.7,1.3,2,2,3.5,2h2v4H26v-2.8
				c0-1-0.4-1.9-1-2.6c0.2-0.2,0.3-0.4,0.4-0.6l6-10c0.7-1.2,0.8-2.8,0.1-4c-0.7-1.3-2-2-3.5-2h-2v-4h48v2.5c0,1.1,0.4,2,1.1,2.7
				c-0.2,0.2-0.4,0.4-0.5,0.7l-6,10C67.8,54.2,67.8,55.7,68.5,57z M85.7,56c-0.4,0.6-1,1-1.7,1h-4v10c0,1.1-0.9,2-2,2H52v8
				c0,1.1-0.9,2-2,2s-2-0.9-2-2v-8H22c-1.1,0-2-0.9-2-2v-6.8c0-0.6,0.3-1.1,0.7-1.5c0.4,0.1,0.9,0.2,1.3,0.2s0.9-0.1,1.3-0.2
				c0.4,0.4,0.7,0.9,0.7,1.5V65h52v-8h-4c-0.7,0-1.4-0.4-1.7-1c-0.4-0.6-0.3-1.4,0-2l6-10c0.2-0.3,0.4-0.5,0.6-0.6
				c0.3,0.1,0.7,0.2,1.1,0.2s0.7-0.1,1.1-0.2c0.3,0.2,0.5,0.4,0.6,0.6l6,10C86.1,54.6,86.1,55.4,85.7,56z"/>
			<path class="outer" fill="#282828" d="M78,31H52v-8c0-1.1-0.9-2-2-2s-2,0.9-2,2v8H22c-1.1,0-2,0.9-2,2v10h-4c-0.7,0-1.4,0.4-1.7,1
				c-0.4,0.6-0.3,1.4,0,2l6,10c0.4,0.6,1,1,1.7,1s1.4-0.4,1.7-1l6-10c0.4-0.6,0.4-1.4,0-2c-0.4-0.6-1-1-1.7-1h-4v-8h52v4.5
				c0,1.1,0.9,2,2,2s2-0.9,2-2V33C80,31.9,79.1,31,78,31z"/>
			<path class="outer" fill="#282828" d="M85.7,56c0.4-0.6,0.3-1.4,0-2l-6-10c-0.4-0.6-1-1-1.7-1s-1.4,0.4-1.7,1l-6,10c-0.4,0.6-0.4,1.4,0,2
				c0.4,0.6,1,1,1.7,1h4v8H24v-4.8c0-1.1-0.9-2-2-2s-2,0.9-2,2V67c0,1.1,0.9,2,2,2h26v8c0,1.1,0.9,2,2,2s2-0.9,2-2v-8h26
				c1.1,0,2-0.9,2-2V57h4C84.7,57,85.4,56.6,85.7,56z"/>
		</g>
</svg>