<svg xmlns="http://www.w3.org/2000/svg" width="48" height="48" viewBox="0 0 100 100"><title>soft-starter</title><g class="symbol"><path class="edging" opacity=".65" fill="#FFF" d="M87.4 52.9l-6-10c-.2-.3-.3-.5-.5-.7.7-.7 1.1-1.7 1.1-2.7V33c0-2.2-1.8-4-4-4H54v-6c0-2.2-1.8-4-4-4s-4 1.8-4 4v6H22c-2.2 0-4 1.8-4 4v8h-2c-1.4 0-2.8.8-3.5 2-.7 1.3-.7 2.8.1 4l6 10c.1.2.3.4.4.6-.6.7-1 1.6-1 2.6V67c0 2.2 1.8 4 4 4h24v6c0 2.2 1.8 4 4 4s4-1.8 4-4v-6h24c2.2 0 4-1.8 4-4v-8h2c1.4 0 2.8-.8 3.5-2 .7-1.3.7-2.8-.1-4.1zM14.3 46c-.4-.6-.4-1.4 0-2 .4-.6 1-1 1.7-1h4V33c0-1.1.9-2 2-2h26v-8c0-1.1.9-2 2-2s2 .9 2 2v8h26c1.1 0 2 .9 2 2v6.5c0 .7-.4 1.3-.9 1.7-.3-.1-.7-.2-1.1-.2s-.8.1-1.1.2c-.5-.4-.9-1-.9-1.7V35H24v8h4c.7 0 1.4.4 1.7 1 .4.6.3 1.4 0 2l-6 10c-.1.2-.2.3-.4.5-.4-.1-.9-.2-1.3-.2s-.9.1-1.3.2c-.2-.1-.3-.3-.4-.5l-6-10zm54.2 11c.7 1.3 2 2 3.5 2h2v4H26v-2.8c0-1-.4-1.9-1-2.6.2-.2.3-.4.4-.6l6-10c.7-1.2.8-2.8.1-4-.7-1.3-2-2-3.5-2h-2v-4h48v2.5c0 1.1.4 2 1.1 2.7-.2.2-.4.4-.5.7l-6 10c-.8 1.3-.8 2.8-.1 4.1zm17.2-1c-.4.6-1 1-1.7 1h-4v10c0 1.1-.9 2-2 2H52v8c0 1.1-.9 2-2 2s-2-.9-2-2v-8H22c-1.1 0-2-.9-2-2v-6.8c0-.6.3-1.1.7-1.5.4.1.9.2 1.3.2s.9-.1 1.3-.2c.4.4.7.9.7 1.5V65h52v-8h-4c-.7 0-1.4-.4-1.7-1-.4-.6-.3-1.4 0-2l6-10c.2-.3.4-.5.6-.6.3.1.7.2 1.1.2s.7-.1 1.1-.2c.3.2.5.4.6.6l6 10c.4.6.4 1.4 0 2z"/><path class="outer" fill="#282828" d="M78 31H52v-8c0-1.1-.9-2-2-2s-2 .9-2 2v8H22c-1.1 0-2 .9-2 2v10h-4c-.7 0-1.4.4-1.7 1-.4.6-.3 1.4 0 2l6 10c.4.6 1 1 1.7 1s1.4-.4 1.7-1l6-10c.4-.6.4-1.4 0-2-.4-.6-1-1-1.7-1h-4v-8h52v4.5c0 1.1.9 2 2 2s2-.9 2-2V33c0-1.1-.9-2-2-2zm7.7 25c.4-.6.3-1.4 0-2l-6-10c-.4-.6-1-1-1.7-1s-1.4.4-1.7 1l-6 10c-.4.6-.4 1.4 0 2 .4.6 1 1 1.7 1h4v8H24v-4.8c0-1.1-.9-2-2-2s-2 .9-2 2V67c0 1.1.9 2 2 2h26v8c0 1.1.9 2 2 2s2-.9 2-2v-8h26c1.1 0 2-.9 2-2V57h4c.7 0 1.4-.4 1.7-1z"/></g></svg>