	<svg xmlns="http://www.w3.org/2000/svg" width="48" height="48" viewBox="0 0 100 100">
  <title>solar</title>
	<g id="solar" class="symbol static energy">
			<path class="outer" fill="#282828" d="M70,75H30c-2.8,0-5-2.2-5-5V30c0-2.8,2.2-5,5-5h40c2.8,0,5,2.2,5,5v40C75,72.8,72.8,75,70,75z"/>
				<path class="edging" opacity="0.65" fill="#FFFFFF" d="M70,25c2.8,0,5,2.2,5,5v40c0,2.8-2.2,5-5,5H30c-2.8,0-5-2.2-5-5V30c0-2.8,2.2-5,5-5H70 M70,23H30
					c-3.9,0-7,3.1-7,7v40c0,3.9,3.1,7,7,7h40c3.9,0,7-3.1,7-7V30C77,26.1,73.9,23,70,23L70,23z"/>

			<linearGradient id="solar-background" gradientUnits="userSpaceOnUse" x1="50" y1="28" x2="50" y2="72">
				<stop  offset="0" style="stop-color:#007ABA"/>
				<stop  offset="1" style="stop-color:#0360A7"/>
			</linearGradient>
			<path fill="url(#solar-background)" d="M69,72H31c-1.7,0-3-1.3-3-3V31c0-1.7,1.3-3,3-3h38c1.7,0,3,1.3,3,3v38C72,70.7,70.7,72,69,72z"/>
			
			<g class="highlight" opacity="0.2">
				<line fill="none" stroke="#FFFFFF" stroke-miterlimit="10" x1="31" y1="28" x2="31" y2="72"/>
				<line fill="none" stroke="#FFFFFF" stroke-miterlimit="10" x1="34" y1="28" x2="34" y2="72"/>

				<line fill="none" stroke="#FFFFFF" stroke-miterlimit="10" x1="39.8" y1="28" x2="39.8" y2="72"/>
				<line fill="none" stroke="#FFFFFF" stroke-miterlimit="10" x1="42.8" y1="28" x2="42.8" y2="72"/>

				<line fill="none" stroke="#FFFFFF" stroke-miterlimit="10" x1="48.5" y1="28" x2="48.5" y2="72"/>
				<line fill="none" stroke="#FFFFFF" stroke-miterlimit="10" x1="51.5" y1="28" x2="51.5" y2="72"/>

				<line fill="none" stroke="#FFFFFF" stroke-miterlimit="10" x1="57.5" y1="28" x2="57.5" y2="72"/>
				<line fill="none" stroke="#FFFFFF" stroke-miterlimit="10" x1="60.5" y1="28" x2="60.5" y2="72"/>

				<line fill="none" stroke="#FFFFFF" stroke-miterlimit="10" x1="66.2" y1="28" x2="66.2" y2="72"/>
				<line fill="none" stroke="#FFFFFF" stroke-miterlimit="10" x1="69.2" y1="28" x2="69.2" y2="72"/>
			</g>

			<g class="lines highlight">
				<polygon fill="#282828" points="28,37.5 28.5,38.5 29.5,39 28.5,39.5 28,40.5 27.5,39.5 26.5,39 27.5,38.5 		"/>
				<polygon fill="#282828" points="28,48.5 28.5,49.5 29.5,50 28.5,50.5 28,51.5 27.5,50.5 26.5,50 27.5,49.5 		"/>
				<polygon fill="#282828" points="28,59.5 28.5,60.5 29.5,61 28.5,61.5 28,62.5 27.5,61.5 26.5,61 27.5,60.5 		"/>
				<polygon fill="#282828" points="72,37.5 72.5,38.5 73.5,39 72.5,39.5 72,40.5 71.5,39.5 70.5,39 71.5,38.5 		"/>
				<polygon fill="#282828" points="72,48.5 72.5,49.5 73.5,50 72.5,50.5 72,51.5 71.5,50.5 70.5,50 71.5,49.5 		"/>
				<polygon fill="#282828" points="72,59.5 72.5,60.5 73.5,61 72.5,61.5 72,62.5 71.5,61.5 70.5,61 71.5,60.5 		"/>
				<polygon fill="#282828" points="36.8,26.5 37.3,27.5 38.3,28 37.3,28.5 36.8,29.5 36.3,28.5 35.3,28 36.3,27.5 		"/>
				<polygon fill="#282828" points="36.8,37.5 37.3,38.5 38.3,39 37.3,39.5 36.8,40.5 36.3,39.5 35.3,39 36.3,38.5 		"/>
				<polygon fill="#282828" points="36.8,48.5 37.3,49.5 38.3,50 37.3,50.5 36.8,51.5 36.3,50.5 35.3,50 36.3,49.5 		"/>
				<polygon fill="#282828" points="36.8,59.5 37.3,60.5 38.3,61 37.3,61.5 36.8,62.5 36.3,61.5 35.3,61 36.3,60.5 		"/>
				<polygon fill="#282828" points="36.8,70.5 37.3,71.5 38.3,72 37.3,72.5 36.8,73.5 36.3,72.5 35.3,72 36.3,71.5 		"/>
				<polygon fill="#282828" points="45.6,26.5 46.1,27.5 47.1,28 46.1,28.5 45.6,29.5 45.1,28.5 44.1,28 45.1,27.5 		"/>
				<polygon fill="#282828" points="45.6,37.5 46.1,38.5 47.1,39 46.1,39.5 45.6,40.5 45.1,39.5 44.1,39 45.1,38.5 		"/>
				<polygon fill="#282828" points="45.6,48.5 46.1,49.5 47.1,50 46.1,50.5 45.6,51.5 45.1,50.5 44.1,50 45.1,49.5 		"/>
				<polygon fill="#282828" points="45.6,59.5 46.1,60.5 47.1,61 46.1,61.5 45.6,62.5 45.1,61.5 44.1,61 45.1,60.5 		"/>
				<polygon fill="#282828" points="45.6,70.5 46.1,71.5 47.1,72 46.1,72.5 45.6,73.5 45.1,72.5 44.1,72 45.1,71.5 		"/>
				<polygon fill="#282828" points="63.2,26.5 63.7,27.5 64.7,28 63.7,28.5 63.2,29.5 62.7,28.5 61.7,28 62.7,27.5 		"/>
				<polygon fill="#282828" points="63.2,37.5 63.7,38.5 64.7,39 63.7,39.5 63.2,40.5 62.7,39.5 61.7,39 62.7,38.5 		"/>
				<polygon fill="#282828" points="63.2,48.5 63.7,49.5 64.7,50 63.7,50.5 63.2,51.5 62.7,50.5 61.7,50 62.7,49.5 		"/>
				<polygon fill="#282828" points="63.2,59.5 63.7,60.5 64.7,61 63.7,61.5 63.2,62.5 62.7,61.5 61.7,61 62.7,60.5 		"/>
				<polygon fill="#282828" points="63.2,70.5 63.7,71.5 64.7,72 63.7,72.5 63.2,73.5 62.7,72.5 61.7,72 62.7,71.5 		"/>
				<polygon fill="#282828" points="54.4,26.5 54.9,27.5 55.9,28 54.9,28.5 54.4,29.5 53.9,28.5 52.9,28 53.9,27.5 		"/>
				<polygon fill="#282828" points="54.4,37.5 54.9,38.5 55.9,39 54.9,39.5 54.4,40.5 53.9,39.5 52.9,39 53.9,38.5 		"/>
				<polygon fill="#282828" points="54.4,48.5 54.9,49.5 55.9,50 54.9,50.5 54.4,51.5 53.9,50.5 52.9,50 53.9,49.5 		"/>
				<polygon fill="#282828" points="54.4,59.5 54.9,60.5 55.9,61 54.9,61.5 54.4,62.5 53.9,61.5 52.9,61 53.9,60.5 		"/>
				<polygon fill="#282828" points="54.4,70.5 54.9,71.5 55.9,72 54.9,72.5 54.4,73.5 53.9,72.5 52.9,72 53.9,71.5 		"/>
			</g>

			<path class="highlight" fill="#F2F2F2" opacity="0.35" d="M69,28h-4.3l-1,0.5l-0.5,1l-0.5-1l-1-0.5h-5.8l-1,0.5l-0.5,1l-0.5-1l-1-0.5h-5.8l-1,0.5l-0.5,1l-0.5-1
				l-1-0.5h-5.8l-1,0.5l-0.5,1l-0.5-1l-1-0.5H31c-1.7,0-3,1.3-3,3v1v1c0-1.7,1.3-3,3-3h4.3l1,0.5l0.5,1l0.5-1l1-0.5h5.8l1,0.5l0.5,1
				l0.5-1l1-0.5h5.8l1,0.5l0.5,1l0.5-1l1-0.5h5.8l1,0.5l0.5,1l0.5-1l1-0.5H69c1.7,0,3,1.3,3,3v-1v-1C72,29.3,70.7,28,69,28z"/>
		</g>
</svg>