<svg xmlns="http://www.w3.org/2000/svg" width="48" height="48" viewBox="0 0 100 100"><title>solar</title><g class="symbol static energy"><path class="outer" fill="#282828" d="M70 75H30c-2.8 0-5-2.2-5-5V30c0-2.8 2.2-5 5-5h40c2.8 0 5 2.2 5 5v40c0 2.8-2.2 5-5 5z"/><path class="edging" opacity=".65" fill="#FFF" d="M70 25c2.8 0 5 2.2 5 5v40c0 2.8-2.2 5-5 5H30c-2.8 0-5-2.2-5-5V30c0-2.8 2.2-5 5-5h40m0-2H30c-3.9 0-7 3.1-7 7v40c0 3.9 3.1 7 7 7h40c3.9 0 7-3.1 7-7V30c0-3.9-3.1-7-7-7z"/><linearGradient id="a" gradientUnits="userSpaceOnUse" x1="50" y1="28" x2="50" y2="72"><stop offset="0" stop-color="#007aba"/><stop offset="1" stop-color="#0360a7"/></linearGradient><path fill="url(#a)" d="M69 72H31c-1.7 0-3-1.3-3-3V31c0-1.7 1.3-3 3-3h38c1.7 0 3 1.3 3 3v38c0 1.7-1.3 3-3 3z"/><path d="M31 28v44m3-44v44m5.8-44v44m3-44v44m5.7-44v44m3-44v44m6-44v44m3-44v44m5.7-44v44m3-44v44" class="highlight" opacity=".2" fill="none" stroke="#FFF" stroke-miterlimit="10"/><path d="M28 37.5l.5 1 1 .5-1 .5-.5 1-.5-1-1-.5 1-.5zm0 11l.5 1 1 .5-1 .5-.5 1-.5-1-1-.5 1-.5zm0 11l.5 1 1 .5-1 .5-.5 1-.5-1-1-.5 1-.5zm44-22l.5 1 1 .5-1 .5-.5 1-.5-1-1-.5 1-.5zm0 11l.5 1 1 .5-1 .5-.5 1-.5-1-1-.5 1-.5zm0 11l.5 1 1 .5-1 .5-.5 1-.5-1-1-.5 1-.5zm-35.2-33l.5 1 1 .5-1 .5-.5 1-.5-1-1-.5 1-.5zm0 11l.5 1 1 .5-1 .5-.5 1-.5-1-1-.5 1-.5zm0 11l.5 1 1 .5-1 .5-.5 1-.5-1-1-.5 1-.5zm0 11l.5 1 1 .5-1 .5-.5 1-.5-1-1-.5 1-.5zm0 11l.5 1 1 .5-1 .5-.5 1-.5-1-1-.5 1-.5zm8.8-44l.5 1 1 .5-1 .5-.5 1-.5-1-1-.5 1-.5zm0 11l.5 1 1 .5-1 .5-.5 1-.5-1-1-.5 1-.5zm0 11l.5 1 1 .5-1 .5-.5 1-.5-1-1-.5 1-.5zm0 11l.5 1 1 .5-1 .5-.5 1-.5-1-1-.5 1-.5zm0 11l.5 1 1 .5-1 .5-.5 1-.5-1-1-.5 1-.5zm17.6-44l.5 1 1 .5-1 .5-.5 1-.5-1-1-.5 1-.5zm0 11l.5 1 1 .5-1 .5-.5 1-.5-1-1-.5 1-.5zm0 11l.5 1 1 .5-1 .5-.5 1-.5-1-1-.5 1-.5zm0 11l.5 1 1 .5-1 .5-.5 1-.5-1-1-.5 1-.5zm0 11l.5 1 1 .5-1 .5-.5 1-.5-1-1-.5 1-.5zm-8.8-44l.5 1 1 .5-1 .5-.5 1-.5-1-1-.5 1-.5zm0 11l.5 1 1 .5-1 .5-.5 1-.5-1-1-.5 1-.5zm0 11l.5 1 1 .5-1 .5-.5 1-.5-1-1-.5 1-.5zm0 11l.5 1 1 .5-1 .5-.5 1-.5-1-1-.5 1-.5zm0 11l.5 1 1 .5-1 .5-.5 1-.5-1-1-.5 1-.5z" class="lines highlight" fill="#282828"/><path class="highlight" fill="#F2F2F2" opacity=".35" d="M69 28h-4.3l-1 .5-.5 1-.5-1-1-.5h-5.8l-1 .5-.5 1-.5-1-1-.5h-5.8l-1 .5-.5 1-.5-1-1-.5h-5.8l-1 .5-.5 1-.5-1-1-.5H31c-1.7 0-3 1.3-3 3v2c0-1.7 1.3-3 3-3h4.3l1 .5.5 1 .5-1 1-.5h5.8l1 .5.5 1 .5-1 1-.5h5.8l1 .5.5 1 .5-1 1-.5h5.8l1 .5.5 1 .5-1 1-.5H69c1.7 0 3 1.3 3 3v-2c0-1.7-1.3-3-3-3z"/></g></svg>