<svg xmlns="http://www.w3.org/2000/svg" width="48" height="48" viewBox="0 0 100 100"><title>stop</title><g class="symbol indicator"><path fill="none" d="M0 0h100v100H0z"/><linearGradient id="a" x1="50" y1="59" x2="50" y2="41" gradientUnits="userSpaceOnUse"><stop offset="0" stop-color="#0360a7"/><stop offset="1" stop-color="#007aba"/></linearGradient><path class="outer" d="M53.73 38h-7.46a3 3 0 0 0-2.12.88l-5.27 5.27a3 3 0 0 0-.88 2.12v7.46a3 3 0 0 0 .88 2.12l5.27 5.27a3 3 0 0 0 2.12.88h7.46a3 3 0 0 0 2.12-.88l5.27-5.27a3 3 0 0 0 .88-2.12v-7.46a3 3 0 0 0-.88-2.12l-5.27-5.27a3 3 0 0 0-2.12-.88z" fill="#282828"/><path class="edging" opacity=".65" d="M53.73 38a3 3 0 0 1 2.12.88l5.27 5.27a3 3 0 0 1 .88 2.12v7.46a3 3 0 0 1-.88 2.12l-5.27 5.27a3 3 0 0 1-2.12.88h-7.46a3 3 0 0 1-2.12-.88l-5.27-5.27a3 3 0 0 1-.88-2.12v-7.46a3 3 0 0 1 .88-2.12l5.27-5.27a3 3 0 0 1 2.12-.88h7.46m0-2h-7.46a5 5 0 0 0-3.53 1.46l-5.28 5.28A5 5 0 0 0 36 46.27v7.46a5 5 0 0 0 1.46 3.53l5.28 5.28A5 5 0 0 0 46.27 64h7.46a5 5 0 0 0 3.53-1.46l5.28-5.28A5 5 0 0 0 64 53.73v-7.46a5 5 0 0 0-1.46-3.53l-5.28-5.28A5 5 0 0 0 53.73 36z" fill="#fff"/><path class="inner" fill="url(#a)" d="M46.27 41L41 46.27v7.46L46.27 59h7.46L59 53.73v-7.46L53.73 41h-7.46z"/><path class="highlight" fill="#f2f2f2" fill-opacity=".35" d="M53.73 41h-7.46L41 46.27v1L46.27 42h7.46L59 47.27v-1L53.73 41z"/></g></svg>