<svg xmlns="http://www.w3.org/2000/svg" width="48" height="48" viewBox="0 0 100 100"><title>sun</title><g class="symbol energy static"><circle class="outer" fill="#282828" cx="50" cy="50" r="18"/><path class="edging" opacity=".65" fill="#FFF" d="M50 32c9.9 0 18 8.1 18 18s-8.1 18-18 18-18-8.1-18-18 8.1-18 18-18m0-2c-11 0-20 9-20 20s9 20 20 20 20-9 20-20-9-20-20-20z"/><linearGradient id="a" gradientUnits="userSpaceOnUse" x1="34.348" y1="50" x2="65.652" y2="50"><stop offset="0" stop-color="#ffe633"/><stop offset="1" stop-color="#ffde00"/></linearGradient><circle fill="url(#a)" cx="50" cy="50" r="15.7"/><path fill="#282828" d="M50 72.9c-2.1 0-3.8 1.7-3.8 3.8v5.5c0 2.1 1.7 3.8 3.8 3.8 2.1 0 3.8-1.7 3.8-3.8v-5.5c0-2.1-1.7-3.8-3.8-3.8zm0-45.8c2.1 0 3.8-1.7 3.8-3.8v-5.5c0-2.1-1.7-3.8-3.8-3.8-2.1 0-3.8 1.7-3.8 3.8v5.5c0 2.1 1.7 3.8 3.8 3.8zm18.9 7.8c1 0 1.9-.4 2.7-1.1l3.9-3.9c1.5-1.5 1.5-3.9 0-5.4-1.5-1.5-3.9-1.5-5.4 0l-3.9 3.9c-1.5 1.5-1.5 3.9 0 5.4.8.7 1.7 1.1 2.7 1.1zM28.4 66.2l-3.9 3.9c-1.5 1.5-1.5 3.9 0 5.4.7.7 1.7 1.1 2.7 1.1 1 0 1.9-.4 2.7-1.1l3.9-3.9c1.5-1.5 1.5-3.9 0-5.4-1.5-1.5-3.9-1.5-5.4 0zM27.1 50c0-2.1-1.7-3.8-3.8-3.8h-5.5c-2.1 0-3.8 1.7-3.8 3.8 0 2.1 1.7 3.8 3.8 3.8h5.5c2.1 0 3.8-1.7 3.8-3.8zm55.1-3.8h-5.5c-2.1 0-3.8 1.7-3.8 3.8 0 2.1 1.7 3.8 3.8 3.8h5.5c2.1 0 3.8-1.7 3.8-3.8s-1.7-3.8-3.8-3.8zm-10.6 20c-1.5-1.5-3.9-1.5-5.4 0-1.5 1.5-1.5 3.9 0 5.4l3.9 3.9c.7.7 1.7 1.1 2.7 1.1 1 0 1.9-.4 2.7-1.1 1.5-1.5 1.5-3.9 0-5.4l-3.9-3.9zM28.4 33.8c.7.7 1.7 1.1 2.7 1.1 1 0 1.9-.4 2.7-1.1 1.5-1.5 1.5-3.9 0-5.4l-3.9-3.9c-1.5-1.5-3.9-1.5-5.4 0-1.5 1.5-1.5 3.9 0 5.4l3.9 3.9z"/><path class="edging" opacity=".65" fill="#FFF" d="M50 14c2.1 0 3.8 1.7 3.8 3.8v5.5c0 2.1-1.7 3.8-3.8 3.8-2.1 0-3.8-1.7-3.8-3.8v-5.5c0-2.1 1.7-3.8 3.8-3.8m22.8 9.4c1 0 1.9.4 2.7 1.1 1.5 1.5 1.5 3.9 0 5.4l-3.9 3.9c-.7.7-1.7 1.1-2.7 1.1-1 0-1.9-.4-2.7-1.1-1.5-1.5-1.5-3.9 0-5.4l3.9-3.9c.7-.7 1.7-1.1 2.7-1.1m-45.6 0c1 0 1.9.4 2.7 1.1l3.9 3.9c1.5 1.5 1.5 3.9 0 5.4-.7.7-1.7 1.1-2.7 1.1-1 0-1.9-.4-2.7-1.1l-3.9-3.9c-1.5-1.5-1.5-3.9 0-5.4.8-.7 1.8-1.1 2.7-1.1m55 22.8c2.1 0 3.8 1.7 3.8 3.8 0 2.1-1.7 3.8-3.8 3.8h-5.5c-2.1 0-3.8-1.7-3.8-3.8 0-2.1 1.7-3.8 3.8-3.8h5.5m-58.9 0c2.1 0 3.8 1.7 3.8 3.8 0 2.1-1.7 3.8-3.8 3.8h-5.5c-2.1 0-3.8-1.7-3.8-3.8 0-2.1 1.7-3.8 3.8-3.8h5.5m45.6 18.9c1 0 1.9.4 2.7 1.1l3.9 3.9c1.5 1.5 1.5 3.9 0 5.4-.7.7-1.7 1.1-2.7 1.1-1 0-1.9-.4-2.7-1.1l-3.9-3.9c-1.5-1.5-1.5-3.9 0-5.4.8-.7 1.7-1.1 2.7-1.1m-37.8 0c1 0 1.9.4 2.7 1.1 1.5 1.5 1.5 3.9 0 5.4l-3.9 3.9c-.7.7-1.7 1.1-2.7 1.1-1 0-1.9-.4-2.7-1.1-1.5-1.5-1.5-3.9 0-5.4l3.9-3.9c.8-.7 1.7-1.1 2.7-1.1M50 72.9c2.1 0 3.8 1.7 3.8 3.8v5.5c0 2.1-1.7 3.8-3.8 3.8-2.1 0-3.8-1.7-3.8-3.8v-5.5c0-2.1 1.7-3.8 3.8-3.8M50 12c-3.2 0-5.8 2.6-5.8 5.8v5.5c0 3.2 2.6 5.8 5.8 5.8 3.2 0 5.8-2.6 5.8-5.8v-5.5c0-3.2-2.6-5.8-5.8-5.8zm22.8 9.4c-1.5 0-3 .6-4.1 1.7L64.8 27c-2.3 2.3-2.3 5.9 0 8.2 1.1 1.1 2.6 1.7 4.1 1.7 1.5 0 3-.6 4.1-1.7l3.9-3.9c2.3-2.3 2.3-5.9 0-8.2-1.1-1.1-2.6-1.7-4.1-1.7zm-45.6 0c-1.5 0-3 .6-4.1 1.7-2.3 2.3-2.3 5.9 0 8.2l3.9 3.9c1.1 1.1 2.5 1.7 4.1 1.7 1.5 0 3-.6 4.1-1.7 2.3-2.3 2.3-5.9 0-8.2l-3.9-3.9c-1.1-1.1-2.5-1.7-4.1-1.7zm55 22.8h-5.5c-3.2 0-5.8 2.6-5.8 5.8 0 3.2 2.6 5.8 5.8 5.8h5.5c3.2 0 5.8-2.6 5.8-5.8 0-3.2-2.6-5.8-5.8-5.8zm-58.9 0h-5.5c-3.2 0-5.8 2.6-5.8 5.8 0 3.2 2.6 5.8 5.8 5.8h5.5c3.2 0 5.8-2.6 5.8-5.8 0-3.2-2.6-5.8-5.8-5.8zm45.6 18.9c-1.5 0-3 .6-4.1 1.7-1.1 1.1-1.7 2.5-1.7 4.1 0 1.5.6 3 1.7 4.1l3.9 3.9c1.1 1.1 2.6 1.7 4.1 1.7 1.5 0 3-.6 4.1-1.7 1.1-1.1 1.7-2.5 1.7-4.1 0-1.5-.6-3-1.7-4.1L73 64.8c-1.1-1.1-2.5-1.7-4.1-1.7zm-37.8 0c-1.5 0-3 .6-4.1 1.7l-3.9 3.9c-2.3 2.3-2.3 5.9 0 8.2 1.1 1.1 2.5 1.7 4.1 1.7 1.5 0 3-.6 4.1-1.7l3.9-3.9c1.1-1.1 1.7-2.5 1.7-4.1 0-1.5-.6-3-1.7-4.1-1.1-1.1-2.6-1.7-4.1-1.7zM50 70.9c-3.2 0-5.8 2.6-5.8 5.8v5.5c0 3.2 2.6 5.8 5.8 5.8 3.2 0 5.8-2.6 5.8-5.8v-5.5c0-3.2-2.6-5.8-5.8-5.8z"/><path fill="url(#a)" d="M50 85c-1.5 0-2.8-1.3-2.8-2.8v-5.5c0-1.5 1.3-2.8 2.8-2.8 1.5 0 2.8 1.3 2.8 2.8v5.5c0 1.5-1.3 2.8-2.8 2.8zm22.8-9.4c-.7 0-1.5-.3-2-.8l-3.9-3.9c-1.1-1.1-1.1-2.9 0-4 .5-.5 1.2-.8 2-.8.7 0 1.4.3 2 .8l3.9 3.9c.5.5.8 1.2.8 2 0 .7-.3 1.4-.8 2-.6.5-1.3.8-2 .8zm-45.6 0c-.7 0-1.4-.3-2-.8-.5-.5-.8-1.2-.8-2 0-.7.3-1.4.8-2l3.9-3.9c.5-.5 1.2-.8 2-.8.7 0 1.4.3 2 .8.5.5.8 1.2.8 2 0 .7-.3 1.4-.8 2l-3.9 3.9c-.5.5-1.2.8-2 .8zm49.5-22.8c-1.5 0-2.8-1.3-2.8-2.8 0-1.5 1.3-2.8 2.8-2.8h5.5c1.5 0 2.8 1.3 2.8 2.8 0 1.5-1.3 2.8-2.8 2.8h-5.5zm-58.9 0c-1.5 0-2.8-1.3-2.8-2.8 0-1.5 1.3-2.8 2.8-2.8h5.5c1.5 0 2.8 1.3 2.8 2.8 0 1.5-1.3 2.8-2.8 2.8h-5.5zm51.1-18.9c-.7 0-1.5-.3-2-.8-1.1-1.1-1.1-2.9 0-4l3.9-3.9c.5-.5 1.2-.8 2-.8.7 0 1.4.3 2 .8 1.1 1.1 1.1 2.9 0 4l-3.9 3.9c-.5.5-1.2.8-2 .8zm-37.8 0c-.7 0-1.4-.3-2-.8l-3.9-3.9c-1.1-1.1-1.1-2.9 0-4 .5-.5 1.2-.8 2-.8s1.4.3 2 .8l3.9 3.9c1.1 1.1 1.1 2.9 0 4-.6.5-1.3.8-2 .8zM50 26.1c-1.5 0-2.8-1.3-2.8-2.8v-5.5c0-1.5 1.3-2.8 2.8-2.8 1.5 0 2.8 1.3 2.8 2.8v5.5c0 1.5-1.3 2.8-2.8 2.8z"/><path fill="#282828" d="M50 16c1 0 1.8.8 1.8 1.8v5.5c0 1-.8 1.8-1.8 1.8s-1.8-.8-1.8-1.8v-5.5c0-1 .8-1.8 1.8-1.8m22.8 9.4c.5 0 .9.2 1.3.5.7.7.7 1.8 0 2.5l-3.9 3.9c-.3.3-.8.5-1.3.5s-.9-.2-1.3-.5c-.7-.7-.7-1.8 0-2.5l3.9-3.9c.3-.3.8-.5 1.3-.5m-45.6 0c.5 0 .9.2 1.3.5l3.9 3.9c.7.7.7 1.8 0 2.5-.3.3-.8.5-1.3.5s-.9-.2-1.3-.5L26 28.5c-.7-.7-.7-1.8 0-2.5.3-.4.7-.6 1.2-.6m55 22.8c1 0 1.8.8 1.8 1.8s-.8 1.8-1.8 1.8h-5.5c-1 0-1.8-.8-1.8-1.8s.8-1.8 1.8-1.8h5.5m-58.9 0c1 0 1.8.8 1.8 1.8s-.8 1.8-1.8 1.8h-5.5c-1 0-1.8-.8-1.8-1.8s.8-1.8 1.8-1.8h5.5m45.6 18.9c.5 0 .9.2 1.3.5l3.9 3.9c.3.3.5.8.5 1.3s-.2.9-.5 1.3c-.3.3-.8.5-1.3.5s-.9-.2-1.3-.5l-3.9-3.9c-.3-.3-.5-.8-.5-1.3s.2-.9.5-1.3c.4-.3.8-.5 1.3-.5m-37.8 0c.5 0 .9.2 1.3.5.3.3.5.8.5 1.3s-.2.9-.5 1.3L28.5 74c-.3.3-.8.5-1.3.5s-.9-.2-1.3-.5c-.7-.7-.7-1.8 0-2.5l3.9-3.9c.4-.3.8-.5 1.3-.5M50 74.9c1 0 1.8.8 1.8 1.8v5.5c0 1-.8 1.8-1.8 1.8s-1.8-.8-1.8-1.8v-5.5c0-1 .8-1.8 1.8-1.8M50 14c-2.1 0-3.8 1.7-3.8 3.8v5.5c0 2.1 1.7 3.8 3.8 3.8 2.1 0 3.8-1.7 3.8-3.8v-5.5c0-2.1-1.7-3.8-3.8-3.8zm22.8 9.4c-1 0-1.9.4-2.7 1.1l-3.9 3.9c-1.5 1.5-1.5 3.9 0 5.4.7.7 1.7 1.1 2.7 1.1 1 0 1.9-.4 2.7-1.1l3.9-3.9c1.5-1.5 1.5-3.9 0-5.4-.8-.7-1.8-1.1-2.7-1.1zm-45.6 0c-1 0-1.9.4-2.7 1.1-1.5 1.5-1.5 3.9 0 5.4l3.9 3.9c.7.7 1.7 1.1 2.7 1.1 1 0 1.9-.4 2.7-1.1 1.5-1.5 1.5-3.9 0-5.4l-3.9-3.9c-.7-.7-1.7-1.1-2.7-1.1zm55 22.8h-5.5c-2.1 0-3.8 1.7-3.8 3.8 0 2.1 1.7 3.8 3.8 3.8h5.5c2.1 0 3.8-1.7 3.8-3.8 0-2.1-1.7-3.8-3.8-3.8zm-58.9 0h-5.5c-2.1 0-3.8 1.7-3.8 3.8 0 2.1 1.7 3.8 3.8 3.8h5.5c2.1 0 3.8-1.7 3.8-3.8 0-2.1-1.7-3.8-3.8-3.8zm45.6 18.9c-1 0-1.9.4-2.7 1.1-1.5 1.5-1.5 3.9 0 5.4l3.9 3.9c.7.7 1.7 1.1 2.7 1.1 1 0 1.9-.4 2.7-1.1 1.5-1.5 1.5-3.9 0-5.4l-3.9-3.9c-.8-.7-1.7-1.1-2.7-1.1zm-37.8 0c-1 0-1.9.4-2.7 1.1l-3.9 3.9c-1.5 1.5-1.5 3.9 0 5.4.7.7 1.7 1.1 2.7 1.1 1 0 1.9-.4 2.7-1.1l3.9-3.9c1.5-1.5 1.5-3.9 0-5.4-.8-.7-1.7-1.1-2.7-1.1zM50 72.9c-2.1 0-3.8 1.7-3.8 3.8v5.5c0 2.1 1.7 3.8 3.8 3.8 2.1 0 3.8-1.7 3.8-3.8v-5.5c0-2.1-1.7-3.8-3.8-3.8z"/><path opacity=".4" fill="#F2F2F2" d="M50 36.3c8.3 0 15.1 6.5 15.6 14.7 0-.3.1-.7.1-1 0-8.6-7-15.7-15.7-15.7s-15.7 7-15.7 15.7c0 .3 0 .7.1 1 .5-8.2 7.3-14.7 15.6-14.7z"/></g></svg>