<svg xmlns="http://www.w3.org/2000/svg" width="48" height="48" viewBox="0 0 100 100">
  <title>sun</title>
		<g id="sun" class="symbol energy static">
			<g id="bound">
				<rect class="" x="0" y="0" width="100" height="100" opacity="0"/>
			</g>

			<circle class="outer" fill="#282828" cx="50" cy="50" r="18"/>

			<path class="edging" opacity="0.65" fill="#FFFFFF" d="M50,32c9.9,0,18,8.1,18,18s-8.1,18-18,18s-18-8.1-18-18S40.1,32,50,32 M50,30c-11,0-20,9-20,20s9,20,20,20
				s20-9,20-20S61,30,50,30L50,30z"/>


			<linearGradient id="sun-gradient" gradientUnits="userSpaceOnUse" x1="34.3478" y1="50" x2="65.6522" y2="50">
				<stop  offset="0" style="stop-color:#FFE633"/>
				<stop  offset="1" style="stop-color:#FFDE00"/>
			</linearGradient>

			<circle fill="url(#sun-gradient)" cx="50" cy="50" r="15.7"/>

			<path fill="#282828" d="M50,72.9c-2.1,0-3.8,1.7-3.8,3.8v5.5c0,2.1,1.7,3.8,3.8,3.8c2.1,0,3.8-1.7,3.8-3.8v-5.5
				C53.8,74.6,52.1,72.9,50,72.9z M50,27.1c2.1,0,3.8-1.7,3.8-3.8v-5.5c0-2.1-1.7-3.8-3.8-3.8c-2.1,0-3.8,1.7-3.8,3.8v5.5
				C46.2,25.4,47.9,27.1,50,27.1z M68.9,34.9c1,0,1.9-0.4,2.7-1.1l3.9-3.9c1.5-1.5,1.5-3.9,0-5.4c-1.5-1.5-3.9-1.5-5.4,0l-3.9,3.9
				c-1.5,1.5-1.5,3.9,0,5.4C67,34.5,67.9,34.9,68.9,34.9z M28.4,66.2l-3.9,3.9c-1.5,1.5-1.5,3.9,0,5.4c0.7,0.7,1.7,1.1,2.7,1.1
				c1,0,1.9-0.4,2.7-1.1l3.9-3.9c1.5-1.5,1.5-3.9,0-5.4C32.3,64.7,29.9,64.7,28.4,66.2z M27.1,50c0-2.1-1.7-3.8-3.8-3.8h-5.5
				c-2.1,0-3.8,1.7-3.8,3.8c0,2.1,1.7,3.8,3.8,3.8h5.5C25.4,53.8,27.1,52.1,27.1,50z M82.2,46.2h-5.5c-2.1,0-3.8,1.7-3.8,3.8
				c0,2.1,1.7,3.8,3.8,3.8h5.5c2.1,0,3.8-1.7,3.8-3.8S84.3,46.2,82.2,46.2z M71.6,66.2c-1.5-1.5-3.9-1.5-5.4,0c-1.5,1.5-1.5,3.9,0,5.4
				l3.9,3.9c0.7,0.7,1.7,1.1,2.7,1.1c1,0,1.9-0.4,2.7-1.1c1.5-1.5,1.5-3.9,0-5.4L71.6,66.2z M28.4,33.8c0.7,0.7,1.7,1.1,2.7,1.1
				c1,0,1.9-0.4,2.7-1.1c1.5-1.5,1.5-3.9,0-5.4l-3.9-3.9c-1.5-1.5-3.9-1.5-5.4,0c-1.5,1.5-1.5,3.9,0,5.4L28.4,33.8z"/>

			<path class="edging" opacity="0.65" fill="#FFFFFF" d="M50,14c2.1,0,3.8,1.7,3.8,3.8v5.5c0,2.1-1.7,3.8-3.8,3.8c-2.1,0-3.8-1.7-3.8-3.8v-5.5
				C46.2,15.7,47.9,14,50,14 M72.8,23.4c1,0,1.9,0.4,2.7,1.1c1.5,1.5,1.5,3.9,0,5.4l-3.9,3.9c-0.7,0.7-1.7,1.1-2.7,1.1
				c-1,0-1.9-0.4-2.7-1.1c-1.5-1.5-1.5-3.9,0-5.4l3.9-3.9C70.8,23.8,71.8,23.4,72.8,23.4 M27.2,23.4c1,0,1.9,0.4,2.7,1.1l3.9,3.9
				c1.5,1.5,1.5,3.9,0,5.4c-0.7,0.7-1.7,1.1-2.7,1.1c-1,0-1.9-0.4-2.7-1.1l-3.9-3.9c-1.5-1.5-1.5-3.9,0-5.4
				C25.3,23.8,26.3,23.4,27.2,23.4 M82.2,46.2c2.1,0,3.8,1.7,3.8,3.8c0,2.1-1.7,3.8-3.8,3.8h-5.5c-2.1,0-3.8-1.7-3.8-3.8
				c0-2.1,1.7-3.8,3.8-3.8H82.2 M23.3,46.2c2.1,0,3.8,1.7,3.8,3.8c0,2.1-1.7,3.8-3.8,3.8h-5.5c-2.1,0-3.8-1.7-3.8-3.8
				c0-2.1,1.7-3.8,3.8-3.8H23.3 M68.9,65.1c1,0,1.9,0.4,2.7,1.1l3.9,3.9c1.5,1.5,1.5,3.9,0,5.4c-0.7,0.7-1.7,1.1-2.7,1.1
				c-1,0-1.9-0.4-2.7-1.1l-3.9-3.9c-1.5-1.5-1.5-3.9,0-5.4C67,65.5,67.9,65.1,68.9,65.1 M31.1,65.1c1,0,1.9,0.4,2.7,1.1
				c1.5,1.5,1.5,3.9,0,5.4l-3.9,3.9c-0.7,0.7-1.7,1.1-2.7,1.1c-1,0-1.9-0.4-2.7-1.1c-1.5-1.5-1.5-3.9,0-5.4l3.9-3.9
				C29.2,65.5,30.1,65.1,31.1,65.1 M50,72.9c2.1,0,3.8,1.7,3.8,3.8v5.5c0,2.1-1.7,3.8-3.8,3.8c-2.1,0-3.8-1.7-3.8-3.8v-5.5
				C46.2,74.6,47.9,72.9,50,72.9 M50,12c-3.2,0-5.8,2.6-5.8,5.8v5.5c0,3.2,2.6,5.8,5.8,5.8c3.2,0,5.8-2.6,5.8-5.8v-5.5
				C55.8,14.6,53.2,12,50,12L50,12z M72.8,21.4c-1.5,0-3,0.6-4.1,1.7L64.8,27c-2.3,2.3-2.3,5.9,0,8.2c1.1,1.1,2.6,1.7,4.1,1.7
				c1.5,0,3-0.6,4.1-1.7l3.9-3.9c2.3-2.3,2.3-5.9,0-8.2C75.8,22,74.3,21.4,72.8,21.4L72.8,21.4z M27.2,21.4c-1.5,0-3,0.6-4.1,1.7
				c-2.3,2.3-2.3,5.9,0,8.2l3.9,3.9c1.1,1.1,2.5,1.7,4.1,1.7c1.5,0,3-0.6,4.1-1.7c2.3-2.3,2.3-5.9,0-8.2l-3.9-3.9
				C30.2,22,28.8,21.4,27.2,21.4L27.2,21.4z M82.2,44.2h-5.5c-3.2,0-5.8,2.6-5.8,5.8c0,3.2,2.6,5.8,5.8,5.8h5.5
				c3.2,0,5.8-2.6,5.8-5.8C88,46.8,85.4,44.2,82.2,44.2L82.2,44.2z M23.3,44.2h-5.5c-3.2,0-5.8,2.6-5.8,5.8c0,3.2,2.6,5.8,5.8,5.8
				h5.5c3.2,0,5.8-2.6,5.8-5.8C29.1,46.8,26.5,44.2,23.3,44.2L23.3,44.2z M68.9,63.1c-1.5,0-3,0.6-4.1,1.7c-1.1,1.1-1.7,2.5-1.7,4.1
				c0,1.5,0.6,3,1.7,4.1l3.9,3.9c1.1,1.1,2.6,1.7,4.1,1.7c1.5,0,3-0.6,4.1-1.7c1.1-1.1,1.7-2.5,1.7-4.1c0-1.5-0.6-3-1.7-4.1L73,64.8
				C71.9,63.7,70.5,63.1,68.9,63.1L68.9,63.1z M31.1,63.1c-1.5,0-3,0.6-4.1,1.7l-3.9,3.9c-2.3,2.3-2.3,5.9,0,8.2
				c1.1,1.1,2.5,1.7,4.1,1.7c1.5,0,3-0.6,4.1-1.7l3.9-3.9c1.1-1.1,1.7-2.5,1.7-4.1c0-1.5-0.6-3-1.7-4.1
				C34.1,63.7,32.6,63.1,31.1,63.1L31.1,63.1z M50,70.9c-3.2,0-5.8,2.6-5.8,5.8v5.5c0,3.2,2.6,5.8,5.8,5.8c3.2,0,5.8-2.6,5.8-5.8
				v-5.5C55.8,73.5,53.2,70.9,50,70.9L50,70.9z"/>



			<path fill="url(#sun-gradient)" d="M50,85c-1.5,0-2.8-1.3-2.8-2.8v-5.5c0-1.5,1.3-2.8,2.8-2.8c1.5,0,2.8,1.3,2.8,2.8v5.5
				C52.8,83.7,51.5,85,50,85z M72.8,75.6c-0.7,0-1.5-0.3-2-0.8l-3.9-3.9c-1.1-1.1-1.1-2.9,0-4c0.5-0.5,1.2-0.8,2-0.8
				c0.7,0,1.4,0.3,2,0.8l3.9,3.9c0.5,0.5,0.8,1.2,0.8,2c0,0.7-0.3,1.4-0.8,2C74.2,75.3,73.5,75.6,72.8,75.6z M27.2,75.6
				c-0.7,0-1.4-0.3-2-0.8c-0.5-0.5-0.8-1.2-0.8-2c0-0.7,0.3-1.4,0.8-2l3.9-3.9c0.5-0.5,1.2-0.8,2-0.8c0.7,0,1.4,0.3,2,0.8
				c0.5,0.5,0.8,1.2,0.8,2c0,0.7-0.3,1.4-0.8,2l-3.9,3.9C28.7,75.3,28,75.6,27.2,75.6z M76.7,52.8c-1.5,0-2.8-1.3-2.8-2.8
				c0-1.5,1.3-2.8,2.8-2.8h5.5c1.5,0,2.8,1.3,2.8,2.8c0,1.5-1.3,2.8-2.8,2.8H76.7z M17.8,52.8c-1.5,0-2.8-1.3-2.8-2.8
				c0-1.5,1.3-2.8,2.8-2.8h5.5c1.5,0,2.8,1.3,2.8,2.8c0,1.5-1.3,2.8-2.8,2.8H17.8z M68.9,33.9c-0.7,0-1.5-0.3-2-0.8
				c-1.1-1.1-1.1-2.9,0-4l3.9-3.9c0.5-0.5,1.2-0.8,2-0.8c0.7,0,1.4,0.3,2,0.8c1.1,1.1,1.1,2.9,0,4l-3.9,3.9
				C70.4,33.6,69.7,33.9,68.9,33.9z M31.1,33.9c-0.7,0-1.4-0.3-2-0.8l-3.9-3.9c-1.1-1.1-1.1-2.9,0-4c0.5-0.5,1.2-0.8,2-0.8
				s1.4,0.3,2,0.8l3.9,3.9c1.1,1.1,1.1,2.9,0,4C32.5,33.6,31.8,33.9,31.1,33.9z M50,26.1c-1.5,0-2.8-1.3-2.8-2.8v-5.5
				c0-1.5,1.3-2.8,2.8-2.8c1.5,0,2.8,1.3,2.8,2.8v5.5C52.8,24.8,51.5,26.1,50,26.1z"/>

			<path fill="#282828" d="M50,16c1,0,1.8,0.8,1.8,1.8v5.5c0,1-0.8,1.8-1.8,1.8c-1,0-1.8-0.8-1.8-1.8v-5.5C48.2,16.8,49,16,50,16
				 M72.8,25.4c0.5,0,0.9,0.2,1.3,0.5c0.7,0.7,0.7,1.8,0,2.5l-3.9,3.9c-0.3,0.3-0.8,0.5-1.3,0.5c-0.5,0-0.9-0.2-1.3-0.5
				c-0.7-0.7-0.7-1.8,0-2.5l3.9-3.9C71.8,25.6,72.3,25.4,72.8,25.4 M27.2,25.4c0.5,0,0.9,0.2,1.3,0.5l3.9,3.9c0.7,0.7,0.7,1.8,0,2.5
				c-0.3,0.3-0.8,0.5-1.3,0.5c-0.5,0-0.9-0.2-1.3-0.5L26,28.5c-0.7-0.7-0.7-1.8,0-2.5C26.3,25.6,26.7,25.4,27.2,25.4 M82.2,48.2
				c1,0,1.8,0.8,1.8,1.8c0,1-0.8,1.8-1.8,1.8h-5.5c-1,0-1.8-0.8-1.8-1.8c0-1,0.8-1.8,1.8-1.8H82.2 M23.3,48.2c1,0,1.8,0.8,1.8,1.8
				c0,1-0.8,1.8-1.8,1.8h-5.5c-1,0-1.8-0.8-1.8-1.8c0-1,0.8-1.8,1.8-1.8H23.3 M68.9,67.1c0.5,0,0.9,0.2,1.3,0.5l3.9,3.9
				c0.3,0.3,0.5,0.8,0.5,1.3c0,0.5-0.2,0.9-0.5,1.3c-0.3,0.3-0.8,0.5-1.3,0.5c-0.5,0-0.9-0.2-1.3-0.5l-3.9-3.9
				c-0.3-0.3-0.5-0.8-0.5-1.3c0-0.5,0.2-0.9,0.5-1.3C68,67.3,68.4,67.1,68.9,67.1 M31.1,67.1c0.5,0,0.9,0.2,1.3,0.5
				c0.3,0.3,0.5,0.8,0.5,1.3c0,0.5-0.2,0.9-0.5,1.3L28.5,74c-0.3,0.3-0.8,0.5-1.3,0.5c-0.5,0-0.9-0.2-1.3-0.5c-0.7-0.7-0.7-1.8,0-2.5
				l3.9-3.9C30.2,67.3,30.6,67.1,31.1,67.1 M50,74.9c1,0,1.8,0.8,1.8,1.8v5.5c0,1-0.8,1.8-1.8,1.8c-1,0-1.8-0.8-1.8-1.8v-5.5
				C48.2,75.7,49,74.9,50,74.9 M50,14c-2.1,0-3.8,1.7-3.8,3.8v5.5c0,2.1,1.7,3.8,3.8,3.8c2.1,0,3.8-1.7,3.8-3.8v-5.5
				C53.8,15.7,52.1,14,50,14L50,14z M72.8,23.4c-1,0-1.9,0.4-2.7,1.1l-3.9,3.9c-1.5,1.5-1.5,3.9,0,5.4c0.7,0.7,1.7,1.1,2.7,1.1
				c1,0,1.9-0.4,2.7-1.1l3.9-3.9c1.5-1.5,1.5-3.9,0-5.4C74.7,23.8,73.7,23.4,72.8,23.4L72.8,23.4z M27.2,23.4c-1,0-1.9,0.4-2.7,1.1
				c-1.5,1.5-1.5,3.9,0,5.4l3.9,3.9c0.7,0.7,1.7,1.1,2.7,1.1c1,0,1.9-0.4,2.7-1.1c1.5-1.5,1.5-3.9,0-5.4l-3.9-3.9
				C29.2,23.8,28.2,23.4,27.2,23.4L27.2,23.4z M82.2,46.2h-5.5c-2.1,0-3.8,1.7-3.8,3.8c0,2.1,1.7,3.8,3.8,3.8h5.5
				c2.1,0,3.8-1.7,3.8-3.8C86,47.9,84.3,46.2,82.2,46.2L82.2,46.2z M23.3,46.2h-5.5c-2.1,0-3.8,1.7-3.8,3.8c0,2.1,1.7,3.8,3.8,3.8
				h5.5c2.1,0,3.8-1.7,3.8-3.8C27.1,47.9,25.4,46.2,23.3,46.2L23.3,46.2z M68.9,65.1c-1,0-1.9,0.4-2.7,1.1c-1.5,1.5-1.5,3.9,0,5.4
				l3.9,3.9c0.7,0.7,1.7,1.1,2.7,1.1c1,0,1.9-0.4,2.7-1.1c1.5-1.5,1.5-3.9,0-5.4l-3.9-3.9C70.8,65.5,69.9,65.1,68.9,65.1L68.9,65.1z
				 M31.1,65.1c-1,0-1.9,0.4-2.7,1.1l-3.9,3.9c-1.5,1.5-1.5,3.9,0,5.4c0.7,0.7,1.7,1.1,2.7,1.1c1,0,1.9-0.4,2.7-1.1l3.9-3.9
				c1.5-1.5,1.5-3.9,0-5.4C33,65.5,32.1,65.1,31.1,65.1L31.1,65.1z M50,72.9c-2.1,0-3.8,1.7-3.8,3.8v5.5c0,2.1,1.7,3.8,3.8,3.8
				c2.1,0,3.8-1.7,3.8-3.8v-5.5C53.8,74.6,52.1,72.9,50,72.9L50,72.9z"/>


			<path opacity="0.4" fill="#F2F2F2" d="M50,36.3c8.3,0,15.1,6.5,15.6,14.7c0-0.3,0.1-0.7,0.1-1c0-8.6-7-15.7-15.7-15.7
			s-15.7,7-15.7,15.7c0,0.3,0,0.7,0.1,1C34.9,42.8,41.7,36.3,50,36.3z"/>
		</g>
</svg>