<svg xmlns="http://www.w3.org/2000/svg" width="48" height="48" viewBox="0 0 100 100">
  <title>switch</title>
  <g id="switch" class="symbol">
			<linearGradient id="DefaultGradient" gradientUnits="userSpaceOnUse" x1="71" y1="44.9941" x2="71" y2="56.5">
				<stop  offset="0" style="stop-color:#666666"/>
				<stop  offset="1" style="stop-color:#4D4D4D"/>
			</linearGradient>

			<g id="bound">
				<rect class="" x="0" y="0" width="100" height="100" opacity="0"/>
			</g>
			
			<path class="edging" opacity="0.65" fill="#FFFFFF" d="M71,43.3c4.3,0,7.7,3.5,7.7,7.7c0,4.3-3.5,7.7-7.7,7.7c-4.3,0-7.7-3.5-7.7-7.7
					C63.3,46.7,66.7,43.3,71,43.3 M71,41.3c-5.4,0-9.7,4.4-9.7,9.7c0,5.4,4.4,9.7,9.7,9.7c5.4,0,9.7-4.4,9.7-9.7
					C80.7,45.6,76.4,41.3,71,41.3L71,41.3z"/>

			<path class="inner" fill="url(#DefaultGradient)" d="M31,56.5c-3.3,0-5.9-2.4-5.9-5.7c0-3.3,2.6-5.8,5.9-5.8c3.3,0,5.9,2.5,5.9,5.8
				C36.9,54,34.3,56.5,31,56.5L31,56.5z"/>

			<g class="left animate" closed="rotate(30, 30, 51)" normal="rotate(0, 30, 51)" open="rotate(0, 30, 51)">
				<path id="outer1" class="outer" fill="#282828" d="M67.7,29.9c-0.7-1.1-2.1-1.5-3.3-0.9L36.3,45.3c-1.4-1.3-3.2-2.1-5.3-2.1c-4.3,0-7.7,3.5-7.7,7.7
				c0,4.3,3.5,7.7,7.7,7.7c4.3,0,7.7-3.5,7.7-7.7c0-0.5-0.1-1-0.1-1.5l28.3-16.3C68,32.5,68.4,31,67.7,29.9z M31,55.5
				C31,55.5,31,55.5,31,55.5c-2.3,0-4.1-2-4.1-4.3c0-2.3,1.8-4.3,4.1-4.3c2.2,0,4.1,2,4.1,4.3C35.1,53.5,33.3,55.5,31,55.5z"/>

				<path class="edging" fill="#FFFFFF" opacity="0.65" d="M65.6,28.7c0.8,0,1.6,0.4,2.1,1.2c0.7,1.1,0.3,2.6-0.9,3.3L38.6,49.5c0.1,0.5,0.1,1,0.1,1.5
				c0,4.3-3.5,7.7-7.7,7.7c-4.3,0-7.7-3.5-7.7-7.7c0-4.3,3.5-7.7,7.7-7.7c2,0,3.9,0.8,5.3,2.1L64.5,29
				C64.8,28.8,65.2,28.7,65.6,28.7 M65.6,26.7c-0.8,0-1.5,0.2-2.2,0.6l-27,15.6c-1.6-1.1-3.5-1.7-5.4-1.7c-5.4,0-9.7,4.4-9.7,9.7
				c0,5.4,4.4,9.7,9.7,9.7c5.4,0,9.7-4.4,9.7-9.7c0-0.1,0-0.3,0-0.4l27.1-15.7c1-0.6,1.7-1.5,2-2.7c0.3-1.1,0.1-2.3-0.4-3.3
				C68.7,27.6,67.2,26.7,65.6,26.7L65.6,26.7z"/>
			</g>

			<path class="highlight" opacity="0.35" fill="#FFFFFF" d="M31,47.6c2.2,0,4,1.8,4,4c0,0.1,0,0.1,0,0.2c0-0.2,0.1-0.4,0.1-0.6c0-2.2-1.8-4.2-4.1-4.2
				c-2.3,0-4.1,2-4.1,4.2c0,0.1,0,0.2,0,0.2C27.1,49.2,28.8,47.6,31,47.6z"/>

			<g class="right">
				<path class="inner" fill="url(#DefaultGradient)" d="M71,56.5c-3.3,0-5.9-2.4-5.9-5.7c0-3.3,2.6-5.8,5.9-5.8c3.3,0,5.9,2.5,5.9,5.8
					C76.9,54,74.3,56.5,71,56.5L71,56.5z"/>

				<path class="outer" fill="#282828" d="M71,43.3c-4.3,0-7.7,3.5-7.7,7.7c0,4.3,3.5,7.7,7.7,7.7c4.3,0,7.7-3.5,7.7-7.7
					C78.7,46.7,75.3,43.3,71,43.3L71,43.3z"/>

				<path class="inner" fill="url(#DefaultGradient)" d="M71,56.5c-3.3,0-5.9-2.4-5.9-5.7c0-3.3,2.6-5.8,5.9-5.8c3.3,0,5.9,2.5,5.9,5.8
					C76.9,54,74.3,56.5,71,56.5L71,56.5z"/>

				<path class="outer" fill="#282828" d="M71,46.9c2.2,0,4.1,2,4.1,4.3c0,2.2-1.8,4.3-4.1,4.3c0,0,0,0,0,0c-2.3,0-4.1-2-4.1-4.3
					C66.9,49,68.8,46.9,71,46.9 M71,43.3c-4.3,0-7.7,3.5-7.7,7.7c0,4.3,3.5,7.7,7.7,7.7c4.3,0,7.7-3.5,7.7-7.7
					C78.7,46.7,75.3,43.3,71,43.3L71,43.3z"/>

				<path class="highlight" opacity="0.35" fill="#FFFFFF" d="M71,47.6c2.2,0,4,1.8,4,4c0,0.1,0,0.1,0,0.2c0-0.2,0.1-0.4,0.1-0.6c0-2.2-1.8-4.2-4.1-4.2
					c-2.3,0-4.1,2-4.1,4.2c0,0.1,0,0.2,0,0.2C67.1,49.2,68.8,47.6,71,47.6z"/>
			</g>
		</g>
</svg>