<svg xmlns="http://www.w3.org/2000/svg" width="48" height="48" viewBox="0 0 100 100">
  <title>switchgear</title>

		<g id="switchgear" class="symbol">
			<rect id="bounding" fill="none" width="100" height="100"/>

			<path class="outer" fill="#282828" d="M79,76H21c-3.3,0-6-2.7-6-6V30c0-3.3,2.7-6,6-6h58c3.3,0,6,2.7,6,6v40C85,73.3,82.3,76,79,76z"/>
			<path class="edging" opacity="0.65" fill="#FFFFFF" d="M79,24c3.3,0,6,2.7,6,6v40c0,3.3-2.7,6-6,6H21c-3.3,0-6-2.7-6-6V30c0-3.3,2.7-6,6-6H79 M79,22H21
				c-4.4,0-8,3.6-8,8v40c0,4.4,3.6,8,8,8h58c4.4,0,8-3.6,8-8V30C87,25.6,83.4,22,79,22L79,22z"/>

			<linearGradient id="switchgear-gradient" gradientUnits="userSpaceOnUse" x1="50" y1="27" x2="50" y2="73">
				<stop  offset="0" style="stop-color:#9C9C9C"/>
				<stop  offset="1" style="stop-color:#808080"/>
			</linearGradient>

			<path fill="url(#switchgear-gradient)" d="M79,73H21c-1.7,0-3-1.3-3-3V30c0-1.7,1.3-3,3-3h58c1.7,0,3,1.3,3,3v40C82,71.7,80.7,73,79,73z"/>
			<g>
				<g opacity="0.3">
					<path fill="#111111" d="M79,27H21c-1.7,0-3,1.3-3,3v0.5h64V30C82,28.3,80.7,27,79,27z"/>
					<path fill="#111111" d="M18,70c0,1.7,1.3,3,3,3h58c1.7,0,3-1.3,3-3v-0.5H18V70z"/>
				</g>
				<path opacity="0.4" fill="#111111" d="M82,50.5v-1H69.7V27h-1v22.5H56.9V27h-1v22.5H44.1V27h-1v22.5H31.3V27h-1v12.5H18v1h12.3v9H18v1h12.3V73h1
					V50.5h11.8V73h1V60.5h11.8V73h1V60.5h11.8V73h1V60.5H82v-1H69.7v-9H82z M44.1,59.5v-9h11.8v9H44.1z M68.7,59.5H56.9v-9h11.8V59.5z"
					/>
			</g>
			<path class="highlight" opacity="0.35" fill="#FFFFFF" d="M79,27H21c-1.7,0-3,1.3-3,3v1c0-1.7,1.3-3,3-3h58c1.7,0,3,1.3,3,3v-1C82,28.3,80.7,27,79,27z
				"/>
		</g>
</svg>

		