<svg xmlns="http://www.w3.org/2000/svg" width="48" height="48" viewBox="0 0 100 100"><title>switchgear-dashboard-light</title><g class="symbol load assembly"><path fill="none" d="M0 0h100v100H0z"/><path class="outer" fill="#282828" d="M87.3 46.9h-6.7V24.3c0-3.3-2.7-6-6-6h-58c-3.3 0-6 2.7-6 6v40c0 3.3 2.7 6 6 6h58v9.5c0 1.1.9 2 2 2h3c1.1 0 2-.9 2-2V62.9h5.7c1.1 0 2-.9 2-2v-12c0-1.1-.9-2-2-2z"/><path class="edging" opacity=".65" fill="#FFF" d="M74.7 18.3c3.3 0 6 2.7 6 6v22.6h6.7c1.1 0 2 .9 2 2v12c0 1.1-.9 2-2 2h-5.7v16.8c0 1.1-.9 2-2 2h-3c-1.1 0-2-.9-2-2v-9.5h-58c-3.3 0-6-2.7-6-6v-40c0-3.3 2.7-6 6-6h58m0-1.9h-58c-4.4 0-8 3.6-8 8v40c0 4.4 3.6 8 8 8h56v7.5c0 2.2 1.8 4 4 4h3c2.2 0 4-1.8 4-4V64.9h3.7c2.2 0 4-1.8 4-4v-12c0-2.2-1.8-4-4-4h-4.7V24.3c0-4.4-3.6-8-8-8z"/><linearGradient id="a" gradientUnits="userSpaceOnUse" x1="45.663" y1="21.27" x2="45.663" y2="67.27"><stop offset="0" stop-color="#e6e6e6"/><stop offset="1" stop-color="#ccc"/></linearGradient><path fill="url(#a)" d="M74.7 67.3h-58c-1.7 0-3-1.3-3-3v-40c0-1.7 1.3-3 3-3h58c1.7 0 3 1.3 3 3v40c0 1.6-1.4 3-3 3z"/><path d="M74.7 21.3h-58c-1.7 0-3 1.3-3 3v.5h64v-.5c0-1.7-1.4-3-3-3zm-61 43c0 1.7 1.3 3 3 3h58c1.7 0 3-1.3 3-3v-.5h-64v.5z" opacity=".7" fill="#B5B5B5"/><path fill="#919191" d="M77.7 44.8v-1H65.4V21.3h-1v22.5H52.6V21.3h-1v22.5H39.8V21.3h-1v22.5H27V21.3h-1v12.5H13.7v1H26v9H13.7v1H26v22.5h1V44.8h11.8v22.5h1V54.8h11.8v12.5h1V54.8h11.8v12.5h1V54.8h12.3v-1H65.4v-9h12.3zm-37.9 9v-9h11.8v9H39.8zm24.6 0H52.6v-9h11.8v9z"/><path opacity=".35" class="highlight" fill="#FFF" d="M74.7 21.3h-58c-1.7 0-3 1.3-3 3v1c0-1.7 1.3-3 3-3h58c1.7 0 3 1.3 3 3v-1c0-1.7-1.4-3-3-3z"/><path fill="#282828" d="M87.3 46.9H68.9c-1.1 0-2 .9-2 2v12c0 1.1.9 2 2 2h5.7v16.8c0 1.1.9 2 2 2h3c1.1 0 2-.9 2-2V62.9h5.7c1.1 0 2-.9 2-2v-12c0-1.1-.9-2-2-2z"/><linearGradient id="b" gradientUnits="userSpaceOnUse" x1="78.12" y1="48.811" x2="78.12" y2="60.811"><stop offset="0" stop-color="#007aba"/><stop offset="1" stop-color="#0360a7"/></linearGradient><path fill="url(#b)" d="M69.1 48.8h18v12h-18z"/><linearGradient id="c" gradientUnits="userSpaceOnUse" x1="78.163" y1="63.27" x2="78.163" y2="79.27"><stop offset="0" stop-color="#666"/><stop offset="1" stop-color="#4d4d4d"/></linearGradient><path opacity=".5" fill="url(#c)" d="M77.2 63.3h2v16h-2z"/></g></svg>