<svg xmlns="http://www.w3.org/2000/svg" width="48" height="48" viewBox="0 0 100 100">
  <title>switchgear-dashboard-light</title>
  <g id="switchgear-dashboard-light" class="symbol load assembly">
			<rect id="bounding" fill="none" width="100" height="100"/>

			<g>
				<path class="outer" fill="#282828" d="M87.3,46.9h-6.7V24.3c0-3.3-2.7-6-6-6h-58c-3.3,0-6,2.7-6,6v40c0,3.3,2.7,6,6,6h58v9.5c0,1.1,0.9,2,2,2h3
					c1.1,0,2-0.9,2-2V62.9h5.7c1.1,0,2-0.9,2-2v-12C89.3,47.8,88.4,46.9,87.3,46.9z"/>
				<path class="edging" opacity="0.65" fill="#FFFFFF" d="M74.7,18.3c3.3,0,6,2.7,6,6v22.6h6.7c1.1,0,2,0.9,2,2v12c0,1.1-0.9,2-2,2h-5.7v16.8c0,1.1-0.9,2-2,2h-3
					c-1.1,0-2-0.9-2-2v-9.5h-58c-3.3,0-6-2.7-6-6v-40c0-3.3,2.7-6,6-6H74.7 M74.7,16.3h-58c-4.4,0-8,3.6-8,8v40c0,4.4,3.6,8,8,8h56
					v7.5c0,2.2,1.8,4,4,4h3c2.2,0,4-1.8,4-4V64.9h3.7c2.2,0,4-1.8,4-4v-12c0-2.2-1.8-4-4-4h-4.7V24.3C82.7,19.9,79.1,16.3,74.7,16.3
					L74.7,16.3z"/>
			</g>
			<linearGradient id="switchgear-dashboard-gradient-1" gradientUnits="userSpaceOnUse" x1="45.6629" y1="21.2703" x2="45.6629" y2="67.2703">
				<stop  offset="0" style="stop-color:#E6E6E6"/>
				<stop  offset="1" style="stop-color:#CCCCCC"/>
			</linearGradient>
			<path fill="url(#switchgear-dashboard-gradient-1)" d="M74.7,67.3h-58c-1.7,0-3-1.3-3-3v-40c0-1.7,1.3-3,3-3h58c1.7,0,3,1.3,3,3v40
				C77.7,65.9,76.3,67.3,74.7,67.3z"/>
			<g>
				<g opacity="0.7">
					<path fill="#B5B5B5" d="M74.7,21.3h-58c-1.7,0-3,1.3-3,3v0.5h64v-0.5C77.7,22.6,76.3,21.3,74.7,21.3z"/>
					<path fill="#B5B5B5" d="M13.7,64.3c0,1.7,1.3,3,3,3h58c1.7,0,3-1.3,3-3v-0.5h-64V64.3z"/>
				</g>
				<path fill="#919191" d="M77.7,44.8v-1H65.4V21.3h-1v22.5H52.6V21.3h-1v22.5H39.8V21.3h-1v22.5H27V21.3h-1v12.5H13.7v1H26v9H13.7v1
					H26v22.5h1V44.8h11.8v22.5h1V54.8h11.8v12.5h1V54.8h11.8v12.5h1V54.8h12.3v-1H65.4v-9H77.7z M39.8,53.8v-9h11.8v9H39.8z
					 M64.4,53.8H52.6v-9h11.8V53.8z"/>
			</g>
			<path opacity="0.35" class="highlight" fill="#FFFFFF" d="M74.7,21.3h-58c-1.7,0-3,1.3-3,3v1c0-1.7,1.3-3,3-3h58c1.7,0,3,1.3,3,3v-1
				C77.7,22.6,76.3,21.3,74.7,21.3z"/>
			<g>
				<path fill="#282828" d="M87.3,46.9H68.9c-1.1,0-2,0.9-2,2v12c0,1.1,0.9,2,2,2h5.7v16.8c0,1.1,0.9,2,2,2h3c1.1,0,2-0.9,2-2V62.9
					h5.7c1.1,0,2-0.9,2-2v-12C89.3,47.8,88.4,46.9,87.3,46.9z"/>
			</g>
			<g>
				<linearGradient id="switchgear-dashboard-gradient-2" gradientUnits="userSpaceOnUse" x1="78.1204" y1="48.811" x2="78.1204" y2="60.811">
					<stop  offset="0" style="stop-color:#007ABA"/>
					<stop  offset="1" style="stop-color:#0360A7"/>
				</linearGradient>
				<rect x="69.1" y="48.8" fill="url(#switchgear-dashboard-gradient-2)" width="18" height="12"/>
			</g>
			<linearGradient id="switchgear-dashboard-gradient-3" gradientUnits="userSpaceOnUse" x1="78.1629" y1="63.2703" x2="78.1629" y2="79.2703">
				<stop  offset="0" style="stop-color:#666666"/>
				<stop  offset="1" style="stop-color:#4D4D4D"/>
			</linearGradient>
			<rect x="77.2" y="63.3" opacity="0.5" fill="url(#switchgear-dashboard-gradient-3)" width="2" height="16"/>
		</g>
</svg>
