<svg xmlns="http://www.w3.org/2000/svg" width="48" height="48" viewBox="0 0 100 100"><title>switchgear-light</title><g class="symbol load assembly"><path fill="none" d="M0 0h100v100H0z"/><path class="outer" fill="#282828" d="M79 76H21c-3.3 0-6-2.7-6-6V30c0-3.3 2.7-6 6-6h58c3.3 0 6 2.7 6 6v40c0 3.3-2.7 6-6 6z"/><path class="edging" opacity=".65" fill="#FFF" d="M79 24c3.3 0 6 2.7 6 6v40c0 3.3-2.7 6-6 6H21c-3.3 0-6-2.7-6-6V30c0-3.3 2.7-6 6-6h58m0-2H21c-4.4 0-8 3.6-8 8v40c0 4.4 3.6 8 8 8h58c4.4 0 8-3.6 8-8V30c0-4.4-3.6-8-8-8z"/><linearGradient id="a" gradientUnits="userSpaceOnUse" x1="50" y1="27" x2="50" y2="73"><stop offset="0" stop-color="#e6e6e6"/><stop offset="1" stop-color="#ccc"/></linearGradient><path fill="url(#a)" d="M79 73H21c-1.7 0-3-1.3-3-3V30c0-1.7 1.3-3 3-3h58c1.7 0 3 1.3 3 3v40c0 1.7-1.3 3-3 3z"/><path d="M79 27H21c-1.7 0-3 1.3-3 3v.5h64V30c0-1.7-1.3-3-3-3zM18 70c0 1.7 1.3 3 3 3h58c1.7 0 3-1.3 3-3v-.5H18v.5z" opacity=".7" fill="#B5B5B5"/><path fill="#919191" d="M82 50.5v-1H69.7V27h-1v22.5H56.9V27h-1v22.5H44.1V27h-1v22.5H31.3V27h-1v12.5H18v1h12.3v9H18v1h12.3V73h1V50.5h11.8V73h1V60.5h11.8V73h1V60.5h11.8V73h1V60.5H82v-1H69.7v-9H82zm-37.9 9v-9h11.8v9H44.1zm24.6 0H56.9v-9h11.8v9z"/><path class="highlight" opacity=".35" fill="#FFF" d="M79 27H21c-1.7 0-3 1.3-3 3v1c0-1.7 1.3-3 3-3h58c1.7 0 3 1.3 3 3v-1c0-1.7-1.3-3-3-3z"/></g></svg>