<svg xmlns="http://www.w3.org/2000/svg" width="48" height="48" viewBox="0 0 100 100"><title>switch</title><g class="symbol"><linearGradient id="a" gradientUnits="userSpaceOnUse" x1="71" y1="44.994" x2="71" y2="56.5"><stop offset="0" stop-color="#666"/><stop offset="1" stop-color="#4d4d4d"/></linearGradient><path class="edging" opacity=".65" fill="#FFF" d="M71 43.3c4.3 0 7.7 3.5 7.7 7.7 0 4.3-3.5 7.7-7.7 7.7-4.3 0-7.7-3.5-7.7-7.7 0-4.3 3.4-7.7 7.7-7.7m0-2c-5.4 0-9.7 4.4-9.7 9.7 0 5.4 4.4 9.7 9.7 9.7 5.4 0 9.7-4.4 9.7-9.7 0-5.4-4.3-9.7-9.7-9.7z"/><path class="inner" fill="url(#a)" d="M31 56.5c-3.3 0-5.9-2.4-5.9-5.7 0-3.3 2.6-5.8 5.9-5.8 3.3 0 5.9 2.5 5.9 5.8 0 3.2-2.6 5.7-5.9 5.7z"/><g class="left animate"><path class="outer" fill="#282828" d="M67.7 29.9c-.7-1.1-2.1-1.5-3.3-.9L36.3 45.3c-1.4-1.3-3.2-2.1-5.3-2.1-4.3 0-7.7 3.5-7.7 7.7 0 4.3 3.5 7.7 7.7 7.7 4.3 0 7.7-3.5 7.7-7.7 0-.5-.1-1-.1-1.5l28.3-16.3c1.1-.6 1.5-2.1.8-3.2zM31 55.5c-2.3 0-4.1-2-4.1-4.3s1.8-4.3 4.1-4.3c2.2 0 4.1 2 4.1 4.3s-1.8 4.3-4.1 4.3z"/><path class="edging" fill="#FFF" opacity=".65" d="M65.6 28.7c.8 0 1.6.4 2.1 1.2.7 1.1.3 2.6-.9 3.3L38.6 49.5c.1.5.1 1 .1 1.5 0 4.3-3.5 7.7-7.7 7.7-4.3 0-7.7-3.5-7.7-7.7 0-4.3 3.5-7.7 7.7-7.7 2 0 3.9.8 5.3 2.1L64.5 29c.3-.2.7-.3 1.1-.3m0-2c-.8 0-1.5.2-2.2.6l-27 15.6c-1.6-1.1-3.5-1.7-5.4-1.7-5.4 0-9.7 4.4-9.7 9.7 0 5.4 4.4 9.7 9.7 9.7 5.4 0 9.7-4.4 9.7-9.7v-.4l27.1-15.7c1-.6 1.7-1.5 2-2.7.3-1.1.1-2.3-.4-3.3-.7-1.2-2.2-2.1-3.8-2.1z"/></g><path class="highlight" opacity=".35" fill="#FFF" d="M31 47.6c2.2 0 4 1.8 4 4v.2c0-.2.1-.4.1-.6 0-2.2-1.8-4.2-4.1-4.2s-4.1 2-4.1 4.2v.2c.2-2.2 1.9-3.8 4.1-3.8z"/><g class="right"><path class="inner" fill="url(#a)" d="M71 56.5c-3.3 0-5.9-2.4-5.9-5.7 0-3.3 2.6-5.8 5.9-5.8 3.3 0 5.9 2.5 5.9 5.8 0 3.2-2.6 5.7-5.9 5.7z"/><path class="outer" fill="#282828" d="M71 43.3c-4.3 0-7.7 3.5-7.7 7.7 0 4.3 3.5 7.7 7.7 7.7 4.3 0 7.7-3.5 7.7-7.7 0-4.3-3.4-7.7-7.7-7.7z"/><path class="inner" fill="url(#a)" d="M71 56.5c-3.3 0-5.9-2.4-5.9-5.7 0-3.3 2.6-5.8 5.9-5.8 3.3 0 5.9 2.5 5.9 5.8 0 3.2-2.6 5.7-5.9 5.7z"/><path class="outer" fill="#282828" d="M71 46.9c2.2 0 4.1 2 4.1 4.3 0 2.2-1.8 4.3-4.1 4.3s-4.1-2-4.1-4.3c0-2.2 1.9-4.3 4.1-4.3m0-3.6c-4.3 0-7.7 3.5-7.7 7.7 0 4.3 3.5 7.7 7.7 7.7 4.3 0 7.7-3.5 7.7-7.7 0-4.3-3.4-7.7-7.7-7.7z"/><path class="highlight" opacity=".35" fill="#FFF" d="M71 47.6c2.2 0 4 1.8 4 4v.2c0-.2.1-.4.1-.6 0-2.2-1.8-4.2-4.1-4.2s-4.1 2-4.1 4.2v.2c.2-2.2 1.9-3.8 4.1-3.8z"/></g></g></svg>