<svg xmlns="http://www.w3.org/2000/svg" width="48" height="48" viewBox="0 0 100 100"><title>toogle</title><g class="symbol"><path class="outer" fill="#282828" d="M66 37.5H35c-7.2 0-13 5.8-13 13s5.8 13 13 13h31c7.2 0 13-5.8 13-13s-5.8-13-13-13z"/><path class="edging" opacity=".65" fill="#FFF" d="M66 37.5c7.2 0 13 5.8 13 13s-5.8 13-13 13H35c-7.2 0-13-5.8-13-13s5.8-13 13-13h31m0-2H35c-8.3 0-15 6.7-15 15s6.7 15 15 15h31c8.3 0 15-6.7 15-15s-6.7-15-15-15z"/><linearGradient id="a" gradientUnits="userSpaceOnUse" x1="24" y1="50.5" x2="77" y2="50.5"><stop offset="0" stop-color="#666"/><stop offset="1" stop-color="#4d4d4d"/></linearGradient><path class="inner" fill="url(#a)" d="M66 61.5H35c-6.1 0-11-4.9-11-11s4.9-11 11-11h31c6.1 0 11 4.9 11 11s-4.9 11-11 11z"/><path class="highlight" opacity=".35" fill="#FFF" d="M66 39.5H35c-6.1 0-11 4.9-11 11 0 .3 0 .7.1 1 .5-5.7 5.3-10 11.1-10H66c5.8 0 10.6 4.3 11.1 10 0-.3.1-.7.1-1-.2-6.1-5.1-11-11.2-11z"/><g class="question-mark"><path class="content-shadow" d="M58.3 51.7l.1-.1c1.6-.1 2.2-.5 2.2-1.1 0-.5-.4-.8-1.1-.8-.7 0-1.4.3-2 .9l-1.4-1.8c.9-.9 2-1.5 3.6-1.5 2.1 0 3.5 1.1 3.5 2.9 0 1.8-1.2 2.5-2.7 2.9l-.1.9h-1.7l-.4-2.3zm-.2 3.1h2.8v2.4h-2.8v-2.4z"/><path class="content" fill="#FFF" d="M58.3 50.7l.1-.1c1.6-.1 2.2-.5 2.2-1.1 0-.5-.4-.8-1.1-.8-.7 0-1.4.3-2 .9l-1.4-1.8c.9-.9 2-1.5 3.6-1.5 2.1 0 3.5 1.1 3.5 2.9 0 1.8-1.2 2.5-2.7 2.9l-.1.9h-1.7l-.4-2.3zm-.2 3.1h2.8v2.4h-2.8v-2.4z"/></g><g class="toggle-button"><circle fill="#FFF" stroke="#282828" stroke-width="2" stroke-miterlimit="10" cx="35.5" cy="50.9" r="11.4"/><path fill="#B5B5B5" d="M39.9 53.1c0 .5-.4.9-.9.9h-.2c-.5 0-.9-.4-.9-.9v-4.2c0-.5.4-.9.9-.9h.2c.5 0 .9.4.9.9v4.2zm-3 0c0 .5-.4.9-.9.9h-.2c-.5 0-.9-.4-.9-.9v-4.2c0-.5.4-.9.9-.9h.2c.5 0 .9.4.9.9v4.2zm-3 0c0 .5-.4.9-.9.9h-.2c-.5 0-.9-.4-.9-.9v-4.2c0-.5.4-.9.9-.9h.2c.5 0 .9.4.9.9v4.2z"/></g></g></svg>