	<svg xmlns="http://www.w3.org/2000/svg" width="48" height="48" viewBox="0 0 100 100">
  <title>toogle</title>
  <g id="toggle" class="symbol">
			<g id="bound">
				<rect class="" x="0" y="0" width="100" height="100" opacity="0"/>
			</g>

			<path class="outer" fill="#282828" d="M66,37.5H35c-7.2,0-13,5.8-13,13s5.8,13,13,13h31c7.2,0,13-5.8,13-13S73.2,37.5,66,37.5L66,37.5z"/>

			<path class="edging" opacity="0.65" fill="#FFFFFF" d="M66,37.5c7.2,0,13,5.8,13,13s-5.8,13-13,13H35c-7.2,0-13-5.8-13-13s5.8-13,13-13H66 M66,35.5H35
				c-8.3,0-15,6.7-15,15s6.7,15,15,15h31c8.3,0,15-6.7,15-15S74.3,35.5,66,35.5L66,35.5z"/>

			<linearGradient id="DefaultGradient" gradientUnits="userSpaceOnUse" x1="24" y1="50.5" x2="77" y2="50.5">
				<stop  offset="0" style="stop-color:#666666"/>
				<stop  offset="1" style="stop-color:#4D4D4D"/>
			</linearGradient>
			<path class="inner" fill="url(#DefaultGradient)" d="M66,61.5H35c-6.1,0-11-4.9-11-11s4.9-11,11-11h31c6.1,0,11,4.9,11,11S72.1,61.5,66,61.5z"/>

			<path class="highlight" opacity="0.35" fill="#FFFFFF" d="M66,39.5H35c-6.1,0-11,4.9-11,11c0,0.3,0,0.7,0.1,1c0.5-5.7,5.3-10,11.1-10
			c9.8,0,28.3,0,30.8,0c5.8,0,10.6,4.3,11.1,10c0-0.3,0.1-0.7,0.1-1C77,44.4,72.1,39.5,66,39.5z"/>

			<g class="question-mark">
				<path class="content-shadow" d="M58.3,51.7l0.1-0.1c1.6-0.1,2.2-0.5,2.2-1.1v0c0-0.5-0.4-0.8-1.1-0.8c-0.7,0-1.4,0.3-2,0.9l-1.4-1.8
				c0.9-0.9,2-1.5,3.6-1.5c2.1,0,3.5,1.1,3.5,2.9v0c0,1.8-1.2,2.5-2.7,2.9L60.4,54h-1.7L58.3,51.7z M58.1,54.8h2.8v2.4h-2.8V54.8z"
				/>
				<path class="content" fill="#FFFFFF" d="M58.3,50.7l0.1-0.1c1.6-0.1,2.2-0.5,2.2-1.1v0c0-0.5-0.4-0.8-1.1-0.8c-0.7,0-1.4,0.3-2,0.9l-1.4-1.8
				c0.9-0.9,2-1.5,3.6-1.5c2.1,0,3.5,1.1,3.5,2.9v0c0,1.8-1.2,2.5-2.7,2.9L60.4,53h-1.7L58.3,50.7z M58.1,53.8h2.8v2.4h-2.8V53.8z"
				/>
			</g>

			<g class="on" style="opacity: 0">
				<path class="content-shadow" fill="#282828" d="M50.8,52.5L50.8,52.5c0-2.2,1.8-4,4.2-4s4.1,1.8,4.1,4v0c0,2.2-1.8,4-4.2,4
					C52.6,56.5,50.8,54.7,50.8,52.5z M56.9,52.5L56.9,52.5c0-1.1-0.8-2.1-2-2.1c-1.2,0-1.9,0.9-1.9,2.1v0c0,1.1,0.8,2.1,2,2.1
					C56.1,54.6,56.9,53.6,56.9,52.5z"/>
				<path class="content-shadow" fill="#282828" d="M60.2,48.6h2l3.2,4.1v-4.1h2.1v7.7h-1.9l-3.3-4.2v4.2h-2.1V48.6z"/>
				<path class="content" fill="#FFFFFF" d="M50.8,51.5L50.8,51.5c0-2.2,1.8-4,4.2-4s4.1,1.8,4.1,4v0c0,2.2-1.8,4-4.2,4
					C52.6,55.5,50.8,53.7,50.8,51.5z M56.9,51.5L56.9,51.5c0-1.1-0.8-2.1-2-2.1c-1.2,0-1.9,0.9-1.9,2.1v0c0,1.1,0.8,2.1,2,2.1
					C56.1,53.6,56.9,52.6,56.9,51.5z"/>
				<path class="content" fill="#FFFFFF" d="M60.2,47.6h2l3.2,4.1v-4.1h2.1v7.7h-1.9l-3.3-4.2v4.2h-2.1V47.6z"/>
			</g>

			<g class="off" style="opacity: 0">
				<path class="content-shadow" fill="#282828" d="M28.9,52.5L28.9,52.5c0-2.2,1.8-4,4.2-4c2.4,0,4.1,1.8,4.1,4v0c0,2.2-1.8,4-4.2,4
					C30.7,56.5,28.9,54.7,28.9,52.5z M35.1,52.5L35.1,52.5c0-1.1-0.8-2.1-2-2.1c-1.2,0-1.9,0.9-1.9,2.1v0c0,1.1,0.8,2.1,2,2.1
					C34.3,54.6,35.1,53.6,35.1,52.5z"/>
				<path class="content-shadow" fill="#282828" d="M38.3,48.6h6.2v1.9h-4v1.3h3.6v1.8h-3.6v2.8h-2.1V48.6z"/>
				<path class="content-shadow" fill="#282828" d="M45.5,48.6h6.2v1.9h-4v1.3h3.6v1.8h-3.6v2.8h-2.1V48.6z"/>

				<path class="content" fill="#FFFFFF" d="M28.9,51.5L28.9,51.5c0-2.2,1.8-4,4.2-4c2.4,0,4.1,1.8,4.1,4v0c0,2.2-1.8,4-4.2,4
					C30.7,55.5,28.9,53.7,28.9,51.5z M35.1,51.5L35.1,51.5c0-1.1-0.8-2.1-2-2.1c-1.2,0-1.9,0.9-1.9,2.1v0c0,1.1,0.8,2.1,2,2.1
					C34.3,53.6,35.1,52.6,35.1,51.5z"/>
				<path class="content" fill="#FFFFFF" d="M38.3,47.6h6.2v1.9h-4v1.3h3.6v1.8h-3.6v2.8h-2.1V47.6z"/>
				<path class="content" fill="#FFFFFF" d="M45.5,47.6h6.2v1.9h-4v1.3h3.6v1.8h-3.6v2.8h-2.1V47.6z"/>
			</g>

			<g class="toggle-button">
				<circle fill="#FFFFFF" stroke="#282828" stroke-width="2" stroke-miterlimit="10" cx="35.5" cy="50.9" r="11.4"/>

				<path fill="#B5B5B5" d="M39.9,53.1c0,0.5-0.4,0.9-0.9,0.9h-0.2c-0.5,0-0.9-0.4-0.9-0.9v-4.2c0-0.5,0.4-0.9,0.9-0.9H39
				c0.5,0,0.9,0.4,0.9,0.9V53.1z"/>
				<path fill="#B5B5B5" d="M36.9,53.1c0,0.5-0.4,0.9-0.9,0.9h-0.2c-0.5,0-0.9-0.4-0.9-0.9v-4.2c0-0.5,0.4-0.9,0.9-0.9H36
				c0.5,0,0.9,0.4,0.9,0.9V53.1z"/>
				<path fill="#B5B5B5" d="M33.9,53.1c0,0.5-0.4,0.9-0.9,0.9h-0.2c-0.5,0-0.9-0.4-0.9-0.9v-4.2c0-0.5,0.4-0.9,0.9-0.9H33
				c0.5,0,0.9,0.4,0.9,0.9V53.1z"/>
			</g>
		</g>
</svg>
