<svg xmlns="http://www.w3.org/2000/svg" width="48" height="48" viewBox="0 0 100 100">
  <title>touchscreen-large</title>
  <g id="touchscreen-large" class="symbol face">
			<path class="outer" fill="#282828" d="M76.5,28.5h-53c-3.9,0-7,3.1-7,7v28.9c0,3.9,3.1,7,7,7h53c3.9,0,7-3.1,7-7V35.5
				C83.5,31.7,80.4,28.5,76.5,28.5L76.5,28.5z"/>

			<path class="edging" opacity="0.65" fill="#FFFFFF" d="M76.5,28.5c3.9,0,7,3.1,7,7v28.9c0,3.9-3.1,7-7,7h-53c-3.9,0-7-3.1-7-7V35.5c0-3.9,3.1-7,7-7H76.5
					 M76.5,26.5h-53c-5,0-9,4-9,9v28.9c0,5,4,9,9,9h53c5,0,9-4,9-9V35.5C85.5,30.6,81.5,26.5,76.5,26.5L76.5,26.5z"/>

			<linearGradient id="screen-gradient" gradientUnits="userSpaceOnUse" x1="50" y1="34.5312" x2="50" y2="65.4688">
				<stop  offset="0" style="stop-color:#545454"/>
				<stop  offset="0.999" style="stop-color:#3B3B3B"/>
			</linearGradient>
			<path fill="url(#screen-gradient)" d="M76.5,65.5h-53c-0.6,0-1-0.4-1-1V35.5c0-0.6,0.4-1,1-1h53c0.6,0,1,0.4,1,1v28.9
				C77.5,65,77.1,65.5,76.5,65.5z"/>

			<path opacity="0.6" d="M76.5,65.5h-53c-0.6,0-1-0.4-1-1V35.5c0-0.6,0.4-1,1-1h53c0.6,0,1,0.4,1,1v28.9C77.5,65,77.1,65.5,76.5,65.5z
				"/>

			<path id="Eaton_Logo_1_" opacity="0.8" fill="#FFFFFF" d="M45.8,48.3l0.6,2.1h-1.2L45.8,48.3z M44.7,51.9l-0.5,1.7h3.1l-0.5-1.7
				H44.7z M52.8,47.1h-5.9V49h1.9v4.7h3c-0.9-0.7-1.5-1.8-1.5-3C50.3,49,51.2,47.5,52.8,47.1 M53.8,52c0.7,0,1.3-0.6,1.3-1.3
				c0,0,0,0,0,0c0-0.7-0.5-1.3-1.2-1.4c-0.7,0-1.3,0.7-1.3,1.4C52.5,51.3,53.1,51.9,53.8,52C53.8,52,53.8,52,53.8,52 M60,51.2l-1.2-4.1
				h-3.1v6.5h1.9v-4.1l0,0l1.2,4.1H62v-6.5h-1.9L60,51.2L60,51.2L60,51.2z M41.7,53.6l0.6-1.8h-2.1v-0.6h2.2l0.5-1.8h-2.8V49h2.9
				l0.6-1.9H38v6.5H41.7z"/>

			<linearGradient id="screen-highlight" gradientUnits="userSpaceOnUse" x1="22.5" y1="47.1624" x2="77.5" y2="47.1624">
				<stop  offset="0" style="stop-color:#FFFFFF;stop-opacity:0.4"/>
				<stop  offset="1" style="stop-color:#FFFFFF;stop-opacity:0"/>
			</linearGradient>
			<path opacity="0.6" fill="url(#screen-highlight)" d="M77.5,37.9v-2.3c0-0.6-0.4-1-1-1h-53c-0.6,0-1,0.4-1,1v24.3L77.5,37.9z"/>
			<linearGradient id="bezel-gradient" gradientUnits="userSpaceOnUse" x1="19.5" y1="50" x2="80.5" y2="50">
				<stop  offset="0" style="stop-color:#666666"/>
				<stop  offset="1" style="stop-color:#4D4D4D"/>
			</linearGradient>
			<path fill="url(#bezel-gradient)" d="M76.5,34.5c0.6,0,1,0.4,1,1v28.9c0,0.6-0.4,1-1,1h-53c-0.6,0-1-0.4-1-1V35.5c0-0.6,0.4-1,1-1H76.5
				 M76.5,31.5h-53c-2.2,0-4,1.8-4,4v28.9c0,2.2,1.8,4,4,4h53c2.2,0,4-1.8,4-4V35.5C80.5,33.3,78.7,31.5,76.5,31.5L76.5,31.5z"/>
			<path class="highlight" opacity="0.2" fill="#FFFFFF" d="M76.5,31.5h-53c-2.2,0-4,1.8-4,4v1c0-2.2,1.8-4,4-4h53c2.2,0,4,1.8,4,4v-1
				C80.5,33.3,78.7,31.5,76.5,31.5z"/>
		</g>
</svg>