<svg xmlns="http://www.w3.org/2000/svg" width="48" height="48" viewBox="0 0 100 100"><title>touchscreen-small</title><g class="symbol face"><path class="outer" fill="#282828" d="M73 29H27c-3.3 0-6 2.7-6 6v30c0 3.3 2.7 6 6 6h46c3.3 0 6-2.7 6-6V35c0-3.3-2.7-6-6-6z"/><path class="edging" opacity=".65" fill="#FFF" d="M73 29c3.3 0 6 2.7 6 6v30c0 3.3-2.7 6-6 6H27c-3.3 0-6-2.7-6-6V35c0-3.3 2.7-6 6-6h46m0-2H27c-4.4 0-8 3.6-8 8v30c0 4.4 3.6 8 8 8h46c4.4 0 8-3.6 8-8V35c0-4.4-3.6-8-8-8z"/><linearGradient id="a" gradientUnits="userSpaceOnUse" x1="50" y1="32" x2="50" y2="68"><stop offset="0" stop-color="#666"/><stop offset="1" stop-color="#4d4d4d"/></linearGradient><path fill="url(#a)" d="M73 68H27c-1.6 0-3-1.3-3-3V35c0-1.7 1.4-3 3-3h46c1.7 0 3 1.3 3 3v30c0 1.7-1.3 3-3 3z"/><path opacity=".2" fill="#FFF" d="M73 32H27c-1.7 0-3 1.3-3 3v1c0-1.7 1.3-3 3-3h46c1.7 0 3 1.3 3 3v-1c0-1.7-1.3-3-3-3z"/><linearGradient id="b" gradientUnits="userSpaceOnUse" x1="46" y1="37" x2="46" y2="61"><stop offset="0" stop-color="#545454"/><stop offset=".999" stop-color="#3b3b3b"/></linearGradient><path fill="url(#b)" d="M62 61H30c-.5 0-1-.5-1-1V38c0-.5.5-1 1-1h32c.5 0 1 .5 1 1v22c0 .5-.5 1-1 1z"/><path opacity=".6" d="M62 61H30c-.5 0-1-.5-1-1V38c0-.5.5-1 1-1h32c.5 0 1 .5 1 1v22c0 .5-.5 1-1 1z"/><path d="M72 41h-5c-.6 0-1-.5-1-1v-2c0-.5.4-1 1-1h5c.6 0 1 .5 1 1v2c0 .5-.4 1-1 1zm0 20h-5c-.6 0-1-.5-1-1v-2c0-.5.4-1 1-1h5c.6 0 1 .5 1 1v2c0 .5-.4 1-1 1zm0-5h-5c-.6 0-1-.5-1-1v-2c0-.5.4-1 1-1h5c.6 0 1 .5 1 1v2c0 .5-.4 1-1 1zm0-5h-5c-.6 0-1-.5-1-1v-2c0-.5.4-1 1-1h5c.6 0 1 .5 1 1v2c0 .5-.4 1-1 1zm0-5h-5c-.6 0-1-.5-1-1v-2c0-.5.4-1 1-1h5c.6 0 1 .5 1 1v2c0 .5-.4 1-1 1z" class="buttons" fill="gray"/><path opacity=".6" fill="#FFF" d="M48.2 63.5l.2.9H48l.2-.9zm-.4 1.5l-.2.7h1.3l-.2-.7h-.9zm3.4-2h-2.5v.8h.8v2h1.3c-.4-.3-.6-.8-.6-1.3-.1-.7.3-1.3 1-1.5m.4 2c.3 0 .5-.2.5-.5s-.2-.6-.5-.6-.5.3-.5.6.2.5.5.5m2.6-.3l-.5-1.7h-1.3v2.7h.8V64l.5 1.7H55V63h-.8v1.7zm-7.6 1l.2-.8h-.9v-.2h.9l.2-.7h-1.1v-.2h1.2l.2-.8H45v2.7h1.6z"/><linearGradient id="c" gradientUnits="userSpaceOnUse" x1="29" y1="45.794" x2="63" y2="45.794"><stop offset="0" stop-color="#fff" stop-opacity=".4"/><stop offset="1" stop-color="#fff" stop-opacity="0"/></linearGradient><path opacity=".6" fill="url(#c)" d="M63 42.7V38c0-.5-.5-1-1-1H30c-.5 0-1 .5-1 1v16.6l34-11.9z"/></g></svg>