	<svg xmlns="http://www.w3.org/2000/svg" width="48" height="48" viewBox="0 0 100 100">
  <title>touchscreen-small</title>
  <g id="touchscreen-small" class="symbol face">

			<path class="outer" fill="#282828" d="M73,29H27c-3.3,0-6,2.7-6,6v30c0,3.3,2.7,6,6,6h46c3.3,0,6-2.7,6-6V35C79,31.7,76.3,29,73,29z"/>

			<path class="edging" opacity="0.65" fill="#FFFFFF" d="M73,29c3.3,0,6,2.7,6,6v30c0,3.3-2.7,6-6,6H27c-3.3,0-6-2.7-6-6V35c0-3.3,2.7-6,6-6H73 M73,27H27
				c-4.4,0-8,3.6-8,8v30c0,4.4,3.6,8,8,8h46c4.4,0,8-3.6,8-8V35C81,30.6,77.4,27,73,27L73,27z"/>

			<linearGradient id="bezel-gradient" gradientUnits="userSpaceOnUse" x1="50" y1="32" x2="50" y2="68">
				<stop  offset="0" style="stop-color:#666666"/>
				<stop  offset="1" style="stop-color:#4D4D4D"/>
			</linearGradient>
			<path fill="url(#bezel-gradient)" d="M73,68H27c-1.6,0-3-1.3-3-3V35c0-1.7,1.4-3,3-3h46c1.7,0,3,1.3,3,3v30C76,66.7,74.7,68,73,68z"/>
			<path opacity="0.2" fill="#FFFFFF" d="M73,32H27c-1.7,0-3,1.3-3,3v1c0-1.7,1.3-3,3-3h46c1.7,0,3,1.3,3,3v-1C76,33.3,74.7,32,73,32z
				"/>
			<g>
				<linearGradient id="screen-gradient" gradientUnits="userSpaceOnUse" x1="46" y1="37" x2="46" y2="61">
					<stop  offset="0" style="stop-color:#545454"/>
					<stop  offset="0.999" style="stop-color:#3B3B3B"/>
				</linearGradient>
				<path fill="url(#screen-gradient)" d="M62,61H30c-0.5,0-1-0.5-1-1V38c0-0.5,0.5-1,1-1h32c0.5,0,1,0.5,1,1v22C63,60.5,62.5,61,62,61z"/>
				<path opacity="0.6" d="M62,61H30c-0.5,0-1-0.5-1-1V38c0-0.5,0.5-1,1-1h32c0.5,0,1,0.5,1,1v22C63,60.5,62.5,61,62,61z"/>
			</g>
			<g class="buttons">
				<path fill="#808080" d="M72,41h-5c-0.6,0-1-0.5-1-1v-2c0-0.5,0.4-1,1-1h5c0.6,0,1,0.5,1,1v2C73,40.5,72.6,41,72,41z"/>
				<path fill="#808080" d="M72,61h-5c-0.6,0-1-0.5-1-1v-2c0-0.5,0.4-1,1-1h5c0.6,0,1,0.5,1,1v2C73,60.5,72.6,61,72,61z"/>
				<path fill="#808080" d="M72,56h-5c-0.6,0-1-0.5-1-1v-2c0-0.5,0.4-1,1-1h5c0.6,0,1,0.5,1,1v2C73,55.5,72.6,56,72,56z"/>
				<path fill="#808080" d="M72,51h-5c-0.6,0-1-0.5-1-1v-2c0-0.5,0.4-1,1-1h5c0.6,0,1,0.5,1,1v2C73,50.5,72.6,51,72,51z"/>
				<path fill="#808080" d="M72,46h-5c-0.6,0-1-0.5-1-1v-2c0-0.5,0.4-1,1-1h5c0.6,0,1,0.5,1,1v2C73,45.5,72.6,46,72,46z"/>
			</g>
			<path id="Eaton_Logo_2_" opacity="0.6" fill="#FFFFFF" d="M48.2,63.5l0.2,0.9H48L48.2,63.5z M47.8,65l-0.2,0.7h1.3L48.7,65H47.8z
				 M51.2,63h-2.5v0.8h0.8v2h1.3c-0.4-0.3-0.6-0.8-0.6-1.3C50.1,63.8,50.5,63.2,51.2,63 M51.6,65c0.3,0,0.5-0.2,0.5-0.5c0,0,0,0,0,0
				c0-0.3-0.2-0.6-0.5-0.6c-0.3,0-0.5,0.3-0.5,0.6C51.1,64.8,51.3,65,51.6,65C51.6,65,51.6,65,51.6,65 M54.2,64.7L53.7,63h-1.3v2.7
				h0.8V64l0,0l0.5,1.7H55V63h-0.8L54.2,64.7L54.2,64.7L54.2,64.7z M46.6,65.7l0.2-0.8h-0.9v-0.2h0.9l0.2-0.7h-1.1v-0.2h1.2l0.2-0.8
				H45v2.7H46.6z"/>
			<linearGradient id="screen-highlight" gradientUnits="userSpaceOnUse" x1="29" y1="45.7937" x2="63" y2="45.7937">
				<stop  offset="0" style="stop-color:#FFFFFF;stop-opacity:0.4"/>
				<stop  offset="1" style="stop-color:#FFFFFF;stop-opacity:0"/>
			</linearGradient>
			<path opacity="0.6" fill="url(#screen-highlight)" d="M63,42.7V38c0-0.5-0.5-1-1-1H30c-0.5,0-1,0.5-1,1v16.6L63,42.7z"/>
		</g>
</svg>