<svg xmlns="http://www.w3.org/2000/svg" width="48" height="48" viewBox="0 0 100 100"><title>tower</title><g class="symbol simple static energy"><path class="bound" fill="none" d="M0 0h100v100H0z"/><path class="outer" fill="#282828" d="M75 45.8v-.6s0-.1-.1-.1c0 0 0-.1-.1-.1l-.1-.1-.1-.1s-.1 0-.1-.1l-.1-.1-.1-.1s-.1 0-.1-.1c-.1 0-.1-.1-.2-.1h-.1l-17.4-4.7-1.4-10.8h8.5v3.5c0 .8.7 1.5 1.5 1.5s1.5-.7 1.5-1.5v-5.5c0-.1 0-.1-.1-.2 0 0 0-.1-.1-.1 0-.1-.1-.1-.1-.1s0-.1-.1-.1v-.1s-.1 0-.1-.1c0 0-.1 0-.1-.1-.1 0-.1-.1-.2-.1l-10.1-5c-.2-.1-.4-.2-.7-.2H45c-.2 0-.5.1-.7.2l-10.1 5s-.1 0-.1.1c0 0-.1 0-.1.1l-.1.1-.1.1-.1.1-.1.1s-.1.1-.1.2v.1c0 .1 0 .1-.1.2v5.4c0 .8.7 1.5 1.5 1.5s1.5-.7 1.5-1.5v-3.5h8.5l-1.4 10.8-17.4 4.7h-.2c-.1 0-.1.1-.2.1 0 0-.1 0-.1.1l-.1.1h-.1l-.1.1-.1.1-.1.1v.1c0 .1 0 .1-.1.2v5.4c0 .8.7 1.5 1.5 1.5s1.5-.7 1.5-1.5v-3.5h5.4v3.6c0 .8.7 1.5 1.5 1.5s1.5-.7 1.5-1.5v-3.6h6.1l-4 30.2c-.1.8.5 1.6 1.3 1.7.8.1 1.5-.4 1.7-1.1l8.6-4.7 8.6 4.7c.2.7.8 1.2 1.5 1.2h.2c.8-.1 1.4-.9 1.3-1.7l-4-30.2h6.1v3.6c0 .8.7 1.5 1.5 1.5s1.5-.7 1.5-1.5v-3.6H72v3.5c0 .8.7 1.5 1.5 1.5s1.5-.7 1.5-1.5v-5zm-21.4 1.6L50 50.5l-3.6-3.1h7.2zm-4.7-3.1L50 43l1.1 1.3h-2.2zm-1-6.9l2.1-2.6 2.1 2.6-1.5 1.9h-1l-1.7-1.9zm2.1-5.8L47.9 29v-.2H52v.2l-2 2.6zm2.4.2l.5 3.4-1.6-2 1.1-1.4zm-3.7 1.4l-1.6 2 .5-3.4 1.1 1.4zm4.7 5.8v.3h-.3l.3-.3zm-6.8 0l.3.3h-.3V39zm-.4 3.3H48l-1.7 2h-.4l.3-2zm-.9 6.8l3.2 2.7-4 3.4.8-6.1zm4.7 4l5 4.3-5 3.4-5-3.4 5-4.3zm-6.1 6.1l4.3 2.8-5.1 3.4.8-6.2zm6.1 4l6.4 4.3L50 71l-6.4-3.5 6.4-4.3zm1.8-1.2l4.3-2.8.8 6.2-5.1-3.4zm-.3-10.2l3.2-2.7.8 6.2-4-3.5zm2.2-7.5l-1.7-2h1.8l.3 2h-.4zm-8.4-20.5h9.4l4 2H41.4l3.9-2zm-7.5 20.5l5.3-1.4-.2 1.4h-5.1zm3.9 31.3l.8-6.3 5.3 2.9-6.1 3.4zm15.7-6.3l.8 6.3-6.2-3.4 5.4-2.9zm-.5-26.4l5.3 1.4h-5.1l-.2-1.4z"/><path class="edging" opacity=".65" fill="#FFF" d="M55 20.8c.2 0 .5.1.7.2l10.1 5c.1 0 .1.1.2.1 0 0 .1 0 .1.1 0 0 .1 0 .1.1v.1s0 .1.1.1l.1.1s0 .1.1.1c0 .1.1.1.1.2v5.5c0 .8-.7 1.5-1.5 1.5s-1.5-.7-1.5-1.5v-3.5h-8.5l1.4 10.8 17.4 4.7h.1c.1 0 .1 0 .2.1 0 0 .1 0 .1.1.1 0 .1.1.1.1l.1.1s.1 0 .1.1l.1.1.1.1s0 .1.1.1c0 0 0 .1.1.1v5.6c0 .8-.7 1.5-1.5 1.5s-1.5-.7-1.5-1.6v-3.5h-5.4v3.6c0 .8-.7 1.5-1.5 1.5s-1.5-.7-1.5-1.5v-3.6h-6.1l4 30.2c.1.8-.5 1.6-1.3 1.7H60c-.7 0-1.3-.5-1.5-1.2L50 73.3 41.4 78c-.2.7-.8 1.2-1.5 1.2h-.2c-.8-.1-1.4-.9-1.3-1.7l4-30.2h-6.1v3.6c0 .8-.7 1.5-1.5 1.5s-1.5-.7-1.5-1.5v-3.6H28v3.5c0 .8-.7 1.5-1.5 1.5s-1.5-.7-1.5-1.5v-5.4c0-.1 0-.1.1-.2v-.1c0-.1 0-.1.1-.1 0 0 0-.1.1-.1l.1-.1h.1l.1-.1s.1 0 .1-.1c0 0 .1-.1.2-.1h.2l17.4-4.7L44.9 29h-8.5v3.5c0 .8-.7 1.5-1.5 1.5s-1.5-.7-1.5-1.5v-5.4c0-.1 0-.1.1-.2v-.1c0-.1.1-.1.1-.2 0 0 0-.1.1-.1l.1-.1.1-.1.1-.1s.1 0 .1-.1c0 0 .1 0 .1-.1l10.1-5c.2-.1.4-.2.7-.2h10m-13.7 5h17.3l-4-2h-9.4l-3.9 2m8.7 5.8l2.1-2.6v-.2H48v.2l2 2.6m-2.9 3.6l1.6-2-1.1-1.4-.5 3.4m5.8 0l-.5-3.4-1.1 1.4 1.6 2m-3.4 4.1h1l1.5-1.9-2-2.6-2.1 2.6 1.6 1.9m-2.9 0h.3l-.3-.3v.3m6.5 0h.3V39l-.3.3m.6 5h.4l-.3-2H52l1.7 2m-7.8 0h.4l1.7-2h-1.8l-.3 2m11.2 0h5.1l-5.3-1.4.2 1.4m-19.3 0h5.1l.2-1.4-5.3 1.4m11.1 0H51L50 43l-1.1 1.3m1.1 6.2l3.6-3.1v-.1h-7.2l3.6 3.2m5.5 4.7l-.8-6.2-3.2 2.7 4 3.5m-11.1 0l4-3.4-3.2-2.7-.8 6.1m5.6 5.6l5-3.4-5-4.3-5 4.3 5 3.4m-6.9 4.6l5.1-3.4-4.3-2.8-.8 6.2m13.8 0l-.8-6.2-4.3 2.8 5.1 3.4M50 71l6.4-3.5-6.4-4.3-6.4 4.3L50 71m-8.3 4.6l6.2-3.4-5.3-2.9-.9 6.3m16.6 0l-.8-6.3-5.3 2.9 6.1 3.4M55 18.8H45c-.5 0-1.1.1-1.6.4l-10.1 5c-.1.1-.2.1-.3.2-.1 0-.1.1-.2.1-.1.1-.2.1-.2.2l-.2.2-.1.1-.2.2c-.1.1-.1.2-.2.3-.1.1-.1.2-.2.3-.1.1-.1.2-.1.3-.1.1-.1.3-.1.4 0 .1 0 .2-.1.2v5.6c0 1.9 1.6 3.5 3.5 3.5s3.5-1.6 3.5-3.5v-1.5h4.2l-1 7.2-16.1 4.4c-.1 0-.2.1-.3.1-.1 0-.1.1-.2.1-.1.1-.2.1-.4.2-.1 0-.2.1-.2.2-.1.1-.2.1-.3.2-.1 0-.1.1-.2.2l-.1.1-.1.1-.2.2c-.1.1-.1.2-.2.3-.1.1-.1.2-.2.3-.1.1-.1.2-.1.3-.1.1-.1.3-.1.4 0 .1 0 .2-.1.2v5.6c0 1.9 1.6 3.5 3.5 3.5s3.5-1.6 3.5-3.5v-1.5h1.4v1.5c0 1.9 1.6 3.5 3.5 3.5s3.5-1.6 3.5-3.5v-1.5H40l-3.7 27.9c-.3 1.9 1.1 3.7 3 3.9h.5c1.3 0 2.4-.7 3-1.7l7-3.8 7 3.8c.6 1.1 1.7 1.7 3 1.7h.5c1.9-.3 3.3-2 3-3.9l-3.7-27.9h1.8v1.5c0 1.9 1.6 3.5 3.5 3.5s3.5-1.6 3.5-3.5v-1.5H70v1.5c0 1.9 1.6 3.5 3.5 3.5s3.5-1.6 3.5-3.5v-5.5c0-.1 0-.2-.1-.3 0-.1-.1-.2-.1-.3 0-.1-.1-.2-.1-.3-.1-.1-.1-.2-.2-.3 0-.1-.1-.2-.2-.3 0-.1-.1-.1-.1-.2l-.2-.2-.2-.2c-.1-.1-.1-.1-.2-.1-.1-.1-.2-.2-.3-.2-.1-.1-.2-.1-.2-.1-.1-.1-.2-.1-.3-.1-.1 0-.1-.1-.2-.1L58.3 38l-1-7.2h4.2v1.5c0 1.9 1.6 3.5 3.5 3.5s3.5-1.6 3.5-3.5v-5.6c0-.2-.1-.3-.1-.4 0-.1-.1-.2-.1-.3 0-.1-.1-.2-.1-.3 0-.1-.1-.2-.1-.3-.1-.1-.1-.2-.2-.3 0-.1-.1-.1-.1-.2l-.2-.2c-.1-.1-.2-.1-.2-.2-.1-.1-.1-.1-.2-.1-.1-.1-.2-.1-.3-.2-.1 0-.1-.1-.2-.1l-10.1-5c-.5-.2-1-.3-1.6-.3zm-6.7 38.4l1.7-1.5 1.7 1.5-1.7 1.2-1.7-1.2zm-.9 10.2l2.6-1.7 2.6 1.7-2.6 1.4-2.6-1.4z"/></g></svg>