<svg xmlns="http://www.w3.org/2000/svg" width="48" height="48" viewBox="0 0 100 100">
  <title>tower</title>
  <g id="tower" class="symbol simple static energy">
			<rect class="bound" fill="none" width="100" height="100"/>
			<path class="outer" fill="#282828" d="M75,45.8C75,45.8,75,45.8,75,45.8c0-0.1,0-0.2,0-0.3c0,0,0-0.1,0-0.1c0-0.1,0-0.1,0-0.2c0,0,0-0.1-0.1-0.1
				c0,0,0-0.1-0.1-0.1c0,0-0.1-0.1-0.1-0.1c0,0-0.1-0.1-0.1-0.1c0,0,0,0,0,0c0,0-0.1,0-0.1-0.1c0,0-0.1-0.1-0.1-0.1
				c0,0-0.1-0.1-0.1-0.1c0,0-0.1,0-0.1-0.1c-0.1,0-0.1-0.1-0.2-0.1c0,0,0,0-0.1,0l-17.4-4.7l-1.4-10.8h8.5v3.5c0,0.8,0.7,1.5,1.5,1.5
				c0.8,0,1.5-0.7,1.5-1.5v-5c0,0,0-0.1,0-0.1c0,0,0-0.1,0-0.1c0-0.1,0-0.1,0-0.2c0,0,0-0.1,0-0.1c0-0.1,0-0.1-0.1-0.2
				c0,0,0-0.1-0.1-0.1c0-0.1-0.1-0.1-0.1-0.1c0,0,0-0.1-0.1-0.1c0,0,0,0,0-0.1c0,0-0.1,0-0.1-0.1c0,0-0.1,0-0.1-0.1
				c-0.1,0-0.1-0.1-0.2-0.1c0,0,0,0,0,0l-10.1-5c-0.2-0.1-0.4-0.2-0.7-0.2H45c-0.2,0-0.5,0.1-0.7,0.2l-10.1,5c0,0-0.1,0-0.1,0.1
				c0,0-0.1,0-0.1,0.1c0,0-0.1,0.1-0.1,0.1c0,0,0,0-0.1,0.1c0,0,0,0,0,0c0,0-0.1,0.1-0.1,0.1c0,0-0.1,0.1-0.1,0.1c0,0-0.1,0.1-0.1,0.2
				c0,0,0,0.1,0,0.1c0,0.1,0,0.1-0.1,0.2c0,0,0,0.1,0,0.1c0,0.1,0,0.1,0,0.2c0,0,0,0.1,0,0.1v5c0,0.8,0.7,1.5,1.5,1.5
				c0.8,0,1.5-0.7,1.5-1.5h0v-3.5h8.5l-1.4,10.8l-17.4,4.7c0,0-0.1,0-0.1,0c0,0-0.1,0-0.1,0c-0.1,0-0.1,0.1-0.2,0.1c0,0-0.1,0-0.1,0.1
				c0,0-0.1,0.1-0.1,0.1c0,0,0,0-0.1,0c0,0,0,0,0,0c0,0-0.1,0.1-0.1,0.1c0,0-0.1,0.1-0.1,0.1c0,0-0.1,0.1-0.1,0.1c0,0,0,0.1,0,0.1
				c0,0.1,0,0.1-0.1,0.2c0,0,0,0.1,0,0.1c0,0.1,0,0.1,0,0.2c0,0,0,0.1,0,0.1v5c0,0.8,0.7,1.5,1.5,1.5c0.8,0,1.5-0.7,1.5-1.5v-3.5h5.4
				c0,0.1,0,0.1,0,0.2v3.4c0,0.8,0.7,1.5,1.5,1.5c0.8,0,1.5-0.7,1.5-1.5v-3.4c0-0.1,0-0.1,0-0.2h6.1l-4,30.2c-0.1,0.8,0.5,1.6,1.3,1.7
				c0.8,0.1,1.5-0.4,1.7-1.1l8.6-4.7l8.6,4.7c0.2,0.7,0.8,1.2,1.5,1.2c0.1,0,0.1,0,0.2,0c0.8-0.1,1.4-0.9,1.3-1.7l-4-30.2h6.1
				c0,0.1,0,0.1,0,0.2v3.4c0,0.8,0.7,1.5,1.5,1.5c0.8,0,1.5-0.7,1.5-1.5v-3.4c0-0.1,0-0.1,0-0.2H72v3.5c0,0.8,0.7,1.5,1.5,1.5
				s1.5-0.7,1.5-1.5L75,45.8z M53.6,47.4L50,50.5l-3.6-3.1l0,0L53.6,47.4L53.6,47.4z M48.9,44.3L50,43l1.1,1.3H48.9z M47.9,37.4
				l2.1-2.6l2.1,2.6l-1.5,1.9h-1L47.9,37.4z M50,31.6L47.9,29l0-0.2H52l0,0.2L50,31.6z M52.4,31.8l0.5,3.4l-1.6-2L52.4,31.8z
				 M48.7,33.2l-1.6,2l0.5-3.4L48.7,33.2z M53.4,39l0,0.3h-0.3L53.4,39z M46.6,39l0.3,0.3h-0.3L46.6,39z M46.2,42.3H48l-1.7,2h-0.4
				L46.2,42.3z M45.3,49.1l3.2,2.7l-4,3.4L45.3,49.1z M50,53.1l5,4.3l-5,3.4l-5-3.4L50,53.1z M43.9,59.2l4.3,2.8l-5.1,3.4L43.9,59.2z
				 M50,63.2l6.4,4.3L50,71l-6.4-3.5L50,63.2z M51.8,62l4.3-2.8l0.8,6.2L51.8,62z M51.5,51.8l3.2-2.7l0.8,6.2L51.5,51.8z M53.7,44.3
				l-1.7-2h1.8l0.3,2H53.7z M45.3,23.8h9.4l4,2h-5.3c0,0,0,0,0,0h-6.7c0,0,0,0,0,0h-5.3L45.3,23.8z M37.8,44.3l5.3-1.4l-0.2,1.4H37.8z
				 M41.7,75.6l0.8-6.3l5.3,2.9L41.7,75.6z M57.4,69.3l0.8,6.3l-6.2-3.4L57.4,69.3z M56.9,42.9l5.3,1.4h-5.1L56.9,42.9z"/>

			<path class="edging" opacity="0.65" fill="#FFFFFF" d="M55,20.8c0.2,0,0.5,0.1,0.7,0.2l10.1,5c0,0,0,0,0,0c0.1,0,0.1,0.1,0.2,0.1c0,0,0.1,0,0.1,0.1
				c0,0,0.1,0,0.1,0.1c0,0,0,0,0,0.1c0,0,0,0.1,0.1,0.1c0,0,0.1,0.1,0.1,0.1c0,0,0,0.1,0.1,0.1c0,0.1,0.1,0.1,0.1,0.2
				c0,0,0,0.1,0,0.1c0,0.1,0,0.1,0,0.2c0,0,0,0.1,0,0.1c0,0,0,0.1,0,0.1v5c0,0.8-0.7,1.5-1.5,1.5c-0.8,0-1.5-0.7-1.5-1.5v-3.5h-8.5
				l1.4,10.8l17.4,4.7c0,0,0,0,0.1,0c0.1,0,0.1,0,0.2,0.1c0,0,0.1,0,0.1,0.1c0.1,0,0.1,0.1,0.1,0.1c0,0,0.1,0.1,0.1,0.1
				c0,0,0.1,0,0.1,0.1c0,0,0,0,0,0c0,0,0.1,0.1,0.1,0.1c0,0,0.1,0.1,0.1,0.1c0,0,0,0.1,0.1,0.1c0,0,0,0.1,0.1,0.1c0,0.1,0,0.1,0,0.2
				c0,0,0,0.1,0,0.1c0,0.1,0,0.1,0,0.2c0,0,0,0.1,0,0.1l0,5c0,0.8-0.7,1.5-1.5,1.5S72,51.7,72,50.8v-3.5h-5.4c0,0.1,0,0.1,0,0.2v3.4
				c0,0.8-0.7,1.5-1.5,1.5c-0.8,0-1.5-0.7-1.5-1.5v-3.4c0-0.1,0-0.1,0-0.2h-6.1l4,30.2c0.1,0.8-0.5,1.6-1.3,1.7c-0.1,0-0.1,0-0.2,0
				c-0.7,0-1.3-0.5-1.5-1.2L50,73.3L41.4,78c-0.2,0.7-0.8,1.2-1.5,1.2c-0.1,0-0.1,0-0.2,0c-0.8-0.1-1.4-0.9-1.3-1.7l4-30.2h-6.1
				c0,0.1,0,0.1,0,0.2v3.4c0,0.8-0.7,1.5-1.5,1.5c-0.8,0-1.5-0.7-1.5-1.5v-3.4c0-0.1,0-0.1,0-0.2H28v3.5c0,0.8-0.7,1.5-1.5,1.5
				c-0.8,0-1.5-0.7-1.5-1.5v-5c0,0,0-0.1,0-0.1c0-0.1,0-0.1,0-0.2c0,0,0-0.1,0-0.1c0-0.1,0-0.1,0.1-0.2c0,0,0-0.1,0-0.1
				c0-0.1,0-0.1,0.1-0.1c0,0,0-0.1,0.1-0.1c0,0,0.1-0.1,0.1-0.1c0,0,0,0,0,0c0,0,0,0,0.1,0c0,0,0.1-0.1,0.1-0.1c0,0,0.1,0,0.1-0.1
				c0,0,0.1-0.1,0.2-0.1c0,0,0.1,0,0.1,0c0,0,0.1,0,0.1,0l17.4-4.7l1.4-10.8h-8.5v3.5h0c0,0.8-0.7,1.5-1.5,1.5
				c-0.8,0-1.5-0.7-1.5-1.5v-5c0,0,0-0.1,0-0.1c0-0.1,0-0.1,0-0.2c0,0,0-0.1,0-0.1c0-0.1,0-0.1,0.1-0.2c0,0,0-0.1,0-0.1
				c0-0.1,0.1-0.1,0.1-0.2c0,0,0-0.1,0.1-0.1c0,0,0.1-0.1,0.1-0.1c0,0,0,0,0,0c0,0,0,0,0.1-0.1c0,0,0.1-0.1,0.1-0.1
				c0,0,0.1,0,0.1-0.1c0,0,0.1,0,0.1-0.1l10.1-5c0.2-0.1,0.4-0.2,0.7-0.2H55 M41.3,25.8h5.3c0,0,0,0,0,0h6.7c0,0,0,0,0,0h5.3l-4-2
				h-9.4L41.3,25.8 M50,31.6l2.1-2.6l0-0.2H48l0,0.2L50,31.6 M47.1,35.2l1.6-2l-1.1-1.4L47.1,35.2 M52.9,35.2l-0.5-3.4l-1.1,1.4
				L52.9,35.2 M49.5,39.3h1l1.5-1.9L50,34.8l-2.1,2.6L49.5,39.3 M46.6,39.3h0.3L46.6,39L46.6,39.3 M53.1,39.3h0.3l0-0.3L53.1,39.3
				 M53.7,44.3h0.4l-0.3-2H52L53.7,44.3 M45.9,44.3h0.4l1.7-2h-1.8L45.9,44.3 M57.1,44.3h5.1l-5.3-1.4L57.1,44.3 M37.8,44.3h5.1
				l0.2-1.4L37.8,44.3 M48.9,44.3h2.1L50,43L48.9,44.3 M50,50.5l3.6-3.1l0-0.1h-7.2l0,0L50,50.5 M55.5,55.2l-0.8-6.2l-3.2,2.7
				L55.5,55.2 M44.4,55.2l4-3.4l-3.2-2.7L44.4,55.2 M50,60.8l5-3.4l-5-4.3l-5,4.3L50,60.8 M43.1,65.4l5.1-3.4l-4.3-2.8L43.1,65.4
				 M56.9,65.4l-0.8-6.2L51.8,62L56.9,65.4 M50,71l6.4-3.5L50,63.2l-6.4,4.3L50,71 M41.7,75.6l6.2-3.4l-5.3-2.9L41.7,75.6 M58.3,75.6
				l-0.8-6.3l-5.3,2.9L58.3,75.6 M55,18.8H45c-0.5,0-1.1,0.1-1.6,0.4l-10.1,5c-0.1,0.1-0.2,0.1-0.3,0.2c-0.1,0-0.1,0.1-0.2,0.1
				c-0.1,0.1-0.2,0.1-0.2,0.2c-0.1,0.1-0.1,0.1-0.2,0.2L32.3,25L32.3,25c-0.1,0.1-0.1,0.1-0.2,0.2c-0.1,0.1-0.1,0.2-0.2,0.3
				c-0.1,0.1-0.1,0.2-0.2,0.3c-0.1,0.1-0.1,0.2-0.1,0.3c-0.1,0.1-0.1,0.3-0.1,0.4c0,0.1,0,0.2-0.1,0.2c0,0.1,0,0.2,0,0.3
				c0,0.1,0,0.2,0,0.3v5c0,1.9,1.6,3.5,3.5,3.5c1.9,0,3.5-1.6,3.5-3.5v-1.5h4.2l-1,7.2l-16.1,4.4c-0.1,0-0.2,0.1-0.3,0.1
				c-0.1,0-0.1,0.1-0.2,0.1c-0.1,0.1-0.2,0.1-0.4,0.2c-0.1,0-0.2,0.1-0.2,0.2c-0.1,0.1-0.2,0.1-0.3,0.2c-0.1,0-0.1,0.1-0.2,0.2
				l-0.1,0.1l-0.1,0.1c-0.1,0.1-0.1,0.1-0.2,0.2c-0.1,0.1-0.1,0.2-0.2,0.3c-0.1,0.1-0.1,0.2-0.2,0.3c-0.1,0.1-0.1,0.2-0.1,0.3
				c-0.1,0.1-0.1,0.3-0.1,0.4c0,0.1,0,0.2-0.1,0.2c0,0.1,0,0.2,0,0.4c0,0.1,0,0.2,0,0.2v5c0,1.9,1.6,3.5,3.5,3.5
				c1.9,0,3.5-1.6,3.5-3.5v-1.5h1.4v1.5c0,1.9,1.6,3.5,3.5,3.5s3.5-1.6,3.5-3.5v-1.5h1.8l-3.7,27.9c-0.3,1.9,1.1,3.7,3,3.9
				c0.2,0,0.3,0,0.5,0c1.3,0,2.4-0.7,3-1.7l7-3.8l7,3.8c0.6,1.1,1.7,1.7,3,1.7c0.2,0,0.3,0,0.5,0c1.9-0.3,3.3-2,3-3.9l-3.7-27.9h1.8
				v1.5c0,1.9,1.6,3.5,3.5,3.5c1.9,0,3.5-1.6,3.5-3.5v-1.5H70v1.5c0,1.9,1.6,3.5,3.5,3.5c1.9,0,3.5-1.6,3.5-3.5l0-5v-0.1l0-0.1
				c0-0.1,0-0.2,0-0.3c0-0.1,0-0.2-0.1-0.3c0-0.1-0.1-0.2-0.1-0.3c0-0.1-0.1-0.2-0.1-0.3c-0.1-0.1-0.1-0.2-0.2-0.3
				c0-0.1-0.1-0.2-0.2-0.3c0-0.1-0.1-0.1-0.1-0.2c-0.1-0.1-0.1-0.1-0.2-0.2c-0.1-0.1-0.1-0.1-0.2-0.2c-0.1-0.1-0.1-0.1-0.2-0.1
				c-0.1-0.1-0.2-0.2-0.3-0.2c-0.1-0.1-0.2-0.1-0.2-0.1c-0.1-0.1-0.2-0.1-0.3-0.1c-0.1,0-0.1-0.1-0.2-0.1L58.3,38l-1-7.2h4.2v1.5
				c0,1.9,1.6,3.5,3.5,3.5c1.9,0,3.5-1.6,3.5-3.5v-5c0-0.1,0-0.2,0-0.3c0-0.1,0-0.2,0-0.3c0-0.2-0.1-0.3-0.1-0.4
				c0-0.1-0.1-0.2-0.1-0.3c0-0.1-0.1-0.2-0.1-0.3c0-0.1-0.1-0.2-0.1-0.3c-0.1-0.1-0.1-0.2-0.2-0.3c0-0.1-0.1-0.1-0.1-0.2
				c-0.1-0.1-0.1-0.1-0.2-0.2c-0.1-0.1-0.2-0.1-0.2-0.2c-0.1-0.1-0.1-0.1-0.2-0.1c-0.1-0.1-0.2-0.1-0.3-0.2c-0.1,0-0.1-0.1-0.2-0.1
				l-10.1-5C56.1,18.9,55.6,18.8,55,18.8L55,18.8z M48.3,57.2l1.7-1.5l1.7,1.5L50,58.4L48.3,57.2L48.3,57.2z M47.4,67.4l2.6-1.7
				l2.6,1.7L50,68.8L47.4,67.4L47.4,67.4z"/>
		</g>
</svg>