<svg xmlns="http://www.w3.org/2000/svg" width="48" height="48" viewBox="0 0 100 100">
  <title>transformer</title>
  <g id="transformer" class="symbol simple">

			<g id="bound">
				<rect class="" x="0" y="0" width="100" height="100" fill="none" />
				<rect class="" x="0" y="20" width="100" height="40" opacity="0" />
			</g>

			<g id="top">
				<path class="outer" fill="#282828" d="M85.5,35.7c-1.1,0-2,0.9-2,2c0,3.9-3.1,7-7,7c-3.9,0-7-3.1-7-7c0-1.1-0.9-2-2-2c-1.1,0-2,0.9-2,2
					c0,3.9-3.1,7-7,7s-7-3.1-7-7c0-1.1-0.9-2-2-2s-2,0.9-2,2c0,3.9-3.1,7-7,7c-3.9,0-7-3.1-7-7c0-1.1-0.9-2-2-2c-1.1,0-2,0.9-2,2
					c0,3.9-3.1,7-7,7c-3.9,0-7-3.1-7-7c0-1.1-0.9-2-2-2c-1.1,0-2,0.9-2,2c0,6.1,4.9,11,11,11c3.7,0,7-1.9,9-4.7c2,2.8,5.3,4.7,9,4.7
					c3.7,0,7-1.9,9-4.7c2,2.8,5.3,4.7,9,4.7c3.7,0,7-1.9,9-4.7c2,2.8,5.3,4.7,9,4.7c6.1,0,11-4.9,11-11
					C87.5,36.6,86.6,35.7,85.5,35.7z"/>
			
				<path class="edging" opacity="0.65" fill="#FFFFFF" d="M85.5,35.7c1.1,0,2,0.9,2,2c0,6.1-4.9,11-11,11c-3.7,0-7-1.9-9-4.7c-2,2.8-5.3,4.7-9,4.7
					c-3.7,0-7-1.9-9-4.7c-2,2.8-5.3,4.7-9,4.7c-3.7,0-7-1.9-9-4.7c-2,2.8-5.3,4.7-9,4.7c-6.1,0-11-4.9-11-11c0-1.1,0.9-2,2-2
					c1.1,0,2,0.9,2,2c0,3.9,3.1,7,7,7c3.9,0,7-3.1,7-7c0-1.1,0.9-2,2-2c1.1,0,2,0.9,2,2c0,3.9,3.1,7,7,7c3.9,0,7-3.1,7-7
					c0-1.1,0.9-2,2-2s2,0.9,2,2c0,3.9,3.1,7,7,7s7-3.1,7-7c0-1.1,0.9-2,2-2c1.1,0,2,0.9,2,2c0,3.9,3.1,7,7,7c3.9,0,7-3.1,7-7
					C83.5,36.6,84.4,35.7,85.5,35.7 M85.5,33.7c-2.2,0-4,1.8-4,4c0,2.8-2.2,5-5,5c-2.8,0-5-2.2-5-5c0-2.2-1.8-4-4-4
					c-2.2,0-4,1.8-4,4c0,2.8-2.2,5-5,5c-2.8,0-5-2.2-5-5c0-2.2-1.8-4-4-4c-2.2,0-4,1.8-4,4c0,2.8-2.2,5-5,5c-2.8,0-5-2.2-5-5
					c0-2.2-1.8-4-4-4c-2.2,0-4,1.8-4,4c0,2.8-2.2,5-5,5c-2.8,0-5-2.2-5-5c0-2.2-1.8-4-4-4c-2.2,0-4,1.8-4,4c0,7.2,5.8,13,13,13
					c3.4,0,6.6-1.3,9-3.6c2.4,2.3,5.6,3.6,9,3.6c3.4,0,6.6-1.3,9-3.6c2.4,2.3,5.6,3.6,9,3.6c3.4,0,6.6-1.3,9-3.6
					c2.4,2.3,5.6,3.6,9,3.6c7.2,0,13-5.8,13-13C89.5,35.5,87.7,33.7,85.5,33.7L85.5,33.7z"/>
			</g>
			<g id="bottom">
				<path class="outer" fill="#282828" d="M76.5,52.7c-3.7,0-7,1.8-9,4.5c-2-2.7-5.3-4.5-9-4.5c-3.7,0-7,1.8-9,4.5c-2-2.7-5.3-4.5-9-4.5
					c-3.7,0-7,1.8-9,4.5c-2-2.7-5.3-4.5-9-4.5c-6.1,0-11,4.8-11,10.6c0,1.1,0.9,2,2,2c1.1,0,2-0.9,2-2c0-3.7,3.1-6.6,7-6.6
					c3.9,0,7,3,7,6.6c0,1.1,0.9,2,2,2c1.1,0,2-0.9,2-2c0-3.7,3.1-6.6,7-6.6c3.9,0,7,3,7,6.6c0,1.1,0.9,2,2,2s2-0.9,2-2
					c0-3.7,3.1-6.6,7-6.6s7,3,7,6.6c0,1.1,0.9,2,2,2c1.1,0,2-0.9,2-2c0-3.7,3.1-6.6,7-6.6c3.9,0,7,3,7,6.6c0,1.1,0.9,2,2,2
					c1.1,0,2-0.9,2-2C87.5,57.5,82.6,52.7,76.5,52.7z"/>
			
				<path class="edging" opacity="0.65" fill="#FFFFFF" d="M22.5,52.7c3.7,0,7,1.8,9,4.5c2-2.7,5.3-4.5,9-4.5c3.7,0,7,1.8,9,4.5c2-2.7,5.3-4.5,9-4.5
					c3.7,0,7,1.8,9,4.5c2-2.7,5.3-4.5,9-4.5c6.1,0,11,4.8,11,10.6c0,1.1-0.9,2-2,2c-1.1,0-2-0.9-2-2c0-3.7-3.1-6.6-7-6.6
					c-3.9,0-7,3-7,6.6c0,1.1-0.9,2-2,2c-1.1,0-2-0.9-2-2c0-3.7-3.1-6.6-7-6.6s-7,3-7,6.6c0,1.1-0.9,2-2,2s-2-0.9-2-2
					c0-3.7-3.1-6.6-7-6.6c-3.9,0-7,3-7,6.6c0,1.1-0.9,2-2,2c-1.1,0-2-0.9-2-2c0-3.7-3.1-6.6-7-6.6c-3.9,0-7,3-7,6.6c0,1.1-0.9,2-2,2
					c-1.1,0-2-0.9-2-2C11.5,57.5,16.4,52.7,22.5,52.7 M22.5,50.7c-7.2,0-13,5.7-13,12.6c0,2.2,1.8,4,4,4c2.2,0,4-1.8,4-4
					c0-2.6,2.2-4.6,5-4.6c2.8,0,5,2.1,5,4.6c0,2.2,1.8,4,4,4c2.2,0,4-1.8,4-4c0-2.6,2.2-4.6,5-4.6c2.8,0,5,2.1,5,4.6
					c0,2.2,1.8,4,4,4c2.2,0,4-1.8,4-4c0-2.6,2.2-4.6,5-4.6c2.8,0,5,2.1,5,4.6c0,2.2,1.8,4,4,4c2.2,0,4-1.8,4-4c0-2.6,2.2-4.6,5-4.6
					c2.8,0,5,2.1,5,4.6c0,2.2,1.8,4,4,4c2.2,0,4-1.8,4-4c0-7-5.8-12.6-13-12.6c-3.4,0-6.6,1.3-9,3.5c-2.4-2.2-5.6-3.5-9-3.5
					c-3.4,0-6.6,1.3-9,3.5c-2.4-2.2-5.6-3.5-9-3.5c-3.4,0-6.6,1.3-9,3.5C29.1,52,25.9,50.7,22.5,50.7L22.5,50.7z"/>
			</g>
		</g>
</svg>

		