<svg xmlns="http://www.w3.org/2000/svg" width="48" height="48" viewBox="0 0 100 100"><title>transformer</title><g class="symbol simple"><path fill="none" d="M0 0h100v100H0z"/><path class="outer" fill="#282828" d="M85.5 35.7c-1.1 0-2 .9-2 2 0 3.9-3.1 7-7 7s-7-3.1-7-7c0-1.1-.9-2-2-2s-2 .9-2 2c0 3.9-3.1 7-7 7s-7-3.1-7-7c0-1.1-.9-2-2-2s-2 .9-2 2c0 3.9-3.1 7-7 7s-7-3.1-7-7c0-1.1-.9-2-2-2s-2 .9-2 2c0 3.9-3.1 7-7 7s-7-3.1-7-7c0-1.1-.9-2-2-2s-2 .9-2 2c0 6.1 4.9 11 11 11 3.7 0 7-1.9 9-4.7 2 2.8 5.3 4.7 9 4.7s7-1.9 9-4.7c2 2.8 5.3 4.7 9 4.7s7-1.9 9-4.7c2 2.8 5.3 4.7 9 4.7 6.1 0 11-4.9 11-11 0-1.1-.9-2-2-2z"/><path class="edging" opacity=".65" fill="#FFF" d="M85.5 35.7c1.1 0 2 .9 2 2 0 6.1-4.9 11-11 11-3.7 0-7-1.9-9-4.7-2 2.8-5.3 4.7-9 4.7s-7-1.9-9-4.7c-2 2.8-5.3 4.7-9 4.7s-7-1.9-9-4.7c-2 2.8-5.3 4.7-9 4.7-6.1 0-11-4.9-11-11 0-1.1.9-2 2-2s2 .9 2 2c0 3.9 3.1 7 7 7s7-3.1 7-7c0-1.1.9-2 2-2s2 .9 2 2c0 3.9 3.1 7 7 7s7-3.1 7-7c0-1.1.9-2 2-2s2 .9 2 2c0 3.9 3.1 7 7 7s7-3.1 7-7c0-1.1.9-2 2-2s2 .9 2 2c0 3.9 3.1 7 7 7s7-3.1 7-7c0-1.1.9-2 2-2m0-2c-2.2 0-4 1.8-4 4 0 2.8-2.2 5-5 5s-5-2.2-5-5c0-2.2-1.8-4-4-4s-4 1.8-4 4c0 2.8-2.2 5-5 5s-5-2.2-5-5c0-2.2-1.8-4-4-4s-4 1.8-4 4c0 2.8-2.2 5-5 5s-5-2.2-5-5c0-2.2-1.8-4-4-4s-4 1.8-4 4c0 2.8-2.2 5-5 5s-5-2.2-5-5c0-2.2-1.8-4-4-4s-4 1.8-4 4c0 7.2 5.8 13 13 13 3.4 0 6.6-1.3 9-3.6 2.4 2.3 5.6 3.6 9 3.6 3.4 0 6.6-1.3 9-3.6 2.4 2.3 5.6 3.6 9 3.6 3.4 0 6.6-1.3 9-3.6 2.4 2.3 5.6 3.6 9 3.6 7.2 0 13-5.8 13-13 0-2.2-1.8-4-4-4z"/><path class="outer" fill="#282828" d="M76.5 52.7c-3.7 0-7 1.8-9 4.5-2-2.7-5.3-4.5-9-4.5s-7 1.8-9 4.5c-2-2.7-5.3-4.5-9-4.5s-7 1.8-9 4.5c-2-2.7-5.3-4.5-9-4.5-6.1 0-11 4.8-11 10.6 0 1.1.9 2 2 2s2-.9 2-2c0-3.7 3.1-6.6 7-6.6s7 3 7 6.6c0 1.1.9 2 2 2s2-.9 2-2c0-3.7 3.1-6.6 7-6.6s7 3 7 6.6c0 1.1.9 2 2 2s2-.9 2-2c0-3.7 3.1-6.6 7-6.6s7 3 7 6.6c0 1.1.9 2 2 2s2-.9 2-2c0-3.7 3.1-6.6 7-6.6s7 3 7 6.6c0 1.1.9 2 2 2s2-.9 2-2c0-5.8-4.9-10.6-11-10.6z"/><path class="edging" opacity=".65" fill="#FFF" d="M22.5 52.7c3.7 0 7 1.8 9 4.5 2-2.7 5.3-4.5 9-4.5s7 1.8 9 4.5c2-2.7 5.3-4.5 9-4.5s7 1.8 9 4.5c2-2.7 5.3-4.5 9-4.5 6.1 0 11 4.8 11 10.6 0 1.1-.9 2-2 2s-2-.9-2-2c0-3.7-3.1-6.6-7-6.6s-7 3-7 6.6c0 1.1-.9 2-2 2s-2-.9-2-2c0-3.7-3.1-6.6-7-6.6s-7 3-7 6.6c0 1.1-.9 2-2 2s-2-.9-2-2c0-3.7-3.1-6.6-7-6.6s-7 3-7 6.6c0 1.1-.9 2-2 2s-2-.9-2-2c0-3.7-3.1-6.6-7-6.6s-7 3-7 6.6c0 1.1-.9 2-2 2s-2-.9-2-2c0-5.8 4.9-10.6 11-10.6m0-2c-7.2 0-13 5.7-13 12.6 0 2.2 1.8 4 4 4s4-1.8 4-4c0-2.6 2.2-4.6 5-4.6s5 2.1 5 4.6c0 2.2 1.8 4 4 4s4-1.8 4-4c0-2.6 2.2-4.6 5-4.6s5 2.1 5 4.6c0 2.2 1.8 4 4 4s4-1.8 4-4c0-2.6 2.2-4.6 5-4.6s5 2.1 5 4.6c0 2.2 1.8 4 4 4s4-1.8 4-4c0-2.6 2.2-4.6 5-4.6s5 2.1 5 4.6c0 2.2 1.8 4 4 4s4-1.8 4-4c0-7-5.8-12.6-13-12.6-3.4 0-6.6 1.3-9 3.5-2.4-2.2-5.6-3.5-9-3.5-3.4 0-6.6 1.3-9 3.5-2.4-2.2-5.6-3.5-9-3.5-3.4 0-6.6 1.3-9 3.5-2.4-2.2-5.6-3.5-9-3.5z"/></g></svg>