<svg xmlns="http://www.w3.org/2000/svg" width="48" height="48" viewBox="0 0 100 100"><title>trip-unit-face</title><g class="symbol face"><path class="outer" fill="#282828" d="M64.5 21h-26c-6 0-10 4-10 9v41c0 5 4 9 9 9h26c5 0 8-4 8-9V30c0-5-3-9-8-9h1z"/><path class="edging" opacity=".65" fill="#FFF" d="M64.5 21h-1 1m-1 0c5 0 8 4 8 9v41c0 5-3 9-8 9h-26c-5 0-9-4-9-9V30c0-5 4-9 10-9h25m1-2h-26c-6.8 0-12 4.7-12 11v41c0 6.1 4.9 11 11 11h26c5.8 0 10-4.6 10-11V30c0-6-3.7-10.5-9-11z"/><linearGradient id="a" gradientUnits="userSpaceOnUse" x1="50" y1="24" x2="50" y2="77"><stop offset="0" stop-color="#666"/><stop offset="1" stop-color="#4d4d4d"/></linearGradient><path fill="url(#a)" d="M63.5 77h-26c-3.3 0-6-2.7-6-6V30c0-3.3 2.7-6 6-6h26c3.3 0 5 2.7 5 6v41c0 3.3-1.7 6-5 6z"/><g opacity=".4"><linearGradient id="b" gradientUnits="userSpaceOnUse" x1="55" y1="31" x2="55" y2="37"><stop offset="0" stop-color="#e01313"/><stop offset="1" stop-color="#ce0101"/></linearGradient><path fill="url(#b)" d="M46.5 31h17v6h-17z"/></g><path fill="#282828" d="M51 43.5h18v9H51z"/><path opacity=".8" fill="none" stroke="#F2F2F2" stroke-width="2" stroke-miterlimit="10" d="M35.5 45v7l6 4v6h4v8h6"/><path fill="#4D4D4D" d="M63.5 31v6h-17v-6h17m2-2h-21v10h21V29z"/><path opacity=".6" fill="#FFF" d="M34.5 30h7v3h-7zm26 31h-2c-.6 0-1-.4-1-1v-2c0-.6.4-1 1-1h2c.6 0 1 .4 1 1v2c0 .6-.4 1-1 1zm-5 3h-2c-.6 0-1-.4-1-1v-2c0-.6.4-1 1-1h2c.6 0 1 .4 1 1v2c0 .6-.4 1-1 1zm10 0h-2c-.6 0-1-.4-1-1v-2c0-.6.4-1 1-1h2c.6 0 1 .4 1 1v2c0 .6-.4 1-1 1zm-5 2h-2c-.6 0-1-.4-1-1v-2c0-.6.4-1 1-1h2c.6 0 1 .4 1 1v2c0 .6-.4 1-1 1zm0 5h-2c-.6 0-1-.4-1-1v-2c0-.6.4-1 1-1h2c.6 0 1 .4 1 1v2c0 .6-.4 1-1 1z"/><path opacity=".8" fill="none" stroke="#F2F2F2" stroke-width="2" stroke-miterlimit="10" d="M36 62v8h3"/><path fill="url(#b)" d="M46.5 31h17v6h-17z" opacity=".4"/><path opacity=".05" fill="#FFF" d="M46.5 31h17v1h-17z"/><path opacity=".2" fill="#FFF" d="M63.5 24h-26c-3.3 0-6 2.7-6 6v1c0-3.3 2.7-6 6-6h26c3.3 0 5 2.7 5 6v-1c0-3.3-1.7-6-5-6z"/></g></svg>