<svg xmlns="http://www.w3.org/2000/svg" width="48" height="48" viewBox="0 0 100 100">
  <title>trip-unit-face</title>

		<g id="trip-unit-face" class="symbol face">

			<path class="outer" fill="#282828" d="M64.5,21h-26c-6,0-10,4-10,9v41c0,5,4,9,9,9h26c5,0,8-4,8-9V30c0-5-3-9-8-9H64.5z"/>

			<path class="edging" opacity="0.65" fill="#FFFFFF" d="M64.5,21h-1H64.5 M63.5,21c5,0,8,4,8,9v41c0,5-3,9-8,9h-26c-5,0-9-4-9-9V30c0-5,4-9,10-9H63.5 M64.5,19
				h-1h-25c-6.8,0-12,4.7-12,11v41c0,6.1,4.9,11,11,11h26c5.8,0,10-4.6,10-11V30C73.5,24,69.8,19.5,64.5,19L64.5,19L64.5,19z"/>

			<linearGradient id="trip-unit-face-background" gradientUnits="userSpaceOnUse" x1="50" y1="24" x2="50" y2="77">
				<stop  offset="0" style="stop-color:#666666"/>
				<stop  offset="1" style="stop-color:#4D4D4D"/>
			</linearGradient>
			<path fill="url(#trip-unit-face-background)" d="M63.5,77h-26c-3.3,0-6-2.7-6-6V30c0-3.3,2.7-6,6-6h26c3.3,0,5,2.7,5,6v41C68.5,74.3,66.8,77,63.5,77
				z"/>
			<g opacity="0.4">
				<linearGradient id="trip-unit-face-display" gradientUnits="userSpaceOnUse" x1="55" y1="31" x2="55" y2="37">
					<stop  offset="0" style="stop-color:#E01313"/>
					<stop  offset="1" style="stop-color:#CE0101"/>
				</linearGradient>
				<rect x="46.5" y="31" fill="url(#trip-unit-face-display)" width="17" height="6"/>
			</g>
			<g>
				<rect x="51" y="43.5" fill="#282828" width="18" height="9"/>
			</g>
			<polyline opacity="0.8" fill="none" stroke="#F2F2F2" stroke-width="2" stroke-miterlimit="10" points="35.5,45 35.5,52 41.5,56 
				41.5,62 45.5,62 45.5,70 51.5,70 	"/>
			<g>
				<path fill="#4D4D4D" d="M63.5,31v6h-17v-6H63.5 M65.5,29h-2h-17h-2v2v6v2h2h17h2v-2v-6V29L65.5,29z"/>
			</g>
			<rect x="34.5" y="30" opacity="0.6" fill="#FFFFFF" width="7" height="3"/>
			<g opacity="0.6">
				<path fill="#FFFFFF" d="M60.5,61h-2c-0.6,0-1-0.4-1-1v-2c0-0.6,0.4-1,1-1h2c0.6,0,1,0.4,1,1v2C61.5,60.6,61.1,61,60.5,61z"/>
				<path fill="#FFFFFF" d="M55.5,64h-2c-0.6,0-1-0.4-1-1v-2c0-0.6,0.4-1,1-1h2c0.6,0,1,0.4,1,1v2C56.5,63.6,56.1,64,55.5,64z"/>
				<path fill="#FFFFFF" d="M65.5,64h-2c-0.6,0-1-0.4-1-1v-2c0-0.6,0.4-1,1-1h2c0.6,0,1,0.4,1,1v2C66.5,63.6,66.1,64,65.5,64z"/>
				<path fill="#FFFFFF" d="M60.5,66h-2c-0.6,0-1-0.4-1-1v-2c0-0.6,0.4-1,1-1h2c0.6,0,1,0.4,1,1v2C61.5,65.6,61.1,66,60.5,66z"/>
				<path fill="#FFFFFF" d="M60.5,71h-2c-0.6,0-1-0.4-1-1v-2c0-0.6,0.4-1,1-1h2c0.6,0,1,0.4,1,1v2C61.5,70.6,61.1,71,60.5,71z"/>
			</g>
			<polyline opacity="0.8" fill="none" stroke="#F2F2F2" stroke-width="2" stroke-miterlimit="10" points="36,62 36,70 39,70 	"/>
			<g opacity="0.4">
				<rect x="46.5" y="31" fill="url(#trip-unit-face-display)" width="17" height="6"/>
			</g>
			<rect x="46.5" y="31" opacity="5.000000e-02" fill="#FFFFFF" width="17" height="1"/>
			<path opacity="0.2" fill="#FFFFFF" d="M63.5,24h-26c-3.3,0-6,2.7-6,6v1c0-3.3,2.7-6,6-6h26c3.3,0,5,2.7,5,6v-1
				C68.5,26.7,66.8,24,63.5,24z"/>
		</g>
</svg>