<svg xmlns="http://www.w3.org/2000/svg" width="48" height="48" viewBox="0 0 100 100"><title>vfd</title><g class="symbol"><linearGradient id="a" gradientUnits="userSpaceOnUse" x1="50" y1="40" x2="50" y2="61"><stop offset="0" stop-color="#666"/><stop offset="1" stop-color="#4d4d4d"/></linearGradient><path class="edging" opacity=".65" fill="#FFF" d="M75.5 60c0 3.3-2.7 6-6 6h-38c-3.3 0-6-2.7-6-6V41c0-3.3 2.7-6 6-6h38c3.3 0 6 2.7 6 6v19z"/><path class="outer" fill="#282828" d="M73 59c0 2.8-2.2 5-5 5H32c-2.8 0-5-2.2-5-5V42c0-2.8 2.2-5 5-5h36c2.8 0 5 2.2 5 5v17z"/><path class="inner" fill="url(#a)" d="M70 58c0 1.7-1.3 3-3 3H33c-1.7 0-3-1.3-3-3V43c0-1.7 1.3-3 3-3h34c1.7 0 3 1.3 3 3v15z"/><g class="text"><text class="text" text-anchor="middle" transform="translate(50 55)" fill="#fff" font-family="'Gotham-Black', 'Open Sans'" font-size="12" font-weight="700">VFD</text></g><path opacity=".35" fill="#FFF" d="M67 40H33c-1.7 0-3 1.3-3 3v1c0-1.7 1.3-3 3-3h34c1.7 0 3 1.3 3 3v-1c0-1.7-1.3-3-3-3z"/></g></svg>