<svg xmlns="http://www.w3.org/2000/svg" width="48" height="48" viewBox="0 0 100 100">
  <title>water-pump</title>
  <g id="water-pump" class="symbol load">
			<g id="bound">
				<rect class="" x="0" y="0" width="100" height="100" opacity="0"/>
			</g>

			<path class="outer" fill="#282828" d="M72.5,50.4c0-12.1-9.9-22-22-22c-1.3,0-2.5,0.1-3.7,0.3l11.9-11.9c0.8-0.8,0.8-2,0-2.8
				c-0.8-0.8-2-0.8-2.8,0L35.8,34.1c-4.4,4-7.2,9.8-7.2,16.3c0,0,0,0,0,0.1c0,0,0,0,0,0c0,12.1,9.9,22,22,22c1.3,0,2.5-0.1,3.7-0.3
				L42.3,84.1c-0.8,0.8-0.8,2,0,2.8c0.8,0.8,2,0.8,2.8,0l20.1-20.1C69.7,62.8,72.5,57,72.5,50.4C72.5,50.5,72.5,50.5,72.5,50.4
				C72.5,50.4,72.5,50.4,72.5,50.4z"/>

			<path class="edging" fill="#FFFFFF" opacity="0.65" d="M57.3,13.4c0.5,0,1,0.2,1.4,0.6c0.8,0.8,0.8,2,0,2.8L46.8,28.8c1.2-0.2,2.4-0.3,3.7-0.3
				c12.1,0,22,9.9,22,22c0,0,0,0,0,0c0,0,0,0,0,0.1c0,6.5-2.8,12.3-7.2,16.3L45.1,86.9c-0.4,0.4-0.9,0.6-1.4,0.6s-1-0.2-1.4-0.6
				c-0.8-0.8-0.8-2,0-2.8l11.9-11.9c-1.2,0.2-2.4,0.3-3.7,0.3c-12.1,0-22-9.9-22-22c0,0,0,0,0,0c0,0,0,0,0-0.1
				c0-6.5,2.8-12.3,7.2-16.3L55.9,14C56.3,13.6,56.8,13.4,57.3,13.4 M57.3,11.4c-1.1,0-2.1,0.4-2.8,1.2L34.4,32.7
				c-5,4.5-7.9,11-7.9,17.7v0l0,0l0,0c0,12.7,10,23.2,22.6,23.9l-8.2,8.2c-0.8,0.8-1.2,1.8-1.2,2.8c0,1.1,0.4,2.1,1.2,2.8
				c0.8,0.8,1.8,1.2,2.8,1.2c1.1,0,2.1-0.4,2.8-1.2l20.1-20.1c5-4.5,7.9-11,7.9-17.7v0l0,0l0,0c0-12.7-10-23.2-22.6-23.9l8.2-8.2
				c0.8-0.8,1.2-1.8,1.2-2.8s-0.4-2.1-1.2-2.8C59.4,11.9,58.4,11.4,57.3,11.4L57.3,11.4z"/>


			<linearGradient id="water-gradient" gradientUnits="userSpaceOnUse" x1="50.5" y1="32.5" x2="50.5" y2="68.5">
				<stop  offset="0" style="stop-color:#007ABA"/>
				<stop  offset="1" style="stop-color:#0360A7"/>
			</linearGradient>
			<circle class="inner" fill="url(#water-gradient)" cx="50.5" cy="50.5" r="18"/>
			<path class="highlight" opacity="0.35" fill="#FFFFFF" d="M32.6,51.5c0-8.1,5.3-14.9,12.7-17.2c1.7-0.5,3.4-0.8,5.3-0.8
				c1.8,0,3.5,0.3,5.1,0.8c7.3,2.1,12.6,8.7,12.9,16.6c0-0.1,0-0.3,0-0.4c0-9.9-8.1-18-18-18c-9.9,0-18,8.1-18,18c0,0.7,0,1.3,0.1,2
				C32.6,52.2,32.6,51.8,32.6,51.5z"/>


			<g class="icon">
				<circle class="content-shadow" fill-rule="evenodd" clip-rule="evenodd" fill="#282828" cx="52.7" cy="57.2" r="3.5"/>
				<path class="content-shadow" fill-rule="evenodd" clip-rule="evenodd" fill="#282828" d="M42,55.5c0,4.3,3.6,7.8,8,7.8s8-3.5,8-7.8
					c0-5.5-6.2-9.1-6.7-15.3v-0.3c0-0.7-0.6-1.3-1.3-1.3c-0.7,0-1.3,0.6-1.3,1.3v0.3C48.2,46.3,42,49.9,42,55.5z M51.1,58.7
					c1.1-0.3,2-1.2,2.3-2.2c0.1-0.5,0.5-0.8,1-0.8c0.6,0,1,0.5,1,1c0,0.7-0.6,1.9-1.5,2.7c-0.8,0.8-1.8,1.4-2.6,1.4c-0.6,0-1-0.5-1-1
					C50.3,59.2,50.6,58.8,51.1,58.7z"/>
				<path class="content" fill-rule="evenodd" clip-rule="evenodd" fill="#FFFFFF" d="M42,54.6c0,4.3,3.6,7.8,8,7.8s8-3.5,8-7.8
					c0-5.5-6.2-9.1-6.7-15.3V39c0-0.7-0.6-1.3-1.3-1.3c-0.7,0-1.3,0.6-1.3,1.3v0.3C48.2,45.4,42,49,42,54.6z M51.1,57.8
					c1.1-0.3,2-1.2,2.3-2.2c0.1-0.5,0.5-0.8,1-0.8c0.6,0,1,0.5,1,1c0,0.7-0.6,1.9-1.5,2.7c-0.8,0.8-1.8,1.4-2.6,1.4c-0.6,0-1-0.5-1-1
					C50.3,58.3,50.6,57.8,51.1,57.8z"/>
			</g>
		</g>
</svg>
