<svg xmlns="http://www.w3.org/2000/svg" width="48" height="48" viewBox="0 0 100 100"><title>wind</title><g class="symbol static energy"><g class="animate"><path class="outer" fill="#282828" d="M85.8 78.3c-1-4.5-17.4-15-20.4-16.7-3.1-1.8-6.1-2.8-8.9-3h-.6c-.2-1.3-.9-2.6-1.9-3.5l.3-.5c1.2-2.3 1.8-5.4 1.8-9.2 0-4.7-.5-11.1-1.2-16.1-1-6.8-2.1-10.8-4.9-10.8s-3.9 3.9-4.9 10.8c-.6 4.9-1.1 11.2-1.1 16 0 4.4 1 7.4 1.8 9.2l.3.6c-1 .9-1.6 2.1-1.8 3.5h-.7c-2.8.1-5.8 1.1-8.9 3-4 2.3-9.3 5.9-13.4 9.1-7.1 5.6-7.9 7.8-6.9 9.6.4.6 1.1 1.4 2.8 1.4 4.7 0 17.9-6.3 23.5-9.5 3.3-1.9 5.7-4 7-6.2l.6-.9c.5.2 1.1.2 1.7.2.6 0 1.1-.1 1.6-.2l.6.8c1.7 2.4 3.9 4.4 7 6.1 5.6 3.2 18.8 9.5 23.5 9.5 1.6 0 2.4-.7 2.8-1.3.4-.5.5-1.2.3-1.9zm-68.5 1.3s-.1 0 0 0zm65.4-.1c.1 0 0 0 0 0z"/><path class="edging" opacity=".65" fill="#FFF" d="M50.1 18.4c2.8 0 3.9 3.9 4.9 10.8.7 5.1 1.2 11.4 1.2 16.1 0 3.8-.6 6.9-1.8 9.2l-.3.5c1 .9 1.7 2.2 1.9 3.5h.6c2.8.1 5.8 1.1 8.9 3 3 1.7 19.5 12.2 20.4 16.7.2.7 0 1.4-.3 2-.4.6-1.2 1.3-2.8 1.3-4.7 0-17.9-6.3-23.5-9.5-3-1.7-5.3-3.7-7-6.1l-.6-.8c-.5.1-1 .2-1.6.2-.6 0-1.2-.1-1.7-.2l-.6.9c-1.3 2.2-3.7 4.2-7 6.2-5.7 3.2-18.8 9.5-23.5 9.5-1.7 0-2.5-.8-2.8-1.4-1-1.8-.2-4 6.9-9.6 4.1-3.2 9.3-6.8 13.4-9.1 3.1-1.8 6.1-2.8 8.9-3h.7c.2-1.3.9-2.6 1.8-3.5l-.3-.6c-.9-1.8-1.9-4.8-1.9-9.2 0-4.7.5-11.1 1.2-16.1 1-6.9 2.1-10.8 4.9-10.8m32.6 61.1s.1 0 0 0c.1 0 .1 0 0 0m-65.5.1s.1 0 0 0c.1 0 .1 0 0 0 .1 0 .1 0 0 0m32.9-63.2c-5.1 0-6.1 7.2-6.9 12.5C42.5 34 42 40.4 42 45.3c0 4.4.9 7.5 1.7 9.4-.4.6-.8 1.2-1 1.9-2.9.3-5.9 1.4-9 3.2-4.1 2.3-9.4 6-13.6 9.2-6.2 4.9-9.4 8.5-7.4 12.1.5.9 1.8 2.4 4.6 2.4 6 0 21.1-7.9 24.5-9.8 3.5-2 6-4.3 7.6-6.6h1.4c1.8 2.6 4.3 4.7 7.5 6.5 3.4 1.9 18.5 9.8 24.5 9.8 2.7 0 3.9-1.4 4.4-2.3.6-1 .9-2.2.6-3.5-1.3-6.1-21.2-17.9-21.4-18-3-1.8-6-2.9-8.9-3.2-.3-.7-.6-1.3-1-1.9 1.1-2.5 1.7-5.7 1.7-9.5 0-4.8-.5-11.3-1.2-16.4-.8-5-1.8-12.2-6.9-12.2z"/><linearGradient id="a" gradientUnits="userSpaceOnUse" x1="46" y1="36.962" x2="54.2" y2="36.962"><stop offset="0" stop-color="#e6e6e6"/><stop offset="1" stop-color="#ccc"/></linearGradient><path fill="url(#a)" d="M50.1 53c.9 0 1.7.2 2.5.6.9-1.7 1.6-4.3 1.6-8.3 0-9.1-1.8-24.9-4.1-24.9S46 36.2 46 45.3c0 3.9.8 6.6 1.6 8.3.8-.4 1.6-.6 2.5-.6z"/><linearGradient id="b" gradientUnits="userSpaceOnUse" x1="16.196" y1="79.255" x2="44.919" y2="62.672"><stop offset="0" stop-color="#e6e6e6"/><stop offset="1" stop-color="#ccc"/></linearGradient><path fill="url(#b)" d="M43.7 60.6c-1.9.1-4.6.7-8 2.7-7.9 4.5-20.6 14-19.5 16 1.1 2 15.7-4.4 23.6-8.9 3.4-2 5.3-3.9 6.3-5.5-1.3-.9-2.3-2.5-2.4-4.3z"/><linearGradient id="c" gradientUnits="userSpaceOnUse" x1="55.134" y1="62.625" x2="83.796" y2="79.173"><stop offset="0" stop-color="#e6e6e6"/><stop offset="1" stop-color="#ccc"/></linearGradient><path fill="url(#c)" d="M64.4 63.3c-3.4-2-6.1-2.6-8-2.7-.1 1.8-1 3.3-2.5 4.2 1.1 1.6 2.9 3.6 6.3 5.5 7.9 4.5 22.5 10.9 23.6 8.9 1.3-1.8-11.5-11.3-19.4-15.9z"/></g><g class="center"><linearGradient id="d" gradientUnits="userSpaceOnUse" x1="50.1" y1="55.462" x2="50.1" y2="63.262"><stop offset="0" stop-color="#e6e6e6"/><stop offset="1" stop-color="#ccc"/></linearGradient><path fill="url(#d)" d="M54 59.4c0-1.5-.9-2.9-2.2-3.5-.5-.3-1.1-.4-1.7-.4-.6 0-1.2.1-1.7.4-1.3.6-2.2 2-2.2 3.5v.3c.1 1.2.7 2.3 1.7 2.9 0 0 .1 0 .1.1.6.4 1.3.6 2.1.6s1.5-.2 2.1-.6c0 0 .1 0 .1-.1.9-.6 1.6-1.7 1.7-2.9v-.3z"/></g></g></svg>