	<svg xmlns="http://www.w3.org/2000/svg" width="48" height="48" viewBox="0 0 100 100">
  <title>wind</title>
  <g id="wind" class="symbol static energy">
			<g id="bound">
				<rect class="" x="0" y="0" width="100" height="100" opacity="0"/>
			</g>

			<g class="animate">	
				<path class="outer" fill="#282828" d="M85.8,78.3c-1-4.5-17.4-15-20.4-16.7c-3.1-1.8-6.1-2.8-8.9-3l-0.6,0c-0.2-1.3-0.9-2.6-1.9-3.5l0.3-0.5
					c1.2-2.3,1.8-5.4,1.8-9.2c0-4.7-0.5-11.1-1.2-16.1c-1-6.8-2.1-10.8-4.9-10.8s-3.9,3.9-4.9,10.8C44.5,34.2,44,40.5,44,45.3
					c0,4.4,1,7.4,1.8,9.2l0.3,0.6c-1,0.9-1.6,2.1-1.8,3.5l-0.7,0c-2.8,0.1-5.8,1.1-8.9,3c-4,2.3-9.3,5.9-13.4,9.1
					c-7.1,5.6-7.9,7.8-6.9,9.6c0.4,0.6,1.1,1.4,2.8,1.4c4.7,0,17.9-6.3,23.5-9.5c3.3-1.9,5.7-4,7-6.2l0.6-0.9c0.5,0.2,1.1,0.2,1.7,0.2
					c0.6,0,1.1-0.1,1.6-0.2l0.6,0.8c1.7,2.4,3.9,4.4,7,6.1c5.6,3.2,18.8,9.5,23.5,9.5c1.6,0,2.4-0.7,2.8-1.3
					C85.9,79.7,86,79,85.8,78.3z M17.3,79.6C17.3,79.6,17.2,79.6,17.3,79.6C17.3,79.6,17.3,79.6,17.3,79.6
					C17.3,79.6,17.3,79.6,17.3,79.6z M82.7,79.5C82.7,79.5,82.7,79.5,82.7,79.5C82.7,79.5,82.7,79.5,82.7,79.5
					C82.8,79.5,82.7,79.5,82.7,79.5z"/>

				<path class="edging" opacity="0.65" fill="#FFFFFF" d="M50.1,18.4c2.8,0,3.9,3.9,4.9,10.8c0.7,5.1,1.2,11.4,1.2,16.1c0,3.8-0.6,6.9-1.8,9.2L54.1,55
					c1,0.9,1.7,2.2,1.9,3.5l0.6,0c2.8,0.1,5.8,1.1,8.9,3c3,1.7,19.5,12.2,20.4,16.7c0.2,0.7,0,1.4-0.3,2c-0.4,0.6-1.2,1.3-2.8,1.3
					c-4.7,0-17.9-6.3-23.5-9.5c-3-1.7-5.3-3.7-7-6.1l-0.6-0.8c-0.5,0.1-1,0.2-1.6,0.2c-0.6,0-1.2-0.1-1.7-0.2l-0.6,0.9
					c-1.3,2.2-3.7,4.2-7,6.2c-5.7,3.2-18.8,9.5-23.5,9.5c-1.7,0-2.5-0.8-2.8-1.4c-1-1.8-0.2-4,6.9-9.6c4.1-3.2,9.3-6.8,13.4-9.1
					c3.1-1.8,6.1-2.8,8.9-3l0.7,0c0.2-1.3,0.9-2.6,1.8-3.5l-0.3-0.6C45,52.7,44,49.7,44,45.3c0-4.7,0.5-11.1,1.2-16.1
					C46.2,22.3,47.3,18.4,50.1,18.4 M82.7,79.5C82.7,79.5,82.8,79.5,82.7,79.5C82.8,79.5,82.8,79.5,82.7,79.5
					C82.7,79.5,82.7,79.5,82.7,79.5C82.7,79.5,82.7,79.5,82.7,79.5 M17.2,79.6C17.2,79.6,17.2,79.6,17.2,79.6
					C17.2,79.6,17.3,79.6,17.2,79.6C17.3,79.6,17.3,79.6,17.2,79.6C17.3,79.6,17.3,79.6,17.2,79.6 M50.1,16.4
					c-5.1,0-6.1,7.2-6.9,12.5C42.5,34,42,40.4,42,45.3c0,4.4,0.9,7.5,1.7,9.4c-0.4,0.6-0.8,1.2-1,1.9c-2.9,0.3-5.9,1.4-9,3.2
					c-4.1,2.3-9.4,6-13.6,9.2c-6.2,4.9-9.4,8.5-7.4,12.1c0.5,0.9,1.8,2.4,4.6,2.4c6,0,21.1-7.9,24.5-9.8c3.5-2,6-4.3,7.6-6.6
					c0.3,0,0.5,0,0.8,0c0.2,0,0.4,0,0.6,0c1.8,2.6,4.3,4.7,7.5,6.5c3.4,1.9,18.5,9.8,24.5,9.8c2.7,0,3.9-1.4,4.4-2.3
					c0.6-1,0.9-2.2,0.6-3.5c-1.3-6.1-21.2-17.9-21.4-18c-3-1.8-6-2.9-8.9-3.2c-0.3-0.7-0.6-1.3-1-1.9c1.1-2.5,1.7-5.7,1.7-9.5
					c0-4.8-0.5-11.3-1.2-16.4C56.2,23.6,55.2,16.4,50.1,16.4L50.1,16.4z"/>

				<linearGradient id="wind-gradient-1" gradientUnits="userSpaceOnUse" x1="46.0002" y1="36.9616" x2="54.2002" y2="36.9616">
					<stop  offset="0" style="stop-color:#E6E6E6"/>
					<stop  offset="1" style="stop-color:#CCCCCC"/>
				</linearGradient>
				<path fill="url(#wind-gradient-1)" d="M50.1,53c0.9,0,1.7,0.2,2.5,0.6c0.9-1.7,1.6-4.3,1.6-8.3c0-9.1-1.8-24.9-4.1-24.9S46,36.2,46,45.3
					c0,3.9,0.8,6.6,1.6,8.3C48.4,53.2,49.2,53,50.1,53z"/>

				<linearGradient id="wind-gradient-2" gradientUnits="userSpaceOnUse" x1="16.1964" y1="79.2551" x2="44.9188" y2="62.6722">
					<stop  offset="0" style="stop-color:#E6E6E6"/>
					<stop  offset="1" style="stop-color:#CCCCCC"/>
				</linearGradient>
				<path fill="url(#wind-gradient-2)" d="M43.7,60.6c-1.9,0.1-4.6,0.7-8,2.7c-7.9,4.5-20.6,14-19.5,16c1.1,2,15.7-4.4,23.6-8.9
					c3.4-2,5.3-3.9,6.3-5.5C44.8,64,43.8,62.4,43.7,60.6z"/>

				<linearGradient id="wind-gradient-3" gradientUnits="userSpaceOnUse" x1="55.1338" y1="62.625" x2="83.7963" y2="79.1733">
					<stop  offset="0" style="stop-color:#E6E6E6"/>
					<stop  offset="1" style="stop-color:#CCCCCC"/>
				</linearGradient>
				<path fill="url(#wind-gradient-3)" d="M64.4,63.3c-3.4-2-6.1-2.6-8-2.7c-0.1,1.8-1,3.3-2.5,4.2c1.1,1.6,2.9,3.6,6.3,5.5
					c7.9,4.5,22.5,10.9,23.6,8.9C85.1,77.4,72.3,67.9,64.4,63.3z"/>
			</g>
			<g class="center">
				<linearGradient id="wind-gradient-4" gradientUnits="userSpaceOnUse" x1="50.1002" y1="55.4616" x2="50.1002" y2="63.2616">
					<stop  offset="0" style="stop-color:#E6E6E6"/>
					<stop  offset="1" style="stop-color:#CCCCCC"/>
				</linearGradient>
				<path fill="url(#wind-gradient-4)" d="M54,59.4c0-1.5-0.9-2.9-2.2-3.5c-0.5-0.3-1.1-0.4-1.7-0.4c-0.6,0-1.2,0.1-1.7,0.4
					c-1.3,0.6-2.2,2-2.2,3.5c0,0.1,0,0.2,0,0.3c0.1,1.2,0.7,2.3,1.7,2.9c0,0,0.1,0,0.1,0.1c0.6,0.4,1.3,0.6,2.1,0.6s1.5-0.2,2.1-0.6
					c0,0,0.1,0,0.1-0.1c0.9-0.6,1.6-1.7,1.7-2.9C54,59.6,54,59.5,54,59.4z"/>
			</g>
		</g>
</svg>