<?xml version="1.0" standalone="no"?>
<!DOCTYPE svg PUBLIC "-//W3C//DTD SVG 1.1//EN" "http://www.w3.org/Graphics/SVG/1.1/DTD/svg11.dtd" >
<svg xmlns="http://www.w3.org/2000/svg">
<defs>
  <font id="BrightlayerUIIcons" horiz-adv-x="1028.5714285714284">
    <font-face font-family="BrightlayerUIIcons"
      units-per-em="300" ascent="300"
      descent="0" />
    <missing-glyph horiz-adv-x="0" />
    <glyph glyph-name="ac"
      unicode="&#xF101;"
      horiz-adv-x="300" d="M208.375 87.5C199.34875 87.65875 190.48625 89.94875 182.51375 94.185C174.54125 98.42125 167.68375 104.4825 162.5 111.875L117.000125 173C114.09875 177.422125 110.150375 181.05925 105.50575 183.58875C100.861125 186.11825 95.66375 187.461875 90.375125 187.500375C84.667875 186.822625 79.2165 184.744875 74.506 181.451875C69.7955 178.158875 65.971875 173.7525 63.375125 168.625L48.250125 143.625L26.750125 156.125L41.875125 181.125375C46.479 189.879375 53.20525 197.3385 61.43825 202.819875C69.67125 208.30125 79.14775 211.62975 89.000125 212.500375C98.5395 212.779125 107.9935 210.6315 116.47625 206.259C124.959 201.886375 132.1925 195.432 137.5 187.500375L183.5 126.375C186.4175 122.13125 190.315 118.65375 194.86375 116.2375C199.41125 113.8225 204.475 112.54 209.625 112.5C215.33625 113.1675 220.79125 115.24125 225.50375 118.535C230.21625 121.82875 234.0375 126.24125 236.625 131.375L251.75 156.375L273.25 143.875L258.125 118.875C253.52125 110.12125 246.795 102.6625 238.5625 97.18125C230.32875 91.7 220.8525 88.37125 211 87.5H208.375z" />
    <glyph glyph-name="account_settings"
      unicode="&#xF102;"
      horiz-adv-x="300" d="M120 258.5A48.25 48.25 0 1 1 168.25 210.375A48.125 48.125 0 0 1 120 258.5M204.375 162.5A3.25 3.25 0 0 1 201.25 159.875L199 144A57.875 57.875 0 0 1 188.75 138.375L173.75 144.375A3.75 3.75 0 0 1 170 142.75L157.5 122A3 3 0 0 1 158.25 118.125L170.75 108.25A49.25 49.25 0 0 1 170.75 95.75L158.25 85.875A2.875 2.875 0 0 1 157.5 82.125L170 61.25C170.75 59.625 172.375 59.625 173.75 59.625L188.75 65.75A48.125 48.125 0 0 1 199 60L201.25 44.125A3 3 0 0 1 204.375 41.625H228.5A3 3 0 0 1 231.3750000000001 44.125L233.6250000000001 60A62.5 62.5 0 0 1 243.75 65.75L258.625 59.625C260.125 59.625 261.75 59.625 262.625 61.25L275.125 82.125A2.875 2.875 0 0 1 274.3750000000001 85.875L261.8750000000001 95.75A50 50 0 0 1 261.8750000000001 101.875A33.375 33.375 0 0 1 261.8750000000001 107.875L274.3750000000001 117.75A3.125 3.125 0 0 1 275.125 121.625L262.625 142.375C261.8750000000001 144 260.25 144 258.7500000000001 144L243.75 137.5A50.875 50.875 0 0 1 233.5 143.125L231.25 159A2.875 2.875 0 0 1 228.5 161.625H205.75M121.375 137.5C68.125 137.5 25 116.25 25 89.625V65.625H141.625A83.125 83.125 0 0 0 141.625 136.75A169.5 169.5 0 0 1 121.375 137.5M216.375 119.625A18.125 18.125 0 1 0 216.375 83.5A18.125 18.125 0 0 0 216.375 119.625z" />
    <glyph glyph-name="air_conditioner"
      unicode="&#xF103;"
      horiz-adv-x="300" d="M250 250H50A25 25 0 0 1 25 225V75A25 25 0 0 1 50 50H250A25 25 0 0 1 275 75V225A25 25 0 0 1 250 250zM125 75A75 75 0 1 0 200 150A75 75 0 0 0 125 75zM237.5 200A12.5 12.5 0 1 0 250 212.5A12.5 12.5 0 0 0 237.5 200zM187.5 146.875C187.5 118.75 165.125 118.125 157.75 133A20.125 20.125 0 0 1 151.125 139.75A20.625 20.625 0 0 1 142.25 143A22.75 22.75 0 0 0 136.5 135.375C149 112.25 144 87.5 121.625 87.5C93.75 87.5 93.125 109.875 107.875 117.25A21 21 0 0 1 114.625 123.75A22 22 0 0 1 118 132.5A20.125 20.125 0 0 0 110.125 138.25C87.5 125.875 62.5 130.875 62.5 153.125C62.5 181.25 84.625 182 92 167.125A19 19 0 0 1 98.625 160.375A22.625 22.625 0 0 1 107.5 157A18.875 18.875 0 0 0 113.25 164.75C100.75 187.5 105.75 212.5 128 212.5H128C156.125 212.5 156.75 190.25 141.875 182.75A19.75 19.75 0 0 1 135.125 176.25A20.625 20.625 0 0 1 131.875 167.375A21.25 21.25 0 0 0 139.5 161.75C162.5 174.25 187.5 169.25 187.5 146.875z" />
    <glyph glyph-name="air_filter"
      unicode="&#xF104;"
      horiz-adv-x="300" d="M236.375 161.375A98 98 0 0 1 275 150V125A117.125 117.125 0 0 0 227.1250000000001 137.5L226.1250000000001 137.5A98 98 0 0 1 187.5 150A76.875 76.875 0 0 1 152.5 138.875L151.75 138.875A106.75 106.75 0 0 0 112.5 125V150A94.875 94.875 0 0 1 141.25 160.75L142 160.75A98.25 98.25 0 0 0 187.5 175A117.125 117.125 0 0 0 235.375 161.875zM235.3750000000001 111.375A117.125 117.125 0 0 1 187.5 125A98.25 98.25 0 0 1 142 111.5L141.25 111.5A94.875 94.875 0 0 0 112.5 100V75A106.75 106.75 0 0 1 151.75 88.25L152.5 88.25A76.875 76.875 0 0 0 187.5 100A98 98 0 0 0 226.125 88.625L227.125 88.625A119.125 119.125 0 0 1 275 75V100A98 98 0 0 0 236.375 111.375zM237.5 210.875V250A25 25 0 0 1 212.5 275H87.5A25 25 0 0 1 62.5 250V210.375A112.5 112.5 0 0 1 25 218.75V193.75A103.25 103.25 0 0 0 57.875 185.5L59.125 185.5L62.5 184V160.375A112.5 112.5 0 0 1 25 168.75V143.75A103.25 103.25 0 0 0 57.875 135.5L59.125 135.5L62.5 134.375V110.75A112.5 112.5 0 0 1 25 119.125V94.125A103.25 103.25 0 0 0 57.875 85.875L59.125 85.875L62.5 84.75V50A25 25 0 0 1 87.5 25H212.5A25 25 0 0 1 237.5 50V58.625L227.1250000000001 62.5L226.1250000000001 62.5C221.3750000000001 64.625 216.8750000000001 66.625 212.5000000000001 68.25V50H87.5V250H212.5V220.875A85.125 85.125 0 0 1 187.5 225A98.25 98.25 0 0 1 142 211.5L141.25 211.5A94.875 94.875 0 0 0 112.5 200V175A106.75 106.75 0 0 1 151.75 188.25L152.5 188.25A76.875 76.875 0 0 0 187.5 200A98 98 0 0 0 226.125 188.625L227.125 188.625A119.125 119.125 0 0 1 275 175V200A95.375 95.375 0 0 0 237.5 210.875z" />
    <glyph glyph-name="amazon_alexa"
      unicode="&#xF105;"
      horiz-adv-x="300" d="M150 275C125.2775 275 101.109875 267.668875 80.55375 253.93375C59.997625 240.1985 43.976125 220.67625 34.515125 197.835375C25.054125 174.995 22.57875 149.86125 27.401875 125.61375C32.225 101.36625 44.130125 79.09375 61.61175 61.61125C79.09325 44.13 101.366125 32.225 125.61375 27.40125C149.86125 22.57875 174.995 25.05375 197.835 34.515C220.67625 43.97625 240.19875 59.9975 253.93375 80.55375C267.66875 101.11 275 125.2775 275 150C275 166.415 271.76625 182.66975 265.485 197.835375C259.20375 213.001125 249.99625 226.781 238.38875 238.388375C226.78125 249.995625 213.00125 259.203125 197.835 265.485C182.67 271.76675 166.415 275 150 275zM130.375 26.625V51.625C130.24625 55.8475 128.905 59.9425 126.51125 63.4225C124.116875 66.9025 120.77175 69.62 116.875 71.25C102.6475 77.24 90.31 86.97375 81.175625 99.41875C72.041375 111.8625 66.451875 126.55125 65.002375 141.92C63.55275 157.28875 66.29725 172.7625 72.943625 186.695375C79.59 200.62825 89.889625 212.49825 102.7465 221.042375C115.60325 229.586375 130.53625 234.48475 145.955 235.216C161.375 235.947375 176.705 232.48425 190.3125 225.19525C203.92 217.906375 215.29625 207.064375 223.23125 193.823125C231.1675 180.581875 235.36375 165.4375 235.375 150C235.375 94.625 192.375 42.375 130.375 26.625z" />
    <glyph glyph-name="amazon"
      unicode="&#xF106;"
      horiz-adv-x="300" d="M199.125 86.375C196.875 84.375 193.75 84.25 191.25 85.625C180.125 94.875 178.125 99.125 172 108C153.625 89.25 140.625 83.625 116.750375 83.625C88.625375 83.625 66.625375 101 66.625375 135.75C66.625375 163 81.250375 181.25 102.375375 190.5C120.625375 198.5 146 200 165.375 202.125V206.25C165.375 214.5 166 223.875 161.25 230.75C157.25 236.875 149.375 239.5 142.5 239.5C129.75 239.5 118.375375 232.875 115.625375 219.375C115.000375 216.375 112.500375 213.375 109.750375 213.25L77.250375 216.75C74.500375 217.375 71.500375 219.5 72.250375 223.75C79.750375 263.125 115.375375 275 147.25 275C163.5 275 184.75 270.625 197.625 258.375C213.875 243.125 212.5 222.75 212.5 200.625V148.5C212.5 132.875 218.75 125.875 225 117.5C227.1250000000001 114.375 227.625 110.75 225 108.625L199.25 86.375H199.125zM165.375 168V175C141.125 175 115.500375 170.125 115.500375 141.625C115.500375 127.125 123.125375 117.25 135.875 117.25C145.375 117.25 153.75 123.125 159.125 132.5C165.625 144.125 165.375 155 165.375 168zM252 55.75C225 35.75 185.25 25 151.25 25C103.625375 25 60.625375 42.625 28.125375 72C25.625375 74.25 27.875375 77.375 31.250375 75.625C66.000375 55.25 109.375375 43 154.125 43C184.25 43 217.5 49.25 248 62.125C252.625 64.125 256.25 59.125 252 55.75zM263.375 68.75C259.875 73.25 240.25 70.875 231.25 69.75C228.875 69.5 228.5 71.75 230.875 73.5C246.375 84.5 272 81.25 275 77.625C278 73.875 274.125 48.25 259.5 36.125C257.25 34.125 255.125 35.25 256.25 37.5C259.5 45.875 266.875 64.25 263.375 68.75z" />
    <glyph glyph-name="ami_gateway"
      unicode="&#xF107;"
      horiz-adv-x="300" d="M225 37.5H75C68.369625 37.5 62.01075 40.13375 57.322375 44.8225C52.633875 49.51125 50 55.87 50 62.5V237.5C50 244.130375 52.633875 250.48925 57.322375 255.177625C62.01075 259.866125 68.369625 262.5 75 262.5H225C231.63 262.5 237.98875 259.866125 242.6775 255.177625C247.36625 250.48925 250 244.130375 250 237.5V62.5C250 55.87 247.36625 49.51125 242.6775 44.8225C237.98875 40.13375 231.63 37.5 225 37.5zM225 212.5C225 219.130375 222.36625 225.48925 217.6775 230.177625C212.98875 234.866125 206.63 237.5 200 237.5C193.37 237.5 187.01125 234.866125 182.3225 230.177625C177.63375 225.48925 175 219.130375 175 212.5C175 205.869625 177.63375 199.51075 182.3225 194.822375C187.01125 190.133875 193.37 187.5 200 187.5C206.63 187.5 212.98875 190.133875 217.6775 194.822375C222.36625 199.51075 225 205.869625 225 212.5z" />
    <glyph glyph-name="angular"
      unicode="&#xF108;"
      horiz-adv-x="300" d="M149.99875 268.75L260.49875 229.375L243.74875 83.125L149.99875 31.25L56.248875 83.125L39.498875 229.375L149.99875 268.75zM149.99875 242.5L80.873875 87.5H106.623875L120.498875 122.25H179.24875L193.12375 87.5H218.74875L149.99875 242.5zM170.24875 143.75H129.87375L149.99875 192.125L170.24875 143.75z" />
    <glyph glyph-name="api_settings"
      unicode="&#xF109;"
      horiz-adv-x="300" d="M266.25 62.5A30.25 30.25 0 0 0 235 55.5L205.625 26.125A4.25 4.25 0 0 0 199.5 26.125L187 38.625A4.5 4.5 0 0 0 187 44.75L216.5 74.125A29.875 29.875 0 0 0 258.875 110.5L239 90L251.5 77.5L271.75 97.75A29.875 29.875 0 0 0 266.25 62.5zM275 200V128A55.875 55.875 0 0 1 243.75 137.5A57.125 57.125 0 0 1 227.625 135.125V183.875H208.25V125A56.25 56.25 0 0 1 187.5 81.25A50.875 50.875 0 0 1 187.5 75H50A25 25 0 0 0 25 100V200A25 25 0 0 0 50 225H250A25 25 0 0 0 275 200zM137.5 112.5L113.625 184.125H87.5L64.625 112.5H85.875L89.5 125.875H112.5L116.125 112.5zM197.125 161.125A20.875 20.875 0 0 1 190.25 178A30.375 30.375 0 0 1 170 183.875H145V112.5H164.25V136.125H169.75A34.375 34.375 0 0 1 182.25 138.25A22.75 22.75 0 0 1 190.625 143.75A20.375 20.375 0 0 1 195.125 151.75A29.5 29.5 0 0 1 196.875 161.125zM105.875 153.375L104.375 158.875L102.5 166.125C102.5 168.75 101.5 170.75 101.125 172.375A57.875 57.875 0 0 0 99.875 166.375C99.875 164 98.875 161.625 98.25 159.25S97.25 155 96.75 153.375L93.75 141.75H108.625zM175.75 165.875A7.875 7.875 0 0 1 169.5 168H164.5V151.625H168.375A11.25 11.25 0 0 1 173 152.5A7.375 7.375 0 0 1 176.375 155.25A9.375 9.375 0 0 1 177.75 160.5A7.125 7.125 0 0 1 175 166.125z" />
    <glyph glyph-name="api"
      unicode="&#xF10A;"
      horiz-adv-x="300" d="M250 225H50A25 25 0 0 1 25 200V100A25 25 0 0 1 50 75H250A25 25 0 0 1 275 100V200A25 25 0 0 1 250 225zM116.125 115L112.5 128.375H89.5L85.875 115H64.625L87.5 186.625H113.625L137.5 115zM195.375 154.25A21.25 21.25 0 0 0 190.875 146.25A22.75 22.75 0 0 0 182.5 140.75A34.375 34.375 0 0 0 170 138.625H164.5V115H145V186.375H170A30.375 30.375 0 0 0 190.25 180.5A20.875 20.875 0 0 0 197.125 163.625A29.5 29.5 0 0 0 195.375 154.25zM227.625 115H208.25V186.375H227.625zM105.625 155.875L108.625 144.25H93.5L96.5 155.875C96.5 157.5 97.5 159.375 98 161.75S99.125 166.5 99.625 168.875A57.875 57.875 0 0 1 100.875 174.875C100.875 173.25 101.75 171.25 102.25 168.625L104.125 161.375zM175.5 168.375A7.125 7.125 0 0 0 177.5 163A9.375 9.375 0 0 0 176.125 157.75A7.375 7.375 0 0 0 172.75 155A11.25 11.25 0 0 0 168.125 154.125H164.25V170.75H169.25A7.875 7.875 0 0 0 175 168.625z" />
    <glyph glyph-name="apparent_energy"
      unicode="&#xF10B;"
      horiz-adv-x="300" d="M214.685 262.5L267.7175000000001 209.467V262.5H214.685zM42.724625 162.3075H100.317V179.81725H63.9285V205.603875H97.786125V222.97725H63.9285V244.9335H100.317V262.307H42.724625V162.3075zM37.5 49.96375H72.855375L250.03625 227.144625L232.35875 244.82225L37.5 49.96375zM267.725 62.46375H230.225V49.96375H267.725V62.46375zM167.725 62.46375H205.225V49.96375H167.725V62.46375zM267.725 149.96375V187.46375H255.225V149.96375H267.725zM267.725 124.96375V87.46375H255.225V124.96375H267.725zM142.7225 49.96375H105.249L117.749 62.46375H142.7225V49.96375z" />
    <glyph glyph-name="apparent_power"
      unicode="&#xF10C;"
      horiz-adv-x="300" d="M267.75 262.5V209.5L250 227.125L72.875 50H37.5L232.375 244.875L214.625 262.5zM63.875 162.5H42.75V262.5H75A42.125 42.125 0 0 0 102.625 254.625A28.375 28.375 0 0 0 111.75 231.25A30.25 30.25 0 0 0 101.625 206.25A42.625 42.625 0 0 0 73 197.625H63.875zM63.875 215.375H70.875A23 23 0 0 1 85.5 219.25A13.625 13.625 0 0 1 90.375 230.5A13.75 13.75 0 0 1 86.25 241.5A18.625 18.625 0 0 1 73.75 245.125H63.875zM230.2500000000001 50H267.75V62.5H230.2500000000001zM167.75 50H205.25V62.5H167.75zM255.2500000000001 150H267.75V187.5H255.2500000000001zM255.2500000000001 87.5H267.75V125H255.2500000000001zM105.25 50H142.75V62.5H117.75z" />
    <glyph glyph-name="apple_logo"
      unicode="&#xF10D;"
      horiz-adv-x="300" d="M233.875 56.25C223.5 40.75 212.5 25.625 195.75 25.375C179 25 173.625 35.25 154.625 35.25C135.5 35.25 129.625 25.625 113.749625 25C97.374625 24.375 84.999625 41.5 74.499625 56.625C53.124625 87.5 36.749625 144.375 58.749625 182.625C69.624625 201.625 89.124625 213.625 110.249625 214C126.25 214.25 141.5 203.125 151.375 203.125C161.125 203.125 179.625 216.5 199 214.5C207.125 214.125 229.875 211.25 244.5 189.75C243.375 189 217.375 173.75 217.625 142.125C218 104.375 250.75 91.75 251.125 91.625C250.75 90.75 245.8750000000001 73.625 233.875 56.25zM162.5 256.25C171.625 266.625 186.75 274.5 199.25 275C200.875 260.375 195 245.625 186.25 235.125C177.625 224.5 163.375 216.25 149.375 217.375C147.5 231.75 154.5 246.75 162.5 256.25z" />
    <glyph glyph-name="apple"
      unicode="&#xF10E;"
      horiz-adv-x="300" d="M250 175C275 137.5 212.5 25 187.5 25C162.5 25 162.5 37.5 150 37.5C137.5 37.5 137.5 25 112.5 25C87.5 25 25 137.5 50 175C75 212.5 112.5 212.5 137.5 200V237.5C67.25 199.125 51.375 252.75 51.375 252.75C51.375 252.75 84.625 297.625 137.5 237.5V262.5H162.5V200C187.5 212.5 225 212.5 250 175z" />
    <glyph glyph-name="arc_rated_hood"
      unicode="&#xF10F;"
      horiz-adv-x="300" d="M24.249625 104.625L24.999625 62.5C24.999625 52.555 28.9505 43.01625 35.983125 35.98375C43.01575 28.95125 52.554 25 62.499625 25H65.874625V61.625C65.766625 84.50125 58.269125 106.73125 44.499625 125C41.829875 125 39.186375 124.4725 36.721375 123.44625C34.25625 122.42125 32.018375 120.91875 30.136375 119.025C28.254375 117.13125 26.765375 114.88375 25.755125 112.4125C24.74475 109.94125 24.233125 107.295 24.249625 104.625zM254.75 125C241.06875 106.7 233.66 84.47375 233.6250000000001 61.625V25H237.5C247.445 25 256.9837500000001 28.95125 264.01625 35.98375C271.0487500000001 43.01625 275 52.555 275 62.5V104.875C274.96625 110.22375 272.81875 115.3425 269.025 119.11375C265.23 122.88375 260.09875 125 254.75 125zM242.875 158C238.84 177.6195 236.78875 197.595 236.7500000000001 217.625V220.75C236.7500000000001 227.87425 235.34625 234.928625 232.62 241.510625C229.89375 248.0925 225.8975 254.073 220.86 259.1105C215.8225 264.148125 209.8425 268.144125 203.26 270.8705C196.67875 273.59675 189.62375 275 182.5 275H116.749625C102.361625 275 88.563 269.284375 78.389125 259.1105C68.21525 248.93675 62.499625 235.138 62.499625 220.75V217.625C62.523875 197.59175 60.471125 177.61 56.374625 158L53.499625 144.25L59.499625 136.25C75.727375 114.6125 84.499625 88.29625 84.499625 61.25V25H214.875V61.625C214.875 88.67125 223.6475 114.9875 239.8750000000001 136.625L245.8750000000001 144.625L242.875 158zM203.75 148L199.375 147.125C183.1025 143.99125 166.57125 142.40125 150 142.375C133.42875 142.40125 116.89675 143.99125 100.624625 147.125L96.249625 148C93.237625 148.8775 90.665875 150.85625 89.044875 153.5425C87.424 156.22875 86.872375 159.42625 87.499625 162.5L95.249625 216.875C95.309 217.891 95.578 218.88375 96.03975 219.79075C96.5015 220.69775 97.146 221.499375 97.93275 222.14525C98.719375 222.791 99.63125 223.266875 100.61075 223.543125C101.590375 223.81925 102.6165 223.88975 103.624625 223.75C118.7795 220.16375 134.30125 218.359875 149.875 218.375C165.4475 218.359875 180.97 220.16375 196.125 223.75C197.1325 223.88975 198.15875 223.81925 199.13875 223.543125C200.1175 223.266875 201.03 222.791 201.81625 222.14525C202.60375 221.499375 203.2475 220.69775 203.71 219.79075C204.17125 218.88375 204.44 217.891 204.5 216.875L212.5 162.5C213.1275 159.42625 212.575 156.22875 210.955 153.5425C209.33375 150.85625 206.76125 148.8775 203.75 148z" />
    <glyph glyph-name="arc_rated_suit"
      unicode="&#xF110;"
      horiz-adv-x="300" d="M150 275H115.625C111.589 274.910375 107.723625 273.355375 104.75 270.625L21.875 187.5L44.125 165.5L100 221.75V25H137.5V137.5H162.5V25H200V221.75L255.875 165.625L278.125 187.5L195.25 270.625C192.28875 273.37525 188.41625 274.9335 184.375 275H150z" />
    <glyph glyph-name="asparagus"
      unicode="&#xF111;"
      horiz-adv-x="300" d="M150 275A75 75 0 0 1 134.375 264L141.75 246.875L125 254.75A40.125 40.125 0 0 1 116 240.625A158.625 158.625 0 0 1 150 200A54.875 54.875 0 0 0 112.5 225A60.75 60.75 0 0 1 125 187.5V37.5S129.625 25 150 25S175 37.5 175 37.5V175A71.5 71.5 0 0 0 150 166S187.5 201.375 187.5 225A45.625 45.625 0 0 1 181.25 245.75A68.625 68.625 0 0 0 150 225A244.75 244.75 0 0 1 171.125 259A137.5 137.5 0 0 1 150 275zM87.5 250A75 75 0 0 1 71.875 239L79.25 221.875L62.5 229.75A40.125 40.125 0 0 1 53.5 215.625A158.625 158.625 0 0 1 87.5 175A54.875 54.875 0 0 0 50 200A60.75 60.75 0 0 1 62.5 162.5V50S67.125 37.5 87.5 37.5S112.5 50 112.5 50V150A71.5 71.5 0 0 0 87.5 141A203.125 203.125 0 0 1 112.5 169.875V183.625A76.25 76.25 0 0 0 102.375 207A73.375 73.375 0 0 0 87.5 200S93.875 208.5 100 219.125C100 221.125 100 223 100 225A26.25 26.25 0 0 0 104.25 237.5A146.5 146.5 0 0 1 87.5 250zM212.5 250A71 71 0 0 1 197.625 239.875A46.875 46.875 0 0 0 200 223.875A61.375 61.375 0 0 0 191 197.25A134.125 134.125 0 0 1 212.5 175A55.125 55.125 0 0 0 185.125 187.5L182.875 184.375A12.5 12.5 0 0 0 187.5 175V50S192.125 37.5 212.5 37.5S237.5 50 237.5 50V150A71.5 71.5 0 0 0 212.5 141S250 176.25 250 200A45.625 45.625 0 0 1 243.75 220.75A68.625 68.625 0 0 0 212.5 200A244.75 244.75 0 0 1 233.6250000000001 234A137.5 137.5 0 0 1 212.5 250z" />
    <glyph glyph-name="ats_alt"
      unicode="&#xF112;"
      horiz-adv-x="300" d="M100 175A37.5 37.5 0 0 1 137.5 212.5A37.5 37.5 0 0 1 100 250A36.375 36.375 0 0 1 65 225H25V200H65A36.375 36.375 0 0 1 100 175zM100 225A11.75 11.75 0 0 0 112.5 212.5A11.75 11.75 0 0 0 100 200A11.75 11.75 0 0 0 87.5 212.5A11.75 11.75 0 0 0 100 225zM247.5 162.5A36.375 36.375 0 0 1 212.5 187.5A37.5 37.5 0 0 1 175 150A34.25 34.25 0 0 1 175 143.75L125 115.75A37.5 37.5 0 0 1 100 125A36.375 36.375 0 0 1 65 100H25V75H65A36.375 36.375 0 0 1 100 50A37.5 37.5 0 0 1 137.5 87.5A34.25 34.25 0 0 1 137.5 93.75L187.5 121.75A37.5 37.5 0 0 1 212.5 112.5A36.375 36.375 0 0 1 247.5 137.5H275V162.5zM100 75A12.5 12.5 0 0 0 100 100A12.5 12.5 0 0 0 100 75zM212.5 137.5A12.5 12.5 0 1 0 225 150A11.75 11.75 0 0 0 212.5 137.5z" />
    <glyph glyph-name="ats"
      unicode="&#xF113;"
      horiz-adv-x="300" d="M247.5 162.5A36.375 36.375 0 0 1 212.5 187.5A37.5 37.5 0 0 1 187.5 178.25L137.5 206.25A34.25 34.25 0 0 1 137.5 212.5A37.5 37.5 0 0 1 100 250A36.375 36.375 0 0 1 65 225H25V200H65A36.375 36.375 0 0 1 100 175A37.5 37.5 0 0 1 125 184.25L175 156.25A34.25 34.25 0 0 1 175 150A37.5 37.5 0 0 1 212.5 112.5A36.375 36.375 0 0 1 247.5 137.5H275V162.5zM100 200A11.75 11.75 0 0 0 87.5 212.5A11.75 11.75 0 0 0 100 225A11.75 11.75 0 0 0 112.5 212.5A11.75 11.75 0 0 0 100 200zM212.5 137.5A12.5 12.5 0 1 0 225 150A11.75 11.75 0 0 0 212.5 137.5zM100 125A36.375 36.375 0 0 1 65 100H25V75H65A36.375 36.375 0 0 1 100 50A37.5 37.5 0 0 1 100 125zM100 75A12.5 12.5 0 0 0 100 100A12.5 12.5 0 0 0 100 75z" />
    <glyph glyph-name="balaclava"
      unicode="&#xF114;"
      horiz-adv-x="300" d="M246.37625 53.125C241.04625 97.72875 238.08375 142.5825 237.50125 187.5C237.50125 210.7065 228.2825 232.962375 211.87375 249.371875C195.46375 265.78125 173.2075 275 150.00125 275C126.795 275 104.539 265.78125 88.1295 249.371875C71.720125 232.962375 62.501375 210.7065 62.501375 187.5C61.9185 142.5825 58.956 97.72875 53.626375 53.125C53.18075 49.59 53.49625 46 54.5515 42.59625C55.60675 39.1925 57.3775 36.05375 59.745 33.39C62.112375 30.7262500000001 65.021875 28.6 68.278375 27.15375C71.53475 25.70625 75.063 24.9725 78.626375 25H221.50125C225.05375 24.99 228.56875 25.7375 231.81 27.1925C235.05125 28.6475 237.945 30.77625 240.29875 33.4375C242.6525 36.09875 244.4125 39.23125 245.46 42.62625C246.50875 46.02125 246.82 49.6 246.37625 53.125zM150.00125 125C115.501375 125 87.501375 141.75 87.501375 162.5C87.501375 183.25 115.501375 200 150.00125 200C184.50125 200 212.50125 183.25 212.50125 162.5C212.50125 141.75 184.50125 125 150.00125 125z" />
    <glyph glyph-name="barley_alt"
      unicode="&#xF115;"
      horiz-adv-x="300" d="M91.625 70.875C81.25 85.375 81.25 102.125 81.25 118.75C102.125 106.25 122.875 93.75 133.375 79.125L137.5 72.125V100.625C118.75 111.875 101 123.375 91.625 136.5C81.25 151 81.25 167.75 81.25 184.375C102.125 171.875 122.875 159.375 133.375 144.75L137.5 137.5V166.25C118.75 177.5 101 189 91.625 202.125C81.25 216.625 81.25 233.375 81.25 250C102.125 237.5 122.875 225 133.375 210.375C134.625 208.625 135.75 206.75 136.75 204.75C134.625 212.5 133.25 219.75 133.125 227.25C133 246.125 141.25 265.5 149.5 284.875C158.125 266.375 166.75 247.75 166.875 228.875C167 221 165.625 213 163.375 205.125C164.375 206.875 165.375 208.625 166.625 210.375C177.125 225 197.875 237.5 218.75 250C218.75 233.375 218.75 216.625 208.375 202.125C199 189 181.25 177.5 162.5 166.25V137.5L166.625 144.75C177.125 159.375 197.875 171.875 218.75 184.375C218.75 167.75 218.75 151 208.375 136.5C199 123.375 181.25 111.875 162.5 100.625V72.125L166.625 79.125C177.125 93.75 197.875 106.25 218.75 118.75C218.75 102.125 218.75 85.375 208.375 70.875C199 57.75 181.25 46.25 162.5 35V12.5H137.5V35C118.75 46.25 101 57.75 91.625 70.875z" />
    <glyph glyph-name="barley"
      unicode="&#xF116;"
      horiz-adv-x="300" d="M225 275C206.75 275 201.75 243.75 200 225C200 220.75 200 216.625 200 212.5V200H212.5C235.5 200 275 202.375 275 225A283.75 283.75 0 0 1 221.5 221.5A284.5 284.5 0 0 1 225 275zM275 275A35.25 35.25 0 0 1 237.5 242.125A28.625 28.625 0 0 1 237.5 237.5A34.875 34.875 0 0 1 275 269.375A42.25 42.25 0 0 1 275 275zM175 250C163.375 238.375 162.5 198.125 162.5 175V162.5H175C198 162.5 238.375 163.375 250 175C240.875 184.125 215.125 187.5 200 187.5A52.5 52.5 0 0 1 185.5 185.125A54.75 54.75 0 0 1 187.5 200C187.5 214.75 183.875 240.625 175 250zM137.5 212.5C125.875 200.875 125 160.625 125 137.5V125H137.5C160.5 125 200.875 125.875 212.5 137.5C203.375 146.625 177.625 150 162.5 150A52.5 52.5 0 0 1 148 147.625A54.75 54.75 0 0 1 150 162.5C150 177.25 146.375 203.125 137.5 212.5zM100 175C88.375 163.375 87.5 123.125 87.5 100V87.5H100C123 87.5 163.375 88.375 175 100C165.875 109.125 140.125 112.5 125 112.5A52.5 52.5 0 0 1 110.5 110.125A54.75 54.75 0 0 1 112.5 125C112.5 139.75 108.875 165.625 100 175zM62.5 137.5C50.875 125.875 50 85.625 50 62.5V58.625L25 33.625L33.75 25L58.75 50H62.5C85.5 50 125.875 50.875 137.5 62.5C128.375 71.625 102.625 75 87.5 75A52.5 52.5 0 0 1 73 72.625A54.75 54.75 0 0 1 75 87.5C75 102.25 71.375 128.125 62.5 137.5z" />
    <glyph glyph-name="barrel"
      unicode="&#xF117;"
      horiz-adv-x="300" d="M225 62.5H237.5V37.5H62.5V62.5H75V137.5H62.5V162.5H75V237.5H62.5V262.5H237.5V237.5H225V162.5H237.5V137.5H225V62.5M112.5 137.5A37.5 37.5 0 0 1 150 100A37.5 37.5 0 0 1 187.5 137.5C187.5 162.5 150 204.625 150 204.625C150 204.625 112.5 162.5 112.5 137.5z" />
    <glyph glyph-name="baseball"
      unicode="&#xF118;"
      horiz-adv-x="300" d="M150 275A122.625 122.625 0 0 1 68.75 245A108 108 0 0 0 85 227.5L98.75 235L111.25 213.75L98.75 206.25A119.125 119.125 0 0 0 111.25 162.5H125V137.5H111.25A111.25 111.25 0 0 0 97.5 92.5L110 85L97.5 63.75L83.75 71.25A108 108 0 0 0 67.5 53.75A125 125 0 0 1 148.75 23.75A122.625 122.625 0 0 1 230.0000000000001 53.75A108 108 0 0 0 213.75 71.25L200 63.75L187.5 85L200 92.5A137.5 137.5 0 0 0 186.25 136.25H175V161.25H188.75A111.25 111.25 0 0 0 202.5 206.25L190 213.75L202.5 235L216.25 227.5A108 108 0 0 0 232.5000000000001 245A128.5 128.5 0 0 1 150 275M51.25 227.5A131.5 131.5 0 0 1 25 150A122.375 122.375 0 0 1 51.25 73.75L62.5 85L55 88.75L67.5 110L76.25 105A98.25 98.25 0 0 1 86.25 137.5H75V162.5H86.25A98.25 98.25 0 0 1 76.25 195L67.5 188.75L55 210L62.5 213.75A30.5 30.5 0 0 1 51.25 227.5M248.75 227.5L237.5 216.25L245.0000000000001 212.5L232.5000000000001 191.25L223.75 196.25A98.25 98.25 0 0 1 213.75 163.75H225V138.75H213.75A98.25 98.25 0 0 1 223.75 106.25L232.5000000000001 111.25L245.0000000000001 90L237.5 85A95.5 95.5 0 0 1 248.75 73.75A125 125 0 0 1 275 150A131.5 131.5 0 0 1 248.75 227.5z" />
    <glyph glyph-name="basketball_hoop"
      unicode="&#xF119;"
      horiz-adv-x="300" d="M262.5 275H37.5A25 25 0 0 1 12.5 250V100A25 25 0 0 1 37.5 75H82.125L100 12.5L125 37.5L150 12.5L175 37.5L200 12.5L217.875 75H262.5A25 25 0 0 1 287.5 100V250A25 25 0 0 1 262.5 275M262.5 100H225V125H212.5V187.5A25 25 0 0 1 187.5 212.5H112.5A25 25 0 0 1 87.5 187.5V125H75V100H37.5V250H262.5V100M112.5 125V187.5H187.5V125z" />
    <glyph glyph-name="battery_charging_twotone_05"
      unicode="&#xF11A;"
      horiz-adv-x="300" d="M37.5 211.625A16.375 16.375 0 0 1 25 195.875V104.25A16.5 16.5 0 0 1 37.5 88.375zM250 175V195.875A16.75 16.75 0 0 1 233.3750000000001 212.5H41.75A16 16 0 0 1 37.5 211.625V88.375A15.125 15.125 0 0 1 41.625 87.5H233.3750000000001A16.75 16.75 0 0 1 250 104.125V125H275V175zM143.75 137.5V112.5L50 162.5H118.75V187.5L212.5 137.5z" />
    <glyph glyph-name="battery_charging_twotone_0px"
      unicode="&#xF11B;"
      horiz-adv-x="300" d="M250 175V195.875A16.75 16.75 0 0 1 233.3750000000001 212.5H41.75A16.75 16.75 0 0 1 25 195.875V104.25A16.75 16.75 0 0 1 41.625 87.5H233.3750000000001A16.75 16.75 0 0 1 250 104.125V125H275V175zM143.75 137.5V112.5L50 162.5H118.75V187.5L212.5 137.5z" />
    <glyph glyph-name="battery_charging_twotone_10"
      unicode="&#xF11C;"
      horiz-adv-x="300" d="M50 212.5H41.75A16.75 16.75 0 0 1 25 195.875V104.25A16.75 16.75 0 0 1 41.625 87.5H50zM250 175V195.875A16.75 16.75 0 0 1 233.3750000000001 212.5H50V162.5H118.75V187.5L212.5 137.5H143.75V112.5L50 162.5V87.5H233.3750000000001A16.75 16.75 0 0 1 250 104.125V125H275V175z" />
    <glyph glyph-name="battery_charging_twotone_100"
      unicode="&#xF11D;"
      horiz-adv-x="300" d="M250 175V195.875A16.75 16.75 0 0 1 233.3750000000001 212.5H41.75A16.75 16.75 0 0 1 25 195.875V104.25A16.75 16.75 0 0 1 41.625 87.5H233.3750000000001A16.75 16.75 0 0 1 250 104.125V125H275V175zM143.75 137.5V112.5L50 162.5H118.75V187.5L212.5 137.5z" />
    <glyph glyph-name="battery_charging_twotone_15"
      unicode="&#xF11E;"
      horiz-adv-x="300" d="M250 175V195.875A16.75 16.75 0 0 1 233.3750000000001 212.5H62.5V162.5H118.75V187.5L212.5 137.5H143.75V112.5L62.5 155.875V87.5H233.3750000000001A16.75 16.75 0 0 1 250 104.125V125H275V175zM50 162.5H62.5V212.5H41.75A16.75 16.75 0 0 1 25 195.875V104.25A16.75 16.75 0 0 1 41.625 87.5H62.5V155.875z" />
    <glyph glyph-name="battery_charging_twotone_20"
      unicode="&#xF11F;"
      horiz-adv-x="300" d="M250 175V195.875A16.75 16.75 0 0 1 233.3750000000001 212.5H75V162.5H118.75V187.5L212.5 137.5H143.75V112.5L75 149.125V87.5H233.3750000000001A16.75 16.75 0 0 1 250 104.125V125H275V175zM50 162.5H75V212.5H41.75A16.75 16.75 0 0 1 25 195.875V104.25A16.75 16.75 0 0 1 41.625 87.5H75V149.125z" />
    <glyph glyph-name="battery_charging_twotone_25"
      unicode="&#xF120;"
      horiz-adv-x="300" d="M250 175V195.875A16.75 16.75 0 0 1 233.3750000000001 212.5H87.5V162.5H118.75V187.5L212.5 137.5H143.75V112.5L87.5 142.5V87.5H233.3750000000001A16.75 16.75 0 0 1 250 104.125V125H275V175zM50 162.5H87.5V212.5H41.75A16.75 16.75 0 0 1 25 195.875V104.25A16.75 16.75 0 0 1 41.625 87.5H87.5V142.5z" />
    <glyph glyph-name="battery_charging_twotone_30"
      unicode="&#xF121;"
      horiz-adv-x="300" d="M250 175V195.875A16.75 16.75 0 0 1 233.3750000000001 212.5H100V162.5H118.75V187.5L212.5 137.5H143.75V112.5L100 135.875V87.5H233.3750000000001A16.75 16.75 0 0 1 250 104.125V125H275V175zM50 162.5H100V212.5H41.75A16.75 16.75 0 0 1 25 195.875V104.25A16.75 16.75 0 0 1 41.625 87.5H100V135.875z" />
    <glyph glyph-name="battery_charging_twotone_35"
      unicode="&#xF122;"
      horiz-adv-x="300" d="M250 175V195.875A16.75 16.75 0 0 1 233.3750000000001 212.5H112.5V162.5H118.75V187.5L212.5 137.5H143.75V112.5L112.5 129.125V87.5H233.3750000000001A16.75 16.75 0 0 1 250 104.125V125H275V175zM50 162.5H112.5V212.5H41.75A16.75 16.75 0 0 1 25 195.875V104.25A16.75 16.75 0 0 1 41.625 87.5H112.5V129.125z" />
    <glyph glyph-name="battery_charging_twotone_40"
      unicode="&#xF123;"
      horiz-adv-x="300" d="M250 175V195.875A16.75 16.75 0 0 1 233.3750000000001 212.5H125V184.125L212.5 137.5H143.75V112.5L125 122.5V87.5H233.3750000000001A16.75 16.75 0 0 1 250 104.125V125H275V175zM50 162.5H118.75V187.5L125 184.125V212.5H41.75A16.75 16.75 0 0 1 25 195.875V104.25A16.75 16.75 0 0 1 41.625 87.5H125V122.5z" />
    <glyph glyph-name="battery_charging_twotone_45"
      unicode="&#xF124;"
      horiz-adv-x="300" d="M250 175V195.875A16.75 16.75 0 0 1 233.3750000000001 212.5H137.5V177.5L212.5 137.5H143.75V112.5L137.5 115.875V87.5H233.3750000000001A16.75 16.75 0 0 1 250 104.125V125H275V175zM50 162.5H118.75V187.5L137.5 177.5V212.5H41.75A16.75 16.75 0 0 1 25 195.875V104.25A16.75 16.75 0 0 1 41.625 87.5H137.5V115.875z" />
    <glyph glyph-name="battery_charging_twotone_50"
      unicode="&#xF125;"
      horiz-adv-x="300" d="M250 175V195.875A16.75 16.75 0 0 1 233.3750000000001 212.5H150V170.875L212.5 137.5H150V87.5H233.3750000000001A16.75 16.75 0 0 1 250 104.125V125H275V175zM143.75 137.5V112.5L50 162.5H118.75V187.5L150 170.875V212.5H41.75A16.75 16.75 0 0 1 25 195.875V104.25A16.75 16.75 0 0 1 41.625 87.5H150V137.5z" />
    <glyph glyph-name="battery_charging_twotone_55"
      unicode="&#xF126;"
      horiz-adv-x="300" d="M250 175V195.875A16.75 16.75 0 0 1 233.3750000000001 212.5H162.5V164.125L212.5 137.5H162.5V87.5H233.3750000000001A16.75 16.75 0 0 1 250 104.125V125H275V175zM143.75 137.5V112.5L50 162.5H118.75V187.5L162.5 164.125V212.5H41.75A16.75 16.75 0 0 1 25 195.875V104.25A16.75 16.75 0 0 1 41.625 87.5H162.5V137.5z" />
    <glyph glyph-name="battery_charging_twotone_60"
      unicode="&#xF127;"
      horiz-adv-x="300" d="M250 175V195.875A16.75 16.75 0 0 1 233.3750000000001 212.5H175V157.5L212.5 137.5H175V87.5H233.3750000000001A16.75 16.75 0 0 1 250 104.125V125H275V175zM143.75 137.5V112.5L50 162.5H118.75V187.5L175 157.5V212.5H41.75A16.75 16.75 0 0 1 25 195.875V104.25A16.75 16.75 0 0 1 41.625 87.5H175V137.5z" />
    <glyph glyph-name="battery_charging_twotone_65"
      unicode="&#xF128;"
      horiz-adv-x="300" d="M250 175V195.875A16.75 16.75 0 0 1 233.3750000000001 212.5H187.5V150.875L212.5 137.5H187.5V87.5H233.3750000000001A16.75 16.75 0 0 1 250 104.125V125H275V175zM143.75 137.5V112.5L50 162.5H118.75V187.5L187.5 150.875V212.5H41.75A16.75 16.75 0 0 1 25 195.875V104.25A16.75 16.75 0 0 1 41.625 87.5H187.5V137.5z" />
    <glyph glyph-name="battery_charging_twotone_70"
      unicode="&#xF129;"
      horiz-adv-x="300" d="M250 175V195.875A16.75 16.75 0 0 1 233.3750000000001 212.5H200V144.125L212.5 137.5H200V87.5H233.3750000000001A16.75 16.75 0 0 1 250 104.125V125H275V175zM143.75 137.5V112.5L50 162.5H118.75V187.5L200 144.125V212.5H41.75A16.75 16.75 0 0 1 25 195.875V104.25A16.75 16.75 0 0 1 41.625 87.5H200V137.5z" />
    <glyph glyph-name="battery_charging_twotone_75"
      unicode="&#xF12A;"
      horiz-adv-x="300" d="M250 175V195.875A16.75 16.75 0 0 1 233.3750000000001 212.5H212.5V87.5H233.3750000000001A16.75 16.75 0 0 1 250 104.125V125H275V175zM41.75 212.5A16.75 16.75 0 0 1 25 195.875V104.25A16.75 16.75 0 0 1 41.625 87.5H212.5V137.5H143.75V112.5L50 162.5H118.75V187.5L212.5 137.5V212.5z" />
    <glyph glyph-name="battery_charging_twotone_80"
      unicode="&#xF12B;"
      horiz-adv-x="300" d="M250 175V195.875A16.75 16.75 0 0 1 233.3750000000001 212.5H225V87.5H233.3750000000001A16.75 16.75 0 0 1 250 104.125V125H275V175zM41.75 212.5A16.75 16.75 0 0 1 25 195.875V104.25A16.75 16.75 0 0 1 41.625 87.5H225V212.5zM143.75 137.5V112.5L50 162.5H118.75V187.5L212.5 137.5z" />
    <glyph glyph-name="battery_charging_twotone_85"
      unicode="&#xF12C;"
      horiz-adv-x="300" d="M250 175V195.875A16.375 16.375 0 0 1 237.5 211.625V88.375A16.375 16.375 0 0 1 250 104.125V125H275V175zM233.3750000000001 212.5H41.75A16.75 16.75 0 0 1 25 195.875V104.25A16.75 16.75 0 0 1 41.625 87.5H233.3750000000001A15.125 15.125 0 0 1 237.5 88.375V211.625A15.125 15.125 0 0 1 233.3750000000001 212.5zM143.75 137.5V112.5L50 162.5H118.75V187.5L212.5 137.5z" />
    <glyph glyph-name="battery_charging_twotone_90"
      unicode="&#xF12D;"
      horiz-adv-x="300" d="M250 175H275V125H250V175zM233.3750000000001 212.5H41.75A16.75 16.75 0 0 1 25 195.875V104.25A16.75 16.75 0 0 1 41.625 87.5H233.3750000000001A16.75 16.75 0 0 1 250 104.125V195.875A16.75 16.75 0 0 1 233.3750000000001 212.5zM143.75 137.5V112.5L50 162.5H118.75V187.5L212.5 137.5z" />
    <glyph glyph-name="battery_charging_twotone_95"
      unicode="&#xF12E;"
      horiz-adv-x="300" d="M262.5 175H275V125H262.5V175zM250 175V195.875A16.75 16.75 0 0 1 233.3750000000001 212.5H41.75A16.75 16.75 0 0 1 25 195.875V104.25A16.75 16.75 0 0 1 41.625 87.5H233.3750000000001A16.75 16.75 0 0 1 250 104.125V125H262.5V175zM143.75 137.5V112.5L50 162.5H118.75V187.5L212.5 137.5z" />
    <glyph glyph-name="battery_disabled_alt"
      unicode="&#xF12F;"
      horiz-adv-x="300" d="M35.125 229.5L52.125 212.5H41.25C37 212.375 32.875 210.625 29.875 207.625C26.75 204.625 25.125 200.5 25 196.25V105C24.875 102.75 25.25 100.625 26 98.5S28 94.5 29.5 92.875S32.75 89.8750000000001 34.875 89.0000000000001C36.875 88.1250000000001 39 87.6250000000001 41.25 87.5000000000001H177.125L229.5 35.125L247.25 52.75L52.75 247.25L35.125 229.5zM152.125 112.5H50V187.5H77.125L152.125 112.5zM273.75 175V125H248.75V103.75C248.75 99.5 246.875 95.375 243.875 92.375C243.75 92.25 243.625 92.125 243.375 92L222.75 112.625H224.875V187.625H147.75L122.75 212.625H233.6250000000001C237.875 212.625 242.0000000000001 210.75 245.0000000000001 207.75S249.75 200.625 249.8750000000001 196.375V175.125H273.625z" />
    <glyph glyph-name="battery_disabled"
      unicode="&#xF130;"
      horiz-adv-x="300" d="M41.625 258.375L25 241.625L87.5 179.125V37.5C87.5 30.625 93.125 25 100 25H200C206.875 25 212.5 30.625 212.5 37.5V54.125L241.625 25L258.375 41.625L41.625 258.375zM187.5 50H112.5V154.125L187.5 79.125V50zM212.5 237.5V120.875L187.5 145.875V225H112.5V220.875L89.375 244C91.5 247.625 95.5 250 100 250H125V275H175V250H200C206.875 250 212.5 244.375 212.5 237.5z" />
    <glyph glyph-name="battery_large_outline"
      unicode="&#xF131;"
      horiz-adv-x="300" d="M231.25 240C231.25 243.500375 231.25 245.2505 230.56875 246.5875C229.97 247.7635 229.01375 248.719625 227.8375 249.31875C226.5 250 224.75 250 221.25 250H191.25C187.75 250 186 250 184.6625 249.31875C183.48625 248.719625 182.53 247.7635 181.93125 246.5875C181.25 245.2505 181.25 243.500375 181.25 240V225H118.75V240C118.75 243.500375 118.75 245.2505 118.06875 246.5875C117.469625 247.7635 116.5135 248.719625 115.3375 249.31875C114.0005 250 112.250375 250 108.75 250H78.75C75.249625 250 73.4995 250 72.1625 249.31875C70.9865 248.719625 70.030375 247.7635 69.43125 246.5875C68.75 245.2505 68.75 243.500375 68.75 240V225H50C36.125 225 25 213.875 25 200V75C25 61.125 36.125 50 50 50H250C263.875 50 275 61.125 275 75L274.875 200C274.875 213.875 263.875 225 250 225H231.25V240zM50 75V200L249.875 199.975L250 75H50z" />
    <glyph glyph-name="battery_large_reset_outline"
      unicode="&#xF132;"
      horiz-adv-x="300" d="M75 175H175V156.25H93.75V125H109.375L84.375 93.75L59.375 125H75V175zM225 100V150H240.625L215.625 181.25L190.625 150H206.25V118.75H125V100H225zM231.25 240C231.25 243.500375 231.25 245.2505 230.56875 246.5875C229.97 247.7635 229.01375 248.719625 227.8375 249.31875C226.5 250 224.75 250 221.25 250H191.25C187.75 250 186 250 184.6625 249.31875C183.48625 248.719625 182.53 247.7635 181.93125 246.5875C181.25 245.2505 181.25 243.500375 181.25 240V225H118.75V240C118.75 243.500375 118.75 245.2505 118.06875 246.5875C117.469625 247.7635 116.5135 248.719625 115.3375 249.31875C114.0005 250 112.250375 250 108.75 250H78.75C75.249625 250 73.4995 250 72.1625 249.31875C70.9865 248.719625 70.030375 247.7635 69.43125 246.5875C68.75 245.2505 68.75 243.500375 68.75 240V225H50C36.125 225 25 213.875 25 200V75C25 61.125 36.125 50 50 50H250C263.875 50 275 61.125 275 75L274.875 200C274.875 213.875 263.875 225 250 225H231.25V240zM50 75V200L249.875 199.975L250 75H50z" />
    <glyph glyph-name="battery_large_reset"
      unicode="&#xF133;"
      horiz-adv-x="300" d="M275 200A25 25 0 0 1 250 225H231.25V240A17.125 17.125 0 0 1 230.625 246.625A7.25 7.25 0 0 1 227.875 249.375A17.125 17.125 0 0 1 221.25 249.375H191.25A17.125 17.125 0 0 1 184.625 249.375A7.25 7.25 0 0 1 181.875 246.625A17.125 17.125 0 0 1 181.25 240V225H118.75V240A17.125 17.125 0 0 1 118.125 246.625A7.25 7.25 0 0 1 115.375 249.375A17.125 17.125 0 0 1 108.75 250H78.75A17.125 17.125 0 0 1 72.125 250A7.25 7.25 0 0 1 69.375 247.25A17.125 17.125 0 0 1 69.375 240.625V225H50A25 25 0 0 1 25 200V75A25 25 0 0 1 50 50H250A25 25 0 0 1 275 75zM84.375 93.75L59.375 125H75V175H175V156.25H93.75V125H109.375zM225 150V100H125V118.75H206.25V150H190.625L215.625 181.25L240.625 150z" />
    <glyph glyph-name="battery_large_showing_terminals"
      unicode="&#xF134;"
      horiz-adv-x="300" d="M275 200A25 25 0 0 1 250 225H225V240A17.125 17.125 0 0 1 225 246.625A7.25 7.25 0 0 1 222.25 249.375A17.125 17.125 0 0 1 215.625 249.375H185A17.125 17.125 0 0 1 178.375 249.375A7.25 7.25 0 0 1 175.625 246.625A17.125 17.125 0 0 1 175 240V225H125V240A17.125 17.125 0 0 1 125 246.625A7.25 7.25 0 0 1 122.25 249.375A17.125 17.125 0 0 1 115 250H85A17.125 17.125 0 0 1 78.375 250A7.25 7.25 0 0 1 75.625 247.25A17.125 17.125 0 0 1 75 240V225H50A25 25 0 0 1 25 200V75A25 25 0 0 1 50 50H250A25 25 0 0 1 275 75zM131.25 125H112.5V106.25H87.5V125H68.75V150H87.5V168.75H112.5V150H131.25zM225 125H175V150H225z" />
    <glyph glyph-name="battery_large"
      unicode="&#xF135;"
      horiz-adv-x="300" d="M224.31875 246.5875C225 245.2505 225 243.500375 225 240V225H250C263.875 225 274.875 213.875 274.875 200L275 75C275 61.125 263.875 50 250 50H50C36.125 50 25 61.125 25 75V200C25 213.875 36.125 225 50 225H75V240C75 243.500375 75 245.2505 75.68125 246.5875C76.280375 247.7635 77.2365 248.719625 78.4125 249.31875C79.7495 250 81.499625 250 85 250H115C118.500375 250 120.2505 250 121.5875 249.31875C122.7635 248.719625 123.719625 247.7635 124.31875 246.5875C125 245.2505 125 243.500375 125 240V225H175V240C175 243.500375 175 245.2505 175.68125 246.5875C176.28 247.7635 177.23625 248.719625 178.4125 249.31875C179.75 250 181.5 250 185 250H215C218.5 250 220.25 250 221.5875 249.31875C222.76375 248.719625 223.72 247.7635 224.31875 246.5875z" />
    <glyph glyph-name="battery_twotone_0"
      unicode="&#xF136;"
      horiz-adv-x="300" d="M250 104.125V125H275V175H250V195.875A16.75 16.75 0 0 1 233.3750000000001 212.5H41.75A16.75 16.75 0 0 1 25 195.875V104.25A16.75 16.75 0 0 1 41.625 87.5H233.3750000000001A16.75 16.75 0 0 1 250 104.125z" />
    <glyph glyph-name="battery_twotone_05"
      unicode="&#xF137;"
      horiz-adv-x="300" d="M37.5 211.625A16.375 16.375 0 0 1 25 195.875V104.25A16.5 16.5 0 0 1 37.5 88.375zM250 175V195.875A16.75 16.75 0 0 1 233.3750000000001 212.5H41.75A16 16 0 0 1 37.5 211.625V88.375A15.125 15.125 0 0 1 41.625 87.5H233.3750000000001A16.75 16.75 0 0 1 250 104.125V125H275V175z" />
    <glyph glyph-name="battery_twotone_10"
      unicode="&#xF138;"
      horiz-adv-x="300" d="M250 175V195.875A16.75 16.75 0 0 1 233.3750000000001 212.5H50V87.5H233.3750000000001A16.75 16.75 0 0 1 250 104.125V125H275V175zM50 212.5H41.75A16.75 16.75 0 0 1 25 195.875V104.25A16.75 16.75 0 0 1 41.625 87.5H50z" />
    <glyph glyph-name="battery_twotone_100"
      unicode="&#xF139;"
      horiz-adv-x="300" d="M250 104.125V125H275V175H250V195.875A16.75 16.75 0 0 1 233.3750000000001 212.5H41.75A16.75 16.75 0 0 1 25 195.875V104.25A16.75 16.75 0 0 1 41.625 87.5H233.3750000000001A16.75 16.75 0 0 1 250 104.125zM250 104.125V125H275V175H250V195.875A16.75 16.75 0 0 1 233.3750000000001 212.5H41.75A16.75 16.75 0 0 1 25 195.875V104.25A16.75 16.75 0 0 1 41.625 87.5H233.3750000000001A16.75 16.75 0 0 1 250 104.125z" />
    <glyph glyph-name="battery_twotone_15"
      unicode="&#xF13A;"
      horiz-adv-x="300" d="M62.5 212.5H41.75A16.75 16.75 0 0 1 25 195.875V104.25A16.75 16.75 0 0 1 41.625 87.5H62.5zM250 175V195.875A16.75 16.75 0 0 1 233.3750000000001 212.5H62.5V87.5H233.3750000000001A16.75 16.75 0 0 1 250 104.125V125H275V175z" />
    <glyph glyph-name="battery_twotone_20"
      unicode="&#xF13B;"
      horiz-adv-x="300" d="M250 175V195.875A16.75 16.75 0 0 1 233.3750000000001 212.5H75V87.5H233.3750000000001A16.75 16.75 0 0 1 250 104.125V125H275V175zM41.75 212.5A16.75 16.75 0 0 1 25 195.875V104.25A16.75 16.75 0 0 1 41.625 87.5H75V212.5z" />
    <glyph glyph-name="battery_twotone_25"
      unicode="&#xF13C;"
      horiz-adv-x="300" d="M87.5 212.5H41.75A16.75 16.75 0 0 1 25 195.875V104.25A16.75 16.75 0 0 1 41.625 87.5H87.5zM250 175V195.875A16.75 16.75 0 0 1 233.3750000000001 212.5H87.5V87.5H233.3750000000001A16.75 16.75 0 0 1 250 104.125V125H275V175z" />
    <glyph glyph-name="battery_twotone_30"
      unicode="&#xF13D;"
      horiz-adv-x="300" d="M250 175V195.875A16.75 16.75 0 0 1 233.3750000000001 212.5H100V87.5H233.3750000000001A16.75 16.75 0 0 1 250 104.125V125H275V175zM41.625 87.5H100V212.5H41.75A16.75 16.75 0 0 1 25 195.875V104.25A16.75 16.75 0 0 1 41.625 87.5z" />
    <glyph glyph-name="battery_twotone_35"
      unicode="&#xF13E;"
      horiz-adv-x="300" d="M112.5 212.5H41.75A16.75 16.75 0 0 1 25 195.875V104.25A16.75 16.75 0 0 1 41.625 87.5H112.5zM250 175V195.875A16.75 16.75 0 0 1 233.3750000000001 212.5H112.5V87.5H233.3750000000001A16.75 16.75 0 0 1 250 104.125V125H275V175z" />
    <glyph glyph-name="battery_twotone_40"
      unicode="&#xF13F;"
      horiz-adv-x="300" d="M250 175V195.875A16.75 16.75 0 0 1 233.3750000000001 212.5H125V87.5H233.3750000000001A16.75 16.75 0 0 1 250 104.125V125H275V175zM125 212.5H41.75A16.75 16.75 0 0 1 25 195.875V104.25A16.75 16.75 0 0 1 41.625 87.5H125z" />
    <glyph glyph-name="battery_twotone_45"
      unicode="&#xF140;"
      horiz-adv-x="300" d="M137.5 212.5H41.75A16.75 16.75 0 0 1 25 195.875V104.25A16.75 16.75 0 0 1 41.625 87.5H137.5zM250 175V195.875A16.75 16.75 0 0 1 233.3750000000001 212.5H137.5V87.5H233.3750000000001A16.75 16.75 0 0 1 250 104.125V125H275V175z" />
    <glyph glyph-name="battery_twotone_50"
      unicode="&#xF141;"
      horiz-adv-x="300" d="M250 175V195.875A16.75 16.75 0 0 1 233.3750000000001 212.5H150V87.5H233.3750000000001A16.75 16.75 0 0 1 250 104.125V125H275V175zM150 212.5H41.75A16.75 16.75 0 0 1 25 195.875V104.25A16.75 16.75 0 0 1 41.625 87.5H150z" />
    <glyph glyph-name="battery_twotone_55"
      unicode="&#xF142;"
      horiz-adv-x="300" d="M162.5 212.5H41.75A16.75 16.75 0 0 1 25 195.875V104.25A16.75 16.75 0 0 1 41.625 87.5H162.5zM250 175V195.875A16.75 16.75 0 0 1 233.3750000000001 212.5H162.5V87.5H233.3750000000001A16.75 16.75 0 0 1 250 104.125V125H275V175z" />
    <glyph glyph-name="battery_twotone_60"
      unicode="&#xF143;"
      horiz-adv-x="300" d="M175 212.5H41.75A16.75 16.75 0 0 1 25 195.875V104.25A16.75 16.75 0 0 1 41.625 87.5H175zM250 175V195.875A16.75 16.75 0 0 1 233.3750000000001 212.5H175V87.5H233.3750000000001A16.75 16.75 0 0 1 250 104.125V125H275V175z" />
    <glyph glyph-name="battery_twotone_65"
      unicode="&#xF144;"
      horiz-adv-x="300" d="M187.5 212.5H41.75A16.75 16.75 0 0 1 25 195.875V104.25A16.75 16.75 0 0 1 41.625 87.5H187.5zM250 175V195.875A16.75 16.75 0 0 1 233.3750000000001 212.5H187.5V87.5H233.3750000000001A16.75 16.75 0 0 1 250 104.125V125H275V175z" />
    <glyph glyph-name="battery_twotone_70"
      unicode="&#xF145;"
      horiz-adv-x="300" d="M250 175V195.875A16.75 16.75 0 0 1 233.3750000000001 212.5H200V87.5H233.3750000000001A16.75 16.75 0 0 1 250 104.125V125H275V175zM200 212.5H41.75A16.75 16.75 0 0 1 25 195.875V104.25A16.75 16.75 0 0 1 41.625 87.5H200z" />
    <glyph glyph-name="battery_twotone_75"
      unicode="&#xF146;"
      horiz-adv-x="300" d="M212.5 212.5H41.75A16.75 16.75 0 0 1 25 195.875V104.25A16.75 16.75 0 0 1 41.625 87.5H212.5zM250 175V195.875A16.75 16.75 0 0 1 233.3750000000001 212.5H212.5V87.5H233.3750000000001A16.75 16.75 0 0 1 250 104.125V125H275V175z" />
    <glyph glyph-name="battery_twotone_80"
      unicode="&#xF147;"
      horiz-adv-x="300" d="M250 175V195.875A16.75 16.75 0 0 1 233.3750000000001 212.5H225V87.5H233.3750000000001A16.75 16.75 0 0 1 250 104.125V125H275V175zM225 212.5H41.75A16.75 16.75 0 0 1 25 195.875V104.25A16.75 16.75 0 0 1 41.625 87.5H225z" />
    <glyph glyph-name="battery_twotone_85"
      unicode="&#xF148;"
      horiz-adv-x="300" d="M237.5 211.625A15.125 15.125 0 0 1 233.3750000000001 212.5H41.75A16.75 16.75 0 0 1 25 195.875V104.25A16.75 16.75 0 0 1 41.625 87.5H233.3750000000001A15.125 15.125 0 0 1 237.5 88.375zM250 175V195.875A16.375 16.375 0 0 1 237.5 211.625V88.375A16.375 16.375 0 0 1 250 104.125V125H275V175z" />
    <glyph glyph-name="battery_twotone_90"
      unicode="&#xF149;"
      horiz-adv-x="300" d="M250 195.875A16.75 16.75 0 0 1 233.3750000000001 212.5H41.75A16.75 16.75 0 0 1 25 195.875V104.25A16.75 16.75 0 0 1 41.625 87.5H233.3750000000001A16.75 16.75 0 0 1 250 104.125V195.875zM250 175H275V125H250V175z" />
    <glyph glyph-name="battery_twotone_95"
      unicode="&#xF14A;"
      horiz-adv-x="300" d="M262.5 175H250V195.875A16.75 16.75 0 0 1 233.3750000000001 212.5H41.75A16.75 16.75 0 0 1 25 195.875V104.25A16.75 16.75 0 0 1 41.625 87.5H233.3750000000001A16.75 16.75 0 0 1 250 104.125V125H262.5zM262.5 175H275V125H262.5V175z" />
    <glyph glyph-name="battery"
      unicode="&#xF14B;"
      horiz-adv-x="300" d="M250 104.125V125H275V175H250V195.875A16.75 16.75 0 0 1 233.3750000000001 212.5H41.75A16.75 16.75 0 0 1 25 195.875V104.25A16.75 16.75 0 0 1 41.625 87.5H233.3750000000001A16.75 16.75 0 0 1 250 104.125zM250 104.125V125H275V175H250V195.875A16.75 16.75 0 0 1 233.3750000000001 212.5H41.75A16.75 16.75 0 0 1 25 195.875V104.25A16.75 16.75 0 0 1 41.625 87.5H233.3750000000001A16.75 16.75 0 0 1 250 104.125z" />
    <glyph glyph-name="bearing"
      unicode="&#xF14C;"
      horiz-adv-x="300" d="M150 275A125 125 0 1 1 275 150A125 125 0 0 1 150 275zM220.875 79.5A18.75 18.75 0 1 1 194.25 79.5A18.625 18.625 0 0 1 220.875 79.5A100 100 0 0 0 79.875 79.5A18.75 18.75 0 1 1 79.875 106.125A18.625 18.625 0 0 1 79.875 79.5A100 100 0 0 0 79.875 220.5A18.75 18.75 0 1 1 106.5 220.5A18.625 18.625 0 0 1 79.875 220.5A100 100 0 0 0 220.875 220.5A18.75 18.75 0 1 1 220.875 193.875A18.625 18.625 0 0 1 220.875 220.5A100 100 0 0 0 220.875 79.5zM150 212.5A62.5 62.5 0 1 1 212.5 150A62.5 62.5 0 0 1 150 212.5zM150 112.5A37.5 37.5 0 1 0 187.5 150A37.5 37.5 0 0 0 150 112.5zM131.25 231.25A18.75 18.75 0 0 1 168.75 231.25A18.75 18.75 0 0 1 131.25 231.25M131.25 68.75A18.75 18.75 0 0 1 168.75 68.75A18.75 18.75 0 0 1 131.25 68.75M50 150A18.75 18.75 0 0 1 87.5 150A18.75 18.75 0 0 1 50 150M212.5 150A18.75 18.75 0 0 1 250 150A18.75 18.75 0 0 1 212.5 150" />
    <glyph glyph-name="blast"
      unicode="&#xF14D;"
      horiz-adv-x="300" d="M77.625 37.5C57.125 52.125 33.5 66.75 12.5 81.375L0 90.25L68.25 113.375L34.125 203.375L114 169.875L137.5 262.5L184.75 169.5L280.125 216.375L234 112.5L300 91.125L236.5000000000001 37.5L224 52L260 82.75L207.125 100.75C217.75 124.125 240.7500000000001 173.5 240.7500000000001 173.5L176.5 142.625L144.25 205.125L127.875 142.625L69.125 166.625L94.125 100.5L44.125 84.125L86.5 54.25C83.25 48.375 81.125 42.75 78.125 37.125L77.625 37.5zM102 37.5H204.5L179.5 58.375C190.75 64.375 202.25 72 213 77.625H178.25L197 125.5L158 97.5C154.375 116.125 151.25 133.125 148 150.125C145.375 133.125 140.125 101.75 140.125 101.75L108 125.875C108 125.875 122.125 93 128.5 76.875H91L127.5 57.875L102 37.5z" />
    <glyph glyph-name="bolt_off"
      unicode="&#xF14E;"
      horiz-adv-x="300" d="M172.39375 99.1075L233.84625 37.655L251.37625 55.18375L55.02925 251.530875L37.5 234.0015L106.709875 164.79125C100.272 153.46625 94.5885 143.455 89.663125 134.75C89.413125 134.25 91.163125 137.5 88.788125 133.25C86.413125 129 86.288125 125 93.538125 125H137.28875L124.788125 37.5H137.28875C137.28875 37.5 148.9625 58.05 172.39375 99.1075zM211.03875 166.75L198.15375 144.21125L167.365 175H206.03875C212.16375 175 213.0375 170.875 211.91375 168.625L211.03875 166.75zM174.78875 262.5L162.9225 179.442125L132.40625 209.958375C141.455 225.859375 151.4175 243.370125 162.28875 262.5H174.78875z" />
    <glyph glyph-name="box_cutter"
      unicode="&#xF14F;"
      horiz-adv-x="300" d="M90.25 151.125C86.125 147 83.875 141.875 83.25 136.5L152.125 107L258.25 213C268 222.875 268 238.625 258.25 248.375L240.5 266.125C230.75 275.875 215 275.875 205.125 266.125L90.25 151.125zM62.5 100V28.125L135.125 93.375L72.625 118.375L62.5 100zM214 239.625C218.75 244.5 226.875 244.5 231.75 239.625C236.625 234.625 236.625 226.75 231.75 221.875C226.875 217 218.75 217 214 221.875C209.125 226.75 209.125 234.625 214 239.625z" />
    <glyph glyph-name="boxing_glove"
      unicode="&#xF150;"
      horiz-adv-x="300" d="M237.5 100V225H275V100H237.5M150 250H87.5S25 250 25 200V125A44.25 44.25 0 0 1 50.875 83.625A50 50 0 0 0 100 125H137.5V100H100A25 25 0 0 1 100 50H162.5C212.5 50 212.5 100 212.5 100V225S200 250 150 250z" />
    <glyph glyph-name="breaker_closed"
      unicode="&#xF151;"
      horiz-adv-x="300" d="M202.8225 100C200.485 109.43125 191.925 120.5675 182.435 127.24875C172.94625 133.93 161.615 137.5175 150 137.5175C138.385 137.5175 127.05375 133.93 117.564375 127.24875C108.074625 120.5675 101.484875 112.42375 97.177375 100H12.5V124.93875H66.998C71.484875 133.3725 80.0635 146.6725 95.88975 157.83125C111.716 168.99 130.62 174.98125 150 174.98125C169.38 174.98125 188.28375 168.99 204.11 157.83125C219.93625 146.6725 228.985 133.3725 233.0025 124.93875H287.5V100H202.8225z" />
    <glyph glyph-name="breaker"
      unicode="&#xF152;"
      horiz-adv-x="300" d="M12.5 125H87.5V100H12.5V125zM212.5 125H287.5V100H212.5V125zM203 143.75A56.25 56.25 0 0 1 97 143.75L61.625 156.25A93.75 93.75 0 0 0 238.375 156.25z" />
    <glyph glyph-name="broccoli"
      unicode="&#xF153;"
      horiz-adv-x="300" d="M115.5 268.75V268.75A45.625 45.625 0 0 1 69.5 230.125A50.625 50.625 0 0 1 31.125 181.25C31.125 160 46.625 137.375 80 132.375L81.125 131.25A179.5 179.5 0 0 0 118.625 43.75A104.25 104.25 0 0 0 118.625 31.25H181.125C181.125 35.625 181.125 39.75 181.125 43.75A108 108 0 0 0 227.625 128.875A42.375 42.375 0 0 1 253.8750000000001 137.125A45.125 45.125 0 0 1 268.625 174.625A44 44 0 0 1 242.5 216.375A55.125 55.125 0 0 1 187.5 256.25A53.125 53.125 0 0 1 159 248.875A60 60 0 0 1 118.625 268.75zM117.5 243.75L120.25 243.75A23.625 23.625 0 0 0 139 220.625C139 208.125 136 204.375 134.625 203.125L152.625 185.125A48.875 48.875 0 0 1 164 220.625V221.875L164 221.875A29.125 29.125 0 0 0 187.5 231.25C202.5 231.25 218.75 221.625 218.75 206.25V193.75H231.25A17.75 17.75 0 0 0 243.75 175C243.75 165.5 242.25 159.5 238.7500000000001 156.625A30.125 30.125 0 0 0 217.625 154.75A87.5 87.5 0 0 1 218.75 168.75H193.75A30.25 30.25 0 0 0 186.375 144.5A34.375 34.375 0 0 0 159.375 143.375L155.875 144.875L150.875 142.625A41.125 41.125 0 0 0 104 150.75L100 156.25H93.625C70.875 156.25 56.125 166 56.125 181.25A25.75 25.75 0 0 0 81.125 206.25H93.625V218.75A22.25 22.25 0 0 0 112.5 243.625A20.125 20.125 0 0 0 117.5 243.75zM168.625 115.25A50.625 50.625 0 0 1 182.375 115.25C178.625 109.625 174.125 102.75 168.625 93.75zM121 115.25A62.5 62.5 0 0 1 143.625 115.25V81.25A216.875 216.875 0 0 0 121 114.875z" />
    <glyph glyph-name="building"
      unicode="&#xF154;"
      horiz-adv-x="300" d="M62.5 262.5V37.5H137.5V81.25H162.5V37.5H237.5V262.5H62.5M87.5 237.5H112.5V212.5H87.5V237.5M137.5 237.5H162.5V212.5H137.5V237.5M187.5 237.5H212.5V212.5H187.5V237.5M87.5 187.5H112.5V162.5H87.5V187.5M137.5 187.5H162.5V162.5H137.5V187.5M187.5 187.5H212.5V162.5H187.5V187.5M87.5 137.5H112.5V112.5H87.5V137.5M137.5 137.5H162.5V112.5H137.5V137.5M187.5 137.5H212.5V112.5H187.5V137.5M87.5 87.5H112.5V62.5H87.5V87.5M187.5 87.5H212.5V62.5H187.5V87.5z" />
    <glyph glyph-name="bypass_alt"
      unicode="&#xF155;"
      horiz-adv-x="300" d="M218.75 150H237.5V225H162.5V206.25H206.25L150 150L75 225L62.5 212.5L150 125L218.75 193.75V150zM50 100H250V75H50V100z" />
    <glyph glyph-name="bypass_battery"
      unicode="&#xF156;"
      horiz-adv-x="300" d="M218.75 186.25H237.5V261.25H162.5V242.5H206.25L150 186.25L75 261.25L62.5 248.75L150 161.25L218.75 230zM225 125V87.5H225V50H50V125H225M233.75 150H41.25A16.55 16.55 0 0 1 25 133.75V42.5A16.8375 16.8375 0 0 1 41.25 25H232.5000000000001A16.55 16.55 0 0 1 248.7500000000001 41.25V62.5H273.75V112.5H248.7500000000001V133.75A14.7625 14.7625 0 0 1 233.75 150z" />
    <glyph glyph-name="bypass"
      unicode="&#xF157;"
      horiz-adv-x="300" d="M250 100L287.5 137.5L250 175V150H234.35C223.24875 193.130625 184.09625 225 137.5 225C90.904 225 51.7515 193.130625 40.650375 150H12.5V125H62.5C62.5 166.42125 96.078625 200 137.5 200C178.92125 200 212.5 166.42125 212.5 125H250V100zM187.5 125C187.5 97.38625 165.115 75 137.5 75C109.88625 75 87.5005 97.38625 87.5005 125C87.5005 152.61375 109.88625 175 137.5 175C165.115 175 187.5 152.61375 187.5 125z" />
    <glyph glyph-name="camera"
      unicode="&#xF158;"
      horiz-adv-x="300" d="M226.875 238.25A26.125 26.125 0 0 1 212.5 235L104.375 172.5A25 25 0 0 1 95.25 138.25L114 105.875A25 25 0 0 1 148.125 96.625L170.625 109.125A31.125 31.125 0 0 1 185.125 96.625V75A25 25 0 0 1 210.125 50H275V75H210.125V96.625A31.125 31.125 0 0 1 225 140.875L256.625 159.125A25 25 0 0 1 265.875 193.375L247.125 225.75A25 25 0 0 1 227.25 238.25M77.75 135.375L25 126.625L34.375 110.375L59.375 67.125L68.75 50.875L102.75 92.125z" />
    <glyph glyph-name="capacitor_large"
      unicode="&#xF159;"
      horiz-adv-x="300" d="M212.5 250H200V275H162.5V250H137.5V275H100V250H87.5A25 25 0 0 1 62.5 225V50A25 25 0 0 1 87.5 25H212.5A25 25 0 0 1 237.5 50V225A25 25 0 0 1 212.5 250z" />
    <glyph glyph-name="capacitor_symbol"
      unicode="&#xF15A;"
      horiz-adv-x="300" d="M275 162.5H182.5C183.75 182.5 188.75 201.25 197.5 220L175 231.25C150 181.25 150 120 175 70L197.5 81.25C188.75 98.75 183.75 118.75 182.5 138.75H275V162.5zM112.5 162.5H25V137.5H112.5V62.5H137.5V237.5H112.5V162.5z" />
    <glyph glyph-name="car"
      unicode="&#xF15B;"
      horiz-adv-x="300" d="M200 225L237.5 175H262.5C276.375 175 287.5 163.875 287.5 150V112.5H262.5C262.5 91.75 245.75 75 225 75S187.5 91.75 187.5 112.5H112.5C112.5 91.75 95.75 75 75 75S37.5 91.75 37.5 112.5H12.5V150C12.5 163.875 23.625 175 37.5 175L75 225H200M131.25 206.25H84.375L60.75 175H131.25V206.25M150 206.25V175H214.25L190.625 206.25H150M75 131.25C64.625 131.25 56.25 122.875 56.25 112.5S64.625 93.75 75 93.75S93.75 102.125 93.75 112.5S85.375 131.25 75 131.25M225 131.25C214.625 131.25 206.25 122.875 206.25 112.5S214.625 93.75 225 93.75S243.75 102.125 243.75 112.5S235.375 131.25 225 131.25z" />
    <glyph glyph-name="carrot"
      unicode="&#xF15C;"
      horiz-adv-x="300" d="M208.25 275L197 252.75A29.125 29.125 0 0 0 206.75 242.625A15 15 0 0 0 207.5 231.25A41.75 41.75 0 0 0 198.875 215.625L192.625 209L191.125 207.875L209.125 190L210.25 191.5C212.375 193.625 214.25 195.375 216.125 197L216.875 197.75A42.75 42.75 0 0 0 232.5 206.375A15.5 15.5 0 0 0 243.875 205.625A28.375 28.375 0 0 0 254 195.75L276.25 207.125A50 50 0 0 1 254.375 228.25A40.75 40.75 0 0 1 248.875 230.125L273.875 255.125L256.375 272.75L231.375 247.75C230.75 249.625 230.125 251.5 229.375 253.25A50 50 0 0 1 208.25 275zM131.75 215.75A25.875 25.875 0 0 1 127.375 215.75S89 165.75 91.5 160.625A80 80 0 0 0 123.875 125A75 75 0 0 1 73.875 137.5S20.125 41.25 23.875 25C36.375 22.5 68.75 37.5 113.75 63.625A108.625 108.625 0 0 1 107.5 96.5A103.25 103.25 0 0 0 137.5 77.875A52.5 52.5 0 0 1 171 99C172.25 101.5 179.75 122.5 171 132.5A90.75 90.75 0 0 0 196 115.375A187.5 187.5 0 0 1 214.75 127.875S221.25 151.5 186.25 186.5C160.125 212.5 140.125 215.875 131.75 215.75z" />
    <glyph glyph-name="ceiling_light"
      unicode="&#xF15D;"
      horiz-adv-x="300" d="M100 187.5H137.5V250H162.5V187.5H200L250 87.5H50zM175 75A25 25 0 0 0 125 75z" />
    <glyph glyph-name="champ_vmvl"
      unicode="&#xF15E;"
      horiz-adv-x="300" d="M75 50H225C205 34.5 178.75 25 150 25S95 34.5 75 50zM262.5 237.5V212.5H250V200C250 186.25 238.7500000000001 175 225 175V162.5C238.7500000000001 162.5 250 151.25 250 137.5V62.5H50V137.5C50 151.25 61.25 162.5 75 162.5V175C61.25 175 50 186.25 50 200V212.5H37.5V237.5H50V250C50 263.75 61.25 275 75 275H225C238.7500000000001 275 250 263.75 250 250V237.5H262.5zM93.75 137.5H75V87.5H93.75V137.5zM137.5 137.5H118.75V87.5H137.5V137.5zM181.25 137.5H162.5V87.5H181.25V137.5zM225 137.5H206.25V87.5H225V137.5zM225 250H75V200H225V250z" />
    <glyph glyph-name="chili_pepper"
      unicode="&#xF15F;"
      horiz-adv-x="300" d="M171.875 187.5L186.875 197C194.75 192.75 200 184.5 200 175V28.125C200 28.125 100 50 100 162.5V175C100 184.125 104.875 192.125 112.125 196.5L130.375 187.5L150 200L171.875 187.5M125 275C144.125 275 160 260.625 162.5 242C175 238.375 185.125 229.125 190.25 217.125L171.875 206.25L150 218.75L130.375 206.25L109.5 216.625C114.375 228.5 124.375 237.5 136.75 241.75C135 246.5 130.375 250 125 250V275z" />
    <glyph glyph-name="cloud_done"
      unicode="&#xF160;"
      horiz-adv-x="300" d="M241.8750000000001 174.5C233.3750000000001 217.625 195.5 250 150 250C113.875 250 82.5 229.5 66.875 199.5C29.25 195.5 0 163.625 0 125C0 83.625 33.625 50 75 50H237.5C272 50 300 78 300 112.5C300 145.5 274.375 172.25 241.8750000000001 174.5zM237.5 75H75C47.375 75 25 97.375 25 125C25 150.625 44.125 172 69.5 174.625L82.875 176L89.125 187.875C101 210.75 124.25 225 150 225C182.75 225 211 201.75 217.375 169.625L221.125 150.875L240.25 149.5C259.75 148.25 275 131.875 275 112.5C275 91.875 258.125 75 237.5 75zM125 122.75L98.875 148.875L81.25 131.25L125 87.5L200.125 162.625L182.5 180.25L125 122.75z" />
    <glyph glyph-name="cloud_off_filled"
      unicode="&#xF161;"
      horiz-adv-x="300" d="M55.125 251.750125L37.5 234.125125L72.125 199.500125H66.875C29.25 195.500125 0 163.625 0 125C0 83.625 33.625 50 75 50H221.625L246.625 25L264.25 42.625L55.125 251.750125zM300 112.5C300 145.5 274.375 172.25 241.8750000000001 174.5C233.3750000000001 217.625125 195.5 250.000125 150 250.000125C133.375 250.000125 117.875 245.500125 104.375 237.875125L277.5 64.875C291.125 76.375 300 93.25 300 112.5z" />
    <glyph glyph-name="combine_harvester"
      unicode="&#xF162;"
      horiz-adv-x="300" d="M137.5 250A323.625 323.625 0 0 1 94.875 247.625A34 34 0 0 1 72.25 234A28.125 28.125 0 0 1 68 211.75L75 175A25 25 0 0 1 50 150V125H225V150A25 25 0 0 1 213.625 171.125L267.625 225H287.5V250H257.375L204.25 196.875L207 211.25A28.875 28.875 0 0 1 202.375 234A34 34 0 0 1 179.75 247.625A318 318 0 0 1 137.5 250zM125 225V175H100L92.25 216.75A3.125 3.125 0 0 0 93 219.5A7.75 7.75 0 0 0 98.5 222.625A208.75 208.75 0 0 0 125 225zM150 225A227.5 227.5 0 0 0 176.125 223A7.75 7.75 0 0 0 181.625 219.875A3.5 3.5 0 0 0 182.375 216.75L175 177.375L175 175H150zM75 162.5A12.5 12.5 0 1 0 62.5 150A12.5 12.5 0 0 0 75 162.5zM200 162.5A12.5 12.5 0 1 0 187.5 150A12.5 12.5 0 0 0 200 162.5zM12.5 112.5V87.5H262.5V112.5zM12.5 75V50H262.5V75z" />
    <glyph glyph-name="computer"
      unicode="&#xF163;"
      horiz-adv-x="300" d="M100 275H200A25 25 0 0 0 225 250V50A25 25 0 0 0 200 25H100A25 25 0 0 0 75 50V250A25 25 0 0 0 100 275M100 250V225H200V250H100M200 200H100V175H200V200M200 75H175V50H200z" />
    <glyph glyph-name="configuration"
      unicode="&#xF164;"
      horiz-adv-x="300" d="M87.5 262.5L62.5 262.5L62.5 187.5H87.5L87.5 262.5zM237.5 262.5L212.5 262.5V137.5H237.5V262.5zM37.5 137.5H62.5L62.5 37.5H87.5L87.5 137.5H112.5V162.5H37.5L37.5 137.5zM187.5 212.5H162.5V262.5L137.5 262.5V212.5L112.5 212.5L112.5 187.5L187.5 187.5V212.5zM137.5 37.5H162.5V162.5H137.5L137.5 37.5zM187.5 112.5V87.5L212.5 87.5V37.5H237.5V87.5H262.5V112.5L187.5 112.5z" />
    <glyph glyph-name="contactor"
      unicode="&#xF165;"
      horiz-adv-x="300" d="M162.5 200L162.5 262.5L137.5 262.5L137.5 200L25 200L25 162.5L275 162.5L275 200L162.5 200zM25 100L137.5 100L137.5 37.5L162.5 37.5L162.5 100L275 100L275 137.5L25 137.5L25 100z" />
    <glyph glyph-name="control"
      unicode="&#xF166;"
      horiz-adv-x="300" d="M137.5 250V212.5H162.5V250H137.5zM237.5 112.5H275V137.5H237.5V112.5zM150 62.5C184.5175 62.5 212.5 90.4825 212.5 125C212.5 137.73875 208.68875 149.5875 202.145 159.4675L158.83875 116.16125L141.16125 133.83875L184.4675 177.145C174.5875 183.689 162.73875 187.5 150 187.5C115.48225 187.5 87.5 159.5175 87.5 125C87.5 90.4825 115.48225 62.5 150 62.5zM62.5 112.5H25V137.5H62.5V112.5zM228.66125 221.338875L203.66125 196.338875L221.33875 178.661125L246.33875 203.661125L228.66125 221.338875zM78.661125 178.661125L53.661125 203.661125L71.338875 221.338875L96.338875 196.338875L78.661125 178.661125z" />
    <glyph glyph-name="cooking"
      unicode="&#xF167;"
      horiz-adv-x="300" d="M112.5 37.5V75H25V100H112.5C119.375 100 125.26 97.5525 130.15625 92.65625C135.0525 87.76 137.5 81.875 137.5 75V37.5H112.5zM162.5 37.5V75C162.5 81.875 164.9475 87.76 169.84375 92.65625C174.74 97.5525 180.625 100 187.5 100H275V75H187.5V37.5H162.5zM75 112.5C64.583375 112.5 55.729125 116.14625 48.4375 123.4375C41.145875 130.72875 37.5 139.58375 37.5 150V200H262.5V150C262.5 139.58375 258.85375 130.72875 251.5625 123.4375C244.27125 116.14625 235.41625 112.5 225 112.5H75zM37.5 212.5V237.5H112.5V250C112.5 253.541625 113.697875 256.510375 116.09375 258.90625C118.489625 261.302125 121.458375 262.5 125 262.5H175C178.54125 262.5 181.51 261.302125 183.90625 258.90625C186.3025 256.510375 187.5 253.541625 187.5 250V237.5H262.5V212.5H37.5z" />
    <glyph glyph-name="corn"
      unicode="&#xF168;"
      horiz-adv-x="300" d="M158.25 275A48.375 48.375 0 0 1 128.5 255A120.375 120.375 0 0 1 162.5 250A112.5 112.5 0 0 1 196.5 255A43.875 43.875 0 0 1 162.5 275A24.125 24.125 0 0 1 158.25 275zM121.5 244.125A143.75 143.75 0 0 1 112.5 224.125A82.875 82.875 0 0 1 137.5 215.25C138.375 223.5 139.25 231.75 140.25 239.375A125.75 125.75 0 0 0 121.5 244.125zM203.875 244.125A125.75 125.75 0 0 0 184.75 239.375C185.875 231.625 186.625 223.5 187.5000000000001 215.25A80.75 80.75 0 0 1 212.5 225A125 125 0 0 1 203.875 244.125zM153.125 237.5C152.125 229.875 151.25 221.75 150.375 212.5C154.25 212.5 158.25 211.75 162.875 211.75S171.375 211.75 175.375 212.5C174.5 221.25 173.625 229.5 172.625 237.5C169.375 237.5 166.25 237.5 162.875 237.5S156.625 237.5 153.5 237.5zM216.75 212.5A96.375 96.375 0 0 0 188.625 202.75C189.375 194.5 190.125 186.25 190.625 177.75A64.125 64.125 0 0 1 221.125 193C219.875 199.5 218.5 205.5 216.75 212.125zM108.625 212.5C106.75 206.125 105.125 200 103.875 193.25A67 67 0 0 1 134.75 178.5C134.75 186.625 136 194.875 136.75 203.5A93.25 93.25 0 0 0 108.625 212.5zM149.25 201.125C148.5 193.125 147.875 185 147.25 176.125A104.375 104.375 0 0 1 162.5 175A113.375 113.375 0 0 1 178.5 176.125C178.5 184.625 176.875 192.75 176.125 201.125A121.125 121.125 0 0 0 162.5 200C157.75 200 153.5 200 149.25 200.75zM223.5 179.25A88.5 88.5 0 0 0 191.375 166C191.375 157.375 192.25 149.375 192.625 141.75A54.5 54.5 0 0 1 225 160.5C225 166.75 224.125 173 223.5 178.875zM102 179.25C101.25 173.125 100.625 166.75 100.375 160.5A54.875 54.875 0 0 1 132.875 142.125C132.875 150 132.875 158.25 134 167.125A87.5 87.5 0 0 0 102 179.625zM262.5 175A887.5000000000001 887.5000000000001 0 0 1 162.5 87.5A103.125 103.125 0 0 1 37.5 87.5C87.5 88.5 100.625 66.625 111 48A57 57 0 0 1 150 25H175C191.5 26.625 207 42.25 218.375 59.75C238.5 90.625 262.5 175 262.5 175zM146.5 163.625C146.5 155.5 145.25 147.375 144.875 138.625A139.75 139.75 0 0 1 162.5 137.5A125 125 0 0 1 180.5 139C180.5 147.375 179.75 155.5 179.25 164A124.25 124.25 0 0 0 162.5 162.5A113.375 113.375 0 0 0 146.5 163.625zM100 142.125C100 135.125 100.75 128.125 101.625 121.5A101.75 101.75 0 0 0 131.625 116C131.625 119.875 131.625 124.125 131.625 128.5A87.5 87.5 0 0 0 100 142.125zM190.25 128.125A125 125 0 0 0 162.5 125A145 145 0 0 0 144.5 126.125C144.5 121.125 144.5 116.375 144.5 111.25A125 125 0 0 0 162.5 100A373.125 373.125 0 0 0 190.625 128.125z" />
    <glyph glyph-name="current_ac"
      unicode="&#xF169;"
      horiz-adv-x="300" d="M199.99875 207.499875C188.74875 207.499875 178.74875 209.999875 168.74875 213.749875L119.99875 237.499875C102.49875 246.249875 73.74875 241.249875 61.24875 227.499875L47.49875 212.499875L29.99875 229.999875L43.74875 244.999875C63.74875 267.499875 103.74875 274.999875 131.24875 261.249875L181.24875 237.499875C198.74875 228.749875 227.49875 233.749875 239.99875 247.499875L252.49875 262.499875L271.24875 246.249875L257.4987500000001 231.249875C243.74875 216.249875 222.49875 207.499875 199.99875 207.499875zM184.99875 23.75L174.99875 56.25H124.99875L114.99875 23.75H83.74875L132.49875 162.5H168.74875L217.49875 23.75H184.99875zM168.74875 81.25L149.99875 141.25L132.49875 81.25H168.74875z" />
    <glyph glyph-name="current_circled_outline"
      unicode="&#xF16A;"
      horiz-adv-x="300" d="M150 250A100 100 0 1 0 50 150A100 100 0 0 0 150 250M150 275A125 125 0 1 1 275 150A125 125 0 0 1 150 275zM233.75 125A48 48 0 0 0 196.25 100H193.75A46 46 0 0 0 157.25 119.5L122.75 165.375A20.5 20.5 0 0 1 105.375 175A23.5 23.5 0 0 1 87.5 162.5L76.25 143.625L54.75 156.125L66.25 175A48 48 0 0 0 103.75 200A45.75 45.75 0 0 0 142.375 180.5L176.875 134.625A20.375 20.375 0 0 1 194.25 125A23.5 23.5 0 0 1 212.5 137.5L223.75 156.375L245.25 143.875z" />
    <glyph glyph-name="current_circled"
      unicode="&#xF16B;"
      horiz-adv-x="300" d="M150 275A125 125 0 1 1 275 150A125 125 0 0 1 150 275zM233.75 125A48 48 0 0 0 196.25 100H193.75A46 46 0 0 0 157.25 119.5L122.75 165.375A20.5 20.5 0 0 1 105.375 175A23.5 23.5 0 0 1 87.5 162.5L76.25 143.625L54.75 156.125L66.25 175A48 48 0 0 0 103.75 200A45.75 45.75 0 0 0 142.375 180.5L176.875 134.625A20.375 20.375 0 0 1 194.25 125A23.5 23.5 0 0 1 212.5 137.5L223.75 156.375L245.25 143.875z" />
    <glyph glyph-name="current_dc"
      unicode="&#xF16C;"
      horiz-adv-x="300" d="M25 275V250H275V275H25zM25 225V200H87.5V225H25zM112.5 225V200H187.5V225H112.5zM212.5 225V200H275V225H212.5zM185 23.75L175 56.25H125L115 23.75H83.75L132.5 162.5H168.75L217.5 23.75H185zM168.75 81.25C167.905 81.25 150 141.25 150 141.25L132.5 81.25H168.75z" />
    <glyph glyph-name="current"
      unicode="&#xF16D;"
      horiz-adv-x="300" d="M208.375 87.5A57.25 57.25 0 0 0 162.5 111.875L117 173A32.125 32.125 0 0 1 90.375 187.5A34.875 34.875 0 0 1 63.375 168.625L48.25 143.625L26.75 156.125L41.875 181.125A59.125 59.125 0 0 0 89 212.5A56.375 56.375 0 0 0 137.5 187.5L183.5 126.375A32 32 0 0 1 209.625 112.5A34.75 34.75 0 0 1 236.625 131.375L251.75 156.375L273.25 143.875L258.125 118.875A59.125 59.125 0 0 0 211 87.5z" />
    <glyph glyph-name="cybersecurity_two_tone"
      unicode="&#xF16E;"
      horiz-adv-x="300" d="M264.375 226.375A137.5 137.5 0 1 1 287.5 150A137.5 137.5 0 0 1 264.375 226.375zM243.5 87.5A112.5 112.5 0 1 0 262.5 150A112.5 112.5 0 0 0 243.5 87.5zM187.5 162.5V187.5A37.5 37.5 0 0 1 112.5 187.5V162.5A12.5 12.5 0 0 1 100 150V100A12.5 12.5 0 0 1 112.5 87.5H187.5A12.5 12.5 0 0 1 200 100V150A12.5 12.5 0 0 1 187.5 162.5zM168.75 162.5H131.25V187.5A18.75 18.75 0 0 0 168.75 187.5zM241.125 111.75A11.625 11.625 0 0 1 243.375 115A9.75 9.75 0 0 1 244.25 118.875A9.75 9.75 0 0 1 243.375 122.625A11.625 11.625 0 0 1 241.125 125.875A9.5 9.5 0 0 1 237.625 127.75A10 10 0 0 1 233.75 127.75A8.75 8.75 0 0 1 229.125 126.375A9.625 9.625 0 0 1 225.875 122.875H200V114.125H225.625A8.625 8.625 0 0 1 229 110.5000000000001A9.125 9.125 0 0 1 233.75 109.1250000000001A10 10 0 0 1 237.625 109.1250000000001A9.5 9.5 0 0 1 241.125 111.75zM237.5 118.875A3.375 3.375 0 0 0 234 115.375A2.75 2.75 0 0 0 232.625 115.375A3.5 3.5 0 0 0 230.75 117.25A2.75 2.75 0 0 0 230.75 118.625A3.375 3.375 0 0 0 234.2500000000001 122.125A2.5 2.5 0 0 0 235.6250000000001 122.125A2.625 2.625 0 0 0 236.8750000000001 121.375A2.25 2.25 0 0 0 237.6250000000001 120.25A2.5 2.5 0 0 0 237.6250000000001 118.875zM240.7500000000001 168.125L257.25 184.625Q258.7500000000001 179.75 259.8750000000001 174.875L244.2500000000001 159.375H222.375V150H213.625V167.5zM122.5 62.5H131.125V48.25L124.25 41.25C121 42 117.75 42.875 114.625 43.875L122.5 51.75zM154.5 70.125V87.5H145.75V69.625A10 10 0 0 1 142.125 66.375A8.75 8.75 0 0 1 140.75 61.75A9.375 9.375 0 0 1 150.125 52.375A10.875 10.875 0 0 1 153.625 52.375A10.25 10.25 0 0 1 156.75 54.375A9.75 9.75 0 0 1 158.75 57.3749999999999A8.375 8.375 0 0 1 159.5 60.875A9.25 9.25 0 0 1 154.5 68.9999999999999zM152.625 59.75A3.5 3.5 0 0 0 146.625 62.25A3.375 3.375 0 0 0 150.125 65.75A3.5 3.5 0 0 0 152.625 59.75zM262.5 150A18.625 18.625 0 0 0 262.5 147.375L250 134.875H200V143.625H246.25L262.5 159.375C262.5 156.25 262.5 153.125 262.5 150zM185.5 198.875L223 236.375A72.5 72.5 0 0 0 229.5 230.5L187.5 188.375A33.125 33.125 0 0 1 185.5 198.875zM66.25 128.125A10.25 10.25 0 0 1 62.375 128.125A9.5 9.5 0 0 1 58.875 126.25A11.625 11.625 0 0 1 56.625 123A9.75 9.75 0 0 1 55.75 119.25A9.75 9.75 0 0 1 56.625 115.375A11.625 11.625 0 0 1 58.875 112.125A9.5 9.5 0 0 1 62.375 110.25A10.25 10.25 0 0 1 66.25 110.25A9.25 9.25 0 0 1 74.375 115.25H100V124H75A9.5 9.5 0 0 1 71.25 127.625A9.875 9.875 0 0 1 66.25 128.125zM68.5 116.625A3.375 3.375 0 0 0 66.125 115.625L64.875 115.625A2.625 2.625 0 0 0 63.625 116.375A2.25 2.25 0 0 0 62.5 117.75A2.5 2.5 0 0 0 62.5 119.125A5.375 5.375 0 0 0 62.5 120.5L63.25 121.625L64.375 122.375L65.75 122.375A3.5 3.5 0 0 0 68.25 116.375zM213.625 94.625L233.6250000000001 75C231.625 72.875 229.5000000000001 71 227.3750000000001 69L210.125 86.125H195.625V66.875L208.125 54.375C205.5 52.875 202.75 51.625 200 50.25L187.5 62.5V85.875H175V67.875H166.25V87.5H187.5A11.5 11.5 0 0 1 198.625 94.625zM150 248.75A9.375 9.375 0 0 1 143.375 246A8.875 8.875 0 0 1 140.625 239.5A10.125 10.125 0 0 1 142.125 234.75A9.75 9.75 0 0 1 145.75 231.25V225L150 225A27.5 27.5 0 0 0 154.5 225V231.25A9.75 9.75 0 0 1 158.125 234.75A8.75 8.75 0 0 1 159.5 239.5A9.875 9.875 0 0 1 156.5 246A10.25 10.25 0 0 1 150 248.75zM152.875 237.5A3.625 3.625 0 0 0 151.375 236.25A2.75 2.75 0 0 0 149.375 236.25A3 3 0 0 0 146.625 239A2.75 2.75 0 0 0 146.625 241A3.625 3.625 0 0 0 147.875 242.5A3.75 3.75 0 0 0 150 243L151.375 243L152.5 242.25L153.25 241.125A5.375 5.375 0 0 0 153.25 239.75A3.75 3.75 0 0 0 152.875 237.5zM112.5 87.5H113.125V63.25L100 50C97.25 51.375 94.75 52.875 92.125 54.375L104.625 66.875V81L94.5 70.75H74.125V67.25A44.75 44.75 0 0 0 70.5 70.5C68.625 72.25 67.125 74.375 65.375 76.375V79.5H90.375L102.875 92A7 7 0 0 1 102.875 91A12.5 12.5 0 0 1 112.5 87.5zM52.25 134.875L37.5 149.375C37.5 153.5 37.5 157.5 37.5 161.875L55.5 144H100V135.25zM64.75 194.875A9.125 9.125 0 0 1 67.25 190.5A9 9 0 0 1 79.75 190.5A9.375 9.375 0 0 1 79.75 203A9.375 9.375 0 0 1 70.75 205.375L59.5 217C57.75 214.75 56.125 212.5 54.625 210.125L65.375 200A8.875 8.875 0 0 1 65.25 194.875zM71.75 200A3.625 3.625 0 0 0 76.5 200A3.5 3.5 0 0 0 77.5 197.5A3.375 3.375 0 0 0 76.5 195.125A3.625 3.625 0 0 0 71.75 195.125A4.375 4.375 0 0 0 71 197.5A4.5 4.5 0 0 0 71.75 200zM101.125 94.875H55.375L53.375 92.875C51.875 95.5 50.375 98 49.125 100.75L52 103.625H100V100A14.5 14.5 0 0 1 101.125 94.875zM175 59.375L187.5 46.25V44.375C184.625 43.3750000000001 181.75 42.25 178.75 41.5V42.5L168 53.25zM220.875 200A8.5 8.5 0 0 1 216.5 197.875A9.375 9.375 0 0 1 216.5 185.375A9.375 9.375 0 0 1 229 185.375A9.875 9.875 0 0 1 231.25 194.375L245.625 208.75C244.125 211.125 242.625 213.5 241 215.75L225.625 200A8.75 8.75 0 0 1 220.875 200zM226.6250000000001 191.5A2.75 2.75 0 0 0 226.6250000000001 190.125A5.125 5.125 0 0 0 226.0000000000001 189A3 3 0 0 0 224.875 188.25A3.875 3.875 0 0 0 222.125 188.25A3 3 0 0 0 221 189A3.625 3.625 0 0 0 221 193.75A4 4 0 0 0 223.3750000000001 194.625A3.875 3.875 0 0 0 225.6250000000001 193.75A3.375 3.375 0 0 0 226.5000000000001 192.75A4.75 4.75 0 0 0 226.625 191.75zM243.6250000000001 101.875L248.8750000000001 96.625C247.3750000000001 94 246.0000000000001 91.25 244.3750000000001 88.75L237.5 96zM59 162.5L41.625 179.625C42.5 182.625 43.5 185.75 44.625 188.75L62.5 171H80.5V179.125H89.25V162.5zM179.25 246.375H170.5V260.5C173.5 260.5 176.375 259.25 179.25 258.5zM186.25 227.5A6.625 6.625 0 0 1 189.75 226.625A9 9 0 0 1 193.75 227.625A8.375 8.375 0 0 1 197 230.25A9.125 9.125 0 0 1 198.75 234.125A9.25 9.25 0 0 1 198.75 238.25L207.5 247L199.375 251.375L192.625 244.625A9.25 9.25 0 0 1 187.75 244.625A7.875 7.875 0 0 1 183.625 242.125A9.375 9.375 0 0 1 183.625 229.625A7.25 7.25 0 0 1 186.25 227.25zM187.5 237.5A3.625 3.625 0 0 0 192.25 237.5A3 3 0 0 0 193 236.375A3.875 3.875 0 0 0 193 233.625A3 3 0 0 0 192.25 232.5A3.625 3.625 0 0 0 187.5 232.5A3.625 3.625 0 0 0 187.5 237.5zM117 257.5L135.25 239.125V221.875A37.5 37.5 0 0 1 126.5 216.5V235.625L108.125 254.125A93.25 93.25 0 0 0 117 257.5zM101.5 231.125L89 243.625C91.5 245.25 94.125 246.625 96.875 248.125L108.125 236.875zM77.375 235.625L114.875 198.125A42 42 0 0 1 112.5 187.5L71 229.75C73 231.75 75 233.75 77.375 235.625z" />
    <glyph glyph-name="cybersecurity"
      unicode="&#xF16F;"
      horiz-adv-x="300" d="M150 12.5A137.5 137.5 0 1 0 287.5 150A137.5 137.5 0 0 0 150 12.5zM150 262.5A112.5 112.5 0 1 1 262.5 150A112.5 112.5 0 0 1 150 262.5zM187.5 162.5V187.5A37.5 37.5 0 0 1 112.5 187.5V162.5A12.5 12.5 0 0 1 100 150V100A12.5 12.5 0 0 1 112.5 87.5H187.5A12.5 12.5 0 0 1 200 100V150A12.5 12.5 0 0 1 187.5 162.5zM131.25 187.5A18.75 18.75 0 0 0 168.75 187.5V162.5H131.25z" />
    <glyph glyph-name="database"
      unicode="&#xF170;"
      horiz-adv-x="300" d="M150 262.5C94.75 262.5 50 240.125 50 212.5C50 184.875 94.75 162.5 150 162.5C205.25 162.5 250 184.875 250 212.5C250 240.125 205.25 262.5 150 262.5zM50 187.5V150C50 122.375 94.75 100 150 100C205.25 100 250 122.375 250 150V187.5C250 159.875 205.25 137.5 150 137.5C94.75 137.5 50 159.875 50 187.5zM50 125V87.5C50 59.875 94.75 37.5 150 37.5C205.25 37.5 250 59.875 250 87.5V125C250 97.375 205.25 75 150 75C94.75 75 50 97.375 50 125z" />
    <glyph glyph-name="dc"
      unicode="&#xF171;"
      horiz-adv-x="300" d="M25 187.5V162.5H275V187.5H25zM25 137.5V112.5H87.5V137.5H25zM112.5 137.5V112.5H187.5V137.5H112.5zM212.5 137.5V112.5H275V137.5H212.5z" />
    <glyph glyph-name="department"
      unicode="&#xF172;"
      horiz-adv-x="300" d="M205.2825 258.253125C209.74875 258.253125 213.875 255.870625 216.10875 252.003125L271.39125 156.25C273.625 152.3825 273.625 147.6175 271.39125 143.75L216.10875 47.99625C213.875 44.12875 209.74875 41.74625 205.28375 41.74625H94.716875C90.251125 41.74625 86.1245 44.12875 83.891625 47.99625L28.6085 143.75C26.3755 147.6175 26.3755 152.3825 28.6085 156.25L83.8915 252.003125C86.1245 255.870625 90.251 258.253125 94.716875 258.253125L205.2825 258.253125z" />
    <glyph glyph-name="departments"
      unicode="&#xF173;"
      horiz-adv-x="300" d="M63.01825 262.5C65.251125 266.3675 69.37775 268.75 73.8435 268.75L121.90975 268.75C126.375 268.75 130.5025 266.3675 132.735 262.5L156.76875 220.873375C159.00125 217.005875 159.00125 212.240875 156.76875 208.373375L132.735 166.74625C130.5025 162.87875 126.375 160.49625 121.90975 160.49625H73.8435C69.37775 160.49625 65.251125 162.87875 63.01825 166.74625L38.985125 208.373375C36.752125 212.240875 36.752125 217.005875 38.985125 220.873375L63.01825 262.5zM64.02 134.66C66.252875 138.5275 70.3795 140.91 74.84525 140.91H122.9115C127.3775 140.91 131.50375 138.5275 133.73625 134.66L157.77 93.0325C160.0025 89.165 160.0025 84.4 157.77 80.5325L133.73625 38.90625C131.50375 35.03875 127.3775 32.65625 122.9115 32.65625H74.84525C70.3795 32.65625 66.252875 35.03875 64.02 38.90625L39.986875 80.5325C37.753875 84.4 37.753875 89.165 39.986875 93.0325L64.02 134.66zM176.52 197.159625C178.7525 201.027125 182.88 203.409625 187.345 203.409625L235.41125 203.409625C239.8775 203.409625 244.00375 201.027125 246.23625 197.159625L270.27 155.5325C272.5025 151.665 272.5025 146.9 270.27 143.0325L246.23625 101.40625C244.00375 97.53875 239.8775 95.15625 235.41125 95.15625H187.345C182.88 95.15625 178.7525 97.53875 176.52 101.40625L152.48625 143.0325C150.25375 146.9 150.25375 151.665 152.48625 155.5325L176.52 197.159625z" />
    <glyph glyph-name="device_activating"
      unicode="&#xF174;"
      horiz-adv-x="300" d="M218.055 175H81.9445C76.7875 175 71.841625 172.95125 68.195125 169.305C64.548625 165.65875 62.5 160.7125 62.5 155.555V19.445C62.5 14.2875 64.548625 9.34125 68.195125 5.695C71.841625 2.04875 76.7875 0 81.9445 0H218.055C223.2125 0 228.15875 2.04875 231.805 5.695C235.45125 9.34125 237.5 14.2875 237.5 19.445V155.555C237.5 160.7125 235.45125 165.65875 231.805 169.305C228.15875 172.95125 223.2125 175 218.055 175zM218.055 38.88875C218.055 33.7325 216.0075 28.78625 212.36 25.14C208.71375 21.4925 203.7675 19.445 198.61125 19.445C193.45375 19.445 188.50875 21.4925 184.86125 25.14C181.215 28.78625 179.16625 33.7325 179.16625 38.88875C179.16625 44.04625 181.215 48.99125 184.86125 52.63875C188.50875 56.285 193.45375 58.33375 198.61125 58.33375C203.7675 58.33375 208.71375 56.285 212.36 52.63875C216.0075 48.99125 218.055 44.04625 218.055 38.88875zM218.055 140.9725C218.055 137.105 216.51875 133.395 213.78375 130.66C211.04875 127.925 207.34 126.38875 203.4725 126.38875H96.52775C92.66 126.38875 88.95075 127.925 86.21575 130.66C83.480875 133.395 81.9445 137.105 81.9445 140.9725C81.9445 144.84 83.480875 148.54875 86.21575 151.28375C88.95075 154.01875 92.66 155.555 96.52775 155.555H203.4725C207.34 155.555 211.04875 154.01875 213.78375 151.28375C216.51875 148.54875 218.055 144.84 218.055 140.9725zM105.749625 206.75L88.124625 224.375C103.999625 240.25 125.875 250 150 250C174.125 250 196 240.25 211.875 224.375L194.25 206.75C182.875 218 167.25 225 150 225C132.75 225 117.124625 218 105.749625 206.75zM52.749625 259.75C77.624625 284.625 111.999625 300 150 300C188 300 222.375 284.625 247.125 259.625L229.5 242C209.25 262.375 181.125 275 150 275C118.874625 275 90.749625 262.375 70.374625 242.125L52.749625 259.75z" />
    <glyph glyph-name="device_configuration"
      unicode="&#xF175;"
      horiz-adv-x="300" d="M150 62.5C150 111.25 188.75 150 237.5 150C246.25 150 255 148.75 262.5 146.25V237.5C262.5 251.25 251.2500000000001 262.5 237.5 262.5H62.5C48.75 262.5 37.5 251.25 37.5 237.5V62.5C37.5 48.75 48.75 37.5 62.5 37.5H153.75C151.25 45 150 53.75 150 62.5zM62.5 200V237.5H237.5V200H62.5zM266.3 62.77375C257.84375 54.31625 245.5900000000001 52.0725 235.06125 55.78375L205.635 26.3575C203.91 24.63125 201.23375 24.63125 199.50875 26.3575L187.4275 38.43875C185.70125 40.165 185.70125 42.84 187.4275 44.565L216.85375 73.9925C213.1425 84.52 215.38625 96.77375 223.84375 105.23C233.4225 114.80875 247.83375 116.44875 259.22375 110.3225L238.945 90.0425L251.1125 77.875L271.3925000000001 98.155C277.51875 86.85 275.87875 72.3525 266.3 62.77375z" />
    <glyph glyph-name="device_info"
      unicode="&#xF176;"
      horiz-adv-x="300" d="M237.5 150C188.75 150 150 111.25 150 62.5C150 53.75 151.25 45 153.75 37.5H62.5C48.75 37.5 37.5 48.75 37.5 62.5V237.5C37.5 251.25 48.75 262.5 62.5 262.5H237.5C251.2500000000001 262.5 262.5 251.25 262.5 237.5V146.25C255 148.75 246.25 150 237.5 150zM62.5 237.5V200H237.5V237.5H62.5zM225 100C231.90375 100 237.5 105.59625 237.5 112.5C237.5 119.40375 231.90375 125 225 125C218.09625 125 212.5 119.40375 212.5 112.5C212.5 105.59625 218.09625 100 225 100zM237.5 87.5H212.5V37.5H237.5V87.5z" />
    <glyph glyph-name="device_with_keypad"
      unicode="&#xF177;"
      horiz-adv-x="300" d="M212.5 262.5H87.5C73.75 262.5 62.5 251.25 62.5 237.5V62.5C62.5 48.75 73.75 37.5 87.5 37.5H212.5C226.2500000000001 37.5 237.5 48.75 237.5 62.5V237.5C237.5 251.25 226.2500000000001 262.5 212.5 262.5zM112.5 62.5H87.5V87.5H112.5V62.5zM112.5 112.5H87.5V137.5H112.5V112.5zM212.5 62.5H137.5V87.5H212.5V62.5zM137.5 112.5V137.5H162.5V112.5H137.5zM212.5 112.5H187.5V137.5H212.5V112.5zM212.5 162.5H87.5V237.5H212.5V162.5z" />
    <glyph glyph-name="device"
      unicode="&#xF178;"
      horiz-adv-x="300" d="M237.5 262.5H62.5A25 25 0 0 1 37.5 237.5V62.5A25 25 0 0 1 62.5 37.5H237.5A25 25 0 0 1 262.5 62.5V237.5A25 25 0 0 1 237.5 262.5zM237.5 87.5A25 25 0 0 0 212.5 62.5H212.5A25 25 0 0 0 187.5 87.5H187.5A25 25 0 0 0 212.5 112.5H212.5A25 25 0 0 0 237.5 87.5zM237.5 218.75A18.75 18.75 0 0 0 218.75 200H81.25A18.75 18.75 0 0 0 62.5 218.75H62.5A18.75 18.75 0 0 0 81.25 237.5H218.75A18.75 18.75 0 0 0 237.5 218.75z" />
    <glyph glyph-name="diagnostic_alt"
      unicode="&#xF179;"
      horiz-adv-x="300" d="M185 250H237.5C251.2500000000001 250 262.5 238.75 262.5 225V50C262.5 36.25 251.2500000000001 25 237.5 25H62.5C48.75 25 37.5 36.25 37.5 50V225C37.5 238.75 48.75 250 62.5 250H115C120 265 133.75 275 150 275C166.25 275 180 265 185 250zM162.5 237.5C162.5 243.75 156.25 250 150 250C143.75 250 137.5 243.75 137.5 237.5C137.5 231.25 143.75 225 150 225C156.25 225 162.5 231.25 162.5 237.5zM145.81 111.94125L104.77225 198.98825L78.212125 137.495H62.5V118.745H90.537875L105.519875 153.4325L143.2525 73.39375L177.145 125.92375L198.15875 91.68375L220.09375 118.745H237.5V137.495H211.15625L200.27875 124.07625L177.5425 161.12375L145.81 111.94125z" />
    <glyph glyph-name="diagnostic"
      unicode="&#xF17A;"
      horiz-adv-x="300" d="M193.75 125H183.75L180 128.75A78.25 78.25 0 0 1 200 181.25A81.25 81.25 0 1 1 118.75 100A78.25 78.25 0 0 1 171.25 120L175 116.25V106.25L237.5 43.75L256.25 62.5zM118.75 237.5A56 56 0 0 0 173.625 193.75H143.25L129.875 173.75L102.75 225L86.375 193.75H63.875A56 56 0 0 0 118.75 237.5zM118.75 125A56 56 0 0 0 62.5 175H97.75L102.875 184.75L127.875 137.375L152.875 174.875H175A55.875 55.875 0 0 0 118.75 125z" />
    <glyph glyph-name="dimmer"
      unicode="&#xF17B;"
      horiz-adv-x="300" d="M187.5 125H112.5V150H137.5V237.5H162.5V150H187.5zM137.5 62.5H162.5V112.5H137.5zM237.5 262.5V37.5A25 25 0 0 0 212.5 12.5H87.5A25 25 0 0 0 62.5 37.5V262.5A25 25 0 0 0 87.5 287.5H212.5A25 25 0 0 0 237.5 262.5zM212.5 262.5H87.5V37.5H212.5z" />
    <glyph glyph-name="diode"
      unicode="&#xF17C;"
      horiz-adv-x="300" d="M275 162.5H200V200H175V162.5H162.5L75 212.5V162.5H25V137.5H75V87.5L162.5 137.5H175V100H200V137.5H275V162.5z" />
    <glyph glyph-name="distance_apart"
      unicode="&#xF17D;"
      horiz-adv-x="300" d="M75 200C88.75 200 100 211.25 100 225C100 238.75 88.75 250 75 250C61.25 250 50 238.75 50 225C50 211.25 61.25 200 75 200zM125 157.125C125 167.25 119 176.25 109.75 180.25C99.125 184.875 87.375 187.5 75 187.5C62.625 187.5 50.875 184.875 40.25 180.25C31 176.25 25 167.25 25 157.125V150H125V157.125zM225 200C238.7500000000001 200 250 211.25 250 225C250 238.75 238.7500000000001 250 225 250C211.25 250 200 238.75 200 225C200 211.25 211.25 200 225 200zM275 157.125C275 167.25 269 176.25 259.75 180.25C249.125 184.875 237.375 187.5 225 187.5C212.625 187.5 200.875 184.875 190.25 180.25C181 176.25 175 167.25 175 157.125V150H275V157.125zM237.5 62.5V87.625L62.5 87.5V62.5L25 100L62.5 137.5V112.375L237.5 112.5V137.5L275 100L237.5 62.5z" />
    <glyph glyph-name="distribution_box_outline"
      unicode="&#xF17E;"
      horiz-adv-x="300" d="M250 237.5V200H225V237.5H87.5V100H225V137.5H250V100A25 25 0 0 0 225 75H175V37.5H150V75H125V37.5H100V75H87.5A25 25 0 0 0 62.5 100V112.5H50V150H62.5V187.5H50V225H62.5V237.5A25 25 0 0 0 87.5 262.5H225A25 25 0 0 0 250 237.5zM225 150H250V187.5H225zM187.5 175H162.5V212.5L125 162.5H150V125z" />
    <glyph glyph-name="distribution_box"
      unicode="&#xF17F;"
      horiz-adv-x="300" d="M100 75H125V37.5H100V75zM150 75H175V37.5H150V75zM62.5 237.5C62.5 251.307125 73.692875 262.5 87.5 262.5H225C238.8075 262.5 250 251.307125 250 237.5V200H225V137.5H250V100C250 86.1925 238.8075 75 225 75H87.5C73.692875 75 62.5 86.1925 62.5 100V237.5zM162.5 212.5L125 162.5H150V125L187.5 175H162.5V212.5zM237.5 187.5H262.5V150H237.5V187.5zM50 225H75V187.5H50V225zM50 150H75V112.5H50V150z" />
    <glyph glyph-name="double_triangle"
      unicode="&#xF180;"
      horiz-adv-x="300" d="M256.25 100L150 287.5L43.75 100H93.375L43.75 12.5H256.25L206.625 100H256.25zM212.5 37.5H87.5L122.25 100L150 150L177.75 100L212.5 37.5zM150 200L107.5 125H87.5L150 237.5L212.5 125H192.5L150 200z" />
    <glyph glyph-name="drive"
      unicode="&#xF181;"
      horiz-adv-x="300" d="M129.375 236.75L120.625 245.625L150 275L179.375 245.625L170.625 236.75L150 257.375zM170.625 150.75L150 130.125L129.375 150.75L120.625 141.875L150 112.5L179.375 141.875zM202.625 164.375L232.125 193.75L202.625 223.25L193.875 214.375L214.375 193.75L193.875 173.25zM106.125 173.25L85.625 193.75L106.125 214.375L97.375 223.25L67.875 193.75L97.375 164.375zM125 75A50 50 0 1 0 75 125A50 50 0 0 0 125 75zM84.375 112.5H65.625V37.5H84.375zM225 100A25 25 0 1 1 250 75A25 25 0 0 1 225 100zM275 75A50 50 0 1 0 225 125A50 50 0 0 0 275 75zM262.5 75A37.5 37.5 0 1 1 225 37.5A37.5 37.5 0 0 1 262.5 75z" />
    <glyph glyph-name="eaton_tagline"
      unicode="&#xF182;"
      horiz-adv-x="300" d="M71.982125 88.3492125L77.357 68.952125H66.20675L71.982125 88.3492125zM62.177125 55.386625L57.271625 39.30575H85.94175L81.31775 55.386625L62.177125 55.386625zM136.99375 100H81.96225V82.73025H99.32575V39.30575H127.26375C125.53125 40.37575 113.685875 49.78025 113.685875 67.344C113.717125 81.948125 122.53975 96.2457125 136.99375 100zM146.53 54.86725C153.01875 54.86725 158.23625 60.254625 158.23625 67.06875C158.23625 73.88275 153.35 79.964625 146.76125 79.964625C140.1725 79.964625 134.99125 73.807625 134.99125 67.043625C134.99125 60.279625 139.86625 54.84225 146.555 54.84225L146.53 54.86725zM204.245 61.8315L193.07 100H164.475V39.30575H182.33875V77.336625H182.46375L193.53375 39.30575H222.3725V100H204.3575V61.8315H204.245zM34.6145 39.30575L39.770375 56.325125H20.62975V61.456H41.340875L46.25275 77.768375H20.62975V82.70525H47.679375L52.897875 100H0V39.30575H34.6145zM256.10125 9.671875H256.15125L255.9387500000001 8.20775H257.2775000000001C257.3375 8.987375 257.4575 9.76125 257.635 10.522875L260.64375 24.970625H259.255L257.92875 18.7635H257.89125C257.63375 19.19625 257.2675 19.553125 256.8275 19.79825C256.3875 20.04325 255.89125 20.16775 255.38875 20.158875C251.79 20.158875 250.9775 16.33575 250.50125 14.08325C249.92625 11.348875 249.39375 7.9825 252.77875 7.9825C253.42625 7.985875 254.06375 8.140375 254.64 8.43375C255.2175 8.727 255.7175 9.151 256.10125 9.671875zM257.22125 15.078125L256.7775000000001 12.9945L256.79 12.9945C256.1887500000001 10.14125 254.70625 9.07125 253.37375 9.07125C251.865 9.07125 250.94 9.634375 251.865 14.014375L251.87 14.036375C252.45625 16.760875 252.9425 19.020125 255.43875 19.020125C258.03875 19.020125 257.37375 15.809625 257.22375 15.09025L257.22125 15.078125zM101.02975 8.194875L103.532625 19.895625H104.915375L102.4125 8.194875H101.02975zM104.051875 23.168125L104.421125 24.926375H106.14175L105.760125 23.168125H104.051875zM52.306 24.9145H56.905C58.294125 24.9145 60.54675 24.733 59.72075 20.859875C59.0075 17.49975 57.599625 15.973 54.715 15.973H51.893125L50.234875 8.182875H48.74575L52.306 24.9145zM52.149625 17.2245H54.90275C56.4545 17.2245 57.612125 17.962875 58.169 20.584625C58.79475 23.437875 57.593375 23.669375 56.25425 23.669375H53.526125L52.149625 17.2245zM59.483625 12.787625L60.10925 15.56575C60.428375 17.048625 61.104125 20.1335 65.115 20.1335C69.125875 20.1335 68.493875 17.048625 68.181 15.56575L67.586625 12.787625C66.960875 9.740375 65.52175 7.957 62.5245 7.957C59.527375 7.957 58.839125 9.740375 59.483625 12.787625zM65.427875 10.622625C65.877 11.73125 66.2145 12.882125 66.43525 14.05775C67.167375 17.51175 67.142375 19.019625 64.846 19.019625C62.549625 19.019625 61.880125 17.51175 61.15425 14.05775C60.883625 12.931625 60.730625 11.780375 60.6975 10.622625L60.710625 10.546125C60.771375 10.16575 60.9465 9.070875 62.73725 9.070875C63.288 9.040375 63.835625 9.170875 64.3135 9.4465C64.79125 9.722 65.1785 10.130625 65.427875 10.622625V10.622625zM71.76025 19.909H70.2835L71.009375 8.208125H72.755125L77.33525 18.2195H77.385375L77.829625 8.208125H79.569125L85.281875 19.909H83.89275L79.0935 9.65975H79.0435L78.62425 19.909H76.909875L72.2545 9.65975H72.2045L71.76025 19.909zM86.620375 13.758125L86.432625 12.844625C86.08225 11.23025 86.0635 9.09025 88.266 9.09025C89.028 9.071875 89.769875 9.33675 90.34775 9.833875C90.92575 10.330875 91.29875 11.024625 91.394625 11.780875H92.8525C92.095375 8.952625 90.349625 7.9765 88.0095 7.9765C85.994625 7.9765 84.1425 8.79625 84.880875 12.3565L85.506625 15.23475C86.2325 18.613625 87.971875 20.17175 90.593625 20.17175C94.625 20.17175 94.013375 17.290125 93.277625 13.823625L93.27175 13.795625L86.620375 13.758125zM92.145375 14.871875C92.696 17.462375 92.61475 19.020375 90.380875 19.020375C88.147125 19.020375 87.40875 17.462375 86.851875 14.871875H92.145375zM98.371875 18.326H98.328L98.666 19.9215H97.276875L94.774 8.22075H96.175625L97.777375 15.72925C97.922875 16.632375 98.408375 17.445375 99.1345 18.001625C99.860625 18.557875 100.772125 18.815 101.681875 18.72025L101.98225 20.13425C101.282 20.13025 100.592125 19.965 99.966 19.651375C99.34 19.337875 98.7945 18.88425 98.371875 18.326zM105.586375 8.19575H106.981625L108.57725 15.541625C109.127875 18.157 110.58575 19.0205 111.837125 19.0205C113.47025 19.0205 113.720625 17.737875 113.43275 16.37375L111.69325 8.19575H113.094875L114.82175 16.442625C115.140875 17.975625 115.309875 20.13425 112.40025 20.13425C111.7815 20.097125 111.1775 19.929 110.6285 19.641C110.0795 19.353 109.597875 18.951625 109.2155 18.463625H109.171625L109.472 19.8965H108.089125L105.586375 8.19575zM124.88175 19.90875H126.23375L125.99125 18.911375C125.8625 18.381375 125.76875 17.99775 125.6825 17.606125L123.58025 7.751125C123.042125 5.179375 121.928375 3.646375 118.5745 3.646375C115.65875 3.646375 115.51475 5.7175 115.859 6.893875H117.248C116.866375 5.554875 117.69225 4.760125 119 4.760125C121.551875 4.760125 121.8285 6.065125 122.48325 9.154L122.604125 9.722125H122.560375C122.176625 9.26875 121.69675 8.90675 121.155625 8.662125C120.614375 8.4175 120.0255 8.2965 119.43175 8.308C116.065375 8.308 116.447125 11.21125 117.004 13.808C117.548 16.368 117.622625 16.5315 118.1095 17.597375L118.199125 17.79375C118.556625 18.484 119.0945 19.064375 119.755625 19.473125C120.416625 19.881875 121.17625 20.10375 121.953375 20.115125C122.49825 20.154 123.04075 20.013625 123.49825 19.715375C123.955875 19.417125 124.30325 18.977375 124.487625 18.46325V18.4195L124.88175 19.90875zM118.5245 14.27725L118.5215 14.26325C118.003125 11.840125 117.4845 9.4155 120.01375 9.4155C120.489125 9.4225 120.955625 9.546 121.372375 9.775C121.789 10.004125 122.14325 10.33175 122.403875 10.7295C122.94825 11.63675 123.15475 12.168625 123.886875 15.5975C124.4 18.062875 123.261125 18.988875 121.9785 18.988875C119.5695 19.020125 118.893625 16.05425 118.5245 14.27725zM135.25125 24.9145L131.69125 8.195375L136.45875 8.182875C139.2625 8.182875 141.07 9.82225 141.69625 12.832C142.13375 14.940625 141.87125 16.411 139.75625 16.867875V16.917875C141.99 17.49975 142.61625 18.888875 143.04125 20.909875C143.6675 23.857 142.535 24.9145 139.9125 24.9145H135.25125zM135.80125 9.446875H133.44875L134.88875 16.248375H137.8975C140.45125 16.248375 140.4575 14.221 140.14375 12.738125C139.61875 10.285375 138.26125 9.446875 135.80125 9.446875zM141.5275 20.853625C141.1325 18.95775 140.1375 17.4935 138.00375 17.4935H135.145L136.47125 23.688125H139.4125C140.60125 23.688125 142.10875 23.638 141.5275 20.853625zM152.965 19.909L150.4625 8.208125H149.26125L149.53625 9.503375H149.48625C149.085 9.035625 148.59125 8.656625 148.035 8.3905C147.47875 8.124375 146.87375 7.977 146.2575 7.957875C143.83625 7.957875 143.53625 9.722375 143.94875 11.61825L145.70125 19.896375H147.09625L145.3875 11.856L145.3775 11.8025C145.27875 11.323375 144.8175 9.071625 146.74625 9.071625C148.6225 9.071625 149.6675 10.829875 149.8425 11.64325L151.595 19.896375L152.965 19.909zM153.55875 11.668375C153.0025 9.209375 153.76625 7.957875 156.26875 7.957875C158.47125 7.957875 159.97875 9.071625 160.47375 11.27425C160.9225 13.375 159.56625 14.12225 158.30625 14.815375C157.21875 15.414625 156.20375 15.97325 156.49375 17.331125C156.6025 17.816375 156.87625 18.24925 157.2675 18.557C157.6575 18.864625 158.1425 19.028375 158.64 19.0205C160.20375 19.0205 160.4425 18.225875 160.20375 16.74925H161.56875C161.94375 18.5325 161.55 20.13425 159.22875 20.13425C157.1825 20.13425 155.5425 19.364625 155.08 17.21225C154.64625 15.16475 155.9575 14.420625 157.195 13.718625C158.29375 13.09475 159.335 12.504125 159.04 11.0615C158.97125 10.473125 158.68125 9.932875 158.23 9.549625C157.77875 9.1665 157.19875 8.96875 156.60625 8.996625C154.82375 8.996625 154.6725 10.066625 155.0175 11.668375H153.55875zM162.34375 8.194875L164.84625 19.895625H166.235L163.7325 8.194875H162.34375zM165.36 23.168125L165.74125 24.926375H167.44875L167.08 23.168125H165.36zM166.905 8.19575H168.31875L169.89625 15.541625C170.45875 18.157 171.91125 19.0205 173.1625 19.0205C174.78875 19.0205 175.0525 17.737875 174.75125 16.37375L173.025 8.19575H174.41375L176.1475 16.442625C176.47875 17.975625 176.62875 20.13425 173.73125 20.13425C173.1125 20.097125 172.50875 19.929 171.96 19.641C171.41125 19.353 170.92875 18.951625 170.54625 18.463625H170.5025L170.81 19.8965H169.4075L166.905 8.19575zM179.75625 13.751875L179.5625 12.844625C179.21875 11.23025 179.20625 9.09025 181.40875 9.09025C182.17125 9.069 182.915 9.333 183.49375 9.8305C184.0725 10.328125 184.44375 11.0235 184.5375 11.780875H186.01375C185.23125 8.952625 183.51125 7.9765 181.165 7.9765C179.14375 7.9765 177.30375 8.79625 178.03625 12.3565L178.66125 15.2285C179.38125 18.613625 181.12125 20.17175 183.73625 20.17175C187.7725 20.17175 187.165 17.274625 186.42125 13.789375L179.75625 13.751875zM185.27625 14.871875C185.83875 17.462375 185.745 19.020375 183.5175 19.020375C181.29 19.020375 180.545 17.462375 179.98875 14.871875H185.27625zM188.02875 11.668375C187.485 9.209375 188.235 7.957875 190.73875 7.957875C192.9225 7.957875 194.43625 9.071625 194.88 11.27425C195.33 13.375 193.975 14.12225 192.7175 14.815375C191.63 15.414625 190.6175 15.97325 190.9075 17.331125C191.015 17.817 191.2875 18.2505 191.67875 18.558375C192.07 18.86625 192.55625 19.0295 193.05375 19.0205C194.6175 19.0205 194.855 18.225875 194.6175 16.74925H195.975C196.3575 18.5325 195.95625 20.13425 193.64125 20.13425C191.595 20.13425 189.95 19.364625 189.49875 17.21225C189.05875 15.164 190.37 14.420125 191.6075 13.717875C192.70625 13.09425 193.7475 12.5035 193.45375 11.0615C193.38625 10.4725 193.0975 9.931375 192.645 9.547875C192.1925 9.164375 191.61125 8.96725 191.02 8.996625C189.23 8.996625 189.08625 10.066625 189.43 11.668375H188.02875zM199.605 7.957875C197.07125 7.957875 196.33875 9.209375 196.88375 11.668375H198.30375C197.96 10.066625 198.11 8.996625 199.89375 8.996625C200.485 8.96725 201.06625 9.164375 201.51875 9.547875C201.97 9.931375 202.26 10.4725 202.3275 11.0615C202.62125 12.50375 201.58125 13.0945 200.4825 13.71825C199.24625 14.420375 197.935 15.164375 198.3725 17.21225C198.83 19.364625 200.46875 20.13425 202.52125 20.13425C204.83625 20.13425 205.23625 18.5325 204.855 16.74925H203.485C203.72875 18.225875 203.485 19.0205 201.92625 19.0205C201.42875 19.0295 200.94375 18.86625 200.5525 18.558375C200.16125 18.2505 199.88875 17.817 199.78 17.331125C199.49 15.97275 200.505 15.414125 201.59375 14.814625C202.85125 14.12175 204.20875 13.374125 203.76625 11.27425C203.29125 9.071625 201.78875 7.957875 199.605 7.957875zM222.0925 24.9145H220.09125L213.54625 10.128875H213.49L213.2575 24.9145H211.675L212.1375 8.182875H214.015L220.62875 23.062375H220.6725L220.8725 8.182875H222.81875L230.53375 24.9145H229.07L222.375 10.2415H222.33125L222.0925 24.9145zM228.7075 12.787625L229.3325 15.56575C229.645 17.048625 230.33375 20.1335 234.33875 20.1335C238.3425 20.1335 237.7175 17.048625 237.405 15.56575L236.81625 12.787625C236.1587500000001 9.740375 234.73875 7.957 231.75375 7.957C228.77 7.957 228.0625 9.740375 228.7075 12.787625zM234.65125 10.622625C235.10375 11.73025 235.44125 12.881375 235.65875 14.05775C236.3975 17.51175 236.3662500000001 19.019625 234.06875 19.019625C231.7725 19.019625 231.10375 17.51175 230.37125 14.05775C230.10375 12.931 229.95125 11.780125 229.915 10.622625L229.93375 10.52825C230.00625 10.1325 230.2025 9.070875 231.96125 9.070875C232.51125 9.040375 233.05875 9.170875 233.53625 9.4465C234.015 9.722 234.40125 10.13075 234.65125 10.622625zM242.26 18.326H242.215L242.56625 19.9215H241.1775L238.67375 8.22075H240.0575L241.665 15.72925C241.81125 16.632875 242.29875 17.446 243.02625 18.002125C243.7525 18.55825 244.665 18.815125 245.57625 18.72025L245.8762500000001 20.13425C245.175 20.131625 244.48375 19.967125 243.85625 19.653375C243.22875 19.33975 242.6825 18.8855 242.26 18.326zM245.03125 8.195375L248.5925 24.9145H249.98125L246.42125 8.182875L245.03125 8.195375zM261.2750000000001 19.909H262.7575000000001L263.2025 9.65975H263.265L267.90125 19.909H269.6225L270.04125 9.65975H270.085L274.8775 19.909H276.27375L270.56 8.208125H268.8275L268.37625 18.2195H268.3325L263.74 8.208125H262.01375L261.2750000000001 19.909zM278.0325 19.89625L275.5300000000001 8.195375H276.91875L279.42125 19.89625H278.0325zM278.90875 24.9145L278.545 23.16875L280.2475 23.15625L280.62875 24.9145H278.90875zM286.57375 9.671875H286.52375C286.1400000000001 9.151 285.64 8.727 285.0625 8.43375C284.48625 8.140375 283.84875 7.985875 283.20125 7.9825C279.81 7.9825 280.34125 11.348875 280.9175 14.077C281.3925 16.33575 282.20625 20.158875 285.80375 20.158875C286.3125 20.174625 286.81625 20.053375 287.2625000000001 19.808C287.7075 19.5625 288.08 19.20175 288.33875 18.7635H288.3825L289.7025000000001 24.970625H291.09125L288.0250000000001 10.57925C287.84625 9.818375 287.73125 9.044 287.6812500000001 8.264125H286.3300000000001L286.57375 9.671875zM287.2 12.9945L287.6375 15.078125L287.64125 15.095C287.7925 15.823875 288.455 19.020125 285.85375 19.020125C283.36875 19.020125 282.8825 16.78125 282.29375 14.07325L282.28125 14.014375C281.36125 9.634375 282.28125 9.07125 283.78875 9.07125C285.1225 9.07125 286.59875 10.14125 287.2125 12.9945L287.2 12.9945zM292.61125 12.844625L292.79875 13.751875L299.4625000000001 13.789375L299.4725 13.8335C300.2 17.299125 300.80375 20.17175 296.785 20.17175C294.15625 20.17175 292.41125 18.613625 291.6912500000001 15.2285L291.065 12.3565C290.33375 8.79625 292.1787500000001 7.9765 294.19375 7.9765C296.53375 7.9765 298.2675 8.952625 299.0375 11.780875H297.5725C297.4775 11.024625 297.10375 10.330875 296.52625 9.833875C295.94875 9.33675 295.20625 9.071875 294.445 9.09025C292.24875 9.09025 292.26125 11.23025 292.61125 12.844625zM296.55875 19.020375C298.7875 19.020375 298.875 17.462375 298.32375 14.871875H293.03C293.5875 17.462375 294.33125 19.020375 296.55875 19.020375z" />
    </font>
</defs>
</svg>
