<svg width="24" height="24" viewBox="0 0 24 24" fill="none" xmlns="http://www.w3.org/2000/svg">
<path d="M16.5967 14.8477C16.5967 15.5449 16.4209 16.207 16.0693 16.834C15.7178 17.4551 15.1699 17.959 14.4258 18.3457C13.6875 18.7324 12.7324 18.9258 11.5605 18.9258C10.9746 18.9258 10.459 18.8994 10.0137 18.8467C9.57422 18.7939 9.16406 18.709 8.7832 18.5918C8.40234 18.4688 8.00684 18.3105 7.59668 18.1172V15.0234C8.29395 15.375 8.99707 15.6445 9.70605 15.832C10.415 16.0137 11.0566 16.1045 11.6309 16.1045C11.9766 16.1045 12.2578 16.0635 12.4746 15.9814C12.6973 15.8994 12.8613 15.7881 12.9668 15.6475C13.0723 15.501 13.125 15.334 13.125 15.1465C13.125 14.9238 13.0459 14.7363 12.8877 14.584C12.7354 14.4258 12.4893 14.2617 12.1494 14.0918C11.8096 13.9219 11.3613 13.7109 10.8047 13.459C10.3301 13.2363 9.89941 13.0078 9.5127 12.7734C9.13184 12.5391 8.80371 12.2725 8.52832 11.9736C8.25879 11.6689 8.05078 11.3145 7.9043 10.9102C7.75781 10.5059 7.68457 10.0283 7.68457 9.47754C7.68457 8.65137 7.88672 7.95996 8.29102 7.40332C8.70117 6.84082 9.26953 6.41895 9.99609 6.1377C10.7285 5.85645 11.5723 5.71582 12.5273 5.71582C13.3652 5.71582 14.1182 5.80957 14.7861 5.99707C15.46 6.18457 16.0635 6.39844 16.5967 6.63867L15.5332 9.31934C14.9824 9.06738 14.4404 8.86816 13.9072 8.72168C13.374 8.56934 12.8789 8.49316 12.4219 8.49316C12.123 8.49316 11.877 8.53125 11.6836 8.60742C11.4961 8.67773 11.3555 8.77441 11.2617 8.89746C11.1738 9.02051 11.1299 9.16113 11.1299 9.31934C11.1299 9.51855 11.2061 9.69727 11.3584 9.85547C11.5166 10.0137 11.7773 10.1865 12.1406 10.374C12.5098 10.5557 13.0107 10.793 13.6436 11.0859C14.2705 11.3672 14.8037 11.6719 15.2432 12C15.6826 12.3223 16.0166 12.7119 16.2451 13.1689C16.4795 13.6201 16.5967 14.1797 16.5967 14.8477Z" />
</svg>
