<svg width="24" height="24" viewBox="0 0 24 24" xmlns="http://www.w3.org/2000/svg">
<path d="M13.2129 18.75H9.19629L6.69141 14.7334L4.21289 18.75H0.28418L4.54688 12.1758L0.539062 5.90039H4.38867L6.70898 9.87305L8.94141 5.90039H12.9053L8.83594 12.4482L13.2129 18.75Z" />
<path d="M23.25 14.8477C23.25 15.5449 23.0742 16.207 22.7227 16.834C22.3711 17.4551 21.8232 17.959 21.0791 18.3457C20.3408 18.7324 19.3857 18.9258 18.2139 18.9258C17.6279 18.9258 17.1123 18.8994 16.667 18.8467C16.2275 18.7939 15.8174 18.709 15.4365 18.5918C15.0557 18.4688 14.6602 18.3105 14.25 18.1172V15.0234C14.9473 15.375 15.6504 15.6445 16.3594 15.832C17.0684 16.0137 17.71 16.1045 18.2842 16.1045C18.6299 16.1045 18.9111 16.0635 19.1279 15.9814C19.3506 15.8994 19.5146 15.7881 19.6201 15.6475C19.7256 15.501 19.7783 15.334 19.7783 15.1465C19.7783 14.9238 19.6992 14.7363 19.541 14.584C19.3887 14.4258 19.1426 14.2617 18.8027 14.0918C18.4629 13.9219 18.0146 13.7109 17.458 13.459C16.9834 13.2363 16.5527 13.0078 16.166 12.7734C15.7852 12.5391 15.457 12.2725 15.1816 11.9736C14.9121 11.6689 14.7041 11.3145 14.5576 10.9102C14.4111 10.5059 14.3379 10.0283 14.3379 9.47754C14.3379 8.65137 14.54 7.95996 14.9443 7.40332C15.3545 6.84082 15.9229 6.41895 16.6494 6.1377C17.3818 5.85645 18.2256 5.71582 19.1807 5.71582C20.0186 5.71582 20.7715 5.80957 21.4395 5.99707C22.1133 6.18457 22.7168 6.39844 23.25 6.63867L22.1865 9.31934C21.6357 9.06738 21.0938 8.86816 20.5605 8.72168C20.0273 8.56934 19.5322 8.49316 19.0752 8.49316C18.7764 8.49316 18.5303 8.53125 18.3369 8.60742C18.1494 8.67773 18.0088 8.77441 17.915 8.89746C17.8271 9.02051 17.7832 9.16113 17.7832 9.31934C17.7832 9.51855 17.8594 9.69727 18.0117 9.85547C18.1699 10.0137 18.4307 10.1865 18.7939 10.374C19.1631 10.5557 19.6641 10.793 20.2969 11.0859C20.9238 11.3672 21.457 11.6719 21.8965 12C22.3359 12.3223 22.6699 12.7119 22.8984 13.1689C23.1328 13.6201 23.25 14.1797 23.25 14.8477Z" />
</svg>
