<svg width="24" height="24" viewBox="0 0 24 24" xmlns="http://www.w3.org/2000/svg">
<path fill-rule="evenodd" clip-rule="evenodd" d="M21.9297 3.4834C21.9738 3.64841 22 3.8211 22 4V20C22 21.1046 21.1046 22 20 22H4C3.82143 22 3.64912 21.9736 3.48438 21.9297L21.9297 3.4834ZM14 14C13.5163 14 13.0717 14.0804 12.6777 14.2773C12.2738 14.4793 11.9943 14.7683 11.793 15.0703C11.6044 15.3532 11.4777 15.6598 11.3838 15.8945C11.2796 16.155 11.2065 16.3507 11.1055 16.5527L12.8945 17.4473C13.0435 17.1494 13.158 16.8448 13.2412 16.6367C13.3348 16.4029 13.3957 16.2717 13.457 16.1797C13.5057 16.1067 13.5387 16.0832 13.5723 16.0664C13.6158 16.0446 13.7337 16 14 16C14.1049 16 14.2229 16.0304 14.4189 16.2656C14.6424 16.5338 14.8413 16.919 15.1055 17.4473C15.3413 17.9189 15.6424 18.5338 16.0439 19.0156C16.4729 19.5304 17.1049 20 18 20C18.4837 20 18.9283 19.9196 19.3223 19.7227C19.7262 19.5207 20.0057 19.2317 20.207 18.9297C20.3956 18.6468 20.5223 18.3402 20.6162 18.1055C20.7204 17.845 20.7935 17.6493 20.8945 17.4473L19.1055 16.5527C18.9565 16.8506 18.842 17.1552 18.7588 17.3633C18.6652 17.5971 18.6043 17.7283 18.543 17.8203C18.4943 17.8933 18.4613 17.9168 18.4277 17.9336C18.3842 17.9554 18.2663 18 18 18C17.8951 18 17.7771 17.9696 17.5811 17.7344C17.3576 17.4662 17.1587 17.081 16.8945 16.5527C16.6587 16.0811 16.3576 15.4662 15.9561 14.9844C15.5271 14.4696 14.8951 14 14 14Z"/>
<path fill-rule="evenodd" clip-rule="evenodd" d="M20 2C20.1785 2 20.351 2.02547 20.5156 2.06934L2.06934 20.5156C2.02547 20.351 2 20.1785 2 20V4C2 2.89543 2.89543 2 4 2H20ZM6 4C5.51629 4 5.07171 4.08036 4.67773 4.27734C4.27376 4.47933 3.99434 4.76825 3.79297 5.07031C3.60435 5.35324 3.47767 5.65984 3.38379 5.89453C3.2796 6.15501 3.20648 6.35072 3.10547 6.55273L4.89453 7.44727C5.04348 7.14937 5.15797 6.84482 5.24121 6.63672C5.33476 6.40287 5.39568 6.27172 5.45703 6.17969C5.50566 6.10674 5.53874 6.08317 5.57227 6.06641C5.61579 6.04464 5.73371 6 6 6C6.10488 6 6.22292 6.0304 6.41895 6.26562C6.64238 6.53378 6.84134 6.919 7.10547 7.44727C7.34131 7.91894 7.64241 8.53379 8.04395 9.01562C8.47292 9.53036 9.10493 10 10 10C10.4837 10 10.9283 9.91964 11.3223 9.72266C11.7262 9.52067 12.0057 9.23174 12.207 8.92969C12.3956 8.64676 12.5223 8.34016 12.6162 8.10547C12.7204 7.84499 12.7935 7.64928 12.8945 7.44727L11.1055 6.55273C10.9565 6.85063 10.842 7.15518 10.7588 7.36328C10.6652 7.59713 10.6043 7.72828 10.543 7.82031C10.4943 7.89326 10.4613 7.91683 10.4277 7.93359C10.3842 7.95536 10.2663 8 10 8C9.89512 8 9.77708 7.9696 9.58105 7.73438C9.35762 7.46622 9.15866 7.081 8.89453 6.55273C8.65869 6.08106 8.35759 5.46621 7.95605 4.98438C7.52708 4.46964 6.89507 4 6 4Z"/>
</svg>
