<svg width="24" height="24" viewBox="0 0 24 24" xmlns="http://www.w3.org/2000/svg">
<path fill-rule="evenodd" clip-rule="evenodd" d="M5.2 6C5.6 4.8 6.7 4 8 4C9.7 4 11 5.3 11 7C11 8.7 9.7 10 8 10C6.7 10 5.6 9.2 5.2 8H2V6H5.2ZM7 7C7 7.6 7.4 8 8 8C8.6 8 9 7.6 9 7C9 6.4 8.6 6 8 6C7.4 6 7 6.4 7 7Z" />
<path fill-rule="evenodd" clip-rule="evenodd" d="M5.2 16C5.6 14.8 6.7 14 8 14C8.78366 14 9.48232 14.2762 10.0078 14.7406L14.0387 12.5012C14.0132 12.3388 14 12.1714 14 12C14 10.3 15.3 9 17 9C18.3 9 19.4 9.8 19.8 11H22V13H19.8C19.4 14.2 18.3 15 17 15C16.2163 15 15.5177 14.7238 14.9922 14.2594L10.9613 16.4988C10.9868 16.6612 11 16.8286 11 17C11 18.7 9.7 20 8 20C6.7 20 5.6 19.2 5.2 18H2V16H5.2ZM7 17C7 17.6 7.4 18 8 18C8.6 18 9 17.6 9 17C9 16.4 8.6 16 8 16C7.4 16 7 16.4 7 17ZM17 13C16.4 13 16 12.6 16 12C16 11.4 16.4 11 17 11C17.6 11 18 11.4 18 12C18 12.6 17.6 13 17 13Z" />
</svg>
