<svg width="24" height="24" viewBox="0 0 24 24"  xmlns="http://www.w3.org/2000/svg">
<path fill-rule="evenodd" clip-rule="evenodd" d="M12 22C17.5228 22 22 17.5228 22 12C22 6.47715 17.5228 2 12 2C6.47715 2 2 6.47715 2 12C2 17.5228 6.47715 22 12 22ZM9.10547 10.3301L10.8574 16.5H13.0605L14.7891 10.3418H14.8418C14.7949 11.2715 14.7676 11.8555 14.7598 12.0938C14.7559 12.332 14.7539 12.5488 14.7539 12.7441V16.5H16.8809V7.93359H13.793L12.041 14.0156H11.9941L10.207 7.93359H7.125V16.5H9.17578V12.7793C9.17578 12.1973 9.13477 11.3809 9.05273 10.3301H9.10547Z" />
</svg>
