<svg width="24" height="24" viewBox="0 0 24 24"  xmlns="http://www.w3.org/2000/svg">
<path d="M10 12C10.0026 12.7882 9.84833 13.569 9.54617 14.2969C9.244 15.0248 8.79999 15.6854 8.24 16.24L6.82 14.82C7.57118 14.0733 7.99553 13.0591 8 12C8.00041 11.4746 7.8973 10.9542 7.69655 10.4686C7.49579 9.98301 7.20134 9.54174 6.83 9.16999L8.24 7.75999C8.79999 8.31462 9.244 8.97515 9.54617 9.70309C9.84833 10.431 10.0026 11.2118 10 12ZM11.07 4.92999L9.65 6.34999C11.1461 7.84972 11.9863 9.88162 11.9863 12C11.9863 14.1184 11.1461 16.1503 9.65 17.65L11.07 19.07C12.9447 17.1947 13.9979 14.6516 13.9979 12C13.9979 9.34835 12.9447 6.80527 11.07 4.92999ZM16 12C16 12.3956 16.1173 12.7822 16.3371 13.1111C16.5568 13.44 16.8692 13.6964 17.2346 13.8478C17.6001 13.9991 18.0022 14.0387 18.3902 13.9616C18.7781 13.8844 19.1345 13.6939 19.4142 13.4142C19.6939 13.1345 19.8844 12.7781 19.9616 12.3902C20.0387 12.0022 19.9991 11.6001 19.8478 11.2346C19.6964 10.8692 19.44 10.5568 19.1111 10.3371C18.7822 10.1173 18.3956 9.99999 18 9.99999C17.4696 9.99999 16.9609 10.2107 16.5858 10.5858C16.2107 10.9609 16 11.4696 16 12ZM4 12L5.74 13.74C6.08379 12.6055 6.08379 11.3945 5.74 10.26L4 12Z" />
</svg>
