<svg xmlns="http://www.w3.org/2000/svg" width="24" height="24" viewBox="0 0 24 24"><path d="M7,3.27A2,2,0,0,1,8,5a1.81,1.81,0,0,1-.07.52l3.55,3.55A1.81,1.81,0,0,1,12,9a2,2,0,0,1,2,2,2,2,0,0,1-1,1.73V14.5h4v3.77a2,2,0,0,1,.73.73H19v2H17.73A2,2,0,0,1,16,22a2,2,0,0,1-2-2,2,2,0,0,1,1-1.73V16.5H11V12.73A2,2,0,0,1,10,11a1.81,1.81,0,0,1,.07-.52L6.52,6.93A1.81,1.81,0,0,1,6,7,2,2,0,0,1,4,5,2,2,0,0,1,5,3.27V2H7ZM17,20a1,1,0,1,1-1-1A1,1,0,0,1,17,20Zm-5-8a1,1,0,1,0-1-1A1,1,0,0,0,12,12ZM7,5A1,1,0,1,1,6,4,1,1,0,0,1,7,5Z" fill-rule="evenodd"/><rect width="24" height="24" fill="none"/></svg>