<svg xmlns="http://www.w3.org/2000/svg" width="24" height="24" viewBox="0 0 24 24"><path d="M13.05,12.05a.56.56,0,0,1-.19.46.77.77,0,0,1-.51.17h-.26V11.56h.37C12.85,11.56,13.05,11.73,13.05,12.05ZM22,18a2,2,0,0,1-2,2H4a2,2,0,0,1-2-2V8A2,2,0,0,1,4,6H6V4.8a1.37,1.37,0,0,1,0-.53.58.58,0,0,1,.22-.22A1.37,1.37,0,0,1,6.8,4H9.2a1.37,1.37,0,0,1,.53,0,.58.58,0,0,1,.22.22A1.37,1.37,0,0,1,10,4.8V6h4V4.8a1.37,1.37,0,0,1,.05-.53.58.58,0,0,1,.22-.22,1.37,1.37,0,0,1,.53,0h2.4a1.37,1.37,0,0,1,.53,0,.58.58,0,0,1,.22.22A1.37,1.37,0,0,1,18,4.8V6h2a2,2,0,0,1,2,2ZM9.53,10.5H8.1v2.92a1.13,1.13,0,0,1-.2.76.79.79,0,0,1-.63.23.78.78,0,0,1-.62-.24,1.08,1.08,0,0,1-.21-.75V10.5H5v3A1.83,1.83,0,0,0,5.58,15a2.45,2.45,0,0,0,1.67.51A2.44,2.44,0,0,0,8.94,15a1.87,1.87,0,0,0,.59-1.48Zm5,1.55A1.4,1.4,0,0,0,14,10.9a2.39,2.39,0,0,0-1.51-.4H10.66v5h1.43V13.75h.4A2.23,2.23,0,0,0,14,13.31,1.57,1.57,0,0,0,14.5,12.05Zm2.25-.19a.28.28,0,0,1,.12-.22.73.73,0,0,1,.41-.09,3.53,3.53,0,0,1,1.28.31l.44-1a4.48,4.48,0,0,0-1.68-.35,2.48,2.48,0,0,0-1.46.38,1.19,1.19,0,0,0-.53,1,1.54,1.54,0,0,0,.12.63,1.27,1.27,0,0,0,.38.46,3.41,3.41,0,0,0,.78.42c.38.16.62.26.71.31a.8.8,0,0,1,.19.16.25.25,0,0,1,.06.17.3.3,0,0,1-.15.26.82.82,0,0,1-.47.1,3.57,3.57,0,0,1-.81-.1,5.08,5.08,0,0,1-.85-.31v1.17a3,3,0,0,0,.75.24,4.41,4.41,0,0,0,.88.07A2.9,2.9,0,0,0,18,15.31a1.69,1.69,0,0,0,.72-.55A1.31,1.31,0,0,0,19,14a1.25,1.25,0,0,0-.27-.82,2.32,2.32,0,0,0-.95-.61,5.71,5.71,0,0,1-.87-.41A.32.32,0,0,1,16.75,11.86Z" fill-rule="evenodd"/><rect width="24" height="24" fill="none"/></svg>