<svg width="24" height="24" viewBox="0 0 24 24" fill="none" xmlns="http://www.w3.org/2000/svg">
<path d="M8.99995 22.0003V21.0003C8.99995 20.4669 9.19995 20.0211 9.59995 19.6628C9.99995 19.3044 10.4666 19.0836 11 19.0003V11.8503C10.6333 11.7169 10.3125 11.5253 10.0375 11.2753C9.76245 11.0253 9.53328 10.7336 9.34995 10.4003L7.44995 10.9003C6.84995 11.0336 6.27912 10.9836 5.73745 10.7503C5.19578 10.5169 4.84995 10.1169 4.69995 9.55028L9.04995 8.45028C9.18328 7.76695 9.49995 7.20028 9.99995 6.75028C10.5 6.30028 11.1 6.05028 11.8 6.00028L12.4 3.75028C12.5666 3.16695 12.8875 2.70445 13.3625 2.36278C13.8375 2.02111 14.3666 1.91695 14.95 2.05028L13.7 6.55028C14.1166 6.81695 14.4375 7.16695 14.6625 7.60028C14.8875 8.03361 15 8.50028 15 9.00028C15 9.21695 14.975 9.42945 14.925 9.63778C14.875 9.84611 14.8166 10.0503 14.75 10.2503L16.1 11.6503C16.5166 12.0836 16.7625 12.5919 16.8375 13.1753C16.9125 13.7586 16.75 14.2503 16.35 14.6503L13.35 11.6503C13.3 11.7003 13.2458 11.7378 13.1875 11.7628C13.1291 11.7878 13.0666 11.8169 13 11.8503V19.0003C13.5333 19.0836 14 19.3044 14.4 19.6628C14.8 20.0211 15 20.4669 15 21.0003V22.0003H8.99995ZM12 10.5003C12.4166 10.5003 12.7708 10.3544 13.0625 10.0628C13.3541 9.77111 13.5 9.41695 13.5 9.00028C13.5 8.58361 13.3541 8.22945 13.0625 7.93778C12.7708 7.64611 12.4166 7.50028 12 7.50028C11.5833 7.50028 11.2291 7.64611 10.9375 7.93778C10.6458 8.22945 10.5 8.58361 10.5 9.00028C10.5 9.41695 10.6458 9.77111 10.9375 10.0628C11.2291 10.3544 11.5833 10.5003 12 10.5003Z" />
</svg>
