<svg xmlns="http://www.w3.org/2000/svg" width="48" height="48" viewBox="0 0 100 100"><title>px_ssol_24px</title><rect width="24" height="24" fill="none" stroke="#000" stroke-width="0" opacity="0.01"/><path d="M14,10.54c-.68,0-1,.48-1,1.46s.34,1.45,1,1.45a.87.87,0,0,0,.76-.35A1.92,1.92,0,0,0,15,12a1.94,1.94,0,0,0-.25-1.11A.85.85,0,0,0,14,10.54Z" transform="translate(0 0)"/><path d="M20.27,6H3.73A1.74,1.74,0,0,0,2,7.73v8.54A1.74,1.74,0,0,0,3.73,18H20.27A1.74,1.74,0,0,0,22,16.27V7.73A1.74,1.74,0,0,0,20.27,6Zm-15,5.1a5.38,5.38,0,0,0,.82.42,2.31,2.31,0,0,1,.9.63,1.33,1.33,0,0,1,.25.84,1.51,1.51,0,0,1-.23.82,1.57,1.57,0,0,1-.68.56,2.46,2.46,0,0,1-1.05.2,3.89,3.89,0,0,1-.83-.07,3.13,3.13,0,0,1-.71-.24V13.05a3.47,3.47,0,0,0,.81.31,2.68,2.68,0,0,0,.76.11.73.73,0,0,0,.44-.1.31.31,0,0,0,.14-.27.35.35,0,0,0,0-.18.63.63,0,0,0-.19-.15A7,7,0,0,0,5,12.45,3.41,3.41,0,0,1,4.25,12a1.3,1.3,0,0,1-.37-.48,1.79,1.79,0,0,1-.11-.64,1.28,1.28,0,0,1,.5-1.08,2.18,2.18,0,0,1,1.38-.39,3.85,3.85,0,0,1,1.58.36l-.41,1.05a2.94,2.94,0,0,0-1.21-.33.62.62,0,0,0-.38.1.27.27,0,0,0-.12.23A.34.34,0,0,0,5.26,11.1Zm3.9,0a5.38,5.38,0,0,0,.82.42,2.31,2.31,0,0,1,.9.63,1.33,1.33,0,0,1,.25.84,1.51,1.51,0,0,1-.23.82,1.57,1.57,0,0,1-.68.56,2.46,2.46,0,0,1-1.05.2,3.89,3.89,0,0,1-.83-.07,3.13,3.13,0,0,1-.71-.24V13.05a3.47,3.47,0,0,0,.81.31,2.68,2.68,0,0,0,.76.11.73.73,0,0,0,.44-.1.31.31,0,0,0,.14-.27.35.35,0,0,0,0-.18.63.63,0,0,0-.19-.15,7,7,0,0,0-.66-.32A3.41,3.41,0,0,1,8.15,12a1.3,1.3,0,0,1-.37-.48,1.79,1.79,0,0,1-.11-.64,1.28,1.28,0,0,1,.5-1.08,2.18,2.18,0,0,1,1.38-.39,3.85,3.85,0,0,1,1.58.36l-.41,1.05a2.94,2.94,0,0,0-1.21-.33.62.62,0,0,0-.38.1.27.27,0,0,0-.12.23A.34.34,0,0,0,9.16,11.1Zm6.66,2.82a2.38,2.38,0,0,1-1.81.65,2.37,2.37,0,0,1-1.8-.66A2.68,2.68,0,0,1,11.58,12a2.67,2.67,0,0,1,.62-1.9A2.39,2.39,0,0,1,14,9.43a2.4,2.4,0,0,1,1.81.65A2.72,2.72,0,0,1,16.44,12,2.72,2.72,0,0,1,15.82,13.92Zm4.45.58H17v-5h1.35v3.9h1.93Z" transform="translate(0 0)"/></svg>