<?xml version="1.0" encoding="utf-8"?>
<!-- Generator: Adobe Illustrator 21.1.0, SVG Export Plug-In . SVG Version: 6.00 Build 0)  -->
<svg version="1.1" id="Layer_2" xmlns="http://www.w3.org/2000/svg" xmlns:xlink="http://www.w3.org/1999/xlink" x="0px" y="0px"
	 viewBox="0 0 24 24" style="enable-background:new 0 0 24 24;" xml:space="preserve">
<style type="text/css">
	.st0{fill:#404040;}
</style>
<path class="st0" d="M12,2C6.5,2,2,6.5,2,12c0,5.5,4.5,10,10,10s10-4.5,10-10C22,6.5,17.5,2,12,2z M12,20c-4.4,0-8-3.6-8-8
	c0-4.4,3.6-8,8-8s8,3.6,8,8C20,16.4,16.4,20,12,20z M15.4,7.5c0,0,1,3.3-0.7,5.7c-2.1,3-4.1,0.8-4.1,0.8l-0.2,2.4l-1.6,0
	c0,0-0.6-3.1,4-6.8c0,0-2.3,0.5-3.7,3.2c0,0-1-1.6-0.5-2.7C8.9,9,9.6,7.1,15.4,7.5z"/>
</svg>
