<?xml version="1.0" encoding="utf-8"?>
<!-- Generator: Adobe Illustrator 21.1.0, SVG Export Plug-In . SVG Version: 6.00 Build 0)  -->
<svg version="1.1" id="Layer_2" xmlns="http://www.w3.org/2000/svg" xmlns:xlink="http://www.w3.org/1999/xlink" x="0px" y="0px"
	 viewBox="0 0 24 24" style="enable-background:new 0 0 24 24;" xml:space="preserve">
<style type="text/css">
	.st0{fill:#404040;}
</style>
<path class="st0" d="M14,2H6C4.9,2,4,2.9,4,4l0,16c0,1.1,0.9,2,2,2h12c1.1,0,2-0.9,2-2V8L14,2z M17.2,17.7H6.8V8.9h1.9v1H7.8v4h2.3
	v1H7.8v1.8h3.4v-3.2h1v3.2h4V14h-2.6v-1h0.6v-1.7h1V13h1.1V9.9h-4v2.4h-1V9.9h-0.5v-1h6.4V17.7z"/>
</svg>
