<?xml version="1.0" encoding="utf-8"?>
<!-- Generator: Adobe Illustrator 21.1.0, SVG Export Plug-In . SVG Version: 6.00 Build 0)  -->
<svg version="1.1" id="Layer_2" xmlns="http://www.w3.org/2000/svg" xmlns:xlink="http://www.w3.org/1999/xlink" x="0px" y="0px"
	 viewBox="0 0 24 24" style="enable-background:new 0 0 24 24;" xml:space="preserve">
<style type="text/css">
	.st0{fill:#404040;}
</style>
<path class="st0" d="M3.6,12.1c0.1,0.3,0.3,0.6,0.7,0.6l1.2,5.9h-1v1.8h9.8v-1.8h-1.9l-1.2-7.5l4.6-1.2l2.2,4.6v5.8h0.5V15
	c0.6-0.9,2.3-3.9,1.9-6.8c-0.5-3.4-3.4-4.7-5-4.6l-0.2,4.7l-11,2.8C3.8,11.2,3.5,11.6,3.6,12.1z M10.6,18.6H8.2l1.1-7.1l0.1,0
	L10.6,18.6z M5.9,18.6l-1.2-5.9L7.5,12l-1,6.6H5.9z"/>
</svg>
