<?xml version="1.0" encoding="utf-8"?>
<!-- Generator: Adobe Illustrator 21.1.0, SVG Export Plug-In . SVG Version: 6.00 Build 0)  -->
<svg version="1.1" id="Layer_2" xmlns="http://www.w3.org/2000/svg" xmlns:xlink="http://www.w3.org/1999/xlink" x="0px" y="0px"
	 viewBox="0 0 24 24" style="enable-background:new 0 0 24 24;" xml:space="preserve">
<style type="text/css">
	.st0{fill:#404040;}
</style>
<g>
	<path class="st0" d="M22,12.7c0-0.3-0.2-0.6-0.3-0.8L2.3,11.8c-0.3,0.5-0.4,1-0.3,1.5c0.1,0.9,0.8,1.6,2,2.2l0.7,0.7v5.7L19.2,22
		v-5.7l0.9-0.8c0.5-0.2,1-0.5,1.3-0.9C21.9,14.1,22.1,13.4,22,12.7z M14.9,19.7L12,18.9l-2.9,0.8v-4.2c1,0.1,2,0.1,3.2,0.1
		c0.8,0,1.7,0,2.7-0.1V19.7z"/>
	<path class="st0" d="M10.4,6.8C11,6.8,11.5,7,12,7.4h0c0.4,0.4,1,0.7,1.6,0.7c0.6,0,1.2-0.3,1.6-0.7h0V2.7c-0.4,0.4-1,0.7-1.6,0.7
		c-0.6,0-1.2-0.3-1.6-0.7h0C11.5,2.3,11,2,10.4,2C9.9,2,9.5,2.2,9.1,2.5l0,4.7C9.5,6.9,9.9,6.8,10.4,6.8z"/>
	<rect x="2.9" y="8.6" class="st0" width="18.1" height="1.9"/>
</g>
</svg>
