<?xml version="1.0" encoding="utf-8"?>
<!-- Generator: Adobe Illustrator 21.1.0, SVG Export Plug-In . SVG Version: 6.00 Build 0)  -->
<svg version="1.1" id="Layer_2" xmlns="http://www.w3.org/2000/svg" xmlns:xlink="http://www.w3.org/1999/xlink" x="0px" y="0px"
	 viewBox="0 0 24 24" style="enable-background:new 0 0 24 24;" xml:space="preserve">
<style type="text/css">
	.st0{fill:#404040;}
</style>
<path class="st0" d="M21.8,20.6L3.2,2.3L2.2,3.4l4.6,4.5C4.7,8.1,3,9.8,3,12C3,14.2,4.8,16,7.1,16h8l5.7,5.6L21.8,20.6z M8.8,9.9
	L13,14H7.1C5.9,14,5,13.1,5,12c0-1.2,0.9-2.1,2.1-2.1H8.8z M18.9,15.5L17.3,14c0.9-0.2,1.7-1,1.7-2c0-1.2-0.9-2.1-2.1-2.1h-3.8l-2-2
	h5.8c2.3,0,4.1,1.8,4.1,4.1C21,13.5,20.1,14.8,18.9,15.5z"/>
</svg>
