<svg width="24" height="24" viewBox="0 0 24 24" fill="none" xmlns="http://www.w3.org/2000/svg">
<path fill-rule="evenodd" clip-rule="evenodd" d="M1.58579 7.58579C1.96086 7.21071 2.46957 7 3 7H5C5.53043 7 6.03914 7.21071 6.41421 7.58579C6.78929 7.96086 7 8.46957 7 9V17H5V13H3V17H1V9C1 8.46957 1.21071 7.96086 1.58579 7.58579ZM5 9H3V11H5V9Z" fill="#727E84"/>
<path d="M17.5858 7.58579C17.9609 7.21071 18.4696 7 19 7H21C21.5304 7 22.0391 7.21071 22.4142 7.58579C22.7893 7.96086 23 8.46957 23 9V10H21V9H19V15H21V14H23V15C23 15.5304 22.7893 16.0391 22.4142 16.4142C22.0391 16.7893 21.5304 17 21 17H19C18.4696 17 17.9609 16.7893 17.5858 16.4142C17.2107 16.0391 17 15.5304 17 15V9C17 8.46957 17.2107 7.96086 17.5858 7.58579Z" fill="#727E84"/>
<path fill-rule="evenodd" clip-rule="evenodd" d="M9 17V7H13C13.5304 7 14.0391 7.21071 14.4142 7.58579C14.7893 7.96086 15 8.46957 15 9V11C15 11.84 14.5 12.55 13.76 12.85L15 17H13L11.8 13H11V17H9ZM13 9H11V11H13V9Z" fill="#727E84"/>
</svg>
