<svg width="24" height="24" viewBox="0 0 24 24" fill="none" xmlns="http://www.w3.org/2000/svg">
<path d="M10.2 6.99998L12.2 8.99998H13V9.79998L14.64 11.44C14.8669 11.1788 14.9944 10.8459 15 10.5V8.99998C15 8.46955 14.7893 7.96084 14.4142 7.58577C14.0391 7.21069 13.5304 6.99998 13 6.99998H10.2Z" fill="#727E84"/>
<path d="M23 8.99998V9.99998H21V8.99998H19V15H21V14H23V15C23 15.5304 22.7893 16.0391 22.4142 16.4142C22.0391 16.7893 21.5304 17 21 17H20.2L17 13.8V8.99998C17 8.46955 17.2107 7.96084 17.5858 7.58577C17.9609 7.21069 18.4696 6.99998 19 6.99998H21C21.5304 6.99998 22.0391 7.21069 22.4142 7.58577C22.7893 7.96084 23 8.46955 23 8.99998Z" fill="#727E84"/>
<path fill-rule="evenodd" clip-rule="evenodd" d="M22.11 21.46L15 14.35V14.34L2.39 1.72998L1.12 2.99998L5.12 6.99998H3C2.46957 6.99998 1.96086 7.21069 1.58579 7.58577C1.21071 7.96084 1 8.46955 1 8.99998V17H3V13H5V17H7V8.88998L9 10.89V17H11V13H11.0206L12.1155 14.0517L13 17H15L14.8533 16.7433L20.84 22.73L22.11 21.46ZM3 8.99998H5V11H3V8.99998Z" fill="#727E84"/>
</svg>
