<svg width="24" height="24" viewBox="0 0 24 24" xmlns="http://www.w3.org/2000/svg">
<path d="M13.7915 16.0714L18.7077 20.9876L20.1101 19.5853L4.40234 3.87753L3 5.27988L8.53679 10.8167C8.02176 11.7227 7.56708 12.5236 7.17305 13.22C7.15305 13.26 7.29305 13 7.10305 13.34C6.91305 13.68 6.90305 14 7.48305 14H10.9831L9.98305 21H10.9831C10.9831 21 11.917 19.356 13.7915 16.0714Z"/>
<path d="M16.8831 10.66L15.8523 12.4631L13.3892 10H16.4831C16.9731 10 17.043 10.33 16.9531 10.51L16.8831 10.66Z"/>
<path d="M13.9831 3L13.0338 9.64463L10.5925 7.20333C11.3164 5.93125 12.1134 4.53039 12.9831 3H13.9831Z"/>
</svg>
