<?xml version="1.0" encoding="utf-8"?>

<svg version="1.1" id="Layer_1" xmlns="http://www.w3.org/2000/svg" xmlns:xlink="http://www.w3.org/1999/xlink" x="0px" y="0px"
	 width="24px" height="24px" viewBox="0 0 24 24" enable-background="new 0 0 24 24" xml:space="preserve">
<path d="M12,11.5c1.4,0,2.5-1.1,2.5-2.5S13.4,6.5,12,6.5S9.5,7.6,9.5,9S10.6,11.5,12,11.5 M12,2c3.9,0,7,3.1,7,7c0,5.2-7,13-7,13
	S5,14.2,5,9C5,5.1,8.1,2,12,2 M3,9c0,4.5,5.1,10.7,6,11.8L8,22c0,0-7-7.8-7-13c0-3.2,2.1-5.8,5-6.7C4.2,3.9,3,6.3,3,9z M18,2.3
	c2.9,0.9,5,3.5,5,6.7c0,5.2-7,13-7,13l-1-1.2c0.9-1.1,6-7.3,6-11.8C21,6.3,19.8,3.9,18,2.3z"/>
</svg>
