<svg width="24" height="24" viewBox="0 0 24 24"  xmlns="http://www.w3.org/2000/svg">
<path d="M22 6.00003H20V20H18L18 6.00003H16L19 3.00003L22 6.00003Z" />
<path d="M4 11.0125H8.60739V9.61172H5.69631V7.54879H8.40492V6.15892H5.69631V4.40242H8.60739V3.01254H4V11.0125Z" />
<path d="M6 20H4V19H6V20Z" />
<path d="M8 20H11V19H8V20Z" />
<path d="M12.8181 11.8886L10.6968 14.0099L9.98971 13.3028L12.111 11.1815L12.8181 11.8886Z" />
<path d="M13 20H16V19H13V20Z" />
<path d="M6.27832 17.0141H7.69253L9.28252 15.4241L8.57542 14.717L6.27832 17.0141Z" />
<path d="M13.5249 9.76724L15.2882 8.00391H16.7024L14.232 10.4743L13.5249 9.76724Z" />
</svg>
