<svg width="24" height="24" viewBox="0 0 24 24"  xmlns="http://www.w3.org/2000/svg">
<path d="M18.6526 4.64075L21.0001 2.29327V3.70749L19.3597 5.34785L18.6526 4.64075Z" />
<path fill-rule="evenodd" clip-rule="evenodd" d="M9.52668 5.49521C9.52668 6.35613 9.25673 7.01459 8.71683 7.47059C8.18058 7.92658 7.41633 8.15458 6.42408 8.15458H5.69631V11H4V3H6.5554C7.52576 3 8.26265 3.20976 8.76607 3.62927C9.27314 4.04514 9.52668 4.66712 9.52668 5.49521ZM5.69631 6.76471H6.25445C6.77611 6.76471 7.16644 6.66256 7.42545 6.45828C7.68445 6.25034 7.81395 5.94938 7.81395 5.5554C7.81395 5.15777 7.70451 4.86411 7.48564 4.67442C7.27041 4.48472 6.93115 4.38988 6.46785 4.38988H5.69631V6.76471Z" />
<path d="M19 16L22 19L19 22V20H4V18H19V16Z" />
<path d="M21 12.011V15.011H20V12.011H21Z" />
<path d="M21 9.99847V6.99847H20V9.99847H21Z" />
<path d="M14.4099 10.2977L12.2886 12.419L11.5815 11.7119L13.7028 9.59056L14.4099 10.2977Z" />
<path d="M15.8243 8.8834L17.9456 6.76208L17.2385 6.05497L15.1171 8.17629L15.8243 8.8834Z" />
<path d="M7.28565 16.0078H8.69986L10.8745 13.8331L10.1674 13.126L7.28565 16.0078Z" />
</svg>
