<svg xmlns="http://www.w3.org/2000/svg" width="24" height="24" viewBox="0 0 24 24">
	<path d="M5,4v7.26C3.2,11.9,2,13.6,2,15.5C2,18,4,20,6.5,20c2.29,0,4.21-1.72,4.47-4h4.2C15.06,16.32,15,16.66,15,17
		c0,1.66,1.34,3,3,3s3-1.34,3-3c0-0.34-0.06-0.68-0.18-1H22v-3c0-1.11-0.89-2-2-2h-4.96l-1.39-7H5 M7,6h5l1,5v3h-2.26
		c-0.58-1.62-2.03-2.77-3.74-2.97V6 M6.5,13.25c1.24,0,2.25,1.01,2.25,2.25s-1.01,2.25-2.25,2.25s-2.25-1.01-2.25-2.25
		S5.26,13.25,6.5,13.25 M18,15.5c0.83,0,1.5,0.67,1.5,1.5s-0.67,1.5-1.5,1.5s-1.5-0.67-1.5-1.5S17.17,15.5,18,15.5z"/>
	<rect fill="none" width="24" height="24"/>
</svg>
