<?xml version="1.0" encoding="utf-8"?>
<!-- Generator: Adobe Illustrator 23.0.3, SVG Export Plug-In . SVG Version: 6.00 Build 0)  -->
<svg version="1.1" id="Layer_1" xmlns="http://www.w3.org/2000/svg" xmlns:xlink="http://www.w3.org/1999/xlink" x="0px" y="0px"
	 viewBox="0 0 24 24" style="enable-background:new 0 0 24 24;" xml:space="preserve">
<style type="text/css">
	.st0{fill:none;}
</style>
<path d="M12,2C9.5,2,7.2,2.9,5.5,4.4C6,4.8,6.4,5.3,6.8,5.8l1.1-0.6l1,1.7l-1,0.6C8.4,8.5,8.8,9.7,8.9,11H10v1v1H8.9
	c-0.1,1.3-0.5,2.5-1.1,3.6l1,0.6l-1,1.7l-1.1-0.6c-0.4,0.5-0.8,1-1.3,1.4c1.8,1.5,4,2.4,6.5,2.4s4.8-0.9,6.5-2.4
	c-0.5-0.4-0.9-0.9-1.3-1.4l-1.1,0.6l-1-1.7l1-0.6c-0.6-1.1-0.9-2.3-1.1-3.5H14v-2h1.1c0.1-1.3,0.5-2.5,1.1-3.6l-1-0.6l1-1.7l1.1,0.6
	c0.4-0.5,0.8-1,1.3-1.4C16.8,2.9,14.5,2,12,2 M4.1,5.8C2.8,7.6,2,9.7,2,12s0.8,4.5,2.1,6.1c0.3-0.3,0.6-0.6,0.9-0.9l-0.6-0.3l1-1.7
	l0.7,0.4c0.4-0.8,0.7-1.7,0.8-2.6H6v-1v-1h0.9c-0.1-0.9-0.4-1.8-0.8-2.6L5.4,8.9l-1-1.7l0.6-0.3C4.8,6.4,4.5,6.1,4.1,5.8 M19.9,5.8
	c-0.3,0.3-0.6,0.6-0.9,0.9l0.6,0.3l-1,1.7l-0.7-0.4c-0.4,0.8-0.7,1.7-0.8,2.6H18v2h-0.9c0.1,0.9,0.4,1.8,0.8,2.6l0.7-0.4l1,1.7
	L19,17.2c0.3,0.3,0.6,0.7,0.9,0.9c1.3-1.7,2.1-3.8,2.1-6.1S21.2,7.6,19.9,5.8z"/>
<rect y="0" class="st0" width="24" height="24"/>
</svg>
