<svg xmlns="http://www.w3.org/2000/svg" width="24" height="24" viewBox="0 0 24 24">
  <title>baseball</title>
  <path d="M12,2A9.81,9.81,0,0,0,5.5,4.4,8.64,8.64,0,0,1,6.8,5.8l1.1-.6,1,1.7-1,.6a9.53,9.53,0,0,1,1,3.5H10v2H8.9a8.9,8.9,0,0,1-1.1,3.6l1,.6-1,1.7-1.1-.6a8.64,8.64,0,0,1-1.3,1.4,10,10,0,0,0,6.5,2.4,9.81,9.81,0,0,0,6.5-2.4,8.64,8.64,0,0,1-1.3-1.4l-1.1.6-1-1.7,1-.6a11,11,0,0,1-1.1-3.5H14v-2h1.1a8.9,8.9,0,0,1,1.1-3.6l-1-.6,1-1.7,1.1.6a8.64,8.64,0,0,1,1.3-1.4A10.28,10.28,0,0,0,12,2M4.1,5.8A10.52,10.52,0,0,0,2,12a9.79,9.79,0,0,0,2.1,6.1l.9-.9-.6-.3,1-1.7.7.4A7.86,7.86,0,0,0,6.9,13H6V11h.9a7.86,7.86,0,0,0-.8-2.6l-.7.5-1-1.7L5,6.9a2.44,2.44,0,0,0-.9-1.1m15.8,0-.9.9.6.3-1,1.7-.7-.4a7.86,7.86,0,0,0-.8,2.6H18v2h-.9a7.86,7.86,0,0,0,.8,2.6l.7-.4,1,1.7-.6.4a7.64,7.64,0,0,0,.9.9A10,10,0,0,0,22,12,10.52,10.52,0,0,0,19.9,5.8Z"/>
  
</svg>
