<?xml version="1.0" encoding="utf-8"?>
<!-- Generator: Adobe Illustrator 23.0.3, SVG Export Plug-In . SVG Version: 6.00 Build 0)  -->
<svg version="1.1" id="Layer_1" xmlns="http://www.w3.org/2000/svg" xmlns:xlink="http://www.w3.org/1999/xlink" x="0px" y="0px"
	 viewBox="0 0 24 24" style="enable-background:new 0 0 24 24;" xml:space="preserve">
<style type="text/css">
	.st0{fill:none;}
</style>
<path d="M13.5,12c-0.8,0-1.5,0.7-1.5,1.5s0.7,1.5,1.5,1.5s1.5-0.7,1.5-1.5S14.3,12,13.5,12 M13.5,3c4.7,0,8.5,3.6,8.5,8
	c0,1.6,0,3-0.9,5c-4.1,0-5.1,4-8.6,4c-2.2,0-3.2-1.7-3.4-4H9H8.2L7,20.3c-0.2,0.5-0.6,0.8-1.1,0.7H3c-0.6,0-1-0.4-1-1s0.4-1,1-1v-3
	c-0.6,0-1-0.4-1-1s0.4-1,1-1h3.8l0.5-1.6C6.7,12.1,6.1,12,5.5,12H5.1L5,11C5,6.6,8.8,3,13.5,3 M5,16v3h0.3l0.9-3H5z"/>
<rect y="0" class="st0" width="24" height="24"/>
</svg>
