<?xml version="1.0" encoding="utf-8"?>
<!-- Generator: Adobe Illustrator 23.0.3, SVG Export Plug-In . SVG Version: 6.00 Build 0)  -->
<svg version="1.1" id="Layer_1" xmlns="http://www.w3.org/2000/svg" xmlns:xlink="http://www.w3.org/1999/xlink" x="0px" y="0px"
	 viewBox="0 0 24 24" style="enable-background:new 0 0 24 24;" xml:space="preserve">
<style type="text/css">
	.st0{fill:none;}
</style>
<path d="M12,5C6.5,5,2,6.6,2,8.5S6.5,12,12,12s10-1.6,10-3.5S17.5,5,12,5 M2,11.8v4.7C2,18.4,6.5,20,12,20s10-1.6,10-3.5v-4.7
	c-0.7,0.5-1.4,0.8-2.3,1.1C17.6,13.6,14.9,14,12,14s-5.6-0.4-7.7-1.1C3.4,12.6,2.7,12.2,2,11.8z"/>
<rect y="0" class="st0" width="24" height="24"/>
</svg>
