<?xml version="1.0" encoding="utf-8"?>
<!-- Generator: Adobe Illustrator 23.0.3, SVG Export Plug-In . SVG Version: 6.00 Build 0)  -->
<svg version="1.1" id="Layer_1" xmlns="http://www.w3.org/2000/svg" xmlns:xlink="http://www.w3.org/1999/xlink" x="0px" y="0px"
	 viewBox="0 0 24 24" style="enable-background:new 0 0 24 24;" xml:space="preserve">
<style type="text/css">
	.st0{fill:none;}
</style>
<path d="M12,2c2.5,0,4.8,0.9,6.5,2.4C16.4,6.2,15,9,15,12s1.4,5.8,3.5,7.6c-1.8,1.5-4,2.4-6.5,2.4s-4.8-0.9-6.5-2.4
	C7.6,17.8,9,15,9,12S7.6,6.2,5.5,4.4C7.2,2.9,9.5,2,12,2 M22,12c0,2.3-0.8,4.5-2.1,6.1C18.1,16.7,17,14.5,17,12s1.1-4.7,2.9-6.2
	C21.2,7.6,22,9.7,22,12 M2,12c0-2.3,0.8-4.4,2.1-6.2C5.9,7.3,7,9.5,7,12s-1.1,4.7-2.9,6.1C2.8,16.5,2,14.3,2,12z"/>
<rect y="0" class="st0" width="24" height="24"/>
</svg>
