<?xml version="1.0" encoding="utf-8"?>
<!-- Generator: Adobe Illustrator 23.0.1, SVG Export Plug-In . SVG Version: 6.00 Build 0)  -->
<svg version="1.1" id="Layer_1" xmlns="http://www.w3.org/2000/svg" xmlns:xlink="http://www.w3.org/1999/xlink" x="0px" y="0px"
	 width="24px" height="24px" viewBox="0 0 24 24" enable-background="new 0 0 24 24" xml:space="preserve">
<path d="M16,6l3,4h2c1.11,0,2,0.89,2,2v3h-2c0,1.66-1.34,3-3,3s-3-1.34-3-3H9c0,1.66-1.34,3-3,3s-3-1.34-3-3H1v-3c0-1.11,0.89-2,2-2
	l3-4H16 M10.5,7.5H6.75L4.86,10h5.64V7.5 M12,7.5V10h5.14l-1.89-2.5H12 M6,13.5c-0.83,0-1.5,0.67-1.5,1.5s0.67,1.5,1.5,1.5
	s1.5-0.67,1.5-1.5S6.83,13.5,6,13.5 M18,13.5c-0.83,0-1.5,0.67-1.5,1.5s0.67,1.5,1.5,1.5s1.5-0.67,1.5-1.5S18.83,13.5,18,13.5z"/>
<rect fill="none" width="24" height="24"/>
</svg>
