<svg width="24" height="24" viewBox="0 0 24 24" xmlns="http://www.w3.org/2000/svg">
<path fill-rule="evenodd" clip-rule="evenodd" d="M17.9455 4.273C18 4.37996 18 4.51997 18 4.8V6H20C21.11 6 21.99 6.89 21.99 8L22 18C22 19.11 21.11 20 20 20H4C2.89 20 2 19.11 2 18V8C2 6.89 2.89 6 4 6H6V4.8C6 4.51997 6 4.37996 6.0545 4.273C6.10243 4.17892 6.17892 4.10243 6.273 4.0545C6.37996 4 6.51997 4 6.8 4H9.2C9.48003 4 9.62004 4 9.727 4.0545C9.82108 4.10243 9.89757 4.17892 9.9455 4.273C10 4.37996 10 4.51997 10 4.8V6H14V4.8C14 4.51997 14 4.37996 14.0545 4.273C14.1024 4.17892 14.1789 4.10243 14.273 4.0545C14.38 4 14.52 4 14.8 4H17.2C17.48 4 17.62 4 17.727 4.0545C17.8211 4.10243 17.8976 4.17892 17.9455 4.273Z"/>
</svg>
