<svg xmlns="http://www.w3.org/2000/svg" width="24" height="24" viewBox="0 0 24 24">
  <title>divergent_convergent</title>
  <polygon points="11 3 6.76 3 8.17 4.41 2.52 10.07 3.93 11.48 9.59 5.83 11 7.24 11 3" fill="#231f20"/>
  <polygon points="11 21 11 16.76 9.59 18.17 3.93 12.52 2.52 13.93 8.17 19.59 6.76 21 11 21" fill="#231f20"/>
  <polygon points="21 11 21 6.76 19.59 8.17 13.93 2.52 12.52 3.93 18.17 9.59 16.76 11 21 11" fill="#231f20"/>
  <polygon points="21 13 16.76 13 18.17 14.41 12.52 20.07 13.93 21.48 19.59 15.83 21 17.24 21 13" fill="#231f20"/>
</svg>
