<svg xmlns="http://www.w3.org/2000/svg" width="24" height="24" viewBox="0 0 24 24">
  <title>hearing_protection</title>
  <path d="M4,23H4a1.17,1.17,0,0,1-1.16-1l-.65-3.85a1,1,0,0,1,1-1.16H4.82a1,1,0,0,1,1,1.16L5.16,22A1.17,1.17,0,0,1,4,23Z"/>
  <path d="M12,2.25C7.09,2.25,3.25,4.34,3.25,7S7.09,11.75,12,11.75,20.75,9.66,20.75,7,16.91,2.25,12,2.25Zm0,8C7.73,10.25,4.75,8.54,4.75,7s3-3.25,7.25-3.25S19.25,5.46,19.25,7,16.27,10.25,12,10.25Z"/>
  <path d="M4.75,19H3.25A5.76,5.76,0,0,1,9,13.25h3v1.5H9A4.26,4.26,0,0,0,4.75,19Z"/>
  <path d="M12,6C7.58,6,4,7.79,4,10s3.58,4,8,4" fill="none" stroke="#000" stroke-miterlimit="10" stroke-width="1.5"/>
  <path d="M20.18,23h0a1.17,1.17,0,0,0,1.16-1L22,18.16A1,1,0,0,0,21,17H19.36a1,1,0,0,0-1,1.16L19,22A1.17,1.17,0,0,0,20.18,23Z"/>
  <path d="M20.93,19h-1.5a4.26,4.26,0,0,0-4.25-4.25h-3v-1.5h3A5.76,5.76,0,0,1,20.93,19Z"/>
  <g>
    <path d="M6.27,7a2.29,2.29,0,0,0,.81.66A12.66,12.66,0,0,1,12,6.75a12.66,12.66,0,0,1,4.92.91A2.29,2.29,0,0,0,17.73,7c-.29-.54-2.3-1.75-5.73-1.75S6.56,6.46,6.27,7Z"/>
    <path d="M5.65,8.5a2.39,2.39,0,0,1-.87-1.22A4.59,4.59,0,0,0,3.69,8.5,4.59,4.59,0,0,0,4.78,9.72,2.39,2.39,0,0,1,5.65,8.5Z"/>
    <path d="M12.85,13.23l-.85,0-.85,0c-3.4-.16-6.23-1.24-7.87-2.86.34,2.48,4,4.38,8.72,4.38s8.38-1.9,8.72-4.38C19.08,12,16.25,13.07,12.85,13.23Z"/>
    <path d="M20.31,8.5a4.59,4.59,0,0,0-1.09-1.22,2.39,2.39,0,0,1-.87,1.22,2.39,2.39,0,0,1,.87,1.22A4.59,4.59,0,0,0,20.31,8.5Z"/>
  </g>
</svg>
