<svg xmlns="http://www.w3.org/2000/svg" width="24" height="24" viewBox="0 0 24 24">
  <title>safety_glasses_alt_3</title>
  
  <path d="M24,8.89,15.06,5.64a1.9,1.9,0,0,0-2.45,1.14,1.09,1.09,0,0,0,.65,1.39A3.8,3.8,0,0,0,15,8.38l.4-.05a4,4,0,0,1,1.77.21l3.21,1.17-5.73.52a29,29,0,0,1-5.43,0L3.57,9.72,6.8,8.54a4,4,0,0,1,1.77-.21l.4.05a3.8,3.8,0,0,0,1.77-.21,1.09,1.09,0,0,0,.65-1.39A1.9,1.9,0,0,0,8.94,5.64L0,8.89v1.4a1.29,1.29,0,0,0,0,.19v2H.62a5.76,5.76,0,0,0,5.08,6,5.12,5.12,0,0,0,.56,0H8.72a3,3,0,0,0,2.12-.88l.42-.41a1,1,0,0,1,.7-.3,1,1,0,0,1,.71.3l.41.41a3,3,0,0,0,2.13.88h2.45a5.44,5.44,0,0,0,.57,0,5.77,5.77,0,0,0,5.08-6H24V11l0,0Zm-3,6.38A4,4,0,0,1,18.09,17l-.43,0H15.21a1.54,1.54,0,0,1-1.07-.44l-.41-.42a2.5,2.5,0,0,0-3.53,0l-.42.42A1.5,1.5,0,0,1,8.72,17H6.26l-.42,0A4,4,0,0,1,3,15.27a4.51,4.51,0,0,1-.82-2.16,1,1,0,0,1,1-1.13H9.61l.79.4a3.5,3.5,0,0,0,1.56.36,3.57,3.57,0,0,0,1.57-.36l.79-.4h6.47a1,1,0,0,1,1,1.13A4.42,4.42,0,0,1,21,15.27Z"/>
</svg>
