<svg xmlns="http://www.w3.org/2000/svg" width="24" height="24" viewBox="0 0 24 24">

<path d="M14,19V17.71a7.89,7.89,0,0,0,3.65-2.06A8.05,8.05,0,0,0,19.93,11h0A8.24,8.24,0,0,0,20,10h0a8.26,8.26,0,0,0-.07-1h0a8,8,0,0,0-1.28-3.44,4.94,4.94,0,0,0-.35-.45h0a7.55,7.55,0,0,0-.64-.74l-.06,0A7.73,7.73,0,0,0,12.05,2H12a8,8,0,0,0-1.54.13,8,8,0,0,0-4.1,2.19,9.32,9.32,0,0,0-.65.76h0A8.11,8.11,0,0,0,4.15,8.44c0,.18,0,.37-.07.56h0A8.06,8.06,0,0,0,4,10v.07a7.89,7.89,0,0,0,3.54,6.6A7.85,7.85,0,0,0,10,17.73V19H2v3H22V19Zm-3.17-3.12a6,6,0,0,1-4.71-4.71,1,1,0,0,1,0-.17H7V9H6.1a6,6,0,0,1,.36-1.3,5.79,5.79,0,0,1,.66-1.16l.64.63L9.17,5.76l-.64-.64L8.67,5A6,6,0,0,1,11,4.09V5h2V4.09a6.19,6.19,0,0,1,2.47,1l-.64.64,1.41,1.41.64-.64a6.19,6.19,0,0,1,1,2.47H17v2h.91a6,6,0,0,1-3.61,4.54A5.9,5.9,0,0,1,10.83,15.88Z" />
<path d="M10.5,13A1.39,1.39,0,0,0,11,14.05a1.45,1.45,0,0,0,2.1,0A1.39,1.39,0,0,0,13.5,13C13.33,11.1,12,5.5,12,5.5S10.67,11.1,10.5,13Z" />

</svg>
