<svg xmlns="http://www.w3.org/2000/svg" width="24" height="24" viewBox="0 0 24 24">
<path d="M13,19V17.93A8,8,0,0,0,20,10a8,8,0,1,0-9,7.93V19H2v3H22V19ZM7.76,14.24a6,6,0,0,1-1.64-3.07A5.9,5.9,0,0,1,6.46,7.7a6,6,0,1,1,7.84,7.84,5.9,5.9,0,0,1-3.47.34A6,6,0,0,1,7.76,14.24Z" />
<path d="M13.05,14.05A1.39,1.39,0,0,0,13.5,13C13.33,11.1,12,5.5,12,5.5s-1.33,5.6-1.5,7.5A1.39,1.39,0,0,0,11,14.05a1.45,1.45,0,0,0,2.1,0Z" />
<rect x="7" y="10" width="1" height="1" />
<rect x="16" y="10" width="1" height="1" />
<rect x="15" y="7" width="1" height="1" />
<rect x="8" y="7" width="1" height="1" />
<rect x="10" y="5" width="1" height="1" />
<rect x="13" y="5" width="1" height="1" />
<rect x="10" y="17" width="4" height="3" />
</svg>
