<svg width="24" height="24" viewBox="0 0 24 24" xmlns="http://www.w3.org/2000/svg">
<path d="M19.7101 19.75C19.2837 16.1817 19.0467 12.5934 19.0001 9C19.0001 7.14348 18.2626 5.36301 16.9499 4.05025C15.6371 2.7375 13.8566 2 12.0001 2C10.1436 2 8.36312 2.7375 7.05036 4.05025C5.73761 5.36301 5.00011 7.14348 5.00011 9C4.95348 12.5934 4.71648 16.1817 4.29011 19.75C4.25446 20.0328 4.2797 20.32 4.36412 20.5923C4.44854 20.8646 4.5902 21.1157 4.7796 21.3288C4.96899 21.5419 5.20175 21.712 5.46227 21.8277C5.72278 21.9435 6.00504 22.0022 6.29011 22H17.7201C18.0043 22.0008 18.2855 21.941 18.5448 21.8246C18.8041 21.7082 19.0356 21.5379 19.2239 21.325C19.4122 21.1121 19.553 20.8615 19.6368 20.5899C19.7207 20.3183 19.7456 20.032 19.7101 19.75ZM12.0001 14C9.24011 14 7.00011 12.66 7.00011 11C7.00011 9.34 9.24011 8 12.0001 8C14.7601 8 17.0001 9.34 17.0001 11C17.0001 12.66 14.7601 14 12.0001 14Z"/>
</svg>
