<svg width="24" height="24" viewBox="0 0 24 24" xmlns="http://www.w3.org/2000/svg">
<path d="M6.21 21C4.57 19.83 2.68 18.66 1 17.49L0 16.78L5.46 14.93L2.73 7.73L9.12 10.41L11 3L14.78 10.44L22.41 6.69L18.72 15L24 16.71L18.92 21L17.92 19.84L20.8 17.38L16.57 15.94C17.42 14.07 19.26 10.12 19.26 10.12L14.12 12.59L11.54 7.59L10.23 12.59L5.53 10.67L7.53 15.96L3.53 17.27L6.92 19.66C6.66 20.13 6.49 20.58 6.25 21.03L6.21 21Z"/>
<path d="M8.16 21H16.36L14.36 19.33C15.26 18.85 16.18 18.24 17.04 17.79H14.26L15.76 13.96L12.64 16.2C12.35 14.71 12.1 13.35 11.84 11.99C11.63 13.35 11.21 15.86 11.21 15.86L8.64 13.93C8.64 13.93 9.77 16.56 10.28 17.85H7.28L10.2 19.37L8.16 21Z"/>
</svg>
