<svg width="24" height="24" viewBox="0 0 24 24" xmlns="http://www.w3.org/2000/svg">
<path d="M12.9972 2C12.9972 1.44772 12.5495 1 11.9972 1C11.4449 1 10.9972 1.44772 10.9972 2V11H9.99723V4C9.99723 3.44772 9.54951 3 8.99723 3C8.44494 3 7.99723 3.44772 7.99723 4V13.5H7.49729C7.16395 12.5 6.39729 10.4 5.99729 10C5.49729 9.5 4.99729 9.5 4.49729 9.5C3.99729 9.5 3.49708 10 3.99714 11C4.29148 11.8095 4.63783 12.9178 4.96731 13.9722C5.38407 15.3059 5.77385 16.5532 5.99724 17C6.39724 17.8 7.49723 19 7.99723 19.5V22C7.99723 22.5523 8.44494 23 8.99723 23H14.9972C16.1018 23 16.9972 22.1046 16.9972 21V20H12V19H16.9972C17.9972 18.5 18.9972 17 18.9972 13V6C18.9972 5.44772 18.5495 5 17.9972 5C17.4449 5 16.9972 5.44772 16.9972 6V11H15.9972V3C15.9972 2.44772 15.5495 2 14.9972 2C14.4449 2 13.9972 2.44772 13.9972 3V11H12.9972V2Z"/>
</svg>
