<svg xmlns="http://www.w3.org/2000/svg" width="24" height="24" viewBox="0 0 24 24">
  <title>hearing_protection_alt</title>
  <g>
    <path d="M21,17h-.44a5.74,5.74,0,0,0-3.09-3.27c1.84-.79,3.06-2,3.25-3.36-1.64,1.62-4.47,2.7-7.87,2.86l-.85,0-.85,0-.76-.07C7,12.8,4.75,11.33,4.75,10a1.33,1.33,0,0,1,0-.28,12,12,0,0,0,7.22,2c3.46,0,6.39-1,7.82-2.59l.05-.06A3.15,3.15,0,0,0,20.75,7c0-2.66-3.84-4.75-8.75-4.75S3.25,4.34,3.25,7a2.91,2.91,0,0,0,.44,1.5A2.91,2.91,0,0,0,3.25,10c0,.13,0,.25,0,.37h0a3.13,3.13,0,0,0,.1.44v0a3.61,3.61,0,0,0,.16.42l0,0c.07.13.14.26.22.38a.21.21,0,0,1,0,.06,4.11,4.11,0,0,0,.27.35l.06.06.31.32.09.07.35.29.12.08a3.41,3.41,0,0,0,.37.25l.16.1.39.21a1.24,1.24,0,0,0,.2.1l.4.19.24.1L7.2,14l.3.1.4.12.35.09.4.1.38.07.12,0,.28.05.46.06.37.05.19,0h.36l.3,0,.89,0h3.18A4.26,4.26,0,0,1,19,17.09a1,1,0,0,0-.59,1.07L19,22a1.17,1.17,0,0,0,2.32,0L22,18.16A1,1,0,0,0,21,17ZM12,3.75c4.27,0,7.25,1.71,7.25,3.25a1.33,1.33,0,0,1,0,.28h0a2.39,2.39,0,0,1-.87,1.22h0A10.51,10.51,0,0,1,12,10.25,10.51,10.51,0,0,1,5.65,8.5h0a6.2,6.2,0,0,1,1.43-.84c.31-.13.65-.25,1-.36l.05,0Q8.66,7.13,9.24,7l.09,0c.39-.07.79-.13,1.22-.17h.1q.64-.06,1.35-.06a12.66,12.66,0,0,1,4.92.91A2.29,2.29,0,0,0,17.73,7c-.29-.54-2.3-1.75-5.73-1.75a12,12,0,0,0-7.22,2,1.33,1.33,0,0,1,0-.28C4.75,5.46,7.73,3.75,12,3.75Z"/>
    <path d="M3.62,17H3.18a1,1,0,0,0-1,1.16L2.84,22a1.17,1.17,0,0,0,2.32,0l.65-3.85a1,1,0,0,0-.59-1.07,4.25,4.25,0,0,1,1.52-1.68,10.18,10.18,0,0,1-1.57-.68A5.69,5.69,0,0,0,3.62,17Z"/>
  </g>
</svg>
