<svg width="24" height="24" viewBox="0 0 24 24" fill="none" xmlns="http://www.w3.org/2000/svg">
<path fill-rule="evenodd" clip-rule="evenodd" d="M12.9972 1C12.9972 0.447715 12.5495 0 11.9972 0C11.4449 0 10.9972 0.447715 10.9972 1V10H9.99723V3C9.99723 2.44772 9.54951 2 8.99723 2C8.44494 2 7.99723 2.44772 7.99723 3V12.5H7.49729C7.16395 11.5 6.39729 9.4 5.99729 9C5.49729 8.5 4.99729 8.5 4.49729 8.5C3.99729 8.5 3.49708 9 3.99714 10C4.29148 10.8095 4.63783 11.9178 4.96731 12.9722C5.38407 14.3059 5.77385 15.5532 5.99724 16C6.39724 16.8 7.49723 18 7.99723 18.5L7.5 24H17.5L16.9972 18C17.9972 17.5 18.9972 16 18.9972 12V5C18.9972 4.44772 18.5495 4 17.9972 4C17.4449 4 16.9972 4.44772 16.9972 5V10H15.9972V2C15.9972 1.44772 15.5495 1 14.9972 1C14.4449 1 13.9972 1.44772 13.9972 2V10H12.9972V1ZM10 20C9.44772 20 9 20.4477 9 21C9 21.5523 9.44772 22 10 22H15C15.5523 22 16 21.5523 16 21C16 20.4477 15.5523 20 15 20H10Z"/>
</svg>
