<?xml version="1.0" encoding="utf-8"?>
<!-- Generator: Adobe Illustrator 24.2.1, SVG Export Plug-In . SVG Version: 6.00 Build 0)  -->
<svg version="1.1" id="Layer_1" xmlns="http://www.w3.org/2000/svg" xmlns:xlink="http://www.w3.org/1999/xlink" x="0px" y="0px"
	 viewBox="0 0 24 24" style="enable-background:new 0 0 24 24;" xml:space="preserve">
<style type="text/css">
	.st0{display:none;}
	.st1{display:inline;}
</style>
<path class="st0" d="M19.5,6c-1.3,0-2.4,1-2.5,2.3c-1.9-0.5-2.8-1.8-5-1.8c-2.2,0-3.1,1.3-5,1.8C6.9,7,5.8,6,4.5,6
	C3.1,6,2,7.1,2,8.5V9c0,6,3.6,7.8,6.5,8c1,0.6,2.2,1,3.5,1s2.5-0.4,3.5-1c2.9-0.2,6.5-2,6.5-8V8.5C22,7.1,20.9,6,19.5,6z M3.5,9V8.5
	c0-0.6,0.5-1,1-1s1,0.4,1,1v3c0,1.3,0.4,2.5,1,3.5C5,14.3,3.5,12.6,3.5,9z M20.5,9c0,3.6-1.5,5.3-3,6c0.6-1,1-2.2,1-3.5v-3
	c0-0.6,0.5-1,1-1s1,0.4,1,1V9z M10.7,10.5c-0.4,0.3-1,0.6-1.7,0.8v-1c0.5-0.2,0.8-0.4,1.2-0.6C10.7,9.3,11.2,9,12,9s1.3,0.3,1.8,0.6
	c0.3,0.2,0.7,0.4,1.2,0.6v1c-0.8-0.2-1.3-0.5-1.7-0.8C12.8,10.2,12.5,10,12,10S11.2,10.2,10.7,10.5z"/>
<g class="st0">
	<path class="st1" d="M19.5,7.5c0.6,0,1,0.4,1,1V9c0,5.4-3.2,6.4-5.1,6.5l-0.4,0l-0.3,0.2c-0.8,0.5-1.7,0.8-2.7,0.8
		s-1.9-0.3-2.7-0.8L9,15.5l-0.4,0C6.7,15.4,3.5,14.4,3.5,9V8.5c0-0.6,0.4-1,1-1c0.5,0,0.9,0.4,1,0.9l0.2,1.8l1.7-0.5
		c0.9-0.2,1.6-0.6,2.3-1C10.5,8.3,11.1,8,12,8c0.9,0,1.5,0.3,2.4,0.8c0.6,0.3,1.4,0.7,2.3,1l1.7,0.5l0.2-1.8
		C18.6,7.9,19,7.5,19.5,7.5 M19.5,6c-1.3,0-2.4,1-2.5,2.3c-1.9-0.5-2.8-1.8-5-1.8c-2.2,0-3.1,1.3-5,1.8C6.9,7,5.8,6,4.5,6
		C3.1,6,2,7.1,2,8.5V9c0,6,3.6,7.8,6.5,8c1,0.6,2.2,1,3.5,1s2.5-0.4,3.5-1c2.9-0.2,6.5-2,6.5-8V8.5C22,7.1,20.9,6,19.5,6L19.5,6z"/>
</g>
<path d="M10.7,10.5c-0.4,0.3-1,0.6-1.7,0.8v-1c0.5-0.2,0.8-0.4,1.2-0.6C10.7,9.3,11.2,9,12,9s1.3,0.3,1.8,0.6
	c0.3,0.2,0.7,0.4,1.2,0.6v1c-0.8-0.2-1.3-0.5-1.7-0.8C12.8,10.2,12.5,10,12,10S11.2,10.2,10.7,10.5z"/>
<path class="st0" d="M19.5,7.5c0.6,0,1,0.4,1,1V9c0,5.4-3.2,6.4-5.1,6.5l-0.4,0l-0.3,0.2c-0.8,0.5-1.7,0.8-2.7,0.8s-1.9-0.3-2.7-0.8
	L9,15.5l-0.4,0C6.7,15.4,3.5,14.4,3.5,9V8.5c0-0.6,0.4-1,1-1c0.5,0,0.9,0.4,1,0.9l0.2,1.8l1.7-0.5c0.9-0.2,1.6-0.6,2.3-1
	C10.5,8.3,11.1,8,12,8c0.9,0,1.5,0.3,2.4,0.8c0.6,0.3,1.4,0.7,2.3,1l1.7,0.5l0.2-1.8C18.6,7.9,19,7.5,19.5,7.5 M19.5,6
	c-1.3,0-2.4,1-2.5,2.3c-1.9-0.5-2.8-1.8-5-1.8c-2.2,0-3.1,1.3-5,1.8C6.9,7,5.8,6,4.5,6C3.1,6,2,7.1,2,8.5V9c0,6,3.6,7.8,6.5,8
	c1,0.6,2.2,1,3.5,1s2.5-0.4,3.5-1c2.9-0.2,6.5-2,6.5-8V8.5C22,7.1,20.9,6,19.5,6L19.5,6z"/>
<path d="M19.5,6c-1.3,0-2.4,1-2.5,2.3c-1.9-0.5-2.8-1.8-5-1.8c-2.2,0-3.1,1.3-5,1.8C6.9,7,5.8,6,4.5,6C3.1,6,2,7.1,2,8.5V9
	c0,6,3.6,7.8,6.5,8c1,0.6,2.2,1,3.5,1s2.5-0.4,3.5-1c2.9-0.2,6.5-2,6.5-8V8.5C22,7.1,20.9,6,19.5,6z M3.5,9V8.5c0-0.6,0.4-1,1-1
	c0.5,0,0.9,0.4,1,0.9l0,0.2v2.9C5.5,13,6.2,14,6.8,15l0.1,0.2C5.3,14.6,3.5,13,3.5,9z M9.3,15.7c0,0-0.3-0.1-0.3-0.2
	c-0.3-0.3-0.9-1.3-0.9-1.3C7.6,13.3,7,12.6,7,11.5V9.8l0.4-0.1c0.9-0.2,1.6-0.6,2.3-1C10.5,8.3,11.1,8,12,8c0.9,0,1.5,0.3,2.4,0.8
	c0.6,0.3,1.4,0.7,2.3,1L17,9.8v1.7c0,1.1-0.6,1.8-1.1,2.7c0,0-0.6,1.1-0.9,1.3c-0.1,0.1-0.3,0.2-0.3,0.2c-0.8,0.5-1.7,0.8-2.7,0.8
	S10.1,16.2,9.3,15.7z M20.5,9c0,4-1.8,5.6-3.4,6.2l0.1-0.2c0.6-1,1.3-2,1.3-3.5V8.6l0-0.2c0-0.5,0.5-0.9,1-0.9c0.6,0,1,0.4,1,1V9z"
	/>
</svg>
