<svg xmlns="http://www.w3.org/2000/svg" width="24" height="24" viewBox="0 0 24 24">

<path d="M6.1,13l-2,0c0.2,1.5,0.8,2.8,1.6,3.9l1.4-1.4C6.6,14.8,6.2,13.9,6.1,13z"/>
<path d="M7.1,8.5L5.7,7.1C4.8,8.2,4.3,9.5,4.1,11h2C6.2,10.1,6.6,9.3,7.1,8.5z"/>
<path d="M18.3,7.1l-1.4,1.4c0.7,1,1.1,2.2,1.1,3.5c0,3.3-2.7,6-6,6c-1.3,0-2.5-0.4-3.5-1.1l-1.4,1.4C8.5,19.4,10.2,20,12,20
	c4.4,0,8-3.6,8-8C20,10.2,19.4,8.5,18.3,7.1z"/>
<path d="M11,6.1V10l4.5-4.5L11,1v3.1C9.5,4.3,8.2,4.8,7.1,5.7l1.4,1.4C9.3,6.6,10.1,6.2,11,6.1z"/>

  
</svg>
