<?xml version="1.0" encoding="UTF-8"?><!DOCTYPE svg PUBLIC "-//W3C//DTD SVG 1.1//EN" "http://www.w3.org/Graphics/SVG/1.1/DTD/svg11.dtd"><svg xmlns="http://www.w3.org/2000/svg" xmlns:xlink="http://www.w3.org/1999/xlink"><symbol viewBox="0 0 24 24" id="apple" xmlns="http://www.w3.org/2000/svg"><path d="M20 10c2 3-3 12-5 12s-2-1-3-1-1 1-3 1-7-9-5-12 5-3 7-2V5C5.38 8.07 4.11 3.78 4.11 3.78S6.77.19 11 5V3h2v5c2-1 5-1 7 2Z"/></symbol><symbol viewBox="0 0 24 24" id="asparagus" xmlns="http://www.w3.org/2000/svg"><path d="M12 2a6 6 0 0 0-1.25.88l.59 1.37L10 3.62a3.21 3.21 0 0 0-.72 1.13A12.69 12.69 0 0 0 12 8a4.39 4.39 0 0 1-3-2 4.86 4.86 0 0 0 1 3v12s.37 1 2 1 2-1 2-1V10a5.72 5.72 0 0 1-2 .72S15 7.89 15 6a3.65 3.65 0 0 0-.5-1.66A5.49 5.49 0 0 1 12 6a19.58 19.58 0 0 0 1.69-2.72A11 11 0 0 0 12 2ZM7 4a6 6 0 0 0-1.25.88l.59 1.37L5 5.62a3.21 3.21 0 0 0-.72 1.13A12.69 12.69 0 0 0 7 10a4.39 4.39 0 0 1-3-2 4.86 4.86 0 0 0 1 3v9s.37 1 2 1 2-1 2-1v-8a5.72 5.72 0 0 1-2 .72 16.25 16.25 0 0 0 2-2.31v-1.1a6.1 6.1 0 0 1-.81-1.87A5.87 5.87 0 0 1 7 8s.51-.68 1-1.53V6a2.1 2.1 0 0 1 .34-1A11.72 11.72 0 0 0 7 4Zm10 0a5.68 5.68 0 0 0-1.19.81A3.75 3.75 0 0 1 16 6.09a4.91 4.91 0 0 1-.72 2.13A10.73 10.73 0 0 0 17 10a4.41 4.41 0 0 1-2.19-1l-.18.25A1 1 0 0 1 15 10v10s.37 1 2 1 2-1 2-1v-8a5.72 5.72 0 0 1-2 .72S20 9.9 20 8a3.65 3.65 0 0 0-.5-1.66A5.49 5.49 0 0 1 17 8a19.58 19.58 0 0 0 1.69-2.72A11 11 0 0 0 17 4Z"/><path fill="none" d="M0 0h24v24H0z"/></symbol><symbol viewBox="0 0 24 24" id="barley" xmlns="http://www.w3.org/2000/svg"><path d="M18 2c-1.46 0-1.86 2.5-2 4v2h1c1.84 0 5-.19 5-2a22.7 22.7 0 0 0-4.28.28A22.76 22.76 0 0 0 18 2Zm4 0a2.82 2.82 0 0 0-3 2.63A2.29 2.29 0 0 0 19 5a2.79 2.79 0 0 0 3-2.55A3.38 3.38 0 0 0 22 2Zm-8 2c-.93.93-1 4.15-1 6v1h1c1.84 0 5.07-.07 6-1-.73-.73-2.79-1-4-1a4.2 4.2 0 0 0-1.16.19A4.38 4.38 0 0 0 15 8c0-1.18-.29-3.25-1-4Zm-3 3c-.93.93-1 4.15-1 6v1h1c1.84 0 5.07-.07 6-1-.73-.73-2.79-1-4-1a4.2 4.2 0 0 0-1.16.19A4.38 4.38 0 0 0 12 11c0-1.18-.29-3.25-1-4Zm-3 3c-.93.93-1 4.15-1 6v1h1c1.84 0 5.07-.07 6-1-.73-.73-2.79-1-4-1a4.2 4.2 0 0 0-1.16.19A4.38 4.38 0 0 0 9 14c0-1.18-.29-3.25-1-4Zm-3 3c-.93.93-1 4.15-1 6v.31l-2 2 .7.69 2-2H5c1.84 0 5.07-.07 6-1-.73-.73-2.79-1-4-1a4.2 4.2 0 0 0-1.16.19A4.38 4.38 0 0 0 6 17c0-1.18-.29-3.25-1-4Z"/><path fill="none" d="M0 0h24v24H0z"/></symbol><symbol viewBox="0 0 24 24" id="barley_alt" xmlns="http://www.w3.org/2000/svg"><path d="M7.33 18.33c-.83-1.16-.83-2.5-.83-3.83 1.67 1 3.33 2 4.17 3.17l.33.56v-2.28c-1.5-.9-2.92-1.82-3.67-2.87-.83-1.16-.83-2.5-.83-3.83 1.67 1 3.33 2 4.17 3.17L11 13v-2.3c-1.5-.9-2.92-1.82-3.67-2.87C6.5 6.67 6.5 5.33 6.5 4c1.67 1 3.33 2 4.17 3.17.1.14.19.29.27.45-.17-.62-.28-1.2-.29-1.8-.01-1.51.65-3.06 1.31-4.61.69 1.48 1.38 2.97 1.39 4.48.01.63-.1 1.27-.28 1.9.08-.14.16-.28.26-.42C14.17 6 15.83 5 17.5 4c0 1.33 0 2.67-.83 3.83C15.92 8.88 14.5 9.8 13 10.7V13l.33-.58c.84-1.17 2.5-2.17 4.17-3.17 0 1.33 0 2.67-.83 3.83-.75 1.05-2.17 1.97-3.67 2.87v2.28l.33-.56c.84-1.17 2.5-2.17 4.17-3.17 0 1.33 0 2.67-.83 3.83-.75 1.05-2.17 1.97-3.67 2.87V23h-2v-1.8c-1.5-.9-2.92-1.82-3.67-2.87Z"/></symbol><symbol viewBox="0 0 24 24" id="broccoli" xmlns="http://www.w3.org/2000/svg"><path d="M9.24 2.5a3.65 3.65 0 0 0-3.68 3.09A4.05 4.05 0 0 0 2.49 9.5c0 1.7 1.24 3.51 3.91 3.91l.09.09a14.36 14.36 0 0 1 3 7 8.34 8.34 0 0 1 0 1h5v-1a8.64 8.64 0 0 1 3.72-6.81 3.39 3.39 0 0 0 2.1-.66 3.61 3.61 0 0 0 1.18-3 3.52 3.52 0 0 0-2.09-3.34A4.41 4.41 0 0 0 15 3.5a4.25 4.25 0 0 0-2.28.59A4.8 4.8 0 0 0 9.49 2.5Zm.16 2h.22a1.89 1.89 0 0 1 1.5 1.85c0 1-.24 1.3-.35 1.4l1.44 1.44a3.91 3.91 0 0 0 .91-2.84v-.1A2.33 2.33 0 0 1 15 5.5c1.2 0 2.5.77 2.5 2v1h1a1.42 1.42 0 0 1 1 1.5c0 .76-.12 1.24-.4 1.47a2.41 2.41 0 0 1-1.69.15 7 7 0 0 0 .09-1.12h-2a2.42 2.42 0 0 1-.59 1.94 2.75 2.75 0 0 1-2.16.09l-.28-.12-.4.18a3.29 3.29 0 0 1-3.75-.65L8 11.5h-.51c-1.82 0-3-.78-3-2a2.06 2.06 0 0 1 2-2h1v-1A1.78 1.78 0 0 1 9 4.51a1.61 1.61 0 0 1 .4-.01Zm4.09 10.28a4.05 4.05 0 0 0 1.1 0c-.3.45-.66 1-1.1 1.72Zm-3.81 0a5 5 0 0 0 1.81 0v2.72a17.35 17.35 0 0 1-1.81-2.69Z"/><path fill="none" d="M0 0h24v24H0z"/></symbol><symbol viewBox="0 0 24 24" id="carrot" xmlns="http://www.w3.org/2000/svg"><path d="m16.66 2-.9 1.78a2.33 2.33 0 0 1 .78.81 1.2 1.2 0 0 1 .06.91 3.34 3.34 0 0 1-.69 1.25l-.5.53-.12.09 1.44 1.43.09-.12c.17-.17.32-.31.47-.44l.06-.06a3.42 3.42 0 0 1 1.25-.69 1.24 1.24 0 0 1 .91.06 2.27 2.27 0 0 1 .81.79l1.78-.91a4 4 0 0 0-1.75-1.69 3.26 3.26 0 0 0-.44-.15l2-2-1.4-1.41-2 2c-.05-.15-.1-.3-.16-.44A4 4 0 0 0 16.66 2Zm-6.12 4.74a2.07 2.07 0 0 0-.35 0s-3.07 4-2.87 4.41A6.4 6.4 0 0 1 9.91 14a6 6 0 0 0-4-1s-4.3 7.7-4 9c1 .2 3.59-1 7.19-3.09a8.69 8.69 0 0 0-.5-2.63 8.26 8.26 0 0 1 2.4 1.49 4.2 4.2 0 0 0 2.68-1.69c.1-.2.7-1.88 0-2.68a7.26 7.26 0 0 1 2 1.37 15 15 0 0 0 1.5-1s.52-1.89-2.28-4.69C12.81 7 11.21 6.73 10.54 6.74Z"/><path fill="none" d="M0 0h24v24H0z"/></symbol><symbol viewBox="0 0 24 24" id="chili_pepper" xmlns="http://www.w3.org/2000/svg"><path d="m13.75 9 1.2-.76c.63.34 1.05 1 1.05 1.76v11.75S8 20 8 11v-1c0-.73.39-1.37.97-1.72l1.46.72L12 8l1.75 1M10 2c1.53 0 2.8 1.15 3 2.64 1 .29 1.81 1.03 2.22 1.99l-1.47.87-1.75-1-1.57 1-1.67-.83c.39-.95 1.19-1.67 2.18-2.01A1.01 1.01 0 0 0 10 4V2Z"/></symbol><symbol viewBox="0 0 24 24" id="combine_harvester" xmlns="http://www.w3.org/2000/svg"><path d="M11 4a25.89 25.89 0 0 0-3.41.19 2.72 2.72 0 0 0-1.81 1.09 2.25 2.25 0 0 0-.34 1.78L6 10a2 2 0 0 0-2 2v2h14v-2a2 2 0 0 0-.91-1.69L21.41 6H23V4h-2.41l-4.25 4.25.22-1.15a2.31 2.31 0 0 0-.37-1.82 2.72 2.72 0 0 0-1.81-1.09A25.44 25.44 0 0 0 11 4Zm-1 2v4H8l-.62-3.34a.25.25 0 0 1 .06-.22.62.62 0 0 1 .44-.25A16.7 16.7 0 0 1 10 6Zm2 0a18.2 18.2 0 0 1 2.09.16.62.62 0 0 1 .44.25.28.28 0 0 1 .06.25L14 9.81V10h-2Zm-6 5a1 1 0 1 1-1 1 1 1 0 0 1 1-1Zm10 0a1 1 0 1 1-1 1 1 1 0 0 1 1-1ZM1 15v2h20v-2Zm0 3v2h20v-2Z"/><path fill="none" d="M0 0h24v24H0z"/></symbol><symbol viewBox="0 0 24 24" id="corn" xmlns="http://www.w3.org/2000/svg"><path d="M12.66 2a3.87 3.87 0 0 0-2.38 1.6A9.63 9.63 0 0 0 13 4a9 9 0 0 0 2.72-.4A3.51 3.51 0 0 0 13 2a1.93 1.93 0 0 0-.34 0ZM9.72 4.47A11.5 11.5 0 0 0 9 6.07a6.63 6.63 0 0 0 2 .71c.07-.66.14-1.32.22-1.93a10.06 10.06 0 0 1-1.5-.38Zm6.59 0a10.06 10.06 0 0 1-1.53.38c.09.62.15 1.27.22 1.93A6.46 6.46 0 0 0 17 6a10 10 0 0 0-.69-1.53ZM12.25 5c-.08.61-.15 1.26-.22 2 .31 0 .63.06 1 .06s.68 0 1-.06c-.07-.7-.14-1.36-.22-2h-1.53Zm5.09 2a7.71 7.71 0 0 1-2.25.78c.06.66.12 1.32.16 2a5.13 5.13 0 0 0 2.44-1.22c-.1-.52-.21-1-.35-1.53ZM8.69 7c-.15.51-.28 1-.38 1.54a5.36 5.36 0 0 0 2.47 1.18c0-.65.1-1.31.16-2A7.46 7.46 0 0 1 8.69 7Zm3.25.91c-.06.64-.11 1.29-.16 2A8.35 8.35 0 0 0 13 10a9.07 9.07 0 0 0 1.28-.09c0-.68-.13-1.33-.19-2A9.69 9.69 0 0 1 13 8c-.38 0-.72 0-1.06-.06Zm5.94 1.75a7.08 7.08 0 0 1-2.57 1.06c0 .69.07 1.33.1 1.94a4.36 4.36 0 0 0 2.59-1.5c0-.5-.07-1-.12-1.47Zm-9.72 0c-.06.49-.11 1-.13 1.5a4.39 4.39 0 0 0 2.6 1.47c0-.63 0-1.29.09-2a7 7 0 0 1-2.56-1ZM21 10a71 71 0 0 0-8 7 8.25 8.25 0 0 0-10 0c4-.08 5.05 1.67 5.88 3.16A4.56 4.56 0 0 0 12 22h2c1.32-.13 2.56-1.38 3.47-2.78C19.08 16.75 21 10 21 10Zm-9.28.91c0 .65-.1 1.3-.13 2A11.18 11.18 0 0 0 13 13a10 10 0 0 0 1.44-.12c0-.67-.06-1.32-.1-2A9.94 9.94 0 0 1 13 11a9.07 9.07 0 0 1-1.28-.09ZM8 12.63c0 .56.06 1.12.13 1.65a8.14 8.14 0 0 1 2.4.44v-1A7 7 0 0 1 8 12.63Zm7.22 1.12A10 10 0 0 1 13 14a11.6 11.6 0 0 1-1.44-.09v1.19A10 10 0 0 1 13 16a29.85 29.85 0 0 1 2.25-2.25Z"/><path fill="none" d="M0 0h24v24H0z"/></symbol><symbol viewBox="0 0 24 24" id="flower" xmlns="http://www.w3.org/2000/svg"><path d="M0 0h24v24H0z" fill="none"/><path d="M12 22a9 9 0 0 0 9-9 9 9 0 0 0-9 9zM5.6 10.25a2.5 2.5 0 0 0 3.92 2.06l-.02.19a2.5 2.5 0 0 0 5 0l-.02-.19c.4.28.89.44 1.42.44a2.5 2.5 0 0 0 2.5-2.5c0-1-.59-1.85-1.43-2.25.84-.4 1.43-1.25 1.43-2.25a2.5 2.5 0 0 0-3.92-2.06l.02-.19a2.5 2.5 0 0 0-5 0l.02.19c-.4-.28-.89-.44-1.42-.44a2.5 2.5 0 0 0-2.5 2.5c0 1 .59 1.85 1.43 2.25-.84.4-1.43 1.25-1.43 2.25zM12 5.5a2.5 2.5 0 0 1 0 5 2.5 2.5 0 0 1 0-5zM3 13a9 9 0 0 0 9 9 9 9 0 0 0-9-9z"/></symbol><symbol viewBox="0 0 24 24" id="flower_tulip" xmlns="http://www.w3.org/2000/svg"><path d="M3 13a9 9 0 0 0 9 9 9 9 0 0 0-9-9m9 9a9 9 0 0 0 9-9 9 9 0 0 0-9 9m6-19v5a6 6 0 0 1-6 6 6 6 0 0 1-6-6V3c.74 0 1.47.12 2.16.39.55.23 1.04.57 1.45 1L12 2l2.39 2.39c.41-.43.9-.77 1.45-1A5.9 5.9 0 0 1 18 3Z"/></symbol><symbol viewBox="0 0 24 24" id="garlic" xmlns="http://www.w3.org/2000/svg"><path d="m12.42 2-.5.41-.72.59H9.05v5a1 1 0 0 1-1 1H7.8A6.12 6.12 0 0 0 2 15.09v.1A6.21 6.21 0 0 0 8.05 21a7.26 7.26 0 0 0 .95-.06 4.93 4.93 0 0 0 6.1 0 7.77 7.77 0 0 0 1 .06 6.09 6.09 0 0 0 6-5.88A6 6 0 0 0 16.18 9h-.13a1 1 0 0 1-1-1V3.41l-.53-.29L13 2.31Zm.22 2.41.41.18V8a3 3 0 0 0 3 3h.09a4 4 0 0 1 .5 7.94 5 5 0 0 0 .41-1.94 8.53 8.53 0 0 0-1.13-3.78 18.21 18.21 0 0 0-1.06-1.81l-1.63 1.18a10.57 10.57 0 0 1 .94 1.54 7.22 7.22 0 0 1 .88 2.87 3 3 0 0 1-.75 2h-.07a1.07 1.07 0 0 0-.28.28A3 3 0 0 1 9.05 17a5.09 5.09 0 0 1 .81-2.41l-1.63-1.18A6.57 6.57 0 0 0 7.05 17a5 5 0 0 0 .4 1.94A4.24 4.24 0 0 1 4 15.09V15a4.16 4.16 0 0 1 3.91-4H8a3.07 3.07 0 0 0 3.1-3V5h.84l.28-.22Z"/><path fill="none" d="M0 0h24v24H0z"/></symbol><symbol viewBox="0 0 24 24" id="grass" xmlns="http://www.w3.org/2000/svg"><path d="M5 2c.82.82 5.61 2.88 6 18v2h3C14 2.12 7 2 5 2Zm14 3a7 7 0 0 0-5.56 3 16.3 16.3 0 0 1 1.12 4c1.18-5.21 3.83-6.39 4.44-7ZM2 9c.77.77 4.72 3.09 5 12v1h3c0-8.48-2.5-12.78-8-13Zm20 0c-2 0-7 2.25-7 13h3c0-9 3.12-12.12 4-13Z"/><path fill="none" d="M0 0h24v24H0z"/></symbol><symbol viewBox="0 0 24 24" id="hops" xmlns="http://www.w3.org/2000/svg"><path d="M21 12s-8.5-2-8.5-10c0 0 8.5 0 8.5 10M3 12C3 2 11.5 2 11.5 2c0 8-8.5 10-8.5 10m9-5.5s1 2.16 3 4c-.24 3.66-3 5.5-3 5.5s-2.76-1.84-3-5.5c2-1.84 3-4 3-4m8.75 6.75S20 17 18 19c0 0-2.47-1.64-3.67-4.19.72-1.23 1.17-2.69 1.42-3.68 1.38 1.05 3 1.87 5 2.12m-5.25 5c-1 2-3.5 3.5-3.5 3.5s-2.5-1.5-3.5-3.5c0 0 1.09-.91 1.85-2.45.47.55 1.01.99 1.65 1.2.64-.21 1.18-.65 1.65-1.2.76 1.54 1.85 2.45 1.85 2.45m-12.25-5c2-.25 3.62-1.07 5-2.12.25.99.7 2.45 1.42 3.68C8.47 17.36 6 19 6 19c-2-2-2.75-5.75-2.75-5.75Z"/></symbol><symbol viewBox="0 0 24 24" id="leaf" xmlns="http://www.w3.org/2000/svg"><path d="M17 8C8 10 5.9 16.17 3.82 21.34l1.89.66 1-2.3A4.49 4.49 0 0 0 8 20C19 20 22 3 22 3c-1 2-8 2.25-13 3.25S2 11.5 2 13.5a6.22 6.22 0 0 0 1.75 3.75C7 8 17 8 17 8Z"/><path fill="none" d="M0 0h24v24H0z"/></symbol><symbol viewBox="0 0 24 24" id="pepper" xmlns="http://www.w3.org/2000/svg"><path d="M20 8.73a3 3 0 0 0-3-2.83 3.11 3.11 0 0 0-1.52.4 4.82 4.82 0 0 0-1.55-1 3 3 0 0 1 1.6-1.52L14.8 2A5 5 0 0 0 12 5a2.91 2.91 0 0 0-3 1.92 15.34 15.34 0 0 0-.41 3.57 23.33 23.33 0 0 0 1.05 5.62A10.39 10.39 0 0 1 7.56 11a12.36 12.36 0 0 1 .22-4.3 5.7 5.7 0 0 0-1.37 0A2.86 2.86 0 0 0 4 9.2c-.21 2.68 1.16 7.64 2 9.93C6.51 20.51 7.8 22 9 22c.87-.06 1.53 0 2-.95a3.73 3.73 0 0 0 3.37.95A4.69 4.69 0 0 0 18 19.13a25.1 25.1 0 0 0 2-10.4Z"/></symbol><symbol viewBox="0 0 24 24" id="potato" xmlns="http://www.w3.org/2000/svg"><path d="M15.36 2a5.81 5.81 0 0 0-3.06.87 23 23 0 0 0-4.69 4.5c-1.25 1.4-3.12 2.63-4.4 4.35a5.52 5.52 0 0 0-1.22 3 6.54 6.54 0 0 0 1.12 3.81A7.78 7.78 0 0 0 10.33 22a12.35 12.35 0 0 0 8.13-3.72A12.75 12.75 0 0 0 22 10.53a7.94 7.94 0 0 0-3.2-7.35A6.17 6.17 0 0 0 15.36 2Zm0 1.93a4.14 4.14 0 0 1 2.31.88A5.93 5.93 0 0 1 20 10.4a10.84 10.84 0 0 1-3 6.47A10.39 10.39 0 0 1 10.24 20a5.78 5.78 0 0 1-5.44-2.5 4.42 4.42 0 0 1-.8-2.63 3.5 3.5 0 0 1 .81-1.94c1-1.3 2.83-2.57 4.31-4.21a23.74 23.74 0 0 1 4.25-4.13 3.74 3.74 0 0 1 1.96-.66ZM17 8a1 1 0 1 0 0 2 1 1 0 0 0 0-2Zm-2.5 2a.5.5 0 0 0-.5.5.5.5 0 0 0 .5.5.51.51 0 0 0 .5-.5.5.5 0 0 0-.51-.5Zm-5 3a.5.5 0 0 0-.5.5.5.5 0 0 0 .5.5.51.51 0 0 0 .5-.5.5.5 0 0 0-.51-.5Zm-2 2a.5.5 0 0 0-.5.5.5.5 0 0 0 .5.5.51.51 0 0 0 .5-.5.5.5 0 0 0-.51-.5Zm2.5 1a1 1 0 0 0 0 2 1 1 0 1 0 0-2Z"/><path fill="none" d="M0 0h24v24H0z"/></symbol><symbol viewBox="0 0 24 24" id="silo" xmlns="http://www.w3.org/2000/svg"><path d="M8.5 2a6.5 6.5 0 0 1 6.46 5.78L22 12v2l-2-1.2V22h-2V11.6l-3-1.8V22h-2V9H4v13H2V8.5A6.5 6.5 0 0 1 8.5 2m0 2C6.54 4 4.87 5.25 4.26 7h8.48c-.61-1.75-2.28-3-4.24-3M6 11h5v2H6v-2m0 4h5v2H6v-2m0 4h5v2H6v-2Z"/></symbol><symbol viewBox="0 0 24 24" id="soybean" xmlns="http://www.w3.org/2000/svg"><path data-name="Path 1157" d="M0 0h24v24H0Z" fill="none"/><path data-name="Path 1326" d="M20 2c-.789 1.918-2.668 2.668-4 4a7.658 7.658 0 0 0-2 4 6.533 6.533 0 0 0-6 4.969A6.3 6.3 0 0 0 4 17a8.34 8.34 0 0 0-2 3.969c1.313 1.313 6.719 1.438 9 0A2.386 2.386 0 0 0 12 20a7.273 7.273 0 0 0 7-7 4.72 4.72 0 0 0 2.461-2.563C22.52 8.336 21.813 3.813 20 2ZM8.008 19.9c-1.227.484-2.426.238-2.684-.555s.523-1.824 1.746-2.309 2.426-.234 2.684.555-.524 1.827-1.746 2.309Zm6.562-3.47a2.328 2.328 0 0 1-3.266-.187 2.332 2.332 0 0 1 .734-3.187 2.328 2.328 0 0 1 3.266.191 2.324 2.324 0 0 1-.734 3.183Zm5.312-7.277c-.523 1.207-1.547 1.879-2.289 1.5S16.676 9 17.2 7.789s1.547-1.883 2.289-1.5.911 1.656.394 2.863Z"/></symbol><symbol viewBox="0 0 24 24" id="sunflower" xmlns="http://www.w3.org/2000/svg"><path d="m13.5 2-2 2h-2v2l-2 2 2.06 2.12L9.5 12h2l2 2 2-2h2v-2l2-2-2-2V4h-2Zm0 3.5A2.5 2.5 0 1 1 11 8a2.47 2.47 0 0 1 2.45-2.5ZM2.5 13c.21 1.21 1.27 7 5 7a4.39 4.39 0 0 0 2.56-.75 1.22 1.22 0 0 1 .22.44A9 9 0 0 1 10.5 22h2v-1a2.69 2.69 0 0 1 1.75-2.16A2.89 2.89 0 0 0 16.5 20c2.9 0 5-5.08 5-6h-5c-1.77 0-3 .72-3 2.56A6.29 6.29 0 0 1 17 16a10.65 10.65 0 0 0-2.09.44l-.19.06-.28.1a6.33 6.33 0 0 0-.94.37 6.58 6.58 0 0 0-1.75 1.16C10.52 15.7 8.06 15.4 6.5 15c1.61 0 4 .67 5 2a3.86 3.86 0 0 0-3.72-4H2.5Z"/><path fill="none" d="M0 0h24v24H0z"/></symbol><symbol viewBox="0 0 24 24" id="tomato" xmlns="http://www.w3.org/2000/svg"><path d="M13 2a11.32 11.32 0 0 0-1 2c-.12.33-.22.66-.31 1-.62-1.74-3.5-1.46-4.69-2 0 3.38 3.52 2.21 4.25 2.72C8.42 5.48 7.39 7.39 6 8c3.1 1.57 5 .06 5.72-1.84-.11.74-.65 4.92 2.28 4.84a8.14 8.14 0 0 0-1.31-4.91h.06C14 7.59 15.94 9.3 18 8a7.19 7.19 0 0 0-3.75-2.06C15.84 6 16.91 6.13 18 4a8.42 8.42 0 0 0-4.69 1c.47-.8 1.18-2 1.69-3ZM7 5c-3.91.89-5 4.23-5 8 0 5 4.47 9 10 9 4.89 0 10-2.84 10-10 0-3-1.17-6-4-7a1.88 1.88 0 0 1-1 1c.54.19 1.42 1.39 2 2-.31.81-1.8 1.52-4.34 1a9.86 9.86 0 0 1 0 3 4.07 4.07 0 0 1-4-3C8.25 10.5 4.93 8.68 5 8c.88-.61 2-1.83 3-2a2.82 2.82 0 0 1-1-1Z"/><path fill="none" d="M0 0h24v24H0z"/></symbol><symbol viewBox="0 0 24 24" id="tractor" xmlns="http://www.w3.org/2000/svg"><path d="M5 4v7.26c-1.8.64-3 2.34-3 4.24C2 18 4 20 6.5 20c2.29 0 4.21-1.72 4.47-4h4.2c-.11.32-.17.66-.17 1 0 1.66 1.34 3 3 3s3-1.34 3-3c0-.34-.06-.68-.18-1H22v-3c0-1.11-.89-2-2-2h-4.96l-1.39-7H5m2 2h5l1 5v3h-2.26A4.53 4.53 0 0 0 7 11.03V6m-.5 7.25c1.24 0 2.25 1.01 2.25 2.25s-1.01 2.25-2.25 2.25-2.25-1.01-2.25-2.25 1.01-2.25 2.25-2.25M18 15.5c.83 0 1.5.67 1.5 1.5s-.67 1.5-1.5 1.5-1.5-.67-1.5-1.5.67-1.5 1.5-1.5z"/><path fill="none" d="M0 0h24v24H0z"/></symbol><symbol xml:space="preserve" viewBox="0 0 24 24" id="tree" xmlns="http://www.w3.org/2000/svg"><path d="M11 21v-4.3c-.5.2-1 .3-1.5.3C7 17 5 15 5 12.5c0-1.3.5-2.4 1.4-3.2-.3-.6-.4-1.2-.4-1.8C6 5 8 3 10.5 3c1.6 0 2.9.8 3.8 2h.2c3 0 5.5 2.5 5.5 5.5S17.5 16 14.5 16c-.5 0-1-.1-1.5-.2V21h-2z"/><path fill="none" d="M0 0h24v24H0z"/></symbol><symbol viewBox="0 0 24 24" id="wheat" xmlns="http://www.w3.org/2000/svg"><path d="M15.86 2.14s-3 3.09-3 5a17.17 17.17 0 0 0-2-2 21.32 21.32 0 0 0-1 5 17.17 17.17 0 0 0-2-2 21.32 21.32 0 0 0-1 5 17.17 17.17 0 0 0-2-2 21.32 21.32 0 0 0-1 5c0 1 .31 1.54.78 1.78l-2.5 2.5 1.44 1.44 2.5-2.5c.24.47.76.78 1.78.78a21.32 21.32 0 0 0 5-1 17.17 17.17 0 0 0-2-2 21.32 21.32 0 0 0 5-1 17.17 17.17 0 0 0-2-2 21.32 21.32 0 0 0 5-1 17.17 17.17 0 0 0-2-2c1.91 0 5-3 5-3a22.4 22.4 0 0 0-2.53-.78c1.46-1.36 1.53-4.22 1.53-4.22s-2.81 0-4.22 1.47a21.44 21.44 0 0 0-.78-2.47Zm-2 6.86a3.34 3.34 0 0 0 1 .12 3.34 3.34 0 0 0 .12 1h-.12a3.36 3.36 0 0 0-1.25.25 3.36 3.36 0 0 0 .25-1.25Zm-3 3a3.34 3.34 0 0 0 1 .12 3.34 3.34 0 0 0 .12 1h-.12a3.36 3.36 0 0 0-1.25.25 3.36 3.36 0 0 0 .25-1.25Zm-3 3a3.34 3.34 0 0 0 1 .12 3.34 3.34 0 0 0 .12 1h-.12a3.36 3.36 0 0 0-1.25.25 3.36 3.36 0 0 0 .25-1.25Z"/><path fill="none" d="M0 0h24v24H0z"/></symbol></svg>