<?xml version="1.0" encoding="utf-8"?><svg xmlns="http://www.w3.org/2000/svg" xmlns:xlink="http://www.w3.org/1999/xlink"><symbol viewBox="0 0 24 24" id="amazon" xmlns="http://www.w3.org/2000/svg"><path d="M15.93 17.09c-.18.16-.43.17-.63.06-.89-.74-1.05-1.08-1.54-1.79-1.47 1.5-2.51 1.95-4.42 1.95-2.25 0-4.01-1.39-4.01-4.17 0-2.18 1.17-3.64 2.86-4.38 1.46-.64 3.49-.76 5.04-.93V7.5c0-.66.05-1.41-.33-1.96-.32-.49-.95-.7-1.5-.7-1.02 0-1.93.53-2.15 1.61-.05.24-.25.48-.47.49l-2.6-.28c-.22-.05-.46-.22-.4-.56.6-3.15 3.45-4.1 6-4.1 1.3 0 3 .35 4.03 1.33C17.11 4.55 17 6.18 17 7.95v4.17c0 1.25.5 1.81 1 2.48.17.25.21.54 0 .71l-2.06 1.78h-.01Zm-2.7-6.53V10c-1.94 0-3.99.39-3.99 2.67 0 1.16.61 1.95 1.63 1.95.76 0 1.43-.47 1.86-1.22.52-.93.5-1.8.5-2.84Zm6.93 8.98C18 21.14 14.82 22 12.1 22c-3.81 0-7.25-1.41-9.85-3.76-.2-.18-.02-.43.25-.29 2.78 1.63 6.25 2.61 9.83 2.61 2.41 0 5.07-.5 7.51-1.53.37-.16.66.24.32.51Zm.91-1.04c-.28-.36-1.85-.17-2.57-.08-.19.02-.22-.16-.03-.3 1.24-.88 3.29-.62 3.53-.33.24.3-.07 2.35-1.24 3.32-.18.16-.35.07-.26-.11.26-.67.85-2.14.57-2.5Z"/></symbol><symbol viewBox="0 0 24 24" id="amazon_alexa" xmlns="http://www.w3.org/2000/svg"><path d="M12 2a10 10 0 1 0 0 20 10 10 0 0 0 0-20Zm-1.57 19.87v-2a1.76 1.76 0 0 0-1.08-1.57 6.83 6.83 0 1 1 9.48-6.3c0 4.43-3.44 8.61-8.4 9.87Z"/></symbol><symbol viewBox="0 0 24 24" id="angular" xmlns="http://www.w3.org/2000/svg"><path d="m12 2.5 8.84 3.15-1.34 11.7L12 21.5l-7.5-4.15-1.34-11.7L12 2.5Zm0 2.1L6.47 17h2.06l1.11-2.78h4.7L15.45 17h2.05L12 4.6Zm1.62 7.9h-3.23L12 8.63l1.62 3.87Z"/></symbol><symbol viewBox="0 0 24 24" id="apple_logo" xmlns="http://www.w3.org/2000/svg"><path d="M18.71 19.5c-.83 1.24-1.71 2.45-3.05 2.47-1.34.03-1.77-.79-3.29-.79-1.53 0-2 .77-3.27.82-1.31.05-2.3-1.32-3.14-2.53C4.25 17 2.94 12.45 4.7 9.39c.87-1.52 2.43-2.48 4.12-2.51 1.28-.02 2.5.87 3.29.87.78 0 2.26-1.07 3.81-.91.65.03 2.47.26 3.64 1.98-.09.06-2.17 1.28-2.15 3.81.03 3.02 2.65 4.03 2.68 4.04-.03.07-.42 1.44-1.38 2.83ZM13 3.5c.73-.83 1.94-1.46 2.94-1.5.13 1.17-.34 2.35-1.04 3.19-.69.85-1.83 1.51-2.95 1.42-.15-1.15.41-2.35 1.05-3.11Z"/></symbol><symbol viewBox="0 0 24 24" id="github" xmlns="http://www.w3.org/2000/svg"><path d="M12 2A10 10 0 0 0 2 12c0 4.42 2.87 8.17 6.84 9.5.5.08.66-.23.66-.5v-1.69c-2.77.6-3.36-1.34-3.36-1.34-.46-1.16-1.11-1.47-1.11-1.47-.91-.62.07-.6.07-.6 1 .07 1.53 1.03 1.53 1.03.87 1.52 2.34 1.07 2.91.83.09-.65.35-1.09.63-1.34-2.22-.25-4.55-1.11-4.55-4.92 0-1.11.38-2 1.03-2.71-.1-.25-.45-1.29.1-2.64 0 0 .84-.27 2.75 1.02.79-.22 1.65-.33 2.5-.33.85 0 1.71.11 2.5.33 1.91-1.29 2.75-1.02 2.75-1.02.55 1.35.2 2.39.1 2.64.65.71 1.03 1.6 1.03 2.71 0 3.82-2.34 4.66-4.57 4.91.36.31.69.92.69 1.85V21c0 .27.16.59.67.5C19.14 20.16 22 16.42 22 12A10 10 0 0 0 12 2Z"/></symbol><symbol viewBox="0 0 24 24" id="google" xmlns="http://www.w3.org/2000/svg"><path d="M21.35 11.1h-9.17v2.73h6.51c-.33 3.81-3.5 5.44-6.5 5.44C8.36 19.27 5 16.25 5 12c0-4.1 3.2-7.27 7.2-7.27 3.09 0 4.9 1.97 4.9 1.97L19 4.72S16.56 2 12.1 2C6.42 2 2.03 6.8 2.03 12c0 5.05 4.13 10 10.22 10 5.35 0 9.25-3.67 9.25-9.09 0-1.15-.15-1.81-.15-1.81Z"/></symbol><symbol viewBox="0 0 24 24" id="hubject" xmlns="http://www.w3.org/2000/svg"><path d="M11.926 5.133a5.955 5.955 0 0 1 3.832 1.25 6.034 6.034 0 0 1 2.181 3.415H5.845a6.005 6.005 0 0 1 2.2-3.447 5.915 5.915 0 0 1 3.88-1.218Zm.33 13.507a6.576 6.576 0 0 1-4.4-1.644 6.682 6.682 0 0 1-2.209-4.176h16.325a10.14 10.14 0 0 0-.54-4.1 10.082 10.082 0 0 0-2.127-3.535 9.983 9.983 0 0 0-3.358-2.373A9.917 9.917 0 0 0 11.926 2a9.75 9.75 0 0 0-3.903.771 9.822 9.822 0 0 0-3.28 2.269 9.922 9.922 0 0 0-2.12 3.394 9.981 9.981 0 0 0-.611 3.963v.466a10.137 10.137 0 0 0 3.355 6.616 9.973 9.973 0 0 0 6.933 2.515c6.61 0 9.143-4.443 9.43-6.132h-3.635a6.292 6.292 0 0 1-2.537 2.207 6.21 6.21 0 0 1-3.302.57Z"/></symbol><symbol viewBox="0 0 24 24" id="react" xmlns="http://www.w3.org/2000/svg"><path d="M12 10.11c1.03 0 1.87.84 1.87 1.89 0 1-.84 1.85-1.87 1.85-1.03 0-1.87-.85-1.87-1.85 0-1.05.84-1.89 1.87-1.89ZM7.37 20c.63.38 2.01-.2 3.6-1.7-.52-.59-1.03-1.23-1.51-1.9a22.7 22.7 0 0 1-2.4-.36c-.51 2.14-.32 3.61.31 3.96Zm.71-5.74-.29-.51c-.11.29-.22.58-.29.86.27.06.57.11.88.16l-.3-.51Zm6.54-.76.81-1.5-.81-1.5c-.3-.53-.62-1-.91-1.47C13.17 9 12.6 9 12 9c-.6 0-1.17 0-1.71.03-.29.47-.61.94-.91 1.47L8.57 12l.81 1.5c.3.53.62 1 .91 1.47.54.03 1.11.03 1.71.03.6 0 1.17 0 1.71-.03.29-.47.61-.94.91-1.47ZM12 6.78c-.19.22-.39.45-.59.72h1.18c-.2-.27-.4-.5-.59-.72Zm0 10.44c.19-.22.39-.45.59-.72h-1.18c.2.27.4.5.59.72ZM16.62 4c-.62-.38-2 .2-3.59 1.7.52.59 1.03 1.23 1.51 1.9.82.08 1.63.2 2.4.36.51-2.14.32-3.61-.32-3.96Zm-.7 5.74.29.51c.11-.29.22-.58.29-.86-.27-.06-.57-.11-.88-.16l.3.51Zm1.45-7.05c1.47.84 1.63 3.05 1.01 5.63 2.54.75 4.37 1.99 4.37 3.68 0 1.69-1.83 2.93-4.37 3.68.62 2.58.46 4.79-1.01 5.63-1.46.84-3.45-.12-5.37-1.95-1.92 1.83-3.91 2.79-5.38 1.95-1.46-.84-1.62-3.05-1-5.63-2.54-.75-4.37-1.99-4.37-3.68 0-1.69 1.83-2.93 4.37-3.68-.62-2.58-.46-4.79 1-5.63 1.47-.84 3.46.12 5.38 1.95 1.92-1.83 3.91-2.79 5.37-1.95ZM17.08 12c.34.75.64 1.5.89 2.26 2.1-.63 3.28-1.53 3.28-2.26 0-.73-1.18-1.63-3.28-2.26-.25.76-.55 1.51-.89 2.26ZM6.92 12c-.34-.75-.64-1.5-.89-2.26-2.1.63-3.28 1.53-3.28 2.26 0 .73 1.18 1.63 3.28 2.26.25-.76.55-1.51.89-2.26Zm9 2.26-.3.51c.31-.05.61-.1.88-.16-.07-.28-.18-.57-.29-.86l-.29.51Zm-2.89 4.04c1.59 1.5 2.97 2.08 3.59 1.7.64-.35.83-1.82.32-3.96-.77.16-1.58.28-2.4.36-.48.67-.99 1.31-1.51 1.9ZM8.08 9.74l.3-.51c-.31.05-.61.1-.88.16.07.28.18.57.29.86l.29-.51Zm2.89-4.04C9.38 4.2 8 3.62 7.37 4c-.63.35-.82 1.82-.31 3.96a22.7 22.7 0 0 1 2.4-.36c.48-.67.99-1.31 1.51-1.9Z"/></symbol></svg>