<?xml version="1.0" encoding="utf-8"?><svg xmlns="http://www.w3.org/2000/svg" xmlns:xlink="http://www.w3.org/1999/xlink"><symbol viewBox="0 0 24 24" id="air_conditioner" xmlns="http://www.w3.org/2000/svg"><path d="M20 4H4a2 2 0 0 0-2 2v12a2 2 0 0 0 2 2h16a2 2 0 0 0 2-2V6a2 2 0 0 0-2-2ZM10 18a6 6 0 1 1 6-6 6 6 0 0 1-6 6Zm9-10a1 1 0 1 1 1-1 1 1 0 0 1-1 1Zm-4 4.25c0 2.25-1.79 2.3-2.38 1.11a1.61 1.61 0 0 0-.53-.54 1.65 1.65 0 0 0-.71-.26 1.82 1.82 0 0 1-.46.61c1 1.85.6 3.83-1.19 3.83-2.23 0-2.28-1.79-1.1-2.38a1.68 1.68 0 0 0 .54-.52 1.76 1.76 0 0 0 .27-.7 1.61 1.61 0 0 1-.63-.46C7 13.93 5 13.53 5 11.75c0-2.25 1.77-2.31 2.36-1.12a1.52 1.52 0 0 0 .53.54 1.81 1.81 0 0 0 .71.27 1.51 1.51 0 0 1 .46-.62C8.06 9 8.46 7 10.24 7c2.25 0 2.3 1.78 1.11 2.38a1.58 1.58 0 0 0-.54.52 1.65 1.65 0 0 0-.26.71 1.7 1.7 0 0 1 .61.45c1.84-1 3.84-.6 3.84 1.19Z"/><path fill="none" d="M0 0h24v24H0z"/></symbol><symbol viewBox="0 0 24 24" id="air_filter" xmlns="http://www.w3.org/2000/svg"><path d="M18.91 11.09A7.84 7.84 0 0 0 22 12v2a9.37 9.37 0 0 1-3.83-1h-.08A7.84 7.84 0 0 0 15 12a6.15 6.15 0 0 0-2.8.89h-.06A8.54 8.54 0 0 1 9 14v-2a7.59 7.59 0 0 0 2.3-.86h.06A7.86 7.86 0 0 1 15 10a9.37 9.37 0 0 1 3.83 1.05Zm-.08 4A9.37 9.37 0 0 0 15 14a7.86 7.86 0 0 0-3.64 1.08h-.06A7.59 7.59 0 0 1 9 16v2a8.54 8.54 0 0 0 3.14-1.06h.06A6.15 6.15 0 0 1 15 16a7.84 7.84 0 0 1 3.09.91h.08A9.53 9.53 0 0 0 22 18v-2a7.84 7.84 0 0 1-3.09-.91ZM19 7.13V4a2 2 0 0 0-2-2H7a2 2 0 0 0-2 2v3.17a9 9 0 0 0-3-.67v2a8.26 8.26 0 0 1 2.63.66h.1l.27.12v1.89a9 9 0 0 0-3-.67v2a8.26 8.26 0 0 1 2.63.66h.1l.27.09v1.89a9 9 0 0 0-3-.67v2a8.26 8.26 0 0 1 2.63.66h.1l.27.09V20a2 2 0 0 0 2 2h10a2 2 0 0 0 2-2v-.69l-.83-.31h-.08c-.38-.17-.74-.33-1.09-.46V20H7V4h10v2.33A6.81 6.81 0 0 0 15 6a7.86 7.86 0 0 0-3.64 1.08h-.06A7.59 7.59 0 0 1 9 8v2a8.54 8.54 0 0 0 3.14-1.06h.06A6.15 6.15 0 0 1 15 8a7.84 7.84 0 0 1 3.09.91h.08A9.53 9.53 0 0 0 22 10V8a7.63 7.63 0 0 1-3-.87Z"/><path fill="none" d="M0 0h24v24H0z"/></symbol><symbol viewBox="0 0 24 24" id="ats" xmlns="http://www.w3.org/2000/svg"><path d="M19.8 11A2.91 2.91 0 0 0 17 9a3 3 0 0 0-2 .74L11 7.5a2.74 2.74 0 0 0 0-.5 3 3 0 0 0-3-3 2.91 2.91 0 0 0-2.8 2H2v2h3.2A2.91 2.91 0 0 0 8 10a3 3 0 0 0 2-.74l4 2.24a2.74 2.74 0 0 0 0 .5 3 3 0 0 0 3 3 2.91 2.91 0 0 0 2.8-2H22v-2ZM8 8a.94.94 0 0 1-1-1 .94.94 0 0 1 1-1 .94.94 0 0 1 1 1 .94.94 0 0 1-1 1Zm9 5a1 1 0 1 1 1-1 .94.94 0 0 1-1 1Zm-9 1a2.91 2.91 0 0 0-2.8 2H2v2h3.2A2.91 2.91 0 0 0 8 20a3 3 0 0 0 0-6Zm0 4a1 1 0 0 1 0-2 1 1 0 0 1 0 2Z" fill-rule="evenodd"/><path fill="none" d="M0 0h24v24H0z"/></symbol><symbol viewBox="0 0 24 24" id="ats_alt" xmlns="http://www.w3.org/2000/svg"><path d="M8 10a3 3 0 0 0 3-3 3 3 0 0 0-3-3 2.91 2.91 0 0 0-2.8 2H2v2h3.2A2.91 2.91 0 0 0 8 10Zm0-4a.94.94 0 0 1 1 1 .94.94 0 0 1-1 1 .94.94 0 0 1-1-1 .94.94 0 0 1 1-1Zm11.8 5A2.91 2.91 0 0 0 17 9a3 3 0 0 0-3 3 2.74 2.74 0 0 0 0 .5l-4 2.24A3 3 0 0 0 8 14a2.91 2.91 0 0 0-2.8 2H2v2h3.2A2.91 2.91 0 0 0 8 20a3 3 0 0 0 3-3 2.74 2.74 0 0 0 0-.5l4-2.24a3 3 0 0 0 2 .74 2.91 2.91 0 0 0 2.8-2H22v-2ZM8 18a1 1 0 0 1 0-2 1 1 0 0 1 0 2Zm9-5a1 1 0 1 1 1-1 .94.94 0 0 1-1 1Z" fill-rule="evenodd"/><path fill="none" d="M0 0h24v24H0z"/></symbol><symbol viewBox="0 0 24 24" id="battery_disabled" xmlns="http://www.w3.org/2000/svg"><path d="M3.33 3.33 2 4.67l5 5V21c0 .55.45 1 1 1h8c.55 0 1-.45 1-1v-1.33L19.33 22l1.34-1.33L3.33 3.33ZM15 20H9v-8.33l6 6V20ZM17 5v9.33l-2-2V6H9v.33L7.15 4.48C7.32 4.19 7.64 4 8 4h2V2h4v2h2c.55 0 1 .45 1 1Z"/></symbol><symbol viewBox="0 0 24 24" id="battery_disabled_alt" xmlns="http://www.w3.org/2000/svg"><path d="M2.81 5.64 4.17 7H3.3c-.34.01-.67.15-.91.39-.25.24-.38.57-.39.91v7.3a1.318 1.318 0 0 0 .36.97c.12.13.26.24.43.31.16.07.33.11.51.12h10.87l4.19 4.19 1.42-1.41L4.22 4.22 2.81 5.64ZM12.17 15H4V9h2.17l6 6Zm9.73-5v4h-2v1.7c0 .34-.15.67-.39.91-.01.01-.02.02-.04.03l-1.65-1.65h.17v-6h-6.17l-2-2h8.87c.34 0 .67.15.91.39s.38.57.39.91v1.7h1.9Z"/></symbol><symbol viewBox="0 0 24 24" id="battery_large" xmlns="http://www.w3.org/2000/svg"><path fill-rule="evenodd" clip-rule="evenodd" d="M17.945 4.273C18 4.38 18 4.52 18 4.8V6h2c1.11 0 1.99.89 1.99 2L22 18c0 1.11-.89 2-2 2H4c-1.11 0-2-.89-2-2V8c0-1.11.89-2 2-2h2V4.8c0-.28 0-.42.054-.527a.5.5 0 0 1 .219-.218C6.38 4 6.52 4 6.8 4h2.4c.28 0 .42 0 .527.054a.5.5 0 0 1 .218.219C10 4.38 10 4.52 10 4.8V6h4V4.8c0-.28 0-.42.055-.527a.5.5 0 0 1 .218-.218C14.38 4 14.52 4 14.8 4h2.4c.28 0 .42 0 .527.054a.5.5 0 0 1 .218.219Z"/></symbol><symbol viewBox="0 0 24 24" id="battery_large_outline" xmlns="http://www.w3.org/2000/svg"><path fill-rule="evenodd" clip-rule="evenodd" d="M18.5 4.8c0-.28 0-.42-.055-.527a.5.5 0 0 0-.218-.218C18.12 4 17.98 4 17.7 4h-2.4c-.28 0-.42 0-.527.054a.5.5 0 0 0-.218.219c-.055.107-.055.247-.055.527V6h-5V4.8c0-.28 0-.42-.055-.527a.5.5 0 0 0-.218-.218C9.12 4 8.98 4 8.7 4H6.3c-.28 0-.42 0-.527.054a.5.5 0 0 0-.218.219C5.5 4.38 5.5 4.52 5.5 4.8V6H4c-1.11 0-2 .89-2 2v10c0 1.11.89 2 2 2h16c1.11 0 2-.89 2-2l-.01-10c0-1.11-.88-2-1.99-2h-1.5V4.8ZM4 18V8l15.99.002L20 18H4Z"/></symbol><symbol viewBox="0 0 24 24" id="battery_large_reset" xmlns="http://www.w3.org/2000/svg"><path d="M22 8a2 2 0 0 0-2-2h-1.5V4.8a1.37 1.37 0 0 0-.05-.53.58.58 0 0 0-.22-.22 1.37 1.37 0 0 0-.53 0h-2.4a1.37 1.37 0 0 0-.53 0 .58.58 0 0 0-.22.22 1.37 1.37 0 0 0-.05.53V6h-5V4.8a1.37 1.37 0 0 0-.05-.53.58.58 0 0 0-.22-.22A1.37 1.37 0 0 0 8.7 4H6.3a1.37 1.37 0 0 0-.53 0 .58.58 0 0 0-.22.22 1.37 1.37 0 0 0 0 .53V6H4a2 2 0 0 0-2 2v10a2 2 0 0 0 2 2h16a2 2 0 0 0 2-2ZM6.75 16.5l-2-2.5H6v-4h8v1.5H7.5V14h1.25ZM18 12v4h-8v-1.5h6.5V12h-1.25l2-2.5 2 2.5Z" fill-rule="evenodd"/><path fill="none" d="M0 0h24v24H0z"/></symbol><symbol viewBox="0 0 24 24" id="battery_large_reset_outline" xmlns="http://www.w3.org/2000/svg"><path d="M6 10h8v1.5H7.5V14h1.25l-2 2.5-2-2.5H6v-4ZM18 16v-4h1.25l-2-2.5-2 2.5h1.25v2.5H10V16h8Z"/><path fill-rule="evenodd" clip-rule="evenodd" d="M18.5 4.8c0-.28 0-.42-.055-.527a.5.5 0 0 0-.218-.218C18.12 4 17.98 4 17.7 4h-2.4c-.28 0-.42 0-.527.054a.5.5 0 0 0-.218.219c-.055.107-.055.247-.055.527V6h-5V4.8c0-.28 0-.42-.055-.527a.5.5 0 0 0-.218-.218C9.12 4 8.98 4 8.7 4H6.3c-.28 0-.42 0-.527.054a.5.5 0 0 0-.218.219C5.5 4.38 5.5 4.52 5.5 4.8V6H4c-1.11 0-2 .89-2 2v10c0 1.11.89 2 2 2h16c1.11 0 2-.89 2-2l-.01-10c0-1.11-.88-2-1.99-2h-1.5V4.8ZM4 18V8l15.99.002L20 18H4Z"/></symbol><symbol viewBox="0 0 24 24" id="battery_large_showing_terminals" xmlns="http://www.w3.org/2000/svg"><path d="M22 8a2 2 0 0 0-2-2h-2V4.8a1.37 1.37 0 0 0 0-.53.58.58 0 0 0-.22-.22 1.37 1.37 0 0 0-.53 0H14.8a1.37 1.37 0 0 0-.53 0 .58.58 0 0 0-.22.22 1.37 1.37 0 0 0-.05.53V6h-4V4.8a1.37 1.37 0 0 0 0-.53.58.58 0 0 0-.22-.22A1.37 1.37 0 0 0 9.2 4H6.8a1.37 1.37 0 0 0-.53 0 .58.58 0 0 0-.22.22A1.37 1.37 0 0 0 6 4.8V6H4a2 2 0 0 0-2 2v10a2 2 0 0 0 2 2h16a2 2 0 0 0 2-2Zm-11.5 6H9v1.5H7V14H5.5v-2H7v-1.5h2V12h1.5Zm7.5 0h-4v-2h4Z" fill-rule="evenodd"/><path fill="none" d="M0 0h24v24H0z"/></symbol><symbol viewBox="0 0 24 24" id="bearing" xmlns="http://www.w3.org/2000/svg"><g fill="currentColor"><path d="M12 2a10 10 0 1 0 10 10A10 10 0 0 0 12 2Zm5.67 15.64a1.5 1.5 0 1 0-2.13 0 1.49 1.49 0 0 0 2.13 0 8 8 0 0 1-11.28 0 1.5 1.5 0 1 0 0-2.13 1.49 1.49 0 0 0 0 2.13 8 8 0 0 1 0-11.28 1.5 1.5 0 1 0 2.13 0 1.49 1.49 0 0 0-2.13 0 8 8 0 0 1 11.28 0 1.5 1.5 0 1 0 0 2.13 1.49 1.49 0 0 0 0-2.13 8 8 0 0 1 0 11.28Z"/><path d="M12 7a5 5 0 1 0 5 5 5 5 0 0 0-5-5Zm0 8a3 3 0 1 1 3-3 3 3 0 0 1-3 3Z"/><circle cx="12" cy="5.5" r="1.5"/><circle cx="12" cy="18.5" r="1.5"/><circle cx="5.5" cy="12" r="1.5"/><circle cx="18.5" cy="12" r="1.5"/></g><path fill="none" d="M0 0h24v24H0z"/></symbol><symbol viewBox="0 0 24 24" id="breaker" xmlns="http://www.w3.org/2000/svg"><path fill="none" opacity=".01" d="M0 0h24v24H0z"/><path d="M1 14h6v2H1zM17 14h6v2h-6zM16.24 12.5a4.5 4.5 0 0 0-8.48 0l-2.83-1a7.5 7.5 0 0 1 14.14 0Z"/></symbol><symbol viewBox="0 0 24 24" id="breaker_closed" xmlns="http://www.w3.org/2000/svg"><path d="M16.226 16c-.187-.755-.872-1.645-1.631-2.18a4.507 4.507 0 0 0-5.19 0c-.759.535-1.286 1.186-1.63 2.18H1v-1.995h4.36a7.508 7.508 0 0 1 10.969-2.632c1.266.893 1.99 1.957 2.311 2.632H23V16h-6.774Z"/></symbol><symbol viewBox="0 0 24 24" id="camera" xmlns="http://www.w3.org/2000/svg"><path d="M18.15 4.94A2.09 2.09 0 0 0 17 5.2l-8.65 5a2 2 0 0 0-.73 2.74l1.5 2.59a2 2 0 0 0 2.73.74l1.8-1a2.49 2.49 0 0 0 1.16 1V18a2 2 0 0 0 2 2H22v-2h-5.19v-1.73A2.49 2.49 0 0 0 18 12.73l2.53-1.46a2 2 0 0 0 .74-2.74l-1.5-2.59a2 2 0 0 0-1.59-1M6.22 13.17l-4.22.7.75 1.3 2 3.46.75 1.3 2.72-3.3Z"/><path fill="none" d="M0 0h24v24H0z"/></symbol><symbol viewBox="0 0 24 24" id="capacitor_large" xmlns="http://www.w3.org/2000/svg"><path fill="none" d="M0 0h24v24H0z"/><path d="M17 4h-1V2h-3v2h-2V2H8v2H7a2 2 0 0 0-2 2v14a2 2 0 0 0 2 2h10a2 2 0 0 0 2-2V6a2 2 0 0 0-2-2Z"/></symbol><symbol viewBox="0 0 24 24" id="capacitor_symbol" xmlns="http://www.w3.org/2000/svg"><path d="M22 11h-7.4c.1-1.6.5-3.1 1.2-4.6L14 5.5c-2 4-2 8.9 0 12.9l1.8-.9c-.7-1.4-1.1-3-1.2-4.6H22V11ZM9 11H2v2h7v6h2V5H9v6Z"/></symbol><symbol viewBox="0 0 24 24" id="champ_vmvl" xmlns="http://www.w3.org/2000/svg"><path d="M6 20h12c-1.6 1.24-3.7 2-6 2s-4.4-.76-6-2ZM21 5v2h-1v1c0 1.1-.9 2-2 2v1c1.1 0 2 .9 2 2v6H4v-6c0-1.1.9-2 2-2v-1c-1.1 0-2-.9-2-2V7H3V5h1V4c0-1.1.9-2 2-2h12c1.1 0 2 .9 2 2v1h1ZM7.5 13H6v4h1.5v-4Zm3.5 0H9.5v4H11v-4Zm3.5 0H13v4h1.5v-4Zm3.5 0h-1.5v4H18v-4Zm0-9H6v4h12V4Z"/></symbol><symbol viewBox="0 0 24 24" id="computer" xmlns="http://www.w3.org/2000/svg"><path d="M8 2h8a2 2 0 0 1 2 2v16a2 2 0 0 1-2 2H8a2 2 0 0 1-2-2V4a2 2 0 0 1 2-2m0 2v2h8V4H8m8 4H8v2h8V8m0 10h-2v2h2Z"/><path fill="none" d="M0 0h24v24H0z"/></symbol><symbol viewBox="0 0 24 24" id="contactor" xmlns="http://www.w3.org/2000/svg"><path d="M13 8V3h-2v5H2v3h20V8h-9zM2 16h9v5h2v-5h9v-3H2v3z"/><path fill="none" d="M0 0h24v24H0z"/></symbol><symbol viewBox="0 0 24 24" id="device" xmlns="http://www.w3.org/2000/svg"><path d="M19 3H5a2 2 0 0 0-2 2v14a2 2 0 0 0 2 2h14a2 2 0 0 0 2-2V5a2 2 0 0 0-2-2Zm0 14a2 2 0 0 1-2 2 2 2 0 0 1-2-2 2 2 0 0 1 2-2 2 2 0 0 1 2 2Zm0-10.5A1.5 1.5 0 0 1 17.5 8h-11A1.5 1.5 0 0 1 5 6.5 1.5 1.5 0 0 1 6.5 5h11A1.5 1.5 0 0 1 19 6.5Z"/><path fill="none" d="M0 0h24v24H0z"/></symbol><symbol viewBox="0 0 24 24" id="device_info" xmlns="http://www.w3.org/2000/svg"><path fill-rule="evenodd" clip-rule="evenodd" d="M19 12c-3.9 0-7 3.1-7 7 0 .7.1 1.4.3 2H5c-1.1 0-2-.9-2-2V5c0-1.1.9-2 2-2h14c1.1 0 2 .9 2 2v7.3c-.6-.2-1.3-.3-2-.3ZM5 5v3h14V5H5Z"/><path d="M18 16a1 1 0 1 0 0-2 1 1 0 0 0 0 2ZM19 17h-2v4h2v-4Z"/></symbol><symbol viewBox="0 0 24 24" id="device_with_keypad" xmlns="http://www.w3.org/2000/svg"><path fill="none" d="M0 0h24v24H0z"/><path d="M17 3H7c-1.1 0-2 .9-2 2v14c0 1.1.9 2 2 2h10c1.1 0 2-.9 2-2V5c0-1.1-.9-2-2-2ZM9 19H7v-2h2v2Zm0-4H7v-2h2v2Zm8 4h-6v-2h6v2Zm-6-4v-2h2v2h-2Zm6 0h-2v-2h2v2Zm0-4H7V5h10v6Z" fill-rule="evenodd"/></symbol><symbol viewBox="0 0 24 24" id="diode" xmlns="http://www.w3.org/2000/svg"><path d="M22 11h-6V8h-2v3h-1L6 7v4H2v2h4v4l7-4h1v3h2v-3h6v-2Z"/></symbol><symbol viewBox="0 0 24 24" id="distribution_box" xmlns="http://www.w3.org/2000/svg"><path d="M8 18h2v3H8v-3ZM12 18h2v3h-2v-3Z"/><path fill-rule="evenodd" clip-rule="evenodd" d="M5 5a2 2 0 0 1 2-2h11a2 2 0 0 1 2 2v3h-2v5h2v3a2 2 0 0 1-2 2H7a2 2 0 0 1-2-2V5Zm8 2-3 4h2v3l3-4h-2V7Z"/><path d="M19 9h2v3h-2V9ZM4 6h2v3H4V6ZM4 12h2v3H4v-3Z"/></symbol><symbol viewBox="0 0 24 24" id="distribution_box_outline" xmlns="http://www.w3.org/2000/svg"><path d="M20 5v3h-2V5H7v11h11v-3h2v3a2 2 0 0 1-2 2h-4v3h-2v-3h-2v3H8v-3H7a2 2 0 0 1-2-2v-1H4v-3h1V9H4V6h1V5a2 2 0 0 1 2-2h11a2 2 0 0 1 2 2Zm-2 7h2V9h-2Zm-3-2h-2V7l-3 4h2v3Z"/><path fill="none" d="M0 0h24v24H0z"/></symbol><symbol viewBox="0 0 24 24" id="drive" xmlns="http://www.w3.org/2000/svg"><path d="m10.35 5.06-.7-.71L12 2l2.35 2.35-.7.71L12 3.41Zm3.3 6.88L12 13.59l-1.65-1.65-.7.71L12 15l2.35-2.35Zm2.56-1.09 2.36-2.35-2.36-2.36-.7.71 1.64 1.65-1.64 1.64Zm-7.72-.71L6.85 8.5l1.64-1.65-.7-.71L5.43 8.5l2.36 2.35ZM10 18a4 4 0 1 1-4-4 4 4 0 0 1 4 4Zm-3.25-3h-1.5v6h1.5ZM18 16a2 2 0 1 0 2 2 2 2 0 0 0-2-2Zm4 2a4 4 0 1 1-4-4 4 4 0 0 1 4 4Zm-1 0a3 3 0 1 0-3 3 3 3 0 0 0 3-3Z" fill-rule="evenodd"/><path fill="none" d="M0 0h24v24H0z"/></symbol><symbol viewBox="0 0 24 24" id="ephesus_fixture" xmlns="http://www.w3.org/2000/svg"><path fill="none" d="M0 0h24v24H0z"/><path d="M20.27 7.52c-1.65-1.35-4.37-1.83-6.27-2-.9-.08-1.61-.1-1.94-.1h-.12c-1 0-5.77.11-8.21 2.1 0 0-1.73 1.25-1.73 4.87s1.53 4.95 1.53 4.95 1 1.05 4.07 1.66l.87.15h.07l.88.11h.18l.9.07h3l.9-.07h.18l.88-.11h.07l.87-.15c3.08-.61 4.07-1.66 4.07-1.66S22 16 22 12.39s-1.73-4.87-1.73-4.87ZM6 17a2 2 0 1 1 2-2 2 2 0 0 1-2 2Zm0-5a2 2 0 1 1 2-2 2 2 0 0 1-2 2Zm6 6a2 2 0 1 1 2-2 2 2 0 0 1-2 2Zm0-7a2 2 0 1 1 2-2 2 2 0 0 1-2 2Zm6 6a2 2 0 1 1 2-2 2 2 0 0 1-2 2Zm0-5a2 2 0 1 1 2-2 2 2 0 0 1-2 2ZM16 3a1 1 0 0 0-2 0v1.51c.61 0 1.29.13 2 .26ZM5.82 19.59 6.56 21a2 2 0 0 0 1.75 1h7.38a2 2 0 0 0 1.75-1l.74-1.36a22.42 22.42 0 0 1-6.19.83 22.31 22.31 0 0 1-6.17-.88Z"/></symbol><symbol viewBox="0 0 24 24" id="ephesus_gateway" xmlns="http://www.w3.org/2000/svg"><path fill="none" d="M0 0h24v24H0z"/><path d="M18 2H6a2 2 0 0 0-2 2v16a2 2 0 0 0 2 2h12a2 2 0 0 0 2-2V4a2 2 0 0 0-2-2ZM8.78 3l.62 1a3 3 0 0 0 5.2 0l.62-1h1.16l-.92 1.54a4 4 0 0 1-6.92 0L7.62 3Zm4.93 9.52-1.37.88a.64.64 0 0 1-.68 0l-1.37-.88a.61.61 0 0 1 0-1l1.37-.88a.64.64 0 0 1 .68 0l1.37.88a.61.61 0 0 1 0 1ZM5 18.71v-1.42l1.61-1.61a3 3 0 0 0 .89-2.14V9.7a3 3 0 0 0-1.14-2.37L5 6.24V5l2 1.55A4 4 0 0 1 8.5 9.7v3.84a4 4 0 0 1-1.18 2.85ZM15.22 21l-.62-1a3 3 0 0 0-5.2 0l-.62 1H7.62l.92-1.54a4 4 0 0 1 6.92 0l.92 1.54ZM19 6.24l-1.36 1.09A3 3 0 0 0 16.5 9.7v3.84a3 3 0 0 0 .89 2.14L19 17.29v1.42l-2.32-2.32a4 4 0 0 1-1.18-2.85V9.7A4 4 0 0 1 17 6.55L19 5Z"/></symbol><symbol fill="none" viewBox="0 0 24 24" id="ethernet_port" xmlns="http://www.w3.org/2000/svg"><path d="M7 15h2v3h2v-3h2v3h2v-3h2v3h2V9h-4V6H9v3H5v9h2v-3ZM4.38 3h15.25A2.37 2.37 0 0 1 22 5.38v14.25A2.37 2.37 0 0 1 19.63 22H4.38A2.37 2.37 0 0 1 2 19.63V5.38C2 4.06 3.06 3 4.38 3Z"/></symbol><symbol viewBox="0 0 24 24" id="fan" xmlns="http://www.w3.org/2000/svg"><path fill="none" d="M0 0h24v24H0z"/><path d="M12 11a1 1 0 1 0 1 1 1 1 0 0 0-1-1m.5-9c4.5 0 4.6 3.57 2.23 4.75a3.36 3.36 0 0 0-1.62 2.47 3.17 3.17 0 0 1 1.23.91C18 8.13 22 8.92 22 12.5c0 4.5-3.58 4.6-4.75 2.23a3.44 3.44 0 0 0-2.5-1.62 3.24 3.24 0 0 1-.91 1.23c2 3.69 1.2 7.66-2.38 7.66-4.46 0-4.57-3.58-2.2-4.76a3.46 3.46 0 0 0 1.62-2.45 3 3 0 0 1-1.25-.92C5.94 15.85 2 15.07 2 11.5 2 7 5.54 6.89 6.72 9.26a3.39 3.39 0 0 0 2.48 1.61 2.91 2.91 0 0 1 .92-1.22C8.13 6 8.92 2 12.48 2Z"/></symbol><symbol viewBox="0 0 24 24" id="fan_circled" xmlns="http://www.w3.org/2000/svg"><path fill-rule="evenodd" clip-rule="evenodd" d="M12 3.482a8.519 8.519 0 1 0 0 17.037 8.519 8.519 0 0 0 0-17.037ZM2 12C2 6.477 6.477 2 12 2s10 4.477 10 10-4.477 10-10 10S2 17.523 2 12Z"/><path d="M12 11.3a.7.7 0 1 0 0 1.4.7.7 0 0 0 0-1.4Zm.35-6.3c3.15 0 3.22 2.499 1.561 3.325a2.352 2.352 0 0 0-1.134 1.729c.335.139.63.358.861.637C16.2 9.291 19 9.844 19 12.35c0 3.15-2.506 3.22-3.325 1.561a2.408 2.408 0 0 0-1.75-1.134c-.14.334-.359.629-.637.861 1.4 2.583.84 5.362-1.666 5.362-3.122 0-3.199-2.506-1.54-3.332a2.423 2.423 0 0 0 1.134-1.715 2.1 2.1 0 0 1-.875-.644C7.758 14.695 5 14.149 5 11.65c0-3.15 2.478-3.227 3.304-1.568a2.373 2.373 0 0 0 1.736 1.127c.135-.337.357-.632.644-.854C9.291 7.8 9.844 5 12.336 5h.014Z"/></symbol><symbol viewBox="0 0 24 24" id="generator" xmlns="http://www.w3.org/2000/svg"><path d="M12 2a10 10 0 1 0 10 10A10 10 0 0 0 12 2Zm4.39 14.9a11.67 11.67 0 0 1-1.94.47 12.92 12.92 0 0 1-1.86.13 4.77 4.77 0 0 1-3.71-1.42A5.89 5.89 0 0 1 7.61 12a5.39 5.39 0 0 1 1.48-4 5.61 5.61 0 0 1 4.11-1.5 7.91 7.91 0 0 1 3.18.66L15.63 9a5.44 5.44 0 0 0-2.44-.58 3 3 0 0 0-2.36 1A3.85 3.85 0 0 0 9.94 12a4.28 4.28 0 0 0 .72 2.67 2.46 2.46 0 0 0 2.07.91 7.06 7.06 0 0 0 1.45-.14v-2.21h-2v-1.89h4.24Z"/></symbol><symbol viewBox="0 0 24 24" id="generator_off" xmlns="http://www.w3.org/2000/svg"><path d="m1 3.54 2.78 2.78a10 10 0 0 0 13.9 13.9L20.46 23l1.27-1.27L2.27 2.27Zm13.45 13.83a12.73 12.73 0 0 1-1.86.13 4.74 4.74 0 0 1-3.71-1.42A5.93 5.93 0 0 1 7.61 12a7.12 7.12 0 0 1 .19-1.65l2.2 2.16a4 4 0 0 0 .69 2.19 2.45 2.45 0 0 0 2.07.91h.33l1.71 1.71ZM13.2 6.5a8 8 0 0 1 3.18.66L15.63 9a5.43 5.43 0 0 0-2.44-.58 3.17 3.17 0 0 0-1.77.49l2.46 2.46h2.51v2.51l3.83 3.83A10 10 0 0 0 6.32 3.78l3.55 3.55a6.23 6.23 0 0 1 3.33-.83Z"/><path fill="none" d="M0 0h24v24H0z"/></symbol><symbol viewBox="0 0 24 24" id="meter_face" xmlns="http://www.w3.org/2000/svg"><path d="M19 3H5a2 2 0 0 0-2 2v14a2 2 0 0 0 2 2h14a2 2 0 0 0 2-2V5a2 2 0 0 0-2-2Zm-9 16a1 1 0 1 1 1-1 1 1 0 0 1-1 1Zm4 0a1 1 0 1 1 1-1 1 1 0 0 1-1 1Zm4 0a1 1 0 1 1 1-1 1 1 0 0 1-1 1Zm1-4H5V5h14Zm-2-6h-5V7h5Zm0 4H9v-2h8Z" fill-rule="evenodd"/><path fill="none" d="M0 0h24v24H0z"/></symbol><symbol viewBox="0 0 24 24" id="motor" xmlns="http://www.w3.org/2000/svg"><path d="M12 2a10 10 0 1 0 10 10A10 10 0 0 0 12 2Zm4.89 14.5h-2.13v-4.41c0-.23 0-.82.08-1.75h-.05l-1.73 6.16h-2.2l-1.75-6.17h-.06a18.74 18.74 0 0 1 .13 2.45v3.72H7.12V7.93h3.09L12 14l1.79-6.07h3.1Z" fill-rule="evenodd"/><path fill="none" d="M0 0h24v24H0z"/></symbol><symbol viewBox="0 0 24 24" id="motor_alt" xmlns="http://www.w3.org/2000/svg"><path d="M18 9.5V8h-1V7a2 2 0 0 0-2-2H4a2 2 0 0 0-2 2v7a2 2 0 0 0 2 2h11a2 2 0 0 0 2-2v-1h1v-1.5h4v-2ZM14 14H5v-1h9Zm0-2H5v-1h9Zm0-2H5V9h9Zm0-2H5V7h9ZM3 17h13v2H3Z"/><path fill="none" d="M0 0h24v24H0z"/></symbol><symbol viewBox="0 0 24 24" id="motor_controller" xmlns="http://www.w3.org/2000/svg"><path d="M17 5.06A7 7 0 0 0 9.07 11H7v-1a2 2 0 0 0-2-2H3a2 2 0 0 0-2 2v4a2 2 0 0 0 2 2h2a2 2 0 0 0 2-2v-1h2.07A7 7 0 1 0 17 5.06ZM19.25 15h-1.41v-2.94c0-.16 0-.55.05-1.17L16.71 15h-1.47l-1.17-4.11c0 .7.08 1.24.08 1.63V15h-1.4V9.29h2.05l1.2 4.05 1.2-4.05h2.05Z" fill-rule="evenodd"/><path fill="none" d="M0 0h24v24H0z"/></symbol><symbol viewBox="0 0 24 24" id="motor_controller_outline" xmlns="http://www.w3.org/2000/svg"><path d="M17.2 9.29h2.05V15h-1.41v-2.94c0-.16 0-.55.05-1.17L16.71 15h-1.47l-1.17-4.11c.05.7.08 1.24.08 1.63V15h-1.4V9.29h2.05l1.2 4.05ZM23 12a7 7 0 0 1-13.93 1H7v1a2 2 0 0 1-2 2H3a2 2 0 0 1-2-2v-4a2 2 0 0 1 2-2h2a2 2 0 0 1 2 2v1h2.07A7 7 0 0 1 23 12Zm-1.5 0a5.5 5.5 0 1 0-5.5 5.5 5.5 5.5 0 0 0 5.5-5.5Z" fill-rule="evenodd"/><path fill="none" d="M0 0h24v24H0z"/></symbol><symbol viewBox="0 0 24 24" id="motor_outline" xmlns="http://www.w3.org/2000/svg"><path d="M12 2a10 10 0 1 0 10 10A10 10 0 0 0 12 2Zm0 18a8 8 0 1 1 8-8 8 8 0 0 1-8 8Zm1.75-12.09h3.09v8.59h-2.09v-4.41c0-.24 0-.82.08-1.75h-.05l-1.72 6.16h-2.2l-1.75-6.17h-.06c.08 1.05.13 1.87.13 2.45v3.72H7.12V7.93h3.09L12 14Z" fill-rule="evenodd"/><path fill="none" d="M0 0h24v24H0z"/></symbol><symbol viewBox="0 0 24 24" id="motor_starter" xmlns="http://www.w3.org/2000/svg"><path d="M8.75 10h-1.5v4h1.5v-4ZM18 12a2 2 0 1 1-4 0 2 2 0 0 1 4 0Z"/><path fill-rule="evenodd" clip-rule="evenodd" d="M19 7H5c-1.1 0-2 .9-2 2v6c0 1.1.9 2 2 2h14c1.1 0 2-.9 2-2V9c0-1.1-.9-2-2-2ZM8 15c-1.7 0-3-1.3-3-3s1.3-3 3-3 3 1.3 3 3-1.3 3-3 3Zm8 0c-1.7 0-3-1.3-3-3s1.3-3 3-3 3 1.3 3 3-1.3 3-3 3Z"/></symbol><symbol viewBox="0 0 24 24" id="network_switch" xmlns="http://www.w3.org/2000/svg"><path d="M13 18h1a1 1 0 0 1 1 1h7v2h-7a1 1 0 0 1-1 1h-4a1 1 0 0 1-1-1H2v-2h7a1 1 0 0 1 1-1h1v-2H8a1 1 0 0 1-1-1V3a1 1 0 0 1 1-1h8a1 1 0 0 1 1 1v12a1 1 0 0 1-1 1h-3v2m0-12h1V4h-1v2M9 4v2h2V4H9m0 4v2h2V8H9m0 4v2h2v-2Z"/><path fill="none" d="M0 0h24v24H0z"/></symbol><symbol viewBox="0 0 24 24" id="outlet_alt" xmlns="http://www.w3.org/2000/svg"><path d="M10 12H8V7h2v5Zm6-4.5h-2v4h2v-4Zm-2.5 8.75a1.499 1.499 0 0 0-2.56-1.06c-.28.28-.44.66-.44 1.06V17h3v-.75ZM22 4v16c0 1.1-.9 2-2 2H4c-1.1 0-2-.9-2-2V4c0-1.1.9-2 2-2h16c1.1 0 2 .9 2 2Zm-2 0H4v16h16V4Z" fill-rule="evenodd"/></symbol><symbol viewBox="0 0 24 24" id="outlet_alt_off" xmlns="http://www.w3.org/2000/svg"><path d="M2.67 2.5 1.59 1.41.17 2.83 2 4.66V20c0 1.1.9 2 2 2h15.34l2.04 2.04 1.42-1.41L2.67 2.5ZM4 20V6.66l4 4V12h1.34l2.76 2.76s-.07-.01-.1-.01a1.499 1.499 0 0 0-1.5 1.5V17h3v-.75s0-.07-.01-.1L17.34 20H4ZM22 4v15l-2-2V4H7L5 2h15c1.1 0 2 .9 2 2Z"/><path d="M16 7.5v4h-1.5L14 11V7.5h2z"/></symbol><symbol viewBox="0 0 24 24" id="outlet_c14" xmlns="http://www.w3.org/2000/svg"><path d="M21.63 9.48 17.6 3.84c-.38-.53-.98-.84-1.63-.84H8.03c-.65 0-1.25.31-1.63.84L2.37 9.48c-.24.34-.37.74-.37 1.16V18c0 1.1.9 2 2 2h16c1.1 0 2-.9 2-2v-7.36c0-.42-.13-.82-.37-1.16ZM20 18H4v-7.36L8.03 5h7.94L20 10.64V18Zm-2-2h-2v-5h2v5ZM6 11h2v5H6v-5Zm5-4h2v5h-2V7Z" fill-rule="evenodd"/></symbol><symbol viewBox="0 0 24 24" id="outlet_c14_off" xmlns="http://www.w3.org/2000/svg"><path d="M2.59 2.41 1.17 3.83l3.05 3.05-1.85 2.6c-.24.34-.37.74-.37 1.16V18c0 1.1.9 2 2 2h13.34l3.63 3.63 1.41-1.42L2.59 2.41ZM4 18v-7.36l1.66-2.32L15.34 18H4ZM8.02 5.02 6.6 3.6c.37-.38.89-.6 1.43-.6h7.94c.65 0 1.25.31 1.63.84l4.03 5.64c.24.34.37.74.37 1.16V18c0 .29-.06.57-.18.82L20 17v-6.36L15.97 5H8.03v.02ZM15.99 13v-2h2v4l-2-2Zm-5-5V7h2v3l-2-2Zm-3 8h-2v-5h2v5Z"/></symbol><symbol viewBox="0 0 24 24" id="outlet_c19" xmlns="http://www.w3.org/2000/svg"><path d="M20 4H4c-1.1 0-2 .9-2 2v12c0 1.1.9 2 2 2h16c1.1 0 2-.9 2-2V6c0-1.1-.9-2-2-2Zm0 14H4V6h16v12Zm-6-7h-4V9h4v2Zm-4 4H6v-2h4v2Zm4-2h4v2h-4v-2Z"/></symbol><symbol viewBox="0 0 24 24" id="outlet_c19_off" xmlns="http://www.w3.org/2000/svg"><path d="m14 13.83-4-4-7.41-7.42-1.41 1.41 1.13 1.13c-.19.3-.3.66-.3 1.04v12c0 1.1.9 2 2 2h13.34l3.63 3.63 1.41-1.41L14 13.83ZM4 18V6.66L15.34 18H4ZM9 6 7 4h13c1.1 0 2 .9 2 2v12c0 .29-.06.57-.18.82L20 17V6H9Zm9 9-2-2h2v2Zm-4-4-2-2h2v2Zm-4 4H6v-2h4v2Z"/></symbol><symbol viewBox="0 0 24 24" id="outlet_c39" xmlns="http://www.w3.org/2000/svg"><path d="M20 4H4c-1.1 0-2 .9-2 2v12c0 1.1.9 2 2 2h16c1.1 0 2-.9 2-2V6c0-1.1-.9-2-2-2ZM4 6h1.33L4 7.33V6Zm16 12H4v-7.84L8.16 6h7.68L20 10.16V18Zm0-10.67L18.67 6H20v1.33ZM9 14h1v2H6v-2h1v-2h2v2Zm8-2v2h1v2h-4v-2h1v-2h2Zm-3-2h-1v2h-2v-2h-1V8h4v2Z"/></symbol><symbol viewBox="0 0 24 24" id="outlet_c39_off" xmlns="http://www.w3.org/2000/svg"><path d="M4.17 4 2.59 2.41 1.17 3.83 2.3 4.96c-.19.3-.3.66-.3 1.04v12c0 1.1.9 2 2 2h13.34l3.63 3.63 1.41-1.42L4.17 4ZM4 6.66l.34.34-.34.33v-.67ZM4 18v-7.84l1.75-1.75L15.34 18H4ZM15.84 6 20 10.16V17l1.82 1.82c.12-.25.18-.53.18-.82V6c0-1.1-.9-2-2-2H7l2 2h6.84ZM20 6v1.33L18.67 6H20Zm-7 4-2-2h3v2h-1Zm5 5-1-1h1v1Zm-1-3v2l-2-2h2Zm-7 4H6v-2h1v-2h2v2h1v2Z"/></symbol><symbol viewBox="0 0 24 24" id="pdu" xmlns="http://www.w3.org/2000/svg"><path d="M22 9H2a2 2 0 0 0-2 2v2a2 2 0 0 0 2 2h20a2 2 0 0 0 2-2v-2a2 2 0 0 0-2-2ZM3 13H2v-2h1Zm3 0H4v-2h2Zm4 0H8v-2h2Zm4 0h-2v-2h2Zm4 0h-2v-2h2Zm4 0h-2v-2h2Z"/><path fill="none" d="M0 0h24v24H0z"/></symbol><symbol viewBox="0 0 24 24" id="pump" xmlns="http://www.w3.org/2000/svg"><path fill="none" opacity=".01" d="M0 0h24v24H0z"/><path d="M18 12a6 6 0 0 0-5.74-6l3-3-1.43-1.39-6.11 6.11a6 6 0 0 0 4 10.23l-3 3 1.42 1.41 6.11-6.11A6 6 0 0 0 18 12Zm-6 4a4 4 0 1 1 4-4 4 4 0 0 1-4 4Z"/></symbol><symbol xml:space="preserve" viewBox="0 0 24 24" id="radio_handheld" xmlns="http://www.w3.org/2000/svg"><path d="M9 2c-.55 0-1 .45-1 1v17c0 1.11.89 2 2 2h5c1.11 0 2-.89 2-2V9c0-1.11-.89-2-2-2h-5V3c0-.55-.45-1-1-1m1 7h5v4h-5V9z"/><path fill="none" d="M0 0h24v24H0z"/></symbol><symbol viewBox="0 0 24 24" id="relay" xmlns="http://www.w3.org/2000/svg"><path d="M19.5 7h-7V4h-2v3h-7a2 2 0 0 0-2 2v6a2 2 0 0 0 2 2h7v3h2v-3h7a2 2 0 0 0 2-2V9a2 2 0 0 0-2-2Zm-16 8V9h9.59l-6 6Zm16 0H9.91l6-6h3.59Z" fill-rule="evenodd"/><path fill="none" d="M0 0h24v24H0z"/></symbol><symbol viewBox="0 0 24 24" id="rfid" xmlns="http://www.w3.org/2000/svg"><path d="M6.62 16.441V18H5.463v-4.283h1.403c1.164 0 1.746.422 1.746 1.265 0 .497-.242.88-.726 1.152L9.134 18H7.82l-.908-1.559H6.62Zm0-.87h.217c.404 0 .606-.178.606-.536 0-.295-.198-.442-.594-.442H6.62v.978ZM10.663 18h-1.14v-4.283h2.532v.928h-1.392v.818h1.283v.929h-1.283V18ZM12.758 18v-4.283h1.163V18h-1.163ZM18.485 15.768c0 .714-.197 1.265-.591 1.652-.393.387-.946.58-1.659.58H14.85v-4.283h1.482c.688 0 1.218.176 1.59.527.376.352.563.86.563 1.524Zm-1.2.04c0-.392-.079-.683-.235-.873-.155-.189-.39-.284-.706-.284h-.337v2.4h.258c.351 0 .609-.102.773-.305.164-.205.246-.517.246-.937ZM17 9a2 2 0 1 1-4 0 2 2 0 0 1 4 0Z"/><path d="M10.059 4 9 2H4a2 2 0 0 0-2 2v16a2 2 0 0 0 2 2h16a2 2 0 0 0 2-2v-5l-2-1.059V20H4V4h6.059ZM21.947 12.97A8 8 0 0 0 11.03 2.053l.992 1.737a6 6 0 0 1 8.188 8.188l1.737.992Z"/><path d="M19.342 11.481a5 5 0 0 0-6.823-6.823l.992 1.737a3 3 0 0 1 4.094 4.094l1.737.992Z"/></symbol><symbol viewBox="0 0 24 24" id="sensor" xmlns="http://www.w3.org/2000/svg"><path d="M10 12a5.94 5.94 0 0 1-1.76 4.24l-1.42-1.42A4 4 0 0 0 8 12a4 4 0 0 0-1.17-2.83l1.41-1.41A5.94 5.94 0 0 1 10 12Zm1.07-7.07L9.65 6.35a8 8 0 0 1 0 11.3l1.42 1.42a10 10 0 0 0 0-14.14ZM16 12a2 2 0 1 0 4 0 2 2 0 0 0-4 0ZM4 12l1.74 1.74a6 6 0 0 0 0-3.48L4 12Z"/></symbol><symbol viewBox="0 0 24 24" id="sensor_alt" xmlns="http://www.w3.org/2000/svg"><path d="M6 7.05 4.53 8.47a5 5 0 0 1 0 7.06L6 17a6.999 6.999 0 0 0 0-9.9v-.05ZM12 14a2 2 0 1 0 0-4 2 2 0 0 0 0 4ZM1.41 10.59l1.42-1.42a4 4 0 0 1 .867 4.361 4 4 0 0 1-.867 1.299l-1.42-1.42a2 2 0 0 0 0-2.82ZM18 12a5 5 0 0 1 1.47-3.53l-1.42-1.42a7 7 0 0 0 0 9.9l1.42-1.42A5 5 0 0 1 18 12ZM22.59 10.59A2 2 0 0 0 22 12a2 2 0 0 0 .59 1.41l-1.42 1.42a4 4 0 0 1 0-5.66l1.42 1.42Z"/></symbol><symbol viewBox="0 0 24 24" id="sensor_device" xmlns="http://www.w3.org/2000/svg"><path d="m14.83 1.83 1.41 1.41A5.939 5.939 0 0 1 12 5a5.94 5.94 0 0 1-4.24-1.76l1.42-1.42A4 4 0 0 0 12 3a4 4 0 0 0 2.83-1.17Z"/><path d="m17.65 4.65 1.42 1.42A10 10 0 0 1 12 9a10 10 0 0 1-7.07-2.93l1.42-1.42A7.94 7.94 0 0 0 12 7a7.94 7.94 0 0 0 5.65-2.35Z"/><path fill-rule="evenodd" clip-rule="evenodd" d="M18 11h-4a2 2 0 0 1-4 0H6a2 2 0 0 0-2 2v9h16v-9a2 2 0 0 0-2-2ZM6 18v-3h12v3H6Z"/><path d="M13 11a1 1 0 1 1-2 0 1 1 0 0 1 2 0Z"/></symbol><symbol viewBox="0 0 24 24" id="sensor_device_alt" xmlns="http://www.w3.org/2000/svg"><path d="m6.35 6.349-1.42-1.42a10 10 0 0 1 14.14 0l-1.42 1.42a8 8 0 0 0-11.3 0Z"/><path d="m9.17 9.169-1.41-1.41a6 6 0 0 1 8.48 0l-1.42 1.42A4 4 0 0 0 12 7.999a4 4 0 0 0-2.83 1.17Z"/><path fill-rule="evenodd" clip-rule="evenodd" d="M18 10.999h-4a2 2 0 1 1-4 0H6a2 2 0 0 0-2 2v9h16v-9a2 2 0 0 0-2-2Zm-12 7v-3h12v3H6Z"/><path d="M13 10.999a1 1 0 1 1-2 0 1 1 0 0 1 2 0Z"/></symbol><symbol viewBox="0 0 24 24" id="server" xmlns="http://www.w3.org/2000/svg"><path d="M20 8H4a2 2 0 0 0-2 2v4a2 2 0 0 0 2 2h16a2 2 0 0 0 2-2v-4a2 2 0 0 0-2-2ZM6 13H4v-2h2Zm3 0H8v-2h1Z"/><path fill="none" d="M0 0h24v24H0z"/></symbol><symbol viewBox="0 0 24 24" id="servers" xmlns="http://www.w3.org/2000/svg"><path d="M4 1h16a1 1 0 0 1 1 1v4a1 1 0 0 1-1 1H4a1 1 0 0 1-1-1V2a1 1 0 0 1 1-1m0 8h16a1 1 0 0 1 1 1v4a1 1 0 0 1-1 1H4a1 1 0 0 1-1-1v-4a1 1 0 0 1 1-1m0 8h16a1 1 0 0 1 1 1v4a1 1 0 0 1-1 1H4a1 1 0 0 1-1-1v-4a1 1 0 0 1 1-1M9 5h1V3H9v2m0 8h1v-2H9v2m0 8h1v-2H9v2M5 3v2h2V3H5m0 8v2h2v-2H5m0 8v2h2v-2Z"/><path fill="none" d="M0 0h24v24H0z"/></symbol><symbol viewBox="0 0 24 24" id="smoke_detector" xmlns="http://www.w3.org/2000/svg"><path d="M2 2v4a2 2 0 0 0 2 2h.3l.78 5.29a2 2 0 0 0 2 1.71h9.88a2 2 0 0 0 2-1.71L19.7 8h.3a2 2 0 0 0 2-2V2Zm14.94 11H7.06l-.74-5h11.36ZM20 6H4V4h16ZM9 12l-.5-3H10l.5 3Zm.17 7.31A2.68 2.68 0 0 1 9.8 21a2.59 2.59 0 0 1-.71 1.77 3.69 3.69 0 0 1-.46.41l-.16.11a.09.09 0 0 1-.06 0L8 22.62l-.38-.7h.07a1.24 1.24 0 0 0 .22-.2A1 1 0 0 0 8.2 21c0-.26-.09-.41-.34-.75a2.74 2.74 0 0 1-.63-1.67 3.15 3.15 0 0 1 .66-1.84 3.25 3.25 0 0 1 .42-.49l.14-.14h.05l.51.62.51.62-.08.08a2.33 2.33 0 0 0-.26.31 1.49 1.49 0 0 0-.35.89c0 .26.09.41.35.75Zm4 0A2.68 2.68 0 0 1 13.8 21a2.59 2.59 0 0 1-.71 1.77 3.69 3.69 0 0 1-.46.41l-.16.11a.09.09 0 0 1-.06 0l-.38-.7-.38-.7h.07a1.24 1.24 0 0 0 .22-.2 1 1 0 0 0 .26-.69c0-.26-.09-.41-.34-.75a2.74 2.74 0 0 1-.63-1.67 3.15 3.15 0 0 1 .66-1.84 3.25 3.25 0 0 1 .42-.49l.14-.14h.05l.51.62.51.62-.08.08a2.33 2.33 0 0 0-.26.31 1.49 1.49 0 0 0-.35.89c0 .26.09.41.35.75Zm4 0A2.68 2.68 0 0 1 17.8 21a2.59 2.59 0 0 1-.71 1.77 3.69 3.69 0 0 1-.46.41l-.16.11a.09.09 0 0 1-.06 0l-.38-.7-.38-.7h.07a1.24 1.24 0 0 0 .22-.2 1 1 0 0 0 .26-.69c0-.26-.09-.41-.34-.75a2.74 2.74 0 0 1-.63-1.67 3.15 3.15 0 0 1 .66-1.84 3.25 3.25 0 0 1 .42-.49l.14-.14.51.62.51.62-.08.08a2.33 2.33 0 0 0-.26.31 1.49 1.49 0 0 0-.35.89c0 .26.09.41.35.75Z" fill-rule="evenodd"/><path fill="none" d="M0 0h24v24H0z"/></symbol><symbol viewBox="0 0 24 24" id="ssol" xmlns="http://www.w3.org/2000/svg"><path fill="none" opacity=".01" d="M0 0h24v24H0z"/><path d="M14 10.54c-.68 0-1 .48-1 1.46s.34 1.45 1 1.45a.87.87 0 0 0 .76-.35A1.92 1.92 0 0 0 15 12a1.94 1.94 0 0 0-.25-1.11.85.85 0 0 0-.75-.35Z"/><path d="M20.27 6H3.73A1.74 1.74 0 0 0 2 7.73v8.54A1.74 1.74 0 0 0 3.73 18h16.54A1.74 1.74 0 0 0 22 16.27V7.73A1.74 1.74 0 0 0 20.27 6Zm-15 5.1a5.38 5.38 0 0 0 .82.42 2.31 2.31 0 0 1 .9.63 1.33 1.33 0 0 1 .25.84 1.51 1.51 0 0 1-.23.82 1.57 1.57 0 0 1-.68.56 2.46 2.46 0 0 1-1.05.2 3.89 3.89 0 0 1-.83-.07 3.13 3.13 0 0 1-.71-.24v-1.21a3.47 3.47 0 0 0 .81.31 2.68 2.68 0 0 0 .76.11.73.73 0 0 0 .44-.1.31.31 0 0 0 .14-.27.35.35 0 0 0 0-.18.63.63 0 0 0-.19-.15 7 7 0 0 0-.7-.32 3.41 3.41 0 0 1-.75-.45 1.3 1.3 0 0 1-.37-.48 1.79 1.79 0 0 1-.11-.64 1.28 1.28 0 0 1 .5-1.08 2.18 2.18 0 0 1 1.38-.39 3.85 3.85 0 0 1 1.58.36l-.41 1.05a2.94 2.94 0 0 0-1.21-.33.62.62 0 0 0-.38.1.27.27 0 0 0-.12.23.34.34 0 0 0 .15.28Zm3.9 0a5.38 5.38 0 0 0 .82.42 2.31 2.31 0 0 1 .9.63 1.33 1.33 0 0 1 .25.84 1.51 1.51 0 0 1-.23.82 1.57 1.57 0 0 1-.68.56 2.46 2.46 0 0 1-1.05.2 3.89 3.89 0 0 1-.83-.07 3.13 3.13 0 0 1-.71-.24v-1.21a3.47 3.47 0 0 0 .81.31 2.68 2.68 0 0 0 .76.11.73.73 0 0 0 .44-.1.31.31 0 0 0 .14-.27.35.35 0 0 0 0-.18.63.63 0 0 0-.19-.15 7 7 0 0 0-.66-.32 3.41 3.41 0 0 1-.79-.45 1.3 1.3 0 0 1-.37-.48 1.79 1.79 0 0 1-.11-.64 1.28 1.28 0 0 1 .5-1.08 2.18 2.18 0 0 1 1.38-.39 3.85 3.85 0 0 1 1.58.36l-.41 1.05a2.94 2.94 0 0 0-1.21-.33.62.62 0 0 0-.38.1.27.27 0 0 0-.12.23.34.34 0 0 0 .15.28Zm6.66 2.82a2.38 2.38 0 0 1-1.81.65 2.37 2.37 0 0 1-1.8-.66 2.68 2.68 0 0 1-.64-1.91 2.67 2.67 0 0 1 .62-1.9 2.39 2.39 0 0 1 1.8-.67 2.4 2.4 0 0 1 1.81.65 2.72 2.72 0 0 1 .63 1.92 2.72 2.72 0 0 1-.62 1.92Zm4.45.58H17v-5h1.35v3.9h1.93Z"/></symbol><symbol viewBox="0 0 24 24" id="switch" xmlns="http://www.w3.org/2000/svg"><path fill="none" d="M0 0h24v24H0z"/><path d="M23 14v2h-6v-2Zm-9-5.07-1.41-1.42-.7-.7-7.08 7.07-.1.12H1v2h6v-.07l7-7Z"/></symbol><symbol viewBox="0 0 24 24" id="switchgear" xmlns="http://www.w3.org/2000/svg"><path d="M20 4.5H4c-1.1 0-2 .9-2 2v11c0 1.1.9 2 2 2h16c1.1 0 2-.9 2-2v-11c0-1.1-.9-2-2-2ZM10 11h4v2h-4v-2Zm0 4h4v2.5h-4V15Zm4-6h-4V6.5h4V9ZM4 6.5h4V11H4V6.5ZM4 13h4v4.5H4V13Zm16 4.5h-4V15h4v2.5Zm0-4.5h-4v-2h4v2Zm0-4h-4V6.5h4V9Z"/></symbol><symbol viewBox="0 0 24 24" id="transformer" xmlns="http://www.w3.org/2000/svg"><path d="M8 2H7v2h1c.7 0 1.2.6 1.2 1.2S8.7 6.5 8 6.5H7v2h1c.7 0 1.2.6 1.2 1.2S8.7 11 8 11H3v2h5c.7 0 1.2.6 1.2 1.2s-.5 1.3-1.2 1.3H7v2h1c.7 0 1.2.6 1.2 1.2S8.7 20 8 20H7v2h1c1.8 0 3.2-1.5 3.2-3.2 0-.9-.4-1.7-.9-2.2.6-.6.9-1.4.9-2.2 0-.8-.4-1.7-.9-2.2.6-.6.9-1.4.9-2.2 0-.8-.4-1.7-.9-2.2.6-.6.9-1.4.9-2.2C11.2 3.5 9.8 2 8 2ZM16 13h5v-2h-5c-.7 0-1.2-.6-1.2-1.2s.6-1.2 1.2-1.2h1v-2h-1c-.7 0-1.2-.6-1.2-1.2S15.3 4 16 4h1V2h-1c-1.8 0-3.2 1.5-3.2 3.2 0 .9.4 1.7.9 2.2-.6.6-.9 1.4-.9 2.2 0 .8.4 1.7.9 2.2-.6.6-.9 1.4-.9 2.2 0 .8.4 1.7.9 2.2-.6.6-.9 1.4-.9 2.2 0 1.8 1.5 3.2 3.2 3.2h1v-2h-1c-.7 0-1.2-.6-1.2-1.2s.6-1.2 1.2-1.2h1v-2h-1c-.7 0-1.2-.6-1.2-1.2s.5-1 1.2-1Z"/></symbol><symbol viewBox="0 0 24 24" id="trip_curve" xmlns="http://www.w3.org/2000/svg"><path d="M17.73 19a2.13 2.13 0 0 0-.73-.73V14.5h-4v-1.77A2 2 0 0 0 12 9a1.81 1.81 0 0 0-.52.07L7.93 5.52A1.81 1.81 0 0 0 8 5a2 2 0 0 0-1-1.73V2H5v1.27A2 2 0 0 0 6 7a1.81 1.81 0 0 0 .52-.07l3.55 3.55A1.81 1.81 0 0 0 10 11a2 2 0 0 0 1 1.73v3.77h4v1.77A2 2 0 1 0 17.73 21H19v-2ZM6 6a1 1 0 1 1 1-1 1 1 0 0 1-1 1Zm6 6a1 1 0 1 1 1-1 1 1 0 0 1-1 1Zm4 9a1 1 0 1 1 1-1 1 1 0 0 1-1 1Z" fill-rule="evenodd"/><path fill="none" d="M0 0h24v24H0z"/></symbol><symbol viewBox="0 0 24 24" id="trip_curve_alt" xmlns="http://www.w3.org/2000/svg"><path fill-rule="evenodd" clip-rule="evenodd" d="M7 5.532V3H5v3.468l6 5V16.5h4V21h4v-2h-2v-4.5h-4v-3.968l-6-5Z"/></symbol><symbol viewBox="0 0 24 24" id="trip_unit" xmlns="http://www.w3.org/2000/svg"><path d="M18 2H6c-1.1 0-2 .9-2 2v16c0 1.1.9 2 2 2h12c1.1 0 2-.9 2-2V4c0-1.1-.9-2-2-2Zm-5 2h5v4h-5V4Zm-3 16H6v-6h2v4h2v2Zm8 0h-4v-4h-3v-3.6l-5-5V4h2v2.6l5 5V14h3v4h2v2Z"/></symbol><symbol viewBox="0 0 24 24" id="ups" xmlns="http://www.w3.org/2000/svg"><path d="M13.05 12.05a.56.56 0 0 1-.19.46.77.77 0 0 1-.51.17h-.26v-1.12h.37c.39 0 .59.17.59.49ZM22 18a2 2 0 0 1-2 2H4a2 2 0 0 1-2-2V8a2 2 0 0 1 2-2h2V4.8a1.37 1.37 0 0 1 0-.53.58.58 0 0 1 .22-.22A1.37 1.37 0 0 1 6.8 4h2.4a1.37 1.37 0 0 1 .53 0 .58.58 0 0 1 .22.22 1.37 1.37 0 0 1 .05.58V6h4V4.8a1.37 1.37 0 0 1 .05-.53.58.58 0 0 1 .22-.22 1.37 1.37 0 0 1 .53 0h2.4a1.37 1.37 0 0 1 .53 0 .58.58 0 0 1 .22.22 1.37 1.37 0 0 1 .05.53V6h2a2 2 0 0 1 2 2ZM9.53 10.5H8.1v2.92a1.13 1.13 0 0 1-.2.76.79.79 0 0 1-.63.23.78.78 0 0 1-.62-.24 1.08 1.08 0 0 1-.21-.75V10.5H5v3a1.83 1.83 0 0 0 .58 1.5 2.45 2.45 0 0 0 1.67.51A2.44 2.44 0 0 0 8.94 15a1.87 1.87 0 0 0 .59-1.48Zm5 1.55A1.4 1.4 0 0 0 14 10.9a2.39 2.39 0 0 0-1.51-.4h-1.83v5h1.43v-1.75h.4a2.23 2.23 0 0 0 1.51-.44 1.57 1.57 0 0 0 .5-1.26Zm2.25-.19a.28.28 0 0 1 .12-.22.73.73 0 0 1 .41-.09 3.53 3.53 0 0 1 1.28.31l.44-1a4.48 4.48 0 0 0-1.68-.35 2.48 2.48 0 0 0-1.46.38 1.19 1.19 0 0 0-.53 1 1.54 1.54 0 0 0 .12.63 1.27 1.27 0 0 0 .38.46 3.41 3.41 0 0 0 .78.42c.38.16.62.26.71.31a.8.8 0 0 1 .19.16.25.25 0 0 1 .06.17.3.3 0 0 1-.15.26.82.82 0 0 1-.47.1 3.57 3.57 0 0 1-.81-.1 5.08 5.08 0 0 1-.85-.31v1.17a3 3 0 0 0 .75.24 4.41 4.41 0 0 0 .88.07 2.9 2.9 0 0 0 1.05-.16 1.69 1.69 0 0 0 .72-.55A1.31 1.31 0 0 0 19 14a1.25 1.25 0 0 0-.27-.82 2.32 2.32 0 0 0-.95-.61 5.71 5.71 0 0 1-.87-.41.32.32 0 0 1-.16-.3Z" fill-rule="evenodd"/><path fill="none" d="M0 0h24v24H0z"/></symbol><symbol viewBox="0 0 24 24" id="ups_outline" xmlns="http://www.w3.org/2000/svg"><path d="M5.58 15A1.83 1.83 0 0 1 5 13.53v-3h1.44v2.92a1.08 1.08 0 0 0 .21.75.78.78 0 0 0 .62.24.79.79 0 0 0 .63-.23 1.13 1.13 0 0 0 .2-.76V10.5h1.43v3a1.87 1.87 0 0 1-.59 1.5 2.44 2.44 0 0 1-1.69.52A2.45 2.45 0 0 1 5.58 15Zm6.51.51h-1.43v-5h1.83a2.39 2.39 0 0 1 1.51.4 1.4 1.4 0 0 1 .5 1.15 1.57 1.57 0 0 1-.5 1.25 2.23 2.23 0 0 1-1.48.44h-.4Zm0-2.82h.26a.77.77 0 0 0 .51-.17.56.56 0 0 0 .19-.46c0-.32-.2-.49-.59-.49h-.37Zm4.83 2.82a2.9 2.9 0 0 0 1.08-.2 1.69 1.69 0 0 0 .72-.55A1.31 1.31 0 0 0 19 14a1.25 1.25 0 0 0-.27-.82 2.32 2.32 0 0 0-.95-.61 5.71 5.71 0 0 1-.87-.41.32.32 0 0 1-.16-.26.28.28 0 0 1 .12-.22.73.73 0 0 1 .41-.09 3.53 3.53 0 0 1 1.28.31l.44-1a4.48 4.48 0 0 0-1.68-.35 2.48 2.48 0 0 0-1.46.38 1.19 1.19 0 0 0-.53 1 1.54 1.54 0 0 0 .12.63 1.27 1.27 0 0 0 .38.46 3.41 3.41 0 0 0 .78.42c.38.16.62.26.71.31a.8.8 0 0 1 .19.16.25.25 0 0 1 .06.17.3.3 0 0 1-.15.26.82.82 0 0 1-.47.1 3.57 3.57 0 0 1-.81-.1 5.08 5.08 0 0 1-.85-.31v1.17a3 3 0 0 0 .75.24 4.41 4.41 0 0 0 .88.06ZM22 18a2 2 0 0 1-2 2H4a2 2 0 0 1-2-2V8a2 2 0 0 1 2-2h2V4.8a1.37 1.37 0 0 1 0-.53.58.58 0 0 1 .22-.22A1.37 1.37 0 0 1 6.8 4h2.4a1.37 1.37 0 0 1 .53 0 .58.58 0 0 1 .22.22 1.37 1.37 0 0 1 .05.58V6h4V4.8a1.37 1.37 0 0 1 .05-.53.58.58 0 0 1 .22-.22 1.37 1.37 0 0 1 .53 0h2.4a1.37 1.37 0 0 1 .53 0 .58.58 0 0 1 .22.22 1.37 1.37 0 0 1 .05.53V6h2a2 2 0 0 1 2 2ZM20 8H4v10h16Z" fill-rule="evenodd"/><path fill="none" d="M0 0h24v24H0z"/></symbol><symbol viewBox="0 0 24 24" id="utility" xmlns="http://www.w3.org/2000/svg"><path d="m20.93 20.63-4-10L15.94 8H18v2h2V6h-4.81l-1.5-4h-3.38l-1.5 4H4v4h2V8h2.06l-1 2.63-4 10 1.48 1.2 7.45-5 7.45 5ZM8.68 12h6.64l.08.2-3.4 2.26-3.4-2.26Zm3-8h.62l.75 2h-2.11Zm2.12 4 .75 2H9.44l.75-2ZM6.12 18.38l1.72-4.29 2.36 1.58Zm7.68-2.71 2.36-1.58 1.72 4.29Z" fill="currentColor"/><path fill="none" d="M0 0h24v24H0z"/></symbol><symbol viewBox="0 0 24 24" id="utility_disabled" xmlns="http://www.w3.org/2000/svg"><path d="m13.8 8 .75 2h-1.72l2 2h.49l.08.2-.22.15 4.06 4.07-2.31-5.79L15.94 8H18v2h2V6h-4.81l-1.5-4h-3.38L8.82 5.99 10.83 8h2.97Zm-2.12-4h.62l.75 2h-2.11l.74-2ZM2.81 2.81 1.4 4.22 4 6.83V10h2V8.83l1.26 1.26-4.2 10.54 1.48 1.2 7.45-5 6.12 4.11 1.67 1.67 1.41-1.42L2.81 2.81Zm3.31 15.57 1.72-4.29 2.36 1.58-4.08 2.71ZM8.6 12.2l.08-.2h.49l1.73 1.73-2.3-1.53Z" fill-rule="evenodd"/></symbol><symbol viewBox="0 0 24 24" id="vfd" xmlns="http://www.w3.org/2000/svg"><path d="M16.81 10.39h-.45v3.2h.34a1.24 1.24 0 0 0 1-.41 2 2 0 0 0 .33-1.25 1.79 1.79 0 0 0-.31-1.16 1.16 1.16 0 0 0-.91-.38Z"/><path d="M20.27 6H3.73A1.74 1.74 0 0 0 2 7.73v8.54A1.74 1.74 0 0 0 3.73 18h16.54A1.74 1.74 0 0 0 22 16.27V7.73A1.74 1.74 0 0 0 20.27 6ZM8 14.86H6.2L4.34 9.14h1.73L6.85 12a8.09 8.09 0 0 1 .26 1.34c0-.18.06-.41.11-.68s.11-.49.15-.65l.79-2.91h1.73Zm5.86-4.48H12v1.09h1.71v1.24H12v2.15h-1.5V9.14h3.38Zm5 3.7a3 3 0 0 1-2.22.78h-1.82V9.14h2a3 3 0 0 1 2.13.71 2.67 2.67 0 0 1 .74 2 3 3 0 0 1-.81 2.23Z"/><path fill="none" opacity=".01" d="M0 0h24v24H0z"/></symbol><symbol fill="none" viewBox="0 0 24 24" id="wind_turbine" xmlns="http://www.w3.org/2000/svg"><path d="M9 22v-1c0-.533.2-.979.6-1.337.4-.359.867-.58 1.4-.663v-7.15a2.875 2.875 0 0 1-.963-.575 3.363 3.363 0 0 1-.687-.875l-1.9.5a2.73 2.73 0 0 1-1.713-.15A1.728 1.728 0 0 1 4.7 9.55l4.35-1.1c.133-.683.45-1.25.95-1.7.5-.45 1.1-.7 1.8-.75l.6-2.25a2.503 2.503 0 0 1 .963-1.387c.475-.342 1.004-.446 1.587-.313l-1.25 4.5c.417.267.738.617.963 1.05a2.994 2.994 0 0 1 .262 2.038c-.05.208-.108.412-.175.612l1.35 1.4c.417.434.662.942.737 1.525.076.584-.087 1.075-.487 1.475l-3-3a.52.52 0 0 1-.162.113c-.059.025-.121.054-.188.087V19c.533.084 1 .304 1.4.663.4.358.6.804.6 1.337v1H9Zm3-11.5c.417 0 .77-.146 1.063-.437.291-.292.437-.646.437-1.063 0-.416-.146-.77-.438-1.062A1.447 1.447 0 0 0 12 7.5c-.417 0-.77.146-1.063.438A1.446 1.446 0 0 0 10.5 9c0 .417.146.771.438 1.063.291.291.645.437 1.062.437Z"/></symbol><symbol viewBox="0 0 24 24" id="xstorage" xmlns="http://www.w3.org/2000/svg"><path d="M0 0h24v24H0Z" fill="none"/><path d="M18 2H6a2 2 0 0 0-2 2v16a2 2 0 0 0 2 2h11l3-3V4a2 2 0 0 0-2-2Zm-6 17c-2.76 0-5-3.13-5-7s2.24-7 5-7 5 3.13 5 7-2.24 7-5 7Z"/></symbol><symbol viewBox="0 0 24 24" id="xstorage_alt" xmlns="http://www.w3.org/2000/svg"><path d="M0 0h24v24H0Z" fill="none"/><path d="M18 2H6a2 2 0 0 0-2 2v16a2 2 0 0 0 2 2h11l3-3V4a2 2 0 0 0-2-2Z"/></symbol></svg>