<?xml version="1.0" encoding="utf-8"?><svg xmlns="http://www.w3.org/2000/svg" xmlns:xlink="http://www.w3.org/1999/xlink"><symbol viewBox="0 0 24 24" id="add_chart" xmlns="http://www.w3.org/2000/svg"><path d="M0 0h24v24H0V0z" fill="none"/><path d="M6 9.99h2v7H6zm8 3h2v4h-2zm-4-6h2v10h-2zM20 7V4h-2v3h-3v2h3v3h2V9h3V7zm-2 12H4V5h12V3H4c-1.1 0-2 .9-2 2v14c0 1.1.9 2 2 2h14c1.1 0 2-.9 2-2v-5h-2v5z"/></symbol><symbol viewBox="0 0 24 24" id="add_comment" xmlns="http://www.w3.org/2000/svg"><path d="M0 0h24v24H0V0z" fill="none"/><path d="M21.99 4c0-1.1-.89-2-1.99-2H4c-1.1 0-2 .9-2 2v12c0 1.1.9 2 2 2h14l4 4-.01-18zM17 11h-4v4h-2v-4H7V9h4V5h2v4h4v2z"/></symbol><symbol viewBox="0 0 24 24" id="align_horizontal_center" xmlns="http://www.w3.org/2000/svg"><path fill="none" d="M0 0h24v24H0z"/><path d="M11 2h2v5h8v3h-8v4h5v3h-5v5h-2v-5H6v-3h5v-4H3V7h8z"/></symbol><symbol viewBox="0 0 24 24" id="align_horizontal_left" xmlns="http://www.w3.org/2000/svg"><path fill="none" d="M0 0h24v24H0z"/><path d="M4 22H2V2h2v20zM22 7H6v3h16V7zm-6 7H6v3h10v-3z"/></symbol><symbol viewBox="0 0 24 24" id="align_horizontal_right" xmlns="http://www.w3.org/2000/svg"><path fill="none" d="M0 0h24v24H0z"/><path d="M20 2h2v20h-2V2zM2 10h16V7H2v3zm6 7h10v-3H8v3z"/></symbol><symbol viewBox="0 0 24 24" id="align_vertical_bottom" xmlns="http://www.w3.org/2000/svg"><path fill="none" d="M0 0h24v24H0z"/><path d="M22 22H2v-2h20v2zM10 2H7v16h3V2zm7 6h-3v10h3V8z"/></symbol><symbol viewBox="0 0 24 24" id="align_vertical_center" xmlns="http://www.w3.org/2000/svg"><path fill="none" d="M0 0h24v24H0z"/><path d="M22 11h-5V6h-3v5h-4V3H7v8H1.84v2H7v8h3v-8h4v5h3v-5h5z"/></symbol><symbol viewBox="0 0 24 24" id="align_vertical_top" xmlns="http://www.w3.org/2000/svg"><path fill="none" d="M0 0h24v24H0z"/><path d="M22 2v2H2V2h20zM7 22h3V6H7v16zm7-6h3V6h-3v10z"/></symbol><symbol viewBox="0 0 24 24" id="area_chart" xmlns="http://www.w3.org/2000/svg"><path fill="none" d="M0 0h24v24H0z"/><path d="M3 13v7h18v-1.5l-9-7L8 17l-5-4zm0-6 4 3 5-7 5 4h4v8.97l-9.4-7.31-3.98 5.48L3 10.44V7z"/></symbol><symbol viewBox="0 0 24 24" id="attach_file" xmlns="http://www.w3.org/2000/svg"><path d="M0 0h24v24H0z" fill="none"/><path d="M16.5 6v11.5c0 2.21-1.79 4-4 4s-4-1.79-4-4V5a2.5 2.5 0 0 1 5 0v10.5c0 .55-.45 1-1 1s-1-.45-1-1V6H10v9.5a2.5 2.5 0 0 0 5 0V5c0-2.21-1.79-4-4-4S7 2.79 7 5v12.5c0 3.04 2.46 5.5 5.5 5.5s5.5-2.46 5.5-5.5V6h-1.5z"/></symbol><symbol viewBox="0 0 24 24" id="attach_money" xmlns="http://www.w3.org/2000/svg"><path d="M0 0h24v24H0z" fill="none"/><path d="M11.8 10.9c-2.27-.59-3-1.2-3-2.15 0-1.09 1.01-1.85 2.7-1.85 1.78 0 2.44.85 2.5 2.1h2.21c-.07-1.72-1.12-3.3-3.21-3.81V3h-3v2.16c-1.94.42-3.5 1.68-3.5 3.61 0 2.31 1.91 3.46 4.7 4.13 2.5.6 3 1.48 3 2.41 0 .69-.49 1.79-2.7 1.79-2.06 0-2.87-.92-2.98-2.1h-2.2c.12 2.19 1.76 3.42 3.68 3.83V21h3v-2.15c1.95-.37 3.5-1.5 3.5-3.55 0-2.84-2.43-3.81-4.7-4.4z"/></symbol><symbol viewBox="0 0 24 24" id="auto_graph" xmlns="http://www.w3.org/2000/svg"><path fill="none" d="M0 0h24v24H0z"/><path d="M14.06 9.94 12 9l2.06-.94L15 6l.94 2.06L18 9l-2.06.94L15 12l-.94-2.06zM4 14l.94-2.06L7 11l-2.06-.94L4 8l-.94 2.06L1 11l2.06.94L4 14zm4.5-5 1.09-2.41L12 5.5 9.59 4.41 8.5 2 7.41 4.41 5 5.5l2.41 1.09L8.5 9zm-4 11.5 6-6.01 4 4L23 8.93l-1.41-1.41-7.09 7.97-4-4L3 19l1.5 1.5z"/></symbol><symbol viewBox="0 0 24 24" id="bar_chart" xmlns="http://www.w3.org/2000/svg"><path fill="none" d="M0 0h24v24H0z"/><path d="M4 9h4v11H4zM16 13h4v7h-4zM10 4h4v16h-4z"/></symbol><symbol viewBox="0 0 24 24" id="border_all" xmlns="http://www.w3.org/2000/svg"><path d="M0 0h24v24H0z" fill="none"/><path d="M3 3v18h18V3H3zm8 16H5v-6h6v6zm0-8H5V5h6v6zm8 8h-6v-6h6v6zm0-8h-6V5h6v6z"/></symbol><symbol viewBox="0 0 24 24" id="border_bottom" xmlns="http://www.w3.org/2000/svg"><path d="M0 0h24v24H0z" fill="none"/><path d="M9 11H7v2h2v-2zm4 4h-2v2h2v-2zM9 3H7v2h2V3zm4 8h-2v2h2v-2zM5 3H3v2h2V3zm8 4h-2v2h2V7zm4 4h-2v2h2v-2zm-4-8h-2v2h2V3zm4 0h-2v2h2V3zm2 10h2v-2h-2v2zm0 4h2v-2h-2v2zM5 7H3v2h2V7zm14-4v2h2V3h-2zm0 6h2V7h-2v2zM5 11H3v2h2v-2zM3 21h18v-2H3v2zm2-6H3v2h2v-2z"/></symbol><symbol viewBox="0 0 24 24" id="border_clear" xmlns="http://www.w3.org/2000/svg"><path d="M0 0h24v24H0z" fill="none"/><path d="M7 5h2V3H7v2zm0 8h2v-2H7v2zm0 8h2v-2H7v2zm4-4h2v-2h-2v2zm0 4h2v-2h-2v2zm-8 0h2v-2H3v2zm0-4h2v-2H3v2zm0-4h2v-2H3v2zm0-4h2V7H3v2zm0-4h2V3H3v2zm8 8h2v-2h-2v2zm8 4h2v-2h-2v2zm0-4h2v-2h-2v2zm0 8h2v-2h-2v2zm0-12h2V7h-2v2zm-8 0h2V7h-2v2zm8-6v2h2V3h-2zm-8 2h2V3h-2v2zm4 16h2v-2h-2v2zm0-8h2v-2h-2v2zm0-8h2V3h-2v2z"/></symbol><symbol viewBox="0 0 24 24" id="border_color" xmlns="http://www.w3.org/2000/svg"><path fill="none" d="M0 0h24v24H0z"/><path d="M22 24H2v-4h20v4zM13.06 5.19l3.75 3.75L7.75 18H4v-3.75l9.06-9.06zm4.82 2.68-3.75-3.75 1.83-1.83a.996.996 0 0 1 1.41 0l2.34 2.34c.39.39.39 1.02 0 1.41l-1.83 1.83z"/></symbol><symbol viewBox="0 0 24 24" id="border_horizontal" xmlns="http://www.w3.org/2000/svg"><path d="M0 0h24v24H0z" fill="none"/><path d="M3 21h2v-2H3v2zM5 7H3v2h2V7zM3 17h2v-2H3v2zm4 4h2v-2H7v2zM5 3H3v2h2V3zm4 0H7v2h2V3zm8 0h-2v2h2V3zm-4 4h-2v2h2V7zm0-4h-2v2h2V3zm6 14h2v-2h-2v2zm-8 4h2v-2h-2v2zm-8-8h18v-2H3v2zM19 3v2h2V3h-2zm0 6h2V7h-2v2zm-8 8h2v-2h-2v2zm4 4h2v-2h-2v2zm4 0h2v-2h-2v2z"/></symbol><symbol viewBox="0 0 24 24" id="border_inner" xmlns="http://www.w3.org/2000/svg"><path d="M0 0h24v24H0z" fill="none"/><path d="M3 21h2v-2H3v2zm4 0h2v-2H7v2zM5 7H3v2h2V7zM3 17h2v-2H3v2zM9 3H7v2h2V3zM5 3H3v2h2V3zm12 0h-2v2h2V3zm2 6h2V7h-2v2zm0-6v2h2V3h-2zm-4 18h2v-2h-2v2zM13 3h-2v8H3v2h8v8h2v-8h8v-2h-8V3zm6 18h2v-2h-2v2zm0-4h2v-2h-2v2z"/></symbol><symbol viewBox="0 0 24 24" id="border_left" xmlns="http://www.w3.org/2000/svg"><path d="M0 0h24v24H0z" fill="none"/><path d="M11 21h2v-2h-2v2zm0-4h2v-2h-2v2zm0-12h2V3h-2v2zm0 4h2V7h-2v2zm0 4h2v-2h-2v2zm-4 8h2v-2H7v2zM7 5h2V3H7v2zm0 8h2v-2H7v2zm-4 8h2V3H3v18zM19 9h2V7h-2v2zm-4 12h2v-2h-2v2zm4-4h2v-2h-2v2zm0-14v2h2V3h-2zm0 10h2v-2h-2v2zm0 8h2v-2h-2v2zm-4-8h2v-2h-2v2zm0-8h2V3h-2v2z"/></symbol><symbol viewBox="0 0 24 24" id="border_outer" xmlns="http://www.w3.org/2000/svg"><path d="M0 0h24v24H0z" fill="none"/><path d="M13 7h-2v2h2V7zm0 4h-2v2h2v-2zm4 0h-2v2h2v-2zM3 3v18h18V3H3zm16 16H5V5h14v14zm-6-4h-2v2h2v-2zm-4-4H7v2h2v-2z"/></symbol><symbol viewBox="0 0 24 24" id="border_right" xmlns="http://www.w3.org/2000/svg"><path d="M0 0h24v24H0z" fill="none"/><path d="M7 21h2v-2H7v2zM3 5h2V3H3v2zm4 0h2V3H7v2zm0 8h2v-2H7v2zm-4 8h2v-2H3v2zm8 0h2v-2h-2v2zm-8-8h2v-2H3v2zm0 4h2v-2H3v2zm0-8h2V7H3v2zm8 8h2v-2h-2v2zm4-4h2v-2h-2v2zm4-10v18h2V3h-2zm-4 18h2v-2h-2v2zm0-16h2V3h-2v2zm-4 8h2v-2h-2v2zm0-8h2V3h-2v2zm0 4h2V7h-2v2z"/></symbol><symbol viewBox="0 0 24 24" id="border_style" xmlns="http://www.w3.org/2000/svg"><path d="M0 0h24v24H0z" fill="none"/><path d="M15 21h2v-2h-2v2zm4 0h2v-2h-2v2zM7 21h2v-2H7v2zm4 0h2v-2h-2v2zm8-4h2v-2h-2v2zm0-4h2v-2h-2v2zM3 3v18h2V5h16V3H3zm16 6h2V7h-2v2z"/></symbol><symbol viewBox="0 0 24 24" id="border_top" xmlns="http://www.w3.org/2000/svg"><path d="M0 0h24v24H0z" fill="none"/><path d="M7 21h2v-2H7v2zm0-8h2v-2H7v2zm4 0h2v-2h-2v2zm0 8h2v-2h-2v2zm-8-4h2v-2H3v2zm0 4h2v-2H3v2zm0-8h2v-2H3v2zm0-4h2V7H3v2zm8 8h2v-2h-2v2zm8-8h2V7h-2v2zm0 4h2v-2h-2v2zM3 3v2h18V3H3zm16 14h2v-2h-2v2zm-4 4h2v-2h-2v2zM11 9h2V7h-2v2zm8 12h2v-2h-2v2zm-4-8h2v-2h-2v2z"/></symbol><symbol viewBox="0 0 24 24" id="border_vertical" xmlns="http://www.w3.org/2000/svg"><path d="M0 0h24v24H0z" fill="none"/><path d="M3 9h2V7H3v2zm0-4h2V3H3v2zm4 16h2v-2H7v2zm0-8h2v-2H7v2zm-4 0h2v-2H3v2zm0 8h2v-2H3v2zm0-4h2v-2H3v2zM7 5h2V3H7v2zm12 12h2v-2h-2v2zm-8 4h2V3h-2v18zm8 0h2v-2h-2v2zm0-8h2v-2h-2v2zm0-10v2h2V3h-2zm0 6h2V7h-2v2zm-4-4h2V3h-2v2zm0 16h2v-2h-2v2zm0-8h2v-2h-2v2z"/></symbol><symbol viewBox="0 0 24 24" id="bubble_chart" xmlns="http://www.w3.org/2000/svg"><path d="M0 0h24v24H0z" fill="none"/><circle cx="7.2" cy="14.4" r="3.2"/><circle cx="14.8" cy="18" r="2"/><circle cx="15.2" cy="8.8" r="4.8"/></symbol><symbol viewBox="0 0 24 24" id="candlestick_chart" xmlns="http://www.w3.org/2000/svg"><path fill="none" d="M0 0h24v24H0z"/><path d="M9 4H7v2H5v12h2v2h2v-2h2V6H9zM19 8h-2V4h-2v4h-2v7h2v5h2v-5h2z"/></symbol><symbol viewBox="0 0 24 24" id="checklist" xmlns="http://www.w3.org/2000/svg"><path fill="none" d="M0 0h24v24H0z"/><path d="M22 7h-9v2h9V7zm0 8h-9v2h9v-2zM5.54 11 2 7.46l1.41-1.41 2.12 2.12 4.24-4.24 1.41 1.41L5.54 11zm0 8L2 15.46l1.41-1.41 2.12 2.12 4.24-4.24 1.41 1.41L5.54 19z"/></symbol><symbol viewBox="0 0 24 24" id="checklist_rtl" xmlns="http://www.w3.org/2000/svg"><path fill="none" d="M0 0h24v24H0z"/><path d="M11 7H2v2h9V7zm0 8H2v2h9v-2zm5.34-4L12.8 7.46l1.41-1.41 2.12 2.12 4.24-4.24L22 5.34 16.34 11zm0 8-3.54-3.54 1.41-1.41 2.12 2.12 4.24-4.24L22 13.34 16.34 19z"/></symbol><symbol viewBox="0 0 24 24" id="data_array" xmlns="http://www.w3.org/2000/svg"><path fill="none" d="M0 0h24v24H0z"/><path d="M15 4v2h3v12h-3v2h5V4zM4 20h5v-2H6V6h3V4H4z"/></symbol><symbol viewBox="0 0 24 24" id="data_object" xmlns="http://www.w3.org/2000/svg"><path fill="none" d="M0 0h24v24H0z"/><path d="M4 7v2c0 .55-.45 1-1 1H2v4h1c.55 0 1 .45 1 1v2c0 1.65 1.35 3 3 3h3v-2H7c-.55 0-1-.45-1-1v-2c0-1.3-.84-2.42-2-2.83v-.34C5.16 11.42 6 10.3 6 9V7c0-.55.45-1 1-1h3V4H7C5.35 4 4 5.35 4 7zM21 10c-.55 0-1-.45-1-1V7c0-1.65-1.35-3-3-3h-3v2h3c.55 0 1 .45 1 1v2c0 1.3.84 2.42 2 2.83v.34c-1.16.41-2 1.52-2 2.83v2c0 .55-.45 1-1 1h-3v2h3c1.65 0 3-1.35 3-3v-2c0-.55.45-1 1-1h1v-4h-1z"/></symbol><symbol viewBox="0 0 24 24" id="drag_handle" xmlns="http://www.w3.org/2000/svg"><path fill="none" d="M0 0h24v24H0z"/><path d="M20 9H4v2h16V9zM4 15h16v-2H4v2z"/></symbol><symbol viewBox="0 0 24 24" id="draw" xmlns="http://www.w3.org/2000/svg"><path fill="none" d="M0 0h24v24H0z"/><path d="m18.85 10.39 1.06-1.06c.78-.78.78-2.05 0-2.83L18.5 5.09c-.78-.78-2.05-.78-2.83 0l-1.06 1.06 4.24 4.24zm-5.66-2.83L4 16.76V21h4.24l9.19-9.19-4.24-4.25zM19 17.5c0 2.19-2.54 3.5-5 3.5-.55 0-1-.45-1-1s.45-1 1-1c1.54 0 3-.73 3-1.5 0-.47-.48-.87-1.23-1.2l1.48-1.48c1.07.63 1.75 1.47 1.75 2.68zM4.58 13.35C3.61 12.79 3 12.06 3 11c0-1.8 1.89-2.63 3.56-3.36C7.59 7.18 9 6.56 9 6c0-.41-.78-1-2-1-1.26 0-1.8.61-1.83.64-.35.41-.98.46-1.4.12a.992.992 0 0 1-.15-1.38C3.73 4.24 4.76 3 7 3s4 1.32 4 3c0 1.87-1.93 2.72-3.64 3.47C6.42 9.88 5 10.5 5 11c0 .31.43.6 1.07.86l-1.49 1.49z"/></symbol><symbol viewBox="0 0 24 24" id="edit_note" xmlns="http://www.w3.org/2000/svg"><path fill="none" d="M0 0h24v24H0z"/><path d="M3 10h11v2H3v-2zm0-2h11V6H3v2zm0 8h7v-2H3v2zm15.01-3.13.71-.71a.996.996 0 0 1 1.41 0l.71.71c.39.39.39 1.02 0 1.41l-.71.71-2.12-2.12zm-.71.71-5.3 5.3V21h2.12l5.3-5.3-2.12-2.12z"/></symbol><symbol viewBox="0 0 24 24" id="format_align_center" xmlns="http://www.w3.org/2000/svg"><path d="M0 0h24v24H0z" fill="none"/><path d="M7 15v2h10v-2H7zm-4 6h18v-2H3v2zm0-8h18v-2H3v2zm4-6v2h10V7H7zM3 3v2h18V3H3z"/></symbol><symbol viewBox="0 0 24 24" id="format_align_justify" xmlns="http://www.w3.org/2000/svg"><path d="M0 0h24v24H0z" fill="none"/><path d="M3 21h18v-2H3v2zm0-4h18v-2H3v2zm0-4h18v-2H3v2zm0-4h18V7H3v2zm0-6v2h18V3H3z"/></symbol><symbol viewBox="0 0 24 24" id="format_align_left" xmlns="http://www.w3.org/2000/svg"><path d="M0 0h24v24H0z" fill="none"/><path d="M15 15H3v2h12v-2zm0-8H3v2h12V7zM3 13h18v-2H3v2zm0 8h18v-2H3v2zM3 3v2h18V3H3z"/></symbol><symbol viewBox="0 0 24 24" id="format_align_right" xmlns="http://www.w3.org/2000/svg"><path d="M0 0h24v24H0z" fill="none"/><path d="M3 21h18v-2H3v2zm6-4h12v-2H9v2zm-6-4h18v-2H3v2zm6-4h12V7H9v2zM3 3v2h18V3H3z"/></symbol><symbol viewBox="0 0 24 24" id="format_bold" xmlns="http://www.w3.org/2000/svg"><path d="M0 0h24v24H0z" fill="none"/><path d="M15.6 10.79c.97-.67 1.65-1.77 1.65-2.79 0-2.26-1.75-4-4-4H7v14h7.04c2.09 0 3.71-1.7 3.71-3.79 0-1.52-.86-2.82-2.15-3.42zM10 6.5h3c.83 0 1.5.67 1.5 1.5s-.67 1.5-1.5 1.5h-3v-3zm3.5 9H10v-3h3.5c.83 0 1.5.67 1.5 1.5s-.67 1.5-1.5 1.5z"/></symbol><symbol viewBox="0 0 24 24" id="format_clear" xmlns="http://www.w3.org/2000/svg"><path d="M0 0h24v24H0z" fill="none"/><path d="M3.27 5 2 6.27l6.97 6.97L6.5 19h3l1.57-3.66L16.73 21 18 19.73 3.55 5.27 3.27 5zM6 5v.18L8.82 8h2.4l-.72 1.68 2.1 2.1L14.21 8H20V5H6z"/></symbol><symbol viewBox="0 0 24 24" id="format_color_fill" xmlns="http://www.w3.org/2000/svg"><path fill="none" d="M0 0h24v24H0z"/><path d="M16.56 8.94 7.62 0 6.21 1.41l2.38 2.38-5.15 5.15a1.49 1.49 0 0 0 0 2.12l5.5 5.5c.29.29.68.44 1.06.44s.77-.15 1.06-.44l5.5-5.5c.59-.58.59-1.53 0-2.12zM5.21 10 10 5.21 14.79 10H5.21zM19 11.5s-2 2.17-2 3.5c0 1.1.9 2 2 2s2-.9 2-2c0-1.33-2-3.5-2-3.5zM2 20h20v4H2v-4z"/></symbol><symbol viewBox="0 0 24 24" id="format_color_reset" xmlns="http://www.w3.org/2000/svg"><path d="M0 0h24v24H0zm0 0h24v24H0zm0 0h24v24H0z" fill="none"/><path d="M18 14c0-4-6-10.8-6-10.8s-1.33 1.51-2.73 3.52l8.59 8.59c.09-.42.14-.86.14-1.31zm-.88 3.12L12.5 12.5 5.27 5.27 4 6.55l3.32 3.32C6.55 11.32 6 12.79 6 14c0 3.31 2.69 6 6 6 1.52 0 2.9-.57 3.96-1.5l2.63 2.63 1.27-1.27-2.74-2.74z"/></symbol><symbol viewBox="0 0 24 24" id="format_color_text" xmlns="http://www.w3.org/2000/svg"><path fill="none" d="M0 0h24v24H0z"/><path d="M2 20h20v4H2v-4zm3.49-3h2.42l1.27-3.58h5.65L16.09 17h2.42L13.25 3h-2.5L5.49 17zm4.42-5.61 2.03-5.79h.12l2.03 5.79H9.91z"/></symbol><symbol viewBox="0 0 24 24" id="format_indent_decrease" xmlns="http://www.w3.org/2000/svg"><path d="M0 0h24v24H0z" fill="none"/><path d="M11 17h10v-2H11v2zm-8-5 4 4V8l-4 4zm0 9h18v-2H3v2zM3 3v2h18V3H3zm8 6h10V7H11v2zm0 4h10v-2H11v2z"/></symbol><symbol viewBox="0 0 24 24" id="format_indent_increase" xmlns="http://www.w3.org/2000/svg"><path d="M0 0h24v24H0z" fill="none"/><path d="M3 21h18v-2H3v2zM3 8v8l4-4-4-4zm8 9h10v-2H11v2zM3 3v2h18V3H3zm8 6h10V7H11v2zm0 4h10v-2H11v2z"/></symbol><symbol viewBox="0 0 24 24" id="format_italic" xmlns="http://www.w3.org/2000/svg"><path d="M0 0h24v24H0z" fill="none"/><path d="M10 4v3h2.21l-3.42 8H6v3h8v-3h-2.21l3.42-8H18V4z"/></symbol><symbol viewBox="0 0 24 24" id="format_line_spacing" xmlns="http://www.w3.org/2000/svg"><path d="M0 0h24v24H0z" fill="none"/><path d="M6 7h2.5L5 3.5 1.5 7H4v10H1.5L5 20.5 8.5 17H6V7zm4-2v2h12V5H10zm0 14h12v-2H10v2zm0-6h12v-2H10v2z"/></symbol><symbol viewBox="0 0 24 24" id="format_list_bulleted" xmlns="http://www.w3.org/2000/svg"><path d="M0 0h24v24H0V0z" fill="none"/><path d="M4 10.5c-.83 0-1.5.67-1.5 1.5s.67 1.5 1.5 1.5 1.5-.67 1.5-1.5-.67-1.5-1.5-1.5zm0-6c-.83 0-1.5.67-1.5 1.5S3.17 7.5 4 7.5 5.5 6.83 5.5 6 4.83 4.5 4 4.5zm0 12c-.83 0-1.5.68-1.5 1.5s.68 1.5 1.5 1.5 1.5-.68 1.5-1.5-.67-1.5-1.5-1.5zM7 19h14v-2H7v2zm0-6h14v-2H7v2zm0-8v2h14V5H7z"/></symbol><symbol viewBox="0 0 24 24" id="format_list_bulleted_add" xmlns="http://www.w3.org/2000/svg"><path fill="none" d="M0 0h24v24H0z"/><path d="M18 13c-2.76 0-5 2.24-5 5s2.24 5 5 5 5-2.24 5-5-2.24-5-5-5zm3 5.5h-2.5V21h-1v-2.5H15v-1h2.5V15h1v2.5H21v1zM7 5h13v2H7z"/><circle cx="3.5" cy="18" r="1.5"/><path d="M18 11H7v2h6.11c1.26-1.24 2.99-2 4.89-2zM7 17v2h4.08c-.05-.33-.08-.66-.08-1s.03-.67.08-1H7z"/><circle cx="3.5" cy="6" r="1.5"/><circle cx="3.5" cy="12" r="1.5"/></symbol><symbol viewBox="0 0 24 24" id="format_list_numbered" xmlns="http://www.w3.org/2000/svg"><path d="M0 0h24v24H0z" fill="none"/><path d="M2 17h2v.5H3v1h1v.5H2v1h3v-4H2v1zm1-9h1V4H2v1h1v3zm-1 3h1.8L2 13.1v.9h3v-1H3.2L5 10.9V10H2v1zm5-6v2h14V5H7zm0 14h14v-2H7v2zm0-6h14v-2H7v2z"/></symbol><symbol viewBox="0 0 24 24" id="format_list_numbered_rtl" xmlns="http://www.w3.org/2000/svg"><path d="M0 0h24v24H0z" fill="none"/><path d="M18 17h2v.5h-1v1h1v.5h-2v1h3v-4h-3zm1-9h1V4h-2v1h1zm-1 3h1.8L18 13.1v.9h3v-1h-1.8l1.8-2.1V10h-3zM2 5h14v2H2zm0 12h14v2H2zm0-6h14v2H2z"/></symbol><symbol viewBox="0 0 24 24" id="format_paint" xmlns="http://www.w3.org/2000/svg"><path d="M0 0h24v24H0z" fill="none"/><path d="M18 4V3c0-.55-.45-1-1-1H5c-.55 0-1 .45-1 1v4c0 .55.45 1 1 1h12c.55 0 1-.45 1-1V6h1v4H9v11c0 .55.45 1 1 1h2c.55 0 1-.45 1-1v-9h8V4h-3z"/></symbol><symbol viewBox="0 0 24 24" id="format_quote" xmlns="http://www.w3.org/2000/svg"><path d="M0 0h24v24H0z" fill="none"/><path d="M6 17h3l2-4V7H5v6h3zm8 0h3l2-4V7h-6v6h3z"/></symbol><symbol viewBox="0 0 24 24" id="format_shapes" xmlns="http://www.w3.org/2000/svg"><path d="M0 0h24v24H0z" fill="none"/><path d="M23 7V1h-6v2H7V1H1v6h2v10H1v6h6v-2h10v2h6v-6h-2V7h2zM3 3h2v2H3V3zm2 18H3v-2h2v2zm12-2H7v-2H5V7h2V5h10v2h2v10h-2v2zm4 2h-2v-2h2v2zM19 5V3h2v2h-2zm-5.27 9h-3.49l-.73 2H7.89l3.4-9h1.4l3.41 9h-1.63l-.74-2zm-3.04-1.26h2.61L12 8.91l-1.31 3.83z"/></symbol><symbol viewBox="0 0 24 24" id="format_size" xmlns="http://www.w3.org/2000/svg"><path d="M0 0h24v24H0z" fill="none"/><path d="M9 4v3h5v12h3V7h5V4H9zm-6 8h3v7h3v-7h3V9H3v3z"/></symbol><symbol viewBox="0 0 24 24" id="format_strikethrough" xmlns="http://www.w3.org/2000/svg"><path d="M0 0h24v24H0z" fill="none"/><path d="M10 19h4v-3h-4v3zM5 4v3h5v3h4V7h5V4H5zM3 14h18v-2H3v2z"/></symbol><symbol viewBox="0 0 24 24" id="format_textdirection_l_to_r" xmlns="http://www.w3.org/2000/svg"><path d="M0 0h24v24H0z" fill="none"/><path d="M9 10v5h2V4h2v11h2V4h2V2H9C6.79 2 5 3.79 5 6s1.79 4 4 4zm12 8-4-4v3H5v2h12v3l4-4z"/></symbol><symbol viewBox="0 0 24 24" id="format_textdirection_r_to_l" xmlns="http://www.w3.org/2000/svg"><path d="M0 0h24v24H0z" fill="none"/><path d="M10 10v5h2V4h2v11h2V4h2V2h-8C7.79 2 6 3.79 6 6s1.79 4 4 4zm-2 7v-3l-4 4 4 4v-3h12v-2H8z"/></symbol><symbol viewBox="0 0 24 24" id="format_underlined" xmlns="http://www.w3.org/2000/svg"><path d="M0 0h24v24H0z" fill="none"/><path d="M12 17c3.31 0 6-2.69 6-6V3h-2.5v8c0 1.93-1.57 3.5-3.5 3.5S8.5 12.93 8.5 11V3H6v8c0 3.31 2.69 6 6 6zm-7 2v2h14v-2H5z"/></symbol><symbol viewBox="0 0 24 24" id="functions" xmlns="http://www.w3.org/2000/svg"><path d="M0 0h24v24H0z" fill="none"/><path d="M18 4H6v2l6.5 6L6 18v2h12v-3h-7l5-5-5-5h7z"/></symbol><symbol viewBox="0 0 24 24" id="height" xmlns="http://www.w3.org/2000/svg"><path fill="none" d="M0 0h24v24H0z"/><path d="M13 6.99h3L12 3 8 6.99h3v10.02H8L12 21l4-3.99h-3z"/></symbol><symbol viewBox="0 0 24 24" id="hexagon" xmlns="http://www.w3.org/2000/svg"><path fill="none" d="M0 0h24v24H0z"/><path d="M17.2 3H6.8l-5.2 9 5.2 9h10.4l5.2-9z"/></symbol><symbol viewBox="0 0 24 24" id="highlight" xmlns="http://www.w3.org/2000/svg"><path fill="none" d="M0 0h24v24H0z"/><path d="m6 14 3 3v5h6v-5l3-3V9H6v5zm5-12h2v3h-2V2zM3.5 5.88l1.41-1.41 2.12 2.12L5.62 8 3.5 5.88zm13.46.71 2.12-2.12 1.41 1.41L18.38 8l-1.42-1.41z"/></symbol><symbol viewBox="0 0 24 24" id="horizontal_distribute" xmlns="http://www.w3.org/2000/svg"><path fill="none" d="M0 0h24v24H0z"/><path d="M4 22H2V2h2v20zM22 2h-2v20h2V2zm-8.5 5h-3v10h3V7z"/></symbol><symbol viewBox="0 0 24 24" id="horizontal_rule" xmlns="http://www.w3.org/2000/svg"><path fill="none" d="M0 0h24v24H0z"/><path fill-rule="evenodd" d="M4 11h16v2H4z"/></symbol><symbol viewBox="0 0 24 24" id="insert_chart" xmlns="http://www.w3.org/2000/svg"><path d="M0 0h24v24H0z" fill="none"/><path d="M19 3H5c-1.1 0-2 .9-2 2v14c0 1.1.9 2 2 2h14c1.1 0 2-.9 2-2V5c0-1.1-.9-2-2-2zM9 17H7v-7h2v7zm4 0h-2V7h2v10zm4 0h-2v-4h2v4z"/></symbol><symbol viewBox="0 0 24 24" id="insert_chart_outlined" xmlns="http://www.w3.org/2000/svg"><path d="M0 0h24v24H0z" fill="none"/><path d="M9 17H7v-7h2v7zm4 0h-2V7h2v10zm4 0h-2v-4h2v4zm2.5 2.1h-15V5h15v14.1zm0-16.1h-15c-1.1 0-2 .9-2 2v14c0 1.1.9 2 2 2h15c1.1 0 2-.9 2-2V5c0-1.1-.9-2-2-2z"/></symbol><symbol viewBox="0 0 24 24" id="insert_comment" xmlns="http://www.w3.org/2000/svg"><path d="M0 0h24v24H0z" fill="none"/><path d="M20 2H4c-1.1 0-2 .9-2 2v12c0 1.1.9 2 2 2h14l4 4V4c0-1.1-.9-2-2-2zm-2 12H6v-2h12v2zm0-3H6V9h12v2zm0-3H6V6h12v2z"/></symbol><symbol viewBox="0 0 24 24" id="insert_drive_file" xmlns="http://www.w3.org/2000/svg"><path d="M0 0h24v24H0z" fill="none"/><path d="M6 2c-1.1 0-1.99.9-1.99 2L4 20c0 1.1.89 2 1.99 2H18c1.1 0 2-.9 2-2V8l-6-6H6zm7 7V3.5L18.5 9H13z"/></symbol><symbol viewBox="0 0 24 24" id="insert_emoticon" xmlns="http://www.w3.org/2000/svg"><path d="M0 0h24v24H0z" fill="none"/><path d="M11.99 2C6.47 2 2 6.48 2 12s4.47 10 9.99 10C17.52 22 22 17.52 22 12S17.52 2 11.99 2zM12 20c-4.42 0-8-3.58-8-8s3.58-8 8-8 8 3.58 8 8-3.58 8-8 8zm3.5-9c.83 0 1.5-.67 1.5-1.5S16.33 8 15.5 8 14 8.67 14 9.5s.67 1.5 1.5 1.5zm-7 0c.83 0 1.5-.67 1.5-1.5S9.33 8 8.5 8 7 8.67 7 9.5 7.67 11 8.5 11zm3.5 6.5c2.33 0 4.31-1.46 5.11-3.5H6.89c.8 2.04 2.78 3.5 5.11 3.5z"/></symbol><symbol viewBox="0 0 24 24" id="insert_invitation" xmlns="http://www.w3.org/2000/svg"><path d="M0 0h24v24H0z" fill="none"/><path d="M17 12h-5v5h5v-5zM16 1v2H8V1H6v2H5c-1.11 0-1.99.9-1.99 2L3 19a2 2 0 0 0 2 2h14c1.1 0 2-.9 2-2V5c0-1.1-.9-2-2-2h-1V1h-2zm3 18H5V8h14v11z"/></symbol><symbol viewBox="0 0 24 24" id="insert_link" xmlns="http://www.w3.org/2000/svg"><path d="M0 0h24v24H0z" fill="none"/><path d="M3.9 12c0-1.71 1.39-3.1 3.1-3.1h4V7H7c-2.76 0-5 2.24-5 5s2.24 5 5 5h4v-1.9H7c-1.71 0-3.1-1.39-3.1-3.1zM8 13h8v-2H8v2zm9-6h-4v1.9h4c1.71 0 3.1 1.39 3.1 3.1s-1.39 3.1-3.1 3.1h-4V17h4c2.76 0 5-2.24 5-5s-2.24-5-5-5z"/></symbol><symbol viewBox="0 0 24 24" id="insert_page_break" xmlns="http://www.w3.org/2000/svg"><path fill="none" d="M0 0h24v24H0z"/><path d="M4 20c0 1.1.89 2 1.99 2H18c1.1 0 2-.9 2-2v-3H4v3zM20 8l-6-6H6c-1.1 0-1.99.9-1.99 2v7H20V8zm-7 1V3.5L18.5 9H13zM9 13h6v2H9zM17 13h6v2h-6zM1 13h6v2H1z"/></symbol><symbol viewBox="0 0 24 24" id="insert_photo" xmlns="http://www.w3.org/2000/svg"><path d="M0 0h24v24H0z" fill="none"/><path d="M21 19V5c0-1.1-.9-2-2-2H5c-1.1 0-2 .9-2 2v14c0 1.1.9 2 2 2h14c1.1 0 2-.9 2-2zM8.5 13.5l2.5 3.01L14.5 12l4.5 6H5l3.5-4.5z"/></symbol><symbol viewBox="0 0 24 24" id="line_axis" xmlns="http://www.w3.org/2000/svg"><path fill="none" d="M0 0h24v24H0z"/><path d="m22 7.43-1.41-1.41-4.03 4.53L9.5 4 2 11.51l1.5 1.5 6.14-6.15 5.59 5.18-1.73 1.95-4-4L2 17.5 3.5 19l6-6.01 4 4 3.19-3.59 3.9 3.61L22 15.6l-3.98-3.7z"/></symbol><symbol viewBox="0 0 24 24" id="linear_scale" xmlns="http://www.w3.org/2000/svg"><path fill="none" d="M0 0h24v24H0z"/><path d="M19.5 9.5c-1.03 0-1.9.62-2.29 1.5h-2.92c-.39-.88-1.26-1.5-2.29-1.5s-1.9.62-2.29 1.5H6.79c-.39-.88-1.26-1.5-2.29-1.5a2.5 2.5 0 0 0 0 5c1.03 0 1.9-.62 2.29-1.5h2.92c.39.88 1.26 1.5 2.29 1.5s1.9-.62 2.29-1.5h2.92c.39.88 1.26 1.5 2.29 1.5a2.5 2.5 0 0 0 0-5z"/></symbol><symbol viewBox="0 0 24 24" id="margin" xmlns="http://www.w3.org/2000/svg"><path d="M0 0h24v24H0z" fill="none"/><path d="M3 3v18h18V3H3zm16 16H5V5h14v14zM11 7h2v2h-2zM7 7h2v2H7zm8 0h2v2h-2zm-8 4h2v2H7zm4 0h2v2h-2zm4 0h2v2h-2z"/></symbol><symbol viewBox="0 0 24 24" id="merge_type" xmlns="http://www.w3.org/2000/svg"><path d="M0 0h24v24H0z" fill="none"/><path d="M17 20.41 18.41 19 15 15.59 13.59 17 17 20.41zM7.5 8H11v5.59L5.59 19 7 20.41l6-6V8h3.5L12 3.5 7.5 8z"/></symbol><symbol viewBox="0 0 24 24" id="mode" xmlns="http://www.w3.org/2000/svg"><path fill="none" d="M0 0h24v24H0z"/><path d="M3 17.25V21h3.75L17.81 9.94l-3.75-3.75zM20.71 5.63l-2.34-2.34a.996.996 0 0 0-1.41 0l-1.83 1.83 3.75 3.75 1.83-1.83a.996.996 0 0 0 0-1.41z"/></symbol><symbol viewBox="0 0 24 24" id="mode_comment" xmlns="http://www.w3.org/2000/svg"><path d="M0 0h24v24H0z" fill="none"/><path d="M21.99 4c0-1.1-.89-2-1.99-2H4c-1.1 0-2 .9-2 2v12c0 1.1.9 2 2 2h14l4 4-.01-18z"/></symbol><symbol viewBox="0 0 24 24" id="mode_edit" xmlns="http://www.w3.org/2000/svg"><path d="M0 0h24v24H0z" fill="none"/><path d="M3 17.25V21h3.75L17.81 9.94l-3.75-3.75L3 17.25zM20.71 7.04a.996.996 0 0 0 0-1.41l-2.34-2.34a.996.996 0 0 0-1.41 0l-1.83 1.83 3.75 3.75 1.83-1.83z"/></symbol><symbol viewBox="0 0 24 24" id="mode_edit_outline" xmlns="http://www.w3.org/2000/svg"><path fill="none" d="M0 0h24v24H0z"/><path d="M3 17.25V21h3.75L17.81 9.94l-3.75-3.75zM20.71 5.63l-2.34-2.34a.996.996 0 0 0-1.41 0l-1.83 1.83 3.75 3.75 1.83-1.83a.996.996 0 0 0 0-1.41z"/></symbol><symbol viewBox="0 0 24 24" id="monetization_on" xmlns="http://www.w3.org/2000/svg"><path d="M0 0h24v24H0z" fill="none"/><path d="M12 2C6.48 2 2 6.48 2 12s4.48 10 10 10 10-4.48 10-10S17.52 2 12 2zm1.41 16.09V20h-2.67v-1.93c-1.71-.36-3.16-1.46-3.27-3.4h1.96c.1 1.05.82 1.87 2.65 1.87 1.96 0 2.4-.98 2.4-1.59 0-.83-.44-1.61-2.67-2.14-2.48-.6-4.18-1.62-4.18-3.67 0-1.72 1.39-2.84 3.11-3.21V4h2.67v1.95c1.86.45 2.79 1.86 2.85 3.39H14.3c-.05-1.11-.64-1.87-2.22-1.87-1.5 0-2.4.68-2.4 1.64 0 .84.65 1.39 2.67 1.91s4.18 1.39 4.18 3.91c-.01 1.83-1.38 2.83-3.12 3.16z"/></symbol><symbol viewBox="0 0 24 24" id="money_off" xmlns="http://www.w3.org/2000/svg"><path d="M0 0h24v24H0z" fill="none"/><path d="M12.5 6.9c1.78 0 2.44.85 2.5 2.1h2.21c-.07-1.72-1.12-3.3-3.21-3.81V3h-3v2.16c-.53.12-1.03.3-1.48.54l1.47 1.47c.41-.17.91-.27 1.51-.27zM5.33 4.06 4.06 5.33 7.5 8.77c0 2.08 1.56 3.21 3.91 3.91l3.51 3.51c-.34.48-1.05.91-2.42.91-2.06 0-2.87-.92-2.98-2.1h-2.2c.12 2.19 1.76 3.42 3.68 3.83V21h3v-2.15c.96-.18 1.82-.55 2.45-1.12l2.22 2.22 1.27-1.27L5.33 4.06z"/></symbol><symbol viewBox="0 0 24 24" id="money_off_csred" xmlns="http://www.w3.org/2000/svg"><path fill="none" d="M0 0h24v24H0z"/><path d="M10.53 7.43c.42-.31.93-.47 1.54-.47s1.11.16 1.5.49c.39.32.65.7.79 1.12l1.89-.8c-.24-.71-.71-1.35-1.4-1.92-.5-.4-1.12-.65-1.85-.77V3h-2v2.11c-.41.08-.79.21-1.14.39-.35.18-.64.39-.9.63l1.43 1.43c.04-.04.09-.09.14-.13zM2.81 2.81 1.39 4.22l12.35 12.35c-.43.28-.95.43-1.55.43-.71 0-1.32-.23-1.83-.7-.5-.47-.86-1.07-1.06-1.81l-1.98.8c.34 1.17.95 2.08 1.83 2.73.57.42 1.19.68 1.85.83V21h2v-2.08c.44-.07.87-.17 1.29-.35.34-.14.64-.32.92-.53l4.57 4.57 1.41-1.41L2.81 2.81z"/></symbol><symbol viewBox="0 0 24 24" id="move_down" xmlns="http://www.w3.org/2000/svg"><path fill="none" d="M0 0h24v24H0z"/><path d="M3 11c0 2.45 1.76 4.47 4.08 4.91l-1.49-1.49L7 13l4 4.01L7 21l-1.41-1.41 1.58-1.58v-.06A7.007 7.007 0 0 1 1 11c0-3.87 3.13-7 7-7h3v2H8c-2.76 0-5 2.24-5 5zM22 11V4h-9v7h9zm-2-2h-5V6h5v3zM13 13h9v7h-9z"/></symbol><symbol viewBox="0 0 24 24" id="move_up" xmlns="http://www.w3.org/2000/svg"><path fill="none" d="M0 0h24v24H0z"/><path d="M3 13c0-2.45 1.76-4.47 4.08-4.91l-1.49 1.5L7 11l4-4.01L7 3 5.59 4.41l1.58 1.58v.06A7.007 7.007 0 0 0 1 13c0 3.87 3.13 7 7 7h3v-2H8c-2.76 0-5-2.24-5-5zM13 13v7h9v-7h-9zm7 5h-5v-3h5v3zM13 4h9v7h-9z"/></symbol><symbol viewBox="0 0 24 24" id="multiline_chart" xmlns="http://www.w3.org/2000/svg"><path d="M0 0h24v24H0z" fill="none"/><path d="m22 6.92-1.41-1.41-2.85 3.21C15.68 6.4 12.83 5 9.61 5 6.72 5 4.07 6.16 2 8l1.42 1.42C5.12 7.93 7.27 7 9.61 7c2.74 0 5.09 1.26 6.77 3.24l-2.88 3.24-4-4L2 16.99l1.5 1.5 6-6.01 4 4 4.05-4.55c.75 1.35 1.25 2.9 1.44 4.55H21c-.22-2.3-.95-4.39-2.04-6.14L22 6.92z"/></symbol><symbol viewBox="0 0 24 24" id="notes" xmlns="http://www.w3.org/2000/svg"><path d="M0 0h24v24H0V0z" fill="none"/><path d="M3 18h12v-2H3v2zM3 6v2h18V6H3zm0 7h18v-2H3v2z"/></symbol><symbol viewBox="0 0 24 24" id="numbers" xmlns="http://www.w3.org/2000/svg"><path fill="none" d="M0 0h24v24H0z"/><path d="m20.5 10 .5-2h-4l1-4h-2l-1 4h-4l1-4h-2L9 8H5l-.5 2h4l-1 4h-4L3 16h4l-1 4h2l1-4h4l-1 4h2l1-4h4l.5-2h-4l1-4h4zm-7 4h-4l1-4h4l-1 4z"/></symbol><symbol viewBox="0 0 24 24" id="padding" xmlns="http://www.w3.org/2000/svg"><path d="M0 0h24v24H0z" fill="none"/><path d="M3 3v18h18V3H3zm16 16H5V5h14v14zM11 7h2v2h-2zM7 7h2v2H7zm8 0h2v2h-2z"/></symbol><symbol viewBox="0 0 24 24" id="pentagon" xmlns="http://www.w3.org/2000/svg"><path fill="none" d="M0 0h24v24H0z"/><path d="m2 9 4 12h12l4-12-10-7z"/></symbol><symbol viewBox="0 0 24 24" id="pie_chart" xmlns="http://www.w3.org/2000/svg"><path d="M0 0h24v24H0V0z" fill="none"/><path d="M11 2v20c-5.07-.5-9-4.79-9-10s3.93-9.5 9-10zm2.03 0v8.99H22c-.47-4.74-4.24-8.52-8.97-8.99zm0 11.01V22c4.74-.47 8.5-4.25 8.97-8.99h-8.97z"/></symbol><symbol viewBox="0 0 24 24" id="pie_chart_outline" xmlns="http://www.w3.org/2000/svg"><path fill="none" d="M0 0h24v24H0z"/><path d="M12 2C6.5 2 2 6.5 2 12s4.5 10 10 10 10-4.5 10-10S17.5 2 12 2zm1 2.07c3.61.45 6.48 3.33 6.93 6.93H13V4.07zM4 12c0-4.06 3.07-7.44 7-7.93v15.87c-3.93-.5-7-3.88-7-7.94zm9 7.93V13h6.93A8.002 8.002 0 0 1 13 19.93z"/></symbol><symbol viewBox="0 0 24 24" id="pie_chart_outlined" xmlns="http://www.w3.org/2000/svg"><path d="M0 0h24v24H0V0z" fill="none"/><path d="M12 2C6.5 2 2 6.5 2 12s4.5 10 10 10 10-4.5 10-10S17.5 2 12 2zm1 2.07c3.61.45 6.48 3.33 6.93 6.93H13V4.07zM4 12c0-4.06 3.07-7.44 7-7.93v15.87c-3.93-.5-7-3.88-7-7.94zm9 7.93V13h6.93A8.002 8.002 0 0 1 13 19.93z"/></symbol><symbol viewBox="0 0 24 24" id="polyline" xmlns="http://www.w3.org/2000/svg"><path fill="none" d="M0 0h24v24H0z"/><path d="M15 16v1.26l-6-3v-3.17L11.7 8H16V2h-6v4.9L7.3 10H3v6h5l7 3.5V22h6v-6z"/></symbol><symbol viewBox="0 0 24 24" id="post_add" xmlns="http://www.w3.org/2000/svg"><path fill="none" d="M0 0h24v24H0z"/><path d="M17 19.22H5V7h7V5H5c-1.1 0-2 .9-2 2v12c0 1.1.9 2 2 2h12c1.1 0 2-.9 2-2v-7h-2v7.22z"/><path d="M19 2h-2v3h-3c.01.01 0 2 0 2h3v2.99c.01.01 2 0 2 0V7h3V5h-3V2zM7 9h8v2H7zM7 12v2h8v-2h-3zM7 15h8v2H7z"/></symbol><symbol viewBox="0 0 24 24" id="publish" xmlns="http://www.w3.org/2000/svg"><path d="M0 0h24v24H0z" fill="none"/><path d="M5 4v2h14V4H5zm0 10h4v6h6v-6h4l-7-7-7 7z"/></symbol><symbol viewBox="0 0 24 24" id="query_stats" xmlns="http://www.w3.org/2000/svg"><path fill="none" d="M0 0h24v24H0z"/><path d="M19.88 18.47c.44-.7.7-1.51.7-2.39 0-2.49-2.01-4.5-4.5-4.5s-4.5 2.01-4.5 4.5 2.01 4.5 4.49 4.5c.88 0 1.7-.26 2.39-.7L21.58 23 23 21.58l-3.12-3.11zm-3.8.11a2.5 2.5 0 0 1 0-5 2.5 2.5 0 0 1 0 5zm-.36-8.5c-.74.02-1.45.18-2.1.45l-.55-.83-3.8 6.18-3.01-3.52-3.63 5.81L1 17l5-8 3 3.5L13 6l2.72 4.08zm2.59.5c-.64-.28-1.33-.45-2.05-.49L21.38 2 23 3.18l-4.69 7.4z"/></symbol><symbol viewBox="0 0 24 24" id="rectangle" xmlns="http://www.w3.org/2000/svg"><path fill="none" d="M0 0h24v24H0z"/><path d="M2 4h20v16H2z"/></symbol><symbol viewBox="0 0 24 24" id="scatter_plot" xmlns="http://www.w3.org/2000/svg"><path d="M0 0h24v24H0V0z" fill="none"/><circle cx="7" cy="14" r="3"/><circle cx="11" cy="6" r="3"/><circle cx="16.6" cy="17.6" r="3"/></symbol><symbol viewBox="0 0 24 24" id="schema" xmlns="http://www.w3.org/2000/svg"><path fill="none" d="M0 0h24v24H0z"/><path d="M14 9v2h-3V9H8.5V7H11V1H4v6h2.5v2H4v6h2.5v2H4v6h7v-6H8.5v-2H11v-2h3v2h7V9h-7z"/></symbol><symbol viewBox="0 0 24 24" id="score" xmlns="http://www.w3.org/2000/svg"><path d="M0 0h24v24H0z" fill="none"/><path d="M19 3H5c-1.1 0-2 .9-2 2v14c0 1.1.9 2 2 2h14c1.1 0 2-.9 2-2V5c0-1.1-.9-2-2-2zm-7 2h1.5v3l2-3h1.7l-2 3 2 3h-1.7l-2-3v3H12V5zM7 7.25h2.5V6.5H7V5h4v3.75H8.5v.75H11V11H7V7.25zM19 13l-6 6-4-4-4 4v-2.5l4-4 4 4 6-6V13z"/></symbol><symbol viewBox="0 0 24 24" id="shape_line" xmlns="http://www.w3.org/2000/svg"><path fill="none" d="M0 0h24v24H0z"/><path d="M6 11c2.76 0 5-2.24 5-5S8.76 1 6 1 1 3.24 1 6s2.24 5 5 5zM21 14h-5c-1.1 0-2 .9-2 2v5c0 1.1.9 2 2 2h5c1.1 0 2-.9 2-2v-5c0-1.1-.9-2-2-2z"/><path d="M17.71 7.7c.4.19.83.3 1.29.3 1.65 0 3-1.35 3-3s-1.35-3-3-3-3 1.35-3 3c0 .46.11.89.3 1.29L6.29 16.3c-.4-.19-.83-.3-1.29-.3-1.65 0-3 1.35-3 3s1.35 3 3 3 3-1.35 3-3c0-.46-.11-.89-.3-1.29L17.71 7.7z"/></symbol><symbol viewBox="0 0 24 24" id="short_text" xmlns="http://www.w3.org/2000/svg"><path fill="none" d="M0 0h24v24H0z"/><path d="M4 9h16v2H4V9zm0 4h10v2H4v-2z"/></symbol><symbol viewBox="0 0 24 24" id="show_chart" xmlns="http://www.w3.org/2000/svg"><path d="M0 0h24v24H0z" fill="none"/><path d="m3.5 18.49 6-6.01 4 4L22 6.92l-1.41-1.41-7.09 7.97-4-4L2 16.99z"/></symbol><symbol viewBox="0 0 24 24" id="space_bar" xmlns="http://www.w3.org/2000/svg"><path d="M0 0h24v24H0V0z" fill="none"/><path d="M18 9v4H6V9H4v6h16V9z"/></symbol><symbol viewBox="0 0 24 24" id="square" xmlns="http://www.w3.org/2000/svg"><path fill="none" d="M0 0h24v24H0z"/><path d="M3 3h18v18H3z"/></symbol><symbol viewBox="0 0 24 24" id="stacked_line_chart" xmlns="http://www.w3.org/2000/svg"><path fill="none" d="M0 0h24v24H0z"/><path d="m2 19.99 7.5-7.51 4 4 7.09-7.97L22 9.92l-8.5 9.56-4-4-6 6.01-1.5-1.5zm1.5-4.5 6-6.01 4 4L22 3.92l-1.41-1.41-7.09 7.97-4-4L2 13.99l1.5 1.5z"/></symbol><symbol viewBox="0 0 24 24" id="strikethrough_s" xmlns="http://www.w3.org/2000/svg"><path fill="none" d="M0 0h24v24H0z"/><path d="M6.85 7.08C6.85 4.37 9.45 3 12.24 3c1.64 0 3 .49 3.9 1.28.77.65 1.46 1.73 1.46 3.24h-3.01c0-.31-.05-.59-.15-.85-.29-.86-1.2-1.28-2.25-1.28-1.86 0-2.34 1.02-2.34 1.7 0 .48.25.88.74 1.21.38.25.77.48 1.41.7H7.39c-.21-.34-.54-.89-.54-1.92zM21 12v-2H3v2h9.62c1.15.45 1.96.75 1.96 1.97 0 1-.81 1.67-2.28 1.67-1.54 0-2.93-.54-2.93-2.51H6.4c0 .55.08 1.13.24 1.58.81 2.29 3.29 3.3 5.67 3.3 2.27 0 5.3-.89 5.3-4.05 0-.3-.01-1.16-.48-1.94H21V12z"/></symbol><symbol viewBox="0 0 24 24" id="subscript" xmlns="http://www.w3.org/2000/svg"><path fill="none" d="M0 0h24v24H0z"/><path d="M22 18h-2v1h3v1h-4v-2c0-.55.45-1 1-1h2v-1h-3v-1h3c.55 0 1 .45 1 1v1c0 .55-.45 1-1 1zM5.88 18h2.66l3.4-5.42h.12l3.4 5.42h2.66l-4.65-7.27L17.81 4h-2.68l-3.07 4.99h-.12L8.85 4H6.19l4.32 6.73L5.88 18z"/></symbol><symbol viewBox="0 0 24 24" id="superscript" xmlns="http://www.w3.org/2000/svg"><path fill="none" d="M0 0h24v24H0z"/><path d="M22 7h-2v1h3v1h-4V7c0-.55.45-1 1-1h2V5h-3V4h3c.55 0 1 .45 1 1v1c0 .55-.45 1-1 1zM5.88 20h2.66l3.4-5.42h.12l3.4 5.42h2.66l-4.65-7.27L17.81 6h-2.68l-3.07 4.99h-.12L8.85 6H6.19l4.32 6.73L5.88 20z"/></symbol><symbol viewBox="0 0 24 24" id="table_chart" xmlns="http://www.w3.org/2000/svg"><path d="M0 0h24v24H0V0z" fill="none"/><path d="M10 10.02h5V21h-5zM17 21h3c1.1 0 2-.9 2-2v-9h-5v11zm3-18H5c-1.1 0-2 .9-2 2v3h19V5c0-1.1-.9-2-2-2zM3 19c0 1.1.9 2 2 2h3V10H3v9z"/></symbol><symbol viewBox="0 0 24 24" id="table_rows" xmlns="http://www.w3.org/2000/svg"><path fill="none" d="M0 0h24v24H0z"/><path d="M21 8H3V4h18v4zm0 2H3v4h18v-4zm0 6H3v4h18v-4z"/></symbol><symbol viewBox="0 0 24 24" id="text_decrease" xmlns="http://www.w3.org/2000/svg"><path fill="none" d="M0 0h24v24H0z"/><path d="M.99 19h2.42l1.27-3.58h5.65L11.59 19h2.42L8.75 5h-2.5L.99 19zm4.42-5.61L7.44 7.6h.12l2.03 5.79H5.41zM23 11v2h-8v-2h8z"/></symbol><symbol viewBox="0 0 24 24" id="text_fields" xmlns="http://www.w3.org/2000/svg"><path fill="none" d="M0 0h24v24H0z"/><path d="M2.5 4v3h5v12h3V7h5V4h-13zm19 5h-9v3h3v7h3v-7h3V9z"/></symbol><symbol viewBox="0 0 24 24" id="text_increase" xmlns="http://www.w3.org/2000/svg"><path fill="none" d="M0 0h24v24H0z"/><path d="M.99 19h2.42l1.27-3.58h5.65L11.59 19h2.42L8.75 5h-2.5L.99 19zm4.42-5.61L7.44 7.6h.12l2.03 5.79H5.41zM20 11h3v2h-3v3h-2v-3h-3v-2h3V8h2v3z"/></symbol><symbol viewBox="0 0 24 24" id="title" xmlns="http://www.w3.org/2000/svg"><path d="M0 0h24v24H0V0z" fill="none"/><path d="M5 4v3h5.5v12h3V7H19V4z"/></symbol><symbol viewBox="0 0 24 24" id="type_specimen" xmlns="http://www.w3.org/2000/svg"><path fill="none" d="M0 0h24v24H0z"/><path d="M4 6H2v14c0 1.1.9 2 2 2h14v-2H4V6z"/><path d="M20 2H8c-1.1 0-2 .9-2 2v12c0 1.1.9 2 2 2h12c1.1 0 2-.9 2-2V4c0-1.1-.9-2-2-2zm-3.37 12.5-.8-2.3H12.2l-.82 2.3H9.81l3.38-9h1.61l3.38 9h-1.55z"/><path d="m13.96 7.17-1.31 3.72h2.69l-1.3-3.72z"/></symbol><symbol viewBox="0 0 24 24" id="vertical_align_bottom" xmlns="http://www.w3.org/2000/svg"><path d="M0 0h24v24H0z" fill="none"/><path d="M16 13h-3V3h-2v10H8l4 4 4-4zM4 19v2h16v-2H4z"/></symbol><symbol viewBox="0 0 24 24" id="vertical_align_center" xmlns="http://www.w3.org/2000/svg"><path d="M0 0h24v24H0z" fill="none"/><path d="M8 19h3v4h2v-4h3l-4-4-4 4zm8-14h-3V1h-2v4H8l4 4 4-4zM4 11v2h16v-2H4z"/></symbol><symbol viewBox="0 0 24 24" id="vertical_align_top" xmlns="http://www.w3.org/2000/svg"><path d="M0 0h24v24H0z" fill="none"/><path d="M8 11h3v10h2V11h3l-4-4-4 4zM4 3v2h16V3H4z"/></symbol><symbol viewBox="0 0 24 24" id="vertical_distribute" xmlns="http://www.w3.org/2000/svg"><path fill="none" d="M0 0h24v24H0z"/><path d="M22 2v2H2V2h20zM7 10.5v3h10v-3H7zM2 20v2h20v-2H2z"/></symbol><symbol viewBox="0 0 24 24" id="wrap_text" xmlns="http://www.w3.org/2000/svg"><path d="M0 0h24v24H0z" fill="none"/><path d="M4 19h6v-2H4v2zM20 5H4v2h16V5zm-3 6H4v2h13.25c1.1 0 2 .9 2 2s-.9 2-2 2H15v-2l-3 3 3 3v-2h2c2.21 0 4-1.79 4-4s-1.79-4-4-4z"/></symbol></svg>