<?xml version="1.0" encoding="utf-8"?><svg xmlns="http://www.w3.org/2000/svg" xmlns:xlink="http://www.w3.org/1999/xlink"><symbol viewBox="0 0 24 24" id="approval" xmlns="http://www.w3.org/2000/svg"><path d="M0 0h24v24H0z" fill="none"/><path d="M4 16v6h16v-6c0-1.1-.9-2-2-2H6c-1.1 0-2 .9-2 2zm14 2H6v-2h12v2zM12 2C9.24 2 7 4.24 7 7l5 7 5-7c0-2.76-2.24-5-5-5zm0 9L9 7c0-1.66 1.34-3 3-3s3 1.34 3 3l-3 4z"/></symbol><symbol viewBox="0 0 24 24" id="attach_email" xmlns="http://www.w3.org/2000/svg"><path fill="none" d="M0 0h24v24H0z"/><path d="M21 10V4c0-1.1-.9-2-2-2H3c-1.1 0-1.99.9-1.99 2L1 16c0 1.1.9 2 2 2h11v-5c0-1.66 1.34-3 3-3h4zm-10 1L3 6V4l8 5 8-5v2l-8 5z"/><path d="M21 14v4c0 1.1-.9 2-2 2s-2-.9-2-2v-4.5c0-.28.22-.5.5-.5s.5.22.5.5V18h2v-4.5a2.5 2.5 0 0 0-5 0V18c0 2.21 1.79 4 4 4s4-1.79 4-4v-4h-2z"/></symbol><symbol viewBox="0 0 24 24" id="attachment" xmlns="http://www.w3.org/2000/svg"><path d="M0 0h24v24H0V0z" fill="none"/><path d="M2 12.5C2 9.46 4.46 7 7.5 7H18c2.21 0 4 1.79 4 4s-1.79 4-4 4H9.5a2.5 2.5 0 0 1 0-5H17v2H9.41c-.55 0-.55 1 0 1H18c1.1 0 2-.9 2-2s-.9-2-2-2H7.5C5.57 9 4 10.57 4 12.5S5.57 16 7.5 16H17v2H7.5C4.46 18 2 15.54 2 12.5z"/></symbol><symbol viewBox="0 0 24 24" id="cloud" xmlns="http://www.w3.org/2000/svg"><path d="M0 0h24v24H0z" fill="none"/><path d="M19.35 10.04A7.49 7.49 0 0 0 12 4C9.11 4 6.6 5.64 5.35 8.04A5.994 5.994 0 0 0 0 14c0 3.31 2.69 6 6 6h13c2.76 0 5-2.24 5-5 0-2.64-2.05-4.78-4.65-4.96z"/></symbol><symbol viewBox="0 0 24 24" id="cloud_circle" xmlns="http://www.w3.org/2000/svg"><path d="M0 0h24v24H0z" fill="none"/><path d="M12 2C6.48 2 2 6.48 2 12s4.48 10 10 10 10-4.48 10-10S17.52 2 12 2zm4.5 14H8c-1.66 0-3-1.34-3-3s1.34-3 3-3l.14.01A3.98 3.98 0 0 1 12 7c2.21 0 4 1.79 4 4h.5a2.5 2.5 0 0 1 0 5z"/></symbol><symbol viewBox="0 0 24 24" id="cloud_done" xmlns="http://www.w3.org/2000/svg"><path d="M0 0h24v24H0z" fill="none"/><path d="M19.35 10.04A7.49 7.49 0 0 0 12 4C9.11 4 6.6 5.64 5.35 8.04A5.994 5.994 0 0 0 0 14c0 3.31 2.69 6 6 6h13c2.76 0 5-2.24 5-5 0-2.64-2.05-4.78-4.65-4.96zM10 17l-3.5-3.5 1.41-1.41L10 14.17 15.18 9l1.41 1.41L10 17z"/></symbol><symbol viewBox="0 0 24 24" id="cloud_download" xmlns="http://www.w3.org/2000/svg"><path d="M0 0h24v24H0z" fill="none"/><path d="M19.35 10.04A7.49 7.49 0 0 0 12 4C9.11 4 6.6 5.64 5.35 8.04A5.994 5.994 0 0 0 0 14c0 3.31 2.69 6 6 6h13c2.76 0 5-2.24 5-5 0-2.64-2.05-4.78-4.65-4.96zM17 13l-5 5-5-5h3V9h4v4h3z"/></symbol><symbol viewBox="0 0 24 24" id="cloud_off" xmlns="http://www.w3.org/2000/svg"><path d="M0 0h24v24H0z" fill="none"/><path d="M19.35 10.04A7.49 7.49 0 0 0 12 4c-1.48 0-2.85.43-4.01 1.17l1.46 1.46a5.497 5.497 0 0 1 8.05 4.87v.5H19c1.66 0 3 1.34 3 3 0 1.13-.64 2.11-1.56 2.62l1.45 1.45C23.16 18.16 24 16.68 24 15c0-2.64-2.05-4.78-4.65-4.96zM3 5.27l2.75 2.74C2.56 8.15 0 10.77 0 14c0 3.31 2.69 6 6 6h11.73l2 2L21 20.73 4.27 4 3 5.27zM7.73 10l8 8H6c-2.21 0-4-1.79-4-4s1.79-4 4-4h1.73z"/></symbol><symbol viewBox="0 0 24 24" id="cloud_queue" xmlns="http://www.w3.org/2000/svg"><path d="M0 0h24v24H0z" fill="none"/><path d="M19.35 10.04A7.49 7.49 0 0 0 12 4C9.11 4 6.6 5.64 5.35 8.04A5.994 5.994 0 0 0 0 14c0 3.31 2.69 6 6 6h13c2.76 0 5-2.24 5-5 0-2.64-2.05-4.78-4.65-4.96zM19 18H6c-2.21 0-4-1.79-4-4s1.79-4 4-4h.71C7.37 7.69 9.48 6 12 6c3.04 0 5.5 2.46 5.5 5.5v.5H19c1.66 0 3 1.34 3 3s-1.34 3-3 3z"/></symbol><symbol viewBox="0 0 24 24" id="cloud_sync" xmlns="http://www.w3.org/2000/svg"><path fill="none" d="M0 0h24v24H0z"/><path d="M21.5 14.98c-.02 0-.03 0-.05.01A3.49 3.49 0 0 0 18 12c-1.4 0-2.6.83-3.16 2.02A2.988 2.988 0 0 0 12 17c0 1.66 1.34 3 3 3l6.5-.02a2.5 2.5 0 0 0 0-5zM10 4.26v2.09C7.67 7.18 6 9.39 6 12c0 1.77.78 3.34 2 4.44V14h2v6H4v-2h2.73A7.942 7.942 0 0 1 4 12c0-3.73 2.55-6.85 6-7.74zM20 6h-2.73a7.98 7.98 0 0 1 2.66 5h-2.02c-.23-1.36-.93-2.55-1.91-3.44V10h-2V4h6v2z"/></symbol><symbol viewBox="0 0 24 24" id="cloud_upload" xmlns="http://www.w3.org/2000/svg"><path d="M0 0h24v24H0z" fill="none"/><path d="M19.35 10.04A7.49 7.49 0 0 0 12 4C9.11 4 6.6 5.64 5.35 8.04A5.994 5.994 0 0 0 0 14c0 3.31 2.69 6 6 6h13c2.76 0 5-2.24 5-5 0-2.64-2.05-4.78-4.65-4.96zM14 13v4h-4v-4H7l5-5 5 5h-3z"/></symbol><symbol viewBox="0 0 24 24" id="create_new_folder" xmlns="http://www.w3.org/2000/svg"><path d="M0 0h24v24H0V0z" fill="none"/><path d="M20 6h-8l-2-2H4c-1.11 0-1.99.89-1.99 2L2 18c0 1.11.89 2 2 2h16c1.11 0 2-.89 2-2V8c0-1.11-.89-2-2-2zm-1 8h-3v3h-2v-3h-3v-2h3V9h2v3h3v2z"/></symbol><symbol viewBox="0 0 24 24" id="difference" xmlns="http://www.w3.org/2000/svg"><path fill="none" d="M0 0h24v24H0z"/><path d="M18 23H4c-1.1 0-2-.9-2-2V7h2v14h14v2zM15 1H8c-1.1 0-1.99.9-1.99 2L6 17c0 1.1.89 2 1.99 2H19c1.1 0 2-.9 2-2V7l-6-6zm1.5 14h-6v-2h6v2zm0-6h-2v2h-2V9h-2V7h2V5h2v2h2v2z"/></symbol><symbol viewBox="0 0 24 24" id="download" xmlns="http://www.w3.org/2000/svg"><path fill="none" d="M0 0h24v24H0z"/><path d="M5 20h14v-2H5v2zM19 9h-4V3H9v6H5l7 7 7-7z"/></symbol><symbol viewBox="0 0 24 24" id="download_done" xmlns="http://www.w3.org/2000/svg"><path fill="none" d="M0 0h24v24H0z"/><path d="M20.13 5.41 18.72 4l-9.19 9.19-4.25-4.24-1.41 1.41 5.66 5.66zM5 18h14v2H5z"/></symbol><symbol viewBox="0 0 24 24" id="download_for_offline" xmlns="http://www.w3.org/2000/svg"><path fill="none" d="M0 0h24v24H0z"/><path d="M12 2C6.49 2 2 6.49 2 12s4.49 10 10 10 10-4.49 10-10S17.51 2 12 2zm-1 8V6h2v4h3l-4 4-4-4h3zm6 7H7v-2h10v2z"/></symbol><symbol viewBox="0 0 24 24" id="downloading" xmlns="http://www.w3.org/2000/svg"><path fill="none" d="M0 0h24v24H0z"/><path d="M18.32 4.26A9.949 9.949 0 0 0 13 2.05v2.02c1.46.18 2.79.76 3.9 1.62l1.42-1.43zM19.93 11h2.02c-.2-2.01-1-3.84-2.21-5.32L18.31 7.1a7.941 7.941 0 0 1 1.62 3.9zm-1.62 5.9 1.43 1.43a9.981 9.981 0 0 0 2.21-5.32h-2.02a7.945 7.945 0 0 1-1.62 3.89zM13 19.93v2.02c2.01-.2 3.84-1 5.32-2.21l-1.43-1.43c-1.1.86-2.43 1.44-3.89 1.62zM13 12V7h-2v5H7l5 5 5-5h-4zm-2 7.93v2.02c-5.05-.5-9-4.76-9-9.95s3.95-9.45 9-9.95v2.02C7.05 4.56 4 7.92 4 12s3.05 7.44 7 7.93z"/></symbol><symbol viewBox="0 0 24 24" id="drive_file_move" xmlns="http://www.w3.org/2000/svg"><path d="M0 0h24v24H0V0z" fill="none"/><path d="M20 6h-8l-2-2H4c-1.1 0-2 .9-2 2v12c0 1.1.9 2 2 2h16c1.1 0 2-.9 2-2V8c0-1.1-.9-2-2-2zm-6 12v-3h-4v-4h4V8l5 5-5 5z"/></symbol><symbol viewBox="0 0 24 24" id="drive_file_move_outline" xmlns="http://www.w3.org/2000/svg"><path d="M0 0h24v24H0z" fill="none"/><path d="M20 6h-8l-2-2H4c-1.1 0-1.99.9-1.99 2L2 18c0 1.1.9 2 2 2h16c1.1 0 2-.9 2-2V8c0-1.1-.9-2-2-2zm0 12H4V8h16v10zm-8.01-9-1.41 1.41L12.16 12H8v2h4.16l-1.59 1.59L11.99 17 16 13.01 11.99 9z"/></symbol><symbol viewBox="0 0 24 24" id="drive_file_move_rtl" xmlns="http://www.w3.org/2000/svg"><path fill="none" d="M0 0h24v24H0z"/><path d="M20 6h-8l-2-2H4c-1.1 0-2 .9-2 2v12c0 1.1.9 2 2 2h16c1.1 0 2-.9 2-2V8c0-1.1-.9-2-2-2zm-8 11-4-4 4-4v3h4v2h-4v3z"/></symbol><symbol viewBox="0 0 24 24" id="drive_file_rename_outline" xmlns="http://www.w3.org/2000/svg"><path d="M0 0h24v24H0z" fill="none"/><path d="M18.41 5.8 17.2 4.59c-.78-.78-2.05-.78-2.83 0l-2.68 2.68L3 15.96V20h4.04l8.74-8.74 2.63-2.63c.79-.78.79-2.05 0-2.83zM6.21 18H5v-1.21l8.66-8.66 1.21 1.21L6.21 18zM11 20l4-4h6v4H11z"/></symbol><symbol viewBox="0 0 24 24" id="drive_folder_upload" xmlns="http://www.w3.org/2000/svg"><path d="M0 0h24v24H0z" fill="none"/><path d="M20 6h-8l-2-2H4c-1.1 0-1.99.9-1.99 2L2 18c0 1.1.9 2 2 2h16c1.1 0 2-.9 2-2V8c0-1.1-.9-2-2-2zm0 12H4V8h16v10zM8 13.01l1.41 1.41L11 12.84V17h2v-4.16l1.59 1.59L16 13.01 12.01 9 8 13.01z"/></symbol><symbol viewBox="0 0 24 24" id="file_download" xmlns="http://www.w3.org/2000/svg"><path d="M0 0h24v24H0z" fill="none"/><path d="M19 9h-4V3H9v6H5l7 7 7-7zM5 18v2h14v-2H5z"/></symbol><symbol viewBox="0 0 24 24" id="file_download_done" xmlns="http://www.w3.org/2000/svg"><path d="M0 0h24v24H0V0z" fill="none"/><path d="M5 18h14v2H5v-2zm4.6-2.7L5 10.7l2-1.9 2.6 2.6L17 4l2 2-9.4 9.3z"/></symbol><symbol viewBox="0 0 24 24" id="file_download_off" xmlns="http://www.w3.org/2000/svg"><path fill="none" d="M0 0h24v24H0z"/><path d="M9 6.17V3h6v6h4l-3.59 3.59L9 6.17zm12.19 15.02L2.81 2.81 1.39 4.22 6.17 9H5l7 7 .59-.59L15.17 18H5v2h12.17l2.61 2.61 1.41-1.42z"/></symbol><symbol viewBox="0 0 24 24" id="file_open" xmlns="http://www.w3.org/2000/svg"><path fill="none" d="M0 0h24v24H0z"/><path d="M14 2H6c-1.1 0-2 .9-2 2v16c0 1.1.89 2 1.99 2H15v-8h5V8l-6-6zm-1 7V3.5L18.5 9H13zm4 12.66V16h5.66v2h-2.24l2.95 2.95-1.41 1.41L19 19.41v2.24h-2z"/></symbol><symbol viewBox="0 0 24 24" id="file_upload" xmlns="http://www.w3.org/2000/svg"><path d="M0 0h24v24H0z" fill="none"/><path d="M9 16h6v-6h4l-7-7-7 7h4zm-4 2h14v2H5z"/></symbol><symbol viewBox="0 0 24 24" id="file_upload_off" xmlns="http://www.w3.org/2000/svg"><path fill="none" d="M0 0h24v24H0z"/><path d="M21.19 21.19 2.81 2.81 1.39 4.22l4.7 4.69L5 10h2.17L9 11.83V16h4.17l2 2H5v2h12.17l2.61 2.61zM15 10h4l-7-7-3.09 3.09L15 12.17z"/></symbol><symbol viewBox="0 0 24 24" id="folder" xmlns="http://www.w3.org/2000/svg"><path d="M0 0h24v24H0z" fill="none"/><path d="M10 4H4c-1.1 0-1.99.9-1.99 2L2 18c0 1.1.9 2 2 2h16c1.1 0 2-.9 2-2V8c0-1.1-.9-2-2-2h-8l-2-2z"/></symbol><symbol viewBox="0 0 24 24" id="folder_copy" xmlns="http://www.w3.org/2000/svg"><path fill="none" d="M0 0h24v24H0z"/><path d="M3 6H1v13c0 1.1.9 2 2 2h17v-2H3V6z"/><path d="M21 4h-7l-2-2H7c-1.1 0-1.99.9-1.99 2L5 15c0 1.1.9 2 2 2h14c1.1 0 2-.9 2-2V6c0-1.1-.9-2-2-2z"/></symbol><symbol viewBox="0 0 24 24" id="folder_delete" xmlns="http://www.w3.org/2000/svg"><path fill="none" d="M0 0h24v24H0z"/><path d="M22 8v10c0 1.1-.9 2-2 2H4c-1.1 0-2-.9-2-2l.01-12c0-1.1.89-2 1.99-2h6l2 2h8c1.1 0 2 .9 2 2zm-5.5 2V9h-2v1H12v1.5h1v4c0 .83.67 1.5 1.5 1.5h2c.83 0 1.5-.67 1.5-1.5v-4h1V10h-2.5zm0 5.5h-2v-4h2v4z"/></symbol><symbol viewBox="0 0 24 24" id="folder_off" xmlns="http://www.w3.org/2000/svg"><path fill="none" d="M0 0h24v24H0z"/><path d="M20 6h-8l-2-2H6.83l14.93 14.93c.15-.28.24-.59.24-.93V8c0-1.1-.9-2-2-2zM2.1 2.1.69 3.51l1.56 1.56c-.15.28-.24.59-.24.93L2 18c0 1.1.9 2 2 2h13.17l3.31 3.31 1.41-1.41L2.1 2.1z"/></symbol><symbol viewBox="0 0 24 24" id="folder_open" xmlns="http://www.w3.org/2000/svg"><path d="M0 0h24v24H0z" fill="none"/><path d="M20 6h-8l-2-2H4c-1.1 0-1.99.9-1.99 2L2 18c0 1.1.9 2 2 2h16c1.1 0 2-.9 2-2V8c0-1.1-.9-2-2-2zm0 12H4V8h16v10z"/></symbol><symbol viewBox="0 0 24 24" id="folder_shared" xmlns="http://www.w3.org/2000/svg"><path d="M0 0h24v24H0z" fill="none"/><path d="M20 6h-8l-2-2H4c-1.1 0-1.99.9-1.99 2L2 18c0 1.1.9 2 2 2h16c1.1 0 2-.9 2-2V8c0-1.1-.9-2-2-2zm-5 3c1.1 0 2 .9 2 2s-.9 2-2 2-2-.9-2-2 .9-2 2-2zm4 8h-8v-1c0-1.33 2.67-2 4-2s4 .67 4 2v1z"/></symbol><symbol viewBox="0 0 24 24" id="folder_zip" xmlns="http://www.w3.org/2000/svg"><path fill="none" d="M0 0h24v24H0z"/><path d="M20 6h-8l-2-2H4c-1.1 0-1.99.9-1.99 2L2 18c0 1.1.9 2 2 2h16c1.1 0 2-.9 2-2V8c0-1.1-.9-2-2-2zm-2 6h-2v2h2v2h-2v2h-2v-2h2v-2h-2v-2h2v-2h-2V8h2v2h2v2z"/></symbol><symbol viewBox="0 0 24 24" id="format_overline" xmlns="http://www.w3.org/2000/svg"><path fill="none" d="M0 0h24v24H0z"/><path d="M19 3v2H5V3h14zm-7 4c-3.87 0-7 3.13-7 7s3.13 7 7 7 7-3.13 7-7-3.13-7-7-7zm0 11.5c-2.49 0-4.5-2.01-4.5-4.5S9.51 9.5 12 9.5s4.5 2.01 4.5 4.5-2.01 4.5-4.5 4.5z"/></symbol><symbol viewBox="0 0 24 24" id="grid_view" xmlns="http://www.w3.org/2000/svg"><g fill-rule="evenodd"><path d="M0 0h24v24H0z" fill="none"/><path d="M3 3v8h8V3H3zm6 6H5V5h4v4zm-6 4v8h8v-8H3zm6 6H5v-4h4v4zm4-16v8h8V3h-8zm6 6h-4V5h4v4zm-6 4v8h8v-8h-8zm6 6h-4v-4h4v4z"/></g></symbol><symbol viewBox="0 0 24 24" id="newspaper" xmlns="http://www.w3.org/2000/svg"><path fill="none" d="M0 0h24v24H0z"/><path d="m22 3-1.67 1.67L18.67 3 17 4.67 15.33 3l-1.66 1.67L12 3l-1.67 1.67L8.67 3 7 4.67 5.33 3 3.67 4.67 2 3v16c0 1.1.9 2 2 2h16c1.1 0 2-.9 2-2V3zM11 19H4v-6h7v6zm9 0h-7v-2h7v2zm0-4h-7v-2h7v2zm0-4H4V8h16v3z"/></symbol><symbol viewBox="0 0 24 24" id="request_quote" xmlns="http://www.w3.org/2000/svg"><path fill="none" d="M0 0h24v24H0z"/><path d="M14 2H6c-1.1 0-1.99.9-1.99 2L4 20c0 1.1.89 2 1.99 2H18c1.1 0 2-.9 2-2V8l-6-6zm1 10h-4v1h3c.55 0 1 .45 1 1v3c0 .55-.45 1-1 1h-1v1h-2v-1H9v-2h4v-1h-3c-.55 0-1-.45-1-1v-3c0-.55.45-1 1-1h1V9h2v1h2v2zm-2-4V3.5L17.5 8H13z"/></symbol><symbol viewBox="0 0 24 24" id="rule_folder" xmlns="http://www.w3.org/2000/svg"><path fill="none" d="M0 0h24v24H0z"/><path d="M20 6h-8l-2-2H4c-1.1 0-1.99.9-1.99 2L2 18c0 1.1.9 2 2 2h16c1.1 0 2-.9 2-2V8c0-1.1-.9-2-2-2zM7.83 16 5 13.17l1.41-1.41 1.41 1.41 3.54-3.54 1.41 1.41L7.83 16zm9.58-3L19 14.59 17.59 16 16 14.41 14.41 16 13 14.59 14.59 13 13 11.41 14.41 10 16 11.59 17.59 10 19 11.41 17.41 13z"/></symbol><symbol viewBox="0 0 24 24" id="snippet_folder" xmlns="http://www.w3.org/2000/svg"><path fill="none" d="M0 0h24v24H0z"/><path d="m15.88 10.5 1.62 1.62v3.38h-3v-5h1.38zM22 8v10c0 1.1-.9 2-2 2H4c-1.1 0-2-.9-2-2l.01-12c0-1.1.89-2 1.99-2h6l2 2h8c1.1 0 2 .9 2 2zm-3 3.5L16.5 9H13v8h6v-5.5z"/></symbol><symbol viewBox="0 0 24 24" id="text_snippet" xmlns="http://www.w3.org/2000/svg"><path fill="none" d="M0 0h24v24H0z"/><path d="m20.41 8.41-4.83-4.83c-.37-.37-.88-.58-1.41-.58H5c-1.1 0-2 .9-2 2v14c0 1.1.9 2 2 2h14c1.1 0 2-.9 2-2V9.83c0-.53-.21-1.04-.59-1.42zM7 7h7v2H7V7zm10 10H7v-2h10v2zm0-4H7v-2h10v2z"/></symbol><symbol viewBox="0 0 24 24" id="topic" xmlns="http://www.w3.org/2000/svg"><path fill="none" d="M0 0h24v24H0z"/><path d="M20 6h-8l-2-2H4c-1.1 0-1.99.9-1.99 2L2 18c0 1.1.9 2 2 2h16c1.1 0 2-.9 2-2V8c0-1.1-.9-2-2-2zm-6 10H6v-2h8v2zm4-4H6v-2h12v2z"/></symbol><symbol viewBox="0 0 24 24" id="upload" xmlns="http://www.w3.org/2000/svg"><path fill="none" d="M0 0h24v24H0z"/><path d="M5 20h14v-2H5v2zm0-10h4v6h6v-6h4l-7-7-7 7z"/></symbol><symbol viewBox="0 0 24 24" id="upload_file" xmlns="http://www.w3.org/2000/svg"><path d="M0 0h24v24H0V0z" fill="none"/><path d="M14 2H6c-1.1 0-1.99.9-1.99 2L4 20c0 1.1.89 2 1.99 2H18c1.1 0 2-.9 2-2V8l-6-6zm4 18H6V4h7v5h5v11zM8 15.01l1.41 1.41L11 14.84V19h2v-4.16l1.59 1.59L16 15.01 12.01 11z"/></symbol><symbol viewBox="0 0 24 24" id="workspaces" xmlns="http://www.w3.org/2000/svg"><path fill="none" d="M0 0h24v24H0z"/><path d="M6 13c-2.2 0-4 1.8-4 4s1.8 4 4 4 4-1.8 4-4-1.8-4-4-4zm6-10C9.8 3 8 4.8 8 7s1.8 4 4 4 4-1.8 4-4-1.8-4-4-4zm6 10c-2.2 0-4 1.8-4 4s1.8 4 4 4 4-1.8 4-4-1.8-4-4-4z"/></symbol><symbol viewBox="0 0 24 24" id="workspaces_filled" xmlns="http://www.w3.org/2000/svg"><path d="M0 0h24v24H0z" fill="none"/><path d="M6 13c-2.2 0-4 1.8-4 4s1.8 4 4 4 4-1.8 4-4-1.8-4-4-4zm6-10C9.8 3 8 4.8 8 7s1.8 4 4 4 4-1.8 4-4-1.8-4-4-4zm6 10c-2.2 0-4 1.8-4 4s1.8 4 4 4 4-1.8 4-4-1.8-4-4-4z"/></symbol><symbol viewBox="0 0 24 24" id="workspaces_outline" xmlns="http://www.w3.org/2000/svg"><path d="M0 0h24v24H0z" fill="none"/><path d="M6 15c1.1 0 2 .9 2 2s-.9 2-2 2-2-.9-2-2 .9-2 2-2m0-2c-2.2 0-4 1.8-4 4s1.8 4 4 4 4-1.8 4-4-1.8-4-4-4zm6-8c1.1 0 2 .9 2 2s-.9 2-2 2-2-.9-2-2 .9-2 2-2m0-2C9.8 3 8 4.8 8 7s1.8 4 4 4 4-1.8 4-4-1.8-4-4-4zm6 12c1.1 0 2 .9 2 2s-.9 2-2 2-2-.9-2-2 .9-2 2-2m0-2c-2.2 0-4 1.8-4 4s1.8 4 4 4 4-1.8 4-4-1.8-4-4-4z"/></symbol></svg>