<?xml version="1.0" encoding="utf-8"?><svg xmlns="http://www.w3.org/2000/svg" xmlns:xlink="http://www.w3.org/1999/xlink"><symbol viewBox="0 0 24 24" id="account_settings" xmlns="http://www.w3.org/2000/svg"><path d="M9.6 3.32a3.86 3.86 0 1 0 3.86 3.85A3.85 3.85 0 0 0 9.6 3.32M16.35 11a.26.26 0 0 0-.25.21l-.18 1.27a4.63 4.63 0 0 0-.82.45l-1.2-.48a.3.3 0 0 0-.3.13l-1 1.66a.24.24 0 0 0 .06.31l1 .79a3.94 3.94 0 0 0 0 1l-1 .79a.23.23 0 0 0-.06.3l1 1.67c.06.13.19.13.3.13l1.2-.49a3.85 3.85 0 0 0 .82.46l.18 1.27a.24.24 0 0 0 .25.2h1.93a.24.24 0 0 0 .23-.2l.18-1.27a5 5 0 0 0 .81-.46l1.19.49c.12 0 .25 0 .32-.13l1-1.67a.23.23 0 0 0-.06-.3l-1-.79a4 4 0 0 0 0-.49 2.67 2.67 0 0 0 0-.48l1-.79a.25.25 0 0 0 .06-.31l-1-1.66c-.06-.13-.19-.13-.31-.13l-1.2.52a4.07 4.07 0 0 0-.82-.45l-.18-1.27a.23.23 0 0 0-.22-.21h-1.82M9.71 13C5.45 13 2 14.7 2 16.83v1.92h9.33a6.65 6.65 0 0 1 0-5.69A13.56 13.56 0 0 0 9.71 13m7.6 1.43a1.45 1.45 0 1 1 0 2.89 1.45 1.45 0 0 1 0-2.89Z"/></symbol><symbol viewBox="0 0 24 24" id="api" xmlns="http://www.w3.org/2000/svg"><path fill="none" d="M0 0h24v24H0z"/><path d="M20 6H4a2 2 0 0 0-2 2v8a2 2 0 0 0 2 2h16a2 2 0 0 0 2-2V8a2 2 0 0 0-2-2ZM9.29 14.8 9 13.73H7.16l-.29 1.07h-1.7L7 9.07h2.09L11 14.8Zm6.34-3.14a1.7 1.7 0 0 1-.36.64 1.82 1.82 0 0 1-.67.44 2.75 2.75 0 0 1-1 .17h-.44v1.89H11.6V9.09h2a2.43 2.43 0 0 1 1.62.47 1.67 1.67 0 0 1 .55 1.35 2.36 2.36 0 0 1-.14.75Zm2.58 3.14h-1.55V9.09h1.55Zm-9.76-3.27.24.93H7.48l.24-.93c0-.13.08-.28.12-.47s.09-.38.13-.57a4.63 4.63 0 0 0 .1-.48c0 .13.07.29.11.5l.15.58Zm5.59-1a.57.57 0 0 1 .16.43.75.75 0 0 1-.11.42.59.59 0 0 1-.27.22.9.9 0 0 1-.37.07h-.31v-1.33h.4a.63.63 0 0 1 .46.17Z" fill-rule="evenodd"/></symbol><symbol viewBox="0 0 24 24" id="api_settings" xmlns="http://www.w3.org/2000/svg"><path d="M21.3 19a2.42 2.42 0 0 1-2.5.56l-2.35 2.35a.34.34 0 0 1-.49 0l-1-1a.36.36 0 0 1 0-.49l2.36-2.35a2.39 2.39 0 0 1 3.39-2.91l-1.59 1.64 1 1 1.62-1.62A2.39 2.39 0 0 1 21.3 19ZM22 8v5.76a4.47 4.47 0 0 0-2.5-.76 4.57 4.57 0 0 0-1.29.19v-3.9h-1.55V14A4.5 4.5 0 0 0 15 17.5a4.07 4.07 0 0 0 0 .5H4a2 2 0 0 1-2-2V8a2 2 0 0 1 2-2h16a2 2 0 0 1 2 2Zm-11 7L9.09 9.27H7L5.17 15h1.7l.29-1.07H9L9.29 15Zm4.77-3.89a1.67 1.67 0 0 0-.55-1.35 2.43 2.43 0 0 0-1.62-.47h-2V15h1.54v-1.89h.44a2.75 2.75 0 0 0 1-.17 1.82 1.82 0 0 0 .67-.44 1.63 1.63 0 0 0 .36-.64 2.36 2.36 0 0 0 .14-.75Zm-7.3.62-.12-.44-.15-.58c0-.21-.08-.37-.11-.5a4.63 4.63 0 0 1-.1.48c0 .19-.08.38-.13.57s-.08.34-.12.47l-.24.93h1.19Zm5.59-1a.63.63 0 0 0-.5-.17h-.4v1.31h.31a.9.9 0 0 0 .37-.07.59.59 0 0 0 .27-.22.75.75 0 0 0 .11-.42.57.57 0 0 0-.22-.45Z"/><path fill="none" d="M0 0h24v24H0z"/></symbol><symbol viewBox="0 0 24 24" id="configuration" xmlns="http://www.w3.org/2000/svg"><path d="M7 3H5v6h2V3Zm12 0h-2v10h2V3ZM3 13h2v8h2v-8h2v-2H3v2Zm12-6h-2V3h-2v4H9v2h6V7Zm-4 14h2V11h-2v10Zm4-6v2h2v4h2v-4h2v-2h-6Z"/></symbol><symbol viewBox="0 0 24 24" id="control" xmlns="http://www.w3.org/2000/svg"><path d="M11 4v3h2V4h-2ZM19 15h3v-2h-3v2ZM12 19a5 5 0 0 0 4.172-7.757l-3.465 3.464-1.414-1.414 3.464-3.465A5 5 0 1 0 12 19ZM5 15H2v-2h3v2ZM18.293 6.293l-2 2 1.414 1.414 2-2-1.414-1.414ZM6.293 9.707l-2-2 1.414-1.414 2 2-1.414 1.414Z"/></symbol><symbol viewBox="0 0 24 24" id="device_configuration" xmlns="http://www.w3.org/2000/svg"><path fill-rule="evenodd" clip-rule="evenodd" d="M12 19c0-3.9 3.1-7 7-7 .7 0 1.4.1 2 .3V5c0-1.1-.9-2-2-2H5c-1.1 0-2 .9-2 2v14c0 1.1.9 2 2 2h7.3c-.2-.6-.3-1.3-.3-2ZM5 8V5h14v3H5Z"/><path d="M21.304 18.978a2.401 2.401 0 0 1-2.5.56l-2.353 2.353a.342.342 0 0 1-.49 0l-.967-.966a.342.342 0 0 1 0-.49l2.354-2.354a2.401 2.401 0 0 1 .56-2.5 2.393 2.393 0 0 1 2.83-.407l-1.622 1.623.973.973 1.622-1.622c.49.904.36 2.064-.407 2.83Z"/></symbol><symbol viewBox="0 0 24 24" id="diagnostic" xmlns="http://www.w3.org/2000/svg"><path d="M15.5 14h-.8l-.3-.3A6.26 6.26 0 0 0 16 9.5 6.5 6.5 0 1 0 9.5 16a6.26 6.26 0 0 0 4.2-1.6l.3.3v.8l5 5 1.5-1.5Zm-6-9a4.48 4.48 0 0 1 4.39 3.5h-2.43l-1.07 1.6L8.22 6 6.91 8.5h-1.8A4.48 4.48 0 0 1 9.5 5Zm0 9A4.48 4.48 0 0 1 5 10h2.82l.41-.78 2 3.79 2-3H14A4.47 4.47 0 0 1 9.5 14Z" fill-rule="evenodd"/><path fill="none" d="M0 0h24v24H0z"/></symbol><symbol viewBox="0 0 24 24" id="diagnostic_alt" xmlns="http://www.w3.org/2000/svg"><path fill-rule="evenodd" clip-rule="evenodd" d="M14.8 4H19c1.1 0 2 .9 2 2v14c0 1.1-.9 2-2 2H5c-1.1 0-2-.9-2-2V6c0-1.1.9-2 2-2h4.2c.4-1.2 1.5-2 2.8-2 1.3 0 2.4.8 2.8 2ZM13 5c0-.5-.5-1-1-1s-1 .5-1 1 .5 1 1 1 1-.5 1-1Zm-1.335 10.045L8.382 8.08 6.257 13H5v1.5h2.243l1.199-2.776 3.018 6.403 2.712-4.202 1.68 2.74 1.756-2.166H19V13h-2.108l-.87 1.074-1.819-2.964-2.538 3.935Z"/></symbol><symbol viewBox="0 0 24 24" id="internet" xmlns="http://www.w3.org/2000/svg"><path d="M12 2a7.71 7.71 0 0 0-1 15.37v.77h-1a1 1 0 0 0-1 1H2.35V21h6.76a1 1 0 0 0 1 1h3.86a1 1 0 0 0 1-1h6.76v-1.89h-6.84a1 1 0 0 0-1-1H13v-.77A7.71 7.71 0 0 0 12 2m0 1.67a15.43 15.43 0 0 1 1.21 2.9h-2.4A15.83 15.83 0 0 1 12 3.67m-2.15.42a14 14 0 0 0-1 2.48H7a5.78 5.78 0 0 1 2.88-2.48m4.3 0A5.73 5.73 0 0 1 17 6.57h-1.83a13 13 0 0 0-1-2.47m-8 4.4h2.31a7.48 7.48 0 0 0-.07 1 7.77 7.77 0 0 0 .07 1H6.33a5.23 5.23 0 0 1-.09-1 5 5 0 0 1 .09-1m3.74 0h3.58a7.48 7.48 0 0 1 .07 1 7.77 7.77 0 0 1-.07 1h-3.24a7.77 7.77 0 0 1-.07-1 7.48 7.48 0 0 1 .07-1m5.45 0h1.87a5 5 0 0 1 .09 1 5.23 5.23 0 0 1-.09 1h-2.15a7.77 7.77 0 0 0 .07-1 7.48 7.48 0 0 0-.07-1m-8.4 3.85h1.7a13.53 13.53 0 0 0 1 2.47A5.76 5.76 0 0 1 7 12.35m4 0h2.2a15.43 15.43 0 0 1-1.2 2.9 15.83 15.83 0 0 1-1.22-2.9m4.36 0H17a5.75 5.75 0 0 1-2.85 2.48 13.41 13.41 0 0 0 1.02-2.48Z"/></symbol><symbol viewBox="0 0 24 24" id="lock_reset" xmlns="http://www.w3.org/2000/svg"><path d="M13.16 3.17a8.83 8.83 0 1 1-7.4 13.63l1.4-1.11a7.05 7.05 0 1 0-1-4.57H8.6l-3.3 3.29L2 11.12h2.38a8.83 8.83 0 0 1 8.78-7.95m2.57 7.21a.81.81 0 0 1 .81.81v3.9a.82.82 0 0 1-.82.82H11a.79.79 0 0 1-.75-.82V11a.79.79 0 0 1 .74-.81v-.73a2.39 2.39 0 0 1 2.71-2.37 2.47 2.47 0 0 1 2.1 2.48v.81m-1.11-.84A1.22 1.22 0 0 0 14 8.4a1.29 1.29 0 0 0-1.86 1.09v.89h2.57Z"/></symbol><symbol viewBox="0 0 24 24" id="notifications_active_outline" xmlns="http://www.w3.org/2000/svg"><path d="M12 22c1.1 0 2-.9 2-2h-4c0 1.1.9 2 2 2Zm6-6v-5c0-3.07-1.63-5.64-4.5-6.32V4c0-.83-.67-1.5-1.5-1.5s-1.5.67-1.5 1.5v.68C7.64 5.36 6 7.92 6 11v5l-2 2v1h16v-1l-2-2Zm-2 1H8v-6c0-2.48 1.51-4.5 4-4.5s4 2.02 4 4.5v6ZM7.58 4.08 6.15 2.65C3.75 4.48 2.17 7.3 2.03 10.5h2a8.445 8.445 0 0 1 3.55-6.42Zm12.39 6.42h2c-.15-3.2-1.73-6.02-4.12-7.85l-1.42 1.43a8.495 8.495 0 0 1 3.54 6.42Z"/></symbol><symbol viewBox="0 0 24 24" id="paywall" xmlns="http://www.w3.org/2000/svg"><path d="M14 6a7.17 7.17 0 0 0-1 .08 4.49 4.49 0 0 0-9 .42V7a2 2 0 0 0-2 2v9a1.94 1.94 0 0 0 2 2h4.73A8 8 0 1 0 14 6Zm-8 .5a2.51 2.51 0 0 1 5-.24V7H6ZM14 20a6 6 0 1 1 6-6 6 6 0 0 1-6 6Zm-1.5-8v1h4a1 1 0 0 1 1 1v3a1 1 0 0 1-1 1H15v1h-2v-1h-2.5v-2h5v-1h-4a1 1 0 0 1-1-1v-3a1 1 0 0 1 1-1H13V9h2v1h2.5v2Z"/><path fill="none" d="M0 0h24v24H0z"/></symbol><symbol viewBox="0 0 24 24" id="protocol" xmlns="http://www.w3.org/2000/svg"><path d="M15 19a1 1 0 0 0-1-1h-1v-1h3a2 2 0 0 0 2-2V8l-5-5H8a2 2 0 0 0-2 2v10a2 2 0 0 0 2 2h3v1h-1a1 1 0 0 0-1 1H2v2h7a1 1 0 0 0 1 1h4a1 1 0 0 0 1-1h7v-2ZM12 4.5 16.5 9H12Z" fill-rule="evenodd"/><path fill="none" d="M0 0h24v24H0z"/></symbol><symbol viewBox="0 0 24 24" id="technician" xmlns="http://www.w3.org/2000/svg"><path d="M12 15c-4.42 0-8 1.79-8 4v2h16v-2c0-2.21-3.58-4-8-4ZM8 9a4 4 0 1 0 8 0H8Zm3.5-7c-.3 0-.5.21-.5.5v3h-1V3s-2.25.86-2.25 3.75c0 0-.75.14-.75 1.25h10c-.05-1.11-.75-1.25-.75-1.25C16.25 3.86 14 3 14 3v2.5h-1v-3c0-.29-.19-.5-.5-.5h-1Z"/></symbol></svg>