<?xml version="1.0" encoding="utf-8"?><svg xmlns="http://www.w3.org/2000/svg" xmlns:xlink="http://www.w3.org/1999/xlink"><symbol viewBox="0 0 24 24" id="adf_scanner" xmlns="http://www.w3.org/2000/svg"><path fill="none" d="M0 0h24v24H0z"/><path d="M19 12h-1V4H6v8H5c-1.66 0-3 1.34-3 3v5h20v-5c0-1.66-1.34-3-3-3zm-3 0H8V6h8v6zm2 5c-.55 0-1-.45-1-1s.45-1 1-1 1 .45 1 1-.45 1-1 1z"/></symbol><symbol viewBox="0 0 24 24" id="browser_not_supported" xmlns="http://www.w3.org/2000/svg"><path fill="none" d="M0 0h24v24H0z"/><path d="M19 6v10.5l1.95 1.95c.03-.15.05-.3.05-.45V6c0-1.1-.9-2-2-2H6.5l2 2H19zM3.22 3.32 1.95 4.59 3 5.64V18c0 1.1.9 2 2 2h12.36l2.06 2.06 1.27-1.27L3.22 3.32zM15 18H5V7.64L15.36 18H15z"/></symbol><symbol viewBox="0 0 24 24" id="browser_updated" xmlns="http://www.w3.org/2000/svg"><path fill="none" d="M0 0h24v24H0z"/><path d="M22 13v3c0 1.1-.9 2-2 2h-3l1 1v2H6v-2l1-1H4c-1.1 0-2-.9-2-2V5c0-1.1.9-2 2-2h8v2H4v11h16v-3h2zm-7 2-5-5h4V3h2v7h4l-5 5z"/></symbol><symbol viewBox="0 0 24 24" id="cast" xmlns="http://www.w3.org/2000/svg"><path d="M0 0h24v24H0z" fill="none"/><path d="M0 0h24v24H0z" fill="none" opacity=".1"/><path d="M21 3H3c-1.1 0-2 .9-2 2v3h2V5h18v14h-7v2h7c1.1 0 2-.9 2-2V5c0-1.1-.9-2-2-2zM1 18v3h3c0-1.66-1.34-3-3-3zm0-4v2c2.76 0 5 2.24 5 5h2c0-3.87-3.13-7-7-7zm0-4v2a9 9 0 0 1 9 9h2c0-6.08-4.93-11-11-11z"/></symbol><symbol viewBox="0 0 24 24" id="cast_connected" xmlns="http://www.w3.org/2000/svg"><path d="M0 0h24v24H0z" fill="none"/><path d="M0 0h24v24H0z" fill="none" opacity=".1"/><path d="M1 18v3h3c0-1.66-1.34-3-3-3zm0-4v2c2.76 0 5 2.24 5 5h2c0-3.87-3.13-7-7-7zm18-7H5v1.63c3.96 1.28 7.09 4.41 8.37 8.37H19V7zM1 10v2a9 9 0 0 1 9 9h2c0-6.08-4.93-11-11-11zm20-7H3c-1.1 0-2 .9-2 2v3h2V5h18v14h-7v2h7c1.1 0 2-.9 2-2V5c0-1.1-.9-2-2-2z"/></symbol><symbol viewBox="0 0 24 24" id="cast_for_education" xmlns="http://www.w3.org/2000/svg"><path d="M21 3H3c-1.1 0-2 .9-2 2v3h2V5h18v14h-7v2h7c1.1 0 2-.9 2-2V5c0-1.1-.9-2-2-2zM1 18v3h3c0-1.66-1.34-3-3-3zm0-4v2c2.76 0 5 2.24 5 5h2c0-3.87-3.13-7-7-7zm0-4v2a9 9 0 0 1 9 9h2c0-6.08-4.93-11-11-11zm10 1.09v2L14.5 15l3.5-1.91v-2L14.5 13 11 11.09zM14.5 6 9 9l5.5 3L20 9l-5.5-3z"/><path d="M0 0h24v24H0V0z" fill="none"/></symbol><symbol viewBox="0 0 24 24" id="computer" xmlns="http://www.w3.org/2000/svg"><path d="M0 0h24v24H0z" fill="none"/><path d="M20 18c1.1 0 1.99-.9 1.99-2L22 6c0-1.1-.9-2-2-2H4c-1.1 0-2 .9-2 2v10c0 1.1.9 2 2 2H0v2h24v-2h-4zM4 6h16v10H4V6z"/></symbol><symbol viewBox="0 0 24 24" id="connected_tv" xmlns="http://www.w3.org/2000/svg"><path d="M0 0h24v24H0z" fill="none"/><path d="M21 3H3c-1.1 0-2 .9-2 2v12c0 1.1.9 2 2 2h5v2h8v-2h5c1.1 0 1.99-.9 1.99-2L23 5c0-1.1-.9-2-2-2zm0 14H3V5h18v12zM4 14v2h2c0-1.11-.89-2-2-2zm0-3v1.43c1.97 0 3.57 1.6 3.57 3.57H9c0-2.76-2.24-5-5-5zm0-3v1.45c3.61 0 6.55 2.93 6.55 6.55H12c0-4.42-3.59-8-8-8z"/></symbol><symbol viewBox="0 0 24 24" id="conveyor_belt" xmlns="http://www.w3.org/2000/svg"><path fill="none" d="M0 0h24v24H0z"/><path d="M19 15H5c-1.66 0-3 1.34-3 3s1.34 3 3 3h14c1.66 0 3-1.34 3-3s-1.34-3-3-3zm0 4H5c-.55 0-1-.45-1-1s.45-1 1-1h14c.55 0 1 .45 1 1s-.45 1-1 1zM9 4v8c0 .55.45 1 1 1h8c.55 0 1-.45 1-1V4c0-.55-.45-1-1-1h-8c-.55 0-1 .45-1 1zm7 4h-4V6.02h4V8zM2 9.02h4.94v1.91H2V9.02zm2.01-3h2.93v1.96H4.01V6.02z"/></symbol><symbol viewBox="0 0 24 24" id="desktop_mac" xmlns="http://www.w3.org/2000/svg"><path fill="none" d="M0 0h24v24H0z"/><path d="M20 3H4c-1.1 0-2 .9-2 2v11c0 1.1.9 2 2 2h6l-2 2v1h8v-1l-2-2h6c1.1 0 2-.9 2-2V5c0-1.1-.9-2-2-2"/></symbol><symbol viewBox="0 0 24 24" id="desktop_windows" xmlns="http://www.w3.org/2000/svg"><path fill="none" d="M0 0h24v24H0z"/><path d="M20 3H4c-1.1 0-2 .9-2 2v10c0 1.1.9 2 2 2h6v2H8v2h8v-2h-2v-2h6c1.1 0 2-.9 2-2V5c0-1.1-.9-2-2-2"/></symbol><symbol viewBox="0 0 24 24" id="developer_board" xmlns="http://www.w3.org/2000/svg"><path d="M22 9V7h-2V5c0-1.1-.9-2-2-2H4c-1.1 0-2 .9-2 2v14c0 1.1.9 2 2 2h14c1.1 0 2-.9 2-2v-2h2v-2h-2v-2h2v-2h-2V9h2zm-4 10H4V5h14v14zM6 13h5v4H6zm6-6h4v3h-4zM6 7h5v5H6zm6 4h4v6h-4z"/><path d="M0 0h24v24H0zm0 0h24v24H0z" fill="none"/></symbol><symbol viewBox="0 0 24 24" id="developer_board_off" xmlns="http://www.w3.org/2000/svg"><path fill="none" d="M0 0h24v24H0z"/><path d="M7.83 5H18v10.17L19.83 17H22v-2h-2v-2h2v-2h-2V9h2V7h-2V5c0-1.1-.9-2-2-2H5.83l2 2zM12 9.17V7h4v3h-3.17L12 9.17zM9.83 7H11v1.17L9.83 7zm4 4H16v2.17L13.83 11zM18 21c.06 0 .11 0 .16-.01l2.32 2.32 1.41-1.41L2.1 2.1.69 3.51l1.32 1.32C2 4.89 2 4.94 2 5v14c0 1.1.9 2 2 2h14zM4 19V6.83l2 2V12h3.17l1 1H6v4h5v-3.17l1 1V17h2.17l2 2H4z"/></symbol><symbol viewBox="0 0 24 24" id="device_hub" xmlns="http://www.w3.org/2000/svg"><path d="M0 0h24v24H0z" fill="none"/><path d="M0 0h24v24H0V0z" fill="none"/><path d="m17 16-4-4V8.82C14.16 8.4 15 7.3 15 6c0-1.66-1.34-3-3-3S9 4.34 9 6c0 1.3.84 2.4 2 2.82V12l-4 4H3v5h5v-3.05l4-4.2 4 4.2V21h5v-5h-4z"/></symbol><symbol viewBox="0 0 24 24" id="device_unknown" xmlns="http://www.w3.org/2000/svg"><path d="M0 0h24v24H0z" fill="none"/><path d="M17 1H7c-1.1 0-2 .9-2 2v18c0 1.1.9 2 2 2h10c1.1 0 2-.9 2-2V3c0-1.1-.9-2-2-2zm0 18H7V5h10v14zM12 6.72c-1.96 0-3.5 1.52-3.5 3.47h1.75c0-.93.82-1.75 1.75-1.75s1.75.82 1.75 1.75c0 1.75-2.63 1.57-2.63 4.45h1.76c0-1.96 2.62-2.19 2.62-4.45 0-1.96-1.54-3.47-3.5-3.47zm-.88 8.8h1.76v1.76h-1.76z"/></symbol><symbol viewBox="0 0 24 24" id="devices_other" xmlns="http://www.w3.org/2000/svg"><path d="M0 0h24v24H0z" fill="none"/><path d="M3 6h18V4H3c-1.1 0-2 .9-2 2v12c0 1.1.9 2 2 2h4v-2H3V6zm10 6H9v1.78c-.61.55-1 1.33-1 2.22s.39 1.67 1 2.22V20h4v-1.78c.61-.55 1-1.34 1-2.22s-.39-1.67-1-2.22V12zm-2 5.5c-.83 0-1.5-.67-1.5-1.5s.67-1.5 1.5-1.5 1.5.67 1.5 1.5-.67 1.5-1.5 1.5zM22 8h-6c-.5 0-1 .5-1 1v10c0 .5.5 1 1 1h6c.5 0 1-.5 1-1V9c0-.5-.5-1-1-1zm-1 10h-4v-8h4v8z"/></symbol><symbol viewBox="0 0 24 24" id="dock" xmlns="http://www.w3.org/2000/svg"><path d="M0 0h24v24H0z" fill="none"/><path d="M8 23h8v-2H8v2zm8-21.99L8 1c-1.1 0-2 .9-2 2v14c0 1.1.9 2 2 2h8c1.1 0 2-.9 2-2V3c0-1.1-.9-1.99-2-1.99zM16 15H8V5h8v10z"/></symbol><symbol viewBox="0 0 24 24" id="earbuds" xmlns="http://www.w3.org/2000/svg"><path fill="none" d="M0 0h24v24H0z"/><path d="M6.2 3.01C4.44 2.89 3 4.42 3 6.19V16c0 2.76 2.24 5 5 5s5-2.24 5-5V8c0-1.66 1.34-3 3-3s3 1.34 3 3v7h-.83c-1.61 0-3.06 1.18-3.17 2.79A3 3 0 0 0 17.8 21c1.76.12 3.2-1.42 3.2-3.18V8c0-2.76-2.24-5-5-5s-5 2.24-5 5v8c0 1.66-1.34 3-3 3s-3-1.34-3-3V9h.83C7.44 9 8.89 7.82 9 6.21c.11-1.68-1.17-3.1-2.8-3.2z"/></symbol><symbol viewBox="0 0 24 24" id="earbuds_battery" xmlns="http://www.w3.org/2000/svg"><path fill="none" d="M0 0h24v24H0z"/><path d="M21 7h-1V6h-2v1h-1c-.55 0-1 .45-1 1v9c0 .55.45 1 1 1h4c.55 0 1-.45 1-1V8c0-.55-.45-1-1-1zM10.62 6C8.76 6 7.25 7.51 7.25 9.38v5.25c0 1.04-.84 1.88-1.88 1.88s-1.87-.85-1.87-1.89v-4.7c.16.05.33.08.5.08 1.1 0 2-.9 2-2s-.9-2-2-2-2 .9-2 2v6.62C2 16.49 3.51 18 5.38 18s3.38-1.51 3.38-3.38V9.38c0-1.04.84-1.88 1.88-1.88s1.88.84 1.88 1.88v4.7c-.18-.05-.35-.08-.52-.08-1.1 0-2 .9-2 2s.9 2 2 2 2-.9 2-2V9.38C14 7.51 12.49 6 10.62 6z"/></symbol><symbol viewBox="0 0 24 24" id="forklift" xmlns="http://www.w3.org/2000/svg"><path fill="none" d="M0 0h24v24H0z"/><path d="M23 17v2h-5V3h2v14h3zm-6.27-1.85c.17.42.27.87.27 1.35 0 1.93-1.57 3.5-3.5 3.5-1.4 0-2.6-.82-3.16-2H6.83A2.99 2.99 0 0 1 4 20c-1.66 0-3-1.34-3-3 0-.89.39-1.69 1-2.24V10h2V4h8l4.73 11.15zM5 17c0-.55-.45-1-1-1s-1 .45-1 1 .45 1 1 1 1-.45 1-1zm8.65-4-2.97-7H6v4l2.92 3h4.73zM15 16.5c0-.83-.67-1.5-1.5-1.5s-1.5.67-1.5 1.5.67 1.5 1.5 1.5 1.5-.67 1.5-1.5z"/></symbol><symbol viewBox="0 0 24 24" id="front_loader" xmlns="http://www.w3.org/2000/svg"><path fill="none" d="M0 0h24v24H0z"/><path d="m19.5 6.5-1.91 1.91c-.38.38-.59.89-.59 1.42V11h-1V7c0-1.66-1.34-3-3-3H8v5H3c-1.1 0-2 .9-2 2v5.85c0 1.58 1.16 3.01 2.74 3.14a2.99 2.99 0 0 0 3.07-1.98l4.37-.01a2.979 2.979 0 0 0 3.41 1.94 3.013 3.013 0 0 0 2.35-2.39c.2-1.11-.22-2.11-.95-2.77V13h1c0 1.1.9 2 2 2h5L19.5 6.5zM4 18c-.55 0-1-.45-1-1s.45-1 1-1 1 .45 1 1-.45 1-1 1zm6-12h3c.55 0 1 .45 1 1v4h-4V6zm4 12c-.55 0-1-.45-1-1s.45-1 1-1 1 .45 1 1-.45 1-1 1z"/></symbol><symbol viewBox="0 0 24 24" id="gamepad" xmlns="http://www.w3.org/2000/svg"><path d="M0 0h24v24H0z" fill="none"/><path d="M15 7.5V2H9v5.5l3 3 3-3zM7.5 9H2v6h5.5l3-3-3-3zM9 16.5V22h6v-5.5l-3-3-3 3zM16.5 9l-3 3 3 3H22V9h-5.5z"/></symbol><symbol viewBox="0 0 24 24" id="headphones" xmlns="http://www.w3.org/2000/svg"><path fill="none" d="M0 0h24v24H0z"/><path d="M12 3a9 9 0 0 0-9 9v7c0 1.1.9 2 2 2h4v-8H5v-1c0-3.87 3.13-7 7-7s7 3.13 7 7v1h-4v8h4c1.1 0 2-.9 2-2v-7a9 9 0 0 0-9-9z"/></symbol><symbol viewBox="0 0 24 24" id="headphones_battery" xmlns="http://www.w3.org/2000/svg"><path fill="none" d="M0 0h24v24H0z"/><path d="M21 7h-1V6h-2v1h-1c-.55 0-1 .45-1 1v9c0 .55.45 1 1 1h4c.55 0 1-.45 1-1V8c0-.55-.45-1-1-1zM8 6c-3.31 0-6 2.69-6 6v4c0 1.1.9 2 2 2h2v-5H3.5v-1c0-2.48 2.02-4.5 4.5-4.5s4.5 2.02 4.5 4.5v1H10v5h2c1.1 0 2-.9 2-2v-4c0-3.31-2.69-6-6-6z"/></symbol><symbol viewBox="0 0 24 24" id="headset" xmlns="http://www.w3.org/2000/svg"><path d="M0 0h24v24H0z" fill="none" opacity=".1"/><path d="M12 1a9 9 0 0 0-9 9v7c0 1.66 1.34 3 3 3h3v-8H5v-2c0-3.87 3.13-7 7-7s7 3.13 7 7v2h-4v8h3c1.66 0 3-1.34 3-3v-7a9 9 0 0 0-9-9z"/></symbol><symbol viewBox="0 0 24 24" id="headset_mic" xmlns="http://www.w3.org/2000/svg"><path d="M0 0h24v24H0z" fill="none" opacity=".1"/><path d="M12 1a9 9 0 0 0-9 9v7c0 1.66 1.34 3 3 3h3v-8H5v-2c0-3.87 3.13-7 7-7s7 3.13 7 7v2h-4v8h4v1h-7v2h6c1.66 0 3-1.34 3-3V10a9 9 0 0 0-9-9z"/></symbol><symbol viewBox="0 0 24 24" id="headset_off" xmlns="http://www.w3.org/2000/svg"><path d="M0 0h24v24H0V0z" fill="none"/><path d="M12 4c3.87 0 7 3.13 7 7v2h-2.92L21 17.92V11a9 9 0 0 0-9-9c-1.95 0-3.76.62-5.23 1.68l1.44 1.44A6.914 6.914 0 0 1 12 4zM2.27 1.72 1 3l3.33 3.32A8.899 8.899 0 0 0 3 11v7c0 1.66 1.34 3 3 3h3v-8H5v-2c0-1.17.29-2.26.79-3.22L15 17v4h3c.3 0 .59-.06.86-.14L21 23l1.27-1.27-20-20.01z"/></symbol><symbol viewBox="0 0 24 24" id="home_max" xmlns="http://www.w3.org/2000/svg"><path fill="none" d="M0 0h24v24H0z"/><path d="M19 5H5C2.79 5 1 6.79 1 9v5c0 2.21 1.79 4 4 4h2v1h10v-1h2c2.21 0 4-1.79 4-4V9c0-2.21-1.79-4-4-4zm2 9c0 1.1-.9 2-2 2H5c-1.1 0-2-.9-2-2V9c0-1.1.9-2 2-2h14c1.1 0 2 .9 2 2v5z"/></symbol><symbol viewBox="0 0 24 24" id="home_mini" xmlns="http://www.w3.org/2000/svg"><path fill="none" d="M0 0h24v24H0z"/><path d="M12 5C4.19 5 2 9.48 2 12c0 3.86 3.13 7 6.99 7h6.02C17.7 19 22 16.92 22 12c0 0 0-7-10-7zm0 2c7.64 0 7.99 4.51 8 5H4c0-.2.09-5 8-5zm2.86 10H9.14c-2.1 0-3.92-1.24-4.71-3h15.15c-.8 1.76-2.62 3-4.72 3z"/></symbol><symbol viewBox="0 0 24 24" id="keyboard" xmlns="http://www.w3.org/2000/svg"><path d="M20 5H4c-1.1 0-1.99.9-1.99 2L2 17c0 1.1.9 2 2 2h16c1.1 0 2-.9 2-2V7c0-1.1-.9-2-2-2zm-9 3h2v2h-2V8zm0 3h2v2h-2v-2zM8 8h2v2H8V8zm0 3h2v2H8v-2zm-1 2H5v-2h2v2zm0-3H5V8h2v2zm9 7H8v-2h8v2zm0-4h-2v-2h2v2zm0-3h-2V8h2v2zm3 3h-2v-2h2v2zm0-3h-2V8h2v2z"/><path d="M0 0h24v24H0zm0 0h24v24H0z" fill="none"/></symbol><symbol viewBox="0 0 24 24" id="keyboard_alt" xmlns="http://www.w3.org/2000/svg"><path fill="none" d="M0 0h24v24H0z"/><path d="M21 4H3c-1.1 0-2 .9-2 2v13c0 1.1.9 2 2 2h18c1.1 0 2-.9 2-2V6c0-1.1-.9-2-2-2zM7 12v2H5v-2h2zm-2-2V8h2v2H5zm6 2v2H9v-2h2zm-2-2V8h2v2H9zm7 6v1H8v-1h8zm-1-4v2h-2v-2h2zm-2-2V8h2v2h-2zm4 4v-2h2v2h-2zm2-4h-2V8h2v2z"/></symbol><symbol viewBox="0 0 24 24" id="keyboard_arrow_down" xmlns="http://www.w3.org/2000/svg"><path d="M0 0h24v24H0V0z" fill="none"/><path d="M7.41 8.59 12 13.17l4.59-4.58L18 10l-6 6-6-6 1.41-1.41z"/></symbol><symbol viewBox="0 0 24 24" id="keyboard_arrow_left" xmlns="http://www.w3.org/2000/svg"><path d="M0 0h24v24H0V0z" fill="none"/><path d="M15.41 16.59 10.83 12l4.58-4.59L14 6l-6 6 6 6 1.41-1.41z"/></symbol><symbol viewBox="0 0 24 24" id="keyboard_arrow_right" xmlns="http://www.w3.org/2000/svg"><path d="M0 0h24v24H0V0z" fill="none"/><path d="M8.59 16.59 13.17 12 8.59 7.41 10 6l6 6-6 6-1.41-1.41z"/></symbol><symbol viewBox="0 0 24 24" id="keyboard_arrow_up" xmlns="http://www.w3.org/2000/svg"><path d="M0 0h24v24H0z" fill="none"/><path d="M7.41 15.41 12 10.83l4.59 4.58L18 14l-6-6-6 6z"/></symbol><symbol viewBox="0 0 24 24" id="keyboard_backspace" xmlns="http://www.w3.org/2000/svg"><path d="M0 0h24v24H0z" fill="none"/><path d="M21 11H6.83l3.58-3.59L9 6l-6 6 6 6 1.41-1.41L6.83 13H21z"/></symbol><symbol viewBox="0 0 24 24" id="keyboard_capslock" xmlns="http://www.w3.org/2000/svg"><path d="M0 0h24v24H0z" fill="none"/><path d="M12 8.41 16.59 13 18 11.59l-6-6-6 6L7.41 13 12 8.41zM6 18h12v-2H6v2z"/></symbol><symbol viewBox="0 0 24 24" id="keyboard_command_key" xmlns="http://www.w3.org/2000/svg"><path fill="none" d="M0 0h24v24H0z"/><path d="M17.5 3C15.57 3 14 4.57 14 6.5V8h-4V6.5C10 4.57 8.43 3 6.5 3S3 4.57 3 6.5 4.57 10 6.5 10H8v4H6.5C4.57 14 3 15.57 3 17.5S4.57 21 6.5 21s3.5-1.57 3.5-3.5V16h4v1.5c0 1.93 1.57 3.5 3.5 3.5s3.5-1.57 3.5-3.5-1.57-3.5-3.5-3.5H16v-4h1.5c1.93 0 3.5-1.57 3.5-3.5S19.43 3 17.5 3zM16 8V6.5c0-.83.67-1.5 1.5-1.5s1.5.67 1.5 1.5S18.33 8 17.5 8H16zM6.5 8C5.67 8 5 7.33 5 6.5S5.67 5 6.5 5 8 5.67 8 6.5V8H6.5zm3.5 6v-4h4v4h-4zm7.5 5c-.83 0-1.5-.67-1.5-1.5V16h1.5c.83 0 1.5.67 1.5 1.5s-.67 1.5-1.5 1.5zm-11 0c-.83 0-1.5-.67-1.5-1.5S5.67 16 6.5 16H8v1.5c0 .83-.67 1.5-1.5 1.5z"/></symbol><symbol viewBox="0 0 24 24" id="keyboard_control_key" xmlns="http://www.w3.org/2000/svg"><path fill="none" d="M0 0h24v24H0z"/><path d="m5 12 1.41 1.41L12 7.83l5.59 5.58L19 12l-7-7z"/></symbol><symbol viewBox="0 0 24 24" id="keyboard_double_arrow_down" xmlns="http://www.w3.org/2000/svg"><path fill="none" d="M0 0h24v24H0z"/><path d="M18 6.41 16.59 5 12 9.58 7.41 5 6 6.41l6 6z"/><path d="m18 13-1.41-1.41L12 16.17l-4.59-4.58L6 13l6 6z"/></symbol><symbol viewBox="0 0 24 24" id="keyboard_double_arrow_left" xmlns="http://www.w3.org/2000/svg"><path fill="none" d="M0 0h24v24H0z"/><path d="M17.59 18 19 16.59 14.42 12 19 7.41 17.59 6l-6 6z"/><path d="m11 18 1.41-1.41L7.83 12l4.58-4.59L11 6l-6 6z"/></symbol><symbol viewBox="0 0 24 24" id="keyboard_double_arrow_right" xmlns="http://www.w3.org/2000/svg"><path fill="none" d="M0 0h24v24H0z"/><path d="M6.41 6 5 7.41 9.58 12 5 16.59 6.41 18l6-6z"/><path d="m13 6-1.41 1.41L16.17 12l-4.58 4.59L13 18l6-6z"/></symbol><symbol viewBox="0 0 24 24" id="keyboard_double_arrow_up" xmlns="http://www.w3.org/2000/svg"><path fill="none" d="M0 0h24v24H0z"/><path d="M6 17.59 7.41 19 12 14.42 16.59 19 18 17.59l-6-6z"/><path d="m6 11 1.41 1.41L12 7.83l4.59 4.58L18 11l-6-6z"/></symbol><symbol viewBox="0 0 24 24" id="keyboard_hide" xmlns="http://www.w3.org/2000/svg"><path d="M0 0h24v24H0z" fill="none"/><path d="M20 3H4c-1.1 0-1.99.9-1.99 2L2 15c0 1.1.9 2 2 2h16c1.1 0 2-.9 2-2V5c0-1.1-.9-2-2-2zm-9 3h2v2h-2V6zm0 3h2v2h-2V9zM8 6h2v2H8V6zm0 3h2v2H8V9zm-1 2H5V9h2v2zm0-3H5V6h2v2zm9 7H8v-2h8v2zm0-4h-2V9h2v2zm0-3h-2V6h2v2zm3 3h-2V9h2v2zm0-3h-2V6h2v2zm-7 15 4-4H8l4 4z"/></symbol><symbol viewBox="0 0 24 24" id="keyboard_option_key" xmlns="http://www.w3.org/2000/svg"><path fill="none" d="M0 0h24v24H0z"/><path d="M15 5h6v2h-6zM9 5H3v2h4.85l6.92 12H21v-2h-5.07z"/></symbol><symbol viewBox="0 0 24 24" id="keyboard_return" xmlns="http://www.w3.org/2000/svg"><path d="M0 0h24v24H0z" fill="none"/><path d="M19 7v4H5.83l3.58-3.59L8 6l-6 6 6 6 1.41-1.41L5.83 13H21V7z"/></symbol><symbol viewBox="0 0 24 24" id="keyboard_tab" xmlns="http://www.w3.org/2000/svg"><path d="M0 0h24v24H0z" fill="none"/><path d="M11.59 7.41 15.17 11H1v2h14.17l-3.59 3.59L13 18l6-6-6-6-1.41 1.41zM20 6v12h2V6h-2z"/></symbol><symbol viewBox="0 0 24 24" id="keyboard_voice" xmlns="http://www.w3.org/2000/svg"><path d="M0 0h24v24H0z" fill="none"/><path d="M12 15c1.66 0 2.99-1.34 2.99-3L15 6c0-1.66-1.34-3-3-3S9 4.34 9 6v6c0 1.66 1.34 3 3 3zm5.3-3c0 3-2.54 5.1-5.3 5.1S6.7 15 6.7 12H5c0 3.42 2.72 6.23 6 6.72V22h2v-3.28c3.28-.48 6-3.3 6-6.72h-1.7z"/></symbol><symbol viewBox="0 0 24 24" id="laptop" xmlns="http://www.w3.org/2000/svg"><path fill="none" d="M0 0h24v24H0z"/><path d="M20 18c1.1 0 2-.9 2-2V6c0-1.1-.9-2-2-2H4c-1.1 0-2 .9-2 2v10c0 1.1.9 2 2 2H0v2h24v-2h-4zM4 6h16v10H4V6z"/></symbol><symbol viewBox="0 0 24 24" id="laptop_chromebook" xmlns="http://www.w3.org/2000/svg"><path d="M0 0h24v24H0z" fill="none"/><path d="M22 18V3H2v15H0v2h24v-2h-2zm-8 0h-4v-1h4v1zm6-3H4V5h16v10z"/></symbol><symbol viewBox="0 0 24 24" id="laptop_mac" xmlns="http://www.w3.org/2000/svg"><path d="M0 0h24v24H0z" fill="none"/><path d="M20 18c1.1 0 1.99-.9 1.99-2L22 5c0-1.1-.9-2-2-2H4c-1.1 0-2 .9-2 2v11c0 1.1.9 2 2 2H0c0 1.1.9 2 2 2h20c1.1 0 2-.9 2-2h-4zM4 5h16v11H4V5zm8 14c-.55 0-1-.45-1-1s.45-1 1-1 1 .45 1 1-.45 1-1 1z"/></symbol><symbol viewBox="0 0 24 24" id="laptop_windows" xmlns="http://www.w3.org/2000/svg"><path d="M0 0h24v24H0z" fill="none"/><path d="M20 18v-1c1.1 0 1.99-.9 1.99-2L22 5c0-1.1-.9-2-2-2H4c-1.1 0-2 .9-2 2v10c0 1.1.9 2 2 2v1H0v2h24v-2h-4zM4 5h16v10H4V5z"/></symbol><symbol viewBox="0 0 24 24" id="memory" xmlns="http://www.w3.org/2000/svg"><path d="M0 0h24v24H0z" fill="none"/><path d="M15 9H9v6h6V9zm-2 4h-2v-2h2v2zm8-2V9h-2V7c0-1.1-.9-2-2-2h-2V3h-2v2h-2V3H9v2H7c-1.1 0-2 .9-2 2v2H3v2h2v2H3v2h2v2c0 1.1.9 2 2 2h2v2h2v-2h2v2h2v-2h2c1.1 0 2-.9 2-2v-2h2v-2h-2v-2h2zm-4 6H7V7h10v10z"/></symbol><symbol viewBox="0 0 24 24" id="monitor" xmlns="http://www.w3.org/2000/svg"><path d="M20 3H4c-1.1 0-2 .9-2 2v11c0 1.1.9 2 2 2h3l-1 1v2h12v-2l-1-1h3c1.1 0 2-.9 2-2V5c0-1.1-.9-2-2-2zm0 13H4V5h16v11z"/></symbol><symbol viewBox="0 0 24 24" id="mouse" xmlns="http://www.w3.org/2000/svg"><path d="M0 0h24v24H0z" fill="none"/><path d="M13 1.07V9h7c0-4.08-3.05-7.44-7-7.93zM4 15c0 4.42 3.58 8 8 8s8-3.58 8-8v-4H4v4zm7-13.93C7.05 1.56 4 4.92 4 9h7V1.07z"/></symbol><symbol viewBox="0 0 24 24" id="pallet" xmlns="http://www.w3.org/2000/svg"><path fill="none" d="M0 0h24v24H0z"/><path d="M2 18v4h3v-2h5.5v2h3v-2H19v2h3v-4zM18 2H6c-.55 0-1 .45-1 1v12c0 .55.45 1 1 1h12c.55 0 1-.45 1-1V3c0-.55-.45-1-1-1zm-3 6H9V6h6v2z"/></symbol><symbol viewBox="0 0 24 24" id="phone_android" xmlns="http://www.w3.org/2000/svg"><path d="M0 0h24v24H0z" fill="none"/><path d="M16 1H8C6.34 1 5 2.34 5 4v16c0 1.66 1.34 3 3 3h8c1.66 0 3-1.34 3-3V4c0-1.66-1.34-3-3-3zm-2 20h-4v-1h4v1zm3.25-3H6.75V4h10.5v14z"/></symbol><symbol viewBox="0 0 24 24" id="phone_iphone" xmlns="http://www.w3.org/2000/svg"><path d="M0 0h24v24H0z" fill="none"/><path d="M15.5 1h-8A2.5 2.5 0 0 0 5 3.5v17A2.5 2.5 0 0 0 7.5 23h8a2.5 2.5 0 0 0 2.5-2.5v-17A2.5 2.5 0 0 0 15.5 1zm-4 21c-.83 0-1.5-.67-1.5-1.5s.67-1.5 1.5-1.5 1.5.67 1.5 1.5-.67 1.5-1.5 1.5zm4.5-4H7V4h9v14z"/></symbol><symbol viewBox="0 0 24 24" id="phonelink" xmlns="http://www.w3.org/2000/svg"><path d="M0 0h24v24H0z" fill="none"/><path d="M4 6h18V4H4c-1.1 0-2 .9-2 2v11H0v3h14v-3H4V6zm19 2h-6c-.55 0-1 .45-1 1v10c0 .55.45 1 1 1h6c.55 0 1-.45 1-1V9c0-.55-.45-1-1-1zm-1 9h-4v-7h4v7z"/></symbol><symbol viewBox="0 0 24 24" id="phonelink_off" xmlns="http://www.w3.org/2000/svg"><path d="M0 0h24v24H0zm0 0h24v24H0z" fill="none"/><path d="M22 6V4H6.82l2 2H22zM1.92 1.65.65 2.92l1.82 1.82C2.18 5.08 2 5.52 2 6v11H0v3h17.73l2.35 2.35 1.27-1.27L3.89 3.62 1.92 1.65zM4 6.27 14.73 17H4V6.27zM23 8h-6c-.55 0-1 .45-1 1v4.18l2 2V10h4v7h-2.18l3 3H23c.55 0 1-.45 1-1V9c0-.55-.45-1-1-1z"/></symbol><symbol viewBox="0 0 24 24" id="point_of_sale" xmlns="http://www.w3.org/2000/svg"><path fill="none" d="M0 0h24v24H0z"/><path d="M17 2H7c-1.1 0-2 .9-2 2v2c0 1.1.9 2 2 2h10c1.1 0 2-.9 2-2V4c0-1.1-.9-2-2-2zm0 4H7V4h10v2zm3 16H4c-1.1 0-2-.9-2-2v-1h20v1c0 1.1-.9 2-2 2zm-1.47-11.81A2.008 2.008 0 0 0 16.7 9H7.3c-.79 0-1.51.47-1.83 1.19L2 18h20l-3.47-7.81zM9.5 16h-1c-.28 0-.5-.22-.5-.5s.22-.5.5-.5h1c.28 0 .5.22.5.5s-.22.5-.5.5zm0-2h-1c-.28 0-.5-.22-.5-.5s.22-.5.5-.5h1c.28 0 .5.22.5.5s-.22.5-.5.5zm0-2h-1c-.28 0-.5-.22-.5-.5s.22-.5.5-.5h1c.28 0 .5.22.5.5s-.22.5-.5.5zm3 4h-1c-.28 0-.5-.22-.5-.5s.22-.5.5-.5h1c.28 0 .5.22.5.5s-.22.5-.5.5zm0-2h-1c-.28 0-.5-.22-.5-.5s.22-.5.5-.5h1c.28 0 .5.22.5.5s-.22.5-.5.5zm0-2h-1c-.28 0-.5-.22-.5-.5s.22-.5.5-.5h1c.28 0 .5.22.5.5s-.22.5-.5.5zm3 4h-1c-.28 0-.5-.22-.5-.5s.22-.5.5-.5h1c.28 0 .5.22.5.5s-.22.5-.5.5zm0-2h-1c-.28 0-.5-.22-.5-.5s.22-.5.5-.5h1c.28 0 .5.22.5.5s-.22.5-.5.5zm0-2h-1c-.28 0-.5-.22-.5-.5s.22-.5.5-.5h1c.28 0 .5.22.5.5s-.22.5-.5.5z"/></symbol><symbol viewBox="0 0 24 24" id="power_input" xmlns="http://www.w3.org/2000/svg"><path d="M0 0h24v24H0V0z" fill="none"/><path d="M2 9v2h19V9H2zm0 6h5v-2H2v2zm7 0h5v-2H9v2zm7 0h5v-2h-5v2z"/></symbol><symbol viewBox="0 0 24 24" id="router" xmlns="http://www.w3.org/2000/svg"><path d="M0 0h24v24H0z" fill="none"/><path d="m20.2 5.9.8-.8C19.6 3.7 17.8 3 16 3s-3.6.7-5 2.1l.8.8C13 4.8 14.5 4.2 16 4.2s3 .6 4.2 1.7zm-.9.8c-.9-.9-2.1-1.4-3.3-1.4s-2.4.5-3.3 1.4l.8.8c.7-.7 1.6-1 2.5-1 .9 0 1.8.3 2.5 1l.8-.8zM19 13h-2V9h-2v4H5c-1.1 0-2 .9-2 2v4c0 1.1.9 2 2 2h14c1.1 0 2-.9 2-2v-4c0-1.1-.9-2-2-2zM8 18H6v-2h2v2zm3.5 0h-2v-2h2v2zm3.5 0h-2v-2h2v2z"/></symbol><symbol viewBox="0 0 24 24" id="scanner" xmlns="http://www.w3.org/2000/svg"><path d="M0 0h24v24H0z" fill="none"/><path d="M19.8 10.7 4.2 5l-.7 1.9L17.6 12H5c-1.1 0-2 .9-2 2v4c0 1.1.9 2 2 2h14c1.1 0 2-.9 2-2v-5.5c0-.8-.5-1.6-1.2-1.8zM7 17H5v-2h2v2zm12 0H9v-2h10v2z"/></symbol><symbol viewBox="0 0 24 24" id="security" xmlns="http://www.w3.org/2000/svg"><path d="M0 0h24v24H0z" fill="none"/><path d="M12 1 3 5v6c0 5.55 3.84 10.74 9 12 5.16-1.26 9-6.45 9-12V5l-9-4zm0 10.99h7c-.53 4.12-3.28 7.79-7 8.94V12H5V6.3l7-3.11v8.8z"/></symbol><symbol viewBox="0 0 24 24" id="sim_card" xmlns="http://www.w3.org/2000/svg"><path d="M0 0h24v24H0z" fill="none"/><path d="M19.99 4c0-1.1-.89-2-1.99-2h-8L4 8v12c0 1.1.9 2 2 2h12.01c1.1 0 1.99-.9 1.99-2l-.01-16zM9 19H7v-2h2v2zm8 0h-2v-2h2v2zm-8-4H7v-4h2v4zm4 4h-2v-4h2v4zm0-6h-2v-2h2v2zm4 2h-2v-4h2v4z"/></symbol><symbol viewBox="0 0 24 24" id="smart_display" xmlns="http://www.w3.org/2000/svg"><path fill="none" d="M0 0h24v24H0z"/><path d="M20 4H4c-1.1 0-2 .9-2 2v12c0 1.1.9 2 2 2h16c1.1 0 2-.9 2-2V6c0-1.1-.9-2-2-2zM9.5 16.5v-9l7 4.5-7 4.5z"/></symbol><symbol viewBox="0 0 24 24" id="smart_screen" xmlns="http://www.w3.org/2000/svg"><path fill="none" d="M0 0h24v24H0z"/><path d="M21 5H3c-1.1 0-2 .9-2 2v10c0 1.1.9 2 2 2h18c1.1 0 2-.9 2-2V7c0-1.1-.9-2-2-2zm-3 12H6V7h12v10z"/><path d="M15 11.25h1.5v1.5H15zM12.5 11.25H14v1.5h-1.5zM10 11.25h1.5v1.5H10zM7.5 11.25H9v1.5H7.5z"/></symbol><symbol viewBox="0 0 24 24" id="smart_toy" xmlns="http://www.w3.org/2000/svg"><path fill="none" d="M0 0h24v24H0z"/><path d="M20 9V7c0-1.1-.9-2-2-2h-3c0-1.66-1.34-3-3-3S9 3.34 9 5H6c-1.1 0-2 .9-2 2v2c-1.66 0-3 1.34-3 3s1.34 3 3 3v4c0 1.1.9 2 2 2h12c1.1 0 2-.9 2-2v-4c1.66 0 3-1.34 3-3s-1.34-3-3-3zM7.5 11.5c0-.83.67-1.5 1.5-1.5s1.5.67 1.5 1.5S9.83 13 9 13s-1.5-.67-1.5-1.5zM16 17H8v-2h8v2zm-1-4c-.83 0-1.5-.67-1.5-1.5S14.17 10 15 10s1.5.67 1.5 1.5S15.83 13 15 13z"/></symbol><symbol viewBox="0 0 24 24" id="smartphone" xmlns="http://www.w3.org/2000/svg"><path d="M0 0h24v24H0z" fill="none"/><path d="M17 1.01 7 1c-1.1 0-2 .9-2 2v18c0 1.1.9 2 2 2h10c1.1 0 2-.9 2-2V3c0-1.1-.9-1.99-2-1.99zM17 19H7V5h10v14z"/></symbol><symbol viewBox="0 0 24 24" id="speaker" xmlns="http://www.w3.org/2000/svg"><path d="M0 0h24v24H0z" fill="none"/><path d="M17 2H7c-1.1 0-2 .9-2 2v16c0 1.1.9 1.99 2 1.99L17 22c1.1 0 2-.9 2-2V4c0-1.1-.9-2-2-2zm-5 2c1.1 0 2 .9 2 2s-.9 2-2 2a2 2 0 1 1 0-4zm0 16c-2.76 0-5-2.24-5-5s2.24-5 5-5 5 2.24 5 5-2.24 5-5 5zm0-8c-1.66 0-3 1.34-3 3s1.34 3 3 3 3-1.34 3-3-1.34-3-3-3z"/></symbol><symbol viewBox="0 0 24 24" id="speaker_group" xmlns="http://www.w3.org/2000/svg"><path d="M0 0h24v24H0z" fill="none"/><path d="M18.2 1H9.8C8.81 1 8 1.81 8 2.8v14.4c0 .99.81 1.79 1.8 1.79l8.4.01c.99 0 1.8-.81 1.8-1.8V2.8c0-.99-.81-1.8-1.8-1.8zM14 3c1.1 0 2 .89 2 2s-.9 2-2 2-2-.89-2-2 .9-2 2-2zm0 13.5c-2.21 0-4-1.79-4-4s1.79-4 4-4 4 1.79 4 4-1.79 4-4 4z"/><circle cx="14" cy="12.5" r="2.5"/><path d="M6 5H4v16a2 2 0 0 0 2 2h10v-2H6V5z"/></symbol><symbol viewBox="0 0 24 24" id="start" xmlns="http://www.w3.org/2000/svg"><path fill="none" d="M0 0h24v24H0z"/><path d="M14.59 7.41 18.17 11H6v2h12.17l-3.59 3.59L16 18l6-6-6-6-1.41 1.41zM2 6v12h2V6H2z"/></symbol><symbol viewBox="0 0 24 24" id="tablet" xmlns="http://www.w3.org/2000/svg"><path d="M0 0h24v24H0z" fill="none"/><path d="M21 4H3c-1.1 0-2 .9-2 2v12c0 1.1.9 2 2 2h18c1.1 0 1.99-.9 1.99-2L23 6c0-1.1-.9-2-2-2zm-2 14H5V6h14v12z"/></symbol><symbol viewBox="0 0 24 24" id="tablet_android" xmlns="http://www.w3.org/2000/svg"><path fill="none" d="M0 0h24v24H0z"/><path d="M18 0H6C4.34 0 3 1.34 3 3v18c0 1.66 1.34 3 3 3h12c1.66 0 3-1.34 3-3V3c0-1.66-1.34-3-3-3zm-4 22h-4v-1h4v1zm5.25-3H4.75V3h14.5v16z"/></symbol><symbol viewBox="0 0 24 24" id="tablet_mac" xmlns="http://www.w3.org/2000/svg"><path d="M18.5 0h-14A2.5 2.5 0 0 0 2 2.5v19A2.5 2.5 0 0 0 4.5 24h14a2.5 2.5 0 0 0 2.5-2.5v-19A2.5 2.5 0 0 0 18.5 0zm-7 23c-.83 0-1.5-.67-1.5-1.5s.67-1.5 1.5-1.5 1.5.67 1.5 1.5-.67 1.5-1.5 1.5zm7.5-4H4V3h15v16z"/></symbol><symbol viewBox="0 0 24 24" id="toys" xmlns="http://www.w3.org/2000/svg"><path d="M22 14c0-1.95-1.4-3.57-3.25-3.92L17.4 6.05A2.978 2.978 0 0 0 14.56 4H9.44C8.15 4 7 4.82 6.6 6.05L5.81 8.4 4.41 7l.29-.29A.996.996 0 1 0 3.29 5.3l-2 2A.996.996 0 1 0 2.7 8.71l.3-.3 1.79 1.79C3.18 10.72 2 12.22 2 14c0 1.5.83 2.79 2.05 3.48A3 3 0 0 0 7 20c1.3 0 2.4-.84 2.82-2h4.37c.41 1.16 1.51 2 2.82 2a3 3 0 0 0 2.95-2.52C21.17 16.79 22 15.5 22 14zM7 18c-.55 0-1-.45-1-1s.45-1 1-1 1 .45 1 1-.45 1-1 1zm4-8H7.41l-.02-.02 1.1-3.3A1 1 0 0 1 9.44 6H11v4zm2-4h1.56a1 1 0 0 1 .95.68l1.1 3.32H13V6zm4 12c-.55 0-1-.45-1-1s.45-1 1-1 1 .45 1 1-.45 1-1 1z"/></symbol><symbol viewBox="0 0 24 24" id="trolley" xmlns="http://www.w3.org/2000/svg"><path fill="none" d="M0 0h24v24H0z"/><path d="M21 14v2H4V4H2V2h4v12h15zM5.99 17C4.89 17 4 17.9 4 19s.89 2 1.99 2C7.1 21 8 20.1 8 19s-.9-2-2.01-2zm13 0c-1.1 0-1.99.9-1.99 2s.89 2 1.99 2S21 20.1 21 19s-.9-2-2.01-2zM13 13H7V7h6v6zm7 0h-6V7h6v6z"/></symbol><symbol viewBox="0 0 24 24" id="tv" xmlns="http://www.w3.org/2000/svg"><path d="M0 0h24v24H0z" fill="none"/><path d="M21 3H3c-1.1 0-2 .9-2 2v12c0 1.1.9 2 2 2h5v2h8v-2h5c1.1 0 1.99-.9 1.99-2L23 5c0-1.1-.9-2-2-2zm0 14H3V5h18v12z"/></symbol><symbol viewBox="0 0 24 24" id="videogame_asset" xmlns="http://www.w3.org/2000/svg"><path d="M0 0v24h24V0H0zm23 16c0 1.1-.9 2-2 2H3c-1.1 0-2-.9-2-2V8c0-1.1.9-2 2-2h18c1.1 0 2 .9 2 2v8z" fill="none"/><path d="M21 6H3c-1.1 0-2 .9-2 2v8c0 1.1.9 2 2 2h18c1.1 0 2-.9 2-2V8c0-1.1-.9-2-2-2zm-10 7H8v3H6v-3H3v-2h3V8h2v3h3v2zm4.5 2c-.83 0-1.5-.67-1.5-1.5s.67-1.5 1.5-1.5 1.5.67 1.5 1.5-.67 1.5-1.5 1.5zm4-3c-.83 0-1.5-.67-1.5-1.5S18.67 9 19.5 9s1.5.67 1.5 1.5-.67 1.5-1.5 1.5z"/></symbol><symbol viewBox="0 0 24 24" id="videogame_asset_off" xmlns="http://www.w3.org/2000/svg"><path fill="none" d="M0 0h24v24H0z"/><path d="M21.19 21.19 2.81 2.81 1.39 4.22 3.3 6.13C2.54 6.41 2 7.15 2 8v8c0 1.1.9 2 2 2h11.17l4.61 4.61 1.41-1.42zM9 13v2H7v-2H5v-2h2V9.83L10.17 13H9zm11.7 4.87c.76-.28 1.3-1.02 1.3-1.87V8c0-1.1-.9-2-2-2H8.83L20.7 17.87zM17.5 9c.83 0 1.5.67 1.5 1.5s-.67 1.5-1.5 1.5-1.5-.67-1.5-1.5.67-1.5 1.5-1.5z"/></symbol><symbol viewBox="0 0 24 24" id="watch" xmlns="http://www.w3.org/2000/svg"><path d="M0 0h24v24H0z" fill="none" opacity=".1"/><path d="M20 12c0-2.54-1.19-4.81-3.04-6.27L16 0H8l-.95 5.73C5.19 7.19 4 9.45 4 12s1.19 4.81 3.05 6.27L8 24h8l.96-5.73A7.976 7.976 0 0 0 20 12zM6 12c0-3.31 2.69-6 6-6s6 2.69 6 6-2.69 6-6 6-6-2.69-6-6z"/></symbol><symbol viewBox="0 0 24 24" id="watch_off" xmlns="http://www.w3.org/2000/svg"><path fill="none" d="M0 0h24v24H0z"/><path d="M12 7c2.76 0 5 2.24 5 5 0 .64-.13 1.25-.35 1.82l1.5 1.5a6.963 6.963 0 0 0-1.79-8.79L15 2H9l-.96 3.21 2.14 2.14C10.75 7.13 11.36 7 12 7zM2.81 2.81 1.39 4.22l4.46 4.46a6.963 6.963 0 0 0 1.79 8.79L9 22h6l.96-3.21 3.82 3.82 1.41-1.41L2.81 2.81zM12 17c-2.76 0-5-2.24-5-5 0-.64.13-1.25.35-1.82l6.47 6.47c-.57.22-1.18.35-1.82.35z"/></symbol></svg>