<?xml version="1.0" encoding="utf-8"?><svg xmlns="http://www.w3.org/2000/svg" xmlns:xlink="http://www.w3.org/1999/xlink"><symbol fill="none" viewBox="0 0 24 24" id="bar_0" xmlns="http://www.w3.org/2000/svg"><path d="M19.5 5.5v13h-2v-13h2Zm-7 5v8h-2v-8h2Zm-7 5v3h-2v-3h2ZM21 4h-5v16h5V4Zm-7 5H9v11h5V9Zm-7 5H2v6h5v-6Z" fill="#fff"/></symbol><symbol fill="none" viewBox="0 0 24 24" id="bar_1" xmlns="http://www.w3.org/2000/svg"><path d="M19.5 5.5v13h-2v-13h2Zm-7 5v8h-2v-8h2ZM21 4h-5v16h5V4Zm-7 5H9v11h5V9Zm-7 5H2v6h5v-6Z" fill="#fff"/></symbol><symbol fill="none" viewBox="0 0 24 24" id="bar_2" xmlns="http://www.w3.org/2000/svg"><path d="M19.5 5.5v13h-2v-13h2ZM21 4h-5v16h5V4Zm-7 5H9v11h5V9Zm-7 5H2v6h5v-6Z" fill="#fff"/></symbol><symbol fill="none" viewBox="0 0 24 24" id="bar_3" xmlns="http://www.w3.org/2000/svg"><path d="M21 4h-5v16h5V4Zm-7 5H9v11h5V9Zm-7 5H2v6h5v-6Z" fill="#fff"/></symbol><symbol fill="none" viewBox="0 0 24 24" id="cellular_off" xmlns="http://www.w3.org/2000/svg"><path d="M6.825 20h10.35L12 14.825 6.825 20Zm13.95 3.6-1.6-1.6H2l8.6-8.6-8.2-8.175L3.8 3.8l18.4 18.4-1.425 1.4ZM22 19.175l-2-2V6.825L14.825 12 13.4 10.6 22 2v17.175Z" fill="#727E84"/></symbol><symbol fill="none" viewBox="0 0 24 24" id="cost" xmlns="http://www.w3.org/2000/svg"><path d="M11.8 10.9c-2.27-.59-3-1.2-3-2.15 0-1.09 1.01-1.85 2.7-1.85 1.78 0 2.44.85 2.5 2.1h2.21c-.07-1.72-1.12-3.3-3.21-3.81V3h-3v2.16c-1.94.42-3.5 1.68-3.5 3.61 0 2.31 1.91 3.46 4.7 4.13 2.5.6 3 1.48 3 2.41 0 .69-.49 1.79-2.7 1.79-2.06 0-2.87-.92-2.98-2.1h-2.2c.12 2.19 1.76 3.42 3.68 3.83V21h3v-2.15c1.95-.37 3.5-1.5 3.5-3.55 0-2.84-2.43-3.81-4.7-4.4Z" fill="#fff"/></symbol><symbol fill="none" viewBox="0 0 24 24" id="cost_circled" xmlns="http://www.w3.org/2000/svg"><path fill-rule="evenodd" clip-rule="evenodd" d="M2 12C2 6.48 6.48 2 12 2s10 4.48 10 10-4.48 10-10 10S2 17.52 2 12Zm11.41 8v-1.91c1.74-.33 3.11-1.33 3.12-3.16 0-2.52-2.16-3.39-4.18-3.91-2.02-.52-2.67-1.07-2.67-1.91 0-.96.9-1.64 2.4-1.64 1.58 0 2.17.76 2.22 1.87h1.96c-.06-1.53-.99-2.94-2.85-3.39V4h-2.67v1.93c-1.72.37-3.11 1.49-3.11 3.21 0 2.05 1.7 3.07 4.18 3.67 2.23.53 2.67 1.31 2.67 2.14 0 .61-.44 1.59-2.4 1.59-1.83 0-2.55-.82-2.65-1.87H7.47c.11 1.94 1.56 3.04 3.27 3.4V20h2.67Z" fill="#fff"/></symbol><symbol fill="none" viewBox="0 0 24 24" id="cursor_pointer" xmlns="http://www.w3.org/2000/svg"><path d="m13.75 10.19.63.13 4.17 2.08c.7.23 1.16.92 1.1 1.66v.26l-.9 6.12c-.06.43-.25.83-.6 1.11-.31.3-.72.45-1.15.45h-6.88c-.49 0-.94-.18-1.27-.53L2.86 15.5l.9-1c.24-.25.62-.39.98-.37h.29L9 15V4.5a2 2 0 1 1 4 0v5.69h.75Z" fill="#727E84"/></symbol><symbol fill="none" viewBox="0 0 24 24" id="cursor_pointer_outline" xmlns="http://www.w3.org/2000/svg"><path d="M12 4.5a1 1 0 0 0-2 0v11.743L4.923 15.13h-.21l-.029-.001a.318.318 0 0 0-.2.06l-.245.273 5.317 5.3.011.01.01.012a.715.715 0 0 0 .543.216H17c.196 0 .349-.066.455-.169l.034-.032.036-.03c.113-.09.203-.238.235-.467v-.007l.89-6.048v-.227l.003-.04a.617.617 0 0 0-.415-.63l-.07-.023-.065-.032-4.053-2.022-.399-.083H12V4.5Zm2 4.72.71.147.117.058 4.135 2.062a2.613 2.613 0 0 1 1.688 2.573v.334l-.01.072-.9 6.111.001.001c-.088.63-.379 1.283-.966 1.753-.505.452-1.14.669-1.775.669h-6.88c-.732 0-1.443-.27-1.976-.822l-6.663-6.64 1.535-1.707.011-.012.012-.011a2.29 2.29 0 0 1 1.701-.677l.398-.001.106.023L8 13.757V4.5a3 3 0 0 1 6 0v4.72Z" fill="#727E84"/></symbol><symbol fill="none" viewBox="0 0 24 24" id="dark_mode" xmlns="http://www.w3.org/2000/svg"><path d="M12 21c-2.5 0-4.625-.875-6.375-2.625S3 14.5 3 12s.875-4.625 2.625-6.375S9.5 3 12 3a9.304 9.304 0 0 1 1.35.1 5.292 5.292 0 0 0-1.637 1.887A5.31 5.31 0 0 0 11.1 7.5c0 1.5.525 2.775 1.575 3.825C13.725 12.375 15 12.9 16.5 12.9c.917 0 1.758-.204 2.525-.613A5.322 5.322 0 0 0 20.9 10.65 8.505 8.505 0 0 1 21 12c0 2.5-.875 4.625-2.625 6.375S14.5 21 12 21Zm0-2c1.467 0 2.783-.404 3.95-1.212a7.012 7.012 0 0 0 2.55-3.163c-.333.083-.667.15-1 .2-.333.05-.667.075-1 .075-2.05 0-3.796-.72-5.238-2.162C9.821 11.296 9.1 9.55 9.1 7.5c0-.333.025-.667.075-1 .05-.333.117-.667.2-1a7.013 7.013 0 0 0-3.162 2.55C5.404 9.217 5 10.533 5 12c0 1.933.683 3.583 2.05 4.95C8.417 18.317 10.067 19 12 19Z" fill="#fff"/></symbol><symbol fill="none" viewBox="0 0 24 24" id="ev_station_alternate" xmlns="http://www.w3.org/2000/svg"><path d="M6 10h6V5H6v5ZM4 21V5c0-.55.196-1.02.588-1.413A1.926 1.926 0 0 1 6 3h6c.55 0 1.02.196 1.412.587C13.804 3.98 14 4.45 14 5v7h1.25c.483 0 .896.17 1.238.512.341.342.512.755.512 1.238v4.625c0 .283.117.542.35.775.233.233.492.35.775.35.3 0 .563-.117.788-.35.224-.233.337-.492.337-.775V9H19a.968.968 0 0 1-.712-.287A.967.967 0 0 1 18 8V6h.5V4.5h1V6h1V4.5h1V6h.5v2c0 .283-.096.52-.288.713A.968.968 0 0 1 21 9h-.25v9.375c0 .7-.254 1.313-.762 1.837a2.493 2.493 0 0 1-1.863.788c-.717 0-1.333-.262-1.85-.788-.517-.524-.775-1.137-.775-1.837V13.75c0-.083-.02-.146-.063-.188-.041-.041-.104-.062-.187-.062H14V21H4Zm4.5-2 2.5-4H9.5v-3L7 16h1.5v3Z" fill="#fff"/></symbol><symbol fill="none" viewBox="0 0 24 24" id="file_tree" xmlns="http://www.w3.org/2000/svg"><path d="M12 13H7v5h5v2H5V10h2v1h5v2ZM8 4v2H4V4h4Zm2-2H2v6h8V2Zm10 9v2h-4v-2h4Zm2-2h-8v6h8V9Zm-2 9v2h-4v-2h4Zm2-2h-8v6h8v-6Z" fill="#727E84"/></symbol><symbol fill="none" viewBox="0 0 24 24" id="japanese_latin" xmlns="http://www.w3.org/2000/svg"><path d="m8.15 18-.75-1.2c1.333-.133 2.375-.492 3.125-1.075s1.125-1.333 1.125-2.25c0-.5-.17-.958-.513-1.375a2.852 2.852 0 0 0-1.337-.9c-.383.95-.837 1.8-1.362 2.55-.525.75-1.105 1.4-1.738 1.95a16.02 16.02 0 0 0 .35 1.2l-1.25.375a15.01 15.01 0 0 1-.125-.437 5.802 5.802 0 0 0-.1-.338 7.539 7.539 0 0 1-1.225.538 3.617 3.617 0 0 1-1.125.187c-.533 0-.967-.175-1.3-.525-.333-.35-.5-.817-.5-1.4 0-.883.333-1.758 1-2.625S3.95 11.125 5 10.625l.05-.937c.017-.309.042-.621.075-.938-.467.017-.958.013-1.475-.012a48.46 48.46 0 0 1-1.675-.113L1.95 7.3c.433.083.9.138 1.4.163.5.025 1.142.037 1.925.037.033-.3.07-.596.113-.887a3.51 3.51 0 0 0 .012-.888l1.5.025c-.117.283-.2.57-.25.863l-.15.862c.967-.05 1.858-.125 2.675-.225.817-.1 1.583-.233 2.3-.4l.025 1.3a63.17 63.17 0 0 1-2.587.338c-.842.091-1.688.162-2.538.212a6.705 6.705 0 0 0-.062.725c-.009.25-.03.492-.063.725.467-.133.92-.225 1.363-.275.441-.05.879-.058 1.312-.025.05-.167.088-.333.113-.5.025-.167.045-.333.062-.5l1.425.35a7.99 7.99 0 0 1-.162.4 3.484 3.484 0 0 0-.163.475c.85.233 1.53.667 2.038 1.3.508.633.762 1.342.762 2.125 0 1.167-.43 2.146-1.287 2.938-.859.791-2.046 1.312-3.563 1.562Zm-4.7-2.125c.283 0 .575-.058.875-.175.3-.117.617-.292.95-.525a20.51 20.51 0 0 1-.25-1.725 15.338 15.338 0 0 1-.075-1.475c-.633.4-1.158.892-1.575 1.475-.417.583-.625 1.133-.625 1.65 0 .217.07.4.213.55.141.15.304.225.487.225ZM6.4 14.25A8.752 8.752 0 0 0 8.55 11c-.383 0-.77.033-1.162.1a8.007 8.007 0 0 0-1.188.3c-.033.433-.03.883.013 1.35.041.467.104.967.187 1.5Zm11.15 1.4c.467 0 .92-.108 1.363-.325a4.086 4.086 0 0 0 1.212-.925v-2.65c-.383.05-.738.108-1.063.175-.325.067-.629.142-.912.225-.75.233-1.313.525-1.688.875s-.562.758-.562 1.225c0 .433.15.775.45 1.025.3.25.7.375 1.2.375Zm-.575 1.7c-.95 0-1.7-.27-2.25-.812s-.825-1.28-.825-2.213c0-.867.275-1.575.825-2.125.55-.55 1.433-.992 2.65-1.325.383-.1.804-.192 1.262-.275a27.29 27.29 0 0 1 1.488-.225c-.033-.783-.217-1.354-.55-1.712-.333-.359-.85-.538-1.55-.538-.433 0-.862.08-1.287.238-.425.158-.971.437-1.638.837l-.8-1.4a6.99 6.99 0 0 1 1.938-1.012A6.834 6.834 0 0 1 18.5 6.4c1.183 0 2.083.367 2.7 1.1.617.733.925 1.8.925 3.2v6.425H20.45L20.3 16a5.69 5.69 0 0 1-1.538.988 4.45 4.45 0 0 1-1.787.362Z" fill="#fff"/></symbol><symbol fill="none" viewBox="0 0 24 24" id="lan" xmlns="http://www.w3.org/2000/svg"><path d="M3 22v-7h3v-4h5V9H8V2h8v7h-3v2h5v4h3v7h-8v-7h3v-2H8v2h3v7H3Zm7-15h4V4h-4v3ZM5 20h4v-3H5v3Zm10 0h4v-3h-4v3Z" fill="#727E84"/></symbol><symbol fill="none" viewBox="0 0 24 24" id="lan_disconnected" xmlns="http://www.w3.org/2000/svg"><path d="M8 13h10v-2h-5V9h3V2H8v7h3v2H6v4H3v7h8v-7H8v-2Zm2-6V4h4v3h-4ZM9 17v3H5v-3h4Z" fill="#727E84"/><path d="M21 16.41 19.59 15l-2.09 2.09L15.41 15 14 16.41l2.09 2.09L14 20.59 15.41 22l2.09-2.08L19.59 22 21 20.59l-2.08-2.09L21 16.41Z" fill="#727E84"/></symbol><symbol fill="none" viewBox="0 0 24 24" id="lan_off" xmlns="http://www.w3.org/2000/svg"><path d="M22 22 3.51 3.51 2.1 4.92l6.07 6.07H6v4H3v7h8v-7H8v-2h2.17L13 15.82v6.17h6.17l1.41 1.41 1.41-1.41.01.01ZM9 17v3H5v-3h4Zm6 3v-2.17L17.17 20H15ZM21 18.17V15h-3v-4h-4.17L21 18.17ZM13 9h3V2H8v3.17l5 5V9Zm-3-5h4v3h-4V4Z" fill="#727E84"/></symbol><symbol fill="none" viewBox="0 0 24 24" id="light_mode" xmlns="http://www.w3.org/2000/svg"><path d="M12 15c.833 0 1.542-.292 2.125-.875A2.893 2.893 0 0 0 15 12c0-.833-.292-1.542-.875-2.125A2.893 2.893 0 0 0 12 9c-.833 0-1.542.292-2.125.875A2.893 2.893 0 0 0 9 12c0 .833.292 1.542.875 2.125A2.893 2.893 0 0 0 12 15Zm0 2c-1.383 0-2.563-.488-3.537-1.463C7.488 14.563 7 13.383 7 12s.487-2.563 1.463-3.537C9.438 7.488 10.617 7 12 7s2.563.487 3.537 1.463C16.512 9.438 17 10.617 17 12s-.488 2.563-1.463 3.537C14.563 16.512 13.383 17 12 17Zm-7-4H1v-2h4v2Zm18 0h-4v-2h4v2ZM11 5V1h2v4h-2Zm0 18v-4h2v4h-2ZM6.4 7.75 3.875 5.325 5.3 3.85l2.4 2.5-1.3 1.4Zm12.3 12.4-2.425-2.525L17.6 16.25l2.525 2.425L18.7 20.15ZM16.25 6.4l2.425-2.525L20.15 5.3l-2.5 2.4-1.4-1.3ZM3.85 18.7l2.525-2.425L7.75 17.6l-2.425 2.525L3.85 18.7Z" fill="#fff"/></symbol><symbol fill="none" viewBox="0 0 24 24" id="lock_unlocked" xmlns="http://www.w3.org/2000/svg"><path d="M12 17c1.1 0 2-.9 2-2s-.9-2-2-2-2 .9-2 2 .9 2 2 2Zm6-9h-1V6c0-2.76-2.24-5-5-5S7 3.24 7 6h1.9c0-1.71 1.39-3.1 3.1-3.1 1.71 0 3.1 1.39 3.1 3.1v2H6c-1.1 0-2 .9-2 2v10c0 1.1.9 2 2 2h12c1.1 0 2-.9 2-2V10c0-1.1-.9-2-2-2Zm0 12H6V10h12v10Z" fill="#727E84"/></symbol><symbol fill="none" viewBox="0 0 24 24" id="locked_level_1" xmlns="http://www.w3.org/2000/svg"><path fill-rule="evenodd" clip-rule="evenodd" d="M18 8h-1V6c0-2.76-2.24-5-5-5S7 3.24 7 6v2H6c-1.1 0-2 .9-2 2v10c0 1.1.9 2 2 2h12c1.1 0 2-.9 2-2V10c0-1.1-.9-2-2-2ZM8.9 8V6c0-1.71 1.39-3.1 3.1-3.1 1.71 0 3.1 1.39 3.1 3.1v2H8.9Zm2.984 11h1.66v-7.852H12.18l-2.53 2.014.8.999.902-.726c.108-.085.3-.266.575-.542l-.027.816-.016.747V19Z" fill="#727E84"/></symbol><symbol fill="none" viewBox="0 0 24 24" id="locked_level_2" xmlns="http://www.w3.org/2000/svg"><path fill-rule="evenodd" clip-rule="evenodd" d="M18 8h-1V6c0-2.76-2.24-5-5-5S7 3.24 7 6v2H6c-1.1 0-2 .9-2 2v10c0 1.1.9 2 2 2h12c1.1 0 2-.9 2-2V10c0-1.1-.9-2-2-2ZM8.9 8V6c0-1.71 1.39-3.1 3.1-3.1 1.71 0 3.1 1.39 3.1 3.1v2H8.9Zm.54 11h5.49v-1.396h-3.422v-.076l1.01-.95c.673-.616 1.142-1.09 1.407-1.424.269-.333.466-.657.591-.972.129-.319.194-.659.194-1.02 0-.416-.104-.785-.312-1.107a2.074 2.074 0 0 0-.875-.752c-.377-.179-.81-.268-1.3-.268-.373 0-.71.037-1.01.113-.3.071-.578.175-.833.311-.254.136-.574.369-.961.698l.902 1.07a4.57 4.57 0 0 1 .897-.597c.287-.14.582-.21.886-.21.29 0 .522.077.693.231.176.154.263.389.263.704 0 .211-.039.415-.118.612a2.784 2.784 0 0 1-.386.645c-.18.229-.56.643-1.144 1.24L9.44 17.845V19Z" fill="#727E84"/></symbol><symbol fill="none" viewBox="0 0 24 24" id="locked_level_3" xmlns="http://www.w3.org/2000/svg"><path fill-rule="evenodd" clip-rule="evenodd" d="M17 8h1c1.1 0 2 .9 2 2v10c0 1.1-.9 2-2 2H6c-1.1 0-2-.9-2-2V10c0-1.1.9-2 2-2h1V6c0-2.76 2.24-5 5-5s5 2.24 5 5v2ZM8.9 6v2h6.2V6c0-1.71-1.39-3.1-3.1-3.1-1.71 0-3.1 1.39-3.1 3.1Zm5.278 8.155c.297-.343.445-.76.445-1.251 0-.587-.236-1.046-.708-1.375-.47-.33-1.11-.494-1.923-.494-.992 0-1.846.258-2.562.773l.768 1.144a3.87 3.87 0 0 1 .886-.446c.268-.086.532-.129.79-.129.744 0 1.117.298 1.117.892 0 .387-.142.66-.425.822-.279.157-.723.236-1.332.236h-.607V15.6h.597c.659 0 1.138.077 1.44.231.3.154.45.415.45.784 0 .412-.13.711-.392.897-.261.186-.666.28-1.214.28-.358 0-.72-.049-1.085-.146a5.122 5.122 0 0 1-1.004-.376v1.413c.659.283 1.414.424 2.266.424 1.018 0 1.8-.21 2.348-.628.548-.422.822-1.011.822-1.767 0-.52-.163-.931-.49-1.235-.325-.308-.805-.502-1.439-.58v-.033c.537-.129.954-.365 1.252-.709Z" fill="#727E84"/></symbol><symbol fill="none" viewBox="0 0 24 24" id="network_0" xmlns="http://www.w3.org/2000/svg"><path d="M2 22h20V2L2 22Z" fill="#A1A7AA" fill-opacity=".36"/></symbol><symbol fill="none" viewBox="0 0 24 24" id="network_1" xmlns="http://www.w3.org/2000/svg"><path d="M2 22h20V2L2 22Z" fill="#A1A7AA" fill-opacity=".36"/><path d="M12 12 2 22h10V12Z" fill="#fff"/></symbol><symbol fill="none" viewBox="0 0 24 24" id="network_2" xmlns="http://www.w3.org/2000/svg"><path d="M2 22h20V2L2 22Z" fill="#A1A7AA" fill-opacity=".36"/><path d="M14 10 2 22h12V10Z" fill="#fff"/></symbol><symbol fill="none" viewBox="0 0 24 24" id="network_3" xmlns="http://www.w3.org/2000/svg"><path d="M2 22h20V2L2 22Z" fill="#A1A7AA" fill-opacity=".36"/><path d="M17 7 2 22h15V7Z" fill="#fff"/></symbol><symbol fill="none" viewBox="0 0 24 24" id="network_4" xmlns="http://www.w3.org/2000/svg"><path d="M2 22h20V2L2 22Z" fill="#fff"/></symbol><symbol fill="none" viewBox="0 0 24 24" id="network_no_data" xmlns="http://www.w3.org/2000/svg"><g clip-path="url(#baa)"><path d="M22 13h-9v9H2L22 2v11Zm-1 2.41L19.59 14l-2.09 2.09L15.41 14 14 15.41l2.09 2.09L14 19.59 15.41 21l2.09-2.08L19.59 21 21 19.59l-2.08-2.09L21 15.41Z" fill="#fff"/></g><defs><clipPath id="baa"><path fill="#fff" d="M0 0h24v24H0z"/></clipPath></defs></symbol><symbol fill="none" viewBox="0 0 24 24" id="network_null" xmlns="http://www.w3.org/2000/svg"><g clip-path="url(#bba)"><path d="M20 6.83V20H6.83L20 6.83ZM22 2 2 22h20V2Z" fill="#fff"/></g><defs><clipPath id="bba"><path fill="#fff" d="M0 0h24v24H0z"/></clipPath></defs></symbol><symbol fill="none" viewBox="0 0 24 24" id="network_off" xmlns="http://www.w3.org/2000/svg"><path d="m21 1-8.31 8.31 8.31 8.3V1ZM4.91 4.36 3.5 5.77l6.36 6.37L1 21h17.73l2 2 1.41-1.41L4.91 4.36Z" fill="#fff"/></symbol><symbol fill="none" viewBox="0 0 24 24" id="orientation_landscape" xmlns="http://www.w3.org/2000/svg"><path fill-rule="evenodd" clip-rule="evenodd" d="M5 7h14c1.1 0 2 .9 2 2v10c0 1.1-.9 2-2 2H5c-1.1 0-2-.9-2-2V9c0-1.1.9-2 2-2Zm0 12h14V9H5v10Z" fill="#727E84"/></symbol><symbol fill="none" viewBox="0 0 24 24" id="placeholder" xmlns="http://www.w3.org/2000/svg"><path d="M9 9c1.16 0 2.229.397 3.077 1.06L9.804 14H14a5 5 0 1 1-5-5Zm11 5h-6a4.99 4.99 0 0 0-1.923-3.94L15 5l5 9Z" fill="#727E84"/></symbol><symbol fill="none" viewBox="0 0 24 24" id="settings" xmlns="http://www.w3.org/2000/svg"><g clip-path="url(#bfa)"><path d="M19.43 12.98c.04-.32.07-.64.07-.98 0-.34-.03-.66-.07-.98l2.11-1.65c.19-.15.24-.42.12-.64l-2-3.46a.5.5 0 0 0-.61-.22l-2.49 1c-.52-.4-1.08-.73-1.69-.98l-.38-2.65A.488.488 0 0 0 14 2h-4c-.25 0-.46.18-.49.42l-.38 2.65c-.61.25-1.17.59-1.69.98l-2.49-1a.566.566 0 0 0-.18-.03c-.17 0-.34.09-.43.25l-2 3.46c-.13.22-.07.49.12.64l2.11 1.65c-.04.32-.07.65-.07.98 0 .33.03.66.07.98l-2.11 1.65c-.19.15-.24.42-.12.64l2 3.46a.5.5 0 0 0 .61.22l2.49-1c.52.4 1.08.73 1.69.98l.38 2.65c.03.24.24.42.49.42h4c.25 0 .46-.18.49-.42l.38-2.65c.61-.25 1.17-.59 1.69-.98l2.49 1c.06.02.12.03.18.03.17 0 .34-.09.43-.25l2-3.46c.12-.22.07-.49-.12-.64l-2.11-1.65Zm-1.98-1.71c.04.31.05.52.05.73 0 .21-.02.43-.05.73l-.14 1.13.89.7 1.08.84-.7 1.21-1.27-.51-1.04-.42-.9.68c-.43.32-.84.56-1.25.73l-1.06.43-.16 1.13-.2 1.35h-1.4l-.19-1.35-.16-1.13-1.06-.43c-.43-.18-.83-.41-1.23-.71l-.91-.7-1.06.43-1.27.51-.7-1.21 1.08-.84.89-.7-.14-1.13c-.03-.31-.05-.54-.05-.74 0-.2.02-.43.05-.73l.14-1.13-.89-.7-1.08-.84.7-1.21 1.27.51 1.04.42.9-.68c.43-.32.84-.56 1.25-.73l1.06-.43.16-1.13.2-1.35h1.39l.19 1.35.16 1.13 1.06.43c.43.18.83.41 1.23.71l.91.7 1.06-.43 1.27-.51.7 1.21-1.07.85-.89.7.14 1.13ZM12 8c-2.21 0-4 1.79-4 4s1.79 4 4 4 4-1.79 4-4-1.79-4-4-4Zm0 6c-1.1 0-2-.9-2-2s.9-2 2-2 2 .9 2 2-.9 2-2 2Z" fill="#727E84"/></g><defs><clipPath id="bfa"><path fill="#fff" d="M0 0h24v24H0z"/></clipPath></defs></symbol><symbol fill="none" viewBox="0 0 24 24" id="settings_filled" xmlns="http://www.w3.org/2000/svg"><path d="m9.25 22-.4-3.2a3.79 3.79 0 0 1-.613-.3 8.266 8.266 0 0 1-.562-.375L4.7 19.375l-2.75-4.75 2.575-1.95a2.387 2.387 0 0 1-.025-.338v-.675c0-.108.008-.22.025-.337L1.95 9.375l2.75-4.75 2.975 1.25c.183-.133.375-.258.575-.375.2-.117.4-.217.6-.3l.4-3.2h5.5l.4 3.2c.217.083.42.183.612.3.192.117.38.242.563.375l2.975-1.25 2.75 4.75-2.575 1.95c.017.117.025.23.025.338v.675c0 .108-.017.22-.05.337l2.575 1.95-2.75 4.75-2.95-1.25a6.842 6.842 0 0 1-.575.375c-.2.117-.4.217-.6.3l-.4 3.2h-5.5ZM11 20h1.975l.35-2.65c.517-.133.996-.33 1.438-.588.441-.258.845-.57 1.212-.937l2.475 1.025.975-1.7-2.15-1.625c.083-.233.142-.48.175-.738a6.153 6.153 0 0 0 0-1.575 3.535 3.535 0 0 0-.175-.737l2.15-1.625-.975-1.7-2.475 1.05a5.556 5.556 0 0 0-1.213-.962 5.607 5.607 0 0 0-1.437-.588L13 4h-1.975l-.35 2.65c-.517.133-.996.33-1.438.587-.441.259-.845.571-1.212.938L5.55 7.15l-.975 1.7 2.15 1.6c-.083.25-.142.5-.175.75s-.05.517-.05.8c0 .267.017.525.05.775s.092.5.175.75l-2.15 1.625.975 1.7 2.475-1.05c.367.383.77.704 1.212.962.442.259.921.455 1.438.588L11 20Zm1.05-4.5c.967 0 1.792-.342 2.475-1.025A3.372 3.372 0 0 0 15.55 12c0-.967-.342-1.792-1.025-2.475A3.373 3.373 0 0 0 12.05 8.5c-.983 0-1.813.342-2.488 1.025A3.393 3.393 0 0 0 8.55 12c0 .967.337 1.792 1.012 2.475.676.683 1.505 1.025 2.488 1.025Z" fill="#727E84"/></symbol><symbol fill="none" viewBox="0 0 24 24" id="signal_1x" xmlns="http://www.w3.org/2000/svg"><path d="M6 17V9H4V7h4v10H6Zm4.35 0 3.15-5.3L10.65 7H13l1.65 2.75L16.35 7h2.3l-2.8 4.7L19 17h-2.35l-2-3.35-2 3.35h-2.3Z" fill="#fff"/></symbol><symbol fill="none" viewBox="0 0 24 24" id="signal_2g" xmlns="http://www.w3.org/2000/svg"><path d="M11 19.5H2v-6a3 3 0 0 1 3-3h3v-3H2v-3h6a3 3 0 0 1 3 3v3a3 3 0 0 1-3 3H5v3h6v3Zm11-9h-4.5v3H19v3h-3v-9h6v-3h-6a3 3 0 0 0-3 3v9a3 3 0 0 0 3 3h3a3 3 0 0 0 3-3" fill="#fff"/></symbol><symbol fill="none" viewBox="0 0 24 24" id="signal_3g" xmlns="http://www.w3.org/2000/svg"><path d="M11 16.5v-2.25C11 13 10 12 8.75 12 10 12 11 11 11 9.75V7.5a3 3 0 0 0-3-3H2v3h6v3H5v3h3v3H2v3h6a3 3 0 0 0 3-3Zm11 0v-6h-4.5v3H19v3h-3v-9h6v-3h-6a3 3 0 0 0-3 3v9a3 3 0 0 0 3 3h3a3 3 0 0 0 3-3Z" fill="#fff"/></symbol><symbol fill="none" viewBox="0 0 24 24" id="signal_4g" xmlns="http://www.w3.org/2000/svg"><path d="M22 16.5v-6h-4.5v3H19v3h-3v-9h6v-3h-6a3 3 0 0 0-3 3v9a3 3 0 0 0 3 3h3a3 3 0 0 0 3-3Zm-14 3h3v-15H8v6H5v-6H2v9h6v6Z" fill="#fff"/></symbol><symbol fill="none" viewBox="0 0 24 24" id="signal_5g" xmlns="http://www.w3.org/2000/svg"><path d="M22 16.5v-6h-4.5v3H19v3h-3v-9h6v-3h-6a3 3 0 0 0-3 3v9a3 3 0 0 0 3 3h3a3 3 0 0 0 3-3Zm-12-12H3v9h4v3H3v3h5.5A1.5 1.5 0 0 0 10 18v-6a1.5 1.5 0 0 0-1.5-1.5H6v-3h4v-3Z" fill="#fff"/></symbol><symbol fill="none" viewBox="0 0 24 24" id="signal_bad" xmlns="http://www.w3.org/2000/svg"><path d="m16.9 21.5-1.4-1.4 2.1-2.1-2.1-2.1 1.4-1.4 2.1 2.1 2.1-2.1 1.4 1.4-2.075 2.1 2.075 2.1-1.4 1.4-2.1-2.075-2.1 2.075ZM2 22 22 2.025V12.7a4.46 4.46 0 0 0-.95-.438A8.065 8.065 0 0 0 20 12V6.85L6.825 20h6.425c.133.383.3.742.5 1.075.2.333.425.642.675.925H2Zm4.825-2L20 6.85a1221.098 1221.098 0 0 1-3.45 3.437 1063.437 1063.437 0 0 0-3.038 3.025L10.425 16.4l-3.6 3.6Z" fill="#727E84"/></symbol><symbol fill="none" viewBox="0 0 24 24" id="signal_lte" xmlns="http://www.w3.org/2000/svg"><path d="M4 16V8h2v6h3v2H4Zm7 0v-6H9V8h6v2h-2v6h-2Zm5 0V8h5v2h-3v1h3v2h-3v1h3v2h-5Z" fill="#fff"/></symbol><symbol fill="none" viewBox="0 0 24 24" id="size_l" xmlns="http://www.w3.org/2000/svg"><path d="M9 7v10h6v-2h-4V7H9Z" fill="#727E84"/></symbol><symbol fill="none" viewBox="0 0 24 24" id="size_m" xmlns="http://www.w3.org/2000/svg"><path d="M9 7c-1.1 0-2 .9-2 2v8h2V9h2v7h2V9h2v8h2V9a2 2 0 0 0-2-2H9Z" fill="#727E84"/></symbol><symbol fill="none" viewBox="0 0 24 24" id="size_s" xmlns="http://www.w3.org/2000/svg"><path d="M11 7c-1.1 0-2 .9-2 2v2a2 2 0 0 0 2 2h2v2H9v2h4c1.11 0 2-.89 2-2v-2a2 2 0 0 0-2-2h-2V9h4V7h-4Z" fill="#727E84"/></symbol><symbol fill="none" viewBox="0 0 24 24" id="size_xl" xmlns="http://www.w3.org/2000/svg"><path d="M6 7h2l1 2.5L10 7h2l-2 5 2 5h-2l-1-2.5L8 17H6l2-5-2-5Zm7 0h2v8h4v2h-6V7Z" fill="#727E84"/></symbol><symbol fill="none" viewBox="0 0 24 24" id="size_xs" xmlns="http://www.w3.org/2000/svg"><path d="M6 7h2l1 2.5L10 7h2l-2 5 2 5h-2l-1-2.5L8 17H6l2-5-2-5Zm9 0h4v2h-4v2h2a2 2 0 0 1 2 2v2c0 1.11-.89 2-2 2h-4v-2h4v-2h-2a2 2 0 0 1-2-2V9c0-1.1.9-2 2-2Z" fill="#727E84"/></symbol><symbol fill="none" viewBox="0 0 24 24" id="speed_filled" xmlns="http://www.w3.org/2000/svg"><path d="M10.45 15.5c.417.417.942.613 1.575.587.633-.024 1.092-.254 1.375-.687L19 7l-8.4 5.6c-.433.3-.67.754-.713 1.363-.041.608.146 1.12.563 1.537ZM5.1 20c-.367 0-.704-.08-1.012-.238a1.783 1.783 0 0 1-.738-.712 11.205 11.205 0 0 1-1-2.438A9.734 9.734 0 0 1 2 14c0-1.383.263-2.683.788-3.9a10.099 10.099 0 0 1 2.137-3.175c.9-.9 1.958-1.612 3.175-2.138A9.738 9.738 0 0 1 12 4a9.63 9.63 0 0 1 3.85.775c1.2.517 2.25 1.22 3.15 2.112.9.892 1.617 1.934 2.15 3.125a9.578 9.578 0 0 1 .825 3.838 10.01 10.01 0 0 1-.313 2.688 9.82 9.82 0 0 1-1.037 2.512c-.183.317-.43.554-.738.712a2.184 2.184 0 0 1-1.012.238H5.1Z" fill="#727E84"/></symbol><symbol fill="none" viewBox="0 0 24 24" id="target" xmlns="http://www.w3.org/2000/svg"><path d="M11 2v2.07A8.002 8.002 0 0 0 4.07 11H2v2h2.07A8.002 8.002 0 0 0 11 19.93V22h2v-2.07A8.002 8.002 0 0 0 19.93 13H22v-2h-2.07A8.002 8.002 0 0 0 13 4.07V2h-2Zm0 4.08V8h2V6.09c2.5.41 4.5 2.41 4.92 4.91H16v2h1.91c-.41 2.5-2.41 4.5-4.91 4.92V16h-2v1.91C8.5 17.5 6.5 15.5 6.08 13H8v-2H6.09C6.5 8.5 8.5 6.5 11 6.08ZM12 11a1 1 0 1 0 0 2 1 1 0 0 0 0-2Z" fill="#fff"/></symbol><symbol fill="none" viewBox="0 0 24 24" id="unlocked_level_1" xmlns="http://www.w3.org/2000/svg"><path d="M13.544 19h-1.66v-4.544l.016-.746.027-.817a8.692 8.692 0 0 1-.575.542l-.902.726-.8-1 2.53-2.013h1.364V19Z" fill="#727E84"/><path d="M18 8h-1V6c0-2.76-2.24-5-5-5S7 3.24 7 6h1.9c0-1.71 1.39-3.1 3.1-3.1 1.71 0 3.1 1.39 3.1 3.1v2H6c-1.1 0-2 .9-2 2v10c0 1.1.9 2 2 2h12c1.1 0 2-.9 2-2V10c0-1.1-.9-2-2-2Zm0 12H6V10h12v10Z" fill="#727E84"/></symbol><symbol fill="none" viewBox="0 0 24 24" id="unlocked_level_2" xmlns="http://www.w3.org/2000/svg"><path d="M14.93 19H9.44v-1.155l1.972-1.992c.583-.598.965-1.012 1.144-1.241.179-.233.308-.448.386-.645.08-.197.118-.4.118-.612 0-.315-.087-.55-.263-.704-.171-.154-.402-.23-.693-.23-.304 0-.6.07-.886.209a4.57 4.57 0 0 0-.897.596l-.902-1.069c.387-.33.707-.562.961-.698.255-.136.532-.24.833-.311.3-.076.637-.113 1.01-.113.49 0 .923.09 1.3.268.375.18.667.43.875.752.208.322.312.691.312 1.107 0 .361-.065.701-.194 1.02-.125.315-.322.64-.59.972-.266.333-.735.808-1.408 1.424l-1.01.95v.076h3.422V19Z" fill="#727E84"/><path d="M18 8h-1V6c0-2.76-2.24-5-5-5S7 3.24 7 6h1.9c0-1.71 1.39-3.1 3.1-3.1 1.71 0 3.1 1.39 3.1 3.1v2H6c-1.1 0-2 .9-2 2v10c0 1.1.9 2 2 2h12c1.1 0 2-.9 2-2V10c0-1.1-.9-2-2-2Zm0 12H6V10h12v10Z" fill="#727E84"/></symbol><symbol fill="none" viewBox="0 0 24 24" id="unlocked_level_3" xmlns="http://www.w3.org/2000/svg"><path d="M14.623 12.904c0 .49-.148.908-.445 1.251-.298.344-.715.58-1.252.71v.031c.634.08 1.114.273 1.44.58.326.305.489.717.489 1.236 0 .755-.274 1.345-.822 1.767-.548.419-1.33.628-2.348.628-.852 0-1.607-.141-2.266-.424V17.27c.304.154.64.28 1.004.377.366.096.727.145 1.085.145.548 0 .953-.094 1.214-.28.262-.186.392-.485.392-.897 0-.369-.15-.63-.45-.784-.302-.154-.781-.23-1.44-.23h-.597v-1.274h.607c.61 0 1.053-.079 1.332-.236.283-.161.425-.435.425-.822 0-.594-.373-.892-1.117-.892-.258 0-.522.043-.79.13a3.87 3.87 0 0 0-.886.445l-.768-1.144c.716-.515 1.57-.773 2.562-.773.813 0 1.453.164 1.923.494.472.33.709.788.709 1.375Z" fill="#727E84"/><path d="M18 8h-1V6c0-2.76-2.24-5-5-5S7 3.24 7 6h1.9c0-1.71 1.39-3.1 3.1-3.1 1.71 0 3.1 1.39 3.1 3.1v2H6c-1.1 0-2 .9-2 2v10c0 1.1.9 2 2 2h12c1.1 0 2-.9 2-2V10c0-1.1-.9-2-2-2Zm0 12H6V10h12v10Z" fill="#727E84"/></symbol><symbol fill="none" viewBox="0 0 24 24" id="view_module" xmlns="http://www.w3.org/2000/svg"><g clip-path="url(#bya)"><path d="M3 5v14h18V5H3Zm16 6h-3.33V7H19v4Zm-5.33 0h-3.33V7h3.33v4ZM8.33 7v4H5V7h3.33ZM5 17v-4h3.33v4H5Zm5.33 0v-4h3.33v4h-3.33Zm5.34 0v-4H19v4h-3.33Z" fill="#727E84"/></g><defs><clipPath id="bya"><path fill="#fff" d="M0 0h24v24H0z"/></clipPath></defs></symbol><symbol fill="none" viewBox="0 0 24 24" id="view_module_filled" xmlns="http://www.w3.org/2000/svg"><g clip-path="url(#bza)"><path d="M14.67 5v6.5H9.33V5h5.34Zm1 6.5H21V5h-5.33v6.5Zm-1 7.5v-6.5H9.33V19h5.34Zm1-6.5V19H21v-6.5h-5.33Zm-7.34 0H3V19h5.33v-6.5Zm0-1V5H3v6.5h5.33Z" fill="#727E84"/></g><defs><clipPath id="bza"><path fill="#fff" d="M0 0h24v24H0z"/></clipPath></defs></symbol><symbol fill="none" viewBox="0 0 24 24" id="view_sidebar" xmlns="http://www.w3.org/2000/svg"><g clip-path="url(#caa)"><path d="M2 4v16h20V4H2Zm18 4.67h-2.5V6H20v2.67Zm-2.5 2H20v2.67h-2.5v-2.67ZM4 6h11.5v12H4V6Zm13.5 12v-2.67H20V18h-2.5Z" fill="#727E84"/></g><defs><clipPath id="caa"><path fill="#fff" d="M0 0h24v24H0z"/></clipPath></defs></symbol><symbol fill="none" viewBox="0 0 24 24" id="view_sidebar_filled" xmlns="http://www.w3.org/2000/svg"><g clip-path="url(#cba)"><path d="M16 20H2V4h14v16Zm2-12h4V4h-4v4Zm0 12h4v-4h-4v4Zm0-6h4v-4h-4v4Z" fill="#727E84"/></g><defs><clipPath id="cba"><path fill="#fff" d="M0 0h24v24H0z"/></clipPath></defs></symbol><symbol fill="none" viewBox="0 0 24 24" id="wifi_bad" xmlns="http://www.w3.org/2000/svg"><path d="m16.9 20.5-1.4-1.4 2.1-2.1-2.1-2.1 1.4-1.4 2.1 2.1 2.1-2.1 1.425 1.4-2.1 2.1 2.075 2.1-1.4 1.4-2.1-2.075-2.1 2.075ZM12 21 0 9a16.362 16.362 0 0 1 5.487-3.713A16.873 16.873 0 0 1 12 4c2.267 0 4.438.43 6.512 1.287A16.362 16.362 0 0 1 24 9l-3.45 3.425a56.49 56.49 0 0 1-.7-.713 56.49 56.49 0 0 0-.7-.712l1.95-1.95c-1.317-1-2.75-1.758-4.3-2.275A15.08 15.08 0 0 0 12 6c-1.65 0-3.25.258-4.8.775A14.809 14.809 0 0 0 2.9 9.05l9.1 9.1 1-1 .713.713.712.712L12 21Z" fill="#fff"/></symbol></svg>