<?xml version="1.0" encoding="utf-8"?><svg xmlns="http://www.w3.org/2000/svg" xmlns:xlink="http://www.w3.org/1999/xlink"><symbol viewBox="0 0 24 24" id="auto_mode" xmlns="http://www.w3.org/2000/svg"><path fill="none" d="M0 0h24v24H0z"/><path d="M19.03 3.56c-1.67-1.39-3.74-2.3-6.03-2.51v2.01c1.73.19 3.31.88 4.61 1.92l1.42-1.42zM11 3.06V1.05c-2.29.2-4.36 1.12-6.03 2.51l1.42 1.42A8.928 8.928 0 0 1 11 3.06zM4.98 6.39 3.56 4.97C2.17 6.64 1.26 8.71 1.05 11h2.01c.19-1.73.88-3.31 1.92-4.61zM20.94 11h2.01c-.21-2.29-1.12-4.36-2.51-6.03l-1.42 1.42A8.928 8.928 0 0 1 20.94 11zM7 12l3.44 1.56L12 17l1.56-3.44L17 12l-3.44-1.56L12 7l-1.56 3.44z"/><path d="M12 21a8.96 8.96 0 0 1-7.46-4H7v-2H1v6h2v-2.7c1.99 2.84 5.27 4.7 9 4.7 4.87 0 9-3.17 10.44-7.56l-1.96-.45C19.25 18.48 15.92 21 12 21z"/></symbol><symbol viewBox="0 0 24 24" id="blinds" xmlns="http://www.w3.org/2000/svg"><path fill="none" d="M0 0h24v24H0z"/><path d="M20 19V3H4v16H2v2h20v-2h-2zM16 9h2v2h-2V9zm-2 2H6V9h8v2zm4-4h-2V5h2v2zm-4-2v2H6V5h8zM6 19v-6h8v1.82A1.746 1.746 0 0 0 15 18a1.746 1.746 0 0 0 1-3.18V13h2v6H6z"/></symbol><symbol viewBox="0 0 24 24" id="blinds_closed" xmlns="http://www.w3.org/2000/svg"><path fill="none" d="M0 0h24v24H0z"/><path d="M20 19V3H4v16H2v2h11.25c0 .97.78 1.75 1.75 1.75s1.75-.78 1.75-1.75H22v-2h-2zm-2-8h-2V9h2v2zm-4 0H6V9h8v2zm0 2v2H6v-2h8zm2 0h2v2h-2v-2zm2-6h-2V5h2v2zm-4-2v2H6V5h8zM6 19v-2h8v2H6zm10 0v-2h2v2h-2z"/></symbol><symbol viewBox="0 0 24 24" id="broadcast_on_home" xmlns="http://www.w3.org/2000/svg"><path fill="none" d="M0 0h24v24H0z"/><path d="M22 6c0-1.1-.9-2-2-2H4v2h16v2.59c.73.29 1.4.69 2 1.17V6zM8 9H3c-.5 0-1 .5-1 1v9c0 .5.5 1 1 1h5c.5 0 1-.5 1-1v-9c0-.5-.5-1-1-1zm-1 9H4v-7h3v7zM17.75 16.97c.3-.23.5-.57.5-.97a1.25 1.25 0 0 0-2.5 0c0 .4.2.75.5.97V22h1.5v-5.03z"/><path d="M17 13.5a2.5 2.5 0 0 1 2.5 2.5c0 .69-.28 1.31-.73 1.76l1.06 1.06C20.55 18.1 21 17.1 21 16c0-2.21-1.79-4-4-4s-4 1.79-4 4c0 1.1.45 2.1 1.17 2.83l1.06-1.06A2.5 2.5 0 0 1 17 13.5z"/><path d="M17 9.5a6.5 6.5 0 0 0-6.5 6.5c0 1.79.73 3.42 1.9 4.6l1.06-1.06C12.56 18.63 12 17.38 12 16c0-2.76 2.24-5 5-5s5 2.24 5 5c0 1.37-.56 2.62-1.46 3.52l1.07 1.06A6.5 6.5 0 0 0 17 9.5z"/></symbol><symbol viewBox="0 0 24 24" id="broadcast_on_personal" xmlns="http://www.w3.org/2000/svg"><path fill="none" d="M0 0h24v24H0z"/><path d="M17 8c.7 0 1.38.1 2.02.27L12 3 4 9v12h6.76A7.998 7.998 0 0 1 17 8zM17 14.75c-.69 0-1.25.56-1.25 1.25 0 .4.2.75.5.97V22h1.5v-5.03c.3-.23.5-.57.5-.97 0-.69-.56-1.25-1.25-1.25z"/><path d="M17 12c-2.21 0-4 1.79-4 4 0 1.1.45 2.1 1.17 2.83l1.06-1.06A2.5 2.5 0 1 1 19.5 16c0 .69-.28 1.31-.73 1.76l1.06 1.06C20.55 18.1 21 17.1 21 16c0-2.21-1.79-4-4-4z"/><path d="M17 9.5a6.5 6.5 0 0 0-6.5 6.5c0 1.79.73 3.42 1.9 4.6l1.06-1.06C12.56 18.63 12 17.38 12 16c0-2.76 2.24-5 5-5s5 2.24 5 5c0 1.37-.56 2.62-1.46 3.52l1.07 1.06A6.5 6.5 0 0 0 17 9.5z"/></symbol><symbol viewBox="0 0 24 24" id="cloudy_snowing" xmlns="http://www.w3.org/2000/svg"><path fill="none" d="M0 0h24v24H0z"/><path d="M5 18c0 .55.45 1 1 1s1-.45 1-1-.45-1-1-1-1 .45-1 1zm12 0c0 .55.45 1 1 1s1-.45 1-1-.45-1-1-1-1 .45-1 1zm-9 4c0 .55.45 1 1 1s1-.45 1-1-.45-1-1-1-1 .45-1 1zm3-4c0 .55.45 1 1 1s1-.45 1-1-.45-1-1-1-1 .45-1 1zm3 4c0 .55.45 1 1 1s1-.45 1-1-.45-1-1-1-1 .45-1 1zm3.5-6h-10A5.51 5.51 0 0 1 2 10.5c0-2.76 2.09-5.09 4.78-5.44A5.975 5.975 0 0 1 12 2c2.97 0 5.45 2.18 5.92 5.02A4.5 4.5 0 0 1 22 11.5c0 2.48-2.02 4.5-4.5 4.5z"/></symbol><symbol viewBox="0 0 24 24" id="curtains" xmlns="http://www.w3.org/2000/svg"><path fill="none" d="M0 0h24v24H0z"/><path d="M20 19V3H4v16H2v2h20v-2h-2zM8.19 12c2.04-1.35 3.5-3.94 3.76-7h.09c.26 3.06 1.72 5.65 3.76 7-2.04 1.35-3.5 3.94-3.76 7h-.09c-.26-3.06-1.72-5.65-3.76-7z"/></symbol><symbol viewBox="0 0 24 24" id="curtains_closed" xmlns="http://www.w3.org/2000/svg"><path fill="none" d="M0 0h24v24H0z"/><path d="M20 19V3H4v16H2v2h20v-2h-2zM11 5h2v14h-2V5z"/></symbol><symbol viewBox="0 0 24 24" id="electric_bolt" xmlns="http://www.w3.org/2000/svg"><path fill="none" d="M0 0h24v24H0z"/><path d="M14.69 2.21 4.33 11.49c-.64.58-.28 1.65.58 1.73L13 14l-4.85 6.76c-.22.31-.19.74.08 1.01.3.3.77.31 1.08.02l10.36-9.28c.64-.58.28-1.65-.58-1.73L11 10l4.85-6.76c.22-.31.19-.74-.08-1.01a.77.77 0 0 0-1.08-.02z"/></symbol><symbol viewBox="0 0 24 24" id="electric_meter" xmlns="http://www.w3.org/2000/svg"><path fill="none" d="M0 0h24v24H0z"/><path d="M12 2c-4.96 0-9 4.04-9 9 0 3.91 2.51 7.24 6 8.47V22h2v-2.06a8.262 8.262 0 0 0 2 0V22h2v-2.53c3.49-1.24 6-4.57 6-8.47 0-4.96-4.04-9-9-9zm2.25 12-3 3-1.5-1.5L11 14.25 9.75 13l3-3 1.5 1.5L13 12.75 14.25 14zM16 9H8V7h8v2z"/></symbol><symbol viewBox="0 0 24 24" id="energy_savings_leaf" xmlns="http://www.w3.org/2000/svg"><path fill="none" d="M0 0h24v24H0z"/><path d="M12 3c-4.8 0-9 3.86-9 9 0 2.12.74 4.07 1.97 5.61L3 19.59 4.41 21l1.97-1.97A9.012 9.012 0 0 0 12 21c2.3 0 4.61-.88 6.36-2.64A8.95 8.95 0 0 0 21 12V3h-9zm3.83 9.26-5.16 4.63c-.16.15-.41.14-.56-.01a.397.397 0 0 1-.04-.52l2.44-3.33-4.05-.4a.514.514 0 0 1-.3-.89l5.16-4.63c.16-.15.41-.14.56.01.14.14.16.36.04.52l-2.44 3.33 4.05.4c.45.04.63.59.3.89z"/></symbol><symbol viewBox="0 0 24 24" id="foggy" xmlns="http://www.w3.org/2000/svg"><path fill="none" d="M0 0h24v24H0z"/><path d="M17.92 7.02C17.45 4.18 14.97 2 12 2 9.82 2 7.83 3.18 6.78 5.06 4.09 5.41 2 7.74 2 10.5 2 13.53 4.47 16 7.5 16h10c2.48 0 4.5-2.02 4.5-4.5a4.5 4.5 0 0 0-4.08-4.48zm.08 9.99c.55 0 1 .45 1 1s-.45 1-1 1-1-.45-1-1 .45-1 1-1zm-11 3c.55 0 1 .45 1 1s-.45 1-1 1-1-.45-1-1 .45-1 1-1zm-1-3h9c.55 0 1 .45 1 1s-.45 1-1 1H6c-.55 0-1-.45-1-1s.45-1 1-1zm4 3h7c.55 0 1 .45 1 1s-.45 1-1 1h-7c-.55 0-1-.45-1-1s.45-1 1-1z"/></symbol><symbol viewBox="0 0 24 24" id="gas_meter" xmlns="http://www.w3.org/2000/svg"><path fill="none" d="M0 0h24v24H0z"/><path d="M16 4h-1V2h-2v2h-2V2H9v2H8C5.79 4 4 5.79 4 8v10c0 2.21 1.79 4 4 4h8c2.21 0 4-1.79 4-4V8c0-2.21-1.79-4-4-4zm-4 14c-1.38 0-2.5-1.1-2.5-2.46 0-1.09.43-1.39 2.5-3.79 2.05 2.38 2.5 2.7 2.5 3.79C14.5 16.9 13.38 18 12 18zm4-8H8V8h8v2z"/></symbol><symbol viewBox="0 0 24 24" id="heat_pump" xmlns="http://www.w3.org/2000/svg"><path fill="none" d="M0 0h24v24H0z"/><path d="M19 3H5c-1.1 0-2 .9-2 2v14c0 1.1.9 2 2 2h14c1.1 0 2-.9 2-2V5c0-1.1-.9-2-2-2zm-6.25 4.08c.82.12 1.57.44 2.2.91l-2.2 2.2V7.08zm-1.5 0v3.11l-2.2-2.2c.63-.47 1.38-.79 2.2-.91zM7.99 9.05l2.2 2.2H7.08c.12-.82.44-1.57.91-2.2zm-.91 3.7h3.11l-2.2 2.2c-.47-.63-.79-1.38-.91-2.2zm4.17 4.17c-.82-.12-1.57-.44-2.2-.91l2.2-2.2v3.11zM12 13c-.55 0-1-.45-1-1s.45-1 1-1 1 .45 1 1-.45 1-1 1zm.75 3.92v-3.11l2.2 2.2c-.63.47-1.38.79-2.2.91zm3.26-1.97-2.2-2.2h3.11c-.12.82-.44 1.57-.91 2.2zm-2.2-3.7 2.2-2.2c.47.64.79 1.39.91 2.2h-3.11z"/></symbol><symbol viewBox="0 0 24 24" id="mode_fan_off" xmlns="http://www.w3.org/2000/svg"><path fill="none" d="M0 0h24v24H0z"/><path d="m16.34 8.36-2.29.82c-.18-.13-.38-.25-.58-.34.17-.83.63-1.58 1.36-2.06C16.85 5.44 16.18 2 13.39 2c-3.08 0-4.9 1.47-5.3 3.26L18.73 15.9c1.5.39 3.27-.51 3.27-2.51 0-4.39-3.01-6.23-5.66-5.03zM2.81 2.81 1.39 4.22 5.27 8.1C3.77 7.7 2 8.61 2 10.61c0 4.4 3.01 6.24 5.66 5.03l2.29-.82c.18.13.38.25.58.34-.17.83-.63 1.58-1.36 2.06C7.15 18.56 7.82 22 10.61 22c3.08 0 4.9-1.47 5.3-3.26l3.87 3.87 1.41-1.41L2.81 2.81z"/></symbol><symbol viewBox="0 0 24 24" id="nest_cam_wired_stand" xmlns="http://www.w3.org/2000/svg"><path fill="none" d="M0 0h24v24H0z"/><path d="m15.83 1.01-4.11.42C8.47 1.75 6 4.48 6 7.75s2.47 6 5.72 6.33l1.9.19-.56.85c-.35-.08-.7-.12-1.06-.12-2.76 0-5 2.24-5 5v2c0 .55.45 1 1 1h8c.55 0 1-.45 1-1v-2c0-1.67-.83-3.15-2.09-4.06l.97-1.45c1.14.07 2.12-.83 2.12-1.99V3c0-1.17-1-2.09-2.17-1.99z"/></symbol><symbol viewBox="0 0 24 24" id="oil_barrel" xmlns="http://www.w3.org/2000/svg"><path fill="none" d="M0 0h24v24H0z"/><path d="M20 13c.55 0 1-.45 1-1s-.45-1-1-1h-1V5h1c.55 0 1-.45 1-1s-.45-1-1-1H4c-.55 0-1 .45-1 1s.45 1 1 1h1v6H4c-.55 0-1 .45-1 1s.45 1 1 1h1v6H4c-.55 0-1 .45-1 1s.45 1 1 1h16c.55 0 1-.45 1-1s-.45-1-1-1h-1v-6h1zm-8 3c-1.66 0-3-1.32-3-2.95 0-1.3.52-1.67 3-4.55 2.47 2.86 3 3.24 3 4.55 0 1.63-1.34 2.95-3 2.95z"/></symbol><symbol viewBox="0 0 24 24" id="propane" xmlns="http://www.w3.org/2000/svg"><path fill="none" d="M0 0h24v24H0z"/><path d="M17 6h-1V5c0-1.1-.9-2-2-2h-4c-1.1 0-2 .9-2 2v1H7c-3.31 0-6 2.69-6 6s2.69 6 6 6v3h2v-3h6v3h2v-3c3.31 0 6-2.69 6-6s-2.69-6-6-6zm-7-1h4v1h-4V5z"/></symbol><symbol viewBox="0 0 24 24" id="propane_tank" xmlns="http://www.w3.org/2000/svg"><path fill="none" d="M0 0h24v24H0z"/><path d="M4 15v3c0 2.21 1.79 4 4 4h8c2.21 0 4-1.79 4-4v-3H4zM20 13v-3c0-1.86-1.28-3.41-3-3.86V4c0-1.1-.9-2-2-2H9c-1.1 0-2 .9-2 2v2.14c-1.72.45-3 2-3 3.86v3h16zM9 4h6v2h-2c0-.55-.45-1-1-1s-1 .45-1 1H9V4z"/></symbol><symbol viewBox="0 0 24 24" id="roller_shades" xmlns="http://www.w3.org/2000/svg"><path fill="none" d="M0 0h24v24H0z"/><path d="M20 19V3H4v16H2v2h20v-2h-2zM6 19v-6h5v1.8c-.4.3-.8.8-.8 1.4 0 1 .8 1.8 1.8 1.8s1.8-.8 1.8-1.8c0-.6-.3-1.1-.8-1.4V13h5v6H6z"/></symbol><symbol viewBox="0 0 24 24" id="roller_shades_closed" xmlns="http://www.w3.org/2000/svg"><path fill="none" d="M0 0h24v24H0z"/><path d="M20 19V3H4v16H2v2h8.25c0 .97.78 1.75 1.75 1.75s1.75-.78 1.75-1.75H22v-2h-2zM6 19v-2h5v2H6zm7 0v-2h5v2h-5z"/></symbol><symbol viewBox="0 0 24 24" id="sensor_door" xmlns="http://www.w3.org/2000/svg"><path fill="none" d="M0 0h24v24H0z"/><path d="M18 2H6c-1.1 0-2 .9-2 2v18h16V4c0-1.1-.9-2-2-2zm-2.5 11.5c-.83 0-1.5-.67-1.5-1.5s.67-1.5 1.5-1.5 1.5.67 1.5 1.5-.67 1.5-1.5 1.5z"/></symbol><symbol viewBox="0 0 24 24" id="sensor_occupied" xmlns="http://www.w3.org/2000/svg"><path fill="none" d="M0 0h24v24H0z"/><path d="M12 11c1.66 0 3-1.34 3-3s-1.34-3-3-3-3 1.34-3 3 1.34 3 3 3zM12 12c-1.84 0-3.56.5-5.03 1.37-.61.35-.97 1.02-.97 1.72V17h12v-1.91c0-.7-.36-1.36-.97-1.72A9.844 9.844 0 0 0 12 12zM21.23 8.15l1.85-.77A12.056 12.056 0 0 0 16.62.92l-.77 1.85c2.42 1.02 4.36 2.96 5.38 5.38zM8.15 2.77 7.38.92A12.089 12.089 0 0 0 .92 7.38l1.85.77c1.02-2.42 2.96-4.36 5.38-5.38zM2.77 15.85l-1.85.77c1.22 2.91 3.55 5.25 6.46 6.46l.77-1.85a10.117 10.117 0 0 1-5.38-5.38zM15.85 21.23l.77 1.85c2.91-1.22 5.25-3.55 6.46-6.46l-1.85-.77a10.117 10.117 0 0 1-5.38 5.38z"/></symbol><symbol viewBox="0 0 24 24" id="sensor_window" xmlns="http://www.w3.org/2000/svg"><path fill="none" d="M0 0h24v24H0z"/><path d="M18 4v16H6V4h12m0-2H6c-1.1 0-2 .9-2 2v16c0 1.1.9 2 2 2h12c1.1 0 2-.9 2-2V4c0-1.1-.9-2-2-2zM7 19h10v-6H7v6zm3-9h4v1h3V5H7v6h3v-1z"/></symbol><symbol viewBox="0 0 24 24" id="shelves" xmlns="http://www.w3.org/2000/svg"><path fill="none" d="M0 0h24v24H0z"/><path d="M19 1v2H5V1H3v22h2v-2h14v2h2V1h-2zm0 4v6h-6V7H7v4H5V5h14zm-2 14v-4h-6v4H5v-6h14v6h-2z"/></symbol><symbol viewBox="0 0 24 24" id="shield_moon" xmlns="http://www.w3.org/2000/svg"><path fill="none" d="M0 0h24v24H0z"/><path d="M12 2 4 5v6.09c0 5.05 3.41 9.76 8 10.91 4.59-1.15 8-5.86 8-10.91V5l-8-3zm3.97 12.41c-1.84 2.17-5.21 2.1-6.96-.07-2.19-2.72-.65-6.72 2.69-7.33.34-.06.63.27.51.6-.46 1.23-.39 2.64.32 3.86a4.51 4.51 0 0 0 3.18 2.2c.34.05.49.47.26.74z"/></symbol><symbol viewBox="0 0 24 24" id="snowing" xmlns="http://www.w3.org/2000/svg"><path fill="none" d="M0 0h24v24H0z"/><path d="M6 12.75a1.25 1.25 0 1 1 0 2.5 1.25 1.25 0 0 1 0-2.5zM4.75 6a1.25 1.25 0 1 0 2.5 0 1.25 1.25 0 0 0-2.5 0zm12 8a1.25 1.25 0 1 0 2.5 0 1.25 1.25 0 0 0-2.5 0zm0-8a1.25 1.25 0 1 0 2.5 0 1.25 1.25 0 0 0-2.5 0zm-9 12a1.25 1.25 0 1 0 2.5 0 1.25 1.25 0 0 0-2.5 0zm0-8a1.25 1.25 0 1 0 2.5 0 1.25 1.25 0 0 0-2.5 0zm3 4a1.25 1.25 0 1 0 2.5 0 1.25 1.25 0 0 0-2.5 0zm0-8a1.25 1.25 0 1 0 2.5 0 1.25 1.25 0 0 0-2.5 0zm3 12a1.25 1.25 0 1 0 2.5 0 1.25 1.25 0 0 0-2.5 0zm0-8a1.25 1.25 0 1 0 2.5 0 1.25 1.25 0 0 0-2.5 0z"/></symbol><symbol viewBox="0 0 24 24" id="solar_power" xmlns="http://www.w3.org/2000/svg"><path fill="none" d="M0 0h24v24H0z"/><path d="M3.33 16H11v-3H4zM13 16h7.67L20 13h-7zM21.11 18H13v4h9zM2 22h9v-4H2.89zM11 8h2v3h-2zM15.764 7.205l1.415-1.414L19.3 7.912l-1.414 1.414zM4.705 7.913 6.826 5.79 8.24 7.206 6.12 9.327zM3 2h3v2H3zM18 2h3v2h-3zM12 7c2.76 0 5-2.24 5-5H7c0 2.76 2.24 5 5 5z"/></symbol><symbol viewBox="0 0 24 24" id="sunny" xmlns="http://www.w3.org/2000/svg"><path fill="none" d="M0 0h24v24H0z"/><path d="M11 4V2c0-.55.45-1 1-1s1 .45 1 1v2c0 .55-.45 1-1 1s-1-.45-1-1zm7.36 3.05 1.41-1.42a.996.996 0 1 0-1.41-1.41l-1.41 1.42a.996.996 0 1 0 1.41 1.41zM22 11h-2c-.55 0-1 .45-1 1s.45 1 1 1h2c.55 0 1-.45 1-1s-.45-1-1-1zm-10 8c-.55 0-1 .45-1 1v2c0 .55.45 1 1 1s1-.45 1-1v-2c0-.55-.45-1-1-1zM5.64 7.05 4.22 5.64c-.39-.39-.39-1.03 0-1.41s1.03-.39 1.41 0l1.41 1.41c.39.39.39 1.03 0 1.41s-1.02.39-1.4 0zm11.31 9.9a.996.996 0 0 0 0 1.41l1.41 1.41c.39.39 1.03.39 1.41 0a.996.996 0 0 0 0-1.41l-1.41-1.41a.996.996 0 0 0-1.41 0zM2 13h2c.55 0 1-.45 1-1s-.45-1-1-1H2c-.55 0-1 .45-1 1s.45 1 1 1zm3.64 6.78 1.41-1.41c.39-.39.39-1.03 0-1.41s-1.03-.39-1.41 0l-1.41 1.41a.996.996 0 0 0 0 1.41c.38.39 1.02.39 1.41 0zM12 6c-3.31 0-6 2.69-6 6s2.69 6 6 6 6-2.69 6-6-2.69-6-6-6z"/></symbol><symbol viewBox="0 0 24 24" id="sunny_snowing" xmlns="http://www.w3.org/2000/svg"><path fill="none" d="M0 0h24v24H0z"/><path d="M13 5h-2V1h2v4zM1 11h4v2H1v-2zm18 2v-2h4v2h-4zm-1.34-5.24-1.41-1.41 2.83-2.83 1.41 1.41-2.83 2.83zM3.51 4.93l1.41-1.41 2.83 2.83-1.41 1.41-2.83-2.83zM4.75 17a1.25 1.25 0 1 0 2.5 0 1.25 1.25 0 0 0-2.5 0zm12 0a1.25 1.25 0 1 0 2.5 0 1.25 1.25 0 0 0-2.5 0zm-9 4a1.25 1.25 0 1 0 2.5 0 1.25 1.25 0 0 0-2.5 0zm3-4a1.25 1.25 0 1 0 2.5 0 1.25 1.25 0 0 0-2.5 0zm3 4a1.25 1.25 0 1 0 2.5 0 1.25 1.25 0 0 0-2.5 0zM17 13v-1c0-2.76-2.24-5-5-5s-5 2.24-5 5v1h10z"/></symbol><symbol viewBox="0 0 24 24" id="vertical_shades" xmlns="http://www.w3.org/2000/svg"><path fill="none" d="M0 0h24v24H0z"/><path d="M20 19V3H4v16H2v2h20v-2h-2zm-10 0V5h4v14h-4z"/></symbol><symbol viewBox="0 0 24 24" id="vertical_shades_closed" xmlns="http://www.w3.org/2000/svg"><path fill="none" d="M0 0h24v24H0z"/><path d="M20 19V3H4v16H2v2h20v-2h-2zM13 5h1.5v14H13V5zm-2 14H9.5V5H11v14zM6 5h1.5v14H6V5zm10.5 14V5H18v14h-1.5z"/></symbol><symbol viewBox="0 0 24 24" id="wind_power" xmlns="http://www.w3.org/2000/svg"><path fill="none" d="M0 0h24v24H0z"/><path d="M4 3h6v2H4zM1 7h5v2H1zM3 19h5v2H3zM13.73 10.61c.75.23 1.3.78 1.57 1.46l4.27-7.11a2.28 2.28 0 0 0-3.51-2.84l-3.43 3.21c-.4.37-.63.9-.63 1.45v3.93c.36-.15.98-.33 1.73-.1zM10.61 12.27c.16-.52.48-.96.89-1.27H3.28a2.279 2.279 0 0 0-.63 4.47l4.51 1.29c.53.15 1.1.08 1.58-.21l2.69-1.61a2.487 2.487 0 0 1-.82-2.67zM22.21 18.61l-2.28-4.1a2.05 2.05 0 0 0-1.26-.97l-3.18-.8c.03.32 0 .66-.1.99A2.478 2.478 0 0 1 13 15.5c-.61 0-.99-.22-1-.22V21c-1.1 0-2 .9-2 2h6c0-1.1-.9-2-2-2v-4.28l4.61 4.61c.89.89 2.33.89 3.22 0 .72-.72.88-1.83.38-2.72z"/><path d="M12.56 14.43c.79.24 1.63-.2 1.87-1 .24-.79-.2-1.63-1-1.87-.79-.24-1.63.2-1.87 1-.24.79.21 1.63 1 1.87z"/></symbol></svg>