<?xml version="1.0" encoding="UTF-8"?><!DOCTYPE svg PUBLIC "-//W3C//DTD SVG 1.1//EN" "http://www.w3.org/Graphics/SVG/1.1/DTD/svg11.dtd"><svg xmlns="http://www.w3.org/2000/svg" xmlns:xlink="http://www.w3.org/1999/xlink"><symbol viewBox="0 0 24 24" id="barrel" xmlns="http://www.w3.org/2000/svg"><path d="M18 19h1v2H5v-2h1v-6H5v-2h1V5H5V3h14v2h-1v6h1v2h-1v6m-9-6a3 3 0 0 0 3 3 3 3 0 0 0 3-3c0-2-3-5.37-3-5.37S9 11 9 13Z"/></symbol><symbol xml:space="preserve" viewBox="0 0 24 24" id="factory" xmlns="http://www.w3.org/2000/svg"><path d="M4 18v2h4v-2H4m0-4v2h10v-2H4m6 4v2h4v-2h-4m6-4v2h4v-2h-4m0 4v2h4v-2h-4M2 22V8l5 4V8l5 4V8l5 4 1-10h3l1 10v10H2z"/><path fill="none" d="M0 0h24v24H0z"/></symbol><symbol viewBox="0 0 24 24" id="flask" xmlns="http://www.w3.org/2000/svg"><path d="M6 22a3 3 0 0 1-3-3c0-.6.18-1.16.5-1.63L9 7.81V6a1 1 0 0 1-1-1V4a2 2 0 0 1 2-2h4a2 2 0 0 1 2 2v1a1 1 0 0 1-1 1v1.81l5.5 9.56c.32.47.5 1.03.5 1.63a3 3 0 0 1-3 3H6m-1-3a1 1 0 0 0 1 1h12a1 1 0 0 0 1-1c0-.21-.07-.41-.18-.57l-2.29-3.96L14 17l-5.07-5.07-3.75 6.5c-.11.16-.18.36-.18.57m8-9a1 1 0 0 0-1 1 1 1 0 0 0 1 1 1 1 0 0 0 1-1 1 1 0 0 0-1-1Z"/></symbol><symbol viewBox="0 0 24 24" id="fuel" xmlns="http://www.w3.org/2000/svg"><path d="M3 2h3c.28 0 .53.11.71.29l2.08 2.09.8-.79C10 3.2 10.5 3 11 3h6c.5 0 1 .2 1.41.59l1 1C19.8 5 20 5.5 20 6v13a2 2 0 0 1-2 2H8a2 2 0 0 1-2-2V8c0-.5.2-1 .59-1.41l.79-.8L5.59 4H3V2m8 3v2h6V5h-6m.41 6-2-2H8v1.41l2 2v3.18l-2 2V19h1.41l2-2h3.18l2 2H18v-1.41l-2-2v-3.18l2-2V9h-1.41l-2 2h-3.18m.59 2h2v2h-2v-2Z"/></symbol><symbol viewBox="0 0 24 24" id="gas_cylinder" xmlns="http://www.w3.org/2000/svg"><path d="M16 9v11a2 2 0 0 1-2 2h-4a2 2 0 0 1-2-2V9c0-1.86 1.27-3.43 3-3.87V4H9V2h6v2h-2v1.13c1.73.44 3 2.01 3 3.87Z"/></symbol></svg>