<?xml version="1.0" encoding="utf-8"?><svg xmlns="http://www.w3.org/2000/svg" xmlns:xlink="http://www.w3.org/1999/xlink"><symbol viewBox="0 0 24 24" id="ceiling_light" xmlns="http://www.w3.org/2000/svg"><path d="M8 9h3V4h2v5h3l4 8H4Zm6 9a2 2 0 0 1-4 0Z"/></symbol><symbol viewBox="0 0 24 24" id="dimmer" xmlns="http://www.w3.org/2000/svg"><path d="M15 14H9v-2h2V5h2v7h2Zm-4 5h2v-4h-2Zm8-16v18a2 2 0 0 1-2 2H7a2 2 0 0 1-2-2V3a2 2 0 0 1 2-2h10a2 2 0 0 1 2 2Zm-2 0H7v18h10Z" fill-rule="evenodd"/><path fill="none" d="M0 0h24v24H0z"/></symbol><symbol viewBox="0 0 24 24" id="ephesus_fixture" xmlns="http://www.w3.org/2000/svg"><path fill="none" d="M0 0h24v24H0z"/><path d="M20.27 7.52c-1.65-1.35-4.37-1.83-6.27-2-.9-.08-1.61-.1-1.94-.1h-.12c-1 0-5.77.11-8.21 2.1 0 0-1.73 1.25-1.73 4.87s1.53 4.95 1.53 4.95 1 1.05 4.07 1.66l.87.15h.07l.88.11h.18l.9.07h3l.9-.07h.18l.88-.11h.07l.87-.15c3.08-.61 4.07-1.66 4.07-1.66S22 16 22 12.39s-1.73-4.87-1.73-4.87ZM6 17a2 2 0 1 1 2-2 2 2 0 0 1-2 2Zm0-5a2 2 0 1 1 2-2 2 2 0 0 1-2 2Zm6 6a2 2 0 1 1 2-2 2 2 0 0 1-2 2Zm0-7a2 2 0 1 1 2-2 2 2 0 0 1-2 2Zm6 6a2 2 0 1 1 2-2 2 2 0 0 1-2 2Zm0-5a2 2 0 1 1 2-2 2 2 0 0 1-2 2ZM16 3a1 1 0 0 0-2 0v1.51c.61 0 1.29.13 2 .26ZM5.82 19.59 6.56 21a2 2 0 0 0 1.75 1h7.38a2 2 0 0 0 1.75-1l.74-1.36a22.42 22.42 0 0 1-6.19.83 22.31 22.31 0 0 1-6.17-.88Z"/></symbol><symbol viewBox="0 0 24 24" id="ephesus_gateway" xmlns="http://www.w3.org/2000/svg"><path fill="none" d="M0 0h24v24H0z"/><path d="M18 2H6a2 2 0 0 0-2 2v16a2 2 0 0 0 2 2h12a2 2 0 0 0 2-2V4a2 2 0 0 0-2-2ZM8.78 3l.62 1a3 3 0 0 0 5.2 0l.62-1h1.16l-.92 1.54a4 4 0 0 1-6.92 0L7.62 3Zm4.93 9.52-1.37.88a.64.64 0 0 1-.68 0l-1.37-.88a.61.61 0 0 1 0-1l1.37-.88a.64.64 0 0 1 .68 0l1.37.88a.61.61 0 0 1 0 1ZM5 18.71v-1.42l1.61-1.61a3 3 0 0 0 .89-2.14V9.7a3 3 0 0 0-1.14-2.37L5 6.24V5l2 1.55A4 4 0 0 1 8.5 9.7v3.84a4 4 0 0 1-1.18 2.85ZM15.22 21l-.62-1a3 3 0 0 0-5.2 0l-.62 1H7.62l.92-1.54a4 4 0 0 1 6.92 0l.92 1.54ZM19 6.24l-1.36 1.09A3 3 0 0 0 16.5 9.7v3.84a3 3 0 0 0 .89 2.14L19 17.29v1.42l-2.32-2.32a4 4 0 0 1-1.18-2.85V9.7A4 4 0 0 1 17 6.55L19 5Z"/></symbol><symbol viewBox="0 0 24 24" id="light_bulb" xmlns="http://www.w3.org/2000/svg"><path d="M12 2a7 7 0 0 0-4 12.74V17a1 1 0 0 0 1 1h6a1 1 0 0 0 1-1v-2.26A7 7 0 0 0 12 2ZM9 21a1 1 0 0 0 1 1h4a1 1 0 0 0 1-1v-1H9Z"/></symbol><symbol viewBox="0 0 24 24" id="light_switch" xmlns="http://www.w3.org/2000/svg"><path d="M18.41 1.59A2 2 0 0 0 17 1H7a2 2 0 0 0-2 2v18a2 2 0 0 0 2 2h10a2 2 0 0 0 2-2V3a2 2 0 0 0-.59-1.41ZM17 21H7V3h10Z"/><path d="M15 6H9v12h6Zm-2 10h-2v-3h2Zm0-5h-2V8h2Z"/></symbol><symbol viewBox="0 0 24 24" id="outlet" xmlns="http://www.w3.org/2000/svg"><path d="M8 7h2v5H8ZM4.22 2h15.56A2.23 2.23 0 0 1 22 4.22v15.56A2.22 2.22 0 0 1 19.78 22H4.22A2.23 2.23 0 0 1 2 19.78V4.22A2.22 2.22 0 0 1 4.22 2ZM12 4a8 8 0 1 0 5.66 2.34A8 8 0 0 0 12 4Zm2 3.5h2v4h-2Zm-3.5 8.75a1.5 1.5 0 0 1 3 0V17h-3Z"/></symbol></svg>