<?xml version="1.0" encoding="utf-8"?><svg xmlns="http://www.w3.org/2000/svg" xmlns:xlink="http://www.w3.org/1999/xlink"><symbol viewBox="0 0 24 24" id="add_home_work" xmlns="http://www.w3.org/2000/svg"><path fill="none" d="M0 0h24v24H0z"/><path d="M15 11.68V11L8 6l-7 5v10h5v-6h4v6h1.68c-.43-.91-.68-1.92-.68-3 0-2.79 1.64-5.19 4-6.32zM23 13.11V3H10v1.97l7 5v1.11c.33-.05.66-.08 1-.08 1.96 0 3.73.81 5 2.11zM17 7h2v2h-2V7z"/><path d="M23 18c0-2.76-2.24-5-5-5s-5 2.24-5 5 2.24 5 5 5 5-2.24 5-5zm-5.5 3v-2.5H15v-1h2.5V15h1v2.5H21v1h-2.5V21h-1z"/></symbol><symbol viewBox="0 0 24 24" id="app_settings_alt" xmlns="http://www.w3.org/2000/svg"><path d="M0 0h24v24H0z" fill="none"/><path d="m21.81 12.74-.82-.63v-.22l.8-.63c.16-.12.2-.34.1-.51l-.85-1.48a.395.395 0 0 0-.35-.2c-.05 0-.1.01-.15.03l-.95.38c-.08-.05-.11-.07-.19-.11l-.15-1.01a.408.408 0 0 0-.4-.36h-1.71c-.2 0-.37.15-.4.34l-.14 1.01c-.03.02-.07.03-.1.05l-.09.06-.95-.38a.401.401 0 0 0-.5.17l-.85 1.48c-.1.17-.06.39.1.51l.8.63v.23l-.8.63a.39.39 0 0 0-.1.51l.85 1.48c.07.13.21.2.35.2.05 0 .1-.01.15-.03l.95-.37c.08.05.12.07.2.11l.15 1.01c.03.2.2.34.4.34h1.71c.2 0 .37-.15.4-.34l.15-1.01c.03-.02.07-.03.1-.05l.09-.06.95.38a.401.401 0 0 0 .5-.17l.85-1.48a.39.39 0 0 0-.1-.51zM18 13.5c-.83 0-1.5-.67-1.5-1.5s.67-1.5 1.5-1.5 1.5.67 1.5 1.5-.67 1.5-1.5 1.5zM17 17h2v4c0 1.1-.9 2-2 2H7c-1.1 0-2-.9-2-2V3c0-1.1.9-2 2-2h10c1.1 0 2 .9 2 2v4h-2V6H7v12h10v-1z"/></symbol><symbol viewBox="0 0 24 24" id="apps" xmlns="http://www.w3.org/2000/svg"><path d="M0 0h24v24H0z" fill="none"/><path d="M4 8h4V4H4v4zm6 12h4v-4h-4v4zm-6 0h4v-4H4v4zm0-6h4v-4H4v4zm6 0h4v-4h-4v4zm6-10v4h4V4h-4zm-6 4h4V4h-4v4zm6 6h4v-4h-4v4zm0 6h4v-4h-4v4z"/></symbol><symbol viewBox="0 0 24 24" id="apps_outage" xmlns="http://www.w3.org/2000/svg"><path fill="none" d="M0 0h24v24H0z"/><path d="M4 8h4V4H4v4zm6 12h4v-4h-4v4zm-6 0h4v-4H4v4zm0-6h4v-4H4v4zm6 0h4v-4h-4v4zm6 6h4v-4h-4v4zm3-20c-2.76 0-5 2.24-5 5s2.24 5 5 5 5-2.24 5-5-2.24-5-5-5zm.5 8h-1V7h1v1zm0-2h-1V2h1v4zM16 14h4v-2.07c-.33.05-.66.07-1 .07-1.07 0-2.09-.24-3-.68V14zM10 4v4h2.68c-.44-.91-.68-1.93-.68-3 0-.34.02-.67.07-1H10z"/></symbol><symbol viewBox="0 0 24 24" id="arrow_back" xmlns="http://www.w3.org/2000/svg"><path d="M0 0h24v24H0z" fill="none"/><path d="M20 11H7.83l5.59-5.59L12 4l-8 8 8 8 1.41-1.41L7.83 13H20v-2z"/></symbol><symbol viewBox="0 0 24 24" id="arrow_back_ios" xmlns="http://www.w3.org/2000/svg"><path d="M0 0h24v24H0z" fill="none"/><path d="M11.67 3.87 9.9 2.1 0 12l9.9 9.9 1.77-1.77L3.54 12z"/></symbol><symbol viewBox="0 0 24 24" id="arrow_back_ios_new" xmlns="http://www.w3.org/2000/svg"><path fill="none" d="M0 0h24v24H0z"/><path d="M17.77 3.77 16 2 6 12l10 10 1.77-1.77L9.54 12z"/></symbol><symbol viewBox="0 0 24 24" id="arrow_downward" xmlns="http://www.w3.org/2000/svg"><path d="M0 0h24v24H0V0z" fill="none"/><path d="m20 12-1.41-1.41L13 16.17V4h-2v12.17l-5.58-5.59L4 12l8 8 8-8z"/></symbol><symbol viewBox="0 0 24 24" id="arrow_drop_down" xmlns="http://www.w3.org/2000/svg"><path d="M0 0h24v24H0z" fill="none"/><path d="m7 10 5 5 5-5z"/></symbol><symbol viewBox="0 0 24 24" id="arrow_drop_down_circle" xmlns="http://www.w3.org/2000/svg"><path d="M0 0h24v24H0z" fill="none"/><path d="M12 2C6.48 2 2 6.48 2 12s4.48 10 10 10 10-4.48 10-10S17.52 2 12 2zm0 12-4-4h8l-4 4z"/></symbol><symbol viewBox="0 0 24 24" id="arrow_drop_up" xmlns="http://www.w3.org/2000/svg"><path d="M0 0h24v24H0z" fill="none"/><path d="m7 14 5-5 5 5z"/></symbol><symbol viewBox="0 0 24 24" id="arrow_forward" xmlns="http://www.w3.org/2000/svg"><path d="M0 0h24v24H0z" fill="none"/><path d="m12 4-1.41 1.41L16.17 11H4v2h12.17l-5.58 5.59L12 20l8-8z"/></symbol><symbol viewBox="0 0 24 24" id="arrow_forward_ios" xmlns="http://www.w3.org/2000/svg"><path d="M0 0h24v24H0V0z" fill="none"/><path d="M6.23 20.23 8 22l10-10L8 2 6.23 3.77 14.46 12z"/></symbol><symbol viewBox="0 0 24 24" id="arrow_left" xmlns="http://www.w3.org/2000/svg"><path d="m14 7-5 5 5 5V7z"/><path d="M24 0v24H0V0h24z" fill="none"/></symbol><symbol viewBox="0 0 24 24" id="arrow_right" xmlns="http://www.w3.org/2000/svg"><path d="m10 17 5-5-5-5v10z"/><path d="M0 24V0h24v24H0z" fill="none"/></symbol><symbol viewBox="0 0 24 24" id="arrow_upward" xmlns="http://www.w3.org/2000/svg"><path d="M0 0h24v24H0V0z" fill="none"/><path d="m4 12 1.41 1.41L11 7.83V20h2V7.83l5.58 5.59L20 12l-8-8-8 8z"/></symbol><symbol viewBox="0 0 24 24" id="assistant_direction" xmlns="http://www.w3.org/2000/svg"><path d="M0 0h24v24H0V0z" fill="none"/><path d="M14 10H9c-.6 0-1 .4-1 1v4h2v-3h4v2.5l3.5-3.5L14 7.5V10zm-2-9C5.9 1 1 5.9 1 12s4.9 11 11 11 11-4.9 11-11S18.1 1 12 1zm7.73 11.58-7.19 7.22c-.35.27-.79.27-1.15 0L4.2 12.58a.932.932 0 0 1 0-1.16l7.19-7.22c.35-.27.79-.27 1.15 0l7.19 7.22c.36.27.36.8 0 1.16z"/></symbol><symbol viewBox="0 0 24 24" id="assistant_navigation" xmlns="http://www.w3.org/2000/svg"><path d="M0 0h24v24H0V0z" fill="none"/><path d="M12 1C5.93 1 1 5.93 1 12s4.93 11 11 11 11-4.93 11-11S18.07 1 12 1zm3.57 16L12 15.42 8.43 17l-.37-.37L12 7l3.95 9.63-.38.37z"/></symbol><symbol viewBox="0 0 24 24" id="campaign" xmlns="http://www.w3.org/2000/svg"><path d="M0 0h24v24H0z" fill="none"/><path d="M18 11v2h4v-2h-4zm-2 6.61c.96.71 2.21 1.65 3.2 2.39.4-.53.8-1.07 1.2-1.6-.99-.74-2.24-1.68-3.2-2.4-.4.54-.8 1.08-1.2 1.61zM20.4 5.6c-.4-.53-.8-1.07-1.2-1.6-.99.74-2.24 1.68-3.2 2.4.4.53.8 1.07 1.2 1.6.96-.72 2.21-1.65 3.2-2.4zM4 9c-1.1 0-2 .9-2 2v2c0 1.1.9 2 2 2h1v4h2v-4h1l5 3V6L8 9H4zm11.5 3c0-1.33-.58-2.53-1.5-3.35v6.69c.92-.81 1.5-2.01 1.5-3.34z"/></symbol><symbol viewBox="0 0 24 24" id="cancel" xmlns="http://www.w3.org/2000/svg"><path d="M0 0h24v24H0z" fill="none"/><path d="M12 2C6.47 2 2 6.47 2 12s4.47 10 10 10 10-4.47 10-10S17.53 2 12 2zm5 13.59L15.59 17 12 13.41 8.41 17 7 15.59 10.59 12 7 8.41 8.41 7 12 10.59 15.59 7 17 8.41 13.41 12 17 15.59z"/></symbol><symbol viewBox="0 0 24 24" id="check" xmlns="http://www.w3.org/2000/svg"><path d="M0 0h24v24H0z" fill="none"/><path d="M9 16.17 4.83 12l-1.42 1.41L9 19 21 7l-1.41-1.41z"/></symbol><symbol viewBox="0 0 24 24" id="chevron_left" xmlns="http://www.w3.org/2000/svg"><path d="M0 0h24v24H0z" fill="none"/><path d="M15.41 7.41 14 6l-6 6 6 6 1.41-1.41L10.83 12z"/></symbol><symbol viewBox="0 0 24 24" id="chevron_right" xmlns="http://www.w3.org/2000/svg"><path d="M0 0h24v24H0z" fill="none"/><path d="M10 6 8.59 7.41 13.17 12l-4.58 4.59L10 18l6-6z"/></symbol><symbol viewBox="0 0 24 24" id="close" xmlns="http://www.w3.org/2000/svg"><path d="M0 0h24v24H0z" fill="none"/><path d="M19 6.41 17.59 5 12 10.59 6.41 5 5 6.41 10.59 12 5 17.59 6.41 19 12 13.41 17.59 19 19 17.59 13.41 12z"/></symbol><symbol viewBox="0 0 24 24" id="double_arrow" xmlns="http://www.w3.org/2000/svg"><path fill="none" d="M0 0h24v24H0z"/><path d="M15.5 5H11l5 7-5 7h4.5l5-7z"/><path d="M8.5 5H4l5 7-5 7h4.5l5-7z"/></symbol><symbol viewBox="0 0 24 24" id="east" xmlns="http://www.w3.org/2000/svg"><path fill="none" d="M0 0h24v24H0z"/><path d="m15 5-1.41 1.41L18.17 11H2v2h16.17l-4.59 4.59L15 19l7-7-7-7z"/></symbol><symbol viewBox="0 0 24 24" id="expand_circle_down" xmlns="http://www.w3.org/2000/svg"><path fill="none" d="M0 0h24v24H0z"/><path d="M12 2C6.48 2 2 6.48 2 12s4.48 10 10 10 10-4.48 10-10S17.52 2 12 2zm0 13.5L7.5 11l1.42-1.41L12 12.67l3.08-3.08L16.5 11 12 15.5z"/></symbol><symbol viewBox="0 0 24 24" id="expand_less" xmlns="http://www.w3.org/2000/svg"><path d="M0 0h24v24H0z" fill="none"/><path d="m12 8-6 6 1.41 1.41L12 10.83l4.59 4.58L18 14z"/></symbol><symbol viewBox="0 0 24 24" id="expand_more" xmlns="http://www.w3.org/2000/svg"><path d="M0 0h24v24H0z" fill="none"/><path d="M16.59 8.59 12 13.17 7.41 8.59 6 10l6 6 6-6z"/></symbol><symbol viewBox="0 0 24 24" id="first_page" xmlns="http://www.w3.org/2000/svg"><path d="M18.41 16.59 13.82 12l4.59-4.59L17 6l-6 6 6 6zM6 6h2v12H6z"/><path d="M24 24H0V0h24v24z" fill="none"/></symbol><symbol viewBox="0 0 24 24" id="fullscreen" xmlns="http://www.w3.org/2000/svg"><path d="M0 0h24v24H0z" fill="none"/><path d="M7 14H5v5h5v-2H7v-3zm-2-4h2V7h3V5H5v5zm12 7h-3v2h5v-5h-2v3zM14 5v2h3v3h2V5h-5z"/></symbol><symbol viewBox="0 0 24 24" id="fullscreen_exit" xmlns="http://www.w3.org/2000/svg"><path d="M0 0h24v24H0z" fill="none"/><path d="M5 16h3v3h2v-5H5v2zm3-8H5v2h5V5H8v3zm6 11h2v-3h3v-2h-5v5zm2-11V5h-2v5h5V8h-3z"/></symbol><symbol viewBox="0 0 24 24" id="home_work" xmlns="http://www.w3.org/2000/svg"><path fill="none" d="M0 0h24v24H0z"/><path d="M1 11v10h5v-6h4v6h5V11L8 6z"/><path d="M10 3v1.97l7 5V11h2v2h-2v2h2v2h-2v4h6V3H10zm9 6h-2V7h2v2z"/></symbol><symbol viewBox="0 0 24 24" id="last_page" xmlns="http://www.w3.org/2000/svg"><path d="M0 0h24v24H0V0z" fill="none"/><path d="M5.59 7.41 10.18 12l-4.59 4.59L7 18l6-6-6-6zM16 6h2v12h-2z"/></symbol><symbol viewBox="0 0 24 24" id="legend_toggle" xmlns="http://www.w3.org/2000/svg"><path fill="none" d="M0 0h24v24H0z"/><path d="M20 15H4v-2h16v2zm0 2H4v2h16v-2zm-5-6 5-3.55V5l-5 3.55L10 5 4 8.66V11l5.92-3.61L15 11z"/></symbol><symbol viewBox="0 0 24 24" id="maps_home_work" xmlns="http://www.w3.org/2000/svg"><path d="M0 0h24v24H0V0z" fill="none"/><path d="M1 11v10h5v-6h4v6h5V11L8 6z"/><path d="M10 3v1.97l7 5V11h2v2h-2v2h2v2h-2v4h6V3H10zm9 6h-2V7h2v2z"/></symbol><symbol viewBox="0 0 24 24" id="menu" xmlns="http://www.w3.org/2000/svg"><path d="M0 0h24v24H0z" fill="none"/><path d="M3 18h18v-2H3v2zm0-5h18v-2H3v2zm0-7v2h18V6H3z"/></symbol><symbol viewBox="0 0 24 24" id="menu_open" xmlns="http://www.w3.org/2000/svg"><path d="M0 0h24v24H0V0z" fill="none"/><path d="M3 18h13v-2H3v2zm0-5h10v-2H3v2zm0-7v2h13V6H3zm18 9.59L17.42 12 21 8.41 19.59 7l-5 5 5 5L21 15.59z"/></symbol><symbol viewBox="0 0 24 24" id="more_horiz" xmlns="http://www.w3.org/2000/svg"><path d="M0 0h24v24H0z" fill="none"/><path d="M6 10c-1.1 0-2 .9-2 2s.9 2 2 2 2-.9 2-2-.9-2-2-2zm12 0c-1.1 0-2 .9-2 2s.9 2 2 2 2-.9 2-2-.9-2-2-2zm-6 0c-1.1 0-2 .9-2 2s.9 2 2 2 2-.9 2-2-.9-2-2-2z"/></symbol><symbol viewBox="0 0 24 24" id="more_vert" xmlns="http://www.w3.org/2000/svg"><path d="M0 0h24v24H0z" fill="none"/><path d="M12 8c1.1 0 2-.9 2-2s-.9-2-2-2-2 .9-2 2 .9 2 2 2zm0 2c-1.1 0-2 .9-2 2s.9 2 2 2 2-.9 2-2-.9-2-2-2zm0 6c-1.1 0-2 .9-2 2s.9 2 2 2 2-.9 2-2-.9-2-2-2z"/></symbol><symbol viewBox="0 0 24 24" id="north" xmlns="http://www.w3.org/2000/svg"><path fill="none" d="M0 0h24v24H0z"/><path d="m5 9 1.41 1.41L11 5.83V22h2V5.83l4.59 4.59L19 9l-7-7-7 7z"/></symbol><symbol viewBox="0 0 24 24" id="north_east" xmlns="http://www.w3.org/2000/svg"><path fill="none" d="M0 0h24v24H0z"/><path d="M9 5v2h6.59L4 18.59 5.41 20 17 8.41V15h2V5H9z"/></symbol><symbol viewBox="0 0 24 24" id="north_west" xmlns="http://www.w3.org/2000/svg"><path fill="none" d="M0 0h24v24H0z"/><path d="M5 15h2V8.41L18.59 20 20 18.59 8.41 7H15V5H5v10z"/></symbol><symbol viewBox="0 0 24 24" id="offline_share" xmlns="http://www.w3.org/2000/svg"><path d="M0 0h24v24H0z" fill="none"/><path d="M14.6 10.26v1.31L17 9.33 14.6 7.1v1.28c-2.33.32-3.26 1.92-3.6 3.52.83-1.13 1.93-1.64 3.6-1.64zM16 23H6c-1.1 0-2-.9-2-2V5h2v16h10v2zm2-22h-8c-1.1 0-2 .9-2 2v14c0 1.1.9 2 2 2h8c1.1 0 2-.9 2-2V3c0-1.1-.9-2-2-2zm0 15h-8V4h8v12z"/></symbol><symbol viewBox="0 0 24 24" id="payments" xmlns="http://www.w3.org/2000/svg"><path d="M0 0h24v24H0z" fill="none"/><path d="M19 14V6c0-1.1-.9-2-2-2H3c-1.1 0-2 .9-2 2v8c0 1.1.9 2 2 2h14c1.1 0 2-.9 2-2zm-9-1c-1.66 0-3-1.34-3-3s1.34-3 3-3 3 1.34 3 3-1.34 3-3 3zm13-6v11c0 1.1-.9 2-2 2H4v-2h17V7h2z"/></symbol><symbol viewBox="0 0 24 24" id="pivot_table_chart" xmlns="http://www.w3.org/2000/svg"><path d="M0 0h24v24H0z" fill="none"/><path d="M10 8h11V5c0-1.1-.9-2-2-2h-9v5zM3 8h5V3H5c-1.1 0-2 .9-2 2v3zm2 13h3V10H3v9c0 1.1.9 2 2 2zm8 1-4-4 4-4zm1-9 4-4 4 4zM14.58 19H13v-2h1.58c1.33 0 2.42-1.08 2.42-2.42V13h2v1.58c0 2.44-1.98 4.42-4.42 4.42z"/></symbol><symbol viewBox="0 0 24 24" id="refresh" xmlns="http://www.w3.org/2000/svg"><path d="M0 0h24v24H0z" fill="none"/><path d="M17.65 6.35A7.958 7.958 0 0 0 12 4c-4.42 0-7.99 3.58-7.99 8s3.57 8 7.99 8c3.73 0 6.84-2.55 7.73-6h-2.08A5.99 5.99 0 0 1 12 18c-3.31 0-6-2.69-6-6s2.69-6 6-6c1.66 0 3.14.69 4.22 1.78L13 11h7V4l-2.35 2.35z"/></symbol><symbol viewBox="0 0 24 24" id="south" xmlns="http://www.w3.org/2000/svg"><path fill="none" d="M0 0h24v24H0z"/><path d="m19 15-1.41-1.41L13 18.17V2h-2v16.17l-4.59-4.59L5 15l7 7 7-7z"/></symbol><symbol viewBox="0 0 24 24" id="south_east" xmlns="http://www.w3.org/2000/svg"><path fill="none" d="M0 0h24v24H0z"/><path d="M19 9h-2v6.59L5.41 4 4 5.41 15.59 17H9v2h10V9z"/></symbol><symbol viewBox="0 0 24 24" id="south_west" xmlns="http://www.w3.org/2000/svg"><path fill="none" d="M0 0h24v24H0z"/><path d="M15 19v-2H8.41L20 5.41 18.59 4 7 15.59V9H5v10h10z"/></symbol><symbol viewBox="0 0 24 24" id="subdirectory_arrow_left" xmlns="http://www.w3.org/2000/svg"><path d="M0 0h24v24H0V0z" fill="none"/><path d="m11 9 1.42 1.42L8.83 14H18V4h2v12H8.83l3.59 3.58L11 21l-6-6 6-6z"/></symbol><symbol viewBox="0 0 24 24" id="subdirectory_arrow_right" xmlns="http://www.w3.org/2000/svg"><path d="M0 0h24v24H0V0z" fill="none"/><path d="m19 15-6 6-1.42-1.42L15.17 16H4V4h2v10h9.17l-3.59-3.58L13 9l6 6z"/></symbol><symbol viewBox="0 0 24 24" id="switch_left" xmlns="http://www.w3.org/2000/svg"><path fill="none" d="M0 0h24v24H0z"/><path d="M8.5 8.62v6.76L5.12 12 8.5 8.62M10 5l-7 7 7 7V5zm4 0v14l7-7-7-7z"/></symbol><symbol viewBox="0 0 24 24" id="switch_right" xmlns="http://www.w3.org/2000/svg"><path fill="none" d="M24 24H0V0h24z"/><path d="M15.5 15.38V8.62L18.88 12l-3.38 3.38M14 19l7-7-7-7v14zm-4 0V5l-7 7 7 7z"/></symbol><symbol viewBox="0 0 24 24" id="unfold_less" xmlns="http://www.w3.org/2000/svg"><path d="M0 0h24v24H0z" fill="none"/><path d="M7.41 18.59 8.83 20 12 16.83 15.17 20l1.41-1.41L12 14l-4.59 4.59zm9.18-13.18L15.17 4 12 7.17 8.83 4 7.41 5.41 12 10l4.59-4.59z"/></symbol><symbol viewBox="0 0 24 24" id="unfold_more" xmlns="http://www.w3.org/2000/svg"><path d="M0 0h24v24H0z" fill="none"/><path d="M12 5.83 15.17 9l1.41-1.41L12 3 7.41 7.59 8.83 9 12 5.83zm0 12.34L8.83 15l-1.41 1.41L12 21l4.59-4.59L15.17 15 12 18.17z"/></symbol><symbol viewBox="0 0 24 24" id="waterfall_chart" xmlns="http://www.w3.org/2000/svg"><path d="M0 0h24v24H0z" fill="none"/><path d="M18 4h3v16h-3zM3 13h3v7H3zm11-9h3v3h-3zm-4 1h3v4h-3zm-3 5h3v4H7z"/></symbol><symbol viewBox="0 0 24 24" id="west" xmlns="http://www.w3.org/2000/svg"><path fill="none" d="M0 0h24v24H0z"/><path d="m9 19 1.41-1.41L5.83 13H22v-2H5.83l4.59-4.59L9 5l-7 7 7 7z"/></symbol></svg>