<?xml version="1.0" encoding="utf-8"?><!DOCTYPE svg PUBLIC "-//W3C//DTD SVG 1.1//EN" "http://www.w3.org/Graphics/SVG/1.1/DTD/svg11.dtd"><svg xmlns="http://www.w3.org/2000/svg" xmlns:xlink="http://www.w3.org/1999/xlink"><symbol viewBox="0 0 24 24" id="arc_rated_hood" xmlns="http://www.w3.org/2000/svg"><path d="M1.94 15.63 2 19a3 3 0 0 0 3 3h.27v-2.93A8.49 8.49 0 0 0 3.56 14a1.619 1.619 0 0 0-1.62 1.63ZM20.38 14a8.489 8.489 0 0 0-1.69 5.07V22H19a3 3 0 0 0 3-3v-3.39A1.62 1.62 0 0 0 20.38 14ZM19.43 11.36a23.908 23.908 0 0 1-.49-4.77v-.25A4.34 4.34 0 0 0 14.6 2H9.34A4.34 4.34 0 0 0 5 6.34v.25a23.19 23.19 0 0 1-.49 4.77l-.23 1.1.48.64a10 10 0 0 1 2 6V22h10.43v-2.93a10 10 0 0 1 2-6l.48-.64-.24-1.07Zm-3.13.8-.35.07c-1.302.25-2.624.378-3.95.38a21.064 21.064 0 0 1-3.95-.38l-.35-.07A1 1 0 0 1 7 11l.62-4.35a.59.59 0 0 1 .67-.55 16 16 0 0 0 3.7.43 16 16 0 0 0 3.7-.43.59.59 0 0 1 .67.55L17 11a1 1 0 0 1-.7 1.16Z"/></symbol><symbol viewBox="0 0 24 24" id="arc_rated_suit" xmlns="http://www.w3.org/2000/svg"><path d="M12 2H9.25a1.33 1.33 0 0 0-.87.35L1.75 9l1.78 1.76L8 6.26V22h3v-9h2v9h3V6.26l4.47 4.49L22.25 9l-6.63-6.65a1.31 1.31 0 0 0-.87-.35H12Z"/></symbol><symbol viewBox="0 0 24 24" id="balaclava" xmlns="http://www.w3.org/2000/svg"><path d="M19.71 19.75A101.716 101.716 0 0 1 19 9 7 7 0 0 0 5 9a101.732 101.732 0 0 1-.71 10.75 2 2 0 0 0 2 2.25h11.43a2 2 0 0 0 1.99-2.25ZM12 14c-2.76 0-5-1.34-5-3s2.24-3 5-3 5 1.34 5 3-2.24 3-5 3Z"/></symbol><symbol viewBox="0 0 24 24" id="blast" xmlns="http://www.w3.org/2000/svg"><path d="M6.21 21C4.57 19.83 2.68 18.66 1 17.49l-1-.71 5.46-1.85-2.73-7.2 6.39 2.68L11 3l3.78 7.44 7.63-3.75L18.72 15 24 16.71 18.92 21l-1-1.16 2.88-2.46-4.23-1.44c.85-1.87 2.69-5.82 2.69-5.82l-5.14 2.47-2.58-5-1.31 5-4.7-1.92 2 5.29-4 1.31 3.39 2.39c-.26.47-.43.92-.67 1.37L6.21 21Z"/><path d="M8.16 21h8.2l-2-1.67c.9-.48 1.82-1.09 2.68-1.54h-2.78l1.5-3.83-3.12 2.24c-.29-1.49-.54-2.85-.8-4.21-.21 1.36-.63 3.87-.63 3.87l-2.57-1.93s1.13 2.63 1.64 3.92h-3l2.92 1.52L8.16 21Z"/></symbol><symbol viewBox="0 0 24 24" id="double_triangle" xmlns="http://www.w3.org/2000/svg"><path d="M20.5 16 12 1 3.5 16h3.97L3.5 23h17l-3.97-7h3.97ZM17 21H7l2.78-5L12 12l2.22 4L17 21ZM12 8l-3.4 6H7l5-9 5 9h-1.6L12 8Z"/></symbol><symbol viewBox="0 0 24 24" id="glass_divider" xmlns="http://www.w3.org/2000/svg"><path d="M4 20V4a2 2 0 0 1 2-2h12a2 2 0 0 1 2 2v16a2 2 0 0 1-2 2H6a2 2 0 0 1-2-2M18 4H6v16h12Z"/><path d="m7.77 9.91 3.24-3.25 1.06 1.06-3.24 3.25-1.06-1.06M8.184 14.24l5.664-5.663 1.06 1.06-5.663 5.665z"/><path fill="none" d="M24 0v24H0V0z"/></symbol><symbol viewBox="0 0 24 24" id="glasses" xmlns="http://www.w3.org/2000/svg"><path d="M3 10c-.24 0-.45.09-.59.25-.14.15-.2.37-.17.61l.5 2.99C2.82 14.5 3.4 15 4 15h3c.64 0 1.36-.56 1.5-1.18l1.06-3.19c.04-.13.01-.32-.06-.44-.11-.12-.28-.19-.5-.19H3m4 7H4C2.38 17 .96 15.74.76 14.14l-.5-2.99C.15 10.3.39 9.5.91 8.92 1.43 8.34 2.19 8 3 8h6c.83 0 1.58.35 2.06.96.11.15.21.31.29.49.43-.09.87-.09 1.29 0 .08-.18.18-.34.3-.49C13.41 8.35 14.16 8 15 8h6c.81 0 1.57.34 2.09.92.51.58.75 1.38.65 2.19l-.51 3.07C23.04 15.74 21.61 17 20 17h-3c-1.56 0-3.08-1.19-3.46-2.7l-.9-2.71c-.38-.28-.91-.28-1.29 0l-.92 2.78C10.07 15.82 8.56 17 7 17m8-7c-.22 0-.39.07-.5.19-.08.12-.1.31-.05.51l1.01 3.05c.18.69.9 1.25 1.54 1.25h3c.59 0 1.18-.5 1.25-1.11l.51-3.07c.03-.2-.03-.42-.17-.57A.769.769 0 0 0 21 10h-6Z"/></symbol><symbol viewBox="0 0 24 24" id="glove" xmlns="http://www.w3.org/2000/svg"><path d="M12.997 2a1 1 0 1 0-2 0v9h-1V4a1 1 0 0 0-2 0v9.5h-.5c-.333-1-1.1-3.1-1.5-3.5-.5-.5-1-.5-1.5-.5s-1 .5-.5 1.5c.294.81.64 1.918.97 2.972.417 1.334.807 2.581 1.03 3.028.4.8 1.5 2 2 2.5V22a1 1 0 0 0 1 1h6a2 2 0 0 0 2-2v-1H12v-1h4.997c1-.5 2-2 2-6V6a1 1 0 1 0-2 0v5h-1V3a1 1 0 1 0-2 0v8h-1V2Z"/></symbol><symbol viewBox="0 0 24 24" id="glove_alt" xmlns="http://www.w3.org/2000/svg"><path d="M11 2a1 1 0 1 1 2 0v9h1V4a1 1 0 1 1 2 0v9.5h.5c.333-1 1.1-3.1 1.5-3.5.5-.5 1-.5 1.5-.5s1 .5.5 1.5c-.294.81-.64 1.918-.97 2.972-.417 1.334-.807 2.581-1.03 3.028-.4.8-1.5 2-2 2.5V22a1 1 0 0 1-1 1H9a2 2 0 0 1-2-2v-1h4.997v-1H7c-1-.5-2-2-2-6V6a1 1 0 1 1 2 0v5h1V3a1 1 0 1 1 2 0v8h1V2Z"/></symbol><symbol viewBox="0 0 24 24" id="hard_hat" xmlns="http://www.w3.org/2000/svg"><path fill-rule="evenodd" clip-rule="evenodd" d="M4 14.16v-1.28a.88.88 0 0 1 .88-.88A7.52 7.52 0 0 1 8.7 5.6l.43-.74s.29-.7 2.24-.73A8.22 8.22 0 0 1 18.24 6a9.87 9.87 0 0 1 2.91 6.73l.448.09a.5.5 0 0 1 .402.49v.36a.86.86 0 0 0 .23.57.444.444 0 0 1-.312.76H15.34c-1.06 0-2.117.12-3.15.36l-1 .22a20.73 20.73 0 0 1-3.73.42H1.886c-.253 0-.346-.331-.131-.463L4 14.16ZM13 12h-2l-.5 1h-4a.5.5 0 0 0 0 1h13a.5.5 0 0 0 0-1h-6l-.5-1Z"/><path d="M19 16v4c.005.59-.651 1-1.19 1h-4.33a3.41 3.41 0 0 1-2.4-1l-.34-.34a3 3 0 0 1-.88-2.13l.066-.721c.491-.066.98-.15 1.465-.25l.04-.008 1.27 1.619a1.92 1.92 0 0 0 1.58.83h3.29a.43.43 0 0 0 .43-.43V16H19ZM20 16.5a.5.5 0 0 1 1 0v2a.5.5 0 0 1-1 0v-2Z"/></symbol><symbol viewBox="0 0 24 24" id="hearing_protection" xmlns="http://www.w3.org/2000/svg"><path d="M21 17h-.44a5.74 5.74 0 0 0-3.09-3.27c1.84-.79 3.06-2 3.25-3.36-1.64 1.62-4.47 2.7-7.87 2.86h-1.7l-.76-.07C7 12.8 4.75 11.33 4.75 10a1.33 1.33 0 0 1 0-.28 12 12 0 0 0 7.22 2c3.46 0 6.39-1 7.82-2.59l.05-.06A3.15 3.15 0 0 0 20.75 7c0-2.66-3.84-4.75-8.75-4.75S3.25 4.34 3.25 7a2.91 2.91 0 0 0 .44 1.5 2.91 2.91 0 0 0-.44 1.5v.37a3.13 3.13 0 0 0 .1.44 3.61 3.61 0 0 0 .16.42c.07.13.14.26.22.38a.21.21 0 0 1 0 .06 4.11 4.11 0 0 0 .27.35l.06.06.31.32.09.07.35.29.12.08a3.41 3.41 0 0 0 .37.25l.16.1.39.21a1.24 1.24 0 0 0 .2.1l.4.19.24.1.51.21.3.1.4.12.35.09.4.1.38.07h.12l.28.05.46.06.37.05h4.92A4.26 4.26 0 0 1 19 17.09a1 1 0 0 0-.59 1.07L19 22a1.17 1.17 0 0 0 2.32 0l.68-3.84A1 1 0 0 0 21 17ZM12 3.75c4.27 0 7.25 1.71 7.25 3.25a1.33 1.33 0 0 1 0 .28 2.39 2.39 0 0 1-.87 1.22A10.51 10.51 0 0 1 12 10.25 10.51 10.51 0 0 1 5.65 8.5a6.2 6.2 0 0 1 1.43-.84c.31-.13.65-.25 1-.36h.05q.53-.17 1.11-.3h.09c.39-.07.79-.13 1.22-.17h.1q.64-.06 1.35-.06a12.66 12.66 0 0 1 4.92.91 2.29 2.29 0 0 0 .81-.68c-.29-.54-2.3-1.75-5.73-1.75a12 12 0 0 0-7.22 2 1.33 1.33 0 0 1 0-.28C4.75 5.46 7.73 3.75 12 3.75ZM3.62 17h-.44a1 1 0 0 0-1 1.16L2.84 22a1.17 1.17 0 0 0 2.32 0l.65-3.85a1 1 0 0 0-.59-1.07 4.25 4.25 0 0 1 1.52-1.68 10.18 10.18 0 0 1-1.57-.68A5.69 5.69 0 0 0 3.62 17Z"/></symbol><symbol viewBox="0 0 24 24" id="insulated_glove" xmlns="http://www.w3.org/2000/svg"><path d="M18 4c-.55 0-1 .45-1 1v5h-1V2c0-.55-.45-1-1-1s-1 .45-1 1v8h-1V1c0-.55-.45-1-1-1s-1 .45-1 1v9h-1V3c0-.55-.45-1-1-1s-1 .45-1 1v9.5h-.5C7.17 11.5 6.4 9.4 6 9c-.5-.5-1-.5-1.5-.5S3.5 9 4 10c.3.81.64 1.92.97 2.97.42 1.33.81 2.58 1.03 3.03.4.8 1.5 2 2 2.5L7.5 24h10l-.5-6c1-.5 2-2 2-6V5c0-.55-.45-1-1-1Zm-3 18h-5c-.55 0-1-.45-1-1s.45-1 1-1h5c.56 0 1 .45 1 1s-.44 1-1 1Z" fill-rule="evenodd"/></symbol><symbol viewBox="0 0 24 24" id="insulated_glove_alt" xmlns="http://www.w3.org/2000/svg"><path d="M19.5 8.5c-.5 0-1 0-1.5.5-.4.4-1.17 2.5-1.5 3.5H16V3c0-.55-.45-1-1-1s-1 .45-1 1v7h-1V1c0-.55-.45-1-1-1s-1 .45-1 1v9h-1V2c0-.55-.45-1-1-1s-1 .45-1 1v8H7V5c0-.55-.45-1-1-1s-1 .45-1 1v7c0 4 1 5.5 2 6l-.5 6h10l-.5-5.5c.5-.5 1.6-1.7 2-2.5.22-.45.61-1.69 1.03-3.03.33-1.05.68-2.16.97-2.97.5-1 0-1.5-.5-1.5ZM14 22H9c-.56 0-1-.45-1-1s.44-1 1-1h5c.55 0 1 .45 1 1s-.45 1-1 1Z"/></symbol><symbol viewBox="0 0 24 24" id="ippe_vibrate" xmlns="http://www.w3.org/2000/svg"><path d="m19.4 10.9-5.7-5.7c-1-1-2.6-1-3.5 0l-5.7 5.7c-.6.6-.6 1.5 0 2.1l5.7 5.7c1 1 2.6 1 3.5 0l5.7-5.7c.6-.5.6-1.5 0-2.1Zm-6 9.6 1.4 1.4 7.1-7.1-1.4-1.4-7.1 7.1Zm7.8-3.6L17 21.1l1.4 1.4 4.2-4.2-1.4-1.4ZM2.1 9.2l1.4 1.4 7.1-7.1-1.4-1.4-7.1 7.1Zm-.7-3.6L2.8 7 7 2.8 5.6 1.4 1.4 5.6Z"/></symbol><symbol viewBox="0 0 24 24" id="ippe_vibrate_off" xmlns="http://www.w3.org/2000/svg"><path fill-rule="evenodd" clip-rule="evenodd" d="m9.2 6.3 1.4 1.4L12 6.3l5.7 5.7-1.4 1.4 1.4 1.4 1.8-1.8c.6-.6.6-1.5 0-2.1l-5.7-5.7c-1-1-2.6-1-3.5 0L9.2 6.3Zm1.4-2.8L9.2 2.1 7.1 4.2l1.4 1.4 2.1-2.1Zm9.2 13.4 2.1-2.1-1.4-1.4-2.1 2.1 1.4 1.4Zm1.4 0-.7.7 1.4 1.4.7-.7-1.4-1.4ZM7.1 2.8 5.6 1.4l-.7.7 1.4 1.4.8-.7Zm12.2 16.5L2.1 2.1.7 3.5l1.4 1.4-.7.7L2.8 7l.7-.7.7.7-2.1 2.2 1.4 1.4 2.1-2.1.7.7L4.5 11c-.6.6-.6 1.5 0 2.1l5.7 5.7c1 1 2.6 1 3.5 0l1.1-1.1.7.7-2.1 2.1 1.4 1.4 2.1-2.1.7.7-.7.7 1.4 1.4.7-.7 1.4 1.4 1.4-1.4-1.4-1.4-1.1-1.2ZM12 17.7 6.3 12l1.4-1.4 5.7 5.7-1.4 1.4Z"/></symbol><symbol viewBox="0 0 24 24" id="ippe_vibrate_outlined" xmlns="http://www.w3.org/2000/svg"><path d="M12 17.7 6.3 12 12 6.3l5.7 5.7-5.7 5.7Zm7.4-6.8-5.7-5.7c-1-1-2.6-1-3.5 0l-5.7 5.7c-.6.6-.6 1.5 0 2.1l5.7 5.7c1 1 2.6 1 3.5 0l5.7-5.7c.6-.5.6-1.5 0-2.1Zm-6 9.6 1.4 1.4 7.1-7.1-1.4-1.4-7.1 7.1Zm7.8-3.6L17 21.1l1.4 1.4 4.2-4.2-1.4-1.4ZM2.1 9.2l1.4 1.4 7.1-7.1-1.4-1.4-7.1 7.1Zm-.7-3.6L2.8 7 7 2.8 5.6 1.4 1.4 5.6Z"/></symbol><symbol viewBox="0 0 24 24" id="overalls" xmlns="http://www.w3.org/2000/svg"><path d="M16 9.26a2 2 0 0 1-2-2V2h-1v4h-2V2h-1v5.26a2 2 0 0 1-2 2V22h3v-9h2v9h3V9.26Z"/></symbol><symbol viewBox="0 0 24 24" id="ppe_level" xmlns="http://www.w3.org/2000/svg"><path fill-rule="evenodd" clip-rule="evenodd" d="M12 2 1 21h22L12 2Zm-2 6h3l-2 5 4-2-2 6h1l-2 3-2-3h1l1-3-3 2 1-8Z"/></symbol><symbol viewBox="0 0 24 24" id="ppe_level_two_tone" xmlns="http://www.w3.org/2000/svg"><path fill-rule="evenodd" clip-rule="evenodd" d="M12 2 1 21h22L12 2Z"/><path opacity=".7" fill-rule="evenodd" clip-rule="evenodd" d="M10 8h3l-2 5 4-2-2 6h1l-2 3-2-3h1l1-3-3 2 1-8Z" fill="#001"/></symbol><symbol viewBox="0 0 24 24" id="safety_boot" xmlns="http://www.w3.org/2000/svg"><path d="M21.5 10V6h-1l-1 1H15l-1-1h-1l-1 4-5 3H4a2 2 0 0 0-2 2v3h8l3-1h2v1h6.5v-2a6.07 6.07 0 0 0 .5-2.5 17.74 17.74 0 0 0-.5-3.5Z"/></symbol><symbol viewBox="0 0 24 24" id="safety_glasses" xmlns="http://www.w3.org/2000/svg"><path d="m24 8.89-8.94-3.25a1.9 1.9 0 0 0-2.45 1.14 1.09 1.09 0 0 0 .65 1.39 3.8 3.8 0 0 0 1.74.21l.4-.05a4 4 0 0 1 1.77.21l3.21 1.17-5.73.52a29 29 0 0 1-5.43 0l-5.65-.51L6.8 8.54a4 4 0 0 1 1.77-.21l.4.05a3.8 3.8 0 0 0 1.77-.21 1.09 1.09 0 0 0 .65-1.39 1.9 1.9 0 0 0-2.45-1.14L0 8.89v1.4a1.29 1.29 0 0 0 0 .19v2h.62a5.76 5.76 0 0 0 5.08 6 5.12 5.12 0 0 0 .56 0h2.46a3 3 0 0 0 2.12-.88l.42-.41a1 1 0 0 1 .7-.3 1 1 0 0 1 .71.3l.41.41a3 3 0 0 0 2.13.88h2.45a5.44 5.44 0 0 0 .57 0 5.77 5.77 0 0 0 5.08-6H24V11Zm-3 6.38A4 4 0 0 1 18.09 17H15.21a1.54 1.54 0 0 1-1.07-.44l-.41-.42a2.5 2.5 0 0 0-3.53 0l-.42.42a1.5 1.5 0 0 1-1.06.44H5.84A4 4 0 0 1 3 15.27a4.51 4.51 0 0 1-.82-2.16 1 1 0 0 1 1-1.13h6.43l.79.4a3.5 3.5 0 0 0 1.56.36 3.57 3.57 0 0 0 1.57-.36l.79-.4h6.47a1 1 0 0 1 1 1.13 4.42 4.42 0 0 1-.79 2.16Z"/></symbol><symbol viewBox="0 0 24 24" id="sign_caution" xmlns="http://www.w3.org/2000/svg"><path d="M2 3h20v10h-4v8h-2v-8H8v8H6v-8H2V3m16.97 8L20 9.97V7.15L16.15 11h2.82m-5.65 0 6-6H16.5l-6 6h2.82m-5.66 0 6-6h-2.83l-6 6h2.83M5.18 5 4 6.18V9l4-4H5.18Z"/></symbol></svg>