<?xml version="1.0" encoding="utf-8"?><svg xmlns="http://www.w3.org/2000/svg" xmlns:xlink="http://www.w3.org/1999/xlink"><symbol fill="none" viewBox="0 0 24 24" id="cooking" xmlns="http://www.w3.org/2000/svg"><path d="M9 21v-3H2v-2h7c.55 0 1.02.196 1.412.587.392.392.588.863.588 1.413v3H9Zm4 0v-3c0-.55.196-1.02.588-1.413A1.926 1.926 0 0 1 15 16h7v2h-7v3h-2Zm-7-6a2.893 2.893 0 0 1-2.125-.875A2.893 2.893 0 0 1 3 12V8h18v4c0 .833-.292 1.542-.875 2.125A2.893 2.893 0 0 1 18 15H6ZM3 7V5h6V4c0-.283.096-.52.287-.712A.968.968 0 0 1 10 3h4c.283 0 .52.096.713.288.191.191.287.429.287.712v1h6v2H3Z"/></symbol><symbol fill="none" viewBox="0 0 24 24" id="iot_scene" xmlns="http://www.w3.org/2000/svg"><path d="M20 22V7c0-.55-.196-1.02-.587-1.412A1.926 1.926 0 0 0 18 5h-1v1.3c0 .2-.067.367-.2.5s-.3.2-.5.2h-5.6c-.233 0-.42-.125-.563-.375-.141-.25-.154-.492-.037-.725L12 1.8c.117-.25.287-.446.512-.588C12.739 1.071 13 1 13.3 1h2.3c.4 0 .733.15 1 .45.267.3.4.65.4 1.05V3h1c1.1 0 2.042.392 2.825 1.175C21.608 4.958 22 5.9 22 7v15h-2ZM5 22c-.85 0-1.563-.288-2.138-.863S2 19.85 2 19v-2.5c0-.417.146-.77.438-1.063A1.446 1.446 0 0 1 3.5 15c.417 0 .77.146 1.063.438.291.291.437.645.437 1.062V19h10v-2.5c0-.417.146-.77.438-1.063A1.446 1.446 0 0 1 16.5 15c.417 0 .77.146 1.063.438.291.291.437.645.437 1.062V19c0 .85-.288 1.563-.863 2.137-.575.575-1.287.863-2.137.863H5Zm1-4v-1.5c0-.533-.175-1.042-.525-1.525-.35-.483-.842-.792-1.475-.925V12c0-.55.196-1.02.588-1.412A1.926 1.926 0 0 1 6 10h8c.55 0 1.02.196 1.412.588.392.391.588.862.588 1.412v2.05c-.633.133-1.125.442-1.475.925-.35.483-.525.992-.525 1.525V18H6Z"/></symbol><symbol fill="none" viewBox="0 0 24 24" id="skillet" xmlns="http://www.w3.org/2000/svg"><path d="M5 20a2.893 2.893 0 0 1-2.125-.875A2.893 2.893 0 0 1 2 17v-5h14.025a2.868 2.868 0 0 1 .675-1.488 3.07 3.07 0 0 1 1.35-.912l4.625-1.55.625 1.9-4.625 1.55a.959.959 0 0 0-.488.363.987.987 0 0 0-.187.587V17c0 .833-.292 1.542-.875 2.125A2.893 2.893 0 0 1 15 20H5Zm-.575-10c.233-.6.27-1.133.112-1.6-.158-.467-.429-.933-.812-1.4-.55-.667-.913-1.296-1.087-1.888C2.463 4.521 2.433 3.817 2.55 3H4.5c-.133.633-.154 1.15-.063 1.55.092.4.33.833.713 1.3.633.767 1.037 1.446 1.212 2.038.175.591.18 1.295.013 2.112h-1.95Zm4 0c.233-.6.275-1.133.125-1.6-.15-.467-.417-.933-.8-1.4-.55-.667-.917-1.296-1.1-1.888-.183-.591-.217-1.295-.1-2.112H8.5c-.133.633-.154 1.15-.063 1.55.092.4.33.833.713 1.3.633.767 1.037 1.446 1.213 2.038.175.591.179 1.295.012 2.112h-1.95Zm4 0c.233-.6.275-1.133.125-1.6-.15-.467-.417-.933-.8-1.4-.55-.667-.917-1.296-1.1-1.888-.183-.591-.217-1.295-.1-2.112h1.95c-.133.633-.154 1.15-.063 1.55.092.4.33.833.713 1.3.633.767 1.037 1.446 1.213 2.038.175.591.179 1.295.012 2.112h-1.95Z"/></symbol><symbol fill="none" viewBox="0 0 24 24" id="skillet_cooktop" xmlns="http://www.w3.org/2000/svg"><path d="M6 15a2.893 2.893 0 0 1-2.125-.875A2.893 2.893 0 0 1 3 12V8h13.025c.083-.55.308-1.042.675-1.475a3.028 3.028 0 0 1 1.35-.925l4.625-1.55.625 1.9-4.625 1.55a.959.959 0 0 0-.488.362.987.987 0 0 0-.187.588V12c0 .833-.292 1.541-.875 2.125A2.893 2.893 0 0 1 15 15H6Zm3 6v-3H2v-2h7c.55 0 1.02.196 1.412.587.392.392.588.863.588 1.413v3H9Zm4 0v-3c0-.55.196-1.021.588-1.413A1.926 1.926 0 0 1 15 16h7v2h-7v3h-2Z"/></symbol><symbol fill="none" viewBox="0 0 24 24" id="stockpot" xmlns="http://www.w3.org/2000/svg"><path d="M6 20a2.893 2.893 0 0 1-2.125-.875A2.893 2.893 0 0 1 3 17V8h18v9c0 .833-.292 1.542-.875 2.125A2.893 2.893 0 0 1 18 20H6ZM3 7V5h6V4c0-.283.096-.52.287-.712A.968.968 0 0 1 10 3h4c.283 0 .52.096.713.288.191.191.287.429.287.712v1h6v2H3Z"/></symbol><symbol fill="none" viewBox="0 0 24 24" id="stove" xmlns="http://www.w3.org/2000/svg"><path d="M6 14h2l3 3H9l-3-3ZM4 4h1V3a1 1 0 0 1 1-1h4a1 1 0 0 1 1 1v1h2V3a1 1 0 0 1 1-1h4a1 1 0 0 1 1 1v1h1a2 2 0 0 1 2 2v13a2 2 0 0 1-2 2v1h-3v-1H7v1H4v-1a2 2 0 0 1-2-2V6a2 2 0 0 1 2-2Zm14 3a1 1 0 1 1 0 2 1 1 0 0 1 0-2Zm-4 0a1 1 0 1 1 0 2 1 1 0 0 1 0-2Zm6-1H4v4h16V6ZM4 19h16v-7H4v7ZM6 7a1 1 0 1 1 0 2 1 1 0 0 1 0-2Zm7 7h2l3 3h-2l-3-3Z"/></symbol></svg>