<?xml version="1.0" encoding="utf-8"?><svg xmlns="http://www.w3.org/2000/svg" xmlns:xlink="http://www.w3.org/1999/xlink"><symbol viewBox="0 0 24 24" id="baseball" xmlns="http://www.w3.org/2000/svg"><path d="M12 2a9.81 9.81 0 0 0-6.5 2.4 8.64 8.64 0 0 1 1.3 1.4l1.1-.6 1 1.7-1 .6a9.53 9.53 0 0 1 1 3.5H10v2H8.9a8.9 8.9 0 0 1-1.1 3.6l1 .6-1 1.7-1.1-.6a8.64 8.64 0 0 1-1.3 1.4 10 10 0 0 0 6.5 2.4 9.81 9.81 0 0 0 6.5-2.4 8.64 8.64 0 0 1-1.3-1.4l-1.1.6-1-1.7 1-.6a11 11 0 0 1-1.1-3.5H14v-2h1.1a8.9 8.9 0 0 1 1.1-3.6l-1-.6 1-1.7 1.1.6a8.64 8.64 0 0 1 1.3-1.4A10.28 10.28 0 0 0 12 2M4.1 5.8A10.52 10.52 0 0 0 2 12a9.79 9.79 0 0 0 2.1 6.1l.9-.9-.6-.3 1-1.7.7.4a7.86 7.86 0 0 0 .8-2.6H6v-2h.9a7.86 7.86 0 0 0-.8-2.6l-.7.5-1-1.7.6-.3a2.44 2.44 0 0 0-.9-1.1m15.8 0-.9.9.6.3-1 1.7-.7-.4a7.86 7.86 0 0 0-.8 2.6h.9v2h-.9a7.86 7.86 0 0 0 .8 2.6l.7-.4 1 1.7-.6.4a7.64 7.64 0 0 0 .9.9A10 10 0 0 0 22 12a10.52 10.52 0 0 0-2.1-6.2Z"/><path fill="none" d="M0 0h24v24H0z"/></symbol><symbol viewBox="0 0 24 24" id="basketball_hoop" xmlns="http://www.w3.org/2000/svg"><path fill="none" d="M0 0h24v24H0z"/><path d="M21 2H3a2 2 0 0 0-2 2v12a2 2 0 0 0 2 2h3.57L8 23l2-2 2 2 2-2 2 2 1.43-5H21a2 2 0 0 0 2-2V4a2 2 0 0 0-2-2m0 14h-3v-2h-1V9a2 2 0 0 0-2-2H9a2 2 0 0 0-2 2v5H6v2H3V4h18v12M9 14V9h6v5Z"/></symbol><symbol viewBox="0 0 24 24" id="boxing_glove" xmlns="http://www.w3.org/2000/svg"><path d="M19 16V6h3v10h-3M12 4H7S2 4 2 8v6a3.54 3.54 0 0 0 2.07 3.31A4 4 0 0 1 8 14h3v2H8a2 2 0 0 0 0 4h5c4 0 4-4 4-4V6s-1-2-5-2Z"/><path fill="none" d="M0 0h24v24H0z"/></symbol><symbol viewBox="0 0 24 24" id="ephesus_fixture" xmlns="http://www.w3.org/2000/svg"><path fill="none" d="M0 0h24v24H0z"/><path d="M20.27 7.52c-1.65-1.35-4.37-1.83-6.27-2-.9-.08-1.61-.1-1.94-.1h-.12c-1 0-5.77.11-8.21 2.1 0 0-1.73 1.25-1.73 4.87s1.53 4.95 1.53 4.95 1 1.05 4.07 1.66l.87.15h.07l.88.11h.18l.9.07h3l.9-.07h.18l.88-.11h.07l.87-.15c3.08-.61 4.07-1.66 4.07-1.66S22 16 22 12.39s-1.73-4.87-1.73-4.87ZM6 17a2 2 0 1 1 2-2 2 2 0 0 1-2 2Zm0-5a2 2 0 1 1 2-2 2 2 0 0 1-2 2Zm6 6a2 2 0 1 1 2-2 2 2 0 0 1-2 2Zm0-7a2 2 0 1 1 2-2 2 2 0 0 1-2 2Zm6 6a2 2 0 1 1 2-2 2 2 0 0 1-2 2Zm0-5a2 2 0 1 1 2-2 2 2 0 0 1-2 2ZM16 3a1 1 0 0 0-2 0v1.51c.61 0 1.29.13 2 .26ZM5.82 19.59 6.56 21a2 2 0 0 0 1.75 1h7.38a2 2 0 0 0 1.75-1l.74-1.36a22.42 22.42 0 0 1-6.19.83 22.31 22.31 0 0 1-6.17-.88Z"/></symbol><symbol viewBox="0 0 24 24" id="ephesus_gateway" xmlns="http://www.w3.org/2000/svg"><path fill="none" d="M0 0h24v24H0z"/><path d="M18 2H6a2 2 0 0 0-2 2v16a2 2 0 0 0 2 2h12a2 2 0 0 0 2-2V4a2 2 0 0 0-2-2ZM8.78 3l.62 1a3 3 0 0 0 5.2 0l.62-1h1.16l-.92 1.54a4 4 0 0 1-6.92 0L7.62 3Zm4.93 9.52-1.37.88a.64.64 0 0 1-.68 0l-1.37-.88a.61.61 0 0 1 0-1l1.37-.88a.64.64 0 0 1 .68 0l1.37.88a.61.61 0 0 1 0 1ZM5 18.71v-1.42l1.61-1.61a3 3 0 0 0 .89-2.14V9.7a3 3 0 0 0-1.14-2.37L5 6.24V5l2 1.55A4 4 0 0 1 8.5 9.7v3.84a4 4 0 0 1-1.18 2.85ZM15.22 21l-.62-1a3 3 0 0 0-5.2 0l-.62 1H7.62l.92-1.54a4 4 0 0 1 6.92 0l.92 1.54ZM19 6.24l-1.36 1.09A3 3 0 0 0 16.5 9.7v3.84a3 3 0 0 0 .89 2.14L19 17.29v1.42l-2.32-2.32a4 4 0 0 1-1.18-2.85V9.7A4 4 0 0 1 17 6.55L19 5Z"/></symbol><symbol viewBox="0 0 24 24" id="football_helmet" xmlns="http://www.w3.org/2000/svg"><path d="M13.5 12a1.5 1.5 0 1 0 1.5 1.5 1.54 1.54 0 0 0-1.5-1.5m0-9a8.27 8.27 0 0 1 8.5 8 10.64 10.64 0 0 1-.9 5c-4.1 0-5.1 4-8.6 4-2.2 0-3.2-1.7-3.4-4h-.9L7 20.3a1 1 0 0 1-1.1.7H3a1 1 0 0 1 0-2v-3a1 1 0 0 1 0-2h3.8l.5-1.6a3.92 3.92 0 0 0-1.8-.4h-.4L5 11a8.27 8.27 0 0 1 8.5-8M5 16v3h.3l.9-3Z"/><path fill="none" d="M0 0h24v24H0z"/></symbol><symbol viewBox="0 0 24 24" id="hockey_puck" xmlns="http://www.w3.org/2000/svg"><path d="M12 5C6.5 5 2 6.6 2 8.5S6.5 12 12 12s10-1.6 10-3.5S17.5 5 12 5M2 11.8v4.7C2 18.4 6.5 20 12 20s10-1.6 10-3.5v-4.7a8.17 8.17 0 0 1-2.3 1.1A25.06 25.06 0 0 1 12 14a25.06 25.06 0 0 1-7.7-1.1A12.29 12.29 0 0 1 2 11.8Z"/><path fill="none" d="M0 0h24v24H0z"/></symbol><symbol viewBox="0 0 24 24" id="hockey_sticks" xmlns="http://www.w3.org/2000/svg"><path d="M7.6 3 5.1 4.6l4 6.3 1.8-2.8L7.6 3m8.8 0L7.5 17H2v4h6.5L19 4.6 16.4 3M15 14.6l-1.8 2.8 2.3 3.6H22v-4h-5.5Z"/><path fill="none" d="M0 0h24v24H0z"/></symbol><symbol viewBox="0 0 24 24" id="tennis" xmlns="http://www.w3.org/2000/svg"><path d="M12 2a9.81 9.81 0 0 1 6.5 2.4A10.13 10.13 0 0 0 15 12a10.13 10.13 0 0 0 3.5 7.6A10 10 0 0 1 12 22a9.81 9.81 0 0 1-6.5-2.4A10.13 10.13 0 0 0 9 12a10.13 10.13 0 0 0-3.5-7.6A9.81 9.81 0 0 1 12 2m10 10a9.79 9.79 0 0 1-2.1 6.1A7.64 7.64 0 0 1 17 12a8 8 0 0 1 2.9-6.2A10.52 10.52 0 0 1 22 12M2 12a10.52 10.52 0 0 1 2.1-6.2A8 8 0 0 1 7 12a7.64 7.64 0 0 1-2.9 6.1A9.79 9.79 0 0 1 2 12Z"/><path fill="none" d="M0 0h24v24H0z"/></symbol></svg>