<?xml version="1.0" encoding="utf-8"?><!DOCTYPE svg PUBLIC "-//W3C//DTD SVG 1.1//EN" "http://www.w3.org/Graphics/SVG/1.1/DTD/svg11.dtd"><svg xmlns="http://www.w3.org/2000/svg" xmlns:xlink="http://www.w3.org/1999/xlink"><symbol viewBox="0 0 24 24" id="ac" xmlns="http://www.w3.org/2000/svg"><path d="M16.67 17A4.581 4.581 0 0 1 13 15.05l-3.64-4.89A2.57 2.57 0 0 0 7.23 9a2.79 2.79 0 0 0-2.16 1.51l-1.21 2-1.72-1 1.21-2A4.73 4.73 0 0 1 7.12 7 4.51 4.51 0 0 1 11 9l3.68 4.89A2.561 2.561 0 0 0 16.77 15a2.78 2.78 0 0 0 2.16-1.51l1.21-2 1.72 1-1.21 2A4.73 4.73 0 0 1 16.88 17h-.21Z"/></symbol><symbol viewBox="0 0 24 24" id="apparent_energy" xmlns="http://www.w3.org/2000/svg"><path d="m17.175 3 4.242 4.243V3h-4.242ZM3.418 11.015h4.607v-1.4h-2.91V7.552h2.708v-1.39H5.114V4.405h2.911v-1.39H3.418v8Z"/><path d="M3 20.003h2.828L20.003 5.828l-1.414-1.414L3 20.003ZM21.418 19.003h-3v1h3v-1ZM13.418 19.003h3v1h-3v-1ZM21.418 12.003v-3h-1v3h1ZM21.418 14.003v3h-1v-3h1ZM11.418 20.003H8.42l1-1h1.998v1Z"/></symbol><symbol viewBox="0 0 24 24" id="apparent_power" xmlns="http://www.w3.org/2000/svg"><path d="M21.42 3v4.24L20 5.83 5.83 20H3L18.59 4.41 17.17 3ZM5.11 11H3.42V3H6a3.37 3.37 0 0 1 2.21.63 2.27 2.27 0 0 1 .73 1.87 2.42 2.42 0 0 1-.81 2 3.41 3.41 0 0 1-2.29.69h-.73Zm0-4.23h.56a1.84 1.84 0 0 0 1.17-.31 1.09 1.09 0 0 0 .39-.9 1.1 1.1 0 0 0-.33-.88 1.49 1.49 0 0 0-1-.29h-.79ZM18.42 20h3v-1h-3Zm-5 0h3v-1h-3Zm7-8h1V9h-1Zm0 5h1v-3h-1Zm-12 3h3v-1h-2Z"/><path fill="none" d="M0 0h24v24H0z"/></symbol><symbol viewBox="0 0 24 24" id="blast" xmlns="http://www.w3.org/2000/svg"><path d="M6.21 21C4.57 19.83 2.68 18.66 1 17.49l-1-.71 5.46-1.85-2.73-7.2 6.39 2.68L11 3l3.78 7.44 7.63-3.75L18.72 15 24 16.71 18.92 21l-1-1.16 2.88-2.46-4.23-1.44c.85-1.87 2.69-5.82 2.69-5.82l-5.14 2.47-2.58-5-1.31 5-4.7-1.92 2 5.29-4 1.31 3.39 2.39c-.26.47-.43.92-.67 1.37L6.21 21Z"/><path d="M8.16 21h8.2l-2-1.67c.9-.48 1.82-1.09 2.68-1.54h-2.78l1.5-3.83-3.12 2.24c-.29-1.49-.54-2.85-.8-4.21-.21 1.36-.63 3.87-.63 3.87l-2.57-1.93s1.13 2.63 1.64 3.92h-3l2.92 1.52L8.16 21Z"/></symbol><symbol viewBox="0 0 24 24" id="bolt_off" xmlns="http://www.w3.org/2000/svg"><path d="m13.791 16.071 4.917 4.917 1.402-1.403L4.402 3.878 3 5.28l5.537 5.537-1.364 2.403c-.02.04.12-.22-.07.12-.19.34-.2.66.38.66h3.5l-1 7h1s.934-1.644 2.808-4.929ZM16.883 10.66l-1.03 1.803L13.388 10h3.094c.49 0 .56.33.47.51l-.07.15ZM13.983 3l-.95 6.645-2.44-2.442L12.982 3h1Z"/></symbol><symbol viewBox="0 0 24 24" id="bypass" xmlns="http://www.w3.org/2000/svg"><path d="m20 16 3-3-3-3v2h-1.252a8.003 8.003 0 0 0-15.496 0H1v2h4a6 6 0 0 1 12 0h3v2Z"/><path d="M15 14a4 4 0 1 1-8 0 4 4 0 0 1 8 0Z"/></symbol><symbol viewBox="0 0 24 24" id="bypass_alt" xmlns="http://www.w3.org/2000/svg"><path d="M17.5 12H19V6h-6v1.5h3.5L12 12 6 6 5 7l7 7 5.5-5.5V12ZM4 16h16v2H4v-2Z"/></symbol><symbol viewBox="0 0 24 24" id="bypass_battery" xmlns="http://www.w3.org/2000/svg"><path fill="none" d="M0 0h24v24H0z"/><path d="M17.5 9.1H19v-6h-6v1.5h3.5L12 9.1l-6-6-1 1 7 7 5.5-5.5ZM18 14v6H4v-6h14m.7-2H3.3A1.324 1.324 0 0 0 2 13.3v7.3A1.347 1.347 0 0 0 3.3 22h15.3a1.324 1.324 0 0 0 1.3-1.3V19h2v-4h-2v-1.7a1.181 1.181 0 0 0-1.2-1.3Z"/></symbol><symbol viewBox="0 0 24 24" id="cloud_done" xmlns="http://www.w3.org/2000/svg"><path d="M19.35 10.04A7.49 7.49 0 0 0 12 4C9.11 4 6.6 5.64 5.35 8.04A5.994 5.994 0 0 0 0 14c0 3.31 2.69 6 6 6h13c2.76 0 5-2.24 5-5 0-2.64-2.05-4.78-4.65-4.96ZM19 18H6c-2.21 0-4-1.79-4-4 0-2.05 1.53-3.76 3.56-3.97l1.07-.11.5-.95A5.469 5.469 0 0 1 12 6c2.62 0 4.88 1.86 5.39 4.43l.3 1.5 1.53.11A2.98 2.98 0 0 1 22 15c0 1.65-1.35 3-3 3Zm-9-3.82-2.09-2.09L6.5 13.5 10 17l6.01-6.01-1.41-1.41-4.6 4.6Z"/></symbol><symbol viewBox="0 0 24 24" id="cloud_off_filled" xmlns="http://www.w3.org/2000/svg"><path fill-rule="evenodd" clip-rule="evenodd" d="M4.41 3.86 3 5.27l2.77 2.77h-.42A5.994 5.994 0 0 0 0 14c0 3.31 2.69 6 6 6h11.73l2 2 1.41-1.41L4.41 3.86ZM24 15c0-2.64-2.05-4.78-4.65-4.96A7.49 7.49 0 0 0 12 4c-1.33 0-2.57.36-3.65.97L22.2 18.81c1.09-.92 1.8-2.27 1.8-3.81Z"/></symbol><symbol viewBox="0 0 24 24" id="current" xmlns="http://www.w3.org/2000/svg"><path d="M16.67 17A4.58 4.58 0 0 1 13 15.05l-3.64-4.89A2.57 2.57 0 0 0 7.23 9a2.79 2.79 0 0 0-2.16 1.51l-1.21 2-1.72-1 1.21-2A4.73 4.73 0 0 1 7.12 7 4.51 4.51 0 0 1 11 9l3.68 4.89A2.56 2.56 0 0 0 16.77 15a2.78 2.78 0 0 0 2.16-1.51l1.21-2 1.72 1-1.21 2A4.73 4.73 0 0 1 16.88 17Z"/><path d="M0 0h24v24H0Z" fill="none"/></symbol><symbol viewBox="0 0 24 24" id="current_ac" xmlns="http://www.w3.org/2000/svg"><path d="M16 7.4c-.9 0-1.7-.2-2.5-.5L9.6 5c-1.4-.7-3.7-.3-4.7.8L3.8 7 2.4 5.6l1.1-1.2c1.6-1.8 4.8-2.4 7-1.3l4 1.9c1.4.7 3.7.3 4.7-.8l1-1.2 1.5 1.3-1.1 1.2c-1.1 1.2-2.8 1.9-4.6 1.9Zm-1.2 14.7-.8-2.6h-4l-.8 2.6H6.7L10.6 11h2.9l3.9 11.1h-2.6Zm-1.3-4.6L12 12.7l-1.4 4.8h2.9Z"/></symbol><symbol viewBox="0 0 24 24" id="current_circled" xmlns="http://www.w3.org/2000/svg"><path d="M12 2a10 10 0 1 0 10 10A10 10 0 0 0 12 2Zm6.7 12a3.84 3.84 0 0 1-3 2h-.2a3.68 3.68 0 0 1-2.92-1.56l-2.76-3.67A1.64 1.64 0 0 0 8.43 10 1.88 1.88 0 0 0 7 11l-.9 1.51-1.72-1L5.3 10a3.84 3.84 0 0 1 3-2 3.66 3.66 0 0 1 3.09 1.56l2.76 3.67a1.63 1.63 0 0 0 1.39.77A1.88 1.88 0 0 0 17 13l.9-1.51 1.72 1Z"/><path d="M0 0h24v24H0Z" fill="none"/></symbol><symbol viewBox="0 0 24 24" id="current_circled_outline" xmlns="http://www.w3.org/2000/svg"><path d="M12 4a8 8 0 1 1-8 8 8 8 0 0 1 8-8m0-2a10 10 0 1 0 10 10A10 10 0 0 0 12 2Z"/><path d="M0 0h24v24H0Z" fill="none"/><path d="M18.7 14a3.84 3.84 0 0 1-3 2h-.2a3.68 3.68 0 0 1-2.92-1.56l-2.76-3.67A1.64 1.64 0 0 0 8.43 10 1.88 1.88 0 0 0 7 11l-.9 1.51-1.72-1L5.3 10a3.84 3.84 0 0 1 3-2 3.66 3.66 0 0 1 3.09 1.56l2.76 3.67a1.63 1.63 0 0 0 1.39.77A1.88 1.88 0 0 0 17 13l.9-1.51 1.72 1Z"/></symbol><symbol viewBox="0 0 24 24" id="current_dc" xmlns="http://www.w3.org/2000/svg"><path d="M2 2v2h20V2H2Zm0 4v2h5V6H2Zm7 0v2h6V6H9Zm8 0v2h5V6h-5Zm-2.2 16.1-.8-2.6h-4l-.8 2.6H6.7L10.6 11h2.9l3.9 11.1h-2.6Zm-1.3-4.6c-.068 0-1.5-4.8-1.5-4.8l-1.4 4.8h2.9Z"/></symbol><symbol viewBox="0 0 24 24" id="dc" xmlns="http://www.w3.org/2000/svg"><path d="M2 9v2h20V9H2Zm0 4v2h5v-2H2Zm7 0v2h6v-2H9Zm8 0v2h5v-2h-5Z"/></symbol><symbol viewBox="0 0 24 24" id="department" xmlns="http://www.w3.org/2000/svg"><path d="M16.423 3.34a1 1 0 0 1 .866.5l4.422 7.66a1 1 0 0 1 0 1l-4.422 7.66a1 1 0 0 1-.866.5H7.577a1 1 0 0 1-.866-.5L2.29 12.5a1 1 0 0 1 0-1L6.71 3.84a1 1 0 0 1 .866-.5h8.846Z"/></symbol><symbol viewBox="0 0 24 24" id="departments" xmlns="http://www.w3.org/2000/svg"><path d="M5.041 3a1 1 0 0 1 .866-.5h3.846a1 1 0 0 1 .866.5l1.922 3.33a1 1 0 0 1 0 1l-1.922 3.33a1 1 0 0 1-.866.5H5.907a1 1 0 0 1-.866-.5L3.12 7.33a1 1 0 0 1 0-1L5.04 3ZM5.122 13.227a1 1 0 0 1 .866-.5h3.845a1 1 0 0 1 .866.5l1.923 3.33a1 1 0 0 1 0 1l-1.923 3.33a1 1 0 0 1-.866.5H5.988a1 1 0 0 1-.866-.5l-1.923-3.33a1 1 0 0 1 0-1l1.923-3.33ZM14.122 8.227a1 1 0 0 1 .866-.5h3.845a1 1 0 0 1 .866.5l1.923 3.33a1 1 0 0 1 0 1l-1.923 3.33a1 1 0 0 1-.866.5h-3.845a1 1 0 0 1-.866-.5l-1.923-3.33a1 1 0 0 1 0-1l1.923-3.33Z"/></symbol><symbol viewBox="0 0 24 24" id="device_activating" xmlns="http://www.w3.org/2000/svg"><path d="M17.444 10H6.556A1.556 1.556 0 0 0 5 11.556v10.888A1.556 1.556 0 0 0 6.556 24h10.888A1.556 1.556 0 0 0 19 22.444V11.556A1.556 1.556 0 0 0 17.444 10Zm0 10.889a1.555 1.555 0 1 1-3.11 0 1.555 1.555 0 0 1 3.11 0Zm0-8.167a1.167 1.167 0 0 1-1.166 1.167H7.722a1.167 1.167 0 1 1 0-2.333h8.556a1.167 1.167 0 0 1 1.166 1.166ZM8.46 7.46 7.05 6.05A6.976 6.976 0 0 1 12 4c1.93 0 3.68.78 4.95 2.05l-1.41 1.41a5.022 5.022 0 0 0-7.08 0Z"/><path d="M4.22 3.22C6.21 1.23 8.96 0 12 0s5.79 1.23 7.77 3.23l-1.41 1.41A8.937 8.937 0 0 0 12 2C9.51 2 7.26 3.01 5.63 4.63L4.22 3.22Z"/></symbol><symbol viewBox="0 0 24 24" id="distance_apart" xmlns="http://www.w3.org/2000/svg"><path d="M6 8c1.1 0 2-.9 2-2s-.9-2-2-2-2 .9-2 2 .9 2 2 2Zm4 3.43c0-.81-.48-1.53-1.22-1.85a6.95 6.95 0 0 0-5.56 0A2.01 2.01 0 0 0 2 11.43V12h8v-.57ZM18 8c1.1 0 2-.9 2-2s-.9-2-2-2-2 .9-2 2 .9 2 2 2Zm4 3.43c0-.81-.48-1.53-1.22-1.85a6.95 6.95 0 0 0-5.56 0A2.01 2.01 0 0 0 14 11.43V12h8v-.57ZM19 19v-2.01L5 17v2l-3-3 3-3v2.01L19 15v-2l3 3-3 3Z"/></symbol><symbol viewBox="0 0 24 24" id="double_triangle" xmlns="http://www.w3.org/2000/svg"><path d="M20.5 16 12 1 3.5 16h3.97L3.5 23h17l-3.97-7h3.97ZM17 21H7l2.78-5L12 12l2.22 4L17 21ZM12 8l-3.4 6H7l5-9 5 9h-1.6L12 8Z"/></symbol><symbol viewBox="0 0 24 24" id="environment" xmlns="http://www.w3.org/2000/svg"><path d="M13 17a5 5 0 1 1-8-4V5a3 3 0 0 1 6 0v8a5 5 0 0 1 2 4M7 8v6.17a3 3 0 1 0 2 0V8H7"/><path fill="none" d="M0 0h24v24H0z"/><path d="M19.5 21.5A2.51 2.51 0 0 1 17 19c0-1.67 2.5-4.5 2.5-4.5S22 17.33 22 19a2.51 2.51 0 0 1-2.5 2.5ZM19.5 9.5A2.51 2.51 0 0 1 17 7c0-1.67 2.5-4.5 2.5-4.5S22 5.33 22 7a2.51 2.51 0 0 1-2.5 2.5ZM16 15.5a2.51 2.51 0 0 1-2.5-2.5c0-1.67 2.5-4.5 2.5-4.5s2.5 2.83 2.5 4.5a2.51 2.51 0 0 1-2.5 2.5Z"/></symbol><symbol viewBox="0 0 24 24" id="flood" xmlns="http://www.w3.org/2000/svg"><path d="M2 16.72v-2.137l.015-.006C2.67 14.304 3.411 14 4.8 14c1.389 0 2.13.304 2.785.577l.017.007c.537.224.998.416 1.998.416s1.46-.192 1.998-.416l.017-.007C12.27 14.304 13.011 14 14.4 14c1.389 0 2.13.304 2.785.577l.017.007c.537.224.998.416 1.998.416s1.46-.192 1.998-.416l.017-.007c.241-.1.493-.205.785-.297v2.137l-.015.006c-.655.273-1.396.577-2.785.577-1.389 0-2.13-.304-2.785-.577l-.017-.007C15.861 16.192 15.4 16 14.4 16s-1.46.192-1.998.416l-.017.007c-.655.273-1.396.577-2.785.577-1.389 0-2.13-.304-2.785-.577l-.017-.007C6.261 16.192 5.8 16 4.8 16s-1.46.192-1.998.416l-.017.007c-.241.1-.493.205-.785.297ZM2 20.72v-2.137l.015-.006C2.67 18.304 3.411 18 4.8 18c1.389 0 2.13.304 2.785.577l.017.007c.537.224.998.416 1.998.416s1.46-.192 1.998-.416l.017-.007C12.27 18.304 13.011 18 14.4 18c1.389 0 2.13.304 2.785.577l.017.007c.537.224.998.416 1.998.416s1.46-.192 1.998-.416l.017-.007c.241-.1.493-.205.785-.297v2.137l-.015.006c-.655.273-1.396.577-2.785.577-1.389 0-2.13-.304-2.785-.577l-.017-.007C15.861 20.192 15.4 20 14.4 20s-1.46.192-1.998.416l-.017.007c-.655.273-1.396.577-2.785.577-1.389 0-2.13-.304-2.785-.577l-.017-.007C6.261 20.192 5.8 20 4.8 20s-1.46.192-1.998.416l-.017.007c-.241.1-.493.205-.785.297Z"/><path fill-rule="evenodd" clip-rule="evenodd" d="M6 7a2 2 0 0 1 2-2h8a2 2 0 0 1 2 2v5.825c-.13-.045-.255-.098-.393-.156l-.038-.015C16.86 12.358 15.978 12 14.4 12s-2.46.358-3.17.654l-.037.015c-.469.196-.792.331-1.593.331-.801 0-1.124-.135-1.593-.33l-.038-.016C7.463 12.443 6.87 12.2 6 12.079V7Zm9 2a1 1 0 1 0 0-2 1 1 0 0 0 0 2Z"/></symbol><symbol viewBox="0 0 24 24" id="flow" xmlns="http://www.w3.org/2000/svg"><path d="M5.35 14.78a1.84 1.84 0 0 1 1.15.37 3.76 3.76 0 0 0 2.18.64 3.74 3.74 0 0 0 2.18-.64 2 2 0 0 1 2.3 0 4 4 0 0 0 4.36 0 2 2 0 0 1 2.3 0 3.77 3.77 0 0 0 2.16.64v-2a1.89 1.89 0 0 1-1.15-.36 4 4 0 0 0-4.36 0 1.77 1.77 0 0 1-1.15.36 1.89 1.89 0 0 1-1.15-.36 4 4 0 0 0-4.36 0 1.77 1.77 0 0 1-1.15.36 1.89 1.89 0 0 1-1.15-.36 3.82 3.82 0 0 0-2.18-.65 3.82 3.82 0 0 0-2.18.65 1.77 1.77 0 0 1-1.15.34v2a3.9 3.9 0 0 0 2.2-.64 1.84 1.84 0 0 1 1.15-.35ZM22 15.79ZM16.49 18a1.77 1.77 0 0 1-1.15.36 1.89 1.89 0 0 1-1.15-.36 3.82 3.82 0 0 0-2.19-.69 3.88 3.88 0 0 0-2.18.69 1.75 1.75 0 0 1-1.15.36A1.77 1.77 0 0 1 7.52 18a3.87 3.87 0 0 0-2.18-.65 3.88 3.88 0 0 0-2.19.65 1.77 1.77 0 0 1-1.15.32v2a4 4 0 0 0 2.19-.65 1.82 1.82 0 0 1 1.15-.37 1.84 1.84 0 0 1 1.15.37 3.87 3.87 0 0 0 2.18.65 4 4 0 0 0 2.19-.65 2 2 0 0 1 2.3 0 4 4 0 0 0 4.36 0 2 2 0 0 1 2.3 0 3.82 3.82 0 0 0 2.18.65v-2a1.77 1.77 0 0 1-1.15-.32 4 4 0 0 0-4.36 0ZM22 6.69ZM5.35 5.68A1.89 1.89 0 0 1 6.5 6a3.85 3.85 0 0 0 2.18.65A3.82 3.82 0 0 0 10.86 6 1.77 1.77 0 0 1 12 5.68a1.89 1.89 0 0 1 1.16.32 4 4 0 0 0 4.36 0 1.77 1.77 0 0 1 1.15-.36 1.89 1.89 0 0 1 1.15.36 3.78 3.78 0 0 0 2.18.69v-2a1.84 1.84 0 0 1-1.15-.37 4 4 0 0 0-4.36 0 2 2 0 0 1-2.3 0 4 4 0 0 0-4.36 0 2 2 0 0 1-2.3 0 3.82 3.82 0 0 0-2.18-.65 3.82 3.82 0 0 0-2.18.65A1.84 1.84 0 0 1 2 4.67v2A3.91 3.91 0 0 0 4.2 6a1.77 1.77 0 0 1 1.15-.32ZM20.85 8.85a4 4 0 0 0-4.36 0 2 2 0 0 1-2.3 0A3.74 3.74 0 0 0 12 8.21a3.87 3.87 0 0 0-2.19.64 1.82 1.82 0 0 1-1.15.37 1.78 1.78 0 0 1-1.15-.37 3.78 3.78 0 0 0-2.18-.64 3.87 3.87 0 0 0-2.19.64A1.84 1.84 0 0 1 2 9.22v2a3.88 3.88 0 0 0 2.19-.65 1.75 1.75 0 0 1 1.15-.36 1.77 1.77 0 0 1 1.15.36 4 4 0 0 0 4.37 0 1.77 1.77 0 0 1 1.14-.34 1.89 1.89 0 0 1 1.15.36 4 4 0 0 0 4.36 0 1.77 1.77 0 0 1 1.15-.36 1.89 1.89 0 0 1 1.15.36 3.82 3.82 0 0 0 2.18.65v-2a1.84 1.84 0 0 1-1.14-.39Z"/><path fill="none" d="M0 0h24v24H0z"/></symbol><symbol viewBox="0 0 24 24" id="frequency" xmlns="http://www.w3.org/2000/svg"><path d="M3 4.5 6 7V5.25h12V7l3-2.5L18 2v1.75H6V2L3 4.5ZM6.64 11.937c.51-1.23 2.251-1.235 2.768-.007l3.327 7.914c1.21 2.877 5.293 2.852 6.469-.038L21.158 15h-2.16l-1.647 4.053c-.504 1.238-2.254 1.249-2.772.016l-3.328-7.914c-1.204-2.866-5.268-2.856-6.46.016L3.205 15h2.165l1.27-3.063Z"/></symbol><symbol viewBox="0 0 24 24" id="grade_a" xmlns="http://www.w3.org/2000/svg"><path d="m12 8.53-1.29 4.33h2.61L12 8.53Z"/><path d="M12 2a10 10 0 1 0 0 20 10 10 0 0 0 0-20Zm2.55 15-.73-2.38h-3.64L9.45 17H7.17L10.7 7h2.59l3.54 10h-2.28Z"/></symbol><symbol viewBox="0 0 24 24" id="grade_b" xmlns="http://www.w3.org/2000/svg"><path d="M12 12.59h-1.33v2.61h1.38a2 2 0 0 0 1.3-.34 1.24 1.24 0 0 0 .41-1c0-.86-.59-1.27-1.76-1.27ZM13.15 10.65a1 1 0 0 0 .39-.89.88.88 0 0 0-.42-.82 2.68 2.68 0 0 0-1.33-.25h-1.12v2.22h1.23a2.33 2.33 0 0 0 1.25-.26Z"/><path d="M12 2a10 10 0 1 0 10 10A10 10 0 0 0 12 2Zm3 14.18a4.3 4.3 0 0 1-2.69.77H8.55V7h3.12a6 6 0 0 1 3.08.61 2.09 2.09 0 0 1 1 1.92 2.42 2.42 0 0 1-.46 1.47 1.62 1.62 0 0 1-1.12.69v.07a2.21 2.21 0 0 1 1.37.79 2.61 2.61 0 0 1 .46 1.5 2.53 2.53 0 0 1-1 2.13Z"/></symbol><symbol viewBox="0 0 24 24" id="grade_c" xmlns="http://www.w3.org/2000/svg"><path d="M12 2a10 10 0 1 0 10 10A10 10 0 0 0 12 2Zm.88 13.32a7.73 7.73 0 0 0 2.55-.53v1.78a7.09 7.09 0 0 1-2.75.51 4.19 4.19 0 0 1-3.33-1.32A5.61 5.61 0 0 1 8.19 12a6.23 6.23 0 0 1 .57-2.73 4.05 4.05 0 0 1 1.63-1.79 4.8 4.8 0 0 1 2.49-.63 6.73 6.73 0 0 1 2.93.7l-.69 1.73A10.67 10.67 0 0 0 14 8.77a3.44 3.44 0 0 0-1.12-.2 2.15 2.15 0 0 0-1.85.9 4.18 4.18 0 0 0-.66 2.53c0 2.21.84 3.32 2.51 3.32Z"/></symbol><symbol viewBox="0 0 24 24" id="grade_d" xmlns="http://www.w3.org/2000/svg"><path d="M11.32 8.69H10.2v6.51h.9q3.08 0 3.07-3.29t-2.85-3.22Z"/><path d="M12 2a10 10 0 1 0 10 10A10 10 0 0 0 12 2Zm3 13.64A5.73 5.73 0 0 1 10.91 17H8.08V7h3.13A5.23 5.23 0 0 1 15 8.25a4.71 4.71 0 0 1 1.36 3.6A4.93 4.93 0 0 1 15 15.64Z"/></symbol><symbol viewBox="0 0 24 24" id="grade_f" xmlns="http://www.w3.org/2000/svg"><path d="M12 2a10 10 0 1 0 10 10A10 10 0 0 0 12 2Zm3.14 6.69H11.5v2.58h3.39V13H11.5v4H9.42V7h5.72Z"/></symbol><symbol viewBox="0 0 24 24" id="harmonics" xmlns="http://www.w3.org/2000/svg"><path d="M3 13.003v-2h2v2H3ZM4.612 7.325 3 6.343V4.001l2.653 1.616a.5.5 0 0 0 .56-.027l1.38-1.035c1.43-1.072 3.491-.34 3.925 1.394l2.904 11.617a.5.5 0 0 0 .785.279l1.379-1.034a2.5 2.5 0 0 1 2.804-.133l1.61.984v2.344l-2.653-1.622a.5.5 0 0 0-.561.027l-1.379 1.034c-1.43 1.072-3.491.34-3.925-1.394L9.578 6.434a.5.5 0 0 0-.785-.279L7.413 7.19a2.5 2.5 0 0 1-2.8.135ZM21 11.003h-2v2h2v-2Z"/><path d="M7 11.003h2v2H7v-2ZM17 11.003h-2v2h2v-2Z"/></symbol><symbol viewBox="0 0 24 24" id="health" xmlns="http://www.w3.org/2000/svg"><path fill="none" opacity=".01" d="M0 0h24v24H0z"/><path d="M17.5 13.5h-4v4h-3v-4h-4v-3h4v-4h3v4h4ZM12 2a10 10 0 1 0 10 10A10 10 0 0 0 12 2Z"/></symbol><symbol viewBox="0 0 24 24" id="help_desk_log" xmlns="http://www.w3.org/2000/svg"><path d="M10.19 18.5v-1.326H8.135a4.235 4.235 0 0 1-2.299-.906 4.015 4.015 0 0 1-1.356-2.013l-.194-.353h-.4a.716.716 0 0 1-.434-.221.704.704 0 0 1-.16-.443.658.658 0 0 1 .343-.574l.342-.188v-1.26a.628.628 0 0 1 .309-.454.675.675 0 0 1 .48-.188h6.854a.681.681 0 0 1 .491.188.639.639 0 0 1 .194.476v3.316H9.448a1.008 1.008 0 0 0-.32-.431.997.997 0 0 0-.49-.221 1.178 1.178 0 0 0-.55.066 1.025 1.025 0 0 0-.433.32.955.955 0 0 0-.195.487.912.912 0 0 0 .08.52.959.959 0 0 0 .355.408c.15.105.329.166.514.177h5.22c.363-.003.71-.143.966-.391.257-.249.402-.584.405-.935v-1.327a1.27 1.27 0 0 0-.107-.51 1.305 1.305 0 0 0-.304-.43 1.364 1.364 0 0 0-.96-.387v-1.325a5.243 5.243 0 0 0-1.693-3.602A5.594 5.594 0 0 0 8.14 5.5a5.594 5.594 0 0 0-3.796 1.473 5.243 5.243 0 0 0-1.693 3.602v1.293c-.39.346-.623.826-.651 1.337.002.4.139.787.388 1.106.238.308.563.543.937.674a5.32 5.32 0 0 0 1.86 2.454c.856.625 1.88.994 2.95 1.061h2.056Z"/><path d="M16 2H8a2 2 0 0 0-2 2h9v5h5v11H6a2 2 0 0 0 2 2h12a2 2 0 0 0 2-2V8l-6-6Z"/></symbol><symbol viewBox="0 0 24 24" id="incident" xmlns="http://www.w3.org/2000/svg"><path d="M0 0h24v24H0Z" fill="none"/><path d="M3 12a6 6 0 0 1 4-5.65V4.26a8 8 0 0 0 0 15.48v-2.09A6 6 0 0 1 3 12Z"/><path d="M15 4a8 8 0 1 0 8 8 8 8 0 0 0-8-8Zm0 13a1 1 0 0 1-1-1h2a1 1 0 0 1-1 1Zm4-2h-8v-1l1.33-1v-2.33A2.66 2.66 0 0 1 14 8.2V8a1 1 0 0 1 2 0v.2a2.66 2.66 0 0 1 1.67 2.47V13L19 14Z"/></symbol><symbol viewBox="0 0 24 24" id="incident_active" xmlns="http://www.w3.org/2000/svg"><path d="M0 0h24v24H0Z" fill="none"/><path d="M3 12a6 6 0 0 1 4-5.65V4.26a8 8 0 0 0 0 15.48v-2.09A6 6 0 0 1 3 12Z"/><path d="M15 4a8 8 0 1 0 8 8 8 8 0 0 0-8-8Zm-2.77 2.79.71.71a3.46 3.46 0 0 0-1.44 2.81h-1a4.49 4.49 0 0 1 1.73-3.52ZM15 17a1 1 0 0 1-1-1h2a1 1 0 0 1-1 1Zm4-2h-8v-1l1.33-1v-2.33A2.66 2.66 0 0 1 14 8.2V8a1 1 0 0 1 2 0v.2a2.66 2.66 0 0 1 1.67 2.47V13L19 14Zm-.5-4.69a3.46 3.46 0 0 0-1.44-2.81l.71-.71a4.49 4.49 0 0 1 1.73 3.52Z"/></symbol><symbol viewBox="0 0 24 24" id="incident_maintenance" xmlns="http://www.w3.org/2000/svg"><path fill-rule="evenodd" clip-rule="evenodd" d="M14.94 4a8 8 0 1 0 0 16 8 8 0 0 0 0-16Zm3.92 10.8-1.12 1.12a.4.4 0 0 1-.57 0l-2.73-2.73a2.77 2.77 0 0 1-3.38-3.91l1.88 1.86 1.13-1.13-1.88-1.87a2.77 2.77 0 0 1 3.93 3.37l2.73 2.77a.4.4 0 0 1 0 .52h.01Z"/><path d="M2.94 12a6 6 0 0 1 4-5.65V4.28a8 8 0 0 0 0 15.46v-2.09a6 6 0 0 1-2.9-2.19A6 6 0 0 1 2.94 12Z"/></symbol><symbol viewBox="0 0 24 24" id="incident_resolved" xmlns="http://www.w3.org/2000/svg"><path d="M15 4a8 8 0 1 0 8 8 8 8 0 0 0-8-8Zm0 14a6 6 0 1 1 6-6 6 6 0 0 1-6 6Z"/><path d="M0 0h24v24H0Z" fill="none"/><path d="M3 12a6 6 0 0 1 4-5.65V4.26a8 8 0 0 0 0 15.48v-2.09A6 6 0 0 1 3 12ZM17.67 13v-2.33A2.66 2.66 0 0 0 16 8.2V8a1 1 0 0 0-2 0v.2a2.66 2.66 0 0 0-1.67 2.47V13L11 14v1h8v-1ZM15 17a1 1 0 0 0 1-1h-2a1 1 0 0 0 1 1Z"/></symbol><symbol viewBox="0 0 24 24" id="input_flow" xmlns="http://www.w3.org/2000/svg"><path d="M19 4H9v1.037c1.186.15 1.883.73 2.428 1.185l.012.01c.567.472.932.768 1.76.768.324 0 .578-.045.8-.129V5l3 3-3 3V8.933c-.244.043-.51.067-.8.067-1.562 0-2.397-.696-3.028-1.222l-.012-.01C9.593 7.296 9.228 7 8.4 7s-1.193.296-1.76.768l-.012.01C5.997 8.304 5.162 9 3.6 9A4.18 4.18 0 0 1 2 8.705v-2.34c.482.394.852.635 1.6.635.828 0 1.193-.296 1.76-.768l.012-.01c.41-.342.904-.754 1.628-1.002V4a2 2 0 0 1 2-2h10a2 2 0 0 1 2 2v16a2 2 0 0 1-2 2H9a2 2 0 0 1-2-2v-2.523c.395-.3.758-.477 1.4-.477.231 0 .426.023.6.067V20h10V4Z"/><path d="M8.4 9c.231 0 .426.023.6.067v3.97c1.186.15 1.883.73 2.428 1.185l.012.01c.567.472.932.768 1.76.768.324 0 .578-.045.8-.129V13l3 3-3 3v-2.067c-.244.043-.51.067-.8.067-1.562 0-2.397-.695-3.028-1.222l-.012-.01C9.593 15.296 9.228 15 8.4 15s-1.193.296-1.76.768l-.012.01C5.997 16.305 5.162 17 3.6 17a4.181 4.181 0 0 1-1.6-.295v-2.34c.482.394.852.635 1.6.635.828 0 1.193-.296 1.76-.768l.012-.01c.41-.341.904-.754 1.628-1.002V9.477c.395-.3.758-.477 1.4-.477Z"/></symbol><symbol viewBox="0 0 24 24" id="leaf" xmlns="http://www.w3.org/2000/svg"><path d="M17 8C8 10 5.9 16.17 3.82 21.34l1.89.66 1-2.3A4.49 4.49 0 0 0 8 20C19 20 22 3 22 3c-1 2-8 2.25-13 3.25S2 11.5 2 13.5a6.22 6.22 0 0 0 1.75 3.75C7 8 17 8 17 8Z"/><path fill="none" d="M0 0h24v24H0z"/></symbol><symbol viewBox="0 0 24 24" id="left" xmlns="http://www.w3.org/2000/svg"><path d="M12 2C6.48 2 2 6.48 2 12s4.48 10 10 10 10-4.48 10-10S17.52 2 12 2Zm3 15H9V7h2v8h4v2Z"/></symbol><symbol viewBox="0 0 24 24" id="left_outline" xmlns="http://www.w3.org/2000/svg"><path d="M12 4c4.4 0 8 3.6 8 8s-3.6 8-8 8-8-3.6-8-8 3.6-8 8-8Zm0-2C6.5 2 2 6.5 2 12s4.5 10 10 10 10-4.5 10-10S17.5 2 12 2Z"/><path d="M9 17V7h2v8h4v2H9Z"/></symbol><symbol viewBox="0 0 24 24" id="line_to_line" xmlns="http://www.w3.org/2000/svg"><path d="M2.5 17V7h2.1v8.2h4.1V17H2.5zm7.3-2.9v-1.7h3.7v1.7H9.8zm5.5 2.9V7h2.1v8.2h4.1V17h-6.2z"/></symbol><symbol viewBox="0 0 24 24" id="line_to_neutral" xmlns="http://www.w3.org/2000/svg"><path d="M1.2 17V7h2.1v8.2h4.1V17H1.2Zm7.2-2.9v-1.7h3.7v1.7H8.4ZM22.8 17h-2.7l-4.3-7.6h-.1l.1 7.6h-1.9V7h2.7l4.3 7.5-.1-7.5h1.9v10h.1Z"/></symbol><symbol viewBox="0 0 24 24" id="load_factor" xmlns="http://www.w3.org/2000/svg"><path d="M14.12 2.224 11.2 7.48 8.598 5.398 6.626 10h2.176l.6-1.398L11.148 10h.94l1.79-3.224L15.247 10h2.172l-3.298-7.776ZM19.965 16h-2.172l2.286 5.39 1.841-.78L19.965 16ZM6.23 16H4.056L2.08 20.606l1.838.788L6.231 16ZM3 12h2v2H3v-2ZM7 12h2v2H7v-2ZM11 12h2v2h-2v-2ZM15 12h2v2h-2v-2ZM19 12h2v2h-2v-2Z"/></symbol><symbol viewBox="0 0 24 24" id="maintenance" xmlns="http://www.w3.org/2000/svg"><path fill="none" d="M0 0h24v24H0z"/><path d="M12 2a10 10 0 1 0 10 10A10 10 0 0 0 12 2Zm5.75 14.59-1.25 1.25a.54.54 0 0 1-.76 0l-5-4.95a3.54 3.54 0 0 1-4.4-4.83l2.39 2.33 1.63-1.63L8 6.43a3.6 3.6 0 0 1 4 .7 3.49 3.49 0 0 1 .82 3.75l4.94 4.95a.49.49 0 0 1-.01.76Z"/></symbol><symbol xml:space="preserve" viewBox="0 0 24 24" id="map_marker_multiple" xmlns="http://www.w3.org/2000/svg"><path d="M14 11.5c1.4 0 2.5-1.1 2.5-2.5S15.4 6.5 14 6.5 11.5 7.6 11.5 9s1.1 2.5 2.5 2.5M14 2c3.9 0 7 3.1 7 7 0 5.2-7 13-7 13S7 14.2 7 9c0-3.9 3.1-7 7-7M5 9c0 4.5 5.1 10.7 6 11.8L10 22S3 14.2 3 9c0-3.2 2.1-5.8 5-6.7-1.8 1.6-3 4-3 6.7z"/><path fill="none" d="M0 0h24v24H0z"/></symbol><symbol xml:space="preserve" viewBox="0 0 24 24" id="map_marker_three" xmlns="http://www.w3.org/2000/svg"><path d="M12 11.5c1.4 0 2.5-1.1 2.5-2.5S13.4 6.5 12 6.5 9.5 7.6 9.5 9s1.1 2.5 2.5 2.5M12 2c3.9 0 7 3.1 7 7 0 5.2-7 13-7 13S5 14.2 5 9c0-3.9 3.1-7 7-7M3 9c0 4.5 5.1 10.7 6 11.8L8 22S1 14.2 1 9c0-3.2 2.1-5.8 5-6.7-1.8 1.6-3 4-3 6.7zm15-6.7c2.9.9 5 3.5 5 6.7 0 5.2-7 13-7 13l-1-1.2c.9-1.1 6-7.3 6-11.8 0-2.7-1.2-5.1-3-6.7z"/><path fill="none" d="M0 0h24v24H0z"/></symbol><symbol viewBox="0 0 24 24" id="moisture" xmlns="http://www.w3.org/2000/svg"><path fill="none" d="M0 0h24v24H0z"/><path d="M12 20.2a3 3 0 0 1-3-3c0-2 3-5.4 3-5.4s3 3.4 3 5.4a3 3 0 0 1-3 3ZM7 12.2a3 3 0 0 1-3-3c0-2 3-5.4 3-5.4s3 3.4 3 5.4a3 3 0 0 1-3 3ZM17 12.2a3 3 0 0 1-3-3c0-2 3-5.4 3-5.4s3 3.4 3 5.4a3 3 0 0 1-3 3Z"/></symbol><symbol viewBox="0 0 24 24" id="notification_log" xmlns="http://www.w3.org/2000/svg"><path d="M16 2H8a2 2 0 0 0-2 2h9v5h5v11H6a2 2 0 0 0 2 2h12a2 2 0 0 0 2-2V8l-6-6Z"/><path d="m11.325 14.488 1.366 1.334v.672H2v-.672l1.355-1.334V11.16A4.055 4.055 0 0 1 6.36 6.953v-.456a.998.998 0 1 1 1.995 0v.456a4.066 4.066 0 0 1 2.97 4.207v3.328ZM8.267 18.11a1.334 1.334 0 0 1-2.277-.944h2.667c0 .354-.14.693-.39.943Z"/></symbol><symbol xml:space="preserve" viewBox="0 0 24 24" id="outline_offline_bolt" xmlns="http://www.w3.org/2000/svg"><path fill="none" d="M0 0h24v24H0V0z"/><path d="M12 2C6.5 2 2 6.5 2 12s4.5 10 10 10 10-4.5 10-10S17.5 2 12 2zm0 18c-4.4 0-8-3.6-8-8s3.6-8 8-8 8 3.6 8 8-3.6 8-8 8zm.8-15-4.5 8.5h3.1V19l4.4-8.5h-3V5z"/></symbol><symbol viewBox="0 0 24 24" id="output_flow" xmlns="http://www.w3.org/2000/svg"><path d="M19 9.996V12l3-3-3-3v1.994c-.691-.045-1.04-.33-1.56-.762l-.012-.01C16.797 6.695 15.962 6 14.4 6s-2.397.696-3.028 1.222l-.012.01c-.567.472-.932.768-1.76.768s-1.193-.296-1.76-.768l-.012-.01A7.14 7.14 0 0 0 7 6.602v2.521c.585.442 1.365.877 2.6.877 1.562 0 2.397-.696 3.028-1.222l.012-.01c.567-.472.932-.768 1.76-.768s1.193.296 1.76.768l.012.01c.604.504 1.393 1.162 2.828 1.218ZM7 17.123c.585.442 1.365.877 2.6.877 1.562 0 2.397-.695 3.028-1.222l.012-.01c.567-.472.932-.768 1.76-.768s1.193.296 1.76.768l.012.01c.604.504 1.393 1.162 2.828 1.218V20l3-3-3-3v1.994c-.691-.045-1.04-.33-1.56-.762l-.012-.01C16.797 14.695 15.962 14 14.4 14s-2.397.695-3.028 1.222l-.012.01c-.567.472-.932.768-1.76.768s-1.193-.296-1.76-.768l-.012-.01a7.144 7.144 0 0 0-.828-.62v2.521Z"/><path d="M5 4h10v4.037c.899.113 1.516.474 2 .84V4a2 2 0 0 0-2-2H5a2 2 0 0 0-2 2v16a2 2 0 0 0 2 2h10a2 2 0 0 0 2-2v-.601a7.14 7.14 0 0 1-.828-.62l-.012-.01c-.409-.341-.712-.59-1.16-.702V20H5V4Z"/><path d="M15 16.037c.899.113 1.516.474 2 .84v-5.478a7.14 7.14 0 0 1-.828-.62l-.012-.01c-.409-.341-.712-.59-1.16-.702v5.97Z"/></symbol><symbol viewBox="0 0 24 24" id="overlap" xmlns="http://www.w3.org/2000/svg"><path d="M9 5a7 7 0 1 0 7 7 7 7 0 0 0-7-7Zm0 12a5 5 0 1 1 5-5 5 5 0 0 1-5 5Z"/><path d="M15 5a7 7 0 1 0 7 7 7 7 0 0 0-7-7Zm0 12a5 5 0 1 1 5-5 5 5 0 0 1-5 5Z"/><path fill="none" d="M0 0h24v24H0z"/></symbol><symbol viewBox="0 0 24 24" id="panel_log" xmlns="http://www.w3.org/2000/svg"><path d="M15.991 2H7.979a2.005 2.005 0 0 0-2.003 2h9.013v5h5.008v11H5.976a1.999 1.999 0 0 0 2.003 2h12.018A2.004 2.004 0 0 0 22 20V8l-6.009-6Z"/><path d="M13.017 12.46H8.009V18h5.008v-5.54ZM13.017 6H2v5.54h11.017V6ZM7.008 12.46H2V18h5.008v-5.54Z"/></symbol><symbol viewBox="0 0 24 24" id="phase_angle" xmlns="http://www.w3.org/2000/svg"><path d="M11.9 16.5a4.92 4.92 0 0 0-2.7-4.4l5.5-8L13.1 3 2 19h20v-2H11.9Zm-2 .5H5.8L8 13.7a3.06 3.06 0 0 1 1.9 2.8Zm3.2-6a3 3 0 0 0 3 3h.4v1.5h2V14h.5a3 3 0 0 0 0-6h-.5V6.5h-2V8h-.4a3 3 0 0 0-3 3Zm5.4-1h.5a1 1 0 0 1 0 2h-.5Zm-2.4 0h.4v2h-.4a1 1 0 0 1 0-2Z"/><path fill="none" d="M0 0h24v24H0z"/></symbol><symbol xml:space="preserve" viewBox="0 0 24 24" id="piggy_bank" xmlns="http://www.w3.org/2000/svg"><path d="M13 1c1.7 0 3 1.3 3 3s-1.3 3-3 3-3-1.3-3-3 1.3-3 3-3m7 13c0-2.4-1.8-4.4-4.5-5.4-.5.8-1.4 1.4-2.5 1.4-1.2 0-2.3-.8-2.8-1.8-.2 0-.5.1-.7.1L7 7v2.3c-1.5.9-2.6 2.2-2.9 3.7H2v4h3.1c.5.6 1.2 1.2 1.9 1.7V22h2v-2.4c.9.3 1.9.4 3 .4s2.1-.2 3-.4V22h2v-3.3c1.1-.7 2-1.6 2.5-2.7H22v-2h-2M7 13c-.6 0-1-.4-1-1s.4-1 1-1 1 .4 1 1-.4 1-1 1z"/><path fill="none" d="M0 0h24v24H0z"/></symbol><symbol viewBox="0 0 24 24" id="pipe" xmlns="http://www.w3.org/2000/svg"><path d="M22 14h-2v2h-6v-3h2v-2h-2V6a2 2 0 0 0-2-2H4V2H2v8h2V8h6v3H8v2h2v5a2 2 0 0 0 2 2h8v2h2"/></symbol><symbol viewBox="0 0 24 24" id="pipe_disconnected" xmlns="http://www.w3.org/2000/svg"><path d="M16 9v2H8V9h2V8H4v2H2V2h2v2h8a2 2 0 0 1 2 2v3h2m-6 6v3a2 2 0 0 0 2 2h8v2h2v-8h-2v2h-6v-1h2v-2H8v2h2Z"/></symbol><symbol viewBox="0 0 24 24" id="pipe_leak" xmlns="http://www.w3.org/2000/svg"><path d="M2 5v8h2v-2h6l2-2-2-2H4V5H2m18 0v2h-8l2 2-2 2h8v2h2V5h-2m-8 8s-2 2.17-2 3.5a2 2 0 0 0 2 2 2 2 0 0 0 2-2c0-1.33-2-3.5-2-3.5Z"/></symbol><symbol viewBox="0 0 24 24" id="power_ac" xmlns="http://www.w3.org/2000/svg"><path d="M16.7 22.1H14l-2-8.4-2 8.4H7.3L4.5 11h2.3l1.9 8.9 2.1-8.9H13l2.1 9 1.9-8.9h2.3l-2.6 11ZM16 7.4c-.9 0-1.7-.2-2.5-.5L9.6 5c-1.4-.7-3.7-.3-4.7.8L3.8 7 2.4 5.6l1.1-1.2c1.6-1.8 4.8-2.4 7-1.3l4 1.9c1.4.7 3.7.3 4.7-.8l1-1.2 1.5 1.3-1.1 1.2c-1.1 1.2-2.8 1.9-4.6 1.9Z"/></symbol><symbol viewBox="0 0 24 24" id="power_apparent_ac" xmlns="http://www.w3.org/2000/svg"><path d="M16 7.4c-.9 0-1.7-.2-2.5-.5L9.6 5c-1.4-.7-3.7-.3-4.7.8L3.8 7 2.4 5.6l1.1-1.2c1.6-1.8 4.8-2.4 7-1.3l4 1.9c1.4.7 3.7.3 4.7-.8l1-1.2 1.5 1.3-1.1 1.2c-1.1 1.2-2.8 1.9-4.6 1.9ZM18.9 22.1l-.8-2.7H14l-.8 2.7h-2.6l4-11.4h2.9l4 11.4h-2.6Zm-1.4-4.8L16 12.4l-1.5 4.9h3ZM10.7 10.9h2.4L9.3 22H6.7L3 10.9h2.4L8.1 20l2.6-9.1Z"/></symbol><symbol viewBox="0 0 24 24" id="power_circled" xmlns="http://www.w3.org/2000/svg"><path d="M0 0h24v24H0Z" fill="none"/><path d="M12.63 8.69h-1v3h.71a2.36 2.36 0 0 0 1.48-.39 1.36 1.36 0 0 0 .49-1.14 1.44 1.44 0 0 0-.41-1.12 2 2 0 0 0-1.27-.35Z"/><path d="M12 2a10 10 0 1 0 10 10A10 10 0 0 0 12 2Zm3.48 10.6a4.41 4.41 0 0 1-2.91.86h-.92v3.61H9.5V6.93h3.24a4.29 4.29 0 0 1 2.8.8 2.89 2.89 0 0 1 1 2.36 3.12 3.12 0 0 1-1.06 2.51Z"/></symbol><symbol viewBox="0 0 24 24" id="power_circled_outline" xmlns="http://www.w3.org/2000/svg"><path d="M0 0h24v24H0Z" fill="none"/><path d="M15 7.8a4.18 4.18 0 0 0-2.81-.8H9v10h2.12v-3.56H12a4.32 4.32 0 0 0 2.87-.84 3.11 3.11 0 0 0 1-2.48A2.87 2.87 0 0 0 15 7.8Zm-1.67 3.53a2.36 2.36 0 0 1-1.46.38h-.7v-3h1a2 2 0 0 1 1.27.36 1.41 1.41 0 0 1 .41 1.1 1.38 1.38 0 0 1-.57 1.16Z"/><path d="M12 4a8 8 0 1 1-8 8 8 8 0 0 1 8-8m0-2a10 10 0 1 0 10 10A10 10 0 0 0 12 2Z"/></symbol><symbol viewBox="0 0 24 24" id="power_dc" xmlns="http://www.w3.org/2000/svg"><path d="M2 2v2h20V2H2Zm0 4v2h5V6H2Zm7 0v2h6V6H9Zm8 0v2h5V6h-5Zm-.3 16.1H14l-2-8.4-2 8.4H7.3L4.5 11h2.3l1.9 8.9 2.1-8.9H13l2.1 9 1.9-8.9h2.3l-2.6 11Z"/></symbol><symbol viewBox="0 0 24 24" id="power_factor" xmlns="http://www.w3.org/2000/svg"><path d="M16 4V2h2v2h2v2h-2v2h-2V6h-2V4h2ZM10 4H4v2h6V4Z"/><path fill-rule="evenodd" clip-rule="evenodd" d="M10.736 16.96c.77-.65 1.156-1.59 1.156-2.82 0-1.182-.362-2.07-1.086-2.663-.719-.6-1.77-.899-3.156-.899H4V22h2.422v-4.063h1.04c1.416 0 2.507-.325 3.273-.976ZM7.22 15.954h-.797v-3.39h1.102c.661 0 1.146.135 1.453.406.313.27.469.69.469 1.258 0 .562-.185.992-.555 1.289-.37.291-.927.437-1.672.437Z"/><path d="M14 22h2.383v-4.516h3.875v-1.976h-3.875v-2.945h4.164v-1.985H14V22Z"/></symbol><symbol viewBox="0 0 24 24" id="power_redundancy" xmlns="http://www.w3.org/2000/svg"><path fill-rule="evenodd" clip-rule="evenodd" d="M16 17V9a2 2 0 0 0-2-2h-1V5h1a4 4 0 0 1 4 4v8h2l-3 3-3-3h2ZM8 7v8a2 2 0 0 0 2 2h1v2h-1a4 4 0 0 1-4-4V7H4l3-3 3 3H8Z"/></symbol><symbol viewBox="0 0 24 24" id="power_redundancy_off" xmlns="http://www.w3.org/2000/svg"><path d="M7.999 15V7h2l-3-3-3 3h2v8a4 4 0 0 0 4 4h1v-2h-1a2 2 0 0 1-2-2ZM17.999 13.126V9a4 4 0 0 0-4-4h-1v2h1a2 2 0 0 1 2 2v4.127a4.008 4.008 0 0 1 2 0ZM20.07 15.829l-1.414 1.414 1.414 1.414-1.414 1.415-1.414-1.415-1.414 1.415-1.415-1.415 1.415-1.414-1.415-1.414 1.415-1.414 1.414 1.414 1.414-1.414 1.414 1.414Z"/></symbol><symbol viewBox="0 0 24 24" id="ppe_level" xmlns="http://www.w3.org/2000/svg"><path fill-rule="evenodd" clip-rule="evenodd" d="M12 2 1 21h22L12 2Zm-2 6h3l-2 5 4-2-2 6h1l-2 3-2-3h1l1-3-3 2 1-8Z"/></symbol><symbol viewBox="0 0 24 24" id="ppe_level_two_tone" xmlns="http://www.w3.org/2000/svg"><path fill-rule="evenodd" clip-rule="evenodd" d="M12 2 1 21h22L12 2Z"/><path opacity=".7" fill-rule="evenodd" clip-rule="evenodd" d="M10 8h3l-2 5 4-2-2 6h1l-2 3-2-3h1l1-3-3 2 1-8Z" fill="#001"/></symbol><symbol viewBox="0 0 24 24" id="pressure" xmlns="http://www.w3.org/2000/svg"><path d="M14 19v-1.29a7.89 7.89 0 0 0 3.65-2.06A8.05 8.05 0 0 0 19.93 11a8.24 8.24 0 0 0 .07-1 8.26 8.26 0 0 0-.07-1 8 8 0 0 0-1.28-3.44 4.94 4.94 0 0 0-.35-.45 7.55 7.55 0 0 0-.64-.74h-.06A7.73 7.73 0 0 0 12.05 2H12a8 8 0 0 0-1.54.13 8 8 0 0 0-4.1 2.19 9.32 9.32 0 0 0-.65.76 8.11 8.11 0 0 0-1.56 3.36c0 .18 0 .37-.07.56A8.06 8.06 0 0 0 4 10v.07a7.89 7.89 0 0 0 3.54 6.6A7.85 7.85 0 0 0 10 17.73V19H2v3h20v-3Zm-3.17-3.12a6 6 0 0 1-4.71-4.71 1 1 0 0 1 0-.17H7V9h-.9a6 6 0 0 1 .36-1.3 5.79 5.79 0 0 1 .66-1.16l.64.63 1.41-1.41-.64-.64.14-.12A6 6 0 0 1 11 4.09V5h2v-.91a6.19 6.19 0 0 1 2.47 1l-.64.64 1.41 1.41.64-.64a6.19 6.19 0 0 1 1 2.47H17v2h.91a6 6 0 0 1-3.61 4.54 5.9 5.9 0 0 1-3.47.37Z"/><path d="M10.5 13a1.39 1.39 0 0 0 .5 1.05 1.45 1.45 0 0 0 2.1 0 1.39 1.39 0 0 0 .4-1.05c-.17-1.9-1.5-7.5-1.5-7.5s-1.33 5.6-1.5 7.5Z"/></symbol><symbol viewBox="0 0 24 24" id="pressure_alt" xmlns="http://www.w3.org/2000/svg"><path d="M14 19v-1.27a8 8 0 1 0-4 0V19H2v3h20v-3Zm-7.88-7.83a5.9 5.9 0 0 1 .34-3.47 6 6 0 1 1 7.84 7.84 5.9 5.9 0 0 1-3.47.34 6 6 0 0 1-4.71-4.71ZM11 14.05a1.41 1.41 0 0 1-.5-1.05c.17-1.9 1.5-7.5 1.5-7.5s1.33 5.6 1.5 7.5a1.39 1.39 0 0 1-.45 1.05 1.45 1.45 0 0 1-2.05 0ZM7 10h1v1H7Zm9 0h1v1h-1Zm0-2h-1V7h1ZM8 7h1v1H8Zm3-1h-1V5h1Zm3 0h-1V5h1Z"/><path fill="none" d="M0 0h24v24H0z"/></symbol><symbol viewBox="0 0 24 24" id="priority" xmlns="http://www.w3.org/2000/svg"><path fill="none" d="M0 0h24v24H0z"/><path d="M19 3H5a2 2 0 0 0-2 2v14a2 2 0 0 0 2 2h14a2 2 0 0 0 2-2V5a2 2 0 0 0-2-2Zm-6 10h-2V7h2Zm0 4h-2v-2h2Z"/></symbol><symbol viewBox="0 0 24 24" id="push_notification" xmlns="http://www.w3.org/2000/svg"><path fill="none" d="M0 0h24v24H0z"/><g fill="currentColor"><circle cx="18" cy="6" r="3"/><path d="M17 10.9V19H5V7h8.1a5.47 5.47 0 0 1-.1-1 5.47 5.47 0 0 1 .1-1H5a2 2 0 0 0-2 2v12a2 2 0 0 0 2 2h12a2 2 0 0 0 2-2v-8.1a5.05 5.05 0 0 1-2 0Z"/></g></symbol><symbol viewBox="0 0 24 24" id="push_notification_solid" xmlns="http://www.w3.org/2000/svg"><path fill="none" d="M0 0h24v24H0z"/><g fill="currentColor"><circle cx="18" cy="6" r="3"/><path d="M13 6a5.47 5.47 0 0 1 .1-1H5a2 2 0 0 0-2 2v12a2 2 0 0 0 2 2h12a2 2 0 0 0 2-2v-8.1a5.47 5.47 0 0 1-1 .1 5 5 0 0 1-5-5Z"/></g></symbol><symbol viewBox="0 0 24 24" id="qrcode" xmlns="http://www.w3.org/2000/svg"><path d="M3 11h2v2H3v-2m8-6h2v4h-2V5m-2 6h4v4h-2v-2H9v-2m6 0h2v2h2v-2h2v2h-2v2h2v4h-2v2h-2v-2h-4v2h-2v-4h4v-2h2v-2h-2v-2m4 8v-4h-2v4h2M15 3h6v6h-6V3m2 2v2h2V5h-2M3 3h6v6H3V3m2 2v2h2V5H5M3 15h6v6H3v-6m2 2v2h2v-2Z"/><path fill="none" d="M0 0h24v24H0z"/></symbol><symbol viewBox="0 0 24 24" id="reactive_energy" xmlns="http://www.w3.org/2000/svg"><path d="M22 6h-2v14h-2V6h-2l3-3 3 3ZM4 11.012h4.607v-1.4h-2.91V7.549h2.708v-1.39H5.696V4.402h2.911v-1.39H4v8ZM6 20H4v-1h2v1ZM8 20h3v-1H8v1ZM12.818 11.889l-2.121 2.12-.707-.706 2.121-2.122.707.708ZM13 20h3v-1h-3v1ZM6.278 17.014h1.415l1.59-1.59-.708-.707-2.297 2.297Z"/><path d="m13.525 9.767 1.763-1.763h1.414l-2.47 2.47-.707-.707Z"/></symbol><symbol viewBox="0 0 24 24" id="reactive_power" xmlns="http://www.w3.org/2000/svg"><path fill-rule="evenodd" clip-rule="evenodd" d="M9.527 5.495c0 .861-.27 1.52-.81 1.976-.536.456-1.3.684-2.293.684h-.728V11H4V3h2.555c.97 0 1.708.21 2.211.63.507.415.76 1.037.76 1.865Zm-3.83 1.27h.557c.522 0 .912-.102 1.171-.307.26-.208.389-.509.389-.903 0-.397-.11-.69-.328-.88-.216-.19-.555-.285-1.018-.285h-.772v2.375Z"/><path d="m16 6 3-3 3 3h-2v14h-2V6h-2ZM6 20H4v-1h2v1ZM8 20h3v-1H8v1ZM12.818 11.889l-2.121 2.12-.707-.706 2.121-2.122.707.708ZM13 20h3v-1h-3v1ZM6.278 17.014h1.415l1.59-1.59-.708-.707-2.297 2.297Z"/><path d="m13.525 9.767 1.764-1.763h1.414l-2.47 2.47-.708-.707Z"/></symbol><symbol viewBox="0 0 24 24" id="real_energy" xmlns="http://www.w3.org/2000/svg"><path d="M18.652 4.64 21 2.294v1.414l-1.64 1.64-.708-.706ZM8.607 11.012H4v-8h4.607v1.39h-2.91V6.16h2.708v1.39H5.696v2.063h2.911v1.4ZM19 16l3 3-3 3v-2H4v-2h15v-2ZM21 12.011v3h-1v-3h1ZM21 9.998v-3h-1v3h1ZM14.41 10.298l-2.121 2.121-.707-.707 2.12-2.121.708.707ZM15.824 8.883l2.122-2.12-.708-.708-2.12 2.121.706.707ZM7.286 16.008H8.7l2.175-2.175-.708-.707-2.881 2.882Z"/></symbol><symbol viewBox="0 0 24 24" id="real_power" xmlns="http://www.w3.org/2000/svg"><path d="M18.653 4.64 21 2.294v1.414l-1.64 1.64-.707-.706Z"/><path fill-rule="evenodd" clip-rule="evenodd" d="M9.527 5.495c0 .861-.27 1.52-.81 1.976-.536.456-1.3.684-2.293.684h-.728V11H4V3h2.555c.97 0 1.708.21 2.211.63.507.415.76 1.037.76 1.865Zm-3.83 1.27h.557c.522 0 .912-.102 1.171-.307.26-.208.389-.509.389-.903 0-.397-.11-.69-.328-.88-.216-.19-.555-.285-1.018-.285h-.772v2.375Z"/><path d="m19 16 3 3-3 3v-2H4v-2h15v-2ZM21 12.011v3h-1v-3h1ZM21 9.998v-3h-1v3h1ZM14.41 10.298l-2.121 2.121-.707-.707 2.12-2.121.708.707ZM15.824 8.883l2.122-2.12-.708-.708-2.12 2.121.706.707ZM7.286 16.008H8.7l2.175-2.175-.708-.707-2.881 2.882Z"/></symbol><symbol viewBox="0 0 24 24" id="right" xmlns="http://www.w3.org/2000/svg"><path d="M11 9h3v2h-3V9Z"/><path fill-rule="evenodd" clip-rule="evenodd" d="M12 22c5.523 0 10-4.477 10-10S17.523 2 12 2 2 6.477 2 12s4.477 10 10 10ZM9 7h5a2 2 0 0 1 2 2v2a2 2 0 0 1-1.615 1.963L16 17h-2l-1.5-4H11v4H9V7Z"/></symbol><symbol viewBox="0 0 24 24" id="right_outline" xmlns="http://www.w3.org/2000/svg"><path d="M12 2C6.5 2 2 6.5 2 12s4.5 10 10 10 10-4.5 10-10S17.5 2 12 2Zm0 18c-4.4 0-8-3.6-8-8s3.6-8 8-8 8 3.6 8 8-3.6 8-8 8Zm2-13H9v10h2v-4h1.5l1.5 4h2l-1.61-4.04c.92-.18 1.61-.99 1.61-1.96V9c0-1.1-.9-2-2-2Zm0 4h-3V9h3v2Z"/></symbol><symbol viewBox="0 0 24 24" id="running_high" xmlns="http://www.w3.org/2000/svg"><path fill="none" d="M0 0h24v24H0z"/><path d="M12 6v3l4-4-4-4v3a8 8 0 0 0-8 8 8.92 8.92 0 0 0 1.2 4.3l1.5-1.5A5.28 5.28 0 0 1 6 12a6 6 0 0 1 6-6ZM18.8 7.7l-1.5 1.5A6.51 6.51 0 0 1 18 12a6 6 0 0 1-6 6v-3l-4 4 4 4v-3a8 8 0 0 0 8-8 8.92 8.92 0 0 0-1.2-4.3Z"/><path d="M15 15V9h-2v2h-2V9H9v6h2v-2h2v2h2z"/></symbol><symbol viewBox="0 0 24 24" id="running_low" xmlns="http://www.w3.org/2000/svg"><path fill="none" d="M0 0h24v24H0z"/><path d="M12 1v3a8 8 0 0 0-8 8 8.92 8.92 0 0 0 1.2 4.3l1.5-1.5A5.28 5.28 0 0 1 6 12a6 6 0 0 1 6-6v3l4-4ZM18.8 7.7l-1.5 1.5A6.51 6.51 0 0 1 18 12a6 6 0 0 1-6 6v-3l-4 4 4 4v-3a8 8 0 0 0 8-8 8.92 8.92 0 0 0-1.2-4.3Z"/><path d="M15 13h-3V9h-2v6h5v-2z"/></symbol><symbol viewBox="0 0 24 24" id="scan_qrcode" xmlns="http://www.w3.org/2000/svg"><path d="M4 4h6v6H4V4m16 0v6h-6V4h6m-6 11h2v-2h-2v-2h2v2h2v-2h2v2h-2v2h2v3h-2v2h-2v-2h-3v2h-2v-4h3v-1m2 0v3h2v-3h-2M4 20v-6h6v6H4M6 6v2h2V6H6m10 0v2h2V6h-2M6 16v2h2v-2H6m-2-5h2v2H4v-2m5 0h4v4h-2v-2H9v-2m2-5h2v4h-2V6M2 2v4H0V2a2 2 0 0 1 2-2h4v2H2m20-2a2 2 0 0 1 2 2v4h-2V2h-4V0h4M2 18v4h4v2H2a2 2 0 0 1-2-2v-4h2m20 4v-4h2v4a2 2 0 0 1-2 2h-4v-2Z"/></symbol><symbol viewBox="0 0 24 24" id="sequence" xmlns="http://www.w3.org/2000/svg"><path d="M13.5 4.5a1.5 1.5 0 0 1-.75 1.3v7.792l7.067 4.572a1.5 1.5 0 1 1-.815 1.26L12 14.894l-7.002 4.53L5 19.5a1.5 1.5 0 1 1-.816-1.336l7.066-4.572V5.799A1.5 1.5 0 1 1 13.5 4.5Z"/><path d="M8.07 11.807a4.5 4.5 0 0 1 1.976-1.86l-.652-1.352a6 6 0 0 0-3.162 7.056l1.337-.866a4.505 4.505 0 0 1 .501-2.978ZM9.466 17.719a4.503 4.503 0 0 0 5.064.002l1.338.866a5.998 5.998 0 0 1-7.739-.003l1.337-.865ZM17.768 15.65a6 6 0 0 0-.767-4.964l1.192-1.192h-3.5v3.5l1.219-1.219a4.5 4.5 0 0 1 .519 3.01l1.337.866Z"/></symbol><symbol viewBox="0 0 24 24" id="stopped" xmlns="http://www.w3.org/2000/svg"><path d="m21.41 7.27-4.68-4.68A2 2 0 0 0 15.31 2H8.69a2 2 0 0 0-1.42.59L2.59 7.27A2 2 0 0 0 2 8.69v6.62a2 2 0 0 0 .59 1.42l4.68 4.68a2 2 0 0 0 1.42.59h6.62a2 2 0 0 0 1.42-.59l4.68-4.68a2 2 0 0 0 .59-1.42V8.69a2 2 0 0 0-.59-1.42Zm-1.41 8L15.31 20H8.69L4 15.31V8.69L8.69 4h6.62L20 8.69Z"/><path d="M9.52 6 6 9.52v4.96L9.52 18h4.96L18 14.48V9.52L14.48 6H9.52z"/><path fill="none" d="M0 0h24v24H0z"/></symbol><symbol viewBox="0 0 24 24" id="stopping" xmlns="http://www.w3.org/2000/svg"><path d="M6.1 13h-2c.2 1.5.8 2.8 1.6 3.9l1.4-1.4c-.5-.7-.9-1.6-1-2.5zM7.1 8.5 5.7 7.1C4.8 8.2 4.3 9.5 4.1 11h2c.1-.9.5-1.7 1-2.5zM18.3 7.1l-1.4 1.4c.7 1 1.1 2.2 1.1 3.5 0 3.3-2.7 6-6 6-1.3 0-2.5-.4-3.5-1.1l-1.4 1.4C8.5 19.4 10.2 20 12 20c4.4 0 8-3.6 8-8 0-1.8-.6-3.5-1.7-4.9zM11 6.1V10l4.5-4.5L11 1v3.1c-1.5.2-2.8.7-3.9 1.6l1.4 1.4c.8-.5 1.6-.9 2.5-1z"/><path fill="none" d="M0 0h24v24H0z"/></symbol><symbol viewBox="0 0 24 24" id="support" xmlns="http://www.w3.org/2000/svg"><path fill="none" d="M0 0h24v24H0z"/><path d="M12 2a8 8 0 0 0-8 8v1.9A2.92 2.92 0 0 0 3 14a2.88 2.88 0 0 0 1.94 2.61C6.24 19.72 8.85 22 12 22h3v-2h-3c-2.26 0-4.31-1.7-5.34-4.39l-.21-.55-.59-.06A1 1 0 0 1 5 14a1 1 0 0 1 .5-.86l.5-.29V11a1 1 0 0 1 1-1h10a1 1 0 0 1 1 1v5h-4.09a1.5 1.5 0 1 0-1.52 2H20a2 2 0 0 0 2-2v-2a2 2 0 0 0-2-2v-2a8 8 0 0 0-8-8Z"/></symbol><symbol viewBox="0 0 24 24" id="temp" xmlns="http://www.w3.org/2000/svg"><path d="M17 17a5 5 0 1 1-8-4V5a3 3 0 0 1 6 0v8a5 5 0 0 1 2 4m-6-9v6.17a3 3 0 1 0 2 0V8h-2"/><path fill="none" d="M0 0h24v24H0z"/></symbol><symbol viewBox="0 0 24 24" id="toggle_off" xmlns="http://www.w3.org/2000/svg"><path d="M17 7H7a5 5 0 0 0 0 10h10a5 5 0 0 0 0-10ZM7 15a3 3 0 1 1 3-3 3 3 0 0 1-3 3Z"/><path d="M0 0h24v24H0Z" fill="none"/></symbol><symbol viewBox="0 0 24 24" id="toggle_off_outlined" xmlns="http://www.w3.org/2000/svg"><path d="M7 10a2 2 0 1 1-2 2 2 2 0 0 1 2-2m10-3a5 5 0 0 1 0 10H7A5 5 0 1 1 7 7h10M7 9a3 3 0 0 0 0 6h10a3 3 0 0 0 0-6Z"/><path fill="none" d="M0 0h24v24H0z"/></symbol><symbol viewBox="0 0 24 24" id="toggle_on" xmlns="http://www.w3.org/2000/svg"><path d="M17 7H7a5 5 0 0 0 0 10h10a5 5 0 0 0 0-10Zm0 8a3 3 0 1 1 3-3 3 3 0 0 1-3 3Z"/><path d="M0 0h24v24H0Z" fill="none"/></symbol><symbol viewBox="0 0 24 24" id="toggle_on_outlined" xmlns="http://www.w3.org/2000/svg"><path d="M17 10a2 2 0 1 1-2 2 2 2 0 0 1 2-2m0-3a5 5 0 0 1 0 10H7A5 5 0 1 1 7 7h10M7 9a3 3 0 0 0 0 6h10a3 3 0 0 0 0-6Z"/><path fill="none" d="M0 0h24v24H0z"/></symbol><symbol viewBox="0 0 24 24" id="trending_down" xmlns="http://www.w3.org/2000/svg"><path fill="none" d="M0 24h24V0H0Z"/><path d="m14.5 20 2.04-2.04L4 5.41 5.41 4l12.55 12.54L20 14.5V20Z"/></symbol><symbol viewBox="0 0 24 24" id="trending_flat" xmlns="http://www.w3.org/2000/svg"><path d="M0 0h24v24H0Z" fill="none"/><path d="m22 12-4-4v3H3v2h15v3Z"/></symbol><symbol viewBox="0 0 24 24" id="trending_up" xmlns="http://www.w3.org/2000/svg"><path fill="none" d="M0 0h24v24H0Z"/><path d="m14.5 4 2.04 2.04L4 18.59 5.41 20 17.96 7.46 20 9.5V4Z"/></symbol><symbol viewBox="0 0 24 24" id="tripped" xmlns="http://www.w3.org/2000/svg"><path fill="none" d="M0 0h24v24H0z"/><path d="M23 14v2h-6v-2Zm-9-5.07-1.41-1.42-.7-.7-7.08 7.07-.1.12H1v2h6v-.07l7-7Z"/></symbol><symbol viewBox="0 0 24 24" id="video_alert" xmlns="http://www.w3.org/2000/svg"><path d="M17 10.5V7a1 1 0 0 0-1-1H4a1 1 0 0 0-1 1v10a1 1 0 0 0 1 1h12a1 1 0 0 0 1-1v-3.5l4 4v-11l-4 4ZM10.001 15a.61.61 0 0 1-.61-.62h1.23a.622.622 0 0 1-.62.62Zm2.46-.92h-4.92v-.31l.62-.62v-1.53a1.87 1.87 0 0 1 1.38-1.95v-.21a.47.47 0 0 1 .46-.46.46.46 0 0 1 .46.46v.21a1.88 1.88 0 0 1 1.39 1.95v1.53l.61.62v.31Z"/></symbol><symbol viewBox="0 0 24 24" id="video_alert_outline" xmlns="http://www.w3.org/2000/svg"><path d="M10 15a.62.62 0 0 0 .62-.62H9.38A.62.62 0 0 0 10 15ZM12.46 13.77l-.61-.62v-1.53a1.88 1.88 0 0 0-1.39-1.95v-.21a.46.46 0 0 0-.92 0v.21a1.88 1.88 0 0 0-1.39 1.95v1.53l-.61.62v.31h4.92v-.31Z"/><path d="M17 10.5V7a1 1 0 0 0-1-1H4a1 1 0 0 0-1 1v10a1 1 0 0 0 1 1h12a1 1 0 0 0 1-1v-3.5l4 4v-11l-4 4ZM15 16H5V8h10v8Z"/></symbol><symbol viewBox="0 0 24 24" id="video_streaming" xmlns="http://www.w3.org/2000/svg"><path d="M17 10.5V7a1 1 0 0 0-1-1H4a1 1 0 0 0-1 1v10a1 1 0 0 0 1 1h12a1 1 0 0 0 1-1v-3.5l4 4v-11l-4 4ZM8 15V9l4.5 3L8 15Z"/></symbol><symbol viewBox="0 0 24 24" id="video_streaming_outline" xmlns="http://www.w3.org/2000/svg"><path d="M17 10.5V7a1 1 0 0 0-1-1H4a1 1 0 0 0-1 1v10a1 1 0 0 0 1 1h12a1 1 0 0 0 1-1v-3.5l4 4v-11l-4 4ZM15 16H5V8h10v8Z"/><path d="M8 9v6l4.5-3L8 9Z"/></symbol><symbol viewBox="0 0 24 24" id="vmms" xmlns="http://www.w3.org/2000/svg"><path d="M20 5v14h-2V5Zm0-2h-2a2 2 0 0 0-2 2v14a2 2 0 0 0 2 2h2a2 2 0 0 0 2-2V5a2 2 0 0 0-2-2ZM13 5v14h-2V5Zm0-2h-2a2 2 0 0 0-2 2v14a2 2 0 0 0 2 2h2a2 2 0 0 0 2-2V5a2 2 0 0 0-2-2ZM6 3H4a2 2 0 0 0-2 2v14a2 2 0 0 0 2 2h2a2 2 0 0 0 2-2V5a2 2 0 0 0-2-2ZM4 7V5h2v2Z"/><path fill="none" d="M0 0h24v24H0z"/></symbol><symbol viewBox="0 0 24 24" id="voltage" xmlns="http://www.w3.org/2000/svg"><path d="M9 11H2v2h7v-2zM19.5 8.5h-2V11H15v2h2.5v2.5h2V13H22v-2h-2.5V8.5z"/><path d="M9 11H2v2h7v-2zM19.5 8.5h-2V11H15v2h2.5v2.5h2V13H22v-2h-2.5V8.5z"/><path d="M0 0h24v24H0Z" fill="none"/></symbol><symbol viewBox="0 0 24 24" id="voltage_ac" xmlns="http://www.w3.org/2000/svg"><path d="M16 7.4c-.9 0-1.7-.2-2.5-.5L9.6 5c-1.4-.7-3.7-.3-4.7.8L3.8 7 2.4 5.6l1.1-1.2c1.6-1.8 4.8-2.4 7-1.3l4 1.9c1.4.7 3.7.3 4.7-.8l1-1.2 1.5 1.3-1.1 1.2c-1.1 1.2-2.8 1.9-4.6 1.9ZM14.6 10.9H17L13.2 22h-2.6L6.9 10.9h2.4L12 20l2.6-9.1Z"/></symbol><symbol viewBox="0 0 24 24" id="voltage_circled" xmlns="http://www.w3.org/2000/svg"><path d="M0 0h24v24H0Z" fill="none"/><path d="M12 2a10 10 0 1 0 10 10A10 10 0 0 0 12 2Zm-1 11H4v-2h7Zm6.5 0v2.5h-2V13H13v-2h2.5V8.5h2V11H20v2Z"/></symbol><symbol viewBox="0 0 24 24" id="voltage_circled_outline" xmlns="http://www.w3.org/2000/svg"><path d="M12 4a8 8 0 1 1-8 8 8 8 0 0 1 8-8m0-2a10 10 0 1 0 10 10A10 10 0 0 0 12 2Z"/><path d="M11 11H6v2h5v-2zM18 11h-5v2h5v-2z"/><path d="M16.5 9.5h-2v5h2v-5z"/><path d="M0 0h24v24H0Z" fill="none"/></symbol><symbol viewBox="0 0 24 24" id="voltage_dc" xmlns="http://www.w3.org/2000/svg"><path d="M2 2v2h20V2H2Zm0 4v2h5V6H2Zm7 0v2h6V6H9Zm8 0v2h5V6h-5ZM14.6 10.9H17L13.2 22h-2.6L6.9 10.9h2.4L12 20l2.6-9.1Z"/></symbol><symbol viewBox="0 0 24 24" id="water" xmlns="http://www.w3.org/2000/svg"><path d="M12 20a6 6 0 0 1-6-6c0-4 6-10.8 6-10.8S18 10 18 14a6 6 0 0 1-6 6Z"/><path fill="none" d="M0 0h24v24H0z"/></symbol><symbol fill="none" viewBox="0 0 24 24" id="water_energy" xmlns="http://www.w3.org/2000/svg"><path d="M11 18h1l4-6h-3V8h-1l-4 6h3v4Zm1 4c-2.283 0-4.188-.783-5.713-2.35C4.763 18.083 4 16.133 4 13.8c0-1.667.662-3.48 1.987-5.438C7.313 6.405 9.317 4.284 12 2c2.683 2.283 4.688 4.404 6.012 6.363C19.337 10.32 20 12.133 20 13.8c0 2.333-.762 4.283-2.288 5.85C16.188 21.217 14.283 22 12 22Z"/></symbol><symbol viewBox="0 0 24 24" id="water_outline" xmlns="http://www.w3.org/2000/svg"><path d="M12 6.36c2 2.58 4 5.87 4 7.64a4 4 0 0 1-8 0c0-1.77 2-5.06 4-7.64m0-3.16S6 10 6 14a6 6 0 0 0 12 0c0-4-6-10.8-6-10.8Z"/><path fill="none" d="M0 0h24v24H0z"/></symbol><symbol viewBox="0 0 24 24" id="waveform" xmlns="http://www.w3.org/2000/svg"><path fill="none" d="M0 0h24v24H0z"/><path d="M20.84 16.35a1 1 0 0 1-1-.75l-1.39-5.54a.49.49 0 0 0-1 0l-1.09 4.36a2.5 2.5 0 0 1-4.86 0l-1.09-4.36a.49.49 0 0 0-1 0l-.98 4.36a2.5 2.5 0 0 1-4.86 0L2.15 8.74a1 1 0 0 1 1.95-.48l1.42 5.68a.49.49 0 0 0 1 0l1.05-4.36a2.5 2.5 0 0 1 4.86 0l1.09 4.36a.49.49 0 0 0 1 0l1.09-4.36a2.5 2.5 0 0 1 4.86 0l1.38 5.53a1 1 0 0 1-1 1.24Z" fill="currentColor"/></symbol></svg>