<?xml version="1.0" encoding="utf-8"?><svg xmlns="http://www.w3.org/2000/svg" xmlns:xlink="http://www.w3.org/1999/xlink"><symbol viewBox="0 0 24 24" id="database" xmlns="http://www.w3.org/2000/svg"><path d="M12 3C7.58 3 4 4.79 4 7s3.58 4 8 4 8-1.79 8-4-3.58-4-8-4ZM4 9v3c0 2.21 3.58 4 8 4s8-1.79 8-4V9c0 2.21-3.58 4-8 4s-8-1.79-8-4Zm0 5v3c0 2.21 3.58 4 8 4s8-1.79 8-4v-3c0 2.21-3.58 4-8 4s-8-1.79-8-4Z"/></symbol><symbol viewBox="0 0 24 24" id="face_id" xmlns="http://www.w3.org/2000/svg"><path d="M22.872 8.436c.743 0 1.128-.413 1.128-1.156V4.1C24 1.39 22.61 0 19.858 0h-3.18c-.742 0-1.155.413-1.155 1.142 0 .716.413 1.129 1.156 1.129h3.096c1.253 0 1.968.674 1.968 1.981V7.28c0 .743.4 1.156 1.129 1.156Zm-21.744 0c.744 0 1.143-.413 1.143-1.156V4.252c0-1.307.701-1.981 1.968-1.981h3.096c.73 0 1.142-.413 1.142-1.129C8.477.412 8.064 0 7.335 0H4.156C1.404 0 0 1.39 0 4.1v3.18c0 .743.413 1.156 1.128 1.156Zm9.854 5.931h.123c1.322 0 2.037-.716 2.037-2.037v-4.1c0-.51-.344-.854-.853-.854-.537 0-.867.344-.867.853v4.198c0 .123-.083.192-.206.192h-.427a.84.84 0 0 0-.853.854c0 .564.385.894 1.046.894Zm-3.647-3.055c.633 0 1.073-.44 1.073-1.073V8.463c0-.633-.44-1.073-1.073-1.073-.606 0-1.046.454-1.046 1.073v1.776c0 .633.44 1.073 1.046 1.073Zm9.344 0c.605 0 1.06-.44 1.06-1.073V8.463c0-.619-.455-1.073-1.06-1.073-.633 0-1.073.44-1.073 1.073v1.776c0 .633.44 1.073 1.073 1.073Zm-4.72 7.032c1.569 0 3.165-.674 4.293-1.803.165-.151.248-.371.248-.646 0-.496-.385-.854-.867-.854-.261 0-.44.083-.688.358-.702.73-1.844 1.239-2.986 1.239-1.101 0-2.23-.482-2.987-1.239-.206-.206-.385-.358-.701-.358-.482 0-.867.358-.867.854 0 .233.082.44.261.633 1.046 1.197 2.697 1.816 4.294 1.816ZM4.156 24h3.179c.73 0 1.142-.4 1.142-1.128 0-.73-.413-1.129-1.142-1.129H4.239c-1.267 0-1.968-.674-1.968-1.995V16.72c0-.73-.413-1.142-1.143-1.142C.4 15.578 0 15.991 0 16.72v3.18C0 22.623 1.404 24 4.156 24Zm12.523 0h3.179C22.61 24 24 22.624 24 19.9v-3.18c0-.73-.4-1.142-1.128-1.142-.744 0-1.129.413-1.129 1.142v3.028c0 1.32-.715 1.995-1.968 1.995H16.68c-.743 0-1.156.4-1.156 1.129S15.936 24 16.679 24Z"/></symbol><symbol viewBox="0 0 24 24" id="file_csv" xmlns="http://www.w3.org/2000/svg"><path d="M19.2 9.33V6.67L12.34 0h-9.6C2.02 0 1.32.28.81.78.29 1.28 0 1.96 0 2.67v18.66c0 .71.29 1.39.81 1.89.51.5 1.21.78 1.93.78h13.72c.72 0 1.42-.28 1.93-.78.52-.5.81-1.18.81-1.89V20H24V9.33h-4.8Zm-7.54-7.17 5.32 5.17h-5.32V2.16Zm10.97 16.51H6.17v-8h16.46v8Zm-1.11-6.45-1.7 5h-1.15l-1.7-5h1.07l.94 2.98c.06.17.11.38.16.61.06.23.1.39.11.49.02-.21.11-.58.26-1.1l.94-2.98h1.07Zm-5.32 3.61c0 .45-.17.81-.49 1.07-.33.26-.78.39-1.36.39-.53 0-1-.1-1.41-.3V16c.34.15.62.26.85.32.24.06.45.09.65.09.23 0 .41-.04.53-.13.12-.09.19-.22.19-.4 0-.1-.03-.18-.09-.26a.87.87 0 0 0-.24-.22c-.1-.07-.32-.18-.64-.34-.31-.14-.54-.28-.69-.41s-.28-.29-.37-.46c-.09-.18-.13-.38-.13-.62 0-.44.15-.79.44-1.04.31-.25.72-.38 1.25-.38.26 0 .51.03.74.09.24.06.48.15.74.26l-.34.83c-.27-.11-.49-.19-.66-.23-.18-.05-.35-.07-.52-.07-.2 0-.35.05-.46.14-.1.1-.16.22-.16.37 0 .09.02.17.07.24.04.07.11.14.2.21.1.06.32.18.68.34.46.23.78.45.96.68.17.22.26.5.26.82Zm-5.79.58c.35 0 .77-.09 1.27-.27v.89c-.41.17-.87.26-1.37.26-.73 0-1.29-.22-1.67-.66-.39-.44-.58-1.08-.58-1.9 0-.52.09-.98.28-1.37s.46-.69.82-.9c.35-.21.77-.31 1.25-.31s.97.12 1.46.35l-.34.86c-.19-.09-.38-.16-.57-.23s-.37-.1-.55-.1c-.4 0-.71.15-.93.45-.22.3-.33.72-.33 1.25 0 1.12.42 1.68 1.26 1.68Z" fill-rule="evenodd"/></symbol><symbol viewBox="0 0 24 24" id="file_doc" xmlns="http://www.w3.org/2000/svg"><path d="M19.2 6.667 12.344 0h-9.6A2.792 2.792 0 0 0 .806.783 2.638 2.638 0 0 0 0 2.667v18.666c.002.707.292 1.384.806 1.884s1.21.78 1.937.783h13.714a2.791 2.791 0 0 0 1.938-.784c.514-.5.803-1.176.806-1.883V20H24V9.333h-4.8V6.667ZM11.658 2.16l5.32 5.173h-5.32V2.16Zm10.972 8.507v8H6.172v-8h16.457Z"/><path d="M12.294 14.62c0 .852-.243 1.504-.73 1.957-.483.453-1.183.68-2.098.68H8v-5.176h1.625c.845 0 1.5.223 1.968.67.467.446.701 1.069.701 1.869Zm-1.14.028c0-1.112-.49-1.667-1.472-1.667h-.585v3.37h.471c1.058 0 1.586-.568 1.586-1.703ZM17.484 14.662c0 .857-.212 1.515-.637 1.975-.425.46-1.034.69-1.827.69-.793 0-1.401-.23-1.826-.69-.425-.46-.637-1.12-.637-1.982 0-.861.212-1.519.637-1.972.427-.455 1.038-.683 1.833-.683.796 0 1.404.229 1.824.687.422.458.633 1.116.633 1.975Zm-3.777 0c0 .578.11 1.014.33 1.306.219.293.547.44.983.44.876 0 1.314-.582 1.314-1.746 0-1.166-.436-1.749-1.306-1.749-.437 0-.766.148-.988.443-.222.293-.333.728-.333 1.306ZM20.175 12.92c-.413 0-.733.156-.959.468-.227.309-.34.74-.34 1.295 0 1.154.433 1.731 1.3 1.731.363 0 .803-.09 1.32-.272v.92c-.425.177-.9.266-1.423.266-.753 0-1.329-.228-1.728-.683-.399-.458-.598-1.114-.598-1.969 0-.538.098-1.009.294-1.412.196-.406.476-.716.842-.931.368-.217.8-.326 1.292-.326.503 0 1.008.122 1.515.365l-.354.892a5.875 5.875 0 0 0-.584-.24 1.742 1.742 0 0 0-.577-.104Z"/></symbol><symbol viewBox="0 0 24 24" id="file_pdf" xmlns="http://www.w3.org/2000/svg"><path d="M19.2 6.67 12.34 0h-9.6A2.77 2.77 0 0 0 .81.78 2.62 2.62 0 0 0 0 2.67v18.66a2.62 2.62 0 0 0 .81 1.89 2.77 2.77 0 0 0 1.93.78h13.72a2.77 2.77 0 0 0 1.93-.78 2.62 2.62 0 0 0 .81-1.89V20H24V9.33h-4.8Zm-7.54-4.51L17 7.33h-5.34Zm11 8.51v8H6.17v-8Z"/><path d="M11.76 13.69a1.71 1.71 0 0 1-.12.71 1.58 1.58 0 0 1-.43.59 2.41 2.41 0 0 1-1.56.46h-.5v1.89H8V12h1.76a2.22 2.22 0 0 1 1.5.42 1.67 1.67 0 0 1 .38.58 1.6 1.6 0 0 1 .12.69Zm-2.64.85h.39a1.29 1.29 0 0 0 .79-.21.9.9 0 0 0 .21-.27.88.88 0 0 0 .07-.32.89.89 0 0 0-.05-.32 1 1 0 0 0-.17-.27 1 1 0 0 0-.69-.15h-.52v1.57ZM17.33 14.65a2.7 2.7 0 0 1-.16 1.09 2.64 2.64 0 0 1-.61.93 3.13 3.13 0 0 1-2.22.7h-1.57V12h1.73a3 3 0 0 1 2.09.7 2.47 2.47 0 0 1 .74 1.92Zm-1.21 0c0-1.14-.52-1.7-1.56-1.7h-.64v3.46h.5a1.53 1.53 0 0 0 1.7-1.76ZM19.6 17.37h-1.15V12h3.16v1h-2v1.38h1.87v.94H19.6Z"/></symbol><symbol viewBox="0 0 24 24" id="lock_level_1" xmlns="http://www.w3.org/2000/svg"><path fill-rule="evenodd" clip-rule="evenodd" d="M12 1c2.76 0 5 2.24 5 5v2h1c1.1 0 2 .9 2 2v10c0 1.1-.9 2-2 2H6c-1.1 0-2-.9-2-2V10c0-1.1.9-2 2-2h1V6c0-2.76 2.24-5 5-5Zm-.075 10.148-2.696 2.197 1.101 1.353.892-.736c.075-.068.152-.141.23-.22.082-.079.17-.174.264-.285-.01.186-.02.396-.027.629a41.15 41.15 0 0 0-.005.639V19h2.153v-7.852h-1.912ZM12 3c-1.71 0-3 1.29-3 3v2h6V6c0-1.71-1.29-3-3-3Z"/></symbol><symbol viewBox="0 0 24 24" id="lock_level_1_outline" xmlns="http://www.w3.org/2000/svg"><path d="M18 8h-1V6c0-2.76-2.24-5-5-5S7 3.24 7 6v2H6c-1.1 0-2 .9-2 2v10c0 1.1.9 2 2 2h12c1.1 0 2-.9 2-2V10c0-1.1-.9-2-2-2ZM8.9 6c0-1.71 1.39-3.1 3.1-3.1 1.71 0 3.1 1.39 3.1 3.1v2H8.9V6ZM18 20H6V10h12v10Z"/><path d="M13.753 19h-2.056V14.919c0-.185.002-.388.006-.61.007-.222.015-.422.025-.6a3.427 3.427 0 0 1-.25.272 6.052 6.052 0 0 1-.221.21l-.851.702-1.052-1.292 2.574-2.097h1.825V19Z"/></symbol><symbol viewBox="0 0 24 24" id="lock_level_2" xmlns="http://www.w3.org/2000/svg"><path fill-rule="evenodd" clip-rule="evenodd" d="M12 1c2.76 0 5 2.24 5 5v2h1c1.1 0 2 .9 2 2v10c0 1.1-.9 2-2 2H6c-1.1 0-2-.9-2-2V10c0-1.1.9-2 2-2h1V6c0-2.76 2.24-5 5-5Zm.032 10.035c-.519 0-.96.061-1.321.183-.362.121-.675.28-.94.472a8.92 8.92 0 0 0-.751.602l1.165 1.364c.318-.276.603-.483.854-.623.254-.143.505-.215.752-.215.204 0 .381.052.531.156.15.104.226.272.226.505 0 .19-.044.372-.134.547-.09.176-.246.39-.468.64-.218.25-.526.584-.923.999l-1.918 1.939V19h5.699v-1.751h-2.97v-.054l.574-.515c.498-.451.913-.854 1.246-1.208.333-.358.583-.715.747-1.07.168-.358.252-.764.252-1.218 0-.412-.107-.78-.322-1.102a2.176 2.176 0 0 0-.913-.768c-.39-.186-.852-.279-1.386-.279ZM12 3c-1.71 0-3 1.29-3 3v2h6V6c0-1.71-1.29-3-3-3Z"/></symbol><symbol viewBox="0 0 24 24" id="lock_level_2_outline" xmlns="http://www.w3.org/2000/svg"><path d="M18 8h-1V6c0-2.76-2.24-5-5-5S7 3.24 7 6v2H6c-1.1 0-2 .9-2 2v10c0 1.1.9 2 2 2h12c1.1 0 2-.9 2-2V10c0-1.1-.9-2-2-2ZM8.9 6c0-1.71 1.39-3.1 3.1-3.1 1.71 0 3.1 1.39 3.1 3.1v2H8.9V6ZM18 20H6V10h12v10Z"/><path d="M14.676 19h-5.44v-1.333l1.83-1.85c.38-.397.674-.715.883-.954.212-.24.36-.443.446-.61.085-.168.128-.342.128-.524 0-.222-.072-.382-.215-.481a.87.87 0 0 0-.508-.15c-.236 0-.475.07-.718.206-.239.133-.51.332-.815.595l-1.112-1.303c.225-.201.464-.393.717-.574.253-.184.552-.335.898-.451.345-.116.765-.174 1.26-.174.51 0 .951.089 1.324.266.376.178.666.422.871.733.205.308.308.658.308 1.051 0 .435-.08.823-.241 1.164a3.989 3.989 0 0 1-.713 1.02c-.318.339-.714.724-1.19 1.154l-.548.492v.052h2.835V19Z"/></symbol><symbol viewBox="0 0 24 24" id="lock_level_3" xmlns="http://www.w3.org/2000/svg"><path fill-rule="evenodd" clip-rule="evenodd" d="M12 1c2.76 0 5 2.24 5 5v2h1c1.1 0 2 .9 2 2v10c0 1.1-.9 2-2 2H6c-1.1 0-2-.9-2-2V10c0-1.1.9-2 2-2h1V6c0-2.76 2.24-5 5-5Zm-.065 10.035c-.68 0-1.231.077-1.654.23a5.101 5.101 0 0 0-1.117.565l.88 1.418c.08-.05.197-.114.35-.193.154-.079.335-.15.543-.215.207-.065.43-.097.665-.097.265 0 .48.05.64.15.16.1.241.255.241.462 0 .161-.051.305-.155.43-.104.122-.274.219-.51.29-.233.072-.55.108-.95.108h-.495v1.594h.483c.451 0 .797.035 1.037.103.243.068.41.165.5.29.089.125.133.277.133.456a.709.709 0 0 1-.284.59c-.186.148-.537.221-1.053.221a4.49 4.49 0 0 1-.988-.123 4.646 4.646 0 0 1-1.048-.392v1.762a6.48 6.48 0 0 0 1.042.311 6.43 6.43 0 0 0 1.3.112c.76 0 1.381-.105 1.864-.316.484-.215.84-.5 1.069-.855.229-.358.343-.751.343-1.181 0-.555-.172-.982-.515-1.283-.34-.305-.824-.497-1.45-.575v-.033c.311-.086.598-.215.859-.387a1.96 1.96 0 0 0 .634-.66c.16-.272.242-.594.242-.966 0-.566-.233-1.01-.698-1.332-.462-.323-1.098-.484-1.908-.484ZM12 3c-1.71 0-3 1.29-3 3v2h6V6c0-1.71-1.29-3-3-3Z"/></symbol><symbol viewBox="0 0 24 24" id="lock_level_3_outline" xmlns="http://www.w3.org/2000/svg"><path d="M18 8h-1V6c0-2.76-2.24-5-5-5S7 3.24 7 6v2H6c-1.1 0-2 .9-2 2v10c0 1.1.9 2 2 2h12c1.1 0 2-.9 2-2V10c0-1.1-.9-2-2-2ZM8.9 6c0-1.71 1.39-3.1 3.1-3.1 1.71 0 3.1 1.39 3.1 3.1v2H8.9V6ZM18 20H6V10h12v10Z"/><path d="M14.425 13.13c0 .355-.077.663-.23.922-.151.257-.353.467-.606.631-.25.164-.523.287-.82.37v.03c.598.075 1.06.258 1.384.549.328.287.492.695.492 1.225 0 .41-.109.786-.328 1.128-.218.338-.559.61-1.02.815-.461.202-1.054.302-1.779.302-.485 0-.899-.035-1.24-.107a6.176 6.176 0 0 1-.995-.297v-1.682c.324.167.658.292 1 .374.345.079.66.118.943.118.492 0 .827-.07 1.005-.21a.676.676 0 0 0 .271-.564.73.73 0 0 0-.128-.436c-.085-.12-.244-.212-.476-.277-.23-.065-.56-.097-.99-.097h-.461V14.4h.471c.383 0 .686-.034.908-.102.225-.069.388-.161.487-.277.099-.12.148-.257.148-.41a.483.483 0 0 0-.23-.441c-.154-.096-.357-.144-.61-.144-.226 0-.438.03-.636.092s-.371.13-.518.206a4.394 4.394 0 0 0-.333.184l-.841-1.354a4.868 4.868 0 0 1 1.066-.538c.404-.147.93-.22 1.58-.22.772 0 1.379.153 1.82.461.444.308.666.732.666 1.272Z"/></symbol><symbol viewBox="0 0 24 24" id="lock_open_right" xmlns="http://www.w3.org/2000/svg"><path d="M12 17c.55 0 1.02-.196 1.412-.587.392-.392.588-.863.588-1.413s-.196-1.02-.588-1.412A1.926 1.926 0 0 0 12 13c-.55 0-1.02.196-1.412.588A1.926 1.926 0 0 0 10 15c0 .55.196 1.02.588 1.413.391.391.862.587 1.412.587Zm-6 5c-.55 0-1.02-.196-1.412-.587A1.926 1.926 0 0 1 4 20V10c0-.55.196-1.02.588-1.412A1.926 1.926 0 0 1 6 8h7V6c0-1.383.488-2.563 1.463-3.538C15.438 1.487 16.617 1 18 1s2.563.488 3.538 1.462C22.512 3.438 23 4.617 23 6h-2c0-.833-.292-1.542-.875-2.125A2.893 2.893 0 0 0 18 3c-.833 0-1.542.292-2.125.875A2.893 2.893 0 0 0 15 6v2h3c.55 0 1.02.196 1.413.588.391.391.587.862.587 1.412v10c0 .55-.196 1.02-.587 1.413A1.926 1.926 0 0 1 18 22H6Z"/></symbol><symbol viewBox="0 0 24 24" id="lock_open_right_outline" xmlns="http://www.w3.org/2000/svg"><path d="M6 20h12V10H6v10Zm6-3c.55 0 1.02-.196 1.412-.587.392-.392.588-.863.588-1.413s-.196-1.02-.588-1.412A1.926 1.926 0 0 0 12 13c-.55 0-1.02.196-1.412.588A1.926 1.926 0 0 0 10 15c0 .55.196 1.02.588 1.413.391.391.862.587 1.412.587Zm-6 5c-.55 0-1.02-.196-1.412-.587A1.926 1.926 0 0 1 4 20V10c0-.55.196-1.02.588-1.412A1.926 1.926 0 0 1 6 8h7V6c0-1.383.488-2.563 1.463-3.538C15.438 1.487 16.617 1 18 1s2.563.488 3.538 1.462C22.512 3.438 23 4.617 23 6h-2c0-.833-.292-1.542-.875-2.125A2.893 2.893 0 0 0 18 3c-.833 0-1.542.292-2.125.875A2.893 2.893 0 0 0 15 6v2h3c.55 0 1.02.196 1.413.588.391.391.587.862.587 1.412v10c0 .55-.196 1.02-.587 1.413A1.926 1.926 0 0 1 18 22H6Z"/></symbol><symbol viewBox="0 0 24 24" id="man_off" xmlns="http://www.w3.org/2000/svg"><path d="m21.9 21.9-1.415 1.414L14 16.828V22h-4v-7H8v-4.172L.686 3.515 2.101 2.1 21.9 21.9ZM10 7h4c.55 0 1.021.196 1.413.588.391.391.587.862.587 1.412v4.172L9.835 7.007C9.89 7.003 9.944 7 10 7ZM10.588 2.587A1.926 1.926 0 0 1 12 2c.55 0 1.02.196 1.412.587C13.804 2.98 14 3.45 14 4s-.196 1.02-.587 1.412A1.927 1.927 0 0 1 12 6.001c-.55 0-1.021-.197-1.413-.589A1.926 1.926 0 0 1 10 4c0-.55.196-1.02.588-1.413Z"/></symbol><symbol viewBox="0 0 24 24" id="size_l" xmlns="http://www.w3.org/2000/svg"><path d="M8.15 18.75V5.9h3.472v10.046h4.948v2.804H8.15Z"/></symbol><symbol viewBox="0 0 24 24" id="size_m" xmlns="http://www.w3.org/2000/svg"><path d="M10.286 18.75 7.658 9.495H7.58c.024.24.047.566.07.976.03.41.056.852.08 1.327.023.475.035.931.035 1.37v5.582H4.687V5.9h4.624l2.68 9.123h.07L14.69 5.9h4.631v12.85h-3.19v-5.634c0-.404.006-.838.017-1.3l.053-1.319c.024-.416.044-.744.062-.984h-.08l-2.592 9.237h-3.305Z"/></symbol><symbol viewBox="0 0 24 24" id="size_s" xmlns="http://www.w3.org/2000/svg"><path d="M16.597 14.848c0 .697-.176 1.359-.528 1.986-.351.621-.9 1.125-1.643 1.512-.739.386-1.694.58-2.866.58a13.32 13.32 0 0 1-1.546-.08 7.032 7.032 0 0 1-1.23-.254c-.382-.123-.777-.281-1.187-.475v-3.094c.697.352 1.4.622 2.109.809.709.182 1.35.273 1.925.273.346 0 .627-.041.844-.124.222-.082.386-.193.492-.333a.836.836 0 0 0 .158-.502.75.75 0 0 0-.237-.562c-.153-.158-.399-.322-.739-.492-.34-.17-.788-.381-1.344-.633a13.829 13.829 0 0 1-1.292-.686c-.381-.234-.71-.5-.985-.8a3.266 3.266 0 0 1-.624-1.063c-.146-.404-.22-.882-.22-1.432 0-.827.203-1.518.607-2.075.41-.562.979-.984 1.705-1.265.732-.282 1.576-.422 2.531-.422.838 0 1.591.094 2.26.281.673.188 1.277.401 1.81.642l-1.064 2.68a10.776 10.776 0 0 0-1.626-.597 5.43 5.43 0 0 0-1.485-.229c-.299 0-.545.038-.738.114a.919.919 0 0 0-.422.29.708.708 0 0 0-.132.422c0 .2.076.378.228.536.159.159.42.332.783.519.369.182.87.419 1.503.712.627.281 1.16.586 1.6.914.439.322.773.712 1.001 1.169.235.451.352 1.01.352 1.679Z"/></symbol><symbol viewBox="0 0 24 24" id="size_xl" xmlns="http://www.w3.org/2000/svg"><path d="M13.213 18.75H9.196l-2.505-4.017-2.478 4.017H.284l4.263-6.574L.539 5.9h3.85l2.32 3.973L8.941 5.9h3.964l-4.07 6.548 4.378 6.302ZM14.663 18.75V5.9h3.472v10.046h4.948v2.804h-8.42Z"/></symbol><symbol viewBox="0 0 24 24" id="size_xs" xmlns="http://www.w3.org/2000/svg"><path d="M13.213 18.75H9.196l-2.505-4.017-2.478 4.017H.284l4.263-6.574L.539 5.9h3.85l2.32 3.973L8.941 5.9h3.964l-4.07 6.548 4.378 6.302ZM23.25 14.848c0 .697-.176 1.359-.527 1.986-.352.621-.9 1.125-1.644 1.512-.738.386-1.693.58-2.865.58-.586 0-1.102-.027-1.547-.08a7.032 7.032 0 0 1-1.23-.254c-.381-.123-.777-.281-1.187-.475v-3.094c.697.352 1.4.622 2.11.809.708.182 1.35.273 1.924.273.346 0 .627-.041.844-.124.223-.082.387-.193.492-.333a.836.836 0 0 0 .158-.502.75.75 0 0 0-.237-.562c-.152-.158-.398-.322-.738-.492-.34-.17-.788-.381-1.345-.633a13.827 13.827 0 0 1-1.292-.686c-.38-.234-.709-.5-.984-.8a3.267 3.267 0 0 1-.624-1.063c-.147-.404-.22-.882-.22-1.432 0-.827.202-1.518.606-2.075.41-.562.979-.984 1.705-1.265.733-.282 1.577-.422 2.532-.422.838 0 1.59.094 2.258.281.674.188 1.278.401 1.811.642l-1.064 2.68a10.772 10.772 0 0 0-1.625-.597 5.43 5.43 0 0 0-1.486-.229c-.299 0-.545.038-.738.114a.919.919 0 0 0-.422.29.708.708 0 0 0-.132.422c0 .2.076.378.229.536.158.159.419.332.782.519.37.182.87.419 1.503.712.627.281 1.16.586 1.6.914.439.322.773.712 1.001 1.169.235.451.352 1.01.352 1.679Z"/></symbol><symbol viewBox="0 0 24 24" id="unlock_level_1" xmlns="http://www.w3.org/2000/svg"><path d="M12 1c2.76 0 5 2.24 5 5v2h1c1.1 0 2 .9 2 2v10c0 1.1-.9 2-2 2H6c-1.1 0-2-.9-2-2V10c0-1.1.9-2 2-2h9V6c0-1.66-1.34-3-3-3S9 4.34 9 6H7c0-2.76 2.24-5 5-5Zm-.071 10.505-2.575 2.097 1.051 1.292.852-.703a6.091 6.091 0 0 0 .472-.482c-.01.178-.019.377-.026.6-.003.222-.006.425-.006.61V19h2.057v-7.495h-1.825Z"/></symbol><symbol viewBox="0 0 24 24" id="unlock_level_1_outline" xmlns="http://www.w3.org/2000/svg"><path fill-rule="evenodd" clip-rule="evenodd" d="M18 8h-1V6c0-2.76-2.24-5-5-5S7 3.24 7 6h2c0-1.66 1.34-3 3-3s3 1.34 3 3v2H6c-1.1 0-2 .9-2 2v10c0 1.1.9 2 2 2h12c1.1 0 2-.9 2-2V10c0-1.1-.9-2-2-2ZM6 20V10h12v10H6Z"/><path d="M13.753 19h-2.056V14.919c0-.185.002-.388.006-.61.007-.222.015-.422.025-.6a3.427 3.427 0 0 1-.25.272 6.052 6.052 0 0 1-.221.21l-.851.702-1.052-1.292 2.574-2.097h1.825V19Z"/></symbol><symbol viewBox="0 0 24 24" id="unlock_level_2" xmlns="http://www.w3.org/2000/svg"><path d="M12 1c2.76 0 5 2.24 5 5v2h1c1.1 0 2 .9 2 2v10c0 1.1-.9 2-2 2H6c-1.1 0-2-.9-2-2V10c0-1.1.9-2 2-2h9V6c0-1.66-1.34-3-3-3S9 4.34 9 6H7c0-2.76 2.24-5 5-5Zm.031 10.396c-.495 0-.916.06-1.261.175a3.294 3.294 0 0 0-.898.452 8.52 8.52 0 0 0-.718.574l1.114 1.301c.304-.262.575-.461.814-.594.243-.137.482-.205.718-.205.195 0 .364.05.508.149.143.1.215.26.215.482 0 .18-.043.355-.128.523-.086.167-.234.37-.446.61-.208.239-.502.557-.882.953l-1.83 1.851V19h5.44v-1.67H11.84v-.053l.549-.492c.475-.43.871-.815 1.19-1.153.317-.342.555-.682.712-1.02.16-.342.241-.73.241-1.165 0-.393-.102-.743-.307-1.05a2.079 2.079 0 0 0-.873-.734c-.372-.178-.813-.267-1.322-.267Z"/></symbol><symbol viewBox="0 0 24 24" id="unlock_level_2_outline" xmlns="http://www.w3.org/2000/svg"><path fill-rule="evenodd" clip-rule="evenodd" d="M18 8h-1V6c0-2.76-2.24-5-5-5S7 3.24 7 6h2c0-1.66 1.34-3 3-3s3 1.34 3 3v2H6c-1.1 0-2 .9-2 2v10c0 1.1.9 2 2 2h12c1.1 0 2-.9 2-2V10c0-1.1-.9-2-2-2ZM6 20V10h12v10H6Z"/><path d="M14.676 19h-5.44v-1.333l1.83-1.85c.38-.397.674-.715.883-.954.212-.24.36-.443.446-.61.085-.168.128-.342.128-.524 0-.222-.072-.382-.215-.481a.87.87 0 0 0-.508-.15c-.236 0-.475.07-.718.206-.239.133-.51.332-.815.595l-1.112-1.303c.225-.201.464-.393.717-.574.253-.184.552-.335.898-.451.345-.116.765-.174 1.26-.174.51 0 .951.089 1.324.266.376.178.666.422.871.733.205.308.308.658.308 1.051 0 .435-.08.823-.241 1.164a3.989 3.989 0 0 1-.713 1.02c-.318.339-.714.724-1.19 1.154l-.548.492v.052h2.835V19Z"/></symbol><symbol viewBox="0 0 24 24" id="unlock_level_3" xmlns="http://www.w3.org/2000/svg"><path d="M12 1c2.76 0 5 2.24 5 5v2h1c1.1 0 2 .9 2 2v10c0 1.1-.9 2-2 2H6c-1.1 0-2-.9-2-2V10c0-1.1.9-2 2-2h9V6c0-1.66-1.34-3-3-3S9 4.34 9 6H7c0-2.76 2.24-5 5-5Zm-.062 10.396c-.649 0-1.175.074-1.579.221-.4.147-.755.326-1.066.538l.84 1.354c.076-.048.187-.11.334-.185.147-.075.32-.143.518-.205.198-.061.41-.092.636-.092.253 0 .456.048.61.144a.483.483 0 0 1 .23.44c0 .154-.05.29-.149.41-.099.117-.26.21-.486.278-.222.068-.525.102-.908.102h-.472v1.523h.462c.43 0 .76.033.99.098.232.064.39.156.476.276.085.12.129.266.129.436a.677.677 0 0 1-.273.564c-.177.14-.512.21-1.004.21a4.278 4.278 0 0 1-1.943-.492v1.681c.321.127.653.226.994.298a6.14 6.14 0 0 0 1.242.107c.724 0 1.317-.1 1.778-.302.461-.205.802-.476 1.02-.815.219-.341.328-.718.329-1.128 0-.53-.165-.938-.493-1.225-.324-.29-.786-.474-1.383-.549v-.03c.297-.082.57-.205.82-.37a1.87 1.87 0 0 0 .604-.63c.154-.26.23-.568.23-.923 0-.54-.221-.964-.665-1.272-.441-.307-1.048-.462-1.82-.462Z"/></symbol><symbol viewBox="0 0 24 24" id="unlock_level_3_outline" xmlns="http://www.w3.org/2000/svg"><path fill-rule="evenodd" clip-rule="evenodd" d="M18 8h-1V6c0-2.76-2.24-5-5-5S7 3.24 7 6h2c0-1.66 1.34-3 3-3s3 1.34 3 3v2H6c-1.1 0-2 .9-2 2v10c0 1.1.9 2 2 2h12c1.1 0 2-.9 2-2V10c0-1.1-.9-2-2-2ZM6 20V10h12v10H6Z"/><path d="M14.425 13.13c0 .355-.077.663-.23.922-.151.257-.353.467-.606.631-.25.164-.523.287-.82.37v.03c.598.075 1.06.258 1.384.549.328.287.492.695.492 1.225 0 .41-.109.786-.328 1.128-.218.338-.559.61-1.02.815-.461.202-1.054.302-1.779.302-.485 0-.899-.035-1.24-.107a6.176 6.176 0 0 1-.995-.297v-1.682c.324.167.658.292 1 .374.345.079.66.118.943.118.492 0 .827-.07 1.005-.21a.676.676 0 0 0 .271-.564.73.73 0 0 0-.128-.436c-.085-.12-.244-.212-.476-.277-.23-.065-.56-.097-.99-.097h-.461V14.4h.471c.383 0 .686-.034.908-.102.225-.069.388-.161.487-.277.099-.12.148-.257.148-.41a.483.483 0 0 0-.23-.441c-.154-.096-.357-.144-.61-.144-.226 0-.438.03-.636.092s-.371.13-.518.206a4.394 4.394 0 0 0-.333.184l-.841-1.354a4.868 4.868 0 0 1 1.066-.538c.404-.147.93-.22 1.58-.22.772 0 1.379.153 1.82.461.444.308.666.732.666 1.272Z"/></symbol><symbol viewBox="0 0 24 24" id="unlock_right_level_1" xmlns="http://www.w3.org/2000/svg"><path d="M6 22c-.55 0-1.02-.196-1.412-.587A1.926 1.926 0 0 1 4 20V10c0-.55.196-1.02.588-1.412A1.926 1.926 0 0 1 6 8h7V6c0-1.383.488-2.563 1.463-3.538C15.438 1.487 16.617 1 18 1s2.563.488 3.538 1.462C22.512 3.438 23 4.617 23 6h-2c0-.833-.292-1.542-.875-2.125A2.893 2.893 0 0 0 18 3c-.833 0-1.542.292-2.125.875A2.893 2.893 0 0 0 15 6v2h3c.55 0 1.02.196 1.413.588.391.391.587.862.587 1.412v10c0 .55-.196 1.02-.587 1.413A1.926 1.926 0 0 1 18 22H6Z"/><path d="m9.229 13.345 2.696-2.197h1.912V19h-2.153v-4.275c0-.194 0-.406.005-.64.007-.232.016-.442.027-.628a3.581 3.581 0 0 1-.264.285 6.338 6.338 0 0 1-.23.22l-.892.736-1.101-1.353Z"/></symbol><symbol viewBox="0 0 24 24" id="unlock_right_level_1_outline" xmlns="http://www.w3.org/2000/svg"><path d="M6 20h12V10H6v10Zm0 2c-.55 0-1.02-.196-1.412-.587A1.926 1.926 0 0 1 4 20V10c0-.55.196-1.02.588-1.412A1.926 1.926 0 0 1 6 8h7V6c0-1.383.488-2.563 1.463-3.538C15.438 1.487 16.617 1 18 1s2.563.488 3.538 1.462C22.512 3.438 23 4.617 23 6h-2c0-.833-.292-1.542-.875-2.125A2.893 2.893 0 0 0 18 3c-.833 0-1.542.292-2.125.875A2.893 2.893 0 0 0 15 6v2h3c.55 0 1.02.196 1.413.588.391.391.587.862.587 1.412v10c0 .55-.196 1.02-.587 1.413A1.926 1.926 0 0 1 18 22H6Z"/><path d="M13.753 19h-2.056V14.919c0-.185.002-.388.006-.61.007-.222.015-.422.025-.6a3.427 3.427 0 0 1-.25.272 6.052 6.052 0 0 1-.221.21l-.851.702-1.052-1.292 2.574-2.097h1.825V19Z"/></symbol><symbol viewBox="0 0 24 24" id="unlock_right_level_2" xmlns="http://www.w3.org/2000/svg"><path fill-rule="evenodd" clip-rule="evenodd" d="M18 1c1.383 0 2.562.488 3.537 1.463C22.512 3.438 23 4.617 23 6h-2c0-.833-.292-1.542-.875-2.125A2.893 2.893 0 0 0 18 3c-.833 0-1.542.292-2.125.875A2.893 2.893 0 0 0 15 6v2h3c.55 0 1.02.196 1.412.588.392.392.588.862.588 1.412v10c0 .55-.196 1.02-.588 1.412A1.925 1.925 0 0 1 18 22H6c-.55 0-1.02-.196-1.412-.588A1.925 1.925 0 0 1 4 20V10c0-.55.196-1.02.588-1.412A1.925 1.925 0 0 1 6 8h7V6c0-1.383.488-2.562 1.463-3.537C15.438 1.488 16.617 1 18 1Zm-5.968 10.035c-.519 0-.96.061-1.321.183-.362.121-.675.28-.94.472a8.92 8.92 0 0 0-.751.602l1.165 1.364c.318-.276.603-.483.854-.623.254-.143.505-.215.752-.215.204 0 .381.052.531.156.15.104.226.272.226.505 0 .19-.044.372-.134.547-.09.176-.246.39-.468.64-.218.25-.526.584-.923.999l-1.918 1.939V19h5.699v-1.751h-2.97v-.054l.574-.515c.498-.451.913-.854 1.246-1.208.333-.358.583-.715.747-1.07.168-.358.252-.764.252-1.218 0-.412-.107-.78-.322-1.102a2.176 2.176 0 0 0-.913-.768c-.39-.186-.852-.279-1.386-.279Z"/></symbol><symbol viewBox="0 0 24 24" id="unlock_right_level_2_outline" xmlns="http://www.w3.org/2000/svg"><path d="M6 20h12V10H6v10Zm0 2c-.55 0-1.02-.196-1.412-.587A1.926 1.926 0 0 1 4 20V10c0-.55.196-1.02.588-1.412A1.926 1.926 0 0 1 6 8h7V6c0-1.383.488-2.563 1.463-3.538C15.438 1.487 16.617 1 18 1s2.563.488 3.538 1.462C22.512 3.438 23 4.617 23 6h-2c0-.833-.292-1.542-.875-2.125A2.893 2.893 0 0 0 18 3c-.833 0-1.542.292-2.125.875A2.893 2.893 0 0 0 15 6v2h3c.55 0 1.02.196 1.413.588.391.391.587.862.587 1.412v10c0 .55-.196 1.02-.587 1.413A1.926 1.926 0 0 1 18 22H6Z"/><path d="M14.676 19h-5.44v-1.333l1.83-1.85c.38-.397.674-.715.883-.954.212-.24.36-.443.446-.61.085-.168.128-.342.128-.524 0-.222-.072-.382-.215-.481a.87.87 0 0 0-.508-.15c-.236 0-.475.07-.718.206-.239.133-.51.332-.815.595l-1.112-1.303c.225-.201.464-.393.717-.574.253-.184.552-.335.898-.451.345-.116.765-.174 1.26-.174.51 0 .951.089 1.324.266.376.178.666.422.871.733.205.308.308.658.308 1.051 0 .435-.08.823-.241 1.164a3.989 3.989 0 0 1-.713 1.02c-.318.339-.714.724-1.19 1.154l-.548.492v.052h2.835V19Z"/></symbol><symbol viewBox="0 0 24 24" id="unlock_right_level_3" xmlns="http://www.w3.org/2000/svg"><path fill-rule="evenodd" clip-rule="evenodd" d="M18 1c1.383 0 2.562.488 3.537 1.463C22.512 3.438 23 4.617 23 6h-2c0-.833-.292-1.542-.875-2.125A2.893 2.893 0 0 0 18 3c-.833 0-1.542.292-2.125.875A2.893 2.893 0 0 0 15 6v2h3c.55 0 1.02.196 1.412.588.392.392.588.862.588 1.412v10c0 .55-.196 1.02-.588 1.412A1.925 1.925 0 0 1 18 22H6c-.55 0-1.02-.196-1.412-.588A1.925 1.925 0 0 1 4 20V10c0-.55.196-1.02.588-1.412A1.925 1.925 0 0 1 6 8h7V6c0-1.383.488-2.562 1.463-3.537C15.438 1.488 16.617 1 18 1Zm-6.065 10.035c-.68 0-1.231.077-1.654.23a5.101 5.101 0 0 0-1.117.565l.88 1.418c.08-.05.197-.114.35-.193.154-.079.335-.15.543-.215.207-.065.43-.097.665-.097.265 0 .48.05.64.15.16.1.241.255.241.462 0 .161-.051.305-.155.43-.104.122-.274.219-.51.29-.233.072-.55.108-.95.108h-.495v1.594h.483c.451 0 .797.035 1.037.103.243.068.41.165.5.29.089.125.133.277.133.456a.709.709 0 0 1-.284.59c-.186.148-.537.221-1.053.221a4.49 4.49 0 0 1-.988-.123 4.646 4.646 0 0 1-1.048-.392v1.762a6.48 6.48 0 0 0 1.042.311 6.43 6.43 0 0 0 1.3.112c.76 0 1.381-.105 1.864-.316.484-.215.84-.5 1.069-.855.229-.358.343-.751.343-1.181 0-.555-.172-.983-.515-1.283-.34-.305-.824-.497-1.45-.575v-.033c.311-.086.598-.215.859-.387a1.96 1.96 0 0 0 .634-.66c.16-.272.242-.594.242-.966 0-.566-.233-1.01-.698-1.332-.462-.323-1.098-.484-1.908-.484Z"/></symbol><symbol viewBox="0 0 24 24" id="unlock_right_level_3_outline" xmlns="http://www.w3.org/2000/svg"><path d="M6 20h12V10H6v10Zm0 2c-.55 0-1.02-.196-1.412-.587A1.926 1.926 0 0 1 4 20V10c0-.55.196-1.02.588-1.412A1.926 1.926 0 0 1 6 8h7V6c0-1.383.488-2.563 1.463-3.538C15.438 1.487 16.617 1 18 1s2.563.488 3.538 1.462C22.512 3.438 23 4.617 23 6h-2c0-.833-.292-1.542-.875-2.125A2.893 2.893 0 0 0 18 3c-.833 0-1.542.292-2.125.875A2.893 2.893 0 0 0 15 6v2h3c.55 0 1.02.196 1.413.588.391.391.587.862.587 1.412v10c0 .55-.196 1.02-.587 1.413A1.926 1.926 0 0 1 18 22H6Z"/><path d="M14.425 13.13c0 .355-.077.663-.23.922-.151.257-.353.467-.606.631-.25.164-.523.287-.82.37v.03c.598.075 1.06.258 1.384.549.328.287.492.695.492 1.225 0 .41-.109.786-.328 1.128-.218.338-.559.61-1.02.815-.461.202-1.054.302-1.779.302-.485 0-.899-.035-1.24-.107a6.176 6.176 0 0 1-.995-.297v-1.682c.324.167.658.292 1 .374.345.079.66.118.943.118.492 0 .827-.07 1.005-.21a.676.676 0 0 0 .271-.564.73.73 0 0 0-.128-.436c-.085-.12-.244-.212-.476-.277-.23-.065-.56-.097-.99-.097h-.461V14.4h.471c.383 0 .686-.034.908-.102.225-.069.388-.161.487-.277.099-.12.148-.257.148-.41a.483.483 0 0 0-.23-.441c-.154-.096-.357-.144-.61-.144-.226 0-.438.03-.636.092s-.371.13-.518.206a4.394 4.394 0 0 0-.333.184l-.841-1.354a4.868 4.868 0 0 1 1.066-.538c.404-.147.93-.22 1.58-.22.772 0 1.379.153 1.82.461.444.308.666.732.666 1.272Z"/></symbol></svg>