<?xml version="1.0" encoding="utf-8"?><svg xmlns="http://www.w3.org/2000/svg" xmlns:xlink="http://www.w3.org/1999/xlink"><symbol viewBox="0 0 24 24" id="database" xmlns="http://www.w3.org/2000/svg"><path d="M12 3C7.58 3 4 4.79 4 7s3.58 4 8 4 8-1.79 8-4-3.58-4-8-4ZM4 9v3c0 2.21 3.58 4 8 4s8-1.79 8-4V9c0 2.21-3.58 4-8 4s-8-1.79-8-4Zm0 5v3c0 2.21 3.58 4 8 4s8-1.79 8-4v-3c0 2.21-3.58 4-8 4s-8-1.79-8-4Z"/></symbol><symbol viewBox="0 0 24 24" id="face_id" xmlns="http://www.w3.org/2000/svg"><path d="M22.872 8.436c.743 0 1.128-.413 1.128-1.156V4.1C24 1.39 22.61 0 19.858 0h-3.18c-.742 0-1.155.413-1.155 1.142 0 .716.413 1.129 1.156 1.129h3.096c1.253 0 1.968.674 1.968 1.981V7.28c0 .743.4 1.156 1.129 1.156Zm-21.744 0c.744 0 1.143-.413 1.143-1.156V4.252c0-1.307.701-1.981 1.968-1.981h3.096c.73 0 1.142-.413 1.142-1.129C8.477.412 8.064 0 7.335 0H4.156C1.404 0 0 1.39 0 4.1v3.18c0 .743.413 1.156 1.128 1.156Zm9.854 5.931h.123c1.322 0 2.037-.716 2.037-2.037v-4.1c0-.51-.344-.854-.853-.854-.537 0-.867.344-.867.853v4.198c0 .123-.083.192-.206.192h-.427a.84.84 0 0 0-.853.854c0 .564.385.894 1.046.894Zm-3.647-3.055c.633 0 1.073-.44 1.073-1.073V8.463c0-.633-.44-1.073-1.073-1.073-.606 0-1.046.454-1.046 1.073v1.776c0 .633.44 1.073 1.046 1.073Zm9.344 0c.605 0 1.06-.44 1.06-1.073V8.463c0-.619-.455-1.073-1.06-1.073-.633 0-1.073.44-1.073 1.073v1.776c0 .633.44 1.073 1.073 1.073Zm-4.72 7.032c1.569 0 3.165-.674 4.293-1.803.165-.151.248-.371.248-.646 0-.496-.385-.854-.867-.854-.261 0-.44.083-.688.358-.702.73-1.844 1.239-2.986 1.239-1.101 0-2.23-.482-2.987-1.239-.206-.206-.385-.358-.701-.358-.482 0-.867.358-.867.854 0 .233.082.44.261.633 1.046 1.197 2.697 1.816 4.294 1.816ZM4.156 24h3.179c.73 0 1.142-.4 1.142-1.128 0-.73-.413-1.129-1.142-1.129H4.239c-1.267 0-1.968-.674-1.968-1.995V16.72c0-.73-.413-1.142-1.143-1.142C.4 15.578 0 15.991 0 16.72v3.18C0 22.623 1.404 24 4.156 24Zm12.523 0h3.179C22.61 24 24 22.624 24 19.9v-3.18c0-.73-.4-1.142-1.128-1.142-.744 0-1.129.413-1.129 1.142v3.028c0 1.32-.715 1.995-1.968 1.995H16.68c-.743 0-1.156.4-1.156 1.129S15.936 24 16.679 24Z"/></symbol><symbol viewBox="0 0 24 24" id="file_csv" xmlns="http://www.w3.org/2000/svg"><path d="M19.2 9.33V6.67L12.34 0h-9.6C2.02 0 1.32.28.81.78.29 1.28 0 1.96 0 2.67v18.66c0 .71.29 1.39.81 1.89.51.5 1.21.78 1.93.78h13.72c.72 0 1.42-.28 1.93-.78.52-.5.81-1.18.81-1.89V20H24V9.33h-4.8Zm-7.54-7.17 5.32 5.17h-5.32V2.16Zm10.97 16.51H6.17v-8h16.46v8Zm-1.11-6.45-1.7 5h-1.15l-1.7-5h1.07l.94 2.98c.06.17.11.38.16.61.06.23.1.39.11.49.02-.21.11-.58.26-1.1l.94-2.98h1.07Zm-5.32 3.61c0 .45-.17.81-.49 1.07-.33.26-.78.39-1.36.39-.53 0-1-.1-1.41-.3V16c.34.15.62.26.85.32.24.06.45.09.65.09.23 0 .41-.04.53-.13.12-.09.19-.22.19-.4 0-.1-.03-.18-.09-.26a.87.87 0 0 0-.24-.22c-.1-.07-.32-.18-.64-.34-.31-.14-.54-.28-.69-.41s-.28-.29-.37-.46c-.09-.18-.13-.38-.13-.62 0-.44.15-.79.44-1.04.31-.25.72-.38 1.25-.38.26 0 .51.03.74.09.24.06.48.15.74.26l-.34.83c-.27-.11-.49-.19-.66-.23-.18-.05-.35-.07-.52-.07-.2 0-.35.05-.46.14-.1.1-.16.22-.16.37 0 .09.02.17.07.24.04.07.11.14.2.21.1.06.32.18.68.34.46.23.78.45.96.68.17.22.26.5.26.82Zm-5.79.58c.35 0 .77-.09 1.27-.27v.89c-.41.17-.87.26-1.37.26-.73 0-1.29-.22-1.67-.66-.39-.44-.58-1.08-.58-1.9 0-.52.09-.98.28-1.37s.46-.69.82-.9c.35-.21.77-.31 1.25-.31s.97.12 1.46.35l-.34.86c-.19-.09-.38-.16-.57-.23s-.37-.1-.55-.1c-.4 0-.71.15-.93.45-.22.3-.33.72-.33 1.25 0 1.12.42 1.68 1.26 1.68Z" fill-rule="evenodd"/></symbol><symbol viewBox="0 0 24 24" id="file_doc" xmlns="http://www.w3.org/2000/svg"><path d="M19.2 6.667 12.344 0h-9.6A2.792 2.792 0 0 0 .806.783 2.638 2.638 0 0 0 0 2.667v18.666c.002.707.292 1.384.806 1.884s1.21.78 1.937.783h13.714a2.791 2.791 0 0 0 1.938-.784c.514-.5.803-1.176.806-1.883V20H24V9.333h-4.8V6.667ZM11.658 2.16l5.32 5.173h-5.32V2.16Zm10.972 8.507v8H6.172v-8h16.457Z"/><path d="M12.294 14.62c0 .852-.243 1.504-.73 1.957-.483.453-1.183.68-2.098.68H8v-5.176h1.625c.845 0 1.5.223 1.968.67.467.446.701 1.069.701 1.869Zm-1.14.028c0-1.112-.49-1.667-1.472-1.667h-.585v3.37h.471c1.058 0 1.586-.568 1.586-1.703ZM17.484 14.662c0 .857-.212 1.515-.637 1.975-.425.46-1.034.69-1.827.69-.793 0-1.401-.23-1.826-.69-.425-.46-.637-1.12-.637-1.982 0-.861.212-1.519.637-1.972.427-.455 1.038-.683 1.833-.683.796 0 1.404.229 1.824.687.422.458.633 1.116.633 1.975Zm-3.777 0c0 .578.11 1.014.33 1.306.219.293.547.44.983.44.876 0 1.314-.582 1.314-1.746 0-1.166-.436-1.749-1.306-1.749-.437 0-.766.148-.988.443-.222.293-.333.728-.333 1.306ZM20.175 12.92c-.413 0-.733.156-.959.468-.227.309-.34.74-.34 1.295 0 1.154.433 1.731 1.3 1.731.363 0 .803-.09 1.32-.272v.92c-.425.177-.9.266-1.423.266-.753 0-1.329-.228-1.728-.683-.399-.458-.598-1.114-.598-1.969 0-.538.098-1.009.294-1.412.196-.406.476-.716.842-.931.368-.217.8-.326 1.292-.326.503 0 1.008.122 1.515.365l-.354.892a5.875 5.875 0 0 0-.584-.24 1.742 1.742 0 0 0-.577-.104Z"/></symbol><symbol viewBox="0 0 24 24" id="file_pdf" xmlns="http://www.w3.org/2000/svg"><path d="M19.2 6.67 12.34 0h-9.6A2.77 2.77 0 0 0 .81.78 2.62 2.62 0 0 0 0 2.67v18.66a2.62 2.62 0 0 0 .81 1.89 2.77 2.77 0 0 0 1.93.78h13.72a2.77 2.77 0 0 0 1.93-.78 2.62 2.62 0 0 0 .81-1.89V20H24V9.33h-4.8Zm-7.54-4.51L17 7.33h-5.34Zm11 8.51v8H6.17v-8Z"/><path d="M11.76 13.69a1.71 1.71 0 0 1-.12.71 1.58 1.58 0 0 1-.43.59 2.41 2.41 0 0 1-1.56.46h-.5v1.89H8V12h1.76a2.22 2.22 0 0 1 1.5.42 1.67 1.67 0 0 1 .38.58 1.6 1.6 0 0 1 .12.69Zm-2.64.85h.39a1.29 1.29 0 0 0 .79-.21.9.9 0 0 0 .21-.27.88.88 0 0 0 .07-.32.89.89 0 0 0-.05-.32 1 1 0 0 0-.17-.27 1 1 0 0 0-.69-.15h-.52v1.57ZM17.33 14.65a2.7 2.7 0 0 1-.16 1.09 2.64 2.64 0 0 1-.61.93 3.13 3.13 0 0 1-2.22.7h-1.57V12h1.73a3 3 0 0 1 2.09.7 2.47 2.47 0 0 1 .74 1.92Zm-1.21 0c0-1.14-.52-1.7-1.56-1.7h-.64v3.46h.5a1.53 1.53 0 0 0 1.7-1.76ZM19.6 17.37h-1.15V12h3.16v1h-2v1.38h1.87v.94H19.6Z"/></symbol></svg>