<?xml version="1.0" encoding="utf-8"?><svg xmlns="http://www.w3.org/2000/svg" xmlns:xlink="http://www.w3.org/1999/xlink"><symbol viewBox="0 0 24 24" id="check_box" xmlns="http://www.w3.org/2000/svg"><path d="M0 0h24v24H0z" fill="none"/><path d="M19 3H5a2 2 0 0 0-2 2v14a2 2 0 0 0 2 2h14a2 2 0 0 0 2-2V5a2 2 0 0 0-2-2zm-9 14-5-5 1.41-1.41L10 14.17l7.59-7.59L19 8l-9 9z"/></symbol><symbol viewBox="0 0 24 24" id="check_box_outline_blank" xmlns="http://www.w3.org/2000/svg"><path d="M0 0h24v24H0z" fill="none"/><path d="M19 5v14H5V5h14m0-2H5c-1.1 0-2 .9-2 2v14c0 1.1.9 2 2 2h14c1.1 0 2-.9 2-2V5c0-1.1-.9-2-2-2z"/></symbol><symbol viewBox="0 0 24 24" id="indeterminate_check_box" xmlns="http://www.w3.org/2000/svg"><path fill="none" d="M0 0h24v24H0z"/><path d="M19 3H5c-1.1 0-2 .9-2 2v14c0 1.1.9 2 2 2h14c1.1 0 2-.9 2-2V5c0-1.1-.9-2-2-2zm-2 10H7v-2h10v2z"/></symbol><symbol viewBox="0 0 24 24" id="radio_button_checked" xmlns="http://www.w3.org/2000/svg"><path d="M0 0h24v24H0z" fill="none"/><path d="M12 7c-2.76 0-5 2.24-5 5s2.24 5 5 5 5-2.24 5-5-2.24-5-5-5zm0-5C6.48 2 2 6.48 2 12s4.48 10 10 10 10-4.48 10-10S17.52 2 12 2zm0 18c-4.42 0-8-3.58-8-8s3.58-8 8-8 8 3.58 8 8-3.58 8-8 8z"/></symbol><symbol viewBox="0 0 24 24" id="radio_button_unchecked" xmlns="http://www.w3.org/2000/svg"><path d="M0 0h24v24H0z" fill="none"/><path d="M12 2C6.48 2 2 6.48 2 12s4.48 10 10 10 10-4.48 10-10S17.52 2 12 2zm0 18c-4.42 0-8-3.58-8-8s3.58-8 8-8 8 3.58 8 8-3.58 8-8 8z"/></symbol><symbol viewBox="0 0 24 24" id="star" xmlns="http://www.w3.org/2000/svg"><path d="M0 0h24v24H0z" fill="none"/><path d="M0 0h24v24H0z" fill="none"/><path d="M12 17.27 18.18 21l-1.64-7.03L22 9.24l-7.19-.61L12 2 9.19 8.63 2 9.24l5.46 4.73L5.82 21z"/></symbol><symbol viewBox="0 0 24 24" id="star_border" xmlns="http://www.w3.org/2000/svg"><path d="M0 0h24v24H0z" fill="none"/><path d="m22 9.24-7.19-.62L12 2 9.19 8.63 2 9.24l5.46 4.73L5.82 21 12 17.27 18.18 21l-1.63-7.03L22 9.24zM12 15.4l-3.76 2.27 1-4.28-3.32-2.88 4.38-.38L12 6.1l1.71 4.04 4.38.38-3.32 2.88 1 4.28L12 15.4z"/></symbol><symbol viewBox="0 0 24 24" id="star_border_purple500" xmlns="http://www.w3.org/2000/svg"><path d="M0 0h24v24H0V0z" fill="none"/><path d="m12 8.89.94 3.11h2.82l-2.27 1.62.93 3.01L12 14.79l-2.42 1.84.93-3.01L8.24 12h2.82L12 8.89M12 2l-2.42 8H2l6.17 4.41L5.83 22 12 17.31 18.18 22l-2.35-7.59L22 10h-7.58L12 2z"/></symbol><symbol viewBox="0 0 24 24" id="star_half" xmlns="http://www.w3.org/2000/svg"><path fill="none" d="M0 0h24v24H0z"/><path d="m22 9.24-7.19-.62L12 2 9.19 8.63 2 9.24l5.46 4.73L5.82 21 12 17.27 18.18 21l-1.63-7.03L22 9.24zM12 15.4V6.1l1.71 4.04 4.38.38-3.32 2.88 1 4.28L12 15.4z"/></symbol><symbol viewBox="0 0 24 24" id="star_outline" xmlns="http://www.w3.org/2000/svg"><path d="m22 9.24-7.19-.62L12 2 9.19 8.63 2 9.24l5.46 4.73L5.82 21 12 17.27 18.18 21l-1.63-7.03L22 9.24zM12 15.4l-3.76 2.27 1-4.28-3.32-2.88 4.38-.38L12 6.1l1.71 4.04 4.38.38-3.32 2.88 1 4.28L12 15.4z"/></symbol><symbol viewBox="0 0 24 24" id="star_purple500" xmlns="http://www.w3.org/2000/svg"><path d="M0 0h24v24H0V0z" fill="none"/><path d="m12 8.89.94 3.11h2.82l-2.27 1.62.93 3.01L12 14.79l-2.42 1.84.93-3.01L8.24 12h2.82L12 8.89M12 2l-2.42 8H2l6.17 4.41L5.83 22 12 17.31 18.18 22l-2.35-7.59L22 10h-7.58L12 2z"/></symbol><symbol viewBox="0 0 24 24" id="toggle_off" xmlns="http://www.w3.org/2000/svg"><path d="M17 7H7a5 5 0 0 0 0 10h10a5 5 0 0 0 0-10ZM7 15a3 3 0 1 1 3-3 3 3 0 0 1-3 3Z"/><path d="M0 0h24v24H0Z" fill="none"/></symbol><symbol viewBox="0 0 24 24" id="toggle_off_outlined" xmlns="http://www.w3.org/2000/svg"><path d="M7 10a2 2 0 1 1-2 2 2 2 0 0 1 2-2m10-3a5 5 0 0 1 0 10H7A5 5 0 1 1 7 7h10M7 9a3 3 0 0 0 0 6h10a3 3 0 0 0 0-6Z"/><path fill="none" d="M0 0h24v24H0z"/></symbol><symbol viewBox="0 0 24 24" id="toggle_on" xmlns="http://www.w3.org/2000/svg"><path d="M17 7H7a5 5 0 0 0 0 10h10a5 5 0 0 0 0-10Zm0 8a3 3 0 1 1 3-3 3 3 0 0 1-3 3Z"/><path d="M0 0h24v24H0Z" fill="none"/></symbol><symbol viewBox="0 0 24 24" id="toggle_on_outlined" xmlns="http://www.w3.org/2000/svg"><path d="M17 10a2 2 0 1 1-2 2 2 2 0 0 1 2-2m0-3a5 5 0 0 1 0 10H7A5 5 0 1 1 7 7h10M7 9a3 3 0 0 0 0 6h10a3 3 0 0 0 0-6Z"/><path fill="none" d="M0 0h24v24H0z"/></symbol></svg>