<?xml version="1.0" encoding="utf-8"?><svg xmlns="http://www.w3.org/2000/svg" xmlns:xlink="http://www.w3.org/1999/xlink"><symbol viewBox="0 0 24 24" id="box_cutter" xmlns="http://www.w3.org/2000/svg"><path d="M7.22 11.91c-.33.33-.51.74-.56 1.17l5.51 2.36 8.49-8.48c.78-.79.78-2.05 0-2.83l-1.42-1.42c-.78-.78-2.04-.78-2.83 0l-9.19 9.2ZM5 16v5.75l5.81-5.22-5-2L5 16ZM17.12 4.83c.38-.39 1.03-.39 1.42 0 .39.4.39 1.03 0 1.42-.39.39-1.04.39-1.42 0-.39-.39-.39-1.02 0-1.42Z"/></symbol><symbol viewBox="0 0 24 24" id="hammer" xmlns="http://www.w3.org/2000/svg"><path d="M2 19.63 13.43 8.2l-.71-.7 1.42-1.43L12 3.89c1.2-1.19 3.09-1.19 4.27 0l3.6 3.61-1.42 1.41h2.84l.71.71-3.55 3.59-.71-.71V9.62l-1.47 1.42-.71-.71L4.13 21.76 2 19.63Z"/></symbol><symbol viewBox="0 0 24 24" id="heat_shrink_tube" xmlns="http://www.w3.org/2000/svg"><path d="M12 2c-1.93 0-4 .53-4 2v16c0 1.47 2.07 2 4 2 1.93 0 4-.53 4-2V4c0-1.47-2.07-2-4-2Zm0 2.67c-1.1 0-2-.3-2-.67 0-.37.9-.67 2-.67s2 .3 2 .67c0 .37-.9.67-2 .67Z"/></symbol><symbol viewBox="0 0 24 24" id="home_repair_service_outline" xmlns="http://www.w3.org/2000/svg"><path d="M20 8h-3V6c0-1.1-.9-2-2-2H9c-1.1 0-2 .9-2 2v2H4c-1.1 0-2 .9-2 2v10h20V10c0-1.1-.9-2-2-2ZM9 6h6v2H9V6Zm11 12H4v-3h2v1h2v-1h8v1h2v-1h2v3Zm-2-5v-1h-2v1H8v-1H6v1H4v-3h16v3h-2Z"/></symbol><symbol viewBox="0 0 24 24" id="multimeter" xmlns="http://www.w3.org/2000/svg"><path d="m5.78 11.84 3.38 3.38c-.35.18-.74.28-1.16.28A2.5 2.5 0 0 1 5.5 13c0-.42.1-.81.28-1.16ZM8 10.5c-.42 0-.81.1-1.16.28l3.38 3.38c.18-.35.28-.74.28-1.16A2.5 2.5 0 0 0 8 10.5Zm5.41-7.91c.38.37.59.88.59 1.41v16c0 .53-.21 1.04-.59 1.41-.37.38-.88.59-1.41.59H4c-.53 0-1.04-.21-1.41-.59C2.21 21.04 2 20.53 2 20V4c0-.53.21-1.04.59-1.41C2.96 2.21 3.47 2 4 2h8c.53 0 1.04.21 1.41.59ZM6 19c0-.55-.45-1-1-1s-1 .45-1 1 .45 1 1 1 1-.45 1-1Zm3 0c0-.55-.45-1-1-1s-1 .45-1 1 .45 1 1 1 1-.45 1-1Zm3 0c0-.55-.45-1-1-1s-1 .45-1 1 .45 1 1 1 1-.45 1-1Zm0-6c0-2.21-1.79-4-4-4s-4 1.79-4 4 1.79 4 4 4 4-1.79 4-4Zm0-9H4v3h8V4Zm7 2h-1l-1-4-1 4h-1v1h1v13h2V7h1V6Zm2 2-1-4-1 4v14h2V9h1V8h-1Z"/></symbol><symbol viewBox="0 0 24 24" id="multimeter_outline" xmlns="http://www.w3.org/2000/svg"><path d="M8.5 10a3.5 3.5 0 1 0 0 7 3.5 3.5 0 0 0 0-7Zm2 3.5c0 .268-.055.533-.16.78l-2.62-2.62a2 2 0 0 1 2.78 1.84Zm-4 0a2 2 0 0 1 .16-.78l2.62 2.62A2 2 0 0 1 6.5 13.5Z"/><path d="M13 2H4a2 2 0 0 0-2 2v16a2 2 0 0 0 2 2h9a2 2 0 0 0 2-2V4a2 2 0 0 0-2-2Zm0 2v3H4V4h9ZM4 20V9h9v11H4Z"/><path fill-rule="evenodd" clip-rule="evenodd" d="M20 6h-1l-1-4-1 4h-1v1h1v13h2V7h1V6ZM23 8h-1l-1-4-1 4v14h2V9h1V8Z"/><path d="M8.5 19.5a1 1 0 1 0 0-2 1 1 0 0 0 0 2ZM11 19.5a1 1 0 1 0 0-2 1 1 0 0 0 0 2ZM6 19.5a1 1 0 1 0 0-2 1 1 0 0 0 0 2Z"/></symbol><symbol viewBox="0 0 24 24" id="pliers" xmlns="http://www.w3.org/2000/svg"><path d="M9.4 12.2s2.3 3.1 4.4 5.2c.9.9 1.8 1.5 2.5 2 .8.5 1 1.6.3 2.3-.4.4-1.1.6-1.6.3-.8-.4-2-1.2-3.3-2.4-2.1-2.1-4.4-5.2-4.4-5.2l2.1-2.2Zm2.8-2.8s3.1 2.3 5.2 4.4c.9.9 1.5 1.8 2 2.5.5.8 1.6 1 2.3.3.4-.4.6-1.1.3-1.6-.4-.8-1.2-2-2.4-3.3-2.1-2.1-5.2-4.4-5.2-4.4l-2.2 2.1Zm-1.8-3.9L7.6 2.7 4.1 2l-.5.5 2.3 2.3c.5-.1 1 0 1.4.4.6.6.6 1.5 0 2.1-.6.6-1.5.6-2.1 0-.4-.4-.5-1-.4-1.5L2.5 3.6l-.5.5.7 3.5 2.8 2.8 1.4 2.8 1.9-1.9-1-1.8 1.6-1.6 1.9.9 1.9-1.9-2.8-1.4Z"/></symbol><symbol viewBox="0 0 24 24" id="screw_head_phillips" xmlns="http://www.w3.org/2000/svg"><path d="M12 2C6.48 2 2 6.48 2 12s4.48 10 10 10 10-4.48 10-10S17.52 2 12 2Zm7 12h-3c-1.1 0-2 .9-2 2v3h-4v-3c0-1.1-.9-2-2-2H5v-4h3c1.1 0 2-.9 2-2V5h4v3c0 1.1.9 2 2 2h3v4Z"/></symbol><symbol viewBox="0 0 24 24" id="screw_head_slotted" xmlns="http://www.w3.org/2000/svg"><path fill-rule="evenodd" clip-rule="evenodd" d="M2 12C2 6.48 6.48 2 12 2s10 4.48 10 10-4.48 10-10 10S2 17.52 2 12Zm3 2h14v-4H5v4Z"/></symbol><symbol viewBox="0 0 24 24" id="screwdriver" xmlns="http://www.w3.org/2000/svg"><path d="M18 1.83c-.5 0-1 .17-1.41.58L8 11l1.5 1.5L6 16H4l-2 4 2 2 4-2v-2l3.5-3.5L13 16l8.59-8.59c.62-.91.78-2.04 0-2.82l-2.18-2.18A1.95 1.95 0 0 0 18 1.83ZM18 4l2 2-7 7-2-2 7-7Z"/></symbol><symbol viewBox="0 0 24 24" id="tv_remote" xmlns="http://www.w3.org/2000/svg"><path d="M9 2c-1.11 0-2 .89-2 2v16c0 1.11.89 2 2 2h6c1.11 0 2-.89 2-2V4c0-1.11-.89-2-2-2h-2v2h-2V2H9Zm2 4h2v2h2v2h-2v2h-2v-2H9V8h2V6Zm-2 8h2v2H9v-2Zm4 0h2v2h-2v-2Zm-4 4h2v2H9v-2Zm4 0h2v2h-2v-2Z"/></symbol></svg>