<?xml version="1.0" encoding="UTF-8"?><!DOCTYPE svg PUBLIC "-//W3C//DTD SVG 1.1//EN" "http://www.w3.org/Graphics/SVG/1.1/DTD/svg11.dtd"><svg xmlns="http://www.w3.org/2000/svg" xmlns:xlink="http://www.w3.org/1999/xlink"><symbol viewBox="0 0 24 24" id="road" xmlns="http://www.w3.org/2000/svg"><path d="M11 16h2v4h-2m0-10h2v4h-2m0-10h2v4h-2M4 22h16V2H4v20Z"/></symbol><symbol viewBox="0 0 24 24" id="road_alt" xmlns="http://www.w3.org/2000/svg"><path d="M18.1 4.8c-.1-.5-.5-.8-1-.8H13l.2 3h-2.4l.2-3H6.8c-.5 0-.9.4-1 .8l-2.7 14c-.1.6.4 1.2 1 1.2H10l.3-5h3.4l.3 5h5.8c.6 0 1.1-.6 1-1.2l-2.7-14M10.4 13l.2-4h2.6l.2 4h-3Z"/></symbol></svg>