<?xml version="1.0" encoding="utf-8"?><svg xmlns="http://www.w3.org/2000/svg" xmlns:xlink="http://www.w3.org/1999/xlink"><symbol fill="none" viewBox="0 0 24 24" id="arrow_selector_tool" xmlns="http://www.w3.org/2000/svg"><path d="m13.775 22-3.625-7.8L6 20V2l14 11h-7.1l3.6 7.725L13.775 22Z" fill="#000"/></symbol><symbol fill="none" viewBox="0 0 24 24" id="bottom_panel_close" xmlns="http://www.w3.org/2000/svg"><path d="m12 11.5 4-4H8l4 4ZM19 3c.55 0 1.02.196 1.413.587C20.803 3.98 21 4.45 21 5v14c0 .55-.196 1.02-.587 1.413A1.926 1.926 0 0 1 19 21H5c-.55 0-1.02-.196-1.413-.587A1.926 1.926 0 0 1 3 19V5c0-.55.196-1.02.587-1.413A1.926 1.926 0 0 1 5 3h14Zm0 11V5H5v9h14Z" fill="#000"/></symbol><symbol fill="none" viewBox="0 0 24 24" id="bottom_panel_open" xmlns="http://www.w3.org/2000/svg"><path d="M8 11.5h8l-4-4-4 4ZM5 21c-.55 0-1.02-.196-1.413-.587A1.926 1.926 0 0 1 3 19V5c0-.55.196-1.02.587-1.413A1.926 1.926 0 0 1 5 3h14c.55 0 1.02.196 1.413.587C20.803 3.98 21 4.45 21 5v14c0 .55-.196 1.02-.587 1.413A1.926 1.926 0 0 1 19 21H5Zm0-7h14V5H5v9Z" fill="#000"/></symbol><symbol fill="none" viewBox="0 0 24 24" id="connector" xmlns="http://www.w3.org/2000/svg"><path d="M2 19c0-.833.292-1.542.875-2.125A2.893 2.893 0 0 1 5 16c.233 0 .458.025.675.075.217.05.425.125.625.225l10-10c-.1-.2-.175-.408-.225-.625A2.993 2.993 0 0 1 16 5c0-.833.292-1.542.875-2.125A2.893 2.893 0 0 1 19 2c.833 0 1.542.292 2.125.875S22 4.167 22 5s-.292 1.542-.875 2.125A2.893 2.893 0 0 1 19 8c-.233 0-.458-.025-.675-.075A2.8 2.8 0 0 1 17.7 7.7l-10 10c.1.2.175.408.225.625.05.217.075.442.075.675 0 .833-.292 1.542-.875 2.125A2.893 2.893 0 0 1 5 22a2.893 2.893 0 0 1-2.125-.875A2.893 2.893 0 0 1 2 19Z" fill="#000"/></symbol><symbol fill="none" viewBox="0 0 24 24" id="cursor_pointer" xmlns="http://www.w3.org/2000/svg"><path d="m19.98 14.82-.63 4.46c-.14.99-.99 1.72-1.98 1.72h-6.16c-.53 0-1.29-.21-1.66-.59L5 15.62l.83-.84c.24-.24.58-.35.92-.28l3.25.74V4.5c0-.83.67-1.5 1.5-1.5s1.5.67 1.5 1.5v6h.91c.31 0 .62.07.89.21l4.09 2.04c.77.39 1.21 1.22 1.09 2.07Z" fill="#000"/></symbol><symbol fill="none" viewBox="0 0 24 24" id="dataset" xmlns="http://www.w3.org/2000/svg"><path d="M7 17h4v-4H7v4Zm6 0h4v-4h-4v4Zm-6-6h4V7H7v4Zm6 0h4V7h-4v4ZM5 21c-.55 0-1.02-.196-1.413-.587A1.926 1.926 0 0 1 3 19V5c0-.55.196-1.02.587-1.413A1.926 1.926 0 0 1 5 3h14c.55 0 1.02.196 1.413.587C20.803 3.98 21 4.45 21 5v14c0 .55-.196 1.02-.587 1.413A1.926 1.926 0 0 1 19 21H5Z" fill="#000"/></symbol><symbol fill="none" viewBox="0 0 24 24" id="dataset_outline" xmlns="http://www.w3.org/2000/svg"><path d="M7 11V7h4v4H7Zm0 6v-4h4v4H7Zm6-6V7h4v4h-4Zm0 6v-4h4v4h-4Zm-8 4c-.55 0-1.02-.196-1.413-.587A1.926 1.926 0 0 1 3 19V5c0-.55.196-1.02.587-1.413A1.926 1.926 0 0 1 5 3h14c.55 0 1.02.196 1.413.587C20.803 3.98 21 4.45 21 5v14c0 .55-.196 1.02-.587 1.413A1.926 1.926 0 0 1 19 21H5Zm0-2h14V5H5v14Z" fill="#000"/></symbol><symbol fill="none" viewBox="0 0 24 24" id="left_panel_close" xmlns="http://www.w3.org/2000/svg"><path d="M16.5 16V8l-4 4 4 4ZM5 21c-.55 0-1.02-.196-1.413-.587A1.926 1.926 0 0 1 3 19V5c0-.55.196-1.02.587-1.413A1.926 1.926 0 0 1 5 3h14c.55 0 1.02.196 1.413.587C20.803 3.98 21 4.45 21 5v14c0 .55-.196 1.02-.587 1.413A1.926 1.926 0 0 1 19 21H5Zm5-2h9V5h-9v14Z" fill="#000"/></symbol><symbol fill="none" viewBox="0 0 24 24" id="left_panel_open" xmlns="http://www.w3.org/2000/svg"><path d="M12.5 8v8l4-4-4-4ZM5 21c-.55 0-1.02-.196-1.413-.587A1.926 1.926 0 0 1 3 19V5c0-.55.196-1.02.587-1.413A1.926 1.926 0 0 1 5 3h14c.55 0 1.02.196 1.413.587C20.803 3.98 21 4.45 21 5v14c0 .55-.196 1.02-.587 1.413A1.926 1.926 0 0 1 19 21H5Zm5-2h9V5h-9v14Z" fill="#000"/></symbol><symbol fill="none" viewBox="0 0 24 24" id="right_panel_close" xmlns="http://www.w3.org/2000/svg"><path d="M7.5 8v8l4-4-4-4ZM5 21c-.55 0-1.02-.196-1.413-.587A1.926 1.926 0 0 1 3 19V5c0-.55.196-1.02.587-1.413A1.926 1.926 0 0 1 5 3h14c.55 0 1.02.196 1.413.587C20.803 3.98 21 4.45 21 5v14c0 .55-.196 1.02-.587 1.413A1.926 1.926 0 0 1 19 21H5Zm9-2V5H5v14h9Z" fill="#000"/></symbol><symbol fill="none" viewBox="0 0 24 24" id="right_panel_open" xmlns="http://www.w3.org/2000/svg"><path d="M11.5 16V8l-4 4 4 4ZM5 21c-.55 0-1.02-.196-1.413-.587A1.926 1.926 0 0 1 3 19V5c0-.55.196-1.02.587-1.413A1.926 1.926 0 0 1 5 3h14c.55 0 1.02.196 1.413.587C20.803 3.98 21 4.45 21 5v14c0 .55-.196 1.02-.587 1.413A1.926 1.926 0 0 1 19 21H5Zm9-2V5H5v14h9Z" fill="#000"/></symbol><symbol fill="none" viewBox="0 0 24 24" id="section" xmlns="http://www.w3.org/2000/svg"><path fill-rule="evenodd" clip-rule="evenodd" d="M18 4c1.1 0 2 .9 2 2v12c0 1.1-.9 2-2 2H6c-1.1 0-2-.9-2-2V6c0-1.1.9-2 2-2h12Zm-5 5a1 1 0 0 1-1 1H6v8h12V6h-5v3ZM6 8h5V6H6v2Z" fill="#000"/></symbol><symbol fill="none" viewBox="0 0 24 24" id="selector_tool" xmlns="http://www.w3.org/2000/svg"><path d="M3.127 6.892c-.656-2.23 1.332-4.308 3.55-3.82l.215.055 11.93 3.51c2.643.777 2.965 4.39.501 5.621l-4.71 2.355-2.355 4.71c-1.231 2.464-4.844 2.142-5.622-.5L3.127 6.893Zm3.195-1.825a1.01 1.01 0 0 0-1.255 1.255l3.508 11.93c.243.826 1.317.972 1.789.31l.086-.143 2.505-5.012c.098-.195.257-.354.452-.452l5.012-2.505c.821-.41.714-1.616-.167-1.875L6.322 5.067Z" fill="#000"/></symbol><symbol fill="none" viewBox="0 0 24 24" id="settings_outline" xmlns="http://www.w3.org/2000/svg"><path d="m9.25 22-.4-3.2a3.79 3.79 0 0 1-.613-.3 8.266 8.266 0 0 1-.562-.375L4.7 19.375l-2.75-4.75 2.575-1.95a2.387 2.387 0 0 1-.025-.338v-.675c0-.108.008-.22.025-.337L1.95 9.375l2.75-4.75 2.975 1.25c.183-.133.375-.258.575-.375.2-.117.4-.217.6-.3l.4-3.2h5.5l.4 3.2c.217.083.42.183.612.3.192.117.38.242.563.375l2.975-1.25 2.75 4.75-2.575 1.95c.017.117.025.23.025.338v.675c0 .108-.017.22-.05.337l2.575 1.95-2.75 4.75-2.95-1.25a6.842 6.842 0 0 1-.575.375c-.2.117-.4.217-.6.3l-.4 3.2h-5.5ZM11 20h1.975l.35-2.65c.517-.133.996-.33 1.438-.588.441-.258.845-.57 1.212-.937l2.475 1.025.975-1.7-2.15-1.625c.083-.233.142-.48.175-.738a6.153 6.153 0 0 0 0-1.575 3.535 3.535 0 0 0-.175-.737l2.15-1.625-.975-1.7-2.475 1.05a5.556 5.556 0 0 0-1.213-.962 5.607 5.607 0 0 0-1.437-.588L13 4h-1.975l-.35 2.65c-.517.133-.996.33-1.438.587-.441.259-.845.571-1.212.938L5.55 7.15l-.975 1.7 2.15 1.6c-.083.25-.142.5-.175.75s-.05.517-.05.8c0 .267.017.525.05.775s.092.5.175.75l-2.15 1.625.975 1.7 2.475-1.05c.367.383.77.704 1.212.962.442.259.921.455 1.438.588L11 20Zm1.05-4.5c.967 0 1.792-.342 2.475-1.025A3.372 3.372 0 0 0 15.55 12c0-.967-.342-1.792-1.025-2.475A3.373 3.373 0 0 0 12.05 8.5c-.983 0-1.813.342-2.488 1.025A3.393 3.393 0 0 0 8.55 12c0 .967.337 1.792 1.012 2.475.676.683 1.505 1.025 2.488 1.025Z" fill="#000"/></symbol><symbol fill="none" viewBox="0 0 24 24" id="top_panel_close" xmlns="http://www.w3.org/2000/svg"><path d="m12 12.5-4 4h8l-4-4ZM5 21c-.55 0-1.02-.196-1.413-.587A1.926 1.926 0 0 1 3 19V5c0-.55.196-1.02.587-1.413A1.926 1.926 0 0 1 5 3h14c.55 0 1.02.196 1.413.587C20.803 3.98 21 4.45 21 5v14c0 .55-.196 1.02-.587 1.413A1.926 1.926 0 0 1 19 21H5Zm0-11v9h14v-9H5Z" fill="#000"/></symbol><symbol fill="none" viewBox="0 0 24 24" id="top_panel_open" xmlns="http://www.w3.org/2000/svg"><path d="M8 12.5h8l-4 4-4-4ZM5 3c-.55 0-1.02.196-1.413.587A1.926 1.926 0 0 0 3 5v14c0 .55.196 1.02.587 1.413C3.98 20.803 4.45 21 5 21h14c.55 0 1.02-.196 1.413-.587.391-.392.587-.863.587-1.413V5c0-.55-.196-1.02-.587-1.413A1.926 1.926 0 0 0 19 3H5Zm0 7h14v9H5v-9Z" fill="#000"/></symbol><symbol fill="none" viewBox="0 0 24 24" id="view_sidebar" xmlns="http://www.w3.org/2000/svg"><path d="M18 8V4h2a2 2 0 0 1 2 2v2h-4Zm0 6v-4h4v4h-4ZM4 20a2 2 0 0 1-2-2V6a2 2 0 0 1 2-2h12v16H4Zm14 0v-4h4v2a2 2 0 0 1-2 2h-2Z" fill="#000"/></symbol><symbol fill="none" viewBox="0 0 24 24" id="view_sidebar_outline" xmlns="http://www.w3.org/2000/svg"><path d="M4 20a2 2 0 0 1-2-2V6a2 2 0 0 1 2-2h16a2 2 0 0 1 2 2v12a2 2 0 0 1-2 2H4ZM17.5 8.675H20V6h-2.5v2.675Zm0 4.65H20v-2.65h-2.5v2.65ZM4 18h11.5V6H4v12Zm13.5 0H20v-2.675h-2.5V18Z" fill="#000"/></symbol></svg>