<?xml version="1.0" encoding="utf-8"?><svg xmlns="http://www.w3.org/2000/svg" xmlns:xlink="http://www.w3.org/1999/xlink"><symbol viewBox="0 0 24 24" id="car" xmlns="http://www.w3.org/2000/svg"><path d="m16 6 3 4h2c1.11 0 2 .89 2 2v3h-2c0 1.66-1.34 3-3 3s-3-1.34-3-3H9c0 1.66-1.34 3-3 3s-3-1.34-3-3H1v-3c0-1.11.89-2 2-2l3-4h10m-5.5 1.5H6.75L4.86 10h5.64V7.5m1.5 0V10h5.14l-1.89-2.5H12m-6 6c-.83 0-1.5.67-1.5 1.5s.67 1.5 1.5 1.5 1.5-.67 1.5-1.5-.67-1.5-1.5-1.5m12 0c-.83 0-1.5.67-1.5 1.5s.67 1.5 1.5 1.5 1.5-.67 1.5-1.5-.67-1.5-1.5-1.5z"/><path fill="none" d="M0 0h24v24H0z"/></symbol><symbol viewBox="0 0 24 24" id="combine_harvester" xmlns="http://www.w3.org/2000/svg"><path d="M11 4a25.89 25.89 0 0 0-3.41.19 2.72 2.72 0 0 0-1.81 1.09 2.25 2.25 0 0 0-.34 1.78L6 10a2 2 0 0 0-2 2v2h14v-2a2 2 0 0 0-.91-1.69L21.41 6H23V4h-2.41l-4.25 4.25.22-1.15a2.31 2.31 0 0 0-.37-1.82 2.72 2.72 0 0 0-1.81-1.09A25.44 25.44 0 0 0 11 4Zm-1 2v4H8l-.62-3.34a.25.25 0 0 1 .06-.22.62.62 0 0 1 .44-.25A16.7 16.7 0 0 1 10 6Zm2 0a18.2 18.2 0 0 1 2.09.16.62.62 0 0 1 .44.25.28.28 0 0 1 .06.25L14 9.81V10h-2Zm-6 5a1 1 0 1 1-1 1 1 1 0 0 1 1-1Zm10 0a1 1 0 1 1-1 1 1 1 0 0 1 1-1ZM1 15v2h20v-2Zm0 3v2h20v-2Z"/><path fill="none" d="M0 0h24v24H0z"/></symbol><symbol viewBox="0 0 24 24" id="ev_plug_ccs_combo" xmlns="http://www.w3.org/2000/svg"><path d="M9.69 6a.75.75 0 1 1 .75.75.76.76 0 0 1-.75-.75Zm3.83.75a.75.75 0 1 0-.75-.75.76.76 0 0 0 .75.75ZM12 9.71a1 1 0 1 0-1-1 1 1 0 0 0 1 1Zm-3.15 0a1 1 0 1 0-1-1 1 1 0 0 0 1 1Zm6.3 0a1 1 0 1 0-1-1 1 1 0 0 0 1 1Zm-4.73.77a1 1 0 1 0 1 1 1 1 0 0 0-1-1Zm3.16 0a1 1 0 1 0 1 1 1 1 0 0 0-1-1ZM11 18a1.5 1.5 0 1 1-1.5-1.5A1.5 1.5 0 0 1 11 18Zm-1 0a.5.5 0 1 0-.5.5.5.5 0 0 0 .5-.5Zm6 0a1.5 1.5 0 1 1-1.5-1.5A1.5 1.5 0 0 1 16 18Zm-1 0a.5.5 0 1 0-.5.5.5.5 0 0 0 .5-.5Zm4 0a4 4 0 0 1-4 4H9a4 4 0 0 1-1.12-7.84A7 7 0 0 1 6.25 4.5 7.22 7.22 0 0 1 7.67 3h8.66a7.22 7.22 0 0 1 1.42 1.5 7 7 0 0 1-1.63 9.66A4 4 0 0 1 19 18Zm-7-4a5.5 5.5 0 0 0 5.5-5.5 5.4 5.4 0 0 0-1-3.14 5 5 0 0 0-.74-.86H8.23a5.57 5.57 0 0 0-.75.86A5.5 5.5 0 0 0 12 14Zm5.5 4a2.5 2.5 0 0 0-2.5-2.5H9a2.5 2.5 0 0 0 0 5h6a2.5 2.5 0 0 0 2.5-2.5Z"/><path fill="none" d="M0 0h24v24H0z"/></symbol><symbol viewBox="0 0 24 24" id="ev_plug_chademo" xmlns="http://www.w3.org/2000/svg"><path d="M12 2a10 10 0 1 0 10 10A10 10 0 0 0 12 2Zm0 18a8 8 0 1 1 8-8 8 8 0 0 1-8 8Zm3.5-10a2 2 0 1 0 2 2 2 2 0 0 0-2-2Zm0 3a1 1 0 1 1 1-1 1 1 0 0 1-1 1Zm-7-3a2 2 0 1 0 2 2 2 2 0 0 0-2-2Zm0 3a1 1 0 1 1 1-1 1 1 0 0 1-1 1Zm1.75-4.17 1.06-1.06-1.06-1.06L11 6l1 1.06L13.08 6l.71.71-1.07 1.06 1.07 1.06-.71.71L12 8.47l-1 1.07Zm3.54 6.34-1.07 1.06 1.07 1.06-.71.71L12 16.93 11 18l-.71-.71 1.06-1.06-1.06-1.06.71-.71 1 1.06 1.06-1.06Z"/><path fill="none" d="M0 0h24v24H0z"/></symbol><symbol viewBox="0 0 24 24" id="ev_plug_domestic_a" xmlns="http://www.w3.org/2000/svg"><path d="M7 15V9h2v6H7ZM15 15V9h2v6h-2Z"/><path fill-rule="evenodd" clip-rule="evenodd" d="M6 5h12a4 4 0 0 1 4 4v6a4 4 0 0 1-4 4H6a4 4 0 0 1-4-4V9a4 4 0 0 1 4-4Zm0 2a2 2 0 0 0-2 2v6a2 2 0 0 0 2 2h12a2 2 0 0 0 2-2V9a2 2 0 0 0-2-2H6Z"/></symbol><symbol viewBox="0 0 24 24" id="ev_plug_domestic_b" xmlns="http://www.w3.org/2000/svg"><path d="M20 4H4a2 2 0 0 0-2 2v6.34a2 2 0 0 0 .64 1.47l6.15 5.66a2 2 0 0 0 1.36.53h3.7a2 2 0 0 0 1.36-.53l6.15-5.66a2 2 0 0 0 .64-1.47V6a2 2 0 0 0-2-2Zm0 8.34L13.85 18h-3.7L4 12.34V6h16ZM9 12H7V8h2Zm1.5 2.5A1.5 1.5 0 1 1 12 16a1.5 1.5 0 0 1-1.5-1.5ZM17 12h-2V8h2Z" fill-rule="evenodd"/><path fill="none" d="M0 0h24v24H0z"/></symbol><symbol viewBox="0 0 24 24" id="ev_plug_domestic_c" xmlns="http://www.w3.org/2000/svg"><path d="M14 2h-4a7 7 0 0 0-7 7v6a7 7 0 0 0 7 7h4a7 7 0 0 0 7-7V9a7 7 0 0 0-7-7Zm5 13a5 5 0 0 1-5 5h-1.25v-1.25a1.25 1.25 0 1 0-1.5 0V20H10a5 5 0 0 1-5-5V9a5 5 0 0 1 5-5h1.25v1.25a1.25 1.25 0 1 0 1.5 0V4H14a5 5 0 0 1 5 5Zm-2-3a1.25 1.25 0 1 1-1.25-1.25A1.25 1.25 0 0 1 17 12Zm-7.5 0a1.25 1.25 0 1 1-1.25-1.25A1.25 1.25 0 0 1 9.5 12Z" fill-rule="evenodd"/><path fill="none" d="M0 0h24v24H0z"/></symbol><symbol viewBox="0 0 24 24" id="ev_plug_domestic_d" xmlns="http://www.w3.org/2000/svg"><path d="M12 2a10 10 0 1 0 10 10A10 10 0 0 0 12 2Zm0 18a8 8 0 1 1 8-8 8 8 0 0 1-8 8Zm5-5.75A1.25 1.25 0 1 1 15.75 13 1.25 1.25 0 0 1 17 14.25Zm-7.5 0A1.25 1.25 0 1 1 8.25 13a1.25 1.25 0 0 1 1.25 1.25Zm4-5.75A1.5 1.5 0 1 1 12 7a1.5 1.5 0 0 1 1.5 1.5Z" fill-rule="evenodd"/><path fill="none" d="M0 0h24v24H0z"/></symbol><symbol viewBox="0 0 24 24" id="ev_plug_domestic_e" xmlns="http://www.w3.org/2000/svg"><path d="M12 2a10 10 0 1 0 10 10A10 10 0 0 0 12 2Zm0 18a8 8 0 1 1 8-8 8 8 0 0 1-8 8Zm5-7.75A1.25 1.25 0 1 1 15.75 11 1.25 1.25 0 0 1 17 12.25Zm-7.5 0A1.25 1.25 0 1 1 8.25 11a1.25 1.25 0 0 1 1.25 1.25Zm3.75-4A1.25 1.25 0 1 1 12 7a1.25 1.25 0 0 1 1.25 1.25Z" fill-rule="evenodd"/><path fill="none" d="M0 0h24v24H0z"/></symbol><symbol viewBox="0 0 24 24" id="ev_plug_domestic_f" xmlns="http://www.w3.org/2000/svg"><path d="M9.5 12A1.25 1.25 0 1 1 7 12a1.25 1.25 0 0 1 2.5 0ZM17 12a1.25 1.25 0 1 1-2.5 0 1.25 1.25 0 0 1 2.5 0Z"/><path fill-rule="evenodd" clip-rule="evenodd" d="M22 12c0 5.523-4.477 10-10 10S2 17.523 2 12 6.477 2 12 2s10 4.477 10 10Zm-11 7.938V18h2v1.938a8.001 8.001 0 0 0 0-15.876V6h-2V4.062a8.001 8.001 0 0 0 0 15.876Z"/></symbol><symbol viewBox="0 0 24 24" id="ev_plug_domestic_g" xmlns="http://www.w3.org/2000/svg"><path d="m21.36 10.19-6.15-5.66A2 2 0 0 0 13.85 4h-3.7a2 2 0 0 0-1.36.53l-6.15 5.66A2 2 0 0 0 2 11.66V18a2 2 0 0 0 2 2h16a2 2 0 0 0 2-2v-6.34a2 2 0 0 0-.64-1.47ZM20 18H4v-6.34L10.15 6h3.7L20 11.66Zm-2-2h-4v-2h4ZM6 14h4v2H6Zm5-6h2v4h-2Z" fill-rule="evenodd"/><path fill="none" d="M0 0h24v24H0z"/></symbol><symbol viewBox="0 0 24 24" id="ev_plug_domestic_h" xmlns="http://www.w3.org/2000/svg"><path d="M12 2a10 10 0 1 0 10 10A10 10 0 0 0 12 2Zm0 18a8 8 0 1 1 8-8 8 8 0 0 1-8 8Zm-1-6h2v4h-2Zm7.12-4.71-2.83 2.83-1.41-1.41 2.83-2.83ZM7.29 7.88l2.83 2.83-1.41 1.41-2.83-2.83Z" fill-rule="evenodd"/><path fill="none" d="M0 0h24v24H0z"/></symbol><symbol viewBox="0 0 24 24" id="ev_plug_domestic_i" xmlns="http://www.w3.org/2000/svg"><path d="M12 2a10 10 0 1 0 10 10A10 10 0 0 0 12 2Zm0 18a8 8 0 1 1 8-8 8 8 0 0 1-8 8ZM8.71 7.88l1.41 1.41-2.83 2.83-1.41-1.41ZM11 14h2v4h-2Zm7.12-3.29-1.41 1.41-2.83-2.83 1.41-1.41Z" fill-rule="evenodd"/><path fill="none" d="M0 0h24v24H0z"/></symbol><symbol viewBox="0 0 24 24" id="ev_plug_domestic_j" xmlns="http://www.w3.org/2000/svg"><path d="M13.25 9.25a1.25 1.25 0 1 1-2.5 0 1.25 1.25 0 0 1 2.5 0ZM8 13.25a1.25 1.25 0 1 0 0-2.5 1.25 1.25 0 0 0 0 2.5ZM16 13.25a1.25 1.25 0 1 0 0-2.5 1.25 1.25 0 0 0 0 2.5Z"/><path fill-rule="evenodd" clip-rule="evenodd" d="M15.867 5H8.133a4 4 0 0 0-3.43 1.942l-1.8 3a4 4 0 0 0 0 4.116l1.8 3A4 4 0 0 0 8.132 19h7.736a4 4 0 0 0 3.43-1.942l1.8-3a4 4 0 0 0 0-4.116l-1.8-3A4 4 0 0 0 15.867 5Zm-9.45 2.971A2 2 0 0 1 8.132 7h7.736a2 2 0 0 1 1.714.971l1.8 3a2 2 0 0 1 0 2.058l-1.8 3a2 2 0 0 1-1.715.971H8.133a2 2 0 0 1-1.715-.971l-1.8-3a2 2 0 0 1 0-2.058l1.8-3Z"/></symbol><symbol viewBox="0 0 24 24" id="ev_plug_domestic_k" xmlns="http://www.w3.org/2000/svg"><path d="M12 2a10 10 0 1 0 10 10A10 10 0 0 0 12 2Zm0 18a8 8 0 1 1 8-8 8 8 0 0 1-8 8Zm5-5.75A1.25 1.25 0 1 1 15.75 13 1.25 1.25 0 0 1 17 14.25Zm-7.5 0A1.25 1.25 0 1 1 8.25 13a1.25 1.25 0 0 1 1.25 1.25ZM14 9h-4a2 2 0 0 1 4 0Z" fill-rule="evenodd"/><path fill="none" d="M0 0h24v24H0z"/></symbol><symbol viewBox="0 0 24 24" id="ev_plug_domestic_l" xmlns="http://www.w3.org/2000/svg"><path d="M8 13.25a1.25 1.25 0 1 0 0-2.5 1.25 1.25 0 0 0 0 2.5ZM16 13.25a1.25 1.25 0 1 0 0-2.5 1.25 1.25 0 0 0 0 2.5ZM13.25 12a1.25 1.25 0 1 1-2.5 0 1.25 1.25 0 0 1 2.5 0Z"/><path fill-rule="evenodd" clip-rule="evenodd" d="M15.867 5H8.133a4 4 0 0 0-3.43 1.942l-1.8 3a4 4 0 0 0 0 4.116l1.8 3A4 4 0 0 0 8.132 19h7.736a4 4 0 0 0 3.43-1.942l1.8-3a4 4 0 0 0 0-4.116l-1.8-3A4 4 0 0 0 15.867 5Zm-9.45 2.971A2 2 0 0 1 8.132 7h7.736a2 2 0 0 1 1.714.971l1.8 3a2 2 0 0 1 0 2.058l-1.8 3a2 2 0 0 1-1.715.971H8.133a2 2 0 0 1-1.715-.971l-1.8-3a2 2 0 0 1 0-2.058l1.8-3Z"/></symbol><symbol viewBox="0 0 24 24" id="ev_plug_iec_60309_2_single_16" xmlns="http://www.w3.org/2000/svg"><path d="M13.5 2.2V2a2 2 0 0 0-4 0v.2a10 10 0 1 0 4 0Zm-2 17.8a8 8 0 1 1 8-8 8 8 0 0 1-8 8Zm5-5.75A1.25 1.25 0 1 1 15.25 13a1.25 1.25 0 0 1 1.25 1.25Zm-7.5 0A1.25 1.25 0 1 1 7.75 13 1.25 1.25 0 0 1 9 14.25Zm4-5.75A1.5 1.5 0 1 1 11.5 7 1.5 1.5 0 0 1 13 8.5Z" fill-rule="evenodd"/><path fill="none" d="M0 0h24v24H0z"/></symbol><symbol viewBox="0 0 24 24" id="ev_plug_iec_60309_2_three_16" xmlns="http://www.w3.org/2000/svg"><path d="M13.5 2.2V2a2 2 0 0 0-4 0v.2a10 10 0 1 0 4 0Zm-2 17.8a8 8 0 1 1 8-8 8 8 0 0 1-8 8Zm6-8.75A1.25 1.25 0 1 1 16.25 10a1.25 1.25 0 0 1 1.25 1.25Zm-4.75 5.5a1.25 1.25 0 1 1-1.25-1.25 1.25 1.25 0 0 1 1.25 1.25ZM8 11.25A1.25 1.25 0 1 1 6.75 10 1.25 1.25 0 0 1 8 11.25Zm5-3.75A1.5 1.5 0 1 1 11.5 6 1.5 1.5 0 0 1 13 7.5Z" fill-rule="evenodd"/><path fill="none" d="M0 0h24v24H0z"/></symbol><symbol viewBox="0 0 24 24" id="ev_plug_iec_60309_2_three_32" xmlns="http://www.w3.org/2000/svg"><path d="M13.5 7.5A1.5 1.5 0 1 1 12 6a1.5 1.5 0 0 1 1.5 1.5ZM7.25 10a1.25 1.25 0 1 0 1.25 1.25A1.25 1.25 0 0 0 7.25 10ZM12 15.5a1.25 1.25 0 1 0 1.25 1.25A1.25 1.25 0 0 0 12 15.5Zm4.75-5.5A1.25 1.25 0 1 0 18 11.25 1.25 1.25 0 0 0 16.75 10ZM22 12a10 10 0 1 1-12-9.8V2a2 2 0 0 1 4 0v.2a10 10 0 0 1 8 9.8Zm-2 0a8 8 0 1 0-8 8 8 8 0 0 0 8-8Z" fill-rule="evenodd"/><path fill="none" d="M0 0h24v24H0z"/></symbol><symbol viewBox="0 0 24 24" id="ev_plug_iec_60309_2_three_64" xmlns="http://www.w3.org/2000/svg"><path d="M14 2.2V2a2 2 0 0 0-4 0v.2a10 10 0 1 0 4 0ZM12 20a8 8 0 1 1 8-8 8 8 0 0 1-8 8Zm6-8.75A1.25 1.25 0 1 1 16.75 10 1.25 1.25 0 0 1 18 11.25Zm-2 5A1.25 1.25 0 1 1 14.75 15 1.25 1.25 0 0 1 16 16.25Zm-5.5 0A1.25 1.25 0 1 1 9.25 15a1.25 1.25 0 0 1 1.25 1.25ZM7.25 12.5a1.25 1.25 0 1 1 1.25-1.25 1.25 1.25 0 0 1-1.25 1.25Zm6.25-5A1.5 1.5 0 1 1 12 6a1.5 1.5 0 0 1 1.5 1.5Z" fill-rule="evenodd"/><path fill="none" d="M0 0h24v24H0z"/></symbol><symbol viewBox="0 0 24 24" id="ev_plug_iec_61851_gbt" xmlns="http://www.w3.org/2000/svg"><path d="M17 16a1 1 0 1 1-2 0 1 1 0 0 1 2 0ZM9 16a1 1 0 1 1-2 0 1 1 0 0 1 2 0ZM14 16a2 2 0 1 1-4 0 2 2 0 0 1 4 0Z"/><path fill-rule="evenodd" clip-rule="evenodd" d="M18.187 3H5.813a10.46 10.46 0 0 0-2.02 2.28A11.065 11.065 0 0 0 2 11.36C2 17.236 6.477 22 12 22s10-4.764 10-10.64c0-2.26-.663-4.357-1.792-6.08A10.46 10.46 0 0 0 18.187 3ZM20 11.36c0 4.89-3.697 8.64-8 8.64s-8-3.75-8-8.64c0-1.867.546-3.582 1.465-4.983.33-.503.706-.964 1.122-1.377h10.826c.416.413.793.874 1.122 1.377A9.066 9.066 0 0 1 20 11.36Z"/><path d="M10 11.5a2.5 2.5 0 1 1-5 0 2.5 2.5 0 0 1 5 0ZM19 11.5a2.5 2.5 0 1 1-5 0 2.5 2.5 0 0 1 5 0ZM13 7a1 1 0 1 1-2 0 1 1 0 0 1 2 0ZM13 10a1 1 0 1 1-2 0 1 1 0 0 1 2 0ZM16 7a1 1 0 1 1-2 0 1 1 0 0 1 2 0ZM10 7a1 1 0 1 1-2 0 1 1 0 0 1 2 0Z"/></symbol><symbol viewBox="0 0 24 24" id="ev_plug_iec_62196_t1" xmlns="http://www.w3.org/2000/svg"><path d="M12 2a10 10 0 1 0 10 10A10 10 0 0 0 12 2Zm0 18a8 8 0 1 1 8-8 8 8 0 0 1-8 8Zm6-7.25a1.25 1.25 0 1 1-1.25-1.25A1.25 1.25 0 0 1 18 12.75Zm-4.5 3.75A1.5 1.5 0 1 1 12 15a1.5 1.5 0 0 1 1.5 1.5Zm-5-3.75a1.25 1.25 0 1 1-1.25-1.25 1.25 1.25 0 0 1 1.25 1.25Zm1-2.75A1.5 1.5 0 1 1 11 8.5 1.5 1.5 0 0 1 9.5 10Zm5 0A1.5 1.5 0 1 1 16 8.5a1.5 1.5 0 0 1-1.5 1.5Z"/><path fill="none" d="M0 0h24v24H0z"/></symbol><symbol viewBox="0 0 24 24" id="ev_plug_iec_62196_t1_combo" xmlns="http://www.w3.org/2000/svg"><path d="M12 14a6 6 0 1 0-6-6 6 6 0 0 0 6 6Zm0-10.5A4.5 4.5 0 1 1 7.5 8 4.49 4.49 0 0 1 12 3.5Zm.75 2.5a1 1 0 1 1 1 1 1 1 0 0 1-1-1Zm2 1.75a.75.75 0 1 1-.75.75.76.76 0 0 1 .75-.75ZM11 10.5a1 1 0 1 1 1 1 1 1 0 0 1-1-1ZM9.25 9.25A.75.75 0 1 1 10 8.5a.76.76 0 0 1-.75.75Zm0-3.25a1 1 0 1 1 1 1 1 1 0 0 1-1-1Zm6.25 9h-7a3.5 3.5 0 0 0 0 7h7a3.5 3.5 0 0 0 0-7Zm0 5.5h-7a2 2 0 0 1 0-4h7a2 2 0 0 1 0 4ZM9 17a1.5 1.5 0 1 0 1.5 1.5A1.5 1.5 0 0 0 9 17Zm0 2a.5.5 0 1 1 .5-.5.5.5 0 0 1-.5.5Zm6.25-2a1.5 1.5 0 1 0 1.5 1.5 1.5 1.5 0 0 0-1.5-1.5Zm0 2a.5.5 0 1 1 .5-.5.5.5 0 0 1-.5.5Z" fill-rule="evenodd"/><path fill="none" d="M0 0h24v24H0z"/></symbol><symbol viewBox="0 0 24 24" id="ev_plug_iec_62196_t2" xmlns="http://www.w3.org/2000/svg"><path d="M10.75 7.25a1.25 1.25 0 1 1-2.5 0 1.25 1.25 0 0 1 2.5 0ZM15.75 7.25a1.25 1.25 0 1 1-2.5 0 1.25 1.25 0 0 1 2.5 0ZM13.5 11.5a1.5 1.5 0 1 1-3 0 1.5 1.5 0 0 1 3 0ZM8.5 11.5a1.5 1.5 0 1 1-3 0 1.5 1.5 0 0 1 3 0ZM18.5 11.5a1.5 1.5 0 1 1-3 0 1.5 1.5 0 0 1 3 0ZM11 16a1.5 1.5 0 1 1-3 0 1.5 1.5 0 0 1 3 0ZM16 16a1.5 1.5 0 1 1-3 0 1.5 1.5 0 0 1 3 0Z"/><path fill-rule="evenodd" clip-rule="evenodd" d="M12 19.5c4.303 0 8-3.75 8-8.64a9.066 9.066 0 0 0-1.465-4.983A8.539 8.539 0 0 0 17.413 4.5H6.587a8.537 8.537 0 0 0-1.122 1.377A9.066 9.066 0 0 0 4 10.86c0 4.89 3.697 8.64 8 8.64Zm-6.187-17h12.374a10.46 10.46 0 0 1 2.02 2.28A11.065 11.065 0 0 1 22 10.86c0 5.876-4.477 10.64-10 10.64S2 16.736 2 10.86c0-2.26.663-4.357 1.792-6.08A10.46 10.46 0 0 1 5.813 2.5Z"/></symbol><symbol viewBox="0 0 24 24" id="ev_plug_iec_62196_t2_combo" xmlns="http://www.w3.org/2000/svg"><path d="M9.69 6a.75.75 0 1 1 .75.75.76.76 0 0 1-.75-.75Zm3.83.75a.75.75 0 1 0-.75-.75.76.76 0 0 0 .75.75ZM12 9.71a1 1 0 1 0-1-1 1 1 0 0 0 1 1Zm-3.15 0a1 1 0 1 0-1-1 1 1 0 0 0 1 1Zm6.3 0a1 1 0 1 0-1-1 1 1 0 0 0 1 1Zm-4.73.77a1 1 0 1 0 1 1 1 1 0 0 0-1-1Zm3.16 0a1 1 0 1 0 1 1 1 1 0 0 0-1-1ZM11 18a1.5 1.5 0 1 1-1.5-1.5A1.5 1.5 0 0 1 11 18Zm-1 0a.5.5 0 1 0-.5.5.5.5 0 0 0 .5-.5Zm6 0a1.5 1.5 0 1 1-1.5-1.5A1.5 1.5 0 0 1 16 18Zm-1 0a.5.5 0 1 0-.5.5.5.5 0 0 0 .5-.5Zm4 0a4 4 0 0 1-4 4H9a4 4 0 0 1-1.12-7.84A7 7 0 0 1 6.25 4.5 7.22 7.22 0 0 1 7.67 3h8.66a7.22 7.22 0 0 1 1.42 1.5 7 7 0 0 1-1.63 9.66A4 4 0 0 1 19 18Zm-7-4a5.5 5.5 0 0 0 5.5-5.5 5.4 5.4 0 0 0-1-3.14 5 5 0 0 0-.74-.86H8.23a5.57 5.57 0 0 0-.75.86A5.5 5.5 0 0 0 12 14Zm5.5 4a2.5 2.5 0 0 0-2.5-2.5H9a2.5 2.5 0 0 0 0 5h6a2.5 2.5 0 0 0 2.5-2.5Z"/><path fill="none" d="M0 0h24v24H0z"/></symbol><symbol viewBox="0 0 24 24" id="ev_plug_iec_62196_t3a" xmlns="http://www.w3.org/2000/svg"><path d="M14 2h-4a8 8 0 0 0-8 8v4a8 8 0 0 0 8 8h4a8 8 0 0 0 8-8v-4a8 8 0 0 0-8-8Zm6 12a6 6 0 0 1-6 6h-4a6 6 0 0 1-6-6v-4a6 6 0 0 1 6-6h4a6 6 0 0 1 6 6Zm-2-2a1.5 1.5 0 1 1-1.5-1.5A1.5 1.5 0 0 1 18 12Zm-4.5 4.5A1.5 1.5 0 1 1 12 15a1.5 1.5 0 0 1 1.5 1.5ZM9 12a1.5 1.5 0 1 1-1.5-1.5A1.5 1.5 0 0 1 9 12Zm1.75-4.75A1.25 1.25 0 1 1 12 8.5a1.25 1.25 0 0 1-1.25-1.25Z" fill-rule="evenodd"/><path fill="none" d="M0 0h24v24H0z"/></symbol><symbol viewBox="0 0 24 24" id="ev_plug_iec_62196_t3c" xmlns="http://www.w3.org/2000/svg"><path d="M14 2h-4a7 7 0 0 0-7 7v6a7 7 0 0 0 7 7h4a7 7 0 0 0 7-7V9a7 7 0 0 0-7-7Zm5 13a5 5 0 0 1-5 5h-.27a2 2 0 0 0-3.46 0H10a5 5 0 0 1-5-5V9a5 5 0 0 1 5-5h1v2h2V4h1a5 5 0 0 1 5 5Zm-4.25-7a.75.75 0 1 1 .75.75.76.76 0 0 1-.75-.75Zm1.75 2.75a1 1 0 1 1-1-1 1 1 0 0 1 1 1Zm0 3a1 1 0 1 1-1-1 1 1 0 0 1 1 1Zm-3.5 3a1 1 0 1 1-1-1 1 1 0 0 1 1 1Zm-3.5-3a1 1 0 1 1-1-1 1 1 0 0 1 1 1Zm0-3a1 1 0 1 1-1-1 1 1 0 0 1 1 1ZM7.75 8a.75.75 0 1 1 .75.75.76.76 0 0 1-.75-.75Z" fill-rule="evenodd"/><path fill="none" d="M0 0h24v24H0z"/></symbol><symbol viewBox="0 0 24 24" id="ev_plug_tesla_r" xmlns="http://www.w3.org/2000/svg"><path d="M14 2.2V1h-4v1.2a10 10 0 1 0 4 0ZM12 20a8 8 0 1 1 8-8 8 8 0 0 1-8 8Zm-4.25-9.75A1.75 1.75 0 1 0 9.5 12a1.75 1.75 0 0 0-1.75-1.75Zm0 2.5A.75.75 0 1 1 8.5 12a.76.76 0 0 1-.75.75ZM12 14.5a1.75 1.75 0 1 0 1.75 1.75A1.75 1.75 0 0 0 12 14.5Zm0 2.5a.75.75 0 1 1 .75-.75.76.76 0 0 1-.75.75Zm4.25-6.75A1.75 1.75 0 1 0 18 12a1.75 1.75 0 0 0-1.75-1.75Zm0 2.5A.75.75 0 1 1 17 12a.76.76 0 0 1-.75.75ZM12 9a1.5 1.5 0 1 0-1.5-1.5A1.5 1.5 0 0 0 12 9Zm0-2a.5.5 0 1 1-.5.5.5.5 0 0 1 .5-.5Z" fill-rule="evenodd"/><path fill="none" d="M0 0h24v24H0z"/></symbol><symbol viewBox="0 0 24 24" id="ev_plug_tesla_s" xmlns="http://www.w3.org/2000/svg"><path d="M9.5 8.5a1.25 1.25 0 1 0 0-2.5 1.25 1.25 0 0 0 0 2.5ZM14.5 8.5a1.25 1.25 0 1 0 0-2.5 1.25 1.25 0 0 0 0 2.5ZM13.5 11.5a1.5 1.5 0 1 1-3 0 1.5 1.5 0 0 1 3 0ZM7 13a1.5 1.5 0 1 0 0-3 1.5 1.5 0 0 0 0 3ZM18.5 11.5a1.5 1.5 0 1 1-3 0 1.5 1.5 0 0 1 3 0ZM9.5 17.5a1.5 1.5 0 1 0 0-3 1.5 1.5 0 0 0 0 3ZM16 16a1.5 1.5 0 1 1-3 0 1.5 1.5 0 0 1 3 0Z"/><path fill-rule="evenodd" clip-rule="evenodd" d="M18.187 2.5H5.813a10.46 10.46 0 0 0-2.02 2.28A11.065 11.065 0 0 0 2 10.86C2 16.736 6.477 21.5 12 21.5s10-4.764 10-10.64c0-2.26-.663-4.357-1.792-6.08a10.46 10.46 0 0 0-2.021-2.28ZM20 10.86c0 4.89-3.697 8.64-8 8.64s-8-3.75-8-8.64c0-1.867.546-3.582 1.465-4.983.33-.503.706-.964 1.122-1.377h10.826c.416.413.793.874 1.122 1.377A9.066 9.066 0 0 1 20 10.86Z"/></symbol><symbol viewBox="0 0 24 24" id="ev_plug_type_one" xmlns="http://www.w3.org/2000/svg"><path d="M12 2a10 10 0 1 0 10 10A10 10 0 0 0 12 2Zm0 18a8 8 0 1 1 8-8 8 8 0 0 1-8 8Zm6-7.25a1.25 1.25 0 1 1-1.25-1.25A1.25 1.25 0 0 1 18 12.75Zm-4.5 3.75A1.5 1.5 0 1 1 12 15a1.5 1.5 0 0 1 1.5 1.5Zm-5-3.75a1.25 1.25 0 1 1-1.25-1.25 1.25 1.25 0 0 1 1.25 1.25Zm1-2.75A1.5 1.5 0 1 1 11 8.5 1.5 1.5 0 0 1 9.5 10Zm5 0A1.5 1.5 0 1 1 16 8.5a1.5 1.5 0 0 1-1.5 1.5Z"/><path fill="none" d="M0 0h24v24H0z"/></symbol><symbol viewBox="0 0 24 24" id="ev_plug_type_two" xmlns="http://www.w3.org/2000/svg"><path d="M10.75 7.25a1.25 1.25 0 1 1-2.5 0 1.25 1.25 0 0 1 2.5 0ZM15.75 7.25a1.25 1.25 0 1 1-2.5 0 1.25 1.25 0 0 1 2.5 0ZM13.5 11.5a1.5 1.5 0 1 1-3 0 1.5 1.5 0 0 1 3 0ZM8.5 11.5a1.5 1.5 0 1 1-3 0 1.5 1.5 0 0 1 3 0ZM18.5 11.5a1.5 1.5 0 1 1-3 0 1.5 1.5 0 0 1 3 0ZM11 16a1.5 1.5 0 1 1-3 0 1.5 1.5 0 0 1 3 0ZM16 16a1.5 1.5 0 1 1-3 0 1.5 1.5 0 0 1 3 0Z"/><path fill-rule="evenodd" clip-rule="evenodd" d="M12 19.5c4.303 0 8-3.75 8-8.64a9.066 9.066 0 0 0-1.465-4.983A8.539 8.539 0 0 0 17.413 4.5H6.587a8.537 8.537 0 0 0-1.122 1.377A9.066 9.066 0 0 0 4 10.86c0 4.89 3.697 8.64 8 8.64Zm-6.187-17h12.374a10.46 10.46 0 0 1 2.02 2.28A11.065 11.065 0 0 1 22 10.86c0 5.876-4.477 10.64-10 10.64S2 16.736 2 10.86c0-2.26.663-4.357 1.792-6.08A10.46 10.46 0 0 1 5.813 2.5Z"/></symbol><symbol viewBox="0 0 24 24" id="forklift" xmlns="http://www.w3.org/2000/svg"><path d="M6 4v7H4a2 2 0 0 0-2 2v4a3 3 0 0 0 6 0h2a3 3 0 0 0 6 0v-4l-4-9H6m11 1v14h5v-1.5h-3.5V5H17m-9.5.5h3.7l3.3 7.5h-7V5.5M5 15.5A1.5 1.5 0 1 1 3.5 17 1.5 1.5 0 0 1 5 15.5m8 0a1.5 1.5 0 1 1-1.5 1.5 1.5 1.5 0 0 1 1.5-1.5Z"/><path fill="none" d="M0 0h24v24H0z"/></symbol><symbol viewBox="0 0 24 24" id="pantograph_bottom_up" xmlns="http://www.w3.org/2000/svg"><path d="M22 3H2v2h20V3ZM15.465 10h-2.847l2.043 4.085a2 2 0 0 1-.033 1.853L12.958 19H22v2H2v-2h8.679l2.193-4.02-2.49-4.98H8.535l-.703 1.055a1 1 0 0 1-1.664-1.11l.852-1.277A1.5 1.5 0 0 1 8.268 8h7.464c.502 0 .97.25 1.249.668l.851 1.277a1 1 0 0 1-1.664 1.11L15.465 10Z"/></symbol><symbol viewBox="0 0 24 24" id="pantograph_top_down" xmlns="http://www.w3.org/2000/svg"><path d="M22 3H2v2h8.382l2.49 4.98-2.466 4.52h-1.87l-.704-1.055a1 1 0 0 0-1.664 1.11l.852 1.277a1.5 1.5 0 0 0 1.248.668h7.464a1.5 1.5 0 0 0 1.249-.668l.851-1.277a1 1 0 0 0-1.664-1.11l-.703 1.055h-2.78l1.943-3.562a2 2 0 0 0 .033-1.853L12.618 5H22V3ZM2 21h20v-2H2v2Z"/></symbol><symbol viewBox="0 0 24 24" id="pickup_truck" xmlns="http://www.w3.org/2000/svg"><path d="M16 6h-5.5v4H1v5h2a3 3 0 0 0 6 0h6a3 3 0 0 0 6 0h2v-3a2 2 0 0 0-2-2h-2l-3-4m-4 1.5h3.5l2 2.5H12V7.5m-6 6A1.5 1.5 0 1 1 4.5 15 1.5 1.5 0 0 1 6 13.5m12 0a1.5 1.5 0 1 1-1.5 1.5 1.5 1.5 0 0 1 1.5-1.5Z"/><path fill="none" d="M0 0h24v24H0z"/></symbol><symbol viewBox="0 0 24 24" id="sports_car" xmlns="http://www.w3.org/2000/svg"><path d="M12 8.5H7L4 11H3c-1.11 0-2 .89-2 2v3h2.17c.43 1.2 1.56 2 2.83 2s2.4-.8 2.82-2h6.35c.43 1.2 1.56 2 2.83 2s2.4-.8 2.82-2H23v-1c0-1.11-1.03-1.47-2-2l-9-4.5M5.25 12l2.25-2h4l4 2H5.25M6 13.5c.83 0 1.5.67 1.5 1.5s-.67 1.5-1.5 1.5-1.5-.67-1.5-1.5.67-1.5 1.5-1.5m12 0c.83 0 1.5.67 1.5 1.5s-.67 1.5-1.5 1.5-1.5-.67-1.5-1.5.67-1.5 1.5-1.5z"/><path fill="none" d="M0 0h24v24H0z"/></symbol><symbol viewBox="0 0 24 24" id="tractor" xmlns="http://www.w3.org/2000/svg"><path d="M5 4v7.26c-1.8.64-3 2.34-3 4.24C2 18 4 20 6.5 20c2.29 0 4.21-1.72 4.47-4h4.2c-.11.32-.17.66-.17 1 0 1.66 1.34 3 3 3s3-1.34 3-3c0-.34-.06-.68-.18-1H22v-3c0-1.11-.89-2-2-2h-4.96l-1.39-7H5m2 2h5l1 5v3h-2.26A4.53 4.53 0 0 0 7 11.03V6m-.5 7.25c1.24 0 2.25 1.01 2.25 2.25s-1.01 2.25-2.25 2.25-2.25-1.01-2.25-2.25 1.01-2.25 2.25-2.25M18 15.5c.83 0 1.5.67 1.5 1.5s-.67 1.5-1.5 1.5-1.5-.67-1.5-1.5.67-1.5 1.5-1.5z"/><path fill="none" d="M0 0h24v24H0z"/></symbol><symbol viewBox="0 0 24 24" id="utility_van" xmlns="http://www.w3.org/2000/svg"><path d="M3 7c-1.11 0-2 .89-2 2v8h2c0 1.66 1.34 3 3 3s3-1.34 3-3h6c0 1.66 1.34 3 3 3s3-1.34 3-3h2v-4c0-1.11-.89-2-2-2l-3-4H3m12 1.5h2.5l1.96 2.5H15V8.5m-9 7c.83 0 1.5.67 1.5 1.5s-.67 1.5-1.5 1.5-1.5-.67-1.5-1.5.67-1.5 1.5-1.5m12 0c.83 0 1.5.67 1.5 1.5s-.67 1.5-1.5 1.5-1.5-.67-1.5-1.5.67-1.5 1.5-1.5z"/><path fill="none" d="M0 0h24v24H0z"/></symbol></svg>