<svg xmlns="http://www.w3.org/2000/svg" width="24" height="24" viewBox="0 0 24 24">
  <title>px_flow_24px</title>
  <g>
    <path d="M5.35,14.78a1.84,1.84,0,0,1,1.15.37,3.76,3.76,0,0,0,2.18.64,3.74,3.74,0,0,0,2.18-.64,2,2,0,0,1,2.3,0,4,4,0,0,0,4.36,0,2,2,0,0,1,2.3,0,3.77,3.77,0,0,0,2.16.64v-2a1.89,1.89,0,0,1-1.15-.36,4,4,0,0,0-4.36,0,1.77,1.77,0,0,1-1.15.36,1.89,1.89,0,0,1-1.15-.36,4,4,0,0,0-4.36,0,1.77,1.77,0,0,1-1.15.36,1.89,1.89,0,0,1-1.15-.36,3.82,3.82,0,0,0-2.18-.65,3.82,3.82,0,0,0-2.18.65A1.77,1.77,0,0,1,2,13.77v2a3.9,3.9,0,0,0,2.2-.64A1.84,1.84,0,0,1,5.35,14.78Z"/>
    <path d="M22,15.79s0,0,0,0h0Z"/>
    <path d="M16.49,18a1.77,1.77,0,0,1-1.15.36A1.89,1.89,0,0,1,14.19,18,3.82,3.82,0,0,0,12,17.31,3.88,3.88,0,0,0,9.82,18a1.75,1.75,0,0,1-1.15.36A1.77,1.77,0,0,1,7.52,18a3.87,3.87,0,0,0-2.18-.65A3.88,3.88,0,0,0,3.15,18,1.77,1.77,0,0,1,2,18.32v2a4,4,0,0,0,2.19-.65,1.82,1.82,0,0,1,1.15-.37,1.84,1.84,0,0,1,1.15.37,3.87,3.87,0,0,0,2.18.65,4,4,0,0,0,2.19-.65,2,2,0,0,1,2.3,0,4,4,0,0,0,4.36,0,2,2,0,0,1,2.3,0,3.82,3.82,0,0,0,2.18.65h0v-2A1.77,1.77,0,0,1,20.85,18,4,4,0,0,0,16.49,18Z"/>
    <path d="M22,6.69h0Z"/>
    <path d="M5.35,5.68A1.89,1.89,0,0,1,6.5,6a3.85,3.85,0,0,0,2.18.65A3.82,3.82,0,0,0,10.86,6,1.77,1.77,0,0,1,12,5.68,1.89,1.89,0,0,1,13.16,6a4,4,0,0,0,4.36,0,1.77,1.77,0,0,1,1.15-.36A1.89,1.89,0,0,1,19.82,6,3.78,3.78,0,0,0,22,6.69v-2a1.84,1.84,0,0,1-1.15-.37,4,4,0,0,0-4.36,0,2,2,0,0,1-2.3,0,4,4,0,0,0-4.36,0,2,2,0,0,1-2.3,0,3.82,3.82,0,0,0-2.18-.65,3.82,3.82,0,0,0-2.18.65A1.84,1.84,0,0,1,2,4.67v2A3.91,3.91,0,0,0,4.2,6,1.77,1.77,0,0,1,5.35,5.68Z"/>
    <path d="M20.85,8.85a4,4,0,0,0-4.36,0,2,2,0,0,1-2.3,0A3.74,3.74,0,0,0,12,8.21a3.87,3.87,0,0,0-2.19.64,1.82,1.82,0,0,1-1.15.37,1.78,1.78,0,0,1-1.15-.37,3.78,3.78,0,0,0-2.18-.64,3.87,3.87,0,0,0-2.19.64A1.84,1.84,0,0,1,2,9.22v2a3.88,3.88,0,0,0,2.19-.65,1.75,1.75,0,0,1,1.15-.36,1.77,1.77,0,0,1,1.15.36,4,4,0,0,0,4.37,0A1.77,1.77,0,0,1,12,10.23a1.89,1.89,0,0,1,1.15.36,4,4,0,0,0,4.36,0,1.77,1.77,0,0,1,1.15-.36,1.89,1.89,0,0,1,1.15.36,3.82,3.82,0,0,0,2.18.65h0v-2A1.84,1.84,0,0,1,20.85,8.85Z"/>
  </g>
  
</svg>
