<?xml version="1.0" encoding="utf-8"?>
<!-- Generator: Adobe Illustrator 21.1.0, SVG Export Plug-In . SVG Version: 6.00 Build 0)  -->
<svg version="1.1" id="Layer_2" xmlns="http://www.w3.org/2000/svg" xmlns:xlink="http://www.w3.org/1999/xlink" x="0px" y="0px"
	 viewBox="0 0 100 100" style="enable-background:new 0 0 24 24;" xml:space="preserve">
<style type="text/css">
	.st0{fill:#404040;}
</style>
<path class="st0" d="M9.7,5.3L17.5,5l2.2-2.3c0.7-0.7,1.9-0.8,2.7,0s0.8,1.9,0,2.7l-2.2,2.3l0,7.9l-0.8,0.8l-2.8-5l-1.3,1.3l0,4.5
	L15,17.6l-1.8-3.3l-2.1-2l-3.3-1.7l0.5-0.5l4.5-0.1L14,8.7L8.9,6.1L9.7,5.3z M9.7,14C8.2,16,6.3,17.5,4,18.4c-1,0.4-2,0.7-3,0.9v2.5
	c1.3-0.2,2.7-0.6,4-1.1c2.7-1.1,4.8-2.9,6.5-5L9.7,14z"/>
</svg>
