<?xml version="1.0" encoding="utf-8"?>
<!-- Generator: Adobe Illustrator 21.1.0, SVG Export Plug-In . SVG Version: 6.00 Build 0)  -->
<svg version="1.1" id="Layer_2" xmlns="http://www.w3.org/2000/svg" xmlns:xlink="http://www.w3.org/1999/xlink" x="0px" y="0px"
	 viewBox="0 0 24 24" style="enable-background:new 0 0 24 24;" xml:space="preserve">
<style type="text/css">
	.st0{fill:#404040;}
</style>
<path class="st0" d="M12,2C8,2,4.8,5.3,4.8,9.3C4.8,13.3,12,22,12,22s7.2-8.7,7.2-12.7C19.2,5.3,16,2,12,2z M17,13.2l-3.7-2.5
	l-1,3.1l1.1,1.1L13,16.3l-2.2-1.5l-2.7-0.1l0.5-1.4l1.5-0.2l1-3.1L6.7,9.9L7,9l4.8-1l0.5-1.5c0.8-2.4,1.8-1.8,1.8-1.8
	s1.2,0.1,0.4,2.6L14,8.7l3.3,3.6L17,13.2z"/>
</svg>
