<?xml version="1.0" encoding="utf-8"?>
<!-- Generator: Adobe Illustrator 21.1.0, SVG Export Plug-In . SVG Version: 6.00 Build 0)  -->
<svg version="1.1" id="Layer_2" xmlns="http://www.w3.org/2000/svg" xmlns:xlink="http://www.w3.org/1999/xlink" x="0px" y="0px"
	 viewBox="0 0 100 100" style="enable-background:new 0 0 24 24;" xml:space="preserve">
<style type="text/css">
	.st0{fill:#404040;}
</style>
<path class="st0" d="M21.3,11.3l-3.6-0.9l-2.4-3.4c-0.2-0.3-0.6-0.5-1-0.5H5.5C5,6.4,4.6,6.7,4.4,7.1l-1.3,3H2.7
	c-0.5,0-0.9,0.4-0.9,0.9v3.7c0,0.5,0.4,0.9,0.9,0.9h0.8c0.2,1.1,1.2,2,2.4,2s2.2-0.9,2.4-2h6.7c0.2,1.1,1.2,2,2.4,2
	c1.2,0,2.2-0.9,2.4-2h1.6c0.5,0,0.9-0.4,0.9-0.9v-2.6C22.1,11.7,21.9,11.4,21.3,11.3z M14.3,7.6l1.8,2.5l-5.5,0.1V7.6L14.3,7.6
	L14.3,7.6z M5.5,7.6h3.9v2.6H4.3L5.5,7.6z M5.9,16.4c-0.7,0-1.3-0.6-1.3-1.3c0-0.7,0.6-1.3,1.3-1.3s1.3,0.6,1.3,1.3
	C7.2,15.9,6.6,16.4,5.9,16.4z M17.3,16.4c-0.7,0-1.3-0.6-1.3-1.3c0-0.7,0.6-1.3,1.3-1.3c0.7,0,1.3,0.6,1.3,1.3
	C18.6,15.9,18,16.4,17.3,16.4z"/>
</svg>
