<?xml version="1.0" encoding="utf-8"?>
<!-- Generator: Adobe Illustrator 21.1.0, SVG Export Plug-In . SVG Version: 6.00 Build 0)  -->
<svg version="1.1" id="Layer_2" xmlns="http://www.w3.org/2000/svg" xmlns:xlink="http://www.w3.org/1999/xlink" x="0px" y="0px"
	 viewBox="0 0 100 100" style="enable-background:new 0 0 24 24;" xml:space="preserve">
<style type="text/css">
	.st0{fill:#404040;}
</style>
<path class="st0" d="M21.1,8.1c-1.6-3.8-5.3-6.1-9.1-6.1c-1.3,0-2.6,0.3-3.9,0.8c-5,2.1-7.4,8-5.3,13c1.6,3.8,5.3,6.1,9.1,6.1
	c1.3,0,2.6-0.3,3.9-0.8C20.9,19,23.3,13.2,21.1,8.1z M15.1,19.3c-1,0.4-2,0.6-3.1,0.6c-3.2,0-6.1-1.9-7.3-4.8
	C3,11.1,4.9,6.4,8.9,4.7c1-0.4,2-0.6,3.1-0.6c3.2,0,6.1,1.9,7.3,4.8C21,12.9,19.1,17.6,15.1,19.3z M17.7,9.7c1.2,3.1-0.2,6.7-3.4,8
	c-0.8,0.3-1.6,0.5-2.4,0.5c-2.4,0-4.7-1.4-5.7-3.8c-1.3-3.2,0.1-6.8,3.3-8.2c0.8-0.3,1.6-0.5,2.4-0.5c1.9,0,3.7,0.9,4.9,2.3
	l-3.6,3.6c0,0.1,0.1,0.2,0.1,0.3c0,0.7-0.6,1.3-1.3,1.3s-1.3-0.6-1.3-1.3c0-0.7,0.6-1.3,1.3-1.3c0.1,0,0.1,0,0.2,0l2.6-2.6
	c-0.8-0.6-1.7-0.9-2.7-0.9c-0.6,0-1.3,0.1-1.8,0.4c-2.4,1-3.5,3.8-2.5,6.2c0.7,1.8,2.5,2.9,4.4,2.9c0.6,0,1.3-0.1,1.8-0.4
	c2.2-0.9,3.3-3.3,2.7-5.5L17.7,9.7z"/>
</svg>
