<?xml version="1.0" encoding="utf-8"?>
<!-- Generator: Adobe Illustrator 21.1.0, SVG Export Plug-In . SVG Version: 6.00 Build 0)  -->
<svg version="1.1" id="Layer_2" xmlns="http://www.w3.org/2000/svg" xmlns:xlink="http://www.w3.org/1999/xlink" x="0px" y="0px"
	 viewBox="0 0 100 100" style="enable-background:new 0 0 24 24;" xml:space="preserve">
<style type="text/css">
	.st0{fill:#404040;}
</style>
<path class="st0" d="M8.3,20h7.5V4H8.3V20z M12.3,5.1h2.7v2h-2.7V5.1z M9.2,13.2h5.7v2H9.2V13.2z M9.2,16.5h5.7v2H9.2V16.5z
	 M16.5,6.5v11.2H21V6.5H16.5z M20.4,16.7H17v-1.5h3.4V16.7z M20.4,14.4H17v-1.5h3.4V14.4z M20.4,8.6h-2V7.1h2V8.6z M3,17.8h4.5V6.5
	H3V17.8z M5,7.1h2v1.5H5V7.1z M3.6,12.9H7v1.5H3.6V12.9z M3.6,15.2H7v1.5H3.6V15.2z"/>
</svg>
