<?xml version="1.0" encoding="utf-8"?>
<!-- Generator: Adobe Illustrator 21.1.0, SVG Export Plug-In . SVG Version: 6.00 Build 0)  -->
<svg version="1.1" id="Layer_2" xmlns="http://www.w3.org/2000/svg" xmlns:xlink="http://www.w3.org/1999/xlink" x="0px" y="0px"
	 viewBox="0 0 100 100" style="enable-background:new 0 0 24 24;" xml:space="preserve">
<style type="text/css">
	.st0{fill:#404040;}
</style>
<path class="st0" d="M16.8,8.7h-1V7.2h0.9V6.1h-0.9V5.3h0.9V4.3h-0.9V3h-2.1v1.3h-0.9v1.1h0.9v0.8h-0.9v1.1h0.9v1.5h-3.5V7.2h0.9
	V6.1h-0.9V5.3h0.9V4.3h-0.9V3H8.2v1.3H7.3v1.1h0.9v0.8H7.3v1.1h0.9v1.5h-1H5.5v1.5v9.3V21h1.6h9.6h1.6v-1.5v-9.3V8.7H16.8z
	 M16.8,19.5H7.2v-9.3h9.6V19.5z M11,15.8l-2.9,0l3.9-3.8l3.9,3.8h-2.9H11z"/>
</svg>
