<?xml version="1.0" encoding="utf-8"?>
<!-- Generator: Adobe Illustrator 21.1.0, SVG Export Plug-In . SVG Version: 6.00 Build 0)  -->
<svg version="1.1" id="Layer_2" xmlns="http://www.w3.org/2000/svg" xmlns:xlink="http://www.w3.org/1999/xlink" x="0px" y="0px"
	 viewBox="0 0 100 100" style="enable-background:new 0 0 24 24;" xml:space="preserve">
<style type="text/css">
	.st0{fill:#404040;}
</style>
<path class="st0" d="M8.2,10.3h2.9V11H10v0.7h4.3V11h-1.1v-0.7h2.9c0.4,0,0.7-0.3,0.7-0.7V4.5c0-0.4-0.3-0.7-0.7-0.7H8.2
	c-0.4,0-0.7,0.3-0.7,0.7v5.1C7.5,10,7.8,10.3,8.2,10.3z M8.7,4.8h6.9v4H8.7V4.8z M20,20.2h-1.8v-6.1H9.9v0.2V18v2.2H8.2V18H5.8v2.2
	H4V18h0v-3.7h0v-0.2h0v-1.8h16"/>
</svg>
