<?xml version="1.0" encoding="utf-8"?>
<!-- Generator: Adobe Illustrator 21.1.0, SVG Export Plug-In . SVG Version: 6.00 Build 0)  -->
<svg version="1.1" id="Layer_2" xmlns="http://www.w3.org/2000/svg" xmlns:xlink="http://www.w3.org/1999/xlink" x="0px" y="0px"
	 viewBox="0 0 100 100" style="enable-background:new 0 0 24 24;" xml:space="preserve">
<style type="text/css">
	.st0{fill:#404040;}
</style>
<path class="st0" d="M7.7,21.3l2.7-6.8l-4.2-1.7l9.6-10.1l-2.9,7.4l4.9,1.9L7.7,21.3z M4,12c0-4.4,3.6-8,8-8c0.4,0,0.8,0,1.1,0.1
	l1.6-1.7C13.9,2.1,13,2,12,2C6.5,2,2,6.5,2,12c0,3.6,2,6.8,4.9,8.6l0.7-1.9C5.4,17.3,4,14.8,4,12z M16.7,3.2L16,5.1
	c2.4,1.4,4,4,4,6.9c0,4.4-3.6,8-8,8c-0.4,0-0.8,0-1.3-0.1l-1.8,1.6c1,0.3,2,0.5,3.1,0.5c5.5,0,10-4.5,10-10
	C22,8.2,19.9,4.9,16.7,3.2z"/>
</svg>
