<?xml version="1.0" encoding="utf-8"?>
<!-- Generator: Adobe Illustrator 21.1.0, SVG Export Plug-In . SVG Version: 6.00 Build 0)  -->
<svg version="1.1" id="Layer_2" xmlns="http://www.w3.org/2000/svg" xmlns:xlink="http://www.w3.org/1999/xlink" x="0px" y="0px"
	 viewBox="0 0 100 100" style="enable-background:new 0 0 24 24;" xml:space="preserve">
<style type="text/css">
	.st0{fill:#404040;}
</style>
<path class="st0" d="M2,4V20h20V4H2z M17.1,5.9h2.1v2h-2.1V5.9z M8.8,4.5H11v3.4H8.8V4.5z M5.5,4.5h2.1v3.4H5.5V4.5z M7.7,19.5H5.5
	v-3.4h2.1V19.5z M11,19.5H8.8v-3.4H11V19.5z M19.2,19.5h-2.1v-2h2.1V19.5z M20,15.5H4v-1.2h16V15.5z M5.5,13.7v-3.4h2.1v3.4H5.5z
	 M8.8,13.7v-3.4H11v3.4H8.8z M17.1,13.7v-2h2.1v2H17.1z M20,9.8H4V8.5h16V9.8z"/>
</svg>
