<?xml version="1.0" encoding="utf-8"?>
<!-- Generator: Adobe Illustrator 21.1.0, SVG Export Plug-In . SVG Version: 6.00 Build 0)  -->
<svg version="1.1" id="Layer_2" xmlns="http://www.w3.org/2000/svg" xmlns:xlink="http://www.w3.org/1999/xlink" x="0px" y="0px"
	 viewBox="0 0 100 100" style="enable-background:new 0 0 24 24;" xml:space="preserve">
<style type="text/css">
	.st0{fill:#404040;}
</style>
<path class="st0" d="M17,3.1L6.8,3.2l-5,8.9L7,20.9l10.2-0.1l5-8.9L17,3.1z M16,18.8l-7.9,0.1l-4-6.8L8,5.2l7.9-0.1l4,6.8L16,18.8z
	 M10.7,13.9l0.9,0.9L11.4,15c-0.2,0.2-0.4,0.3-0.6,0.4c-0.3,0.1-0.5,0.2-0.8,0.2c-0.7,0-1.4-0.4-1.8-1.1C7.8,13.6,8,12.6,8.7,12
	c-0.1-0.1-0.2-0.3-0.3-0.4C8,11,7.9,10.4,8.1,9.8c0.2-0.6,0.6-1,1.1-1.3C10,8.2,10.9,8.4,11.4,9l0.2,0.2l-0.9,0.9l-0.2-0.2
	c-0.1-0.1-0.3-0.2-0.4-0.2c-0.4,0-0.6,0.2-0.7,0.5c-0.1,0.4,0,0.8,0.4,1c0.1,0.1,0.2,0.1,0.4,0.1c0.1,0,0.3,0,0.4,0l0.5,0v1.5h-0.3
	h-0.1c-0.1,0-0.2,0-0.2,0c-0.2,0-0.3,0-0.5,0c-0.3,0.1-0.5,0.2-0.6,0.6c-0.1,0.3,0.1,0.7,0.3,0.8c0.3,0.2,0.6,0.1,0.8-0.1L10.7,13.9
	z M16,14.3v1.2l-0.3,0c-0.1,0-0.2,0-0.2,0c-0.5,0-0.9-0.2-1.1-0.6l-0.1-0.3c0,0.1-0.1,0.1-0.1,0.2c-0.2,0.4-0.6,0.8-1.4,0.7l-0.3,0
	v-1.3H13c0.1-0.3,0.3-0.6,0.5-0.9c-0.2-0.3-0.3-0.6-0.5-0.9c0,0-0.1,0-0.1,0l-0.4,0l0-1.2l0.3,0c0.5-0.1,1.1,0.1,1.3,0.6
	c0.1,0.1,0.1,0.2,0.2,0.3c0-0.1,0.1-0.1,0.1-0.2c0.3-0.5,0.8-0.7,1.4-0.7l0.3,0v1.3h-0.5c-0.2,0.3-0.3,0.6-0.5,0.9l0.5,0.9L16,14.3z
	"/>
</svg>
