<?xml version="1.0" encoding="utf-8"?>
<!-- Generator: Adobe Illustrator 21.1.0, SVG Export Plug-In . SVG Version: 6.00 Build 0)  -->
<svg version="1.1" id="Layer_2" xmlns="http://www.w3.org/2000/svg" xmlns:xlink="http://www.w3.org/1999/xlink" x="0px" y="0px"
	 viewBox="0 0 100 100" style="enable-background:new 0 0 24 24;" xml:space="preserve">
<style type="text/css">
	.st0{fill:#404040;}
</style>
<path class="st0" d="M21.1,5.9V4.6V3.1h-1.5H9.9H8.4v1.5v0.9H4.5H3V7V8c-0.6,0.5-1,1.2-1,2v4c0,0.8,0.4,1.5,1,2v1.2v1.5h1.5h1
	c0.2,1.2,1.3,2.2,2.6,2.2s2.4-0.9,2.6-2.2h4.4c0.2,1.2,1.3,2.2,2.6,2.2s2.4-0.9,2.6-2.2h0H22v-1.5V7.7C22,7,21.6,6.4,21.1,5.9z
	 M20.5,17.2H19v1c0,0.7-0.5,1.2-1.2,1.2s-1.2-0.5-1.2-1.2v-1H9.3v1c0,0.7-0.5,1.2-1.2,1.2s-1.2-0.5-1.2-1.2v-1H4.5v-2.2
	c-0.5,0-1-0.5-1-1v-4c0-0.5,0.4-1,1-1V7h5.4V4.6h9.7V7h0.1c0.4,0,0.8,0.3,0.8,0.8V17.2z M19.1,9.6l-0.9-1.5C18.1,8,18,8,17.9,8
	l-1.1,0.4C16.6,8.3,16.3,8.1,16,8l-0.2-1.2c0-0.1-0.1-0.2-0.2-0.2h-1.8c-0.1,0-0.2,0.1-0.2,0.2L13.5,8c-0.3,0.1-0.5,0.3-0.7,0.4
	L11.6,8c-0.1,0-0.2,0-0.3,0.1l-0.9,1.5c-0.1,0.1,0,0.2,0.1,0.3l0.9,0.7c0,0.1,0,0.3,0,0.4s0,0.3,0,0.4l-0.9,0.7
	c-0.1,0.1-0.1,0.2-0.1,0.3l0.9,1.5c0.1,0.1,0.2,0.1,0.3,0.1l1.1-0.4c0.2,0.2,0.5,0.3,0.7,0.4l0.2,1.2c0,0.1,0.1,0.2,0.2,0.2h1.8
	c0.1,0,0.2-0.1,0.2-0.2l0.2-1.2c0.3-0.1,0.5-0.3,0.7-0.4l1.1,0.4c0.1,0,0.2,0,0.3-0.1l0.9-1.5c0.1-0.1,0-0.2-0.1-0.3l-0.9-0.7
	c0-0.1,0-0.3,0-0.4s0-0.3,0-0.4L19,9.9C19.1,9.9,19.1,9.7,19.1,9.6z M14.8,12.6c-0.9,0-1.6-0.7-1.6-1.6c0-0.9,0.7-1.6,1.6-1.6
	c0.9,0,1.6,0.7,1.6,1.6C16.3,11.9,15.6,12.6,14.8,12.6z"/>
</svg>
