<?xml version="1.0" encoding="utf-8"?>
<!-- Generator: Adobe Illustrator 21.1.0, SVG Export Plug-In . SVG Version: 6.00 Build 0)  -->
<svg version="1.1" id="Layer_2" xmlns="http://www.w3.org/2000/svg" xmlns:xlink="http://www.w3.org/1999/xlink" x="0px" y="0px"
	 viewBox="0 0 100 100" style="enable-background:new 0 0 24 24;" xml:space="preserve">
<style type="text/css">
	.st0{fill:#404040;}
</style>
<path class="st0" d="M18.1,4.9c0.5,0.4,0.5,1,0.2,1.5c-0.2,0.2-1.7,2-3.7,2c-1.4,0-2.6-0.7-3.6-1.3c-0.6-0.3-1.3-0.7-1.6-0.8
	c-0.7,0-1.6,0.8-1.9,1.1C7.2,7.6,7,7.9,6.5,7.9C6,7.9,5.5,7.4,5.5,6.8c0-0.4,0.2-0.7,0.5-0.9c0.7-0.6,1.9-1.7,3.4-1.7
	c0.9,0,1.8,0.5,2.8,1.1c0.9,0.5,1.7,1,2.5,1c0.9,0,1.8-0.9,2-1.2C17,4.6,17.7,4.6,18.1,4.9z M16.6,10.8c-0.2,0.3-1.2,1.2-2,1.2
	c-0.8,0-1.7-0.5-2.5-1c-0.9-0.6-1.8-1.1-2.8-1.1C7.8,9.9,6.6,11,6,11.6c-0.3,0.2-0.5,0.5-0.5,0.9c0,0.6,0.5,1.1,1.1,1.1c0,0,0,0,0,0
	c0.4,0,0.7-0.2,0.9-0.5C7.8,12.8,8.7,12,9.4,12c0.3-0.1,1,0.4,1.6,0.8c1.1,0.6,2.2,1.3,3.6,1.3c2,0,3.5-1.8,3.7-2
	c0.4-0.5,0.3-1.1-0.2-1.5C17.7,10.2,17,10.3,16.6,10.8z M16.6,16.5c-0.2,0.3-1.2,1.2-2,1.2c-0.8,0-1.7-0.5-2.5-1
	c-0.9-0.6-1.8-1-2.8-1.1c-1.5,0-2.7,1.1-3.4,1.7c-0.3,0.2-0.5,0.5-0.5,0.9c0,0.6,0.5,1.1,1.1,1.1c0,0,0,0,0,0c0.4,0,0.7-0.2,0.9-0.5
	c0.3-0.3,1.2-1.1,1.9-1.1c0.3-0.1,1,0.4,1.6,0.8c1.1,0.6,2.2,1.3,3.6,1.3c2,0,3.5-1.8,3.7-2c0.4-0.5,0.3-1.1-0.2-1.5
	C17.7,15.9,17,16,16.6,16.5z"/>
</svg>
