<?xml version="1.0" encoding="utf-8"?>
<!-- Generator: Adobe Illustrator 21.1.0, SVG Export Plug-In . SVG Version: 6.00 Build 0)  -->
<svg version="1.1" id="Layer_2" xmlns="http://www.w3.org/2000/svg" xmlns:xlink="http://www.w3.org/1999/xlink" x="0px" y="0px"
	 viewBox="0 0 24 24" style="enable-background:new 0 0 24 24;" xml:space="preserve">
<style type="text/css">
	.st0{fill:#404040;}
</style>
<path class="st0" d="M12.7,9.7c0,0-2.3,0.5-3.7,3.2c0,0-1-1.6-0.5-2.7c0.5-1.1,1.1-3,6.9-2.6c0,0,1,3.3-0.7,5.7
	c-2.1,3-4.1,0.8-4.1,0.8l-0.2,2.4l-1.6,0C8.7,16.5,8.1,13.4,12.7,9.7z M21.1,18.4c0,1.6-1.3,3-3,3c-1.6,0-3-1.3-3-3c0-1.6,1.3-3,3-3
	C19.8,15.5,21.1,16.8,21.1,18.4z M19.8,17.7l-0.5-0.5l-1.5,1.5l-0.7-0.7l-0.5,0.5l1.2,1.3L19.8,17.7z M12,2C6.5,2,2,6.5,2,12
	c0,5.5,4.5,10,10,10c1.2,0,2.4-0.2,3.5-0.6c-0.5-0.5-0.9-1.1-1.1-1.7C13.6,19.9,12.8,20,12,20c-4.4,0-8-3.6-8-8c0-4.4,3.6-8,8-8
	s8,3.6,8,8c0,1-0.2,1.9-0.5,2.7c0.7,0.2,1.2,0.7,1.7,1.2c0.5-1.2,0.8-2.5,0.8-3.9C22,6.5,17.5,2,12,2z"/>
</svg>
