<?xml version="1.0" encoding="utf-8"?>
<!-- Generator: Adobe Illustrator 21.1.0, SVG Export Plug-In . SVG Version: 6.00 Build 0)  -->
<svg version="1.1" id="Layer_2" xmlns="http://www.w3.org/2000/svg" xmlns:xlink="http://www.w3.org/1999/xlink" x="0px" y="0px"
	 viewBox="0 0 100 100" style="enable-background:new 0 0 24 24;" xml:space="preserve">
<style type="text/css">
	.st0{fill:#404040;}
</style>
<path class="st0" d="M19.5,19.3V13H17v-2.7h-2.6c0-1.2-0.8-2.1-1.9-2.3V6.5c0.3-0.2,0.6-0.4,0.9-0.4c0.4,0,0.7,0.2,1,0.5h0
	c0.3,0.3,0.6,0.4,1,0.4c0.4,0,0.7-0.2,1-0.4h0V3.5c-0.3,0.3-0.6,0.5-1,0.5c-0.4,0-0.7-0.2-1-0.5h0c-0.3-0.3-0.6-0.4-1-0.4
	c-0.3,0-0.7,0.1-0.9,0.4v0c0-0.2-0.1-0.3-0.3-0.3c-0.2,0-0.3,0.1-0.3,0.3V8c-1.2,0.1-2.1,1.1-2.1,2.3H7V13H4.5v6.3H2V21h20v-1.7
	H19.5z M10.3,15.3h3.3l0,3.9h-3.3L10.3,15.3z"/>
</svg>
