<?xml version="1.0" encoding="utf-8"?>
<!-- Generator: Adobe Illustrator 21.1.0, SVG Export Plug-In . SVG Version: 6.00 Build 0)  -->
<svg version="1.1" id="Layer_2" xmlns="http://www.w3.org/2000/svg" xmlns:xlink="http://www.w3.org/1999/xlink" x="0px" y="0px"
	 viewBox="0 0 100 100" style="enable-background:new 0 0 24 24;" xml:space="preserve">
<style type="text/css">
	.st0{fill:#404040;}
</style>
<path class="st0" d="M15.4,11.2L15.4,11.2l-0.6-0.5L12.5,14h-1.1l-2.3-3.3l-0.6,0.4l0,0H8.5l0,9.4h0.8v-2.2l5.5,0v2.2h0.8L15.4,11.2
	L15.4,11.2z M9.2,12.2l1.5,2.2v1.1h0.1l-1.6,2.3L9.2,12.2z M10.2,17.7l1.5-2.2h0.4l1.5,2.2H10.2z M13.2,15.4L13.2,15.4l0-1l1.6-2.2
	v5.6L13.2,15.4z M15.2,7.9l-6.2,0V7l6.2,0V7.9z M14.8,6.7l-5.5,0V6.3c0-1.2,0.7-2.2,1.8-2.5V6h0.4V3.4c0.2-0.1,0.4-0.1,0.6-0.1
	c0.2,0,0.5,0,0.7,0.1V6h0.4l0-2.2c1,0.4,1.7,1.4,1.7,2.5V6.7z M9.4,8.2l5.3,0c0.1,0.2,0.1,0.5,0.1,0.7c0,1.5-1.2,2.7-2.7,2.7
	c-1.5,0-2.7-1.2-2.7-2.7C9.2,8.7,9.3,8.4,9.4,8.2z"/>
</svg>
