<?xml version="1.0" encoding="utf-8"?>
<!-- Generator: Adobe Illustrator 21.1.0, SVG Export Plug-In . SVG Version: 6.00 Build 0)  -->
<svg version="1.1" id="Layer_2" xmlns="http://www.w3.org/2000/svg" xmlns:xlink="http://www.w3.org/1999/xlink" x="0px" y="0px"
	 viewBox="0 0 100 100" style="enable-background:new 0 0 24 24;" xml:space="preserve">
<style type="text/css">
	.st0{fill:#404040;}
</style>
<path class="st0" d="M4,20.1h16v-4.5H4V20.1z M17.1,17.5h2.1v2h-2.1V17.5z M8.8,16.1H11v3.4H8.8V16.1z M5.5,16.1h2.1v3.4H5.5V16.1z
	 M4,3.9v4.5h16V3.9H4z M7.7,7.9H5.5V4.5h2.1V7.9z M11,7.9H8.8V4.5H11V7.9z M19.2,7.9h-2.1v-2h2.1V7.9z M4,14.3h16V9.7H4V14.3z
	 M17.1,11.7h2.1v2h-2.1V11.7z M8.8,10.3H11v3.4H8.8V10.3z M5.5,10.3h2.1v3.4H5.5V10.3z"/>
</svg>
