<?xml version="1.0" encoding="utf-8"?>
<!-- Generator: Adobe Illustrator 21.1.0, SVG Export Plug-In . SVG Version: 6.00 Build 0)  -->
<svg version="1.1" id="Layer_2" xmlns="http://www.w3.org/2000/svg" xmlns:xlink="http://www.w3.org/1999/xlink" x="0px" y="0px"
	 viewBox="0 0 100 100" style="enable-background:new 0 0 24 24;" xml:space="preserve">
<style type="text/css">
	.st0{fill:#404040;}
</style>
<path class="st0" d="M3.7,5.5C3.6,5.4,3.5,5.3,3.4,5.2C5.2,4.1,8.4,3.3,12,3.3c3.7,0,6.8,0.8,8.5,1.9c-0.3,0.5-0.9,0.9-1.7,1.3
	c-1.3-0.6-3.6-1.2-6.8-1.2c-3.3,0-5.6,0.6-6.9,1.2C4.6,6.2,4.1,5.9,3.7,5.5z M21.9,7.1c0,0.9-0.8,1.7-2.2,2.4v9.2l-7.7,2l-7.9-2V9.3
	C2.8,8.7,2.1,7.9,2.1,7.1c0-0.4,0.2-0.9,0.6-1.3c0.4,0.5,1,1,1.8,1.4c0.6,0.4,1.9,1,3.8,1.3c1.2,0.2,2.4,0.3,3.7,0.3
	c1.4,0,2.7-0.1,3.9-0.4c1.8-0.3,3.1-0.8,3.7-1.3c0.8-0.4,1.4-0.9,1.8-1.5C21.7,6.2,21.9,6.6,21.9,7.1z M14.8,10.7
	c-0.9,0.1-1.8,0.2-2.8,0.2c-1,0-2.1-0.1-3-0.2V17l2.9-0.8l2.9,0.9V10.7z"/>
</svg>
