<?xml version="1.0" encoding="utf-8"?>
<!-- Generator: Adobe Illustrator 21.1.0, SVG Export Plug-In . SVG Version: 6.00 Build 0)  -->
<svg version="1.1" id="Layer_2" xmlns="http://www.w3.org/2000/svg" xmlns:xlink="http://www.w3.org/1999/xlink" x="0px" y="0px"
	 viewBox="0 0 24 24" style="enable-background:new 0 0 24 24;" xml:space="preserve">
<style type="text/css">
	.st0{fill:#404040;}
</style>
<path class="st0" d="M12,2C6.5,2,2,6.5,2,12c0,5.5,4.5,10,10,10s10-4.5,10-10C22,6.5,17.5,2,12,2z M12,20c-4.4,0-8-3.6-8-8
	c0-4.4,3.6-8,8-8s8,3.6,8,8C20,16.4,16.4,20,12,20z M9.5,9.3c-1.6,0-2.6,1.2-2.6,2.8c0,1.5,0.9,2.7,2.5,2.7c1.5,0,2.6-1,2.6-2.8
	C12,10.5,11.1,9.3,9.5,9.3z M9.4,13.8c-0.8,0-1.3-0.7-1.3-1.8c0-1,0.5-1.8,1.3-1.8c0.8,0,1.3,0.8,1.3,1.8
	C10.7,13,10.2,13.8,9.4,13.8z M16,9.4h1.1v5.3h-1.2l-1.1-2c-0.3-0.6-0.7-1.2-0.9-1.9l0,0c0,0.7,0,1.4,0,2.3v1.6h-1.1V9.4h1.4
	l1.1,1.9c0.3,0.6,0.6,1.2,0.9,1.8h0C16,12.4,16,11.7,16,10.9V9.4z"/>
</svg>
