<?xml version="1.0" encoding="utf-8"?>
<!-- Generator: Adobe Illustrator 21.1.0, SVG Export Plug-In . SVG Version: 6.00 Build 0)  -->
<svg version="1.1" id="Layer_2" xmlns="http://www.w3.org/2000/svg" xmlns:xlink="http://www.w3.org/1999/xlink" x="0px" y="0px"
	 viewBox="0 0 100 100" style="enable-background:new 0 0 24 24;" xml:space="preserve">
<style type="text/css">
	.st0{fill:#404040;}
</style>
<path class="st0" d="M14.9,12.5l3.3-3.3l-0.5-0.5l2.9-2.9l-2.3-2.3l-2.9,2.9l-0.6-0.6l-3.3,3.3L10,7.6l-3,3l1.2,1.2l-2.6,2.6
	l0.4,0.4l-2.5,2.5l3.2,3.2l1.1-1.1l-2.2-2.2l1.4-1.4L8.1,17l-0.7,0.7l1.1,1.1L9.1,18l0.5,0.5l2.6-2.6l1.1,1.1l3-3L14.9,12.5z
	 M12.6,10.2L14.8,8l1.3,1.3l-2.2,2.2l0,0L12.6,10.2L12.6,10.2z M9.6,16.4l-2-2l1.5-1.5l2,2L9.6,16.4z"/>
</svg>
