<?xml version="1.0" encoding="utf-8"?>
<!-- Generator: Adobe Illustrator 21.1.0, SVG Export Plug-In . SVG Version: 6.00 Build 0)  -->
<svg version="1.1" id="Layer_2" xmlns="http://www.w3.org/2000/svg" xmlns:xlink="http://www.w3.org/1999/xlink" x="0px" y="0px"
	 viewBox="0 0 100 100" style="enable-background:new 0 0 24 24;" xml:space="preserve">
<style type="text/css">
	.st0{fill:#404040;}
</style>
<path class="st0" d="M6.2,4v16h11.6V4H6.2z M12,18.5c-1.5,0-2.8-1.3-2.8-2.8c0-1,0.6-2,1.5-2.5c0.2-0.1,0.4,0,0.5,0.1
	c0.1,0.2,0,0.4-0.1,0.5c-0.7,0.4-1.1,1.1-1.1,1.9c0,1.2,0.9,2.1,2.1,2.1s2.1-0.9,2.1-2.1c0-0.8-0.4-1.5-1.1-1.9
	c-0.2-0.1-0.2-0.3-0.1-0.5c0.1-0.2,0.3-0.2,0.5-0.1c0.9,0.5,1.5,1.4,1.5,2.5C14.8,17.2,13.5,18.5,12,18.5z M11.7,15.5v-2.7
	c0-0.2,0.2-0.3,0.3-0.3s0.3,0.2,0.3,0.3v2.7c0,0.2-0.2,0.3-0.3,0.3S11.7,15.7,11.7,15.5z M12,11.2c-1.7,0-3-1.4-3-3c0-1.7,1.4-3,3-3
	s3,1.4,3,3C15,9.9,13.7,11.2,12,11.2z M12,5.9c-1.3,0-2.3,1.1-2.3,2.3s1.1,2.3,2.3,2.3s2.3-1.1,2.3-2.3S13.3,5.9,12,5.9z M11.1,8.8
	c-0.3,0-0.6-0.3-0.6-0.6c0-0.3,0.3-0.6,0.6-0.6c0.3,0,0.6,0.3,0.6,0.6C11.7,8.6,11.4,8.8,11.1,8.8z M12.9,8.8
	c-0.3,0-0.6-0.3-0.6-0.6c0-0.3,0.3-0.6,0.6-0.6c0.3,0,0.6,0.3,0.6,0.6C13.5,8.6,13.3,8.8,12.9,8.8z"/>
</svg>
