<?xml version="1.0" encoding="utf-8"?>
<!-- Generator: Adobe Illustrator 21.1.0, SVG Export Plug-In . SVG Version: 6.00 Build 0)  -->
<svg version="1.1" id="Layer_2" xmlns="http://www.w3.org/2000/svg" xmlns:xlink="http://www.w3.org/1999/xlink" x="0px" y="0px"
	 viewBox="0 0 100 100" style="enable-background:new 0 0 24 24;" xml:space="preserve">
<style type="text/css">
	.st0{fill:#404040;}
</style>
<path class="st0" d="M20.2,7.4V6.2h-0.7v1.2h-1.2V6.2h-0.7v1.2h-0.5v0.7c0,0.8,0.5,1.5,1.2,1.8v5.7v0h0c0,0.7-0.6,1.2-1.3,1.2
	c-0.2,0-0.3,0-0.5-0.1V4.5c0-0.7-0.6-1.2-1.2-1.2H5.9c-0.7,0-1.2,0.6-1.2,1.2v14.6H3.2v1.6h14.7v-1.6h-1.4v-1.1
	c0.2,0,0.3,0.1,0.5,0.1c1.4,0,2.5-1.1,2.5-2.5V9.9c0.8-0.2,1.3-1,1.3-1.8V7.4H20.2z M15,12.6h-1v1H6.3V9h7.7v1h1V12.6z M7.3,10h5.8
	v2.7H7.3V10z"/>
</svg>
