<?xml version="1.0" encoding="utf-8"?>

<svg version="1.1" id="Layer_1" xmlns="http://www.w3.org/2000/svg" xmlns:xlink="http://www.w3.org/1999/xlink" x="0px" y="0px"
	 width="24px" height="24px" viewBox="0 0 24 24" enable-background="new 0 0 24 24" xml:space="preserve">
<path d="M10.2,2c0.2,0,0.4,0.1,0.4,0.3l2.2,4L13,6.5l-0.1,0.3l-2.2,4c-0.1,0.2-0.2,0.3-0.4,0.3H5.8c-0.2,0-0.4-0.1-0.4-0.3l-2.2-4
	L3,6.5l0.1-0.3l2.2-4C5.4,2.1,5.6,2,5.8,2H10.2 M10.2,13c0.2,0,0.4,0.1,0.4,0.3l2.2,4l0.1,0.3l-0.1,0.3l-2.2,4
	c-0.1,0.1-0.2,0.3-0.4,0.3H5.8c-0.2,0-0.4-0.1-0.4-0.3l-2.2-4L3,17.5l0.1-0.3l2.2-4C5.4,13.1,5.6,13,5.8,13H10.2 M19.5,7.5
	c0.2,0,0.4,0.1,0.4,0.3l2.2,4l0.1,0.3l-0.1,0.3l-2.2,4c-0.1,0.1-0.2,0.3-0.4,0.3H15c-0.2,0-0.4-0.1-0.4-0.3l-2.2-4L12.2,12l0.1-0.3
	l2.2-4c0.1-0.2,0.2-0.3,0.4-0.3H19.5z"/>
<rect fill="none" width="24" height="24"/>
</svg>
