<?xml version="1.0" encoding="utf-8"?>

<svg version="1.1" id="Layer_1" xmlns="http://www.w3.org/2000/svg" xmlns:xlink="http://www.w3.org/1999/xlink" x="0px" y="0px"
	 width="24px" height="24px" viewBox="0 0 24 24" enable-background="new 0 0 24 24" xml:space="preserve">
<path d="M22,11.4c0.2,0.3,0.2,0.7,0,1l-4.6,7.8c-0.1,0.2-0.2,0.3-0.4,0.4c-0.2,0.1-0.4,0.2-0.6,0.1l-9.1,0.1c-0.4,0-0.7-0.2-0.9-0.5
	L2,12.6c-0.2-0.3-0.2-0.7,0-1l4.6-7.8C6.7,3.6,6.8,3.4,7,3.3s0.4-0.2,0.6-0.1l9.1-0.1c0.4,0,0.7,0.2,0.9,0.5L22,11.4z"/>
<rect fill="none" width="24" height="24"/>
</svg>
