<?xml version="1.0" encoding="utf-8"?>
<!-- Generator: Adobe Illustrator 21.1.0, SVG Export Plug-In . SVG Version: 6.00 Build 0)  -->
<svg version="1.1" id="Layer_2" xmlns="http://www.w3.org/2000/svg" xmlns:xlink="http://www.w3.org/1999/xlink" x="0px" y="0px"
	 viewBox="0 0 24 24" style="enable-background:new 0 0 24 24;" xml:space="preserve">
<style type="text/css">
	.st0{fill:#404040;}
</style>
<path class="st0" d="M8.8,16.1v-5.7H5.7v5.7c-0.4,0.3-0.6,0.6-0.8,1.1H4.1v2.1h0.8c0.4,0.9,1.3,1.6,2.4,1.6s2-0.7,2.4-1.6h0.8v-2.1
	H9.7C9.5,16.7,9.2,16.4,8.8,16.1z M7.3,19.7c-0.9,0-1.6-0.7-1.6-1.6c0-0.9,0.7-1.6,1.6-1.6c0.9,0,1.6,0.7,1.6,1.6
	C8.9,19,8.2,19.7,7.3,19.7z M10.3,9.3V6.2h0V6.1c0-1.6-1.3-2.9-2.9-2.9c-1.6,0-2.9,1.3-2.9,2.9v0.1v0.2v3H10.3z M7.3,4.8
	c0.9,0,1.6,0.7,1.6,1.6c0,0.9-0.7,1.6-1.6,1.6c-0.9,0-1.6-0.7-1.6-1.6C5.7,5.5,6.4,4.8,7.3,4.8z M19.1,6.8h0.8V4.7h-0.8
	c-0.4-0.9-1.3-1.6-2.4-1.6s-2,0.7-2.4,1.6h-0.8v2.1h0.8c0.2,0.4,0.5,0.8,0.8,1.1v5.7h3.1V7.9C18.6,7.6,18.9,7.3,19.1,6.8z M18.3,5.8
	c0,0.9-0.7,1.6-1.6,1.6s-1.6-0.7-1.6-1.6c0-0.9,0.7-1.6,1.6-1.6S18.3,5,18.3,5.8z M13.7,14.7v3v0.2v0.1c0,1.6,1.3,2.9,2.9,2.9
	c1.6,0,2.9-1.3,2.9-2.9v-0.1h0v-3.2H13.7z M15.1,17.6c0-0.9,0.7-1.6,1.6-1.6s1.6,0.7,1.6,1.6c0,0.9-0.7,1.6-1.6,1.6
	S15.1,18.5,15.1,17.6z"/>
</svg>
