<?xml version="1.0" encoding="utf-8"?>
<!-- Generator: Adobe Illustrator 21.1.0, SVG Export Plug-In . SVG Version: 6.00 Build 0)  -->
<svg version="1.1" id="Layer_2" xmlns="http://www.w3.org/2000/svg" xmlns:xlink="http://www.w3.org/1999/xlink" x="0px" y="0px"
	 viewBox="0 0 24 24" style="enable-background:new 0 0 24 24;" xml:space="preserve">
<style type="text/css">
	.st0{fill:#404040;}
</style>
<path class="st0" d="M6.9,10.2l-2.8,0l0-1.2h0.6l0-0.7h0.4l0-4l6.6,0h0.9l6.6,0l0,4h0.2l0,0.7h0.6l0,1.2h-2.8l0-1.2h0.6l0-0.7h0.5
	l0-3.1l-5.7,0l0,1.2h0.3l0,0.7h0.6l0,1.2l-2.8,0l0-1.2h0.6l0-0.7l0.4,0l0-1.2l-5.7,0l0,3.1h0.4l0,0.7l0.6,0L6.9,10.2z M21.6,18.6
	l0,1.2l-19.2,0l0-1.2H3l0-7.9l5,0l0,7.9h1.5l0-9.8l5,0l0,9.8H16l0-7.9l5,0l0,7.9L21.6,18.6z M17,15.1l1.3,0l-0.3,2.2l2.1-2.7l-1.3,0
	l0.3-2.1L17,15.1z M10.5,13.3l1.3,0l-0.3,2.2l2.1-2.7l-1.3,0l0.3-2.1L10.5,13.3z M4,15.1l1.3,0l-0.3,2.2L7,14.6l-1.3,0L6,12.4
	L4,15.1z"/>
</svg>
