<?xml version="1.0" encoding="utf-8"?>
<!-- Generator: Adobe Illustrator 21.1.0, SVG Export Plug-In . SVG Version: 6.00 Build 0)  -->
<svg version="1.1" id="Layer_2" xmlns="http://www.w3.org/2000/svg" xmlns:xlink="http://www.w3.org/1999/xlink" x="0px" y="0px"
	 viewBox="0 0 24 24" style="enable-background:new 0 0 24 24;" xml:space="preserve">
<style type="text/css">
	.st0{fill:#404040;}
</style>
<g>
	<g>
		<g>
			<path class="st0" d="M8,20L8,20c-0.6,0-1.2-0.2-1.7-0.5c-0.4-0.3-0.7-0.6-0.9-1l-3.3,0L2,7.3l7.6,0l0,2.1l-5.5,0l0,7l0.9,0
				c0.1-0.6,0.4-1.1,0.8-1.5C6.4,14.3,7.2,14,8,14l0,0c0.8,0,1.6,0.3,2.1,0.9c0.6,0.6,0.9,1.3,0.9,2.1c0,0.8-0.3,1.6-0.9,2.1
				C9.5,19.7,8.8,20,8,20z M8,17.9L8,17.9c0.5,0,1-0.4,1-0.9c0-0.3-0.1-0.5-0.3-0.7C8.5,16.1,8.2,16,8,16h0c-0.5,0-1,0.4-1,0.9
				C7,17.5,7.4,17.9,8,17.9z"/>
		</g>
		<g>
			<path class="st0" d="M19,20L19,20c-0.8,0-1.6-0.3-2.2-0.9c-0.6-0.6-0.9-1.3-0.9-2.1c0-0.3,0.1-0.7,0.2-1c0.1-0.3,0.3-0.6,0.5-0.9
				c0.3-0.4,0.8-0.7,1.3-0.9l0-4.9l-3,0l-4.7-3.7L11.5,4l4.1,3.2l4.4,0l0,6.9c0.5,0.2,1,0.5,1.3,0.9c0.2,0.3,0.4,0.6,0.5,0.9
				c0.1,0.3,0.2,0.7,0.2,1c0,0.8-0.3,1.6-0.9,2.1C20.5,19.7,19.8,20,19,20z M19,16c-0.5,0-1,0.4-1,0.9c0,0.3,0.1,0.5,0.3,0.7
				c0.2,0.2,0.4,0.3,0.7,0.3l0,0c0.5,0,1-0.4,1-0.9c0-0.3-0.1-0.5-0.3-0.7C19.5,16.1,19.2,16,19,16L19,16z"/>
		</g>
	</g>
</g>
</svg>
