<?xml version="1.0" encoding="utf-8"?>
<!-- Generator: Adobe Illustrator 21.1.0, SVG Export Plug-In . SVG Version: 6.00 Build 0)  -->
<svg version="1.1" id="Layer_2" xmlns="http://www.w3.org/2000/svg" xmlns:xlink="http://www.w3.org/1999/xlink" x="0px" y="0px"
	 viewBox="0 0 24 24" style="enable-background:new 0 0 24 24;" xml:space="preserve">
<style type="text/css">
	.st0{fill:#404040;}
</style>
<path class="st0" d="M15.5,8.1v-2h-1.6v-1h-1.9v1H7.3v-1H5.4v1H4v2h2.1l2.6,2.8v8h2v-8l2.6-2.8H15.5z M10.7,9.4V9h-2v0.5L7.5,8.1H12
	L10.7,9.4z M19,11.1v-0.6h-1.2v0.6h-2.9v-0.6h-1.2v0.6h-0.9v1.2h1.3l1.6,1.7v4.9H17V14l1.6-1.7H20v-1.2H19z M17,13.1v-0.3h-1.2v0.3
	L15,12.3h2.8L17,13.1z"/>
</svg>
